<?xml version="1.0" encoding="utf-8"?>
<!-- Generator: Adobe Illustrator 24.0.1, SVG Export Plug-In . SVG Version: 6.00 Build 0)  -->
<svg version="1.1" id="Layer_1" xmlns="http://www.w3.org/2000/svg" xmlns:xlink="http://www.w3.org/1999/xlink" x="0px" y="0px"
	 viewBox="0 0 850.4 283.5" style="enable-background:new 0 0 850.4 283.5;" xml:space="preserve">
<style type="text/css">
	.st0{fill:#3E3E3E;}
</style>
<title>Financial Academy- Web- Dark</title>
<g id="Layer_2_1_">
	<g id="Layer_1-2">
		<path class="st0" d="M501.1,168.2c-0.1-0.1-0.1-0.2,0-0.3c0,0,0,0,0,0l-0.6-1.6l0,0l-0.9-2.5l0,0l-0.6-1.5l0,0
			c-0.3-2.8-1.4-5.5-3-7.9l0,0c0-0.7-0.1-1.4-0.2-2.1c-1.3-3.8-2.8-7.5-4.2-11.3c-0.4-0.8-0.9-1.6-1.6-2.2l0,0c0-0.4,0.2-0.9,0-1.2
			c-1.3-3.5-2.6-6.9-3.9-10.4c-0.3-0.5-0.6-0.9-1-1.2l0,0l-0.3-1.2l0,0l-0.4-1.1l0,0l-0.3-1c-2.5-6.4-5-12.8-7.4-19.2L455,46.2
			c-1.2-3.3-2.4-6.5-3.6-9.8c0-0.2-0.5-0.3-0.8-0.4l-4.8-14.7l-1.5,0.3c0.4-1.1,0.7-2.2,1.1-3.2c0.7-2.5,3-4.3,5.7-4.2
			c2.7-0.1,5,1.7,5.7,4.3c3.8,9.8,7.5,19.7,11.2,29.7l11.2,29.7l24.5,65.2c2.4,6.3,4.8,12.6,7.2,18.9c1.7,4.4,3.3,8.9,5,13.3
			c0.5,1.2,1.1,2.2,1.6,3.4l-0.3,1l-0.3,0.8v0.2l-0.5,1.1l0,0l-0.6,1l0,0c-1.2,0-1.7,0.6-2,1.6l0,0l-1,0.5l0,0l-4.3-0.5l0,0
			c-0.7-1.1-1.3-2.2-1.8-3.4c-1.1-2.6-2-5.2-3.1-7.8c-0.5-1-1-1.9-1.6-2.8l0,0C502.3,169.4,501.9,168.5,501.1,168.2z"/>
		<path class="st0" d="M397.7,139.9c0.4-0.6,0.7-1.2,1-1.8c4.9-12.5,9.8-25,14.7-37.5c6.6-16.9,13.2-33.8,19.8-50.7
			c0.1-0.3,0.3-0.6,0.5-0.8l0.6-1l0,0l1.6-0.4c0.3,1.1,0.5,2.2,0.4,3.4c-0.8,3.4-0.9,6.9-0.4,10.3c0.2,1.1,0.4,2.1,0.7,3.1l2,0.5
			l-1.2,5.2l0,0l-0.5,1l0,0l-1,2.5l0,0l-1,2.5l0,0c-0.9,1.8-1.8,3.7-2.6,5.7c-0.9,2.4-1.6,4.8-2.4,7.2l0,0l-1,2.5l0,0
			c-1.4,1.9-2.3,4.1-2.5,6.4l0,0l-1,2.5l0,0l-1,2.5l0,0l-0.5,1.5l0,0l-0.5,1.2c-0.7,2-1.3,4-2.1,6c-5.3,13.7-10.7,27.5-16.2,41.5
			c-0.3,0.7-0.6,1.3-0.9,2l-1,0.3c-0.4-1.1-0.9-2.2-1.2-3.3C400.6,147.9,399.1,143.9,397.7,139.9z"/>
		<path class="st0" d="M362.1,179.6c-0.5,1.3-1.1,2.5-1.9,3.6c-2.1,2.2-5.5,2.3-7.7,0.2c-0.5-0.5-1-1.1-1.3-1.8
			c-1-2-1.7-4.3-2.5-6.4L327.9,119c-0.4-0.9-0.8-1.8-1.3-2.6c-0.8-2.3-1.5-4.6-2.4-6.8c-1.2-3.3-2.4-6.5-3.7-9.7
			c0.2-0.6,0.3-1.3,0.5-1.9c0.7-3.2,3.8-5.2,6.9-4.5c2.1,0.5,3.8,2.1,4.4,4.2c3.2,8.5,6.3,17.1,9.4,25.7c4.7,12.7,9.5,25.3,14.2,38
			c0,0.1,0,0.3,0,0.5c1.9,5.1,3.7,10.2,5.7,15.4c0,0.3,0.6,0.5,0.9,0.7l-0.2,1L362.1,179.6z"/>
		<path class="st0" d="M397.7,139.9c1.4,4,2.8,8,4.4,12c0.4,1.1,0.8,2.2,1.2,3.3l1-0.3c-0.4,1-0.7,2-1.1,3c-0.8,2.5-3.1,4.2-5.7,4.2
			c-2.6-0.1-4.9-1.8-5.7-4.3l-11.3-30.1c-0.5-1.4-1-2.8-1.6-4.3c-0.6-1.4-1.2-2.6-1.8-3.9c-0.7-2.2-1.4-4.5-2.2-6.7
			c-0.2-0.5-0.7-0.8-1.1-1.2c0.1-0.6,0.3-1.3,0.5-1.9c0.5-2.7,2.7-4.7,5.4-4.9c2.9-0.3,5.6,1.6,6.2,4.4c3.6,9.4,7.2,18.9,10.8,28.5
			C397,138.6,397.3,139.3,397.7,139.9z"/>
		<path class="st0" d="M373.9,111.8c0.4,0.4,0.9,0.7,1.1,1.2c0.8,2.2,1.4,4.4,2.2,6.7c-1.8,2.5-2.4,5.7-1.7,8.6
			c0.2,1.3,0.2,2.7,0,4.1c-0.1,0.7-0.1,1.4,0,2c0.4,1,0.9,1.9,1.5,2.8l-0.3,0.5l-0.6,1.2c0,0.5-0.1,1-0.2,1.4
			c-4.2,12.2-8.5,24.3-12.8,36.3c-0.2,0.4-0.4,0.8-0.7,1.2c-0.3-0.2-0.8-0.4-0.9-0.7c-1.9-5.1-3.7-10.3-5.7-15.4c0-0.2,0-0.3,0-0.5
			c0.6-1.3,1.2-2.6,1.6-4l15.2-43.2C373.1,113.4,373.6,112.6,373.9,111.8z"/>
		<path class="st0" d="M532.7,183.5c-0.1,0.1-0.2,0.1-0.2,0l-0.5-0.4l0,0l-1.5-2.8V180c0.3-1.1-0.1-2.2-1-2.8l0,0l-0.6-1.5l0,0
			l-0.6-1.4l0,0c0-0.6,0.5-1.3-0.5-1.5l0,0l-0.3-0.7l-3.7-10.3c-0.3-1-0.7-2.1-1-3.2c-1.5-4.9-4.3-9.4-4.5-14.7
			c0.4-2.7,2.6-4.9,5.4-5.1c2.7,0,5.1,1.8,5.9,4.4l10.7,29.9c0.1,0.4,0.2,0.8,0.3,1.2l0.6,1.7l0,0c0.6,2.2,0.3,4.5-1,6.4
			c0,0,0,0.5,0.1,0.7l0,0l-0.5,0.5l0,0l-1,0.5l0,0l-4.1,0.4l0,0l-1-0.5l0,0L532.7,183.5z"/>
		<path class="st0" d="M430.8,226h3.1v9.2h6.5c0.1-0.9,0.2-1.9,0.2-2.8c-0.3-3.6,2.5-6.8,6.1-7c0.2,0,0.5,0,0.7,0
			c3.8,0.4,6.6,3.8,6.2,7.6c0,0.2,0,0.4-0.1,0.6c-0.2,0.6-0.3,1.1-0.6,1.7h8.9v-9.1h3.3c0,3,0,6,0,9c-0.1,2.2-2,3.8-4.1,3.7
			c-3.1,0-6.4,0.8-9.4-0.9c-0.6-0.3-1.6,0-2.4,0.2c-1.2,0.3-2.3,0.6-3.5,0.7c-2.8,0-5.7,0-8.5,0c-1.1-0.1-2.2-0.3-3.3-0.5
			c-0.7-0.1-1.4-0.1-2.1,0c-1.3,0-2.6,0.6-3.8,0.6c-5.3,0-10.6,0-15.9,0c-3.5,0.1-6.6-2.2-7.3-5.7c-0.5-3.2,1.2-6.3,4.2-7.5
			c2.9-1,6.2,0.2,7.8,2.8c0.3,0.6,0.5,1.3,0.6,2.1c0.2,1.6,0.2,3.1,0.3,4.8h13.2V226z M443.8,235.4c1.4,0,2.6,0,3.7,0
			c1.7-0.3,3-1.8,3.1-3.6c-0.2-1.8-1.7-3.3-3.6-3.3c-1.8,0-3.2,1.4-3.2,3.2c0,0,0,0.1,0,0.1C443.7,232.9,443.8,234,443.8,235.4z
			 M414.3,235.4c0.1-1.3,0.1-2.6,0-3.9c-0.1-0.9-0.5-1.7-1.1-2.3c-1-0.9-2.5-1.1-3.6-0.3c-1.2,0.7-1.9,2-1.7,3.4
			c0.1,1.4,1.1,2.6,2.6,2.8C411.8,235.3,413,235.4,414.3,235.4L414.3,235.4z"/>
		<path class="st0" d="M437.4,70.2l1.4-5.2l-2-0.5c-0.3-1-0.6-2.1-0.9-3.1c-0.5-3.4-0.4-6.9,0.4-10.3c0-1.1-0.1-2.3-0.4-3.4
			l-1.6,0.4c1.2-3.3,2.3-6.5,3.5-9.8c2.2-5.7,4.4-11.1,6.7-16.7l1.4-0.3l4.8,14.7c-0.3,1.1-0.5,2.2-0.9,3.2l-5,12.8
			c-0.7,0-1.2,0.3-0.4,1C442,58.7,439.7,64.4,437.4,70.2z"/>
		<path class="st0" d="M320.6,100c1.2,3.2,2.5,6.4,3.7,9.7c0.9,2.2,1.6,4.5,2.4,6.8l-6,16.5c-0.4,1.1-0.8,2.1-1.2,3.1
			c-1.1,2.3-3.6,3.5-6.1,3.1c-2.4-0.5-4.4-2.4-5-4.8c-0.1-0.7,0-1.4,0.2-2.1c3.8-10.4,7.6-20.8,11.3-31.2
			C320.2,100.7,320.4,100.3,320.6,100z"/>
		<path class="st0" d="M483.2,219.1l3.2,0.2v15.9c0.5,0.1,1.1,0.2,1.6,0.3c7.8,0,15.5,0,23.3,0c2,0,2.8-0.7,2.8-2.2
			c0-1.5-0.8-2.8-2.8-2.8c-4.3,0-8.5,0-12.8,0c-1,0-1.9,0-2.8-0.2c-1.4-3.4,0.2-7.3,3.5-8.7c0.8-0.3,1.6-0.5,2.5-0.5
			c4-0.2,8,0,12.1,0v2.8h-11.3c-2.3,0-2.8,0.4-3.7,3c0.6,0.1,1.2,0.2,1.8,0.2c3.5,0,7,0,10.5,0c4,0,6.1,2,6.1,5.7
			c-0.1,3.2-2.8,5.8-6,5.7c-0.1,0-0.2,0-0.3,0h-22.2c-4.2,0-5.7-1.6-5.7-5.7v-11.3C483.1,220.8,483.2,220.1,483.2,219.1z"/>
		<path class="st0" d="M356.1,235.2h11.2c0-1.2,0-2.4,0-3.5c0-3.6,2.9-6.5,6.4-6.5c2.7,0,5.1,1.6,6,4.1c0.3,0.9,0.4,1.9,0.3,2.8
			c0,1,0,1.9,0,3.1h5.7v-15.8h3.1c0,0.7,0.2,1.4,0.2,2c0,4.3,0,8.5,0,13c0.2,2.3-1.4,4.3-3.7,4.5c-0.2,0-0.5,0-0.7,0
			c-2.1,0.3-4.2,0.1-6.1-0.8c-0.7-0.4-1.7,0-2.6,0.1c-1,0.3-2,0.5-3.1,0.7c-4.9,0-9.8,0-14.7,0c-1,0-1.9-0.2-2.8-0.6
			c-1.4-0.5-2.4-1.9-2.3-3.4v-15.5l2.8-0.3L356.1,235.2z M370.4,235.2c1.4,0,2.5,0,3.7,0c1.8-0.1,3.1-1.7,3.1-3.5
			c0-1.8-1.4-3.3-3.2-3.5c-1.8-0.1-3.4,1.2-3.5,3c-0.1,1.4-0.1,2.7,0,4.1V235.2z"/>
		<path class="st0" d="M322,235.2h13.8V226h3.1v9.2h7.4v-15.9h3.1c0.1,0.5,0.2,1,0.2,1.6c0,4.3,0,8.5,0,12.8
			c0.4,2.5-1.4,4.9-3.9,5.2c-0.5,0.1-0.9,0.1-1.4,0c-2,0.3-4.1,0-6-0.8c-0.4-0.2-0.8-0.2-1.2,0c-1.5,0.8-3.3,1.1-5,0.8
			c-5.2,0-10.3,0-15.4,0s-8.2-3.3-7.3-8.6c0.6-2.9,3.1-5,6-5.1c3.1,0,5.7,2.2,6.3,5.2C321.9,231.9,321.9,233.6,322,235.2z
			 M318.9,235.2c0-1.5-0.1-2.9-0.3-4.4c-0.2-1.3-1.3-2.4-2.7-2.5c-1.2-0.2-2.5,0.4-3.1,1.4c-1.1,1.5-0.8,3.7,0.8,4.8
			c0.5,0.4,1.1,0.6,1.8,0.6c1,0.3,2.1,0.2,3.5,0.2V235.2z"/>
		<path class="st0" d="M518.1,144c0.3,5.3,3,9.8,4.5,14.7c0.3,1,0.7,2.1,1,3.2l-6.2,16.7c-0.5-1.1-1.2-2.2-1.6-3.4
			c-1.7-4.4-3.3-8.9-5-13.3c0.8-1.7,1.8-3.4,2.4-5.2C515,152.5,516.5,148.2,518.1,144z"/>
		<path class="st0" d="M520.2,263.1v5.7l-2.8,0.6v-13.7h2.3l3.5,7l3.5-6.9l2.5-0.2v13.4h-2.5v-6.2l-0.4-0.2
			c-0.5,0.8-0.9,1.6-1.4,2.4c-1.2,2-2.1,2-3.2,0c-0.4-0.6-0.7-1.2-1-1.9L520.2,263.1z"/>
		<path class="st0" d="M356,93.7c3.1,0,5.7,2.5,5.7,5.6c0,0.2,0,0.3,0,0.5c-0.1,3.2-2.8,5.7-6,5.7c-3.1-0.3-5.4-2.8-5.5-5.9
			c-0.1-3.1,2.3-5.8,5.4-5.9C355.7,93.7,355.8,93.7,356,93.7z"/>
		<path class="st0" d="M380.4,150.5c3.1-0.1,5.8,2.3,5.9,5.5c0,0.1,0,0.1,0,0.2c0,3.1-2.5,5.7-5.7,5.7c-3.2,0-5.9-2.6-5.9-5.9
			c0,0,0,0,0,0C374.6,153.2,377.7,150,380.4,150.5z"/>
		<path class="st0" d="M386.3,179c-0.2,3.1-2.6,5.6-5.7,5.9c-3.1-0.2-5.6-2.6-5.9-5.7c0-3.2,2.5-5.8,5.7-6.1
			C383.6,173.2,386.2,175.8,386.3,179z"/>
		<path class="st0" d="M361.7,122.1c0,3.2-2.5,5.8-5.7,6c-3.1-0.2-5.6-2.8-5.7-5.9c0.1-3.2,2.7-5.8,5.9-6
			C359.3,116.5,361.7,119,361.7,122.1z"/>
		<path class="st0" d="M399.7,268.9l-2.8,0.3c0-4.6,0-8.9,0-13.5h2.3l4.6,7l0.5-0.2v-6.8l2.8-0.2v6.5c0,1.7,0,3.5,0,5.2
			c0,0.6-0.5,1.7-0.8,1.8c-0.8,0-1.5-0.3-2-0.8c-0.9-1.2-1.8-2.5-2.6-3.8c-0.4-0.7-1-1.4-1.8-1.8L399.7,268.9z"/>
		<path class="st0" d="M520.3,238.8v-3.4h4.1c1.7,0,3.4,0,5.1,0s2.4-0.4,2.4-2.5c0-3.8,0-7.5,0-11.3c0-0.7,0-1.4,0-2.4h2.7
			c0,0,0.3,0.3,0.3,0.4c0,4.9,0.2,9.8,0,14.7c-0.2,2.5-2.3,4.4-4.8,4.4C527.1,238.9,523.8,238.8,520.3,238.8z"/>
		<path class="st0" d="M380.9,268.8c-1.2,0.6-2.7,0.1-3.3-1.1c-1.2-2-2.7-3.9-4.3-5.7v6.9h-2.5v-13c1-0.6,2.3-0.3,2.9,0.7
			c0.1,0.1,0.1,0.2,0.2,0.3c1.2,2.1,2.7,4,4.3,5.8v-7l2.8-0.2L380.9,268.8z"/>
		<path class="st0" d="M492.8,269v-13.4c1.8-0.1,3.6-0.1,5.4,0c1.8,0.2,3.3,1.4,3.8,3c0.3,0.7,0.4,1.4,0.5,2.1
			c0.6,6.3-1.1,8.1-7.4,8.2C494.4,269,493.7,269,492.8,269z M495.6,266.1c3.3,0.6,4.1,0,4.1-3c0-0.7,0-1.5,0-2.2
			c0-2.4-1.5-3.2-4.1-2.2L495.6,266.1z"/>
		<path class="st0" d="M468.1,238.8v-3.4h8.5c1-1.9,1-4.1,0-5.9c-1.2-1.9-3.5-0.7-5.5-1.3L471,225c1.8,0.1,3.7,0.3,5.5,0.6
			c1.7,0.3,3,1.5,3.4,3.2c0.4,2.3,0.4,4.7,0,7c-0.4,2.1-2.6,2.8-4.6,3C473.3,238.9,470.8,238.8,468.1,238.8z"/>
		<path class="st0" d="M514.2,266.4v2.2c-0.2,0-0.3,0.3-0.5,0.3h-8v-13.2h8.5l-0.2,2.7h-5.7v2.8l4.6,0.3v1.9h-4.4v3H514.2z"/>
		<path class="st0" d="M328.5,255.7c0.4-0.1,0.7-0.2,1.1-0.2c0.4,0,0.9,0,1.3,0v13.3c-0.4,0.1-0.8,0.2-1.2,0.2
			c-0.4-0.1-0.7-0.2-1-0.3v-5.1h-4.4v5.4l-2.4,0.3c-0.7-4.4-0.8-8.9-0.3-13.4c0.4-0.1,0.7-0.2,1.1-0.2c0.5,0,1,0,1.4,0v5.5h4.3
			V255.7z"/>
		<path class="st0" d="M431.2,255.5c1.2-0.2,2.3,0.5,2.5,1.7c1.4,3.7,2.8,7.5,4.1,11.2c-2,1.2-2.1,1.1-3.6-1.6
			c-3.6-0.7-4-0.5-5.7,2.3l-2.3-0.2C427.7,264.3,429.4,259.9,431.2,255.5z M430.6,264h2.7l-0.7-3.3h-0.7L430.6,264z"/>
		<path class="st0" d="M479,268.8c0.5-1.6,1-3.1,1.5-4.5c0.9-2.5,1.8-4.9,2.6-7.4c0.4-1.3,1.2-1.7,2.7-1.3l4.8,13.1
			c-2.4,1.1-2.8-0.9-3.9-2.1h-4C482,267.9,481.5,269.7,479,268.8z M484.8,260.5h-0.4l-1,3.7l2.8-0.1L484.8,260.5z"/>
		<path class="st0" d="M394.5,268.8c-2.3,0.7-3.1-0.6-3.7-2.3c-0.7,0-1.5,0-2.2,0c-1.2-0.4-2.4,0.2-2.8,1.4
			c-0.7,1.4-0.8,1.3-2.8,0.7c1-2.8,2.1-5.7,3.1-8.5c0.3-1.2,0.8-2.3,1.2-3.4c0.3-0.5,0.8-0.9,1.4-1c0.6,0.1,1.1,0.5,1.4,1.1
			c0.6,1.4,1.2,2.9,1.6,4.3C392.7,263.5,393.6,266.1,394.5,268.8z M387.3,264.1h2.8l-1.1-3.4h-0.5L387.3,264.1z"/>
		<path class="st0" d="M467.5,268.7l-2.6,0.3l-1-2.4h-4c-0.9,1.1-1.2,3.1-3.8,2.2c1.2-4.5,3.2-8.8,4.5-13.1c0.8-0.5,1.9-0.3,2.4,0.5
			c0.1,0.2,0.2,0.4,0.3,0.6C464.7,260.7,466,264.5,467.5,268.7z M462.1,260.7h-0.5l-1.3,3.6h2.8L462.1,260.7z"/>
		<path class="st0" d="M355.5,263.3v5.5l-2.6,0.3c-0.2-4.6,0-9,0-13.5h8.5v2.6h-5.7v2.8l4.7,0.3v1.9L355.5,263.3z"/>
		<path class="st0" d="M312.8,258.4l-3.3-0.2l-0.2-2.6h9.5v2.4l-3.4,0.5v10.4h-2.7V258.4z"/>
		<path class="st0" d="M477.5,257.1c-0.3,1-1.3,1.6-2.3,1.3c-0.9,0-1.8,0-2.6-0.2c-1,2.5-1,5.2,0,7.7c1.4,1.4,4.1-1.6,5,1.5
			c-1.7,2-4.7,2.4-6.7,0.7c-0.4-0.3-0.7-0.6-0.9-1c-1.3-3.3-1.2-6.9,0.1-10.1c1.9-2,5-2.2,7-0.3C477.3,256.9,477.4,257,477.5,257.1z
			"/>
		<path class="st0" d="M418.3,257.1c-1.3,1.7-1.3,1.7-3.4,0.9c-2.5,1.8-3.2,5.1-1.6,7.8c1.1,1.3,2.3,0.6,3.7,0l1.5,1.8
			c-1.2,1.4-3,2-4.8,1.5c-1.8-0.5-3.4-1.4-3.5-3.5c-0.3-2.1-0.3-4.2,0-6.3C411.1,255.3,415.2,254.3,418.3,257.1z"/>
		<path class="st0" d="M538.3,269.2l-2.8-0.2c-0.1-2.3-0.5-4.5-1-6.8c-0.8-2.1-1.8-4.2-3-6.1c2.2-0.8,2.6-0.7,3.4,0.9
			c0.6,1.1,1,2.2,1.6,3.7l2.7-5h2.8C540,260,536.7,263.7,538.3,269.2z"/>
		<path class="st0" d="M391.8,219.2h2.8v19.4l-2.8,0.2V219.2z"/>
		<path class="st0" d="M539,219.1h2.7v19.4H539V219.1z"/>
		<path class="st0" d="M440.1,255.6h2.6v10.8h5.7l0.2,2.4h-8.5L440.1,255.6z"/>
		<path class="st0" d="M377,137.3c-0.5-0.9-1-1.9-1.5-2.8c-0.1-0.7-0.1-1.4,0-2c0.2-1.3,0.2-2.7,0-4.1c-0.7-3-0.1-6.1,1.7-8.6
			c0.6,1.3,1.3,2.5,1.8,3.9s1.1,2.8,1.6,4.3L377,137.3z"/>
		<path class="st0" d="M337.3,259.4l0.2,1.6l5,0.4l0.3,1.8l-5.2,0.3c0,1.3-0.7,2.5,0.9,3.2h2.6h0.7l2,0.6v1l-2.4,0.5h-5.9l-0.5-0.6
			v-9.8l1.1-1.6L337.3,259.4z"/>
		<path class="st0" d="M364.5,255.6h2.5v13.2l-2.5,0.3V255.6z"/>
		<path class="st0" d="M421.5,255.6h2.5v13.2l-2.5,0.3V255.6z"/>
		<path class="st0" d="M528,234.1h-2.8v-12.8h2.8V234.1z"/>
		<path class="st0" d="M337.3,259.4l-1.3-2.5l-1.1,1.6l-0.2-2.8h8.9v2.6h-4.5C338.3,258.2,337.5,258.3,337.3,259.4z"/>
		<path class="st0" d="M529.9,216.2h-3.5L526,218l3.9,0.6v0.8c-2.1,0.5-4.3,0.6-6.5,0.2v-0.5l1.4-1.2c0.5-1.2-0.4-3.4,2-3.8
			C528.1,213.8,529.1,214.5,529.9,216.2z"/>
		<path class="st0" d="M490.1,138.9c0.6,0.7,1.1,1.4,1.6,2.2c1.5,3.7,2.8,7.5,4.2,11.3c0.1,0.7,0.2,1.4,0.2,2.1L490.1,138.9z"/>
		<path class="st0" d="M461.6,244.4v-3.1l2.7-0.3v3.5L461.6,244.4z"/>
		<path class="st0" d="M502,170.3c0.6,0.9,1.1,1.9,1.6,2.8c1.1,2.6,2,5.2,3.1,7.8c0.5,1.1,1.1,2.1,1.8,3.1c-0.9-0.9-2-1.7-2.5-2.8
			C504.5,177.6,503.3,173.9,502,170.3z"/>
		<path class="st0" d="M431.5,244.4v-3.2h2.6l0.2,3.2H431.5z"/>
		<path class="st0" d="M460.1,244.4l-2.6,0.3l-0.2-3.5l2.8,0.2L460.1,244.4z"/>
		<path class="st0" d="M335,244.5h-2.8v-3.1l2.6-0.5L335,244.5z"/>
		<path class="st0" d="M336.5,244.6v-3.3h2.6l0.3,2.8L336.5,244.6z"/>
		<path class="st0" d="M485.3,126.1c0.4,0.4,0.7,0.8,1,1.2c1.3,3.5,2.6,6.9,3.9,10.4c0,0.3,0,0.8,0,1.2L485.3,126.1z"/>
		<path class="st0" d="M430.1,88.8c0.8-2.4,1.5-4.9,2.4-7.2c0.7-1.9,1.7-3.7,2.6-5.7c-0.5,1.5-0.9,3.1-1.5,4.6
			C432.4,83.4,431.2,86.1,430.1,88.8z"/>
		<path class="st0" d="M427.2,244.6v-3.3h2.7v3.1L427.2,244.6z"/>
		<path class="st0" d="M411.6,220.1h2.6v2.8h-2.6V220.1z"/>
		<path class="st0" d="M311.5,223v-2.8h2.8v3L311.5,223z"/>
		<path class="st0" d="M318.8,223h-2.8v-2.8l2.6-0.3L318.8,223z"/>
		<path class="st0" d="M407.2,222.9l-0.1-2.8h2.8v2.8H407.2z"/>
		<path class="st0" d="M496.1,154.6c1.6,2.3,2.7,5,3,7.9C498.1,159.8,497.1,157.2,496.1,154.6z"/>
		<path class="st0" d="M540.1,183.1c0-0.2-0.2-0.5-0.1-0.7c1.2-1.9,1.6-4.3,1-6.4C542.6,178.2,542.2,181.3,540.1,183.1z"/>
		<path class="st0" d="M426.6,97.7c0.2-2.3,1.1-4.6,2.5-6.4L426.6,97.7z"/>
		<path class="st0" d="M534.4,184.4l4.1-0.4C537.4,185.1,535.7,185.3,534.4,184.4z"/>
		<path class="st0" d="M508.6,184l4.3,0.5C511.6,185.3,509.8,185.1,508.6,184z"/>
		<path class="st0" d="M341.3,268.8l2.4-0.5C343.1,269.5,342.1,268.8,341.3,268.8z"/>
		<path class="st0" d="M530.5,180l1.5,2.8L530.5,180z"/>
		<path class="st0" d="M514,184.2c0.3-1,0.8-1.7,2-1.6L514,184.2z"/>
		<path class="st0" d="M343.7,267.3l-2-0.6C342.4,266.4,343.4,266,343.7,267.3z"/>
		<path class="st0" d="M435.9,73.7l1-2.5L435.9,73.7z"/>
		<path class="st0" d="M435,76.1l1-2.4L435,76.1z"/>
		<path class="st0" d="M429.1,91.3l1-2.5L429.1,91.3z"/>
		<path class="st0" d="M499.6,163.8l0.9,2.5L499.6,163.8z"/>
		<path class="st0" d="M529.4,177.1c0.9,0.6,1.3,1.8,1,2.8L529.4,177.1z"/>
		<path class="st0" d="M424.6,102.6l1-2.5L424.6,102.6z"/>
		<path class="st0" d="M425.7,100.1l1-2.5L425.7,100.1z"/>
		<path class="st0" d="M501.1,168.2c0.8,0.3,1.2,1.2,0.9,2c0,0,0,0,0,0L501.1,168.2z"/>
		<path class="st0" d="M444.3,53c-0.8-0.7-0.3-0.9,0.4-1L444.3,53z"/>
		<path class="st0" d="M484.8,124.7l0.5,1.5L484.8,124.7z"/>
		<path class="st0" d="M500.5,166.3l0.6,1.6L500.5,166.3z"/>
		<path class="st0" d="M499,162.4l0.6,1.5L499,162.4z"/>
		<path class="st0" d="M541,176l-0.6-1.7L541,176z"/>
		<path class="st0" d="M528.4,174.2l0.6,1.4L528.4,174.2z"/>
		<path class="st0" d="M527.9,172.9c1,0.2,0.6,0.9,0.5,1.5L527.9,172.9z"/>
		<path class="st0" d="M528.9,175.7l0.6,1.5L528.9,175.7z"/>
		<path class="st0" d="M424.1,104l0.5-1.5L424.1,104z"/>
		<path class="st0" d="M434.4,48.2l-0.6,1L434.4,48.2z"/>
		<path class="st0" d="M513,184.5l1-0.5L513,184.5z"/>
		<path class="st0" d="M484.4,123.6l0.4,1.1L484.4,123.6z"/>
		<path class="st0" d="M484.1,122.6l0.4,1L484.1,122.6z"/>
		<path class="st0" d="M423.7,105.2l0.5-1.2L423.7,105.2z"/>
		<path class="st0" d="M436.9,71.2l0.5-1L436.9,71.2z"/>
		<path class="st0" d="M533.5,183.9l1,0.5L533.5,183.9z"/>
		<path class="st0" d="M538.5,184.2l1-0.5L538.5,184.2z"/>
		<path class="st0" d="M341,266.7L341,266.7z"/>
		<path class="st0" d="M516.4,181.6l0.5-1.1L516.4,181.6z"/>
		<path class="st0" d="M515.9,182.5l0.6-1L515.9,182.5z"/>
		<path class="st0" d="M516.9,180.3l0.3-0.8L516.9,180.3z"/>
		<path class="st0" d="M527.6,172.1l0.3,0.7L527.6,172.1z"/>
		<path class="st0" d="M532,182.9l0.5,0.4L532,182.9z"/>
		<path class="st0" d="M339.1,266.7L339.1,266.7z"/>
		<path class="st0" d="M539.5,183.6l0.5-0.5L539.5,183.6z"/>
		<path class="st0" d="M532.7,183.5l0.7,0.4L532.7,183.5z"/>
		<path class="st0" d="M334.9,268.2l0.5,0.6L334.9,268.2z"/>
		<path class="st0" d="M362.1,179.6l0.2-0.6L362.1,179.6z"/>
	</g>
</g>
</svg>
