<?xml version="1.0" encoding="utf-8"?>
<!-- Generator: Adobe Illustrator 24.0.1, SVG Export Plug-In . SVG Version: 6.00 Build 0)  -->
<svg version="1.1" id="Layer_1" xmlns="http://www.w3.org/2000/svg" xmlns:xlink="http://www.w3.org/1999/xlink" x="0px" y="0px"
	 viewBox="0 0 850.4 283.5" style="enable-background:new 0 0 850.4 283.5;" xml:space="preserve">
<style type="text/css">
	.st0{fill:#3E3E3E;}
</style>
<title>KAI.SAU- Web- Dark</title>
<g id="Layer_2_1_">
	<g id="Layer_1-2">
		<path class="st0" d="M433.3,150.2c10.9-4.2,21.3-9.8,30.8-16.7c18.9-14.5,33-32.5,38.3-57.1c6.6-30.2-10.7-56-39.7-60.2
			c-7.2-0.9-14.4-1.1-21.6-0.7c0.9-0.4,1.8-0.8,2.6-1.3h23.6c8.7,1.6,16.9,4.9,24.3,9.8c17.2,12.3,22.3,31.7,16.7,54.4
			c-5,20-17.1,35.1-31.7,48.1c-11,9.7-23.7,17.3-37.5,22.4C437.3,149.8,435.3,150.2,433.3,150.2L433.3,150.2z"/>
		<path class="st0" d="M413.1,155.7c-19.1,6.8-51.3,2.6-65.1-17.4c-11.7-17-10.9-35.2-3.5-53.4c9.6-23.5,26.4-39.8,47-52.4
			c6.4-3.8,13.2-7.1,20.3-9.6c1.7-1,3.8-1.2,5.8-0.6c-8.3,2.8-16.2,6.5-23.6,11c-23.2,15-40.6,34.6-46.4,63.5
			c-6.7,33.1,13.7,57.5,44.8,59.8C399.2,156.9,406.2,156.6,413.1,155.7L413.1,155.7z"/>
		<path class="st0" d="M364.6,46.5c-4.3,6.1-9.9,11-14.2,17.1c-8.3,12-14.7,24.7-16.1,39.9c-1.6,17.4,3.5,31.8,16.9,42.5
			c0.9,0.7,2.2,1,2.2,3.1C345,145.4,338,139,333.6,131c-5-9.3-6.6-20-4.6-30.3C333.2,77,347.2,60.5,364.6,46.5z"/>
		<path class="st0" d="M485.1,126.2c8.1-8.4,15.1-17.8,21-27.9c7-13.1,11.5-26.9,9.4-42.3c-1.3-11.9-7.5-22.8-17-29.9
			c-0.7-0.5-1.4-1.1-2-1.7c0,0,0-0.6-0.2-1.4c12.3,6.2,20.9,15.4,24,29.3c3.4,15.2-0.5,29-7.4,42.1c-6.6,12-15.6,22.6-26.3,31.1
			C486.1,125.8,485.6,126,485.1,126.2z"/>
		<path class="st0" d="M413.1,155.7c4.1-0.6,7.1-4.4,6.7-8.5c0.9-15.4-0.2-30.8-3.1-45.9c-0.3-2.5-0.3-6.5-3.4-6.7
			c-3.1-0.2-4.8,2.8-6.2,5.6c-0.6,1.1-0.7,2.7-2.2,3.3c-1-5.5,5-12.5,8.8-13.8c2.9-1,3.1,1.4,3.8,3.1c2.9,9.1,4.6,18.5,5,28.1
			c0.7,8.9,0.6,17.8-0.4,26.7c-1,7.8-1.2,8.1-9.2,8.1l0,0H413.1z"/>
		<path class="st0" d="M433.3,150.1c-2.9,2.1-4.5,1.5-4.9-2.3c-2.2-18.4-0.7-37,4.5-54.7c1.4-4.4,2.7-4.8,6.4-2.3
			c4.3,2.9,6.4,7.2,7.1,13.8c-2.7-3.6-3.6-7.1-6.3-9.2c-2.7-2.1-4.5-2.2-5.6,1.8c-2.8,11.4-4.1,23-3.9,34.7c0,4.7,0,9.5,0.2,14.3
			C430.7,148.2,431,150,433.3,150.1L433.3,150.1L433.3,150.1z"/>
		<path class="st0" d="M404.7,118.2c-5.6-11-6.1-23.9-1.3-35.3c-8.9,3.1-13.4,9.2-16.8,17.4c-0.3-9.6,10.4-21.2,19-21.1
			c1.4,0,2.5,0.6,1.6,2.2C400.7,93.3,402.3,105.6,404.7,118.2z"/>
		<path class="st0" d="M446.8,82.1c4.9,11.6,4.4,24.8-1.5,36c0.6-4.2,1.4-8.3,2-12.5c1.3-8,0.1-16.2-3.5-23.5
			c-0.4-0.8-1.2-1.6-0.6-2.5c0.6-0.9,1.6-0.5,2.5-0.4c9.2,1.1,18.2,11.4,18.5,22C461,92.6,456.3,85.5,446.8,82.1z"/>
		<path class="st0" d="M382.1,100.1c0.1-12.2,5.5-23.7,14.7-31.6c-3,0.2-6,0.6-9,1.2c3.8-3.5,8.9-5.1,14-4.3c0.7,0,1.6,0.3,1.6,1.2
			c-0.2,0.7-0.6,1.3-1.1,1.8c-3.2,2.7-6.2,5.6-9.1,8.7C387.7,83.7,383.9,91.6,382.1,100.1z"/>
		<path class="st0" d="M454.5,68.6c9.8,10.4,14.4,20.6,13.3,29.9c-2.6-12-9.4-22.7-19.1-30.3c-0.7-0.5-1.7-1-1.3-2.1
			c0.4-1.1,1.4-0.8,2.3-1c4.5-0.5,9.1,0.8,12.6,3.7C459.5,69.7,457.2,67,454.5,68.6z"/>
		<path class="st0" d="M407.5,50.7c-2.1-2.6-5.5-1.7-8-4.3c4.5-0.6,9.1,0.8,12.6,3.7c1.8,1.4,0.8,2.2-0.8,2.7
			c-2.8,0.8-5.7,1.4-8.5,2.3c-8.3,2.8-15.3,8.4-19.9,15.8c1.8-9,10.7-16,24.7-20.1h-0.1V50.7z"/>
		<path class="st0" d="M451.4,46.4c-3.3,1.8-6.2,1.2-8.7,4c11.1,2.5,19.9,8,25.1,18.5c-0.5,0.8-0.9,0.6-1.2,0.2
			c-6.2-8.8-15.6-14.8-26.2-16.7c-1-0.2-2.3,0.2-2.7-1.1c-0.3-1.3,1.1-2,2.1-2.5C443.2,46.4,447.4,45.5,451.4,46.4L451.4,46.4z"/>
		<path class="st0" d="M423.8,38.1c0.3,0.7,0.5,0.9,0.4,1c-0.7,2.9-0.7,7-2.5,8.5s-4.7-1.8-7.3-2.6c-5.7-1.7-11.8-2-17.7-0.9
			c-1,0.2-2.2,1-3.6-0.5c5.7-2.7,12.1-3.6,18.3-2.3c1.2,0.1,2.3,0.4,3.4,0.8c3.4,1.6,6.2,1.5,7.6-2.8
			C422.5,38.9,423.1,38.7,423.8,38.1z"/>
		<path class="st0" d="M426.8,38.4c1.1,0.2,1.9,1,2.2,2c0.9,3.1,2.7,2.9,5.1,2c6.4-2.5,13.5-2.7,20.1-0.7c0.7,0.2,1.4,0.5,2,0.9
			c0.3,0.2,0.5,0.6,1.2,1.6c-4.5-1-9.2-1.4-13.8-1.2c-4.3,0.3-8.4,1.5-12.1,3.7c-2.4,1.6-3.5,0.9-3.5-1.9
			C427.9,42.7,426.4,40.9,426.8,38.4z"/>
		<path class="st0" d="M244.5,226.2h1.3v5.7l0,0c0.2-0.4,0.6-0.9,0.8-1.3l3.1-4.4h1.6l-3.7,5l4,6.8h-1.5l-3.2-5.8l-1,1.3v4.5h-1.4
			L244.5,226.2L244.5,226.2z"/>
		<path class="st0" d="M254.2,227.1c0.1,0.5-0.2,0.9-0.7,0.9h-0.1c-0.5,0-0.8-0.4-0.8-0.9l0,0c0-0.5,0.3-0.9,0.8-1l0,0
			C253.9,226.2,254.2,226.6,254.2,227.1L254.2,227.1z M252.7,238v-8.5h1.3v8.5H252.7z"/>
		<path class="st0" d="M256.1,231.8c0-0.9,0-1.6,0-2.3h1.2v1.4l0,0c0.4-1,1.4-1.6,2.4-1.6c1,0,2.6,0.7,2.6,3.6v5.1h-1.2v-4.9
			c0-1.4-0.4-2.5-1.7-2.5c-0.9,0.1-1.6,0.7-1.8,1.6c0,0.2,0,0.5,0,0.7v5.1h-1.4v-6.2L256.1,231.8z"/>
		<path class="st0" d="M271,229.5c0,0.6,0,1.3,0,2.3v4.9c0.2,1.4-0.2,2.8-1.1,3.9c-0.7,0.7-1.7,1.1-2.7,1c-0.9,0-1.7-0.2-2.4-0.7
			l0.3-1.2c0.6,0.5,1.4,0.7,2.2,0.7c1.4,0,2.4-0.8,2.4-3.1v-1l0,0c-0.5,0.9-1.4,1.4-2.3,1.4c-1.8,0-3.1-1.8-3.1-4.1
			c0-2.9,1.6-4.5,3.3-4.5c1,0,1.9,0.6,2.3,1.5l0,0v-1.3L271,229.5z M269.6,232.9c0-0.2,0-0.5,0-0.7c-0.2-0.9-0.9-1.6-1.9-1.6
			c-1.3,0-2.2,1.3-2.2,3.1c0,1.8,0.7,3.1,2.2,3.1c0.9-0.1,1.6-0.7,1.8-1.6c0-0.3,0-0.5,0-0.8v-1.6L269.6,232.9z"/>
		<path class="st0" d="M278,234.3l-1,3.7h-1.4l3.5-11.8h1.7l3.5,11.8h-1.4l-1.1-3.7H278z M281.4,233.1l-1-3.4
			c-0.2-0.8-0.4-1.5-0.6-2.2l0,0c-0.2,0.7-0.3,1.4-0.5,2.2l-1,3.4H281.4z"/>
		<path class="st0" d="M285.6,238c0-0.6,0-1.4,0-2.2v-10.3h1.4v5.3l0,0c0.5-1,1.5-1.6,2.5-1.5c1.8,0,3.1,1.8,3.1,4.3
			c0,3.1-1.7,4.6-3.3,4.6c-1.1,0-2.1-0.6-2.5-1.6l0,0v1.4H285.6L285.6,238z M287,234.6c0,0.2,0,0.4,0,0.6c0.2,1,1,1.8,2,1.8
			c1.4,0,2.2-1.3,2.2-3.3c0-2-0.8-3.1-2.2-3.1c-1,0.1-1.9,0.9-2,1.9c0,0.2,0,0.4,0,0.6V234.6L287,234.6z"/>
		<path class="st0" d="M300.6,225.5v10.3c0,0.8,0,1.6,0,2.2h-1.2v-1.5l0,0c-0.4,1-1.4,1.7-2.5,1.7c-1.8,0-3.1-1.7-3.1-4.3
			c0-2.6,1.5-4.5,3.3-4.5c0.9,0,1.8,0.5,2.2,1.3l0,0v-5.1h1.3V225.5z M299.3,233.1c0-0.2,0-0.4,0-0.6c-0.1-1-0.9-1.7-1.9-1.8
			c-1.4,0-2.2,1.4-2.2,3.3c0,1.9,0.7,3.1,2.2,3.1c1-0.1,1.8-0.8,1.9-1.8c0-0.2,0-0.5,0-0.7V233.1z"/>
		<path class="st0" d="M309,235.7c0,0.9,0,1.7,0,2.3h-1.2v-1.4l0,0c-0.4,0.9-1.4,1.6-2.4,1.6c-1.2,0-2.6-0.7-2.6-3.7v-5h1.3v4.7
			c0,1.6,0.4,2.7,1.6,2.7c0.8-0.1,1.5-0.6,1.8-1.4c0-0.3,0-0.5,0-0.8v-5.2h1.3L309,235.7L309,235.7z"/>
		<polygon class="st0" points="311.2,225.5 312.5,225.5 312.5,238 311.2,238 311.2,225.5 		"/>
		<polygon class="st0" points="314.8,225.5 316.1,225.5 316.1,238 314.8,238 314.8,225.5 		"/>
		<path class="st0" d="M322.4,238v-1.1l0,0c-0.5,0.8-1.3,1.3-2.3,1.3c-1.2,0-2.3-1-2.3-2.2c0-0.1,0-0.1,0-0.2c0-2,1.6-3.1,4.4-3.1
			v-0.2c0-0.7-0.2-1.9-1.7-1.9c-0.7,0-1.4,0.2-1.9,0.6l-0.3-1c0.7-0.5,1.5-0.8,2.4-0.8c2.2,0,2.8,1.8,2.8,3.5v3.1c0,0.7,0,1.4,0.2,2
			h-1.2L322.4,238z M322.2,233.6c-1.4,0-3.1,0.2-3.1,1.9c0,1,0.6,1.5,1.3,1.5c0.8,0,1.6-0.6,1.8-1.4c0-0.2,0-0.3,0-0.5L322.2,233.6
			L322.2,233.6z"/>
		<path class="st0" d="M325.6,225.5h1.4v5.3l0,0c0.4-0.9,1.3-1.5,2.3-1.5c1,0,2.6,0.7,2.6,3.6v5.1h-1.3v-4.9c0-1.4-0.4-2.5-1.7-2.5
			c-0.9,0.1-1.6,0.7-1.8,1.5c0,0.2,0,0.5,0,0.7v5.1h-1.3v-12.3L325.6,225.5z"/>
		<polygon class="st0" points="338.6,226.2 338.6,238 337.3,238 337.3,226.2 338.6,226.2 		"/>
		<path class="st0" d="M340.9,231.8c0-0.9,0-1.6,0-2.3h1.2v1.4l0,0c0.4-1,1.4-1.6,2.4-1.6c1,0,2.6,0.7,2.6,3.6v5.1h-1.3v-4.9
			c0-1.4-0.5-2.5-1.7-2.5c-0.9,0.1-1.6,0.7-1.8,1.6c0,0.2,0,0.5,0,0.7v5.1H341v-6.2L340.9,231.8z"/>
		<path class="st0" d="M349.1,236.4c0.5,0.4,1.1,0.6,1.8,0.6c0.7,0.1,1.3-0.4,1.4-1c0-0.1,0-0.2,0-0.2c0-0.7-0.4-1.1-1.4-1.6
			c-1.1-0.3-1.9-1.3-1.9-2.4c0-1.3,1-2.4,2.3-2.5c0.1,0,0.1,0,0.2,0c0.6,0,1.3,0.2,1.8,0.5l-0.3,1.1c-0.4-0.3-1-0.5-1.5-0.5
			c-0.6-0.1-1.1,0.4-1.2,1v0.1c0,0.7,0.4,1,1.4,1.4c1.2,0.3,1.9,1.4,1.9,2.6c0,1.4-1,2.5-2.4,2.5c-0.1,0-0.2,0-0.4,0
			c-0.7,0-1.5-0.2-2.1-0.6L349.1,236.4L349.1,236.4z"/>
		<path class="st0" d="M356.9,226.9v2.4h1.9v1.2h-1.9v4.7c0,1,0.3,1.6,1,1.6c0.3,0,0.5,0,0.8,0v1.1c-0.4,0.2-0.8,0.2-1.2,0.2
			c-0.6,0-1.1-0.2-1.4-0.6c-0.4-0.7-0.6-1.4-0.5-2.2v-4.7h-1.1v-1.2h1.1v-2l1.3-0.4L356.9,226.9z"/>
		<path class="st0" d="M361.8,227.1c0.1,0.5-0.3,0.9-0.8,1h-0.1c-0.5,0-0.8-0.5-0.8-0.9l0,0c-0.1-0.5,0.2-0.9,0.7-1
			c0.5-0.1,0.9,0.2,1,0.7C361.8,226.9,361.8,227,361.8,227.1z M360.3,238v-8.5h1.3v8.5H360.3z"/>
		<path class="st0" d="M365.5,226.9v2.4h1.9v1.2h-1.9v4.7c0,1,0.2,1.6,1,1.6c0.3,0,0.5,0,0.8,0v1.1c-0.4,0.2-0.8,0.2-1.2,0.2
			c-0.6,0-1.1-0.2-1.4-0.6c-0.4-0.7-0.6-1.4-0.5-2.2v-4.7h-1.1v-1.2h1.1v-2l1.3-0.4L365.5,226.9z"/>
		<path class="st0" d="M375,235.7c0,0.9,0,1.7,0,2.3h-1.2v-1.4l0,0c-0.4,1-1.4,1.6-2.4,1.6c-1.1,0-2.5-0.7-2.5-3.7v-5h1.3v4.7
			c0,1.6,0.4,2.7,1.6,2.7c0.8-0.1,1.5-0.6,1.8-1.4c0-0.3,0-0.5,0-0.8v-5.2h1.3v6.2L375,235.7z"/>
		<path class="st0" d="M378.8,226.9v2.4h1.9v1.2h-1.9v4.7c0,1,0.2,1.6,1,1.6c0.2,0,0.5,0,0.7,0v1.1c-0.4,0.2-0.8,0.2-1.2,0.2
			c-0.6,0-1.1-0.2-1.4-0.6c-0.4-0.7-0.6-1.4-0.5-2.2v-4.7h-1.1v-1.2h1.1v-2l1.3-0.4L378.8,226.9z"/>
		<path class="st0" d="M383,234c0,2.1,1.2,3.1,2.5,3.1c0.7,0,1.4-0.1,2-0.4l0.2,1.1c-0.8,0.4-1.6,0.5-2.4,0.5
			c-2.3,0-3.6-1.7-3.6-4.3s1.3-4.6,3.5-4.6s3.1,2.4,3.1,4c0,0.3,0,0.6,0,0.7L383,234z M386.9,232.9c0-1-0.3-2.5-1.8-2.5
			c-1.5,0-1.9,1.4-2,2.5H386.9z"/>
		<polygon class="st0" points="393.1,226.2 398.6,226.2 398.6,227.5 394.4,227.5 394.4,231.4 398.3,231.4 398.3,232.7 394.4,232.7 
			394.4,238 393.1,238 393.1,226.2 		"/>
		<path class="st0" d="M407.2,233.7c0,3.1-1.9,4.5-3.7,4.5c-1.8,0-3.5-1.7-3.5-4.3c0-2.7,1.6-4.5,3.7-4.5
			C405.7,229.3,407.2,231.1,407.2,233.7z M401.3,233.7c0,1.9,0.9,3.3,2.2,3.3s2.2-1.4,2.2-3.3c0-1.4-0.6-3.3-2.2-3.3
			C402,230.4,401.3,232.1,401.3,233.7z"/>
		<path class="st0" d="M408.8,232.2c0-1,0-1.9,0-2.7h1.1v1.7l0,0c0.2-1,1-1.8,2-1.8h0.4v1.5h-0.5c-1,0-1.6,0.8-1.8,2
			c0,0.2,0,0.5,0,0.7v4.5h-1.3L408.8,232.2L408.8,232.2z"/>
		<path class="st0" d="M417,226.3c0.8-0.2,1.7-0.3,2.5-0.2c1.1-0.2,2.2,0.2,3.1,0.9c1.2,1.4,1,3.6-0.4,4.8c-0.2,0.2-0.4,0.3-0.7,0.5
			l0,0c0.9,0.5,1.4,1.4,1.5,2.4c0.2,1,0.5,2.1,0.8,3.1h-1.4c-0.3-0.9-0.6-1.9-0.7-2.8c-0.3-1.6-0.8-2.2-2-2.3h-1.2v5.1h-1.3
			L417,226.3L417,226.3z M418.3,231.7h1.4c1.2,0.1,2.2-0.8,2.3-2c0-0.1,0-0.2,0-0.3c0-1.5-1-2.2-2.3-2.2c-0.4,0-0.9,0-1.3,0.2
			C418.3,227.4,418.3,231.7,418.3,231.7z"/>
		<path class="st0" d="M425.9,234c0,2.1,1.2,3.1,2.5,3.1c0.7,0,1.4-0.1,2-0.4l0.2,1.1c-0.8,0.4-1.6,0.5-2.4,0.5
			c-2.3,0-3.6-1.7-3.6-4.3s1.3-4.6,3.5-4.6s3.1,2.4,3.1,4c0,0.3,0,0.6,0,0.7L425.9,234z M429.9,232.9c0-1-0.3-2.5-1.8-2.5
			c-1.5,0-1.9,1.4-2,2.5H429.9z"/>
		<path class="st0" d="M432.6,236.4c0.5,0.4,1.1,0.6,1.8,0.6c1,0,1.4-0.6,1.4-1.3s-0.4-1.1-1.4-1.6c-1.1-0.3-1.9-1.3-1.9-2.4
			c0-1.3,1-2.4,2.3-2.5c0.1,0,0.1,0,0.2,0c0.6,0,1.3,0.2,1.8,0.5l-0.3,1.1c-0.4-0.3-1-0.5-1.5-0.5c-0.6-0.1-1.2,0.4-1.2,1v0.1
			c0,0.7,0.5,1,1.4,1.4c1.1,0.3,1.9,1.4,1.9,2.6c0,1.4-1,2.5-2.4,2.5c-0.1,0-0.2,0-0.4,0c-0.7,0-1.5-0.2-2.1-0.6L432.6,236.4
			L432.6,236.4z"/>
		<path class="st0" d="M439.5,234c0,2.1,1.2,3.1,2.5,3.1c0.7,0,1.4-0.1,2-0.4l0.2,1.1c-0.8,0.4-1.6,0.6-2.4,0.5
			c-2.3,0-3.6-1.7-3.6-4.3s1.3-4.6,3.4-4.6s3.1,2.4,3.1,4c0,0.2,0,0.5,0,0.7L439.5,234z M443.4,232.9c0-1-0.3-2.5-1.8-2.5
			c-1.5,0-1.9,1.4-2,2.5H443.4z"/>
		<path class="st0" d="M450.4,238v-1.1l0,0c-0.5,0.8-1.3,1.3-2.3,1.3c-1.2,0-2.3-1-2.3-2.2c0-0.1,0-0.1,0-0.2c0-2,1.6-3.1,4.4-3.1
			v-0.2c0-0.7-0.2-1.9-1.7-1.9c-0.7,0-1.4,0.2-1.9,0.6l-0.3-1c0.7-0.5,1.5-0.8,2.4-0.8c2.2,0,2.8,1.8,2.8,3.5v3.1
			c-0.1,0.7-0.1,1.4,0,2C451.6,238,450.4,238,450.4,238z M450.4,233.6c-1.4,0-3.1,0.2-3.1,1.9c0,1,0.6,1.5,1.3,1.5
			c0.8,0,1.6-0.6,1.8-1.4c0-0.2,0-0.3,0-0.5L450.4,233.6L450.4,233.6z"/>
		<path class="st0" d="M453.7,232.2c0-1,0-1.9,0-2.7h1.2v1.7l0,0c0.2-1,1-1.8,2-1.8h0.4v1.5h-0.4c-1,0-1.6,0.8-1.8,2
			c0,0.2,0,0.5,0,0.7v4.5h-1.3L453.7,232.2L453.7,232.2z"/>
		<path class="st0" d="M463.9,237.7c-0.7,0.3-1.4,0.5-2.1,0.5c-2.2,0-3.6-1.7-3.6-4.3c-0.3-2.2,1.3-4.2,3.6-4.5c0.1,0,0.2,0,0.4,0
			c0.6,0,1.3,0.2,1.8,0.5l-0.3,1.2c-0.5-0.3-1-0.4-1.5-0.4c-1.7,0-2.6,1.4-2.6,3.1s1.1,3.1,2.5,3.1c0.6,0,1.1-0.1,1.6-0.4
			L463.9,237.7L463.9,237.7z"/>
		<path class="st0" d="M465.5,225.5h1.3v5.3l0,0c0.2-0.4,0.5-0.8,1-1.1c0.4-0.3,0.9-0.4,1.4-0.4c1,0,2.6,0.7,2.6,3.6v5.1h-1.3v-4.9
			c0-1.4-0.5-2.5-1.7-2.5c-0.9,0.1-1.6,0.7-1.8,1.5c0,0.2,0,0.5,0,0.7v5.1h-1.3v-12.3L465.5,225.5z"/>
		<path class="st0" d="M483.5,238l-1-1.1c-0.8,0.9-1.9,1.4-3.1,1.3c-1.7,0-3.1-1.4-3.1-3.1c0-0.1,0-0.2,0-0.3c0-1.4,0.8-2.7,2-3.5
			l0,0c-0.5-0.7-0.8-1.6-0.8-2.5c-0.1-1.5,1-2.8,2.5-2.9h0.1c1.3,0,2.3,1.1,2.3,2.3c0,0.1,0,0.1,0,0.2c-0.1,1.4-1,2.6-2.3,3.1l0,0
			c0.9,1.1,1.8,2.5,2.5,3.3c0.6-1.1,0.9-2.3,1-3.5h1.2c-0.1,1.6-0.6,3.1-1.5,4.4c0.6,0.7,1.1,1.3,1.7,2.1L483.5,238z M481.9,236
			c-0.6-0.8-1.8-2.2-2.9-3.7c-0.8,0.5-1.3,1.4-1.3,2.4c-0.1,1.2,0.8,2.3,2.1,2.4l0,0C480.6,237,481.4,236.6,481.9,236z M478.9,228.7
			c0,0.8,0.3,1.5,0.8,2.1c1-0.7,1.7-1.3,1.7-2.3c0-1-0.3-1.5-1.2-1.5C479.3,227,478.9,227.8,478.9,228.7z"/>
		<path class="st0" d="M496.6,237.6c-0.8,0.4-1.8,0.6-2.7,0.6c-2.9,0-5.1-2.1-5.1-6c-0.4-3,1.8-5.8,4.8-6.1c0.2,0,0.3,0,0.5,0
			c0.8,0,1.7,0.1,2.4,0.5l-0.3,1.3c-0.6-0.3-1.3-0.5-2.1-0.5c-2.4,0-4,1.8-4,4.9s1.4,4.7,3.9,4.7c0.7,0,1.5-0.2,2.2-0.5L496.6,237.6
			L496.6,237.6z"/>
		<path class="st0" d="M504.9,233.7c0,3.1-1.9,4.5-3.7,4.5c-1.8,0-3.5-1.7-3.5-4.3c0-2.7,1.6-4.5,3.7-4.5S504.9,231.1,504.9,233.7z
			 M499.1,233.7c0,1.9,0.9,3.3,2.2,3.3c1.3,0,2.2-1.4,2.2-3.3c0-1.4-0.6-3.3-2.2-3.3S499.1,232.1,499.1,233.7z"/>
		<path class="st0" d="M506.6,231.8c0-0.9,0-1.6,0-2.3h1.2v1.4l0,0c0.4-1,1.4-1.6,2.4-1.6c1,0,2.6,0.7,2.6,3.6v5.1h-1.3v-4.9
			c0-1.4-0.5-2.5-1.7-2.5c-0.9,0.1-1.6,0.7-1.8,1.6c0,0.2,0,0.5,0,0.7v5.1h-1.3L506.6,231.8L506.6,231.8z"/>
		<path class="st0" d="M514.8,236.4c0.5,0.4,1.1,0.6,1.8,0.6c0.7,0.1,1.3-0.4,1.4-1c0-0.1,0-0.2,0-0.2c0-0.7-0.4-1.1-1.4-1.6
			c-1.1-0.3-1.9-1.3-1.9-2.4c0-1.3,1-2.4,2.3-2.5c0.1,0,0.1,0,0.2,0c0.6,0,1.3,0.2,1.8,0.5l-0.3,1.1c-0.4-0.3-1-0.5-1.5-0.5
			c-0.6-0.1-1.1,0.4-1.2,1v0.1c0,0.7,0.4,1,1.4,1.4c1.2,0.3,1.9,1.4,1.9,2.6c0,1.4-1,2.5-2.4,2.5c-0.1,0-0.2,0-0.4,0
			c-0.7,0-1.5-0.2-2.1-0.6L514.8,236.4L514.8,236.4z"/>
		<path class="st0" d="M527.2,235.7c0,0.9,0,1.7,0,2.3H526v-1.4l0,0c-0.4,0.9-1.4,1.6-2.4,1.6c-1.2,0-2.6-0.7-2.6-3.7v-5h1.3v4.7
			c0,1.6,0.4,2.7,1.6,2.7c0.8-0.1,1.5-0.6,1.8-1.4c0-0.3,0-0.5,0-0.8v-5.2h1.3L527.2,235.7L527.2,235.7z"/>
		<polygon class="st0" points="529.4,225.5 530.7,225.5 530.7,238 529.4,238 529.4,225.5 		"/>
		<path class="st0" d="M534.6,226.9v2.4h1.9v1.2h-1.9v4.7c0,1,0.2,1.6,1,1.6c0.3,0,0.5,0,0.8,0v1.1c-0.4,0.2-0.8,0.2-1.2,0.2
			c-0.6,0-1.1-0.2-1.4-0.6c-0.4-0.7-0.6-1.4-0.5-2.2v-4.7h-1.1v-1.2h1.1v-2L534.6,226.9z"/>
		<path class="st0" d="M539.4,227.1c0.1,0.5-0.3,0.9-0.8,1c0,0,0,0-0.1,0c-0.5,0-1-0.4-1-1c0-0.5,0.4-1,1-1l0,0
			C539.1,226.2,539.4,226.6,539.4,227.1L539.4,227.1L539.4,227.1z M538,238v-8.5h1.3v8.5H538z"/>
		<path class="st0" d="M541.5,231.8c0-0.9,0-1.6,0-2.3h1.2v1.4l0,0c0.4-1,1.4-1.6,2.4-1.6c1,0,2.6,0.7,2.6,3.6v5.1h-1.3v-4.9
			c0-1.4-0.5-2.5-1.7-2.5c-0.9,0.1-1.6,0.7-1.8,1.6c0,0.2,0,0.5,0,0.7v5.1h-1.3L541.5,231.8L541.5,231.8z"/>
		<path class="st0" d="M556.3,229.5c0,0.6,0,1.3,0,2.3v4.9c0.2,1.4-0.2,2.8-1,3.9c-0.7,0.7-1.7,1.1-2.7,1c-0.9,0-1.7-0.2-2.4-0.7
			l0.3-1.2c0.6,0.4,1.4,0.7,2.2,0.7c1.4,0,2.4-0.8,2.4-3.1v-1l0,0c-0.4,0.9-1.3,1.4-2.3,1.4c-1.8,0-3.1-1.8-3.1-4.1
			c0-2.9,1.6-4.5,3.3-4.5c1,0,1.9,0.6,2.3,1.5l0,0v-1.3L556.3,229.5z M554.9,232.9c0-0.2,0-0.5,0-0.7c-0.2-0.9-1-1.6-1.9-1.6
			c-1.3,0-2.2,1.3-2.2,3.1c0,1.8,0.7,3.1,2.2,3.1c0.9,0,1.7-0.7,1.8-1.6c0-0.3,0-0.5,0-0.8v-1.6L554.9,232.9z"/>
		<path class="st0" d="M561.4,236.2c0.7,0.5,1.5,0.8,2.3,0.8c1,0.1,2-0.6,2.1-1.7c0-0.1,0-0.2,0-0.3c0-1.1-0.6-1.7-1.9-2.3
			c-1.4-0.6-2.7-1.7-2.7-3.4s1.4-3.1,3.1-3.1c0.1,0,0.2,0,0.3,0c0.8,0,1.6,0.2,2.2,0.6l-0.4,1.2c-0.6-0.4-1.2-0.6-1.9-0.6
			c-1-0.1-1.8,0.6-1.9,1.6c0,0.1,0,0.1,0,0.2c0,1.1,0.6,1.7,2,2.3c1.6,0.4,2.6,1.8,2.6,3.5c0.1,1.8-1.3,3.4-3.2,3.4
			c-0.1,0-0.3,0-0.4,0c-0.9,0-1.8-0.3-2.6-0.7L561.4,236.2z"/>
		<path class="st0" d="M570.6,226.9v2.4h1.9v1.2h-1.9v4.7c0,1,0.2,1.6,1,1.6c0.3,0,0.5,0,0.8,0v1.1c-0.4,0.2-0.8,0.2-1.2,0.2
			c-0.6,0-1.1-0.2-1.4-0.6c-0.4-0.7-0.6-1.4-0.5-2.2v-4.7h-1.1v-1.2h1.1v-2L570.6,226.9z"/>
		<path class="st0" d="M580.2,235.7c0,0.9,0,1.7,0,2.3H579v-1.4l0,0c-0.4,1-1.4,1.6-2.4,1.6c-1.1,0-2.5-0.7-2.5-3.7v-5h1.3v4.7
			c0,1.6,0.4,2.7,1.6,2.7c0.8-0.1,1.5-0.6,1.8-1.4c0-0.3,0-0.5,0-0.8v-5.2h1.3L580.2,235.7L580.2,235.7z"/>
		<path class="st0" d="M588.8,225.5v10.3c0,0.8,0,1.6,0,2.2h-1.2v-1.5l0,0c-0.4,1-1.4,1.7-2.5,1.7c-1.8,0-3.1-1.7-3.1-4.3
			c0-2.6,1.5-4.5,3.3-4.5c0.9,0,1.8,0.5,2.3,1.3l0,0v-5.1h1.2V225.5z M587.5,233.1c0-0.2,0-0.4,0-0.6c-0.1-1-0.9-1.7-1.9-1.8
			c-1.4,0-2.2,1.4-2.2,3.3c0,1.9,0.7,3.1,2.2,3.1c1-0.1,1.8-0.8,2-1.8c0-0.2,0-0.5,0-0.7L587.5,233.1L587.5,233.1z"/>
		<path class="st0" d="M592.5,227.1c0.1,0.5-0.2,0.9-0.7,0.9h-0.1c-0.5,0-0.8-0.4-0.8-0.9l0,0c0-0.5,0.3-0.9,0.8-1l0,0
			C592.2,226.2,592.6,226.6,592.5,227.1L592.5,227.1z M591,238v-8.5h1.2v8.5H591z"/>
		<path class="st0" d="M595.3,234c0,2.1,1.2,3.1,2.5,3.1c0.7,0,1.4-0.1,2-0.4l0.2,1.1c-0.7,0.4-1.6,0.5-2.4,0.5
			c-2.3,0-3.6-1.7-3.6-4.3s1.3-4.6,3.5-4.6c2.2,0,3.1,2.4,3.1,4c0,0.2,0,0.5,0,0.7L595.3,234z M599.2,232.9c0-1-0.3-2.5-1.8-2.5
			c-1.5,0-1.9,1.4-2,2.5H599.2z"/>
		<path class="st0" d="M602,236.4c0.5,0.4,1.1,0.6,1.8,0.6c0.7,0.1,1.3-0.4,1.4-1c0-0.1,0-0.2,0-0.2c0-0.7-0.4-1.1-1.4-1.6
			c-1.1-0.3-1.9-1.3-1.9-2.4c0-1.3,1-2.4,2.3-2.5c0.1,0,0.1,0,0.2,0c0.6,0,1.3,0.2,1.8,0.5l-0.3,1.1c-0.4-0.3-1-0.5-1.5-0.5
			c-0.6-0.1-1.1,0.4-1.2,1v0.1c0,0.7,0.5,1,1.4,1.4c1.2,0.3,2,1.4,1.9,2.6c0,1.4-1,2.5-2.4,2.5c-0.1,0-0.2,0-0.4,0
			c-0.7,0-1.5-0.2-2.1-0.6L602,236.4L602,236.4z"/>
		<path class="st0" d="M290.4,253.6h1.6v5.7l0,0c0.3-0.4,0.6-0.8,1-1.2l3.7-4.5h1.9l-4.3,5l4.7,6.8h-1.8l-3.9-5.8l-1.1,1.3v4.5h-1.6
			L290.4,253.6L290.4,253.6z"/>
		<path class="st0" d="M301.8,254.7c0,0.5-0.4,0.9-0.9,1h-0.1c-0.5,0-1-0.4-1-1c0-0.5,0.4-1,1-1c0.5,0,0.9,0.3,1,0.8
			C301.8,254.6,301.8,254.6,301.8,254.7L301.8,254.7z M300.1,265.6v-8.7h1.5v8.5L300.1,265.6z"/>
		<path class="st0" d="M304.2,259.2c0-0.9,0-1.6,0-2.3h1.2v1.4l0,0c0.6-1,1.7-1.7,2.8-1.6c1.2,0,3.1,0.7,3.1,3.6v5.1h-1.6v-4.9
			c0-1.4-0.5-2.5-2-2.5c-1,0-1.8,0.6-2.1,1.6c0,0.2,0,0.5,0,0.7v5.1h-1.5C304.2,265.4,304.2,259.2,304.2,259.2z"/>
		<path class="st0" d="M321.5,256.9c0,0.6,0,1.3,0,2.3v4.9c0.2,1.4-0.3,2.8-1.2,3.9c-0.9,0.7-2,1.1-3.1,1c-1,0-2-0.2-2.9-0.7
			l0.4-1.2c0.8,0.5,1.6,0.7,2.5,0.7c1.6,0,2.8-0.8,2.8-3.1v-0.8l0,0c-0.6,0.9-1.7,1.5-2.8,1.4c-2.1-0.1-3.8-1.9-3.7-4
			c0-0.1,0-0.1,0-0.2c-0.2-2.3,1.4-4.3,3.7-4.5c0.1,0,0.1,0,0.2,0c1.1-0.1,2.2,0.5,2.7,1.5l0,0v-1.3L321.5,256.9z M319.9,260.3
			c0-0.2,0-0.5,0-0.7c-0.3-1-1.2-1.6-2.2-1.6c-1.5,0-2.6,1.3-2.6,3.1c0,1.8,0.8,3.1,2.5,3.1c1,0,1.9-0.6,2.2-1.6
			c0.1-0.3,0.1-0.5,0.2-0.8L319.9,260.3L319.9,260.3z"/>
		<path class="st0" d="M327.6,263.5c0.8,0.5,1.8,0.8,2.8,0.8c1.6,0,2.5-0.8,2.5-2c0-1.2-0.6-1.7-2.2-2.3c-1.6-0.6-3.1-1.7-3.1-3.4
			s1.5-3.1,3.9-3.1c0.9,0,1.8,0.2,2.6,0.6l-0.4,1.3c-0.7-0.4-1.5-0.7-2.4-0.7c-1.6,0-2.3,1-2.3,1.8s0.7,1.6,2.4,2.3
			c1.6,0.6,3.1,1.7,3.1,3.5s-1.4,3.4-4.2,3.4c-1.1,0-2.1-0.2-3.1-0.7L327.6,263.5L327.6,263.5z"/>
		<path class="st0" d="M341.3,265.4v-1l0,0c-0.6,0.8-1.6,1.3-2.7,1.2c-1.3,0.1-2.5-0.9-2.6-2.2c0-0.1,0-0.1,0-0.2
			c0-2.1,1.8-3.1,5.2-3.1l0,0c0.1-1-0.5-1.8-1.5-2c-0.2,0-0.3,0-0.5,0c-0.8,0-1.6,0.2-2.3,0.6l-0.3-1c0.9-0.5,1.8-0.7,2.8-0.7
			c2.7,0,3.3,1.8,3.3,3.5v3.1c0,0.7,0,1.4,0.2,2h-1.4L341.3,265.4z M341.1,261.1c-1.7,0-3.6,0.3-3.6,1.9c-0.1,0.8,0.5,1.4,1.3,1.5
			c0.1,0,0.1,0,0.2,0c0.9,0,1.8-0.5,2.1-1.4c0-0.2,0-0.3,0-0.5V261.1L341.1,261.1z"/>
		<path class="st0" d="M352.4,263.1c0,0.9,0,1.6,0,2.3h-1.3V264l0,0c-0.6,1-1.7,1.6-2.8,1.6c-1.4,0-3.1-0.7-3.1-3.7v-5h1.5v4.7
			c0,1.6,0.5,2.7,1.9,2.7c0.9,0,1.7-0.6,2.1-1.4c0-0.3,0-0.5,0-0.8v-5.2h1.6L352.4,263.1L352.4,263.1z"/>
		<path class="st0" d="M362.4,252.9v10.3c0,0.8,0,1.6,0,2.2H361l-0.1-1.4l0,0c-0.6,1.1-1.7,1.8-2.9,1.7c-2.1-0.1-3.8-1.9-3.7-4.1
			c0-0.1,0-0.2,0-0.2c-0.3-2.2,1.3-4.3,3.5-4.5c0.1,0,0.2,0,0.3,0c1-0.1,2,0.4,2.6,1.3l0,0v-5.1h1.7V252.9z M360.9,260.4
			c0-0.2,0-0.4,0-0.6c-0.2-1-1.1-1.8-2.2-1.8c-1.6,0-2.6,1.4-2.6,3.3s0.9,3.1,2.6,3.1c1.1,0,2-0.8,2.3-1.8c0-0.2,0-0.5,0-0.7
			L360.9,260.4L360.9,260.4z"/>
		<path class="st0" d="M370.4,253.6v7c0,2.7,1.2,3.8,2.8,3.8c1.6,0,3.1-1.2,3.1-3.8v-7h1.5v6.9c0,3.6-1.9,5.1-4.5,5.1
			c-2.6,0-4.3-1.4-4.3-5.1v-7h1.6L370.4,253.6z"/>
		<path class="st0" d="M380.3,259.2c0-0.9,0-1.6,0-2.3h1.4v1.4l0,0c0.6-1,1.7-1.7,2.8-1.6c1.2,0,3.1,0.7,3.1,3.6v5.1H386v-4.9
			c0-1.4-0.5-2.5-2-2.5c-1,0-1.8,0.6-2.1,1.6c0,0.2,0,0.5,0,0.7v5.1h-1.6L380.3,259.2L380.3,259.2z"/>
		<path class="st0" d="M391.9,254.7c0,0.5-0.4,1-1,1c-0.5,0-1-0.4-1-1c0-0.5,0.4-1,1-1l0,0c0.5-0.1,0.9,0.3,1,0.8
			C391.9,254.6,391.9,254.6,391.9,254.7z M390.1,265.6v-8.7h1.6v8.5L390.1,265.6z"/>
		<path class="st0" d="M394.8,256.9l1.7,4.8c0.3,0.7,0.5,1.4,0.7,2.2l0,0c0.2-0.7,0.5-1.4,0.7-2.2l1.7-4.8h1.6l-3.3,8.5h-1.5
			l-3.3-8.5H394.8z"/>
		<path class="st0" d="M403.8,261.4c-0.2,1.5,0.8,2.9,2.3,3.1c0.3,0,0.5,0,0.8,0c0.8,0,1.6-0.1,2.4-0.5l0.2,1.1
			c-0.9,0.4-1.9,0.6-2.8,0.6c-2.2,0.1-4.1-1.5-4.2-3.7c0-0.2,0-0.4,0-0.6c-0.3-2.3,1.4-4.3,3.6-4.6c0.1,0,0.3,0,0.4,0
			c2,0.1,3.5,1.8,3.4,3.8c0,0.1,0,0.2,0,0.2c0,0.2,0,0.5,0,0.7L403.8,261.4z M408.3,260.3c0.2-1.2-0.7-2.3-1.9-2.5
			c-0.1,0-0.2,0-0.3,0c-1.3,0.1-2.4,1.2-2.4,2.5H408.3z"/>
		<path class="st0" d="M411.8,259.6c0-1,0-1.8,0-2.7h1.4v1.7l0,0c0.3-1.1,1.2-1.9,2.4-1.9h0.4v1.4h-0.5c-1.1,0-2,0.9-2.1,2
			c0,0.2,0,0.5,0,0.7v4.5h-1.5L411.8,259.6L411.8,259.6z"/>
		<path class="st0" d="M417.4,263.9c0.6,0.4,1.3,0.6,2.1,0.6c1.1,0,1.7-0.6,1.7-1.2c0-0.6-0.5-1.2-1.6-1.6c-1.1-0.4-2.3-1.4-2.3-2.4
			c0-1.4,1.3-2.6,2.7-2.5c0.1,0,0.3,0,0.4,0c0.7,0,1.5,0.2,2.1,0.5l-0.4,1.1c-0.5-0.3-1.2-0.5-1.8-0.5c-0.9,0-1.4,0.5-1.4,1.1
			c0,0.6,0.5,1,1.6,1.4c1.1,0.4,2.3,1.3,2.3,2.6c0,1.3-1.2,2.6-3.1,2.6c-0.8,0-1.7-0.2-2.4-0.6l0.5-1.2h-0.4V263.9z"/>
		<path class="st0" d="M426.5,254.7c0,0.5-0.4,0.9-0.9,1h-0.1c-0.5,0-1-0.4-1-1c0-0.5,0.4-1,1-1l0,0c0.5,0,0.9,0.3,1,0.8
			C426.5,254.6,426.5,254.6,426.5,254.7z M424.8,265.6v-8.7h1.5v8.5L424.8,265.6z"/>
		<path class="st0" d="M430.8,254.5v2.4h2.3v1.2h-2.3v4.6c0,1.1,0.3,1.7,1.2,1.7c0.3,0,0.6,0,0.9,0v1.1c-0.4,0.2-0.9,0.3-1.4,0.2
			c-0.6,0-1.2-0.2-1.7-0.6c-0.5-0.6-0.7-1.4-0.6-2.2v-4.8h-1.3v-1.2h1.3v-2L430.8,254.5L430.8,254.5z"/>
		<path class="st0" d="M435.4,256.9l1.8,5l0.6,1.7l0,0c0-0.5,0.3-1.1,0.6-1.8l1.7-5h1.7l-2.3,6.2c-0.6,2-1.6,3.8-3.1,5.3
			c-0.6,0.5-1.2,0.8-1.9,1l-0.5-1.2c0.5-0.2,1-0.4,1.4-0.8c0.6-0.5,1-1,1.3-1.7c0-0.1,0-0.2,0-0.4c0-0.1,0-0.3,0-0.4l-3.1-7.8h1.7
			L435.4,256.9z"/>
		<path class="st0" d="M460.1,262.6h-4c-0.3,0-0.6-0.1-0.9-0.3c-0.2-0.1-0.4-0.4-0.4-0.6c0-0.4,0-0.8,0-1.2h0.2c0,0.4,0.4,0.6,1,0.6
			h3.7c0-2.2-0.8-3.5-2.3-4v-1.7c1,0.5,1.9,1.3,2.3,2.3c0.4,1.1,0.5,2.2,0.5,3.4L460.1,262.6L460.1,262.6z"/>
		<path class="st0" d="M468,262.1c0,0.2,0,0.5,0,0.7c0,0.3-0.1,0.5-0.2,0.8c-0.1,0.3-0.2,0.6-0.4,0.8c-0.2,0.3-0.4,0.5-0.6,0.7
			c-0.4,0.5-1,0.9-1.5,1.2c-0.5,0.3-1.1,0.4-1.6,0.4h-1l-1.1-0.3l-1.9-0.8l0.2-0.3c0.5,0.1,1,0.2,1.5,0.3c0.3,0,0.6,0,0.8,0
			c0.5,0,1-0.1,1.5-0.2c0.5-0.2,1.1-0.5,1.5-0.8l0.6-0.4l0.6-0.6c0.2-0.2,0.4-0.4,0.5-0.6c0.1-0.2,0.2-0.4,0.3-0.6H466
			c-0.3,0-0.6-0.1-0.9-0.2c-0.2-0.1-0.4-0.3-0.5-0.5c-0.1-0.3-0.2-0.7-0.2-1c0-0.2,0-0.3,0-0.5c0-0.2,0-0.4,0-0.6
			c0.1-0.2,0.1-0.4,0.2-0.6c0.1-0.2,0.2-0.4,0.4-0.6c0.1-0.1,0.3-0.3,0.4-0.3c0.2-0.1,0.3-0.2,0.5-0.2c0.2,0,0.5,0.1,0.7,0.2
			c0.2,0.1,0.4,0.3,0.6,0.5c0.2,0.3,0.3,0.6,0.4,0.9c0,0.4,0,0.9,0,1.3v1L468,262.1z M467.2,261.1c-0.1-0.2-0.1-0.5-0.2-0.7
			c-0.1-0.2-0.2-0.3-0.3-0.5l-0.3-0.3c-0.1,0-0.2,0-0.4,0c-0.2,0-0.4,0.1-0.5,0.2c-0.1,0.1-0.2,0.3-0.2,0.4c0.1,0.3,0.3,0.5,0.6,0.6
			c0.5,0.1,1,0.2,1.5,0.2L467.2,261.1z"/>
		<path class="st0" d="M475.1,262.5h-0.6h-0.7c-0.4,0-0.8-0.1-1.2-0.2c-0.4-0.2-0.8-0.5-1-0.9c-1,0.8-2.2,1.2-3.5,1.1h-0.8V261h0.8
			c1,0,2-0.2,2.8-0.7l-0.5-0.6l-0.3-0.2h-0.3c-0.2,0-0.4,0.1-0.5,0.3h-0.2v-0.5c0-0.3,0.2-0.5,0.3-0.8c0.1-0.2,0.2-0.4,0.4-0.5
			c0.2-0.1,0.4-0.2,0.6-0.2c0.3,0,0.6,0,0.8,0c0.6,0,1.2,0.1,1.8,0.3c0.4,0.2,0.6,0.6,0.6,1c0,0.3-0.1,0.5-0.3,0.7
			c-0.2,0.3-0.5,0.6-0.9,0.9c0.2,0.2,0.4,0.3,0.6,0.4c0.2,0,0.4,0,0.6,0h1.4C475.1,261.1,475.1,262.5,475.1,262.5z"/>
		<path class="st0" d="M484.8,262.6h-1.1l-0.6-0.2l-0.6-0.2c-0.2-0.1-0.3-0.2-0.4-0.3c-0.2,0.3-0.5,0.5-0.8,0.6
			c-0.4,0.1-0.7,0.1-1.1,0h-1c-0.3,0-0.6-0.1-0.8-0.2c-0.2-0.2-0.4-0.4-0.5-0.7c-0.1,0.2-0.3,0.3-0.5,0.5c-0.1,0.1-0.3,0.2-0.4,0.2
			c-0.5,0.2-1,0.2-1.5,0.2h-0.9V261h0.9c0.4,0,0.7,0,1.1,0c0.3-0.1,0.5-0.2,0.7-0.4c0.5-0.5,0.8-1.2,0.8-1.9h0.5c0,0.2,0,0.4,0,0.6
			c0,0.2,0,0.3,0,0.5c0,0.3,0,0.6,0.2,0.8c0.2,0.2,0.5,0.3,0.8,0.3h0.7c0.3,0.1,0.7,0.1,1,0c0.3-0.1,0.5-0.3,0.6-0.6
			c0.1-0.2,0.2-0.4,0.3-0.6c0-0.2,0-0.4,0-0.6l0,0l0,0l0.3-0.3l0,0c0,0,0,0.2,0,0.4v0.7c0,0.1,0,0.1,0,0.2s0,0.1,0,0.2
			c0,0.1,0,0.2,0,0.4l0.4,0.2l0.5,0.2c0.2,0.1,0.3,0.1,0.5,0.2c0.2,0,0.4,0,0.5,0c0-0.3,0-0.6,0-0.9c-0.1-0.2-0.2-0.4-0.3-0.6
			l-0.2-0.4v-0.2l0,0l0,0l0.4-0.7l0,0l0.3,0.5l0.2,0.4c0.1,0.5,0.2,1,0.2,1.6v1.9v-0.3H484.8z"/>
		<path class="st0" d="M501.6,262.5H501h-6c-1.1,0.1-2.1-0.1-3.1-0.5c-0.6-0.4-1-1-0.9-1.8c0.1-1,0.4-1.9,0.9-2.7h0.3
			c-0.3,0.5-0.4,1.1-0.5,1.7c0,1,1.1,1.6,3.3,1.6h5.7l-1.3-8.5l0.6-1.1l0,0l1.6,9.6V262.5L501.6,262.5z M498.3,257.4
			c0,0.6-0.2,1.1-0.6,1.4c-0.5,0.4-1.2,0.5-1.8,0.5H495l-1.4-0.4v-0.2h0.9h0.5c0.6,0,1.2-0.1,1.7-0.3c0.2-0.1,0.4-0.2,0.6-0.3
			c0.1-0.1,0.2-0.2,0.2-0.4c0,0,0-0.2-0.5-0.3h-0.5H496c-0.2,0-0.3,0-0.4,0c-0.1-0.1-0.1-0.3,0-0.4c0.1-0.6,0.3-1.2,0.8-1.7
			c0.4-0.5,1-1,1.6-1.3l0,0l-0.2,1c-0.2,0.1-0.4,0.1-0.6,0.2l-0.5,0.3c-0.1,0.1-0.2,0.2-0.2,0.3c0,0.1,0,0.2,0,0.2
			c0,0.1,0,0.1,0,0.2h0.3h0.4h0.4h0.4c0.1,0,0.2,0,0.2,0c0,0.1,0,0.2,0,0.2c0,0.2,0,0.3,0,0.5L498.3,257.4z"/>
		<polygon class="st0" points="505.4,262.5 504.8,262.6 501,262.6 501,261.1 504.5,261.1 503.2,252.6 503.8,251.5 504,251.5 
			505.4,260.9 505.4,262.5 		"/>
		<path class="st0" d="M512.6,262.5H512h-0.3c-1.1,0-2.1-0.4-2.9-1.1c-0.3,0.4-0.6,0.6-1,0.8c-0.5,0.2-1,0.3-1.6,0.2h-1.4v-1.5h1.4
			c0.9,0,1.8-0.4,2.3-1.2c0.4-0.5,0.8-1,1.4-1.3c0.4-0.3,0.8-0.5,1.3-0.6c0.8,0.9,1.3,1.9,1.5,3.1v1.4L512.6,262.5L512.6,262.5z
			 M511.6,260.9c-0.2-0.7-0.5-1.3-0.9-1.8c-0.5,0.2-0.9,0.5-1.2,1c0.5,0.5,1.2,0.9,2,0.9l0,0L511.6,260.9z"/>
		<path class="st0" d="M516.4,262.6h-4.3v-1.5h3.5l-1.1-7.3l-0.4-0.2c0-0.4,0-0.7,0-1.1c0.1-0.4,0.2-0.7,0.4-1l0,0
			c0,0.1,0,0.3,0,0.4c0.1,0.1,0.2,0.2,0.4,0.3l1,0.4c0,0.3,0,0.6,0,0.9s-0.2,0.5-0.2,0.8l-0.5-0.2l1.3,6.7L516.4,262.6L516.4,262.6z
			"/>
		<path class="st0" d="M519.3,260.4c-0.1,0.9-0.4,1.7-0.8,2.4h-0.2c0-0.2,0-0.4,0-0.6c0-0.2,0-0.3,0-0.4c0-0.7,0-1.8-0.2-3.1
			s-0.3-3.1-0.6-5.1c0.1-0.3,0.2-0.5,0.3-0.7l0.4-0.8l0,0c0.3,2.1,0.6,3.8,0.7,5.3c0.1,1.4,0.3,2.5,0.3,3.4L519.3,260.4z"/>
		<path class="st0" d="M532.8,261.1v1.4h-0.6h-0.8h-0.3h-0.2c-0.1-0.1-0.2-0.1-0.2-0.2c-0.1-0.1-0.2-0.3-0.2-0.4
			c-0.1-0.2-0.1-0.4-0.2-0.6c0-0.2,0-0.4-0.2-0.7c-0.2-0.2,0-0.5,0-0.6l0,0l-1,1.2h-1l-0.6-0.3H527h-0.6c-0.1,0-0.2,0-0.3,0h-0.2
			l0,0c0-0.1,0-0.3,0-0.4c0.1-0.2,0.2-0.4,0.3-0.6c0.1-0.2,0.2-0.4,0.3-0.5c0.1-0.1,0.2-0.2,0.2-0.4l0.2-0.2l0.4-0.3
			c0,0,0.3-0.2,0.5-0.3l0.6-0.3l0.9-0.5l-0.2-1l0.6-1l0,0l1.1,5.5c0,0.1,0,0.3,0,0.4l0.2,0.2h0.3h1L532.8,261.1z M530.9,253
			l-0.7,1.2l-1.4-0.7l-0.5,0.9l-1.4-0.7l0.7-1.2l1.4,0.7l0.5-0.9L530.9,253z M529.6,257.4L529.6,257.4c-0.1,0.1-0.1,0.3-0.2,0.4
			c-0.1,0.1-0.2,0.2-0.4,0.3l-1.8,1.1l0,0h0.4h0.5h0.6h0.6c0.2,0,0.4,0,0.4,0c0.1-0.1,0.2-0.1,0.2-0.2l-0.3-1.8V257.4z"/>
		<path class="st0" d="M540,262.5h-0.6h-0.7c-0.4,0-0.8-0.1-1.2-0.2c-0.4-0.2-0.8-0.5-1-0.9c-1,0.8-2.2,1.2-3.5,1.1h-0.8V261h0.8
			c1,0,1.9-0.2,2.8-0.7l-0.5-0.6l-0.3-0.2h-0.3c-0.2,0-0.4,0.1-0.5,0.3H534v-0.5c0-0.3,0.1-0.5,0.3-0.8c0.1-0.2,0.3-0.4,0.5-0.5
			c0.2-0.1,0.4-0.2,0.6-0.2c0.3,0,0.6,0,0.8,0c0.6,0,1.2,0.1,1.8,0.3c0.4,0.2,0.6,0.6,0.6,1c0,0.3-0.1,0.5-0.2,0.7
			c-0.3,0.3-0.6,0.6-0.9,0.9c0.2,0.2,0.4,0.3,0.6,0.4c0.2,0,0.5,0,0.7,0h1.3L540,262.5L540,262.5z"/>
		<path class="st0" d="M547.2,262.6h-0.9c-1.1,0-2.1-0.4-2.9-1.1c-0.3,0.3-0.6,0.6-1,0.8c-0.5,0.2-1.1,0.3-1.6,0.2h-1.4v-1.4h1.4
			c0.9,0,1.8-0.5,2.3-1.2c0.4-0.5,0.8-1,1.4-1.3c0.4-0.3,0.8-0.5,1.3-0.6c0.8,0.9,1.3,1.9,1.5,3.1L547.2,262.6L547.2,262.6
			L547.2,262.6z M546.1,260.9c-0.2-0.7-0.5-1.3-0.9-1.8c-0.5,0.2-0.9,0.5-1.2,1c0.5,0.5,1.2,0.9,2,0.9l0,0L546.1,260.9z"/>
		<path class="st0" d="M551.4,262.5h-0.6c-0.4,0-0.7-0.1-1-0.4c-0.3-0.4-0.5-0.8-0.6-1.3c-0.2-1-0.3-2-0.3-3.1c0-1.5,0-2.4-0.2-2.8
			c-0.1-0.6-0.4-1.1-0.8-1.5l1-1.6l0,0c0.3,1.3,0.5,2.6,0.6,3.9l0.2,3.9c0,0.4,0.2,0.9,0.4,1.2c0.1,0.2,0.3,0.4,0.5,0.4h0.7
			L551.4,262.5L551.4,262.5z"/>
		<path class="st0" d="M560.4,262.7l-0.9-0.2h-1.3h-7.5V261h7.2c-0.7-0.5-1.5-1-2.3-1.4c-0.7-0.3-1.4-0.5-2.2-0.5H553h-0.4
			c0.3-1,1.2-1.6,2.2-1.6c0.8,0.1,1.5,0.4,2.1,0.9l0.8,0.6l1.2,1c0.3,0.2,0.6,0.5,0.9,0.6l0.6,0.3l0.8,0.2l-0.8,1.4L560.4,262.7z
			 M556.4,264.4l-0.7,1.3l-1.4-0.7l0.7-1.3L556.4,264.4z"/>
		<path class="st0" d="M248.1,217.7c-1.1,0.1-2.2-0.3-3.1-1c-0.8-0.8-1.2-1.9-1.1-3.1c-0.1-1.2,0.4-2.4,1.2-3.3
			c0.9-0.8,2.1-1.3,3.3-1.2h1.1V208h1.4v8.3h1.9v1.5l0,0h-4.7V217.7z M249.5,216.3v-5.8h-1.1c-0.9,0-1.7,0.4-2.3,1
			c-0.6,0.6-0.8,1.4-0.8,2.3c0,0.7,0.2,1.5,0.7,2c0.6,0.5,1.3,0.7,2,0.7L249.5,216.3z M247.1,206.5c-0.2,0-0.5-0.1-0.6-0.2
			c-0.2-0.2-0.3-0.5-0.3-0.9c0-0.3,0.1-0.6,0.3-0.8s0.4-0.2,0.6-0.2c0.2,0,0.5,0.1,0.7,0.2c0.2,0.2,0.3,0.5,0.2,0.8
			c0,0.3-0.1,0.6-0.2,0.8C247.6,206.3,247.4,206.4,247.1,206.5L247.1,206.5z M250,206.5c-0.3,0-0.5-0.1-0.7-0.3s-0.3-0.5-0.2-0.8
			c0-0.3,0.1-0.6,0.2-0.8c0.2-0.2,0.4-0.3,0.7-0.2c0.3,0,0.5,0.1,0.7,0.3s0.3,0.5,0.2,0.8c0,0.3-0.1,0.6-0.2,0.8
			C250.5,206.4,250.3,206.5,250,206.5L250,206.5z"/>
		<path class="st0" d="M252.6,217.7L252.6,217.7v-1.2l0,0h3.1v-7.2h1.5v8.5L252.6,217.7z M253.7,221.2c-0.3,0-0.5-0.2-0.7-0.4
			c-0.2-0.2-0.3-0.5-0.3-0.8c-0.1-0.5,0.2-0.9,0.7-1c0.1,0,0.2,0,0.3,0c0.3,0,0.5,0.1,0.7,0.2c0.2,0.2,0.3,0.5,0.2,0.8
			c0,0.3-0.1,0.6-0.2,0.8C254.2,221,254,221.1,253.7,221.2L253.7,221.2z M256.6,221.2c-0.3,0-0.5-0.2-0.7-0.4
			c-0.2-0.2-0.3-0.5-0.3-0.8c0-0.3,0.1-0.6,0.2-0.8c0.2-0.2,0.4-0.3,0.7-0.3c0.3,0,0.5,0.1,0.7,0.3c0.2,0.2,0.3,0.5,0.2,0.7
			c0,0.3-0.1,0.6-0.2,0.8c-0.1,0.2-0.4,0.3-0.6,0.3V221.2z"/>
		<path class="st0" d="M260,221.8c-0.6,0-1.2-0.2-1.7-0.5l0.4-1.2l0.6,0.2c0.2,0,0.4,0,0.6,0c0.5,0,0.9-0.2,1.2-0.6
			c0.3-0.5,0.4-1.1,0.4-1.7v-9h1.4v8.9c0.1,1-0.1,2-0.6,2.8c-0.5,0.7-1.3,1-2.2,1L260,221.8z"/>
		<path class="st0" d="M265.9,204.2h1.5v12h2.2l0,0v1.2l0,0H266v-13.3L265.9,204.2z"/>
		<path class="st0" d="M280.3,217.4c-0.5,0-0.9-0.1-1.4-0.2c-0.5-0.2-0.9-0.6-1.3-1c-0.2,0.4-0.6,0.7-1,0.9s-0.9,0.4-1.4,0.4
			l-5.7,0.2l0,0v-1.2l0,0h2.4v-5.8h1.4v5.8h1.8c0.5,0,1-0.2,1.3-0.6c0.3-0.4,0.4-1,0.4-1.5v-4.1h1.4v4.3c0.2,0.4,0.5,0.8,0.9,1
			s0.8,0.3,1.2,0.3h1v-7.1h1.4v7.1h2.2l0,0v1.2l0,0L280.3,217.4z M276,207.3c-0.3,0-0.5-0.1-0.7-0.2c-0.2-0.2-0.3-0.5-0.2-0.8
			c0-0.3,0.1-0.6,0.2-0.8c0.2-0.2,0.4-0.3,0.7-0.2c0.3,0,0.5,0.1,0.7,0.3c0.2,0.2,0.3,0.5,0.2,0.7c0,0.3-0.1,0.5-0.2,0.8
			C276.5,207.2,276.2,207.3,276,207.3z M277.3,204.9c-0.2,0-0.4-0.1-0.6-0.2c-0.2-0.2-0.3-0.5-0.2-0.7c0-0.3,0-0.5,0.2-0.7
			c0.2-0.2,0.4-0.2,0.6-0.2c0.2,0,0.4,0.1,0.6,0.2c0.2,0.2,0.3,0.4,0.2,0.7c0,0.3-0.1,0.5-0.2,0.8
			C277.8,204.8,277.6,204.9,277.3,204.9z M278.8,207.3c-0.3,0-0.5-0.1-0.7-0.3c-0.2-0.2-0.3-0.5-0.3-0.8c0-0.3,0.1-0.6,0.2-0.8
			c0.2-0.2,0.4-0.3,0.7-0.3s0.5,0.1,0.7,0.3c0.2,0.2,0.2,0.5,0.2,0.7c0,0.3-0.1,0.5-0.2,0.8C279.3,207.1,279.1,207.3,278.8,207.3z"
			/>
		<path class="st0" d="M284.8,217.4L284.8,217.4v-1.2l0,0h2.7V209h1.5v7.2h2.5l0,0v1.2l0,0H284.8z M286.7,207.2
			c-0.2,0-0.5-0.1-0.7-0.2c-0.2-0.2-0.3-0.5-0.2-0.8c0-0.3,0.1-0.6,0.2-0.8c0.4-0.3,1-0.3,1.4,0c0.2,0.2,0.3,0.5,0.3,0.8
			c0,0.3-0.1,0.6-0.2,0.8C287.2,207.1,286.9,207.2,286.7,207.2z M289.5,207.2c-0.3,0-0.5-0.1-0.7-0.3s-0.3-0.5-0.2-0.8
			c0-0.3,0.1-0.5,0.2-0.7c0.2-0.2,0.4-0.3,0.7-0.3c0.3,0,0.5,0.1,0.7,0.3c0.2,0.2,0.3,0.5,0.2,0.7c0,0.3-0.1,0.6-0.2,0.8
			C290,207.1,289.8,207.2,289.5,207.2L289.5,207.2z"/>
		<path class="st0" d="M302.1,217.2c-0.5,0-0.9-0.1-1.4-0.3c-0.5-0.2-1-0.5-1.3-0.9c-0.5,0.8-1.4,1.3-2.4,1.2h-5.7l0,0v-1.1l0,0h2.4
			v-5.9h1.4v5.8h1.8c0.5,0,0.9-0.2,1.2-0.6c0.3-0.4,0.5-0.9,0.4-1.5v-3.8h1.4v4.5c0.2,0.4,0.5,0.8,0.9,1.1c0.4,0.2,0.8,0.3,1.2,0.3
			h1v-7.2h1.4v8.5L302.1,217.2z"/>
		<path class="st0" d="M306.7,215.8h3.7l-2.2-9.6h1.5l2.2,9.6h0.4c1.2,0,1.8-0.7,1.8-2v-9.9h1.5V214c0,0.9-0.3,1.7-0.8,2.3
			c-0.6,0.6-1.4,0.9-2.2,0.9h-5.9V215.8L306.7,215.8z"/>
		<polygon class="st0" points="318.6,203.7 320.1,203.7 320.2,217.1 318.8,217.1 318.6,203.7 		"/>
		<path class="st0" d="M331.7,217c-0.9,0.1-1.7-0.3-2.3-0.9c-0.6-0.7-0.9-1.6-0.8-2.5c0-0.5,0-0.9,0-1.4c0.1-0.4,0.2-0.9,0.3-1.3
			h1.3c-0.2,0.8-0.3,1.7-0.2,2.5c0,0.6,0.1,1.1,0.4,1.6c0.3,0.4,0.7,0.6,1.1,0.6h5.9v-7.2h1.4v8.5L331.7,217z M332.3,208.5
			c-0.3,0-0.5-0.1-0.7-0.3c-0.2-0.2-0.3-0.5-0.3-0.8c0-0.3,0.1-0.6,0.3-0.8c0.2-0.2,0.4-0.3,0.6-0.2c0.3,0,0.5,0.1,0.7,0.2
			c0.2,0.2,0.3,0.5,0.3,0.8c0,0.3-0.1,0.6-0.2,0.8C332.8,208.4,332.6,208.5,332.3,208.5z M335.2,208.5c-0.3,0-0.5-0.1-0.7-0.3
			c-0.2-0.2-0.3-0.5-0.3-0.8c0-0.3,0.1-0.6,0.2-0.8c0.2-0.2,0.4-0.3,0.7-0.3c0.3,0,0.5,0.1,0.7,0.3c0.2,0.2,0.2,0.5,0.2,0.7
			c0,0.3-0.1,0.5-0.2,0.8C335.7,208.4,335.4,208.5,335.2,208.5z"/>
		<path class="st0" d="M342,203.6h1.5v12h2.2l0,0v1.2l0,0h-3.6v-13.3L342,203.6z"/>
		<path class="st0" d="M356.4,216.7c-0.5,0-0.9-0.1-1.4-0.2c-0.5-0.2-1-0.5-1.3-1c-0.2,0.4-0.6,0.7-1,0.9s-0.9,0.4-1.4,0.4h-5.7l0,0
			v-1.2l0,0h2.4v-5.9h1.4v5.8h1.8c0.5,0,0.9-0.2,1.2-0.6c0.3-0.4,0.5-0.9,0.4-1.5v-3.8h1.4v4.4c0.2,0.4,0.5,0.8,0.9,1.1
			c0.4,0.2,0.8,0.3,1.2,0.3h1v-7.2h1.4v8.5H356.4z"/>
		<polygon class="st0" points="361.8,203.3 363.3,203.3 363.4,216.7 361.9,216.7 361.8,203.3 		"/>
		<path class="st0" d="M366.1,220.8c-0.6,0-1.2-0.2-1.7-0.5l0.4-1.2l0.7,0.2c0.2,0,0.4,0,0.6,0c0.5,0,0.9-0.2,1.2-0.6
			c0.3-0.5,0.4-1.1,0.4-1.7v-9h1.4v8.9c0.1,1-0.2,2-0.7,2.8C367.7,220.4,366.9,220.8,366.1,220.8L366.1,220.8z"/>
		<path class="st0" d="M371.2,215.3h5.5c-0.2-1.4-0.6-2.8-1.3-4c-0.7-1.1-1.5-2.1-2.6-2.8l0.5-1.4c1.3,0.7,2.3,1.8,3.1,3.1
			c0.9,1.6,1.4,3.3,1.6,5.1h1.8l0,0v1.2l0,0H371v-1.4L371.2,215.3z"/>
		<path class="st0" d="M379.8,216.6L379.8,216.6v-1.2l0,0h2.2v-12h1.5v13.3L379.8,216.6z"/>
		<polygon class="st0" points="386.7,203.2 388.2,203.2 388.3,216.5 386.8,216.5 386.7,203.2 		"/>
		<path class="st0" d="M394,220.8c-1.1,0-2.2-0.3-3.1-0.9l0.7-1.2c0.4,0.2,0.7,0.4,1.1,0.5c0.4,0.2,0.8,0.2,1.3,0.2
			c0.6,0,1.3-0.2,1.8-0.6c0.4-0.5,0.7-1.1,0.6-1.7v-0.5h-1.5c-1,0.1-2-0.3-2.7-1c-0.7-0.8-1.1-2-1-3.1c-0.1-1.2,0.4-2.4,1.2-3.3
			c0.9-0.8,2.1-1.3,3.3-1.3h2.3v8.9c0.1,1-0.3,2-1,2.8C396.2,220.4,395.1,220.8,394,220.8L394,220.8z M396.4,215.2v-5.9h-0.7
			c-0.8,0-1.7,0.3-2.3,0.8c-0.6,0.6-0.9,1.5-0.8,2.3c-0.1,0.7,0.2,1.4,0.6,2c0.5,0.5,1.1,0.7,1.7,0.6L396.4,215.2z"/>
		<path class="st0" d="M409,216.3c-0.9,0.1-1.7-0.3-2.3-0.9c-0.6-0.7-0.9-1.6-0.8-2.5c0-0.5,0-0.9,0-1.4c0.1-0.4,0.2-0.9,0.3-1.3
			h1.3c-0.2,0.8-0.3,1.7-0.2,2.5c0,0.6,0.1,1.1,0.4,1.6c0.3,0.4,0.7,0.6,1.1,0.6h5.9v-7.2h1.6v8.5L409,216.3z M409.8,207.7
			c-0.2,0-0.5-0.1-0.6-0.2c-0.2-0.2-0.3-0.5-0.3-0.8s0.1-0.6,0.3-0.8c0.2-0.2,0.4-0.2,0.6-0.2c0.3,0,0.5,0.1,0.7,0.3
			c0.2,0.2,0.3,0.5,0.2,0.8c0,0.3-0.1,0.5-0.2,0.7C410.3,207.6,410,207.8,409.8,207.7z M411.2,205.4c-0.2,0-0.4-0.1-0.6-0.2
			c-0.3-0.4-0.3-1,0-1.5c0.2-0.1,0.4-0.2,0.6-0.2c0.2,0,0.4,0.1,0.6,0.2c0.2,0.2,0.3,0.5,0.3,0.7c0,0.3-0.1,0.5-0.2,0.7
			C411.6,205.3,411.4,205.4,411.2,205.4z M412.6,207.7c-0.3,0-0.5-0.1-0.7-0.2c-0.2-0.2-0.3-0.5-0.2-0.8c0-0.3,0.1-0.5,0.2-0.8
			c0.2-0.2,0.4-0.3,0.7-0.3c0.3,0,0.5,0.1,0.7,0.3c0.3,0.5,0.3,1.1,0,1.5C413.1,207.6,412.9,207.7,412.6,207.7z"/>
		<path class="st0" d="M425.8,216.6c0.1,1-0.3,2-1,2.8c-0.8,0.7-1.8,1.1-2.8,1c-1.1,0-2.2-0.3-3.1-0.9l0.6-1.2
			c0.4,0.2,0.7,0.3,1.1,0.5s0.9,0.2,1.3,0.2c0.6,0,1.3-0.2,1.8-0.6c0.4-0.5,0.7-1.1,0.6-1.7v-0.5h-1.7c-1,0.1-2-0.3-2.7-1
			c-0.7-0.9-1.1-2-1-3.1c-0.1-1.2,0.4-2.4,1.2-3.3c0.9-0.8,2.1-1.3,3.3-1.3h2.3v7.2h1.4v1.2l0,0h-1.4v0.4v0.3H425.8z M424.3,214.8
			V209h-0.7c-0.8,0-1.7,0.3-2.3,0.8c-0.6,0.6-0.9,1.5-0.8,2.3c-0.1,0.7,0.2,1.4,0.6,2c0.4,0.4,1.1,0.7,1.7,0.6h1.5V214.8z"/>
		<path class="st0" d="M427,216.1L427,216.1v-1.2l0,0h7.1c-0.6-0.9-1-2-1.1-3.1c-0.1-0.8-0.3-1.5-0.7-2.1c-0.3-0.4-0.9-0.6-1.4-0.6
			c-0.9,0-1.7,0.3-2.4,0.7l-0.6-1.4c0.4-0.3,0.9-0.5,1.4-0.7c0.5-0.1,1-0.2,1.6-0.2c0.6,0,1.2,0.1,1.7,0.4s0.8,0.7,1.1,1.1
			c0.3,0.7,0.5,1.4,0.6,2.2c0.1,1.2,0.5,2.4,1.2,3.4h1.1l0,0v1.2l0,0H427V216.1z"/>
		<path class="st0" d="M436.5,216L436.5,216v-1.4l0,0h2.2v-7.1h1.5v7.1h2.2l0,0v1.2l0,0h-5.8v0.2H436.5z M439.3,219.6
			c-0.3,0-0.5-0.1-0.7-0.3c-0.2-0.2-0.3-0.5-0.3-0.8c0-0.3,0.1-0.6,0.2-0.8c0.2-0.2,0.4-0.3,0.7-0.3c0.3,0,0.5,0.1,0.7,0.3
			c0.2,0.2,0.2,0.5,0.2,0.7c0,0.3-0.1,0.6-0.2,0.8C439.9,219.4,439.6,219.6,439.3,219.6z"/>
		<path class="st0" d="M442.2,216L442.2,216v-1.4l0,0h2.1v-12h1.5v12h2.2l0,0v1.2l0,0h-5.9L442.2,216z"/>
		<path class="st0" d="M447.8,216L447.8,216v-1.4l0,0h2.2v-12h1.5v13.3L447.8,216z"/>
		<path class="st0" d="M464.1,215.8c-1.1,0.1-2.2-0.3-3.1-1c-0.8-0.8-1.2-1.9-1.1-3.1c-0.1-1.2,0.4-2.4,1.2-3.2
			c0.9-0.8,2.1-1.3,3.3-1.2h1.1v-1.2h1.4v8.3h3.9v-9.3h1.5v9.2h4.2v-9.2h1.5v10.7H464.1L464.1,215.8z M465.5,214.4v-5.8h-1.1
			c-0.8,0-1.7,0.3-2.3,0.8c-0.6,0.6-0.9,1.4-0.8,2.3c0,0.7,0.2,1.4,0.7,2c0.5,0.5,1.3,0.8,2,0.7H465.5z M470,204.3
			c-0.4,0-0.7-0.1-1-0.4c-0.3-0.4-0.4-0.8-0.4-1.3v-1.1h0.9v0.9c0,0.2,0,0.5,0,0.7c0.1,0.2,0.3,0.3,0.5,0.2c0.5,0,0.7-0.3,0.7-0.8
			v-1.4h0.8v1.2c-0.1,0.2-0.1,0.4,0,0.6c0.1,0.1,0.3,0.2,0.5,0.2c0.2,0,0.5-0.1,0.6-0.2c0.1-0.2,0.1-0.5,0-0.7v-1.3h0.9v1.4
			c0,0.4-0.1,0.9-0.3,1.3c-0.3,0.3-0.7,0.5-1,0.4c-0.5,0-0.9-0.2-1.2-0.5c-0.2,0.5-0.8,0.9-1.4,0.8H470z M470.7,197.2h1v2.9h-0.9
			L470.7,197.2L470.7,197.2z M481.6,202.3h1.5v13.3h-1.5V202.3z"/>
		<path class="st0" d="M491.2,214.2h5.5c-0.2-1.4-0.6-2.8-1.3-4c-0.7-1.1-1.6-2.1-2.7-2.9l0.5-1.3c1.3,0.7,2.4,1.8,3.1,3.1
			c0.9,1.6,1.5,3.3,1.6,5.1h1.8l0,0v1.2l0,0h-8.8V214L491.2,214.2z"/>
		<path class="st0" d="M499.7,215.5L499.7,215.5v-1.2l0,0h2.2V207h1.5v7.1h2.2l0,0v1.2l0,0h-5.9L499.7,215.5L499.7,215.5z
			 M502.8,219c-0.3,0-0.5-0.1-0.7-0.3c-0.2-0.2-0.3-0.5-0.3-0.8s0.1-0.6,0.2-0.8c0.4-0.4,1-0.4,1.4,0l0,0c0.2,0.2,0.3,0.5,0.2,0.7
			c0,0.3-0.1,0.6-0.2,0.8C503.3,218.9,503.1,219,502.8,219z"/>
		<path class="st0" d="M505.5,215.4L505.5,215.4v-1.2l0,0h2.6c-0.4-0.4-0.7-0.8-0.9-1.3c-0.2-0.6-0.4-1.2-0.4-1.8
			c-0.1-1.1,0.3-2.2,1.1-3.1c0.7-0.8,1.8-1.2,2.8-1.2c0.4-0.1,0.9-0.1,1.3,0c0.4,0.1,0.7,0.2,1,0.4l-0.5,1.3
			c-0.6-0.3-1.3-0.4-1.9-0.4c-1.6,0-2.4,1-2.3,2.9c0,0.8,0.2,1.6,0.6,2.2c0.3,0.5,0.9,0.8,1.5,0.8h3.1v1.4h-7.9L505.5,215.4z"/>
		<path class="st0" d="M523.9,215.3c-0.8,0.1-1.7-0.2-2.3-0.8s-0.9-1.5-0.8-2.3c0-0.8,0.1-1.6,0.4-2.4h1.2c-0.1,0.7-0.2,1.5-0.2,2.3
			c0,0.5,0.1,1,0.4,1.4c0.3,0.3,0.8,0.5,1.2,0.5h5.9v-12h1.4v12h2.4v1.2l0,0H524L523.9,215.3z M524.4,209.1h0.7
			c-0.4-0.2-0.6-0.6-0.6-1.1c0-0.4,0.1-0.9,0.4-1.2c0.3-0.3,0.8-0.5,1.2-0.4c0.4,0,0.8,0.1,1.1,0.2l-0.2,0.8
			c-0.3-0.2-0.6-0.2-0.9-0.2c-0.2,0-0.4,0.1-0.6,0.2c-0.2,0.2-0.3,0.4-0.2,0.7c0,0.2,0,0.4,0,0.5c0.1,0.1,0.2,0.2,0.3,0.3l0.8-0.2
			l0.9-0.4v0.9h-0.7h-0.9l-1.6,0.2v-0.8L524.4,209.1z"/>
		<path class="st0" d="M533.3,215.2L533.3,215.2V214l0,0h2.2v-12h1.3v12h2.2l0,0v1.2l0,0h-6H533.3z"/>
		<path class="st0" d="M538.9,215.1L538.9,215.1v-1.2l0,0h2.1c-0.4-1-0.6-2-0.6-3.1c0-1,0.2-1.9,0.6-2.8c0.4-0.4,0.9-0.7,1.4-0.9
			c0.5-0.2,1.1-0.3,1.6-0.3c0.6,0,1.3,0.1,1.8,0.5c0.5,0.3,1,0.8,1.2,1.4c0.3,0.6,0.4,1.3,0.4,2c0,0.7-0.1,1.4-0.3,2.1
			c0.2,0.3,0.5,0.6,0.8,0.8c0.4,0.2,0.8,0.2,1.2,0.2l0,0l0,0v1.2l0,0l0,0c-0.5,0-1-0.1-1.5-0.2c-0.5-0.2-0.9-0.5-1.2-0.9
			c-0.3,0.4-0.7,0.7-1.2,0.9c-0.5,0.2-1,0.3-1.4,0.3h-4.7H538.9z M542,210.5c-0.1,0.5-0.1,1.1,0,1.6c0.1,0.6,0.3,1.1,0.5,1.7h1.2
			c0.7,0,1.3-0.3,1.7-0.8c0.4-0.7,0.7-1.5,0.6-2.3c0-0.6-0.2-1.3-0.6-1.8c-0.3-0.4-0.9-0.7-1.4-0.7c-0.4,0-0.7,0.1-1.1,0.3
			c-0.3,0.1-0.6,0.3-0.9,0.5c-0.1,0.2-0.2,0.5-0.2,0.8c0,0.3,0,0.6,0,0.8L542,210.5z"/>
		<path class="st0" d="M549,215.1L549,215.1v-1.2l0,0h2.2v-12h1.5v13.3L549,215.1z"/>
		<polygon class="st0" points="555.9,201.7 557.3,201.7 557.4,215 556,215 555.9,201.7 		"/>
		<path class="st0" d="M565.4,213.6h5.5c-0.2-1.4-0.6-2.8-1.3-4c-0.7-1.1-1.5-2.1-2.6-2.8l0.5-1.4c1.3,0.7,2.4,1.8,3.1,3.1
			c0.9,1.6,1.4,3.3,1.6,5.1h1.8l0,0v1.2l0,0h-8.8v-1.4L565.4,213.6z"/>
		<path class="st0" d="M574.1,214.8L574.1,214.8v-1.2l0,0h2.7c-0.4-0.2-0.7-0.6-0.9-1c-0.2-0.5-0.3-1-0.3-1.5c0-0.6,0.1-1.3,0.4-1.8
			s0.7-1,1.2-1.3c0.5-0.3,1.1-0.5,1.7-0.5c2.2,0,3.1,1.2,3.3,3.8v2.3h2.2V210c0.1-1.3-0.3-2.5-1-3.5c-0.8-0.8-2-1.2-3.1-1.1
			c-1.1,0-2.1,0.2-3.1,0.5l-0.4-1.3c1.1-0.4,2.3-0.6,3.4-0.6c1.6-0.1,3.1,0.5,4.2,1.5c1,1.2,1.6,2.7,1.5,4.3v3.6h2.2l0,0v1.3l0,0
			h-13.7L574.1,214.8z M580.6,213.4v-1.9c0-0.7-0.1-1.3-0.5-1.9c-0.7-0.7-2-0.8-2.7,0l0,0c-0.3,0.4-0.5,1-0.5,1.5
			c0,0.7,0.2,1.3,0.7,1.8c0.4,0.5,1,0.7,1.7,0.6L580.6,213.4z"/>
		<path class="st0" d="M595.7,214.6c-0.5,0-1-0.1-1.5-0.2c-0.5-0.2-1.1-0.4-1.6-0.6c-0.9,0.6-2,0.9-3.1,0.9h-1.9l0,0v-1.2l0,0h1.9
			c0.7,0,1.3-0.1,2-0.3c-0.5-0.4-0.9-0.9-1.3-1.4c-0.5-0.6-0.8-1.3-1.1-2c-0.3-0.6-0.5-1.3-0.6-2c0.6-0.6,1.3-1.1,2-1.4
			c0.7-0.4,1.5-0.5,2.3-0.5c0.7,0,1.4,0.1,2.1,0.3c0.7,0.2,1.3,0.5,1.8,0.9c0,1.2-0.2,2.4-0.7,3.4c-0.5,1.1-1.3,2-2.2,2.7
			c0.6,0.2,1.2,0.3,1.8,0.3h2l0,0v1.2l0,0L595.7,214.6L595.7,214.6z M592.6,212.1c0.8-0.5,1.4-1.2,1.9-2c0.4-0.8,0.6-1.7,0.7-2.6
			c-0.7-0.4-1.6-0.6-2.4-0.6c-1,0-2,0.4-2.8,1c0.2,0.8,0.5,1.6,1,2.3C591.4,211,591.9,211.6,592.6,212.1z"/>
		<path class="st0" d="M597.5,214.6L597.5,214.6v-1.2l0,0h2c-0.4-1-0.6-2-0.6-3.1c0-1,0.2-1.9,0.6-2.8c0.4-0.4,0.9-0.7,1.4-0.9
			c0.5-0.2,1.1-0.3,1.6-0.3c0.6,0,1.3,0.1,1.8,0.5c0.5,0.3,1,0.8,1.2,1.4c0.3,0.6,0.4,1.3,0.5,2c0,0.8-0.1,1.6-0.5,2.4
			c-0.6,1.3-1.9,2.1-3.3,2.1C602.3,214.6,597.5,214.6,597.5,214.6z M600.4,209.9c0,0.5,0,1,0,1.6c0.1,0.6,0.3,1.2,0.5,1.7h1.2
			c0.7,0,1.3-0.3,1.7-0.8c0.4-0.7,0.6-1.5,0.6-2.3c0-0.6-0.2-1.3-0.6-1.8c-0.3-0.4-0.9-0.7-1.4-0.7c-0.3,0-0.7,0.1-1,0.2
			c-0.3,0.1-0.6,0.3-0.9,0.5c0,0.2,0,0.5,0,0.7C600.4,209.4,600.4,209.6,600.4,209.9L600.4,209.9z"/>
	</g>
</g>
</svg>
