<?xml version="1.0" encoding="utf-8"?>
<!-- Generator: Adobe Illustrator 24.0.1, SVG Export Plug-In . SVG Version: 6.00 Build 0)  -->
<svg version="1.1" id="Layer_1" xmlns="http://www.w3.org/2000/svg" xmlns:xlink="http://www.w3.org/1999/xlink" x="0px" y="0px"
	 viewBox="0 0 300 100" style="enable-background:new 0 0 300 100;" xml:space="preserve">
<style type="text/css">
	.st0{fill:#3E3E3E;}
</style>
<title>Asset 12</title>
<g id="Layer_2_1_">
	<g id="Layer_1-2">
		<rect x="127.8" y="49.3" class="st0" width="2.6" height="2.6"/>
		<polygon class="st0" points="149.9,5 148.6,6.3 148.6,46.6 151.2,46.6 151.2,6.3 		"/>
		<polygon class="st0" points="153.8,13 153.8,46.6 156.5,46.6 156.5,15.6 		"/>
		<polygon class="st0" points="164.3,28.5 164.3,56.3 166.9,56.3 166.9,31.2 		"/>
		<polygon class="st0" points="169.5,36.4 169.5,46.7 172.1,46.7 172.1,39 		"/>
		<polygon class="st0" points="143.4,46.6 146,46.6 146,12.8 143.4,15.4 		"/>
		<polygon class="st0" points="138.2,23.2 138.2,46.6 140.8,46.6 140.8,20.6 		"/>
		<polygon class="st0" points="133,31.1 133,46.6 133,62.3 135.6,62.3 135.6,46.6 135.6,28.5 		"/>
		<polygon class="st0" points="127.8,39 127.8,46.6 130.4,46.6 130.4,36.4 		"/>
		<polygon class="st0" points="122.6,46.4 122.6,51.9 125.2,51.9 125.2,43.8 		"/>
		<polygon class="st0" points="159.1,20.7 159.1,51.9 161.7,51.9 161.7,23.3 		"/>
		<path class="st0" d="M115.1,73H113v7.2c-0.5,0.1-2.1,0.1-2.5,0.1c-1.5,0-3-0.4-3-1.9v-4.3h-2.2v4.4c0,2.8,2.3,3.9,5.2,3.9
			c1.6-0.1,3.1-0.3,4.6-0.6V73z"/>
		<path class="st0" d="M109.3,69.5c-0.5,0.5-0.5,1.3,0,1.8c0.5,0.5,1.3,0.5,1.8,0c0.5-0.5,0.5-1.3,0-1.8c0,0,0,0,0,0
			C110.6,69,109.8,69,109.3,69.5C109.3,69.4,109.3,69.5,109.3,69.5z"/>
		<path class="st0" d="M142,77.1c0,1.2-0.8,1.4-2,1.2c-0.2-0.1-0.4-0.1-0.6-0.3c0.3-0.7,0.1-0.4,0.2-5.1h-2.2V77
			c0,0.9-0.5,1.5-1.9,1.2c-0.2,0-0.4-0.1-0.6-0.2c0.1-1.7,0.1-3.4,0.1-5h-2.1v4.4c0,0.3-0.1,0.6-0.4,0.7c-0.4,0.1-0.8,0.2-1.3,0.2
			h-0.9c-0.4,0-0.8-0.1-1.2-0.2c0.1-0.6,0.1-1.3,0.1-1.9c0-2.2-1.4-2.9-3.6-2.9H125l3.6-2.9v-2.5l-7,5.7v1.7c1.4-0.1,2.9-0.1,4.3,0
			c0.5,0.1,0.9,0.6,0.9,1.1v0.9c0,0.8-0.6,1-1.4,1c-5.3,0-5.3,0-5.8-0.2c-0.3-0.1-0.4-0.4-0.4-0.7v-9.1h-2.1v9.1
			c0,2,1.3,2.8,3.3,2.8h4.9c0.8,0,1.7-0.1,2.4-0.5c0.8,0.4,1.6,0.5,2.5,0.5h0.6c0.8,0.1,1.7-0.1,2.4-0.4c1.4,0.4,3.8,0.7,4.9-0.2
			c0.8,0.4,1.7,0.6,2.7,0.6c2,0,3-0.8,3-3V73H142V77.1z"/>
		<path class="st0" d="M154.8,77.4v-9.1h-2.1v9.1c0,1.1-1.2,0.8-2.4,0.9v-7.7h-2.1v7.7h-2.3v2h5.6c0.9,0.1,1.7-0.2,2.5-0.7
			C154.6,79,154.9,78.2,154.8,77.4z"/>
		<path class="st0" d="M148.4,81.4c-0.4,0.4-0.6,1.1-0.3,1.6h-0.6v1h3v-1h-1.3c-0.2-0.2-0.2-0.7,0-0.8c0.4-0.1,0.9,0,1.2,0.2v-1
			c-0.2-0.1-0.3-0.2-0.5-0.2C149.4,81,148.8,81.1,148.4,81.4z"/>
		<rect x="156.7" y="68.2" class="st0" width="2.1" height="11.9"/>
		<path class="st0" d="M167,80c1.2,0.3,1.8,0.2,5,0.2v-6.7c-1.1-0.4-2.2-0.6-3.3-0.6c-2.4,0-4.2,1.3-4.2,3.6c0,0.6,0.1,1.1,0.3,1.7
			C165.2,79.1,166,79.7,167,80z M168.6,74.8c0.4,0,0.8,0.1,1.2,0.2v3.3c-1-0.1-2,0.2-2.8-0.5c-0.4-0.3-0.6-0.8-0.5-1.3
			C166.4,75.5,167.1,74.8,168.6,74.8L168.6,74.8z"/>
		<path class="st0" d="M165.8,71.3c0.5,0.5,1.3,0.5,1.8,0c0.5-0.5,0.5-1.3,0-1.8c-0.2-0.2-0.6-0.4-0.9-0.4c-0.7,0-1.3,0.6-1.3,1.3
			C165.4,70.7,165.6,71,165.8,71.3z"/>
		<path class="st0" d="M168.6,70.4c0,0.7,0.6,1.3,1.3,1.2c0.7,0,1.3-0.6,1.2-1.3c0-0.3-0.1-0.6-0.4-0.9c-0.5-0.5-1.3-0.5-1.8,0
			C168.7,69.7,168.6,70,168.6,70.4z"/>
		<path class="st0" d="M176.1,83.4c0.6-0.5,0.9-1.2,0.8-2V73h-2.1v8.1c0,0.7-0.2,1.1-1,1.1c-0.4,0-0.8-0.1-1.2-0.3v1.8
			c0.2,0.1,0.4,0.1,0.7,0.2C174.2,84.2,175.3,84,176.1,83.4z"/>
		<rect x="178.9" y="68.2" class="st0" width="2.1" height="11.9"/>
		<path class="st0" d="M185.9,81.4V73h-2.1v8.1c0,0.7-0.2,1.1-1,1.1c-0.4,0-0.8-0.1-1.2-0.3v1.8c1.1,0.5,2.5,0.3,3.5-0.4
			C185.7,82.9,186,82.1,185.9,81.4z"/>
		<path class="st0" d="M183.9,69.5c-0.5,0.5-0.5,1.3,0,1.8c0.5,0.5,1.3,0.5,1.8,0c0.5-0.5,0.5-1.3,0-1.8c0,0,0,0,0,0
			C185.2,69,184.4,69,183.9,69.5C183.9,69.4,183.9,69.5,183.9,69.5z"/>
		<path class="st0" d="M191.3,72.9c-4.7,0-5.1,4.7-3,6.4c1.4,1.1,3.2,0.9,4.1,0.9c0.1,0.6-0.1,1.2-0.5,1.7c-0.4,0.3-0.8,0.4-1.3,0.4
			c-1,0-1.9-0.3-2.7-0.8v2c1.7,0.8,3.7,0.8,5.4-0.2c0.4-0.3,0.8-0.6,1-1.1c0.3-0.5,0.4-1.1,0.4-1.7v-7
			C193.6,73.2,192.5,73,191.3,72.9z M192.5,78.2c-1-0.1-2.1,0.2-2.8-0.5c-0.4-0.3-0.6-0.8-0.5-1.3c0-1,0.6-1.7,2.2-1.7
			c0.4,0,0.8,0.1,1.2,0.2V78.2z"/>
		<polygon class="st0" points="108,93.1 106,88.7 105.3,88.7 105.3,94.9 106,94.9 106,90.2 107.7,94 108.3,94 110,90.2 110,94.9 
			110.6,94.9 110.6,88.7 110,88.7 		"/>
		<rect x="112.4" y="88.7" class="st0" width="0.7" height="6.2"/>
		<polygon class="st0" points="118.8,93.7 115.5,88.7 114.9,88.7 114.9,94.9 115.5,94.9 115.5,90 118.8,94.9 119.5,94.9 119.5,88.7 
			118.8,88.7 		"/>
		<rect x="121.2" y="88.7" class="st0" width="0.7" height="6.2"/>
		<path class="st0" d="M124,90.4c0-0.6,0.5-1.2,1.1-1.2c0.1,0,0.1,0,0.2,0c0.5,0,1.1,0.2,1.4,0.5l0.4-0.4c-0.5-0.5-1.2-0.7-1.9-0.7
			c-1-0.1-1.9,0.5-2,1.5c0,0.1,0,0.2,0,0.2c0,0.4,0.1,0.9,0.5,1.2c1,0.9,3,0.1,3,1.7c0,0.7-0.6,1.1-1.5,1.1c-0.6,0-1.3-0.2-1.7-0.7
			l-0.5,0.4c0.6,0.6,1.3,0.9,2.1,0.8c2.4,0,2.5-2.2,1.6-3C126,91.2,124,91.9,124,90.4z"/>
		<polygon class="st0" points="128.2,89.3 130,89.3 130,94.9 130.6,94.9 130.6,89.3 132.4,89.3 132.4,88.7 128.2,88.7 		"/>
		<path class="st0" d="M137.8,90.5c0-0.9-0.7-1.7-1.6-1.7c-0.1,0-0.1,0-0.2,0h-2.4V95h0.7v-2.8h1.5l1.4,2.8h0.8l-1.5-2.8
			C137.3,92,137.9,91.3,137.8,90.5z M134.3,91.6v-2.3h1.6c0.6-0.1,1.2,0.4,1.2,1c0.1,0.6-0.4,1.2-1,1.2c-0.1,0-0.1,0-0.2,0
			L134.3,91.6z"/>
		<polygon class="st0" points="140.7,91.7 139.2,88.7 138.5,88.7 140.3,92.4 140.3,94.9 141,94.9 141,92.4 142.8,88.7 142.1,88.7 		
			"/>
		<path class="st0" d="M146.3,89.3c-0.6,0.6-0.6,1.2-0.6,2.5s0,1.9,0.6,2.5c0.9,0.9,2.3,0.9,3.2,0c0.6-0.6,0.6-1.2,0.6-2.5
			s0-1.9-0.6-2.5C148.6,88.5,147.2,88.5,146.3,89.3z M149,94c-0.6,0.6-1.5,0.6-2.1,0c0,0,0,0,0,0c-0.4-0.4-0.4-0.8-0.4-2.1
			s0.1-1.7,0.4-2.1c0.6-0.6,1.5-0.6,2.1,0c0,0,0,0,0,0c0.4,0.4,0.4,0.8,0.4,2.1S149.4,93.5,149,94z"/>
		<polygon class="st0" points="151.6,94.9 152.3,94.9 152.3,92.2 155,92.2 155,91.6 152.3,91.6 152.3,89.3 155.5,89.3 155.5,88.7 
			151.6,88.7 		"/>
		<polygon class="st0" points="162.4,91.5 159.5,91.5 159.5,88.7 158.8,88.7 158.8,94.9 159.5,94.9 159.5,92.1 162.4,92.1 
			162.4,94.9 163.1,94.9 163.1,88.7 162.4,88.7 		"/>
		<path class="st0" d="M165.3,89.3c-0.6,0.6-0.6,1.2-0.6,2.5s0,1.9,0.6,2.5c0.9,0.9,2.3,0.9,3.2,0c0.6-0.6,0.6-1.2,0.6-2.5
			s0-1.9-0.6-2.5C167.6,88.5,166.2,88.5,165.3,89.3z M167.9,94c-0.6,0.6-1.6,0.6-2.2,0c-0.4-0.4-0.4-0.8-0.4-2.1s0-1.7,0.4-2.1
			c0.6-0.6,1.6-0.6,2.2,0c0.4,0.4,0.4,0.8,0.4,2.1S168.3,93.5,167.9,94z"/>
		<path class="st0" d="M174.1,92.8c0,0.8-0.7,1.5-1.5,1.5s-1.5-0.7-1.5-1.5v-4.1h-0.7v4.2c0.1,1.2,1.1,2.1,2.3,2
			c1.1-0.1,1.9-0.9,2-2v-4.2h-0.7V92.8z"/>
		<path class="st0" d="M176.8,90.4c0-0.7,0.5-1.2,1.3-1.2c0.5,0,1.1,0.2,1.4,0.5l0.4-0.4c-0.5-0.5-1.2-0.7-1.8-0.7
			c-1-0.1-1.8,0.5-2,1.5c0,0.1,0,0.2,0,0.3c0,0.4,0.1,0.9,0.5,1.2c0.8,0.7,2.1,0.4,2.7,0.9s0.5,1.9-1.2,1.9c-0.6,0-1.3-0.2-1.7-0.7
			l-0.4,0.4c0.6,0.6,1.3,0.9,2.1,0.8c2.4,0,2.6-2.2,1.6-3C178.8,91.2,176.8,91.9,176.8,90.4z"/>
		<rect x="181.6" y="88.7" class="st0" width="0.7" height="6.2"/>
		<polygon class="st0" points="188,93.7 184.7,88.7 184.1,88.7 184.1,94.9 184.8,94.9 184.8,90 188.1,94.9 188.7,94.9 188.7,88.7 
			188,88.7 		"/>
		<path class="st0" d="M192.4,92.3h1.5c0.1,0.6,0,1.1-0.3,1.6c-0.5,0.7-1.5,0.8-2.2,0.2c0,0-0.1-0.1-0.1-0.1
			c-0.4-0.4-0.4-0.8-0.4-2.1s0-1.7,0.4-2.1c0.6-0.6,1.6-0.6,2.1,0c0.2,0.2,0.4,0.5,0.4,0.8h0.7c-0.2-1.2-1.3-2-2.5-1.8
			c-0.5,0.1-0.9,0.3-1.2,0.6c-0.6,0.6-0.6,1.2-0.6,2.5s0,1.9,0.6,2.5c0.9,0.9,2.3,0.9,3.2,0c0,0,0,0,0,0c0.4-0.4,0.6-1,0.5-1.6v-1
			h-2.2V92.3z"/>
		<path class="st0" d="M130.4,62.3v-7.8h-2.6v5.2h-2.6v-5.2h-2.6v7.8H130.4z"/>
		<path class="st0" d="M120,62.3V51.9l-2.6,2.6v5.2h-8.7l-2.6,2.6H120z"/>
		<polygon class="st0" points="177.3,50.6 177.3,46.4 174.7,43.8 174.7,49.2 174.7,50.6 174.7,62.3 177.3,62.3 		"/>
		<path class="st0" d="M172.1,62.3v-13h-2.6v10.4h-5.2v2.6H172.1z"/>
		<path class="st0" d="M159.1,54.5v5.2h-2.6v-5.2h-2.6v5.2h-2.6v-5.2h-2.6v5.2H146v-5.2h-5.2v-2.6h15.6v-2.6h-18.2v7.8h5.2v2.6h-8.1
			v2.6h26.3v-7.8H159.1z"/>
		<path class="st0" d="M193.8,62.3l-2.6-2.6h-8.7v-5.2l-2.6-2.6v10.4H193.8z"/>
		<polygon class="st0" points="166.9,58.2 165.8,58.2 165.8,57.6 166.9,57.6 166.9,56.8 165.8,56.8 165.8,56.8 164.9,56.8 
			164.9,58.2 164.3,58.2 164.3,59 166.9,59 		"/>
	</g>
</g>
</svg>
