<?xml version="1.0" encoding="utf-8"?>
<!-- Generator: Adobe Illustrator 24.0.1, SVG Export Plug-In . SVG Version: 6.00 Build 0)  -->
<svg version="1.1" id="Layer_1" xmlns="http://www.w3.org/2000/svg" xmlns:xlink="http://www.w3.org/1999/xlink" x="0px" y="0px"
	 viewBox="0 0 300 100" style="enable-background:new 0 0 300 100;" xml:space="preserve">
<style type="text/css">
	.st0{fill:#3E3E3E;}
</style>
<title>MoF- Web- Dark</title>
<g id="Layer_2_1_">
	<g id="Layer_1-2">
		<path class="st0" d="M15.1,77.2h3.2l4.6,6.8l0.1,0.4V84l4.7-6.8h1.8v13.1h-1.9V79.9l-0.2,0.5L23.4,86h-1l-3.9-5.6L18.3,80v10.2
			h-1.9V78.4L15,78"/>
		<path class="st0" d="M34.9,78.2l-1.6,0.9l-0.9-1.6l1.6-0.9L34.9,78.2z M34.6,81.1v9.2h-1.8v-8l-1.1-0.3v-0.9H34.6z"/>
		<path class="st0" d="M46.1,84.1v6.2h-1.8v-5.7c0-1.4-0.6-2-1.8-2.1c-1.2,0.1-2.3,0.7-3.2,1.6v6.3h-1.8v-8L36.4,82v-1h2.7l0.2,1.6
			c1-1.1,2.4-1.8,3.9-1.8c1.6,0,2.9,1.2,2.9,2.7C46.1,83.7,46.1,83.9,46.1,84.1"/>
		<path class="st0" d="M51.1,78.2l-1.6,1l-0.9-1.6l1.6-0.9L51.1,78.2z M50.8,81.1v9.2h-1.8v-8l-1.2-0.3v-0.9H50.8z"/>
		<path class="st0" d="M57.2,90.4c-1.5,0.2-3,0-4.4-0.6l0.4-1.4c2.1,0.8,4.9,1.1,4.9-0.7c0-0.4-0.2-0.7-0.7-1l-0.7-0.4l-1-0.4
			c-1.8-0.7-2.8-1.4-2.7-2.7c0-2.8,4.1-3,6.4-1.9l-0.3,1.3c-1.9-0.7-4.6-0.6-4.6,0.8c0,0.5,0.3,0.8,0.8,1c0.3,0.2,0.7,0.3,1.1,0.4
			l0.6,0.2c1.8,0.7,2.8,1.4,2.7,2.8C59.8,89.2,58.6,90.3,57.2,90.4"/>
		<path class="st0" d="M66.7,90.2c-1.1,0.6-2.3,0.6-3.4,0c-0.8-0.6-1.2-1.5-1.2-2.4v-5.3h-1.6v-0.8l1.6-0.6V79h1.8v2h1.9v1.4h-1.9v5
			c0,1.4,0.6,1.9,2.4,1.4L66.7,90.2z"/>
		<path class="st0" d="M70.4,82.6c1.3-1.4,2.2-2,3.6-1.7l-0.2,1.6c-1.3-0.2-2.1,0.4-3.4,1.8v6h-1.8v-8L67.6,82v-1h2.6L70.4,82.6z"/>
		<path class="st0" d="M82.4,81.1h1.8L79,94.3h-1.8l1.9-4.7h-0.7l-3.6-8.6h1.8l3,7.1"/>
		<path class="st0" d="M94.3,89c0.8,0,1.5-0.4,1.9-0.9c0.6-0.7,0.9-1.6,0.8-2.5c0-0.9-0.2-1.8-0.8-2.4c-1.1-1.2-2.8-1.2-4-0.1
			l-0.1,0.1c-0.6,0.7-0.9,1.6-0.8,2.4c-0.1,0.9,0.2,1.8,0.8,2.5C92.7,88.7,93.5,89,94.3,89 M94.2,90.5c-1.3,0-2.4-0.5-3.3-1.4
			c-1.8-1.9-1.8-5,0-6.9c0.9-0.9,2-1.4,3.3-1.4c1.3-0.1,2.4,0.4,3.3,1.4c1.8,1.9,1.8,5,0,6.9C96.8,90,95.5,90.5,94.2,90.5"/>
		<path class="st0" d="M106.2,77.4c-2.2-0.6-2.9,0-2.9,1.5v2.2h2.3v1.4h-2.3v7.8h-1.8v-7.8h-1.5v-1.4h1.5v-2.2c-0.1-1,0.3-2,1.2-2.6
			c1.2-0.6,2.6-0.7,3.9-0.2L106.2,77.4z"/>
		<path class="st0" d="M121.3,78.6h-6.1v4.8h5v1.6h-5v5.4h-1.9V78.4l-1.5-0.4v-0.9h9.4"/>
		<path class="st0" d="M126.1,78.2l-1.6,1l-0.9-1.6l1.6-0.9L126.1,78.2z M125.6,81.1v9.2h-1.8v-8l-1.1-0.3v-0.9H125.6z"/>
		<path class="st0" d="M137.2,84.1v6.2h-1.8v-5.7c0-1.4-0.6-2-1.8-2.1c-1.3,0.1-2.3,0.7-3.2,1.6v6.3h-1.8v-8l-1.1-0.3v-1h2.7
			l0.2,1.6c1-1.1,2.4-1.8,3.9-1.8c1.6,0,2.9,1.2,2.9,2.7C137.3,83.7,137.3,83.9,137.2,84.1"/>
		<path class="st0" d="M145.1,87.8v-1.9c-2.4-0.1-3.4,0-3.9,0.7c-0.6,0.7-0.4,1.7,0.3,2.2c0.2,0.2,0.5,0.3,0.7,0.3
			C143.3,89,144.4,88.5,145.1,87.8 M139.7,89.5c-0.4-0.6-0.7-1.3-0.6-1.9c0-0.6,0.2-1.3,0.7-1.7c0.5-0.6,1.2-1,1.9-1
			c1.2-0.1,2.3-0.1,3.5,0v-1.1c0-1.5-1.5-1.8-4.5-0.9l-0.4-1.3c1.4-0.5,2.8-0.7,4.3-0.6c1.3,0,2.3,1.1,2.2,2.4v0.1v5.8l1.2,0.3v0.8
			h-2.7l-0.2-1.8c-0.9,1-2.1,1.7-3.4,1.7C141,90.5,140.3,90.1,139.7,89.5"/>
		<path class="st0" d="M158.6,84.1v6.2h-1.8v-5.7c0-1.4-0.6-2-1.8-2.1c-1.2,0.1-2.3,0.7-3.2,1.6v6.3h-1.8v-8l-1.2-0.3v-1h2.7
			l0.1,1.6c1-1.1,2.4-1.8,3.9-1.8c1.6-0.1,2.9,1.2,2.9,2.7C158.7,83.7,158.7,83.9,158.6,84.1"/>
		<path class="st0" d="M161.9,89.2c-1.6-2-1.6-5,0-7c0.8-0.9,1.9-1.4,3.1-1.3c1.1,0,2.2,0.3,3.1,0.9l-0.3,1.3
			c-0.8-0.5-1.8-0.8-2.6-0.8c-1.7,0-2.7,1.4-2.7,3.4c0,2,1.1,3.3,2.8,3.4c1,0,1.9-0.3,2.8-0.8l0.3,1.3c-1,0.6-2.1,0.9-3.3,0.9
			C163.8,90.6,162.7,90.1,161.9,89.2"/>
		<path class="st0" d="M176.3,84.8c0.1-1.5-0.5-2.5-2.1-2.5c-1.4,0-2.5,1.1-2.6,2.4c0,0,0,0,0,0.1H176.3z M170.9,89.1
			c-0.8-1-1.3-2.2-1.2-3.5c-0.1-1.3,0.4-2.5,1.3-3.5c0.8-0.9,2-1.4,3.2-1.3c3.4,0,4.1,2.7,3.6,5.2h-6.3c-0.2,1.6,1,2.9,2.5,3
			c0.2,0,0.4,0,0.6,0c1,0,1.9-0.3,2.8-0.8l0.3,1.2c-1,0.7-2.1,1.1-3.4,1C173.1,90.6,171.8,90.1,170.9,89.1"/>
		<path class="st0" d="M153.9,41.5v1.2l-1.7,0.5v19.1h-2.5V41.5"/>
		<path class="st0" d="M161.9,44.6l-2.3,1.5l-1.4-2.3l2.4-1.5"/>
		<path class="st0" d="M158.5,48.9v14.8c0,1.8,0,3-2.9,2.5l-0.5,1.9c5.2,1.2,5.9-1.7,5.9-4.5V50.6l1.6-0.5v-1.2H158.5z"/>
		<path class="st0" d="M141.4,48.9v14.8c0,1.8-0.1,3-2.9,2.5l-0.5,1.9c5.2,1.2,5.9-1.7,5.9-4.5V50.6l1.6-0.5v-1.2H141.4z"/>
		<path class="st0" d="M134.8,44.6l-2.3,1.5l-1.4-2.3l2.4-1.5"/>
		<path class="st0" d="M130.5,44.6l-2.3,1.5l-1.4-2.3l2.4-1.5"/>
		<path class="st0" d="M129.2,60.1c-1.4,0-3.4-0.8-3.4-4.3c0-4.7,4.1-4.8,5.6-4.8h1.4v9.1C132.8,60.1,129.2,60.1,129.2,60.1z
			 M131.4,48.9c-2.3,0-8.3,0.4-8.3,6.9c0,5.8,4.4,6.4,5.9,6.4h6.2V50.6l1.7-0.5v-1.2H131.4z"/>
		<path class="st0" d="M175.4,60.1h-2.9c-2.2,0-4.1-1.8-4.1-4.1v-0.1c-0.1-1.3,0.3-2.5,1.2-3.6c0.8-0.9,1.8-1.4,2.9-1.3h2.9V60.1z
			 M178,48.9h-5.5c-1.8-0.1-3.6,0.7-4.9,1.9c-1.3,1.4-1.9,3.1-1.9,5.1c0,3.5,2.9,6.3,6.5,6.3c0.1,0,0.2,0,0.2,0h3
			c0,4.4-2.8,4.8-7.6,3.4l-0.5,1.9c2.5,1.1,5.3,1.1,7.8,0c1.9-1.1,3-3.2,2.8-5.4L178,48.9z"/>
		<path class="st0" d="M53.8,66.2l1.4,2.3l2.3-1.5l-1.4-2.3"/>
		<path class="st0" d="M49.7,66.2l1.4,2.3l2.3-1.5l-1.3-2.3"/>
		<path class="st0" d="M28.4,44.3l-1.4-2.3l-2.3,1.5l1.4,2.3"/>
		<path class="st0" d="M24.2,44.3l-1.4-2.3l-2.4,1.5l1.4,2.3"/>
		<path class="st0" d="M112.2,41.5v20.7h2.5V43.2l1.7-0.5v-1.2"/>
		<path class="st0" d="M96.2,60.1h-3.7c-1.4,0-3.4-0.8-3.4-4.3c0-4.7,1.9-4.8,3.5-4.8c1.6,0,3.5,0.1,3.5,4.8L96.2,60.1L96.2,60.1z
			 M105,41.5v18.6h-6.2v-4.3c0-6.4-3.7-6.9-6.1-6.9c-2.4,0-6.1,0.4-6.1,6.9v0.8c0,3.5-1.9,3.5-3.4,3.5h-10V41.5h-2.5v20.7h12.6
			c1.8,0.2,3.6-0.4,5-1.8c1.2,1.2,2.8,1.8,4.4,1.8h15.1V43.2l1.7-0.5v-1.2C109.2,41.5,105,41.5,105,41.5z"/>
		<path class="st0" d="M25.6,58.7H24c-1.4,0-4.9-0.2-4.9-3.9c-0.3-2.4,1.4-4.6,3.8-5c0.4-0.1,0.9,0,1.3,0h1.4L25.6,58.7L25.6,58.7z
			 M63.3,41.5v18.6h-4.7c-1.4,0-3.2,0-3.4-3.1v-8.1h-2.5v7.7c0,3.5-2,3.5-3.4,3.5H28.5c-0.1,0-0.3-0.1-0.3-0.3V49.5l1.7-0.5V48h-5.6
			c-2.3,0-7.8,0.5-7.8,6.9c0,5.8,5.8,6,7.5,6h1.7v0.4c0,0.6,0.5,1.1,1.1,1.1h22.6c1.8,0.2,3.5-0.3,4.8-1.6c1.3,1.2,3,1.7,4.7,1.5
			h7.2V43.2l1.7-0.5v-1.2C67.6,41.5,63.3,41.5,63.3,41.5z"/>
		<path class="st0" d="M222.5,88.2c2.7,0,5.3,1.1,7.3,2.8l5.5,5.6c1.8,1.8,4.5,1.8,6.2,0l0,0l5.5-5.5c2.3-2,5.4-3,8.4-2.7l7.8,1.3
			c2.4,0.4,4.7-1.3,5.1-3.7l0,0l1.3-7.8c0.7-3,2.5-5.6,5.3-7.1l7-3.6c2.1-1.1,3-3.8,1.9-5.9l-3.6-7c-1.3-2.8-1.3-6,0-8.9l3.6-7
			c0.5-1.1,0.6-2.2,0.3-3.4c-0.4-1.2-1.2-2-2.2-2.6l-7-3.6c-2.6-1.6-4.6-4.1-5.3-7.1l-1.3-7.8c-0.2-1.2-0.8-2.2-1.8-2.9
			c-1-0.7-2.1-1-3.3-0.8l-7.8,1.3c-3,0.3-6.1-0.7-8.4-2.7l-5.5-5.7c-1.8-1.8-4.5-1.8-6.2,0l0,0l-5.5,5.5c-2.2,2-5.3,3-8.4,2.8
			l-7.8-1.3c-2.4-0.4-4.7,1.3-5.1,3.7l-1.3,7.8c-0.7,3-2.5,5.6-5.2,7.1l-7,3.6c-1.1,0.6-1.8,1.5-2.2,2.6c-0.4,1.1-0.3,2.3,0.3,3.4
			l3.6,7c1.3,2.8,1.3,6,0,8.9l-3.6,7c-0.5,1.1-0.6,2.2-0.3,3.4c0.4,1.2,1.2,2,2.2,2.6l7,3.6c2.6,1.6,4.6,4.1,5.2,7.1l1.3,7.8
			c0.4,2.4,2.6,4.1,5.1,3.7l7.8-1.3C221.8,88.3,222.1,88.2,222.5,88.2 M238.5,98.6c-1.4,0-2.6-0.5-3.6-1.5l-5.6-5.5
			c-2.1-1.9-5-2.8-7.8-2.5l-7.8,1.3c-2.8,0.4-5.4-1.5-5.8-4.3l-1.3-7.8c-0.6-2.8-2.3-5.2-4.8-6.6l-7-3.6c-2.5-1.3-3.5-4.4-2.2-6.9
			l0,0l3.6-7c1.2-2.6,1.2-5.6,0-8.2l-3.6-7c-1.3-2.5-0.3-5.6,2.2-6.9l0,0l7-3.6c2.4-1.5,4.2-3.9,4.8-6.6l1.3-7.8
			c0.5-2.8,3-4.7,5.8-4.3l7.8,1.3c2.8,0.3,5.6-0.6,7.8-2.5l5.6-5.5c1-1,2.2-1.5,3.6-1.5s2.6,0.5,3.6,1.5l5.5,5.5
			c2.1,1.9,5,2.8,7.8,2.5l7.8-1.3c2.8-0.4,5.4,1.5,5.8,4.3l1.3,7.8c0.6,2.8,2.3,5.2,4.9,6.6l7,3.6c1.2,0.6,2.1,1.7,2.5,3
			c0.4,1.3,0.3,2.7-0.3,3.9l-3.6,7c-1.2,2.6-1.2,5.6,0,8.2l3.6,7c1.3,2.5,0.3,5.6-2.2,6.9l-7,3.6c-2.4,1.5-4.2,3.9-4.9,6.6l-1.3,7.8
			c-0.5,2.8-3,4.7-5.8,4.3l-7.8-1.3c-2.8-0.3-5.6,0.6-7.8,2.5l-5.5,5.5C241.1,98,239.9,98.6,238.5,98.6"/>
		<path class="st0" d="M224.7,86.3c3,0,6,1.1,8.4,3l3.5,3.2c2.2,2,5.6,1.8,7.6-0.4l3.2-3.5c2.6-2.5,6.2-3.9,9.9-3.7l4.8,0.5
			c1.4,0.2,2.8-0.3,3.9-1.2c1.1-0.9,1.8-2.1,1.9-3.6l0.5-4.8c0.6-3.6,2.7-6.8,5.8-8.8l4.2-2.3c1.3-0.7,2.1-1.8,2.5-3.2
			c0.4-1.4,0.2-2.8-0.5-4.1l-2.3-4.1c-1.7-3.3-1.8-7.1-0.5-10.5l1.9-4.3c1.3-2.7,0-5.9-2.7-7.1l-4.3-1.9c-3.2-1.8-5.6-4.7-6.6-8.3
			l-1-4.7c-0.6-2.9-3.4-4.8-6.3-4.2l0,0l-4.7,1c-3.6,0.5-7.3-0.5-10.1-2.8l-3.5-3.2c-2.2-2-5.6-1.8-7.6,0.4l-3.2,3.5
			c-2.6,2.5-6.1,3.9-9.8,3.7l-4.8-0.5c-2.9-0.3-5.6,1.8-5.9,4.8l-0.6,4.8c-0.6,3.6-2.7,6.8-5.8,8.8l-4.1,2.3
			c-2.5,1.6-3.4,4.8-1.9,7.4l2.3,4.1c1.7,3.3,1.8,7.1,0.5,10.5l-1.9,4.3c-1.2,2.6-0.1,5.8,2.6,7.1l4.4,1.9c3.2,1.8,5.6,4.7,6.5,8.3
			l1,4.7c0.6,2.9,3.4,4.8,6.3,4.2l0,0l4.7-1C223.5,86.4,224.1,86.3,224.7,86.3 M240.3,94.7c-1.6,0-3-0.6-4.1-1.6l-3.5-3.2
			c-2.6-2.2-6.1-3.1-9.5-2.6l-4.7,1c-1.6,0.3-3.2,0-4.6-0.9c-1.4-0.9-2.3-2.3-2.6-3.9l-1-4.7c-0.9-3.3-3.1-6.1-6.1-7.8l-4.4-1.9
			c-3-1.4-4.4-5.1-3-8.1l1.9-4.3c1.3-3.2,1.1-6.8-0.5-9.9l-2.3-4.2c-0.8-1.4-1-3-0.6-4.6c0.4-1.5,1.5-2.8,2.8-3.6l4.2-2.3
			c2.9-1.8,4.9-4.9,5.5-8.3l0.6-4.8c0.4-3.3,3.4-5.7,6.7-5.4l4.8,0.5c3.4,0.2,6.8-1.1,9.2-3.5l3.2-3.6c2.3-2.4,6.1-2.6,8.7-0.3l0,0
			l3.5,3.2c2.6,2.1,6.1,3.1,9.5,2.6l4.7-1c3.3-0.7,6.5,1.5,7.2,4.8l1,4.7c0.9,3.3,3.1,6.1,6.1,7.8l4.3,1.9c3,1.4,4.4,5,3,8.1
			l-1.9,4.3c-1.3,3.2-1.1,6.8,0.4,9.9l2.3,4.2c1.6,2.9,0.6,6.6-2.3,8.3l-4.2,2.3c-2.9,1.8-4.9,4.9-5.5,8.3l-0.6,4.7
			c-0.4,3.3-3.4,5.7-6.7,5.4l-4.8-0.5c-3.4-0.2-6.8,1.1-9.2,3.5l-3.1,3.6C243.7,94,242,94.7,240.3,94.7"/>
		<path class="st0" d="M227.3,84.6c3.3,0,6.5,1.1,9.2,3l1.3,1.1c2.7,2.2,6.7,1.8,8.9-0.9l0,0l1.1-1.3c2.9-3.1,7-4.9,11.3-4.9h1.7
			c1.7,0.1,3.3-0.5,4.6-1.6s2-2.7,2.1-4.4V74c0.5-4.3,2.7-8.1,6.2-10.6l1.5-0.9c2.9-1.8,3.8-5.8,1.9-8.8l-0.9-1.5
			c-2.1-3.7-2.5-8.2-1.2-12.2l0.6-1.6c1.3-3.2-0.3-6.8-3.5-8.2l-1.6-0.6c-3.9-1.8-6.8-5.1-8.2-9.2l-0.4-1.7
			c-0.9-3.4-4.3-5.5-7.7-4.6c0,0,0,0-0.1,0l-1.6,0.4c-4.2,0.8-8.6-0.1-12-2.6l-1.3-1.1c-1.3-1.1-3-1.6-4.7-1.4
			c-1.7,0.2-3.2,1-4.3,2.2l-1.1,1.3c-2.9,3.1-7,4.9-11.2,4.9l-1.7-0.1c-3.5-0.2-6.5,2.4-6.7,5.9l0,0l-0.1,1.7
			c-0.5,4.3-2.8,8.1-6.2,10.6l-1.5,0.9c-2.9,1.8-3.8,5.8-1.9,8.8c0,0,0,0,0,0.1l0.9,1.5c2,3.7,2.4,8.2,1.1,12.2l-0.6,1.6
			c-1.3,3.2,0.4,6.9,3.6,8.2l1.6,0.6c3.9,1.8,6.8,5.1,8.1,9.2l0.4,1.7c0.9,3.4,4.3,5.5,7.7,4.6c0,0,0,0,0.1,0l1.7-0.4
			C225.4,84.7,226.3,84.6,227.3,84.6 M241.7,90.8c-1.7,0-3.2-0.6-4.5-1.6l-1.3-1.1c-3.2-2.4-7.4-3.3-11.3-2.5L223,86
			c-3.8,1-7.6-1.3-8.6-5.1l-0.4-1.7c-1.3-3.9-4.1-7-7.8-8.7l-1.6-0.6c-1.8-0.7-3.1-2-3.9-3.8c-0.8-1.8-0.8-3.7-0.1-5.4l0.6-1.6
			c1.3-3.8,0.9-8.1-1.1-11.6l-0.9-1.5c-2-3.3-1.2-7.6,2.1-9.7l0,0l1.4-0.9c3.3-2.3,5.4-6,5.8-10V24c0.3-3.9,3.6-6.8,7.5-6.6h1.7
			c4.1,0.1,8.1-1.5,10.9-4.5l1.1-1.3c2.5-3,6.9-3.4,9.9-1l1.3,1.1c3.2,2.4,7.4,3.3,11.3,2.5l1.7-0.4c3.8-1,7.6,1.3,8.6,5.1l0.4,1.7
			c1.3,3.9,4.1,7,7.8,8.7l1.6,0.6c3.6,1.5,5.4,5.5,3.9,9.2l-0.6,1.6c-1.3,3.8-0.9,8.1,1.1,11.6l0.9,1.5c2,3.3,1.1,7.6-2.1,9.7
			l-1.5,0.9c-3.2,2.3-5.4,6-5.8,10l-0.1,1.7c-0.2,3.9-3.6,6.8-7.5,6.6h-1.7c-4-0.1-7.9,1.6-10.7,4.5l-1.1,1.3
			C245.8,89.8,243.9,90.8,241.7,90.8"/>
		<path class="st0" d="M230.5,82.7c3.1,0,6.1,0.9,8.8,2.5c1.5,1.1,3.2,1.5,5,1.2c1.8-0.3,3.3-1.2,4.4-2.6c2.8-3.4,6.9-5.5,11.4-5.8
			l0,0c3.7,0,6.6-2.9,6.6-6.6c0.3-4.5,2.3-8.6,5.8-11.4c2.9-2.1,3.6-6.3,1.5-9.2c-2.4-3.7-3.1-8.3-1.9-12.6c1.2-3.5-0.8-7.2-4.2-8.4
			l0,0c-4.2-1.7-7.4-4.9-9-9.1c-1.2-3.5-4.9-5.4-8.4-4.3c-4.3,1.2-8.9,0.5-12.6-1.9c-2.9-2.1-7.1-1.5-9.2,1.5l0,0
			c-2.8,3.5-6.9,5.5-11.4,5.8l0,0c-3.7,0-6.6,2.9-6.6,6.6c-0.3,4.5-2.3,8.6-5.8,11.4c-2.9,2.1-3.6,6.3-1.5,9.2
			c2.4,3.7,3.1,8.3,1.9,12.6c-1.2,3.5,0.8,7.2,4.2,8.4c4.2,1.7,7.4,4.9,9.1,9.1c1.2,3.5,4.9,5.4,8.4,4.3c1.3-0.4,2.5-0.6,3.9-0.6
			 M243.3,87.3c-1.6,0-3-0.5-4.3-1.4c-3.5-2.3-7.9-3-12-1.9c-3.8,1.3-8-0.9-9.2-4.7l0,0c-1.6-3.9-4.7-7-8.6-8.6
			c-1.8-0.6-3.4-1.9-4.3-3.6c-0.9-1.8-1.1-3.8-0.5-5.6c1.1-4.1,0.4-8.5-1.9-12c-2.3-3.3-1.7-7.9,1.7-10.2c3.2-2.6,5.3-6.5,5.5-10.7
			c0-4,3.3-7.3,7.3-7.3l0,0c4.2-0.2,8.2-2.2,10.8-5.5c1.2-1.6,2.8-2.6,4.8-2.9c1.9-0.3,3.9,0.2,5.5,1.4c3.5,2.3,7.9,3,12,1.9
			c3.8-1.3,8,0.9,9.2,4.7c1.6,3.9,4.6,7,8.6,8.6c3.9,1.3,5.9,5.4,4.7,9.2c-1.1,4.1-0.4,8.5,1.9,12c2.3,3.3,1.7,7.9-1.7,10.2
			c-3.3,2.6-5.3,6.6-5.5,10.8c0,4.1-3.3,7.3-7.3,7.3l0,0c-4.2,0.2-8.1,2.2-10.8,5.5c-1.2,1.6-2.8,2.6-4.8,2.9
			C244,87.3,243.7,87.3,243.3,87.3"/>
		<path class="st0" d="M234.3,80.6c2.5,0,5,0.6,7.2,1.8c2.8,1.8,6.6,0.9,8.4-1.9c2.3-3.3,6-5.5,10.1-6c3.3-0.3,5.8-3.1,5.6-6.5
			c-0.1-4.1,1.7-8.1,4.6-10.9c2.6-2.1,2.9-6,0.8-8.6l0,0c-2.4-3.3-3.4-7.5-2.6-11.5c0.8-3.3-1.2-6.5-4.5-7.4
			c-3.9-1.3-7.2-4.1-8.9-7.8c-0.6-1.5-1.8-2.7-3.3-3.3c-1.5-0.6-3.2-0.6-4.7,0c-3.9,1.3-8.1,0.9-11.7-1.1c-2.8-1.8-6.6-0.9-8.4,1.9
			c-2.3,3.3-6,5.5-10.1,6c-3.3,0.2-5.8,3.1-5.6,6.5c0.1,4.1-1.7,8.1-4.7,10.9c-2.6,2.1-2.9,5.9-0.9,8.6c2.4,3.3,3.4,7.5,2.6,11.5
			c-0.8,3.3,1.2,6.5,4.5,7.4c3.9,1.3,7.2,4.1,8.9,7.8c1.3,3.1,4.8,4.6,7.9,3.4C231.2,80.9,232.8,80.6,234.3,80.6 M244.8,84.1
			c-1.3,0-2.5-0.4-3.6-1.1c-3.4-1.8-7.4-2.2-11.1-1c-1.7,0.7-3.5,0.7-5.2,0c-1.7-0.7-3-2-3.7-3.7c-1.7-3.5-4.7-6.1-8.4-7.3
			c-1.8-0.5-3.2-1.6-4.2-3.1c-1-1.6-1.3-3.4-0.9-5.2c0.7-3.8-0.2-7.7-2.4-10.8c-2.4-2.9-2-7.2,0.9-9.5l0,0c2.8-2.6,4.4-6.4,4.4-10.3
			c-0.3-3.7,2.5-7,6.3-7.2c3.9-0.5,7.4-2.6,9.5-5.8c2-3.2,6.2-4.1,9.3-2.1c3.4,1.8,7.4,2.2,11.1,1c3.5-1.4,7.4,0.3,8.9,3.8l0,0
			c1.7,3.5,4.8,6.1,8.5,7.3c3.6,0.9,5.8,4.6,5,8.3c-0.8,3.8,0.2,7.7,2.4,10.8c2.4,2.9,2,7.2-0.9,9.5c-2.8,2.6-4.5,6.4-4.4,10.3
			c0.3,3.8-2.4,7.1-6.2,7.4h-0.1c-3.9,0.5-7.3,2.5-9.5,5.7c-1,1.6-2.4,2.6-4.2,3C245.8,84.1,245.2,84.2,244.8,84.1"/>
		<path class="st0" d="M238.2,78.4c1.9,0,3.8,0.4,5.5,1.2c2.7,1.4,6.1,0.3,7.6-2.4c1.9-3.3,5.2-5.5,8.9-6.3c3-0.5,5.2-3.3,4.7-6.3
			c-0.4-3.8,0.9-7.6,3.4-10.4c2.1-2.2,2.1-5.7,0-7.9c-2.5-2.8-3.7-6.6-3.3-10.4c0.5-3-1.6-5.9-4.6-6.4l0,0c-3.7-0.9-6.9-3.2-8.8-6.5
			c-1.4-2.7-4.8-3.9-7.5-2.5c-3.5,1.6-7.4,1.6-10.9,0c-2.7-1.4-6-0.4-7.5,2.3c-1.9,3.3-5.2,5.5-8.9,6.3c-3,0.5-5.2,3.3-4.7,6.3
			c0.4,3.8-0.9,7.6-3.4,10.4c-2.1,2.1-2.1,5.7,0,7.9c2.5,2.8,3.7,6.6,3.3,10.4c-0.5,3,1.6,5.9,4.6,6.4l0,0c3.7,0.9,6.9,3.2,8.8,6.5
			c1.4,2.7,4.8,3.9,7.5,2.5l0,0C234.5,78.7,236.4,78.3,238.2,78.4 M246.3,80.9c-1,0-2-0.3-2.9-0.7c-3.3-1.5-7-1.5-10.3,0
			c-3.1,1.6-6.9,0.3-8.5-2.8l0,0c-1.8-3.1-4.8-5.3-8.3-6c-3.4-0.6-5.7-3.8-5.2-7.2l0,0c0.4-3.5-0.8-7.1-3.1-9.7
			c-2.4-2.4-2.4-6.4,0-9c2.4-2.6,3.6-6.1,3.2-9.7c-0.5-3.4,1.8-6.6,5.3-7.2l0,0c3.5-0.8,6.5-2.9,8.4-6c1.7-3.1,5.4-4.3,8.5-2.7
			c3.3,1.5,7,1.5,10.3,0c3.1-1.6,6.9-0.3,8.5,2.8l0,0c1.8,3.1,4.8,5.4,8.3,6.1c3.4,0.6,5.7,3.8,5.2,7.2c-0.4,3.5,0.8,7.1,3.1,9.7
			c2.4,2.4,2.4,6.4,0,9c-2.4,2.6-3.6,6.1-3.2,9.7c0.5,3.4-1.8,6.6-5.3,7.2c-3.5,0.8-6.5,2.9-8.4,6C251,79.6,248.7,80.9,246.3,80.9"
			/>
		<path class="st0" d="M229.1,22.6c-2.1,0-4,1.3-4.8,3.2c-1.5,3.2-4.3,5.6-7.6,6.6c-2.7,0.7-4.4,3.5-3.7,6.2c0.7,3.5-0.1,7-2.2,9.8
			c-1.8,2.2-1.6,5.5,0.7,7.3c2.5,2.4,4,5.8,3.9,9.3c-0.2,2.8,1.9,5.3,4.8,5.5c3.5,0.4,6.6,2.3,8.7,5.2c0.7,1.2,1.8,1.9,3.2,2.2
			c1.4,0.3,2.7,0.1,3.9-0.7c3.1-1.8,6.7-2,10.1-0.9c2.6,1.1,5.6-0.2,6.7-2.8c0,0,0,0,0-0.1c1.6-3.2,4.4-5.5,7.8-6.6
			c2.7-0.7,4.5-3.5,3.7-6.2l0,0c-0.7-3.5,0.2-7,2.2-9.8c0.9-1.1,1.3-2.4,1.2-3.8c-0.1-1.4-0.8-2.6-1.8-3.5c-2.5-2.4-4-5.8-3.9-9.3
			c0.2-2.8-1.9-5.3-4.8-5.5c-3.5-0.4-6.6-2.3-8.7-5.2c-1.6-2.4-4.7-3.1-7.1-1.7c-3.1,1.8-6.7,2-10.1,0.9c-0.6-0.3-1.3-0.4-1.9-0.4
			 M233.1,79.1c-0.5,0-0.9-0.1-1.4-0.2c-1.6-0.4-2.8-1.3-3.7-2.6c-1.9-2.7-4.9-4.5-8.2-4.9c-3.2-0.2-5.6-3-5.5-6.2l0,0
			c0-3.3-1.3-6.5-3.7-8.8c-1.2-1-1.9-2.3-2-3.9c-0.2-1.6,0.3-3.1,1.4-4.3c1.9-2.6,2.7-6,2.1-9.2c-0.8-3.1,1.1-6.3,4.2-7.1l0,0
			c3.1-1,5.7-3.2,7.1-6.2c1.2-3,4.6-4.5,7.6-3.3l0,0c3.1,1.1,6.5,0.8,9.4-0.9c1.4-0.8,2.9-1.1,4.4-0.8c1.6,0.4,2.8,1.3,3.7,2.6
			c1.9,2.7,4.9,4.5,8.2,4.9c3.2,0.2,5.6,3,5.5,6.2l0,0c-0.1,3.3,1.3,6.4,3.7,8.8c2.5,2,2.8,5.7,0.8,8.2l0,0c-1.9,2.6-2.7,6-2.1,9.2
			c0.8,3.1-1.1,6.3-4.2,7.1l0,0c-3.1,1-5.7,3.2-7.1,6.2c-0.6,1.5-1.8,2.6-3.1,3.2c-1.5,0.6-3,0.6-4.5,0c-3.1-1.1-6.5-0.8-9.4,0.9
			C235.3,78.7,234.2,79.1,233.1,79.1"/>
		<path class="st0" d="M224,71.1c3.2,0.1,6.1,1.6,8.3,3.9c1.7,2,4.7,2.3,6.7,0.8c2.6-1.9,6-2.6,9.2-1.9c2.5,0.7,5.2-0.8,5.8-3.3l0,0
			c1.1-3.1,3.3-5.6,6.3-6.9c2.4-1,3.7-3.7,2.8-6.1c-1-3.1-0.6-6.5,1.1-9.3c1.5-2.2,0.9-5.2-1.4-6.6c-2.6-1.9-4.4-5-4.7-8.2
			c-0.1-2.6-2.3-4.7-5-4.6c-3.3,0-6.4-1.5-8.6-3.9c-1.7-2-4.7-2.3-6.7-0.8l0,0c-2.7,1.9-6,2.6-9.2,1.9c-2.5-0.7-5.2,0.8-5.8,3.3
			c-1.1,3.1-3.3,5.6-6.3,7c-2.4,1-3.7,3.7-2.8,6.1c1,3.1,0.6,6.6-1.1,9.4c-1.5,2.2-0.8,5.2,1.4,6.6c2.6,1.9,4.3,5,4.7,8.2
			c0.1,2.6,2.3,4.7,5,4.6h0.3 M236,77.6h-0.6c-1.5-0.1-2.7-0.9-3.7-1.9c-2-2.2-5-3.6-8-3.6c-3,0.1-5.5-2.2-5.7-5.3
			c-0.2-3.1-1.8-6-4.4-7.9c-2.5-1.7-3.2-5.1-1.6-7.6c1.6-2.6,1.9-5.8,1-8.8c-1.1-2.8,0.4-5.9,3.2-7l0,0c2.8-1.3,5-3.6,5.9-6.5
			c0.4-1.4,1.4-2.6,2.6-3.3c1.3-0.8,2.7-0.9,4.2-0.5c3,0.7,6.1,0,8.7-1.8c1.2-0.9,2.6-1.3,4-1.2c1.5,0.1,2.7,0.9,3.7,1.9
			c2,2.2,5,3.6,8,3.6c3-0.1,5.5,2.1,5.7,5.2l0,0c0.3,3,1.8,5.8,4.4,7.7c2.5,1.7,3.2,5.1,1.6,7.6l0,0c-1.6,2.6-1.8,5.8-1,8.8
			c1.1,2.8-0.4,5.9-3.2,7c-2.7,1.3-4.9,3.6-5.8,6.5c-0.4,1.4-1.3,2.5-2.5,3.3c-1.3,0.7-2.7,0.9-4.2,0.5c-3-0.7-6.1,0-8.7,1.8
			c-1,0.8-2.1,1.2-3.4,1.2"/>
		<path class="st0" d="M228.6,71.2c2.6,0,5.2,1,7.2,2.7c1.8,1.8,4.5,1.8,6.2,0c2.2-2,5.3-3.1,8.4-2.8c2.4,0.3,4.7-1.4,5-3.8
			c0.6-3,2.3-5.7,5-7.3c2.1-1.2,3-3.8,1.8-5.9c-1.3-2.8-1.4-6-0.2-8.9c1.1-2.1,0.2-4.9-1.9-5.9c-2.7-1.5-4.6-4.1-5.4-7.1
			c-0.2-1.2-0.9-2.1-1.8-2.8c-1-0.7-2.1-1-3.3-0.8c-3,0.4-6.1-0.6-8.5-2.6c-1.8-1.7-4.6-1.7-6.2,0.1c-2.2,2-5.3,3.1-8.4,2.8
			c-1.2-0.2-2.3,0.1-3.3,0.9c-1,0.7-1.6,1.8-1.8,2.9c-0.6,3-2.4,5.6-5.1,7.2c-1.1,0.6-1.8,1.5-2.1,2.6c-0.4,1.2-0.2,2.3,0.3,3.4
			c1.3,2.8,1.4,6,0.1,8.9c-1,2.1-0.1,4.8,2,5.8c2.7,1.5,4.6,4.1,5.3,7.1c0.4,2.4,2.6,4.1,5.1,3.7l0,0
			C227.7,71.2,228.1,71.2,228.6,71.2 M238.8,75.9c-1.4,0-2.6-0.5-3.6-1.5c-2.1-1.8-5-2.7-7.8-2.4c-2.7,0.4-5.4-1.5-5.8-4.2
			c-0.7-2.8-2.4-5.2-5-6.5c-2.5-1.3-3.6-4.3-2.3-6.8l0,0c1.1-2.6,1.1-5.6-0.1-8.2c-1.4-2.5-0.4-5.6,2.1-6.9l0,0
			c2.4-1.5,4.2-3.9,4.7-6.7c0.4-2.8,3-4.8,5.8-4.4c2.8,0.3,5.6-0.7,7.8-2.6c1.9-2,5.3-2,7.3-0.1c2.1,1.8,5,2.7,7.8,2.4
			c1.4-0.3,2.7,0,3.9,0.9c1.1,0.8,1.8,1.9,2.1,3.3c0.6,2.7,2.2,5.1,4.7,6.5c2.5,1.3,3.6,4.3,2.3,6.8l0,0c-1.1,2.6-1.1,5.6,0.1,8.2
			c1.3,2.5,0.4,5.5-2.1,6.9c-2.4,1.5-4.2,3.9-4.7,6.7c-0.4,2.8-3,4.8-5.8,4.4c-2.8-0.3-5.6,0.7-7.8,2.6
			C241.4,75.3,240.1,75.9,238.8,75.9"/>
		<path class="st0" d="M233.5,70.6c2,0,4,0.6,5.6,1.7c1.8,1.3,4.3,0.8,5.6-1c1.8-2.2,4.5-3.6,7.3-3.8c1.1,0,2.1-0.4,2.9-1.2
			c0.8-0.8,1.3-1.8,1.3-2.8c0.2-2.8,1.5-5.5,3.7-7.3c1.8-1.4,2.2-3.9,0.9-5.7c-1.6-2.4-2-5.4-1.3-8.2c0.7-2.1-0.5-4.5-2.6-5.2
			c-2.7-1.1-4.8-3.1-5.8-5.8c-0.3-1.1-1-1.8-1.9-2.3c-1-0.5-2-0.6-3.1-0.3c-2.7,0.8-5.7,0.3-8.2-1.3c-0.9-0.7-1.9-0.9-3-0.7
			c-1.1,0.2-2,0.8-2.6,1.7c-1.8,2.2-4.5,3.6-7.3,3.8c-2.2,0-4.1,1.8-4.2,4.1v0.1c-0.2,2.8-1.5,5.5-3.7,7.3c-1.8,1.4-2.2,3.9-0.9,5.7
			l0,0c1.6,2.4,2,5.4,1.3,8.2c-0.3,1.1-0.2,2.1,0.3,3.1c0.5,1,1.4,1.7,2.3,1.9c2.7,1.1,4.8,3.1,5.8,5.8c0.7,2.1,3,3.3,5.2,2.6l0,0
			C231.8,70.7,232.7,70.6,233.5,70.6 M241.5,73.8c-1,0-1.9-0.3-2.8-0.9c-2.2-1.4-5-1.8-7.5-1.2c-2.5,0.8-5.3-0.6-6-3
			c-1-2.4-2.9-4.4-5.4-5.4c-1.2-0.4-2.2-1.3-2.8-2.4c-0.6-1.2-0.7-2.4-0.3-3.6c0.7-2.5,0.2-5.3-1.2-7.5c-0.8-1.1-1.1-2.3-0.9-3.6
			c0.2-1.3,0.9-2.4,1.9-3.1c2-1.7,3.2-4.1,3.4-6.7c0-2.6,2.1-4.8,4.8-4.8c2.6-0.2,5.1-1.5,6.8-3.5c1.6-2.1,4.5-2.6,6.6-1.1l0,0
			c2.2,1.4,5,1.8,7.5,1.2c2.5-0.9,5.3,0.5,6,3l0,0c1,2.4,2.9,4.4,5.4,5.4c1.3,0.4,2.2,1.3,2.8,2.3c0.6,1.2,0.7,2.4,0.3,3.7
			c-0.7,2.5-0.2,5.3,1.2,7.5c0.8,1,1.1,2.3,0.9,3.6c-0.2,1.3-0.9,2.4-1.9,3.1c-2,1.7-3.2,4.2-3.4,6.8c0,2.6-2.1,4.8-4.8,4.8
			c-2.6,0.2-5.1,1.5-6.7,3.5C244.5,73.1,243.1,73.8,241.5,73.8"/>
		<path class="st0" d="M238.5,69.5c1.4,0,2.7,0.2,3.9,0.8c0.9,0.5,1.9,0.5,2.9,0.2c1-0.3,1.8-1.1,2.1-1.9c1.4-2.3,3.6-3.9,6.2-4.5
			c2-0.3,3.4-2.2,3.1-4.3c-0.3-2.6,0.6-5.3,2.3-7.3c1.5-1.5,1.5-3.8,0-5.4l0,0c-1.8-1.9-2.6-4.6-2.3-7.3c0.3-2-1.1-4-3.1-4.3
			c-2.6-0.6-4.9-2.2-6.2-4.5c-0.4-0.9-1.3-1.7-2.1-1.9c-1-0.3-1.9-0.2-2.9,0.2c-2.4,1.1-5.3,1.1-7.7,0c-0.9-0.5-1.9-0.5-2.8-0.2
			c-1,0.3-1.8,1.1-2.1,1.9c-1.4,2.3-3.6,4-6.3,4.6c-2,0.3-3.4,2.2-3.1,4.3c0.3,2.6-0.6,5.3-2.3,7.3c-1.5,1.5-1.5,3.8,0,5.4l0,0
			c1.8,1.9,2.6,4.6,2.3,7.3c-0.3,2,1.1,4,3.1,4.3c2.6,0.6,4.9,2.2,6.2,4.5c0.4,0.9,1.3,1.7,2.1,1.9c1,0.3,1.9,0.2,2.8-0.2
			C235.8,69.8,237.1,69.5,238.5,69.5 M244,71.5c-0.7,0-1.4-0.2-1.9-0.5c-2.2-1-4.8-1-7,0c-1.1,0.6-2.2,0.7-3.4,0.3
			c-1.2-0.4-2-1.2-2.6-2.2c-1.3-2.1-3.3-3.7-5.6-4.2c-1.2-0.2-2.2-0.8-2.9-1.8c-0.7-1-1-2.1-0.8-3.3c0.2-2.4-0.6-4.9-2.1-6.7
			c-1.8-1.8-1.8-4.6,0-6.3l0,0c1.6-1.8,2.3-4.2,2-6.6c-0.2-1.2,0.1-2.3,0.8-3.3c0.7-1,1.8-1.7,2.9-1.8c2.3-0.5,4.5-2,5.6-4.1
			c0.6-1.1,1.5-1.8,2.6-2.2s2.3-0.3,3.4,0.3c2.2,1,4.8,1,7,0c1.1-0.6,2.2-0.7,3.4-0.3c1.2,0.4,2,1.2,2.6,2.2
			c1.3,2.1,3.3,3.6,5.6,4.1c2.4,0.4,4.1,2.6,3.7,5.1c-0.2,2.4,0.6,4.9,2.1,6.7c1.8,1.8,1.8,4.6,0,6.3l0,0c-1.6,1.8-2.3,4.3-2.1,6.7
			c0.4,2.4-1.3,4.7-3.7,5.1c-2.3,0.5-4.4,2-5.6,4.1c-0.6,1.1-1.5,1.8-2.6,2.2C244.9,71.4,244.4,71.5,244,71.5"/>
		<path class="st0" d="M252.7,53.9l-0.6-0.2c-1.1-0.3-2.1-0.5-3.2-0.4c-3.3,0.1-6.4,1-9.2,2.6c-0.5-3.9-0.6-7.8-0.3-11.7
			c1.8,1.2,3.1,3.1,3.5,5.3l0.1,0.4v-0.5c0.4-2.2-0.3-4.7-1.9-6.3c0.6,0,1.2,0.2,1.8,0.5c1.5,0.8,2.7,1.8,3.6,3.2l0.3,0.4l-0.1-0.5
			c-0.5-2.8-2.4-5.1-5.2-5.8c0,0,1.4-1,5.1,0.3l0.4,0.1l-0.2-0.3c-1.6-1.7-3.9-2.4-6.1-1.9l0,0c0.5-0.8,1.2-1.4,1.9-1.8l0.4-0.2
			h-0.4c-1.2,0.1-2.3,0.6-3.1,1.5c0-0.6-0.1-1.2-0.4-1.8v-0.2l-0.1,0.2c-0.2,0.6-0.3,1.2-0.4,1.8c-0.9-0.9-1.9-1.4-3.2-1.5h-0.4
			l0.4,0.2c0.8,0.5,1.4,1.2,1.8,1.9c-2.2-0.5-4.6,0.3-6.1,1.9l-0.2,0.3l0.4-0.1c3.8-1.3,5-0.3,5.1-0.3c-2.7,0.8-4.7,3-5.2,5.8v0.5
			l0.3-0.4c0.9-1.4,2.1-2.5,3.6-3.2c0.6-0.3,1.2-0.4,1.8-0.5l0,0c-1.7,1.7-2.3,4-1.9,6.3V50l0.1-0.4c0.3-2.2,1.5-4.2,3.2-5.5
			c0.3,3.9,0.2,7.8-0.3,11.7c-2.8-1.7-6-2.5-9.2-2.6h-0.1c-1.1,0-2.1,0.1-3.1,0.4l-0.6,0.2h0.7c4.4-0.1,8.6,1.2,12.2,3.6l-0.3,0.2
			c-1.5,1.1-5.1,3.6-6.8,3.6c-0.3,0-0.6,0-0.9-0.1h-0.8l0.3,0.3c0.4,0.5,1,0.9,1.7,0.9c2.1,0,5.2-2,6.9-3.3l0.9-0.6l0.9,0.6
			c1.8,1.3,4.8,3.3,6.9,3.3c0.7,0,1.3-0.3,1.6-0.9l0.3-0.3h-0.3c-0.3,0.1-0.6,0.1-0.9,0.1c-1.8,0-5.3-2.5-6.8-3.6l-0.3-0.2
			c3.6-2.4,7.9-3.7,12.2-3.6L252.7,53.9z"/>
	</g>
</g>
</svg>
