<?xml version="1.0" encoding="utf-8"?>
<!-- Generator: Adobe Illustrator 24.0.1, SVG Export Plug-In . SVG Version: 6.00 Build 0)  -->
<svg version="1.1" id="Layer_1" xmlns="http://www.w3.org/2000/svg" xmlns:xlink="http://www.w3.org/1999/xlink" x="0px" y="0px"
	 viewBox="0 0 300 100" style="enable-background:new 0 0 300 100;" xml:space="preserve">
<style type="text/css">
	.st0{fill:#3E3E3E;}
</style>
<title>SAMA- Web- Dark</title>
<g id="Layer_2_1_">
	<g id="Layer_1-2">
		<path class="st0" d="M77.3,39c0,0.6-0.1,1.1-0.2,1.6c-0.2,1-0.4,1.5-0.5,1.5s-0.1-0.2-0.2-0.6c0-0.9-0.1-1.4-0.1-1.5
			c-0.2-2.2-0.8-6-1.7-11.2c-0.3-1.5-0.6-3.6-1-6.5c-0.2-0.2-0.3-0.3-0.3-0.4c0.1-0.3,0.2-0.6,0.4-1.2c0.2-0.5,0.3-0.6,0.3-0.6
			c0.4,0.7,0.8,1.3,1.1,2.1c0.7,1.5,1,2.3,0.9,2.4s-0.3,0-0.6-0.4c-0.1-0.1-0.3-0.3-0.6-0.6c0.4,2.2,1,5.7,1.8,10.5
			C77.1,35.7,77.3,37.3,77.3,39"/>
		<path class="st0" d="M44.3,40c0.1,0.9-0.2,1.8-0.8,2.5c-1.4,1.1-2.9,2.1-4.5,2.9c-2.9,1.7-4.8,2.6-5.7,2.6c-1.1,0-1.6-0.7-1.6-2.1
			c0-1.3,0.3-2.7,0.9-3.9c0.3-0.7,0.5-1,0.6-1s0.1,0.4-0.3,1.3c-0.3,0.7-0.5,1.5-0.5,2.3c0,1,0.4,1.5,1.3,1.5c0.8,0,2.6-0.8,5.2-2.3
			c3.2-1.9,4.9-2.9,4.9-3.1c0-0.4-0.5-0.9-1.6-1.5l-2.5-1.2c-1.4-0.7-2.5-1.7-3.5-2.9c-0.1,0-0.1-0.1-0.2-0.2c0,0,0-0.4,0-1
			c0-0.3,0-0.6,0-0.9c0.5,0.1,1,0.4,1.4,0.7c0.8,0.5,1.1,0.7,1.1,0.8s-0.3,0.1-0.7,0.1c1,0.9,2.2,1.6,3.4,2.2
			c0.9,0.4,1.7,0.8,2.5,1.4C44.1,38.6,44.3,39.2,44.3,40"/>
		<path class="st0" d="M29.2,47l-0.9,1.6l-1.8-1.1l-0.7,1.3l-1.9-1.1l0.9-1.6l1.8,1.1l0.8-1.3L29.2,47 M34.8,31.3
			c0,0.3-0.1,0.6-0.2,0.9c-0.1,0.3-0.2,0.5-0.3,0.5s-0.2-0.2-0.5-0.5c-0.3-0.3-0.5-0.5-0.7-0.5c-0.5,0-1.4,0.5-2.5,1.6
			c-1.1,1.1-1.7,1.9-1.7,2.5c0,0.3,0.3,0.5,0.8,0.8c0.4,0.2,0.9,0.4,1.4,0.4c0.9,0,1.7,0.2,2.5,0.5c0.4,0.2,0.6,0.6,0.6,1.1
			c0,0.8-0.2,1.6-0.7,2.3c-1.3,1.3-2.8,2.3-4.5,3c-2,1-4.2,1.6-6.4,1.7c-2.1,0.2-4.1-1.1-4.8-3.1c-0.5-1.3-0.5-2.8-0.1-4.2
			c0.2-0.9,0.6-1.8,1-2.7c0.3-0.6,0.5-0.8,0.5-0.8s0,0.3-0.2,0.9c-0.4,1-0.7,2.1-0.7,3.2c0,1.2,0.4,2.3,1.1,3.2c1,1,2.3,1.5,3.7,1.5
			c1.6,0,3.2-0.4,4.7-1c1.3-0.5,2.6-1.1,3.9-1.9c1.1-0.6,1.6-1,1.6-1.1c0-0.3-0.5-0.5-1.4-0.7c-2.6-0.3-3.9-1-3.9-2.2
			c0.1-1.7,0.9-3.4,2.1-4.6c1.3-1.6,2.5-2.4,3.4-2.4c0.3,0,0.7,0.2,0.9,0.4C34.6,30.6,34.8,30.9,34.8,31.3 M19.2,35.7
			c-0.2,0.8-0.6,1.2-1.1,1.2c-0.2,0-0.5-0.1-0.6-0.3c-0.3-0.4-0.4-1-0.4-1.5c0-0.5,0.1-1.1,0.2-1.6c0.2-0.9,0.5-1.9,0.8-2.8
			c0.2-0.4,0.3-0.6,0.4-0.6s0,0.1,0,0.1c0,0.2-0.1,0.4-0.1,0.5c-0.2,0.5-0.4,1.4-0.7,2.8c-0.2,0.6-0.1,1.2,0.1,1.8
			c0.1,0.3,0.4,0.4,0.6,0.4c0.2,0,0.3-0.1,0.4-0.2l0.3-0.4c0.1-0.1,0.1-0.2,0.1-0.2C19.3,35,19.4,35.2,19.2,35.7"/>
		<path class="st0" d="M71.8,31.4c-0.5-2.8-1-5.6-1.5-8.4l0.6,0.6c0.3,0.3,0.5,0.4,0.5,0.4c0,0,0,0,0-0.1c-0.3-0.8-0.6-1.6-0.9-2.3
			c-0.2-0.7-0.6-1.5-1.1-2.1c0,0-0.2,0.2-0.3,0.7c-0.2,0.4-0.3,0.9-0.4,1.2c-0.1,0.1,0.1,0.2,0.3,0.4c0.4,2.9,0.8,5.1,1,6.6
			c0.8,3.7,1.3,7.5,1.6,11.2c0,0.2-0.2,0.3-0.6,0.5c-0.3,0.2-0.7,0.3-1,0.3h-0.3c-0.4,0-0.7-0.2-1-0.4c-0.2-0.1-0.3-0.3-0.5-0.4
			c-0.1-0.2-0.2-0.4-0.2-0.7c0-0.1,0-0.2,0-0.3c0-0.1,0-0.2,0-0.3c-0.1,0-0.3,0.2-0.6,0.7c-0.1,0.3-0.3,0.6-0.5,0.9
			c-0.3,0.4-0.7,0.6-1.2,0.5c-0.6,0-1-0.3-1.1-0.7c0.1-0.3,0.1-0.7,0.1-1c0-0.2,0-0.3,0-0.3s-0.3,0.2-0.6,0.5s-0.4,0.6-0.6,0.8
			L63.6,40c-0.5,0.5-1.1,0.8-1.8,0.9h-0.3c-0.1,0-0.3,0-0.4-0.1l-0.1,0c-0.5-0.2-0.8-0.6-0.8-1.1c0-0.2,0-0.5,0.1-0.7
			c0-0.2,0-0.3-0.1-0.3s-0.2,0-0.4,0.2l-0.7,0.7l-0.3,0.3l-0.4,0.3l-0.3,0.2c-0.2,0.1-0.3,0.2-0.5,0.4c-0.1,0.1-0.2,0.1-0.4,0.2
			c-0.3,0.1-0.7,0.1-1.1,0.2c-0.2,0-0.4,0-0.6,0c-0.4-0.1-0.7-0.4-0.7-0.8c0-0.2,0-0.5,0.1-0.7c0.1-0.3,0.1-0.7,0.2-1.1
			c0-0.2,0.1-0.3,0.2-0.5c0.4-0.2,0.7-0.4,1.1-0.5c0.5-0.2,0.9-0.3,1.4-0.6c0.3-0.1,0.6-0.3,0.9-0.5c0.1-0.1,0.2-0.2,0.2-0.3
			c0.2-0.4,0.4-0.8,0.5-1.2c-0.9,0.3-1.8,0.8-2.7,1.1c-0.4,0.2-0.8,0.3-1.3,0.4l0,0c-0.5,0.1-1.1,0.1-1.6-0.1
			c-1.1-0.4-1.9-1.1-2.5-2.1l-0.2-0.3c-0.1-0.3-0.4-0.8,0-1c1.2-0.6,2.4-0.9,3.7-0.9c0.9,0,1.7,0.1,2.6,0.3
			c-0.8-0.8-1.9-1.3-3.1-1.5c-1.1-0.2-2.2,0.1-3.1,0.8c-0.6,0.6-1,1.4-1.1,2.2c0,0.1,0,0.3,0,0.4c0.1,0.4,0.2,0.7,0.3,1.1
			c0.1,0.2,0.2,0.4,0.3,0.6c0.2,0.4,0.4,0.7,0.7,1c0.3,0.3,0.6,0.5,0.9,0.7c-0.6,0.3-1.3,0.6-1.9,0.8c-0.1-0.3-0.3-0.5-0.5-0.8
			c-0.4-0.7-1.1-1.2-1.8-1.4c-0.7,0-1.3,0.4-1.6,1c-0.4,0.5-0.6,1-0.7,1.6c0,1,0.6,1.5,1.9,1.5c0.7,0,1.5-0.1,2.2-0.3
			c0.2,0.2,0.2,0.5,0.2,0.8c0,0.5-0.8,1.3-2.6,2.6C45.9,45.3,44.3,46,43,46c-0.8,0-1.6-0.3-2.2-0.9c-0.5-0.6-0.8-1.5-0.8-2.3
			c0-0.5,0.1-1.1,0.2-1.6c0.1-0.5,0.2-0.8,0.2-0.8s0-0.1,0-0.1s-0.3,0.3-0.6,1.1c-0.3,0.8-0.4,1.7-0.4,2.5c-0.1,1,0.2,2,0.8,2.8
			c0.6,0.8,1.5,1.2,2.5,1.2c1.6-0.1,3-0.8,4.2-1.8c1.2-0.8,2.3-1.9,3.2-3.1c0.5-0.8,0.7-1.7,0.7-2.7c1.4-0.4,2.8-1.1,4-1.9
			c-0.4,1-0.6,2.2-0.4,3.3c0.1,0.5,0.5,0.9,1,1.1c0.7,0.2,1.5,0.1,2.1-0.2c0.2-0.1,0.3-0.2,0.5-0.3c0.6-0.3,1.1-0.8,1.4-1.4
			c0,1.3,0.6,1.9,1.7,1.9c1.3-0.1,2.4-0.9,2.9-2c0,0.4,0.1,0.7,0.3,1c0.1,0.2,0.3,0.3,0.6,0.4c0.1,0,0.2,0,0.4,0
			c1,0,1.7-0.6,2.2-1.9c0.1,0.1,0.1,0.2,0.2,0.3l0,0c0.1,0.2,0.2,0.5,0.4,0.7c0.4,0.5,1,0.8,1.6,0.8l0,0c1.3,0,2.5-0.9,2.6-2.2
			c0.2-0.8,0.3-1.6,0.3-2.4C72.4,35.4,72.2,33.4,71.8,31.4z M48,39c-0.6,0-0.8-0.2-0.8-0.4c0-0.1,0.1-0.3,0.2-0.3
			c0.1-0.1,0.2-0.1,0.4-0.1c0.5,0.1,1,0.4,1.3,0.8C48.7,39,48.3,39,48,39z"/>
		<path class="st0" d="M42,29.4c-0.2,0.5-0.4,0.8-0.7,0.8c-0.2,0-0.3-0.1-0.4-0.2c-0.2-0.3-0.3-0.6-0.3-1c0-0.3,0.1-0.7,0.1-1
			c0.1-0.6,0.3-1.2,0.5-1.8c0.1-0.2,0.2-0.4,0.2-0.4c0,0,0,0.1,0,0.1c0,0.1,0,0.2-0.1,0.4c-0.1,0.3-0.3,0.9-0.5,1.8
			c-0.1,0.4-0.1,0.8,0.1,1.1c0.1,0.2,0.2,0.3,0.4,0.3c0.1,0,0.2,0,0.3-0.1l0.2-0.3c0-0.1,0.1-0.1,0.1-0.1S42,29.1,42,29.4"/>
		<path class="st0" d="M39.4,47.8c0,0,0,0.2-0.1,0.3c0,0.1-0.1,0.2-0.2,0.3l-3.3,1.2c-1,0.4-2.1,0.8-3,1.3c0-0.1,0-0.3,0-0.4
			c0-0.1,0.1-0.2,0.1-0.3C35,49.4,37.1,48.5,39.4,47.8"/>
		<path class="st0" d="M52.7,24c0.1-0.6,0-0.9-0.3-0.9S52,23.3,52,23.5S52.2,23.9,52.7,24 M53.6,24.4c0,0.1-0.1,0.2-0.1,0.3
			c-0.1,0.1-0.1,0.2-0.1,0.2c-0.2,0-0.5-0.1-0.7-0.2c-0.8,1-1.9,1.9-3.1,2.4c-0.3,0.2-0.7,0.3-1,0.4c-0.3,0.1-0.5,0.2-0.8,0.3
			c0.2-0.2,0.5-0.4,0.8-0.5c1.4-0.7,2.7-1.6,3.9-2.7c-0.6-0.3-0.9-0.6-0.9-0.9c0-0.3,0.2-0.6,0.4-0.8c0.2-0.2,0.4-0.4,0.7-0.5
			c0.3,0,0.4,0.3,0.4,0.9c0,0.2,0,0.5-0.1,0.7C53.1,24.2,53.3,24.3,53.6,24.4"/>
		<path class="st0" d="M65.8,26.9c0.1-0.6,0-0.9-0.3-0.9S65,26.2,65,26.4S65.3,26.7,65.8,26.9 M66.6,27.3c0,0.1-0.1,0.2-0.1,0.3
			c-0.1,0.1-0.1,0.2-0.1,0.2c-0.2,0-0.5-0.1-0.7-0.2c-0.8,1-1.8,1.9-3,2.5l-1,0.4c-0.3,0.1-0.5,0.2-0.8,0.3c0.2-0.2,0.5-0.4,0.8-0.5
			c1.4-0.7,2.7-1.6,3.9-2.7c-0.6-0.3-0.9-0.6-0.9-0.9c0-0.3,0.2-0.5,0.3-0.7c0.2-0.2,0.4-0.4,0.7-0.5c0.3,0,0.4,0.3,0.4,0.9
			c0,0.2,0,0.5-0.1,0.7C66.4,27.2,66.6,27.3,66.6,27.3"/>
		<path class="st0" d="M65.7,45.3c0,0.5-0.2,0.7-0.5,0.7c-0.1,0-0.3,0-0.3-0.1c0,0-0.1,0-0.2,0c-0.1,0.2-0.4,0.4-0.7,0.4
			c-0.1,0-0.2,0-0.3-0.1c-0.3-0.2-0.7-0.2-1,0c-0.3,0.2-0.6,0.4-0.9,0.7c-0.2,0.2-0.5,0.4-0.7,0.6c-0.4,0.3-0.9,0.6-1.4,0.8
			c-0.3,0.1-0.6,0.2-0.9,0.3h-0.1c0.1-0.1,0.1-0.1,0.2-0.1c0.3-0.1,0.6-0.2,0.8-0.4c0.6-0.4,1.2-0.8,1.7-1.3c0.4-0.4,0.8-0.8,1.3-1
			c0.3-0.2,0.6-0.2,0.8,0c0.1,0.1,0.2,0.1,0.3,0.1c0.3,0,0.6-0.2,0.7-0.5c0.1-0.2,0.1-0.3,0.2-0.3c0.1,0,0,0,0,0.1s0,0.2,0,0.3
			c0.1,0.1,0.3,0.2,0.4,0.1c0.1,0,0.1-0.1,0-0.2c0,0-0.1-0.1,0-0.2c0,0,0,0,0,0c0.1-0.2,0.1-0.3,0.2-0.3
			C65.6,44.9,65.7,45,65.7,45.3"/>
		<path class="st0" d="M28.9,26.8c0,0.6-0.1,1.1-0.4,1.6c-0.2,0.4-0.5,0.6-0.9,0.6c-0.2,0-0.4-0.1-0.5-0.2c-0.3,0.4-0.8,0.7-1.3,0.7
			c-0.5,0-0.8-0.3-0.8-1c0-0.3,0.1-0.7,0.3-1c0.2-0.5,0.3-0.7,0.4-0.7c0.1,0,0.1,0.1,0.1,0.3c0,0.4-0.1,0.6-0.1,0.6s0.1,0.2,0.3,0.2
			c0.4,0,0.7-0.2,0.9-0.5c0.3-0.3,0.4-0.5,0.4-0.5c0,0,0.2,0.1,0.2,0.3c0,0.2,0.1,0.3,0.2,0.3c0.3,0,0.6-0.2,0.7-0.5
			c0.1-0.2,0.2-0.4,0.3-0.5C28.9,26.5,28.9,26.6,28.9,26.8"/>
		<path class="st0" d="M66.5,31.7c0,0.6-0.1,1.1-0.4,1.6c-0.2,0.4-0.5,0.6-0.9,0.6c-0.2,0-0.4-0.1-0.5-0.2c-0.3,0.4-0.8,0.7-1.3,0.7
			c-0.5,0-0.8-0.3-0.8-1c0-0.3,0.1-0.7,0.3-1c0.2-0.5,0.3-0.7,0.5-0.7c0.1,0,0.2,0.1,0.1,0.3c0,0.4-0.1,0.7-0.1,0.7s0.1,0.2,0.3,0.2
			c0.4,0,0.7-0.2,0.9-0.5c0.3-0.3,0.4-0.5,0.4-0.5c0.1,0,0.2,0.1,0.2,0.3s0.1,0.3,0.2,0.3c0.3,0,0.6-0.2,0.7-0.5
			c0.1-0.2,0.2-0.4,0.3-0.5C66.5,31.4,66.5,31.5,66.5,31.7"/>
		<path class="st0" d="M54.8,47.4c-0.5,0.7-1.3,1.1-2.2,1.1c-0.6,0-1-0.3-1-0.8c0-0.3,0.1-0.7,0.3-1c0.1-0.4,0.3-0.7,0.6-0.9
			C52.2,45.6,52,45.3,52,45c0-0.3,0.2-0.6,0.4-0.8c0.3-0.3,0.5-0.5,0.8-0.5c0.2,0,0.3,0.1,0.3,0.4c0,0.1,0,0.2-0.1,0.3
			c0,0.1-0.1,0.2-0.2,0.2s-0.1-0.1-0.1-0.1c0-0.1-0.1-0.2-0.2-0.2c-0.1,0-0.2,0.1-0.3,0.1c-0.1,0.1-0.2,0.2-0.2,0.3
			c0,0.3,0.3,0.4,0.8,0.4c0.2,0,0.4-0.1,0.5-0.3c0.2-0.2,0.3-0.2,0.3-0.2s0,0.2,0,0.5c-0.1,0.1-0.1,0.2-0.3,0.2
			c-0.4,0.2-0.8,0.5-1.1,0.8c-0.4,0.4-0.7,0.8-0.7,1s0.3,0.5,0.9,0.5c0.6,0,1.2-0.2,1.7-0.5c0.1,0,0.1,0,0.2,0
			C54.9,47.2,54.9,47.3,54.8,47.4"/>
		<path class="st0" d="M141,37.5c0,0.5-0.1,1.1-0.2,1.6c-0.2,1-0.4,1.5-0.5,1.5s-0.1-0.2-0.2-0.6c0-0.9-0.1-1.4-0.1-1.5
			c-0.2-2.2-0.8-6-1.7-11.2c-0.3-1.5-0.6-3.6-1-6.6c-0.2-0.2-0.3-0.3-0.3-0.4c0.1-0.3,0.2-0.6,0.4-1.2c0.1-0.2,0.2-0.4,0.3-0.6
			c0.4,0.6,0.8,1.3,1.1,2.1c0.7,1.5,1,2.3,0.9,2.4c-0.1,0.1-0.3-0.1-0.6-0.4l-0.6-0.6c0.4,2.2,1,5.7,1.8,10.5
			C140.7,34.1,140.9,35.8,141,37.5"/>
		<path class="st0" d="M134.8,37.4c-0.6,0-1.1,0.2-1.6,0.4c-0.4-1.2-0.7-2.3-0.8-3.5c-0.6-5-1.1-8.9-1.4-11.9l0.6,0.6
			c0.3,0.3,0.4,0.5,0.6,0.4v-0.1c-0.2-0.8-0.5-1.6-0.8-2.3c-0.5-1.4-0.9-2.1-1-2.1c-0.2,0-0.2,0.2-0.3,0.7c-0.1,0.3-0.3,0.6-0.6,1.1
			c0,0.1,0.1,0.3,0.3,0.4c0.2,4.5,0.7,9,1.4,13.4c0.2,1.3,0.5,2.5,0.8,3.7l0,0c-0.9,0.5-1.9,0.9-3,1h-0.1c-0.4,0-0.8-0.2-1.1-0.5
			c-0.2-0.2-0.3-0.4-0.4-0.6c-0.1-0.3-0.3-0.4-0.3-0.4s-0.1,0.3-0.2,0.8c-0.1,0.3-0.1,0.6-0.1,0.9c0.3,0.4,0.5,0.8,0.7,1.3
			c0.4,0.6,0.6,1.3,0.6,2c0,0.3-0.9,1.2-2.8,2.4c-1.3,1-2.9,1.6-4.5,1.7c-2,0-3-1-3-2.9c0-0.7,0.2-1.4,0.4-2.1
			c0.1-0.3,0.2-0.7,0.3-1c-0.1-0.1-0.3,0-0.4,0.3c-0.6,1.2-0.9,2.6-0.9,4c0,2.4,1.1,3.6,3.4,3.6c1.5-0.1,3-0.7,4.3-1.5
			c1.4-0.7,2.5-1.7,3.4-3c0.2-0.5,0.4-1,0.4-1.5c0.1-0.5,0.1-1.1,0.1-1.6c0.8,0,1.5-0.2,2.2-0.5l1.8-0.9c0.8,1.5,1.7,2.2,2.6,2.2
			c1,0,1.5-0.9,1.5-2.7c0.1-0.9-0.5-1.7-1.4-1.8C135.1,37.4,135,37.4,134.8,37.4z M135.4,40.2c-0.6,0-1.1-0.4-1.4-0.9
			c0.4-0.1,0.7-0.1,1.1,0c0.2,0,0.4,0.1,0.5,0.3c0.2,0.2,0.3,0.3,0.3,0.4C135.9,40.1,135.7,40.2,135.4,40.2z"/>
		<polygon class="st0" points="94.3,32.9 92.4,31.8 91.5,33.4 93.4,34.5 		"/>
		<path class="st0" d="M124.7,35.1c-0.5-0.4-1-0.8-1.6-1c-1.7-0.4-3.4-0.5-5.1-0.2c-3.4,0.4-6,0.7-7.7,0.9c-2,0.2-4,0.3-6,0.1
			c-1.4-0.2-2.2-0.5-2.2-1c0-0.5,0.7-1.2,2.2-2.2c2.6-1.8,4.6-2.7,6.1-2.7c0.2,0,0.3,0,0.4,0.1c0.1,0.1,0.2,0.3,0.3,0.4
			c0.1,0,0.2-0.2,0.4-0.6c0.1-0.3,0.2-0.6,0.2-0.9c0-0.5-0.2-0.7-0.6-0.7c-1.5,0-3.6,0.9-6.1,2.6c-2.6,1.8-3.9,3.5-3.9,5.1
			c0,0.9,0.8,1.4,2.5,1.6c2.3,0.2,4.7,0.1,7-0.2c3.7-0.4,6.2-0.7,7.6-0.8c1.2-0.2,2.4-0.1,3.6,0.1c1.2,0.2,2.1,1,2.7,2
			c-3.4,0.7-7.1,1.2-11.3,1.7c-3.3,0.4-6.6,0.7-9.9,0.7h-0.1c-4.9,0-7.9-1-9.1-3c-0.2-0.3-0.3-0.4-0.3-0.4s-0.1,0.3-0.3,0.9
			c-0.1,0.3-0.2,0.7-0.2,1c0.8,0.9,1.4,2.1,1.5,3.3c0,0.2-0.1,0.4-0.2,0.5c-0.9,0.9-1.9,1.6-3,2.2c-1.4,0.9-3,1.5-4.7,1.6
			c-2,0-3-1-3-2.9c0-0.7,0.1-1.4,0.3-2.1c0.1-0.3,0.2-0.7,0.3-1c-0.1-0.1-0.3,0.1-0.4,0.3c-0.6,1.2-1,2.6-0.9,4
			c0,2.4,1.1,3.6,3.4,3.6c1.9-0.2,3.7-0.8,5.3-2c1.8-1.2,2.9-2.2,3.2-3c0.3-0.7,0.5-1.5,0.5-2.3c1.4,0.7,3.8,1,7.2,1l0,0
			c4.2-0.1,8.4-0.5,12.5-1.1c4.7-0.7,7.5-1.1,8.3-1.3l1-0.2c0.1,0,0.3-0.3,0.6-1c0.2-0.4,0.4-0.8,0.5-1.2
			C125.7,36.3,125.3,35.6,124.7,35.1z"/>
		<polyline class="st0" points="83.4,46.9 82.5,48.5 80.7,47.4 80,48.7 78.1,47.6 79,46 80.8,47.1 81.6,45.8 83.4,46.9 		"/>
		<path class="st0" d="M90.8,30.9c0,0.3-0.1,0.6-0.2,0.9c-0.1,0.3-0.2,0.5-0.3,0.5s-0.2-0.2-0.5-0.5s-0.5-0.5-0.7-0.5
			c-0.5,0-1.4,0.5-2.5,1.6c-1.1,1.1-1.7,1.9-1.7,2.5c0,0.3,0.3,0.5,0.8,0.8c0.4,0.2,0.9,0.4,1.4,0.4c0.9,0,1.7,0.2,2.6,0.5
			c0.4,0.2,0.6,0.6,0.6,1.1c0,0.8-0.2,1.6-0.7,2.3c-1.3,1.3-2.8,2.4-4.5,3c-2,1-4.2,1.6-6.4,1.7c-2.1,0.1-4.1-1.1-4.8-3.1
			c-0.5-1.3-0.5-2.8-0.1-4.2c0.2-0.9,0.5-1.8,0.9-2.7c0.3-0.6,0.5-0.8,0.6-0.8c0.1,0,0,0.3-0.2,0.9c-0.4,1-0.7,2.1-0.7,3.2
			c0,1.2,0.4,2.3,1.1,3.2c1,1,2.4,1.5,3.8,1.5c1.6,0,3.2-0.4,4.7-1c1.3-0.5,2.6-1.2,3.8-1.9c1.1-0.6,1.6-1,1.6-1.1
			c0-0.3-0.5-0.5-1.4-0.7c-2.6-0.3-4-1-4-2.2c0.1-1.7,0.9-3.4,2.1-4.6c1.3-1.6,2.4-2.4,3.4-2.4c0.3,0,0.7,0.2,0.9,0.4
			C90.6,30.2,90.7,30.5,90.8,30.9"/>
		<path class="st0" d="M126.7,24.8c0,0.2-0.1,0.3-0.2,0.5c-0.1,0.3-0.2,0.4-0.3,0.4c-3.2,1.1-5.7,1.9-7.6,2.6
			c-3.6,1.2-6.1,2.2-7.6,2.9c0-0.2,0.1-0.4,0.2-0.6c0.1-0.2,0.2-0.3,0.4-0.4C115.9,28.4,121,26.6,126.7,24.8"/>
		<path class="st0" d="M100.2,44.6c0,0,0,0.2-0.1,0.3c0,0.1-0.1,0.2-0.2,0.3l-3.3,1.2c-1.1,0.4-2.1,0.8-3.1,1.3c0-0.1,0-0.3,0-0.4
			c0-0.1,0.1-0.2,0.1-0.3C95.9,46.2,98,45.3,100.2,44.6"/>
		<path class="st0" d="M136,44.7c0-0.4-0.1-0.5-0.4-0.5s-0.3,0.1-0.3,0.2s0.1,0.1,0.3,0.2C135.7,44.6,135.8,44.7,136,44.7
			 M136.4,44.6c0,0.5-0.1,0.7-0.3,0.7c-0.5,0-0.9-0.2-1.3-0.5c-0.1,0.3-0.2,0.6-0.3,0.8c-0.7,0.5-1.4,0.9-2.2,1.2
			c-1,0.5-1.6,0.7-1.8,0.8c-0.8,0.2-1.5,0.3-2.1,0.4h-0.1l0,0c0,0,0-0.1,0.1-0.1c0.1,0,0.8-0.3,1.7-0.6s1.8-0.7,2.3-0.9
			c0.8-0.3,1.5-0.7,2.1-1.1c0.1-0.1,0.2-0.3,0.3-0.4c0.1-0.3,0.2-0.5,0.4-0.7c0.2-0.2,0.3-0.4,0.5-0.4c0.2,0,0.4,0.1,0.5,0.3
			C136.3,44.1,136.4,44.4,136.4,44.6"/>
		<path class="st0" d="M85.3,23.6c0.1-0.6,0.1-0.9-0.3-0.9s-0.4,0.1-0.4,0.4S84.9,23.4,85.3,23.6 M86.2,24c0,0.1-0.1,0.2-0.1,0.3
			C86,24.4,86,24.5,86,24.5c-0.2,0-0.5-0.1-0.7-0.2c-0.8,1-1.8,1.9-3,2.4c-0.1,0.1-0.4,0.2-1,0.4c-0.3,0.1-0.5,0.2-0.8,0.3
			c0.2-0.2,0.5-0.4,0.8-0.5c1.4-0.7,2.7-1.6,3.9-2.7c-0.6-0.3-0.9-0.6-0.9-0.9c0-0.3,0.2-0.6,0.4-0.8c0.2-0.2,0.4-0.4,0.7-0.5
			c0.3,0,0.4,0.3,0.4,0.9c0,0.2,0,0.5-0.1,0.7C86,23.8,86.2,23.9,86.2,24"/>
		<path class="st0" d="M86,27.3c0,0.6-0.1,1.1-0.4,1.6c-0.2,0.3-0.5,0.6-0.9,0.6c-0.2,0-0.4-0.1-0.5-0.2c-0.3,0.4-0.8,0.7-1.3,0.7
			c-0.5,0-0.8-0.3-0.8-0.9c0-0.4,0.1-0.7,0.3-1c0.2-0.5,0.3-0.7,0.4-0.7c0.1,0,0.2,0.1,0.1,0.3c-0.1,0.4-0.1,0.6-0.1,0.6
			s0.1,0.2,0.3,0.2c0.4,0,0.7-0.2,0.9-0.5c0.3-0.3,0.4-0.5,0.4-0.5s0.2,0.1,0.2,0.3s0.1,0.3,0.2,0.3c0.3,0,0.6-0.2,0.7-0.5
			c0.1-0.2,0.2-0.4,0.3-0.5C85.9,26.9,86,27,86,27.3"/>
		<path class="st0" d="M103.5,22.4c0.1,0.1,0.1,0.3,0,0.5s-0.1,0.4-0.2,0.4l-0.2-0.3c-0.1-0.2-0.3-0.3-0.4-0.3s-0.5,0.6-0.6,1.9
			s-0.2,1.9-0.3,1.9s-0.3-0.3-0.4-0.9c-0.1-0.6-0.4-1.2-0.8-1.7c0,0.1-0.1,0.1-0.1,0.1c-0.1,0-0.2,0-0.5-0.2s-0.4-0.4-0.4-0.5
			c-0.1-0.7,0-1,0.3-1c0.5,0,1,0.6,1.6,1.9c0.1,0.3,0.2,0.6,0.3,0.9c0.1-0.6,0.1-1.2,0.3-1.9c0.2-1.1,0.4-1.7,0.8-1.7
			S103.3,22,103.5,22.4"/>
		<path class="st0" d="M114.9,43.9c0.1,0.1,0.1,0.3,0,0.6s-0.1,0.4-0.2,0.4l-0.2-0.3c-0.1-0.2-0.3-0.3-0.4-0.3s-0.5,0.6-0.6,1.9
			s-0.2,1.9-0.3,1.9s-0.3-0.3-0.4-0.9c-0.1-0.6-0.4-1.2-0.8-1.7c0,0-0.1,0.1-0.1,0.1c-0.1,0-0.2,0-0.5-0.2s-0.4-0.3-0.5-0.5
			c-0.1-0.7,0-1,0.3-1c0.5,0,1,0.6,1.6,1.9c0.1,0.3,0.2,0.6,0.3,0.9c0.1-0.6,0.2-1.2,0.3-1.8c0.2-1.1,0.4-1.7,0.8-1.7
			S114.6,43.6,114.9,43.9"/>
		<path class="st0" d="M129.1,31.4c0,0-0.2-0.2-0.5-0.4c-0.2-0.1-0.3-0.2-0.5-0.3c0,0-0.1,0.1-0.2,0.3c-0.1,0.1-0.1,0.3-0.1,0.4
			c0,0.2,0.1,0.3,0.3,0.4c0,0,0.1,0,0.1,0c0.2,0,0.3-0.1,0.5-0.1C129,31.6,129.1,31.5,129.1,31.4 M129.5,31.1c0,1-0.4,1.5-1.3,1.5
			c-0.4,0-0.7-0.3-0.7-0.8c0-0.6,0.2-1.3,0.6-1.8c0.1-0.3,0.2-0.5,0.3-0.5s0.1,0,0,0.1c-0.1,0.1-0.1,0.2-0.1,0.4
			C129.1,30.4,129.5,30.8,129.5,31.1"/>
		<path class="st0" d="M184.3,41.5c0,0.6-0.1,1.1-0.2,1.6c-0.2,1-0.4,1.5-0.5,1.5s-0.1-0.2-0.2-0.6c-0.1-0.9-0.1-1.4-0.1-1.5
			c-0.2-2.2-0.8-6-1.7-11.2c-0.3-1.5-0.6-3.6-1-6.6c-0.2-0.2-0.3-0.3-0.3-0.4c0.1-0.3,0.2-0.6,0.4-1.2s0.3-0.6,0.3-0.6
			c0.4,0.7,0.8,1.3,1.1,2.1c0.7,1.5,1,2.3,0.9,2.4s-0.3,0-0.6-0.4c-0.1-0.1-0.3-0.3-0.6-0.6c0.4,2.2,1,5.7,1.8,10.5
			C184.1,38.1,184.3,39.7,184.3,41.5"/>
		<polygon class="st0" points="159.3,34.6 157.4,33.6 156.5,35.2 158.4,36.2 		"/>
		<polygon class="st0" points="171.1,44.5 172.9,45.6 173.8,44 171.9,42.9 		"/>
		<path class="st0" d="M178.9,33.2c-0.4-2.2-0.7-4.3-1.1-6.5c0.4,0.4,0.6,0.6,0.6,0.7c0.3,0.3,0.4,0.4,0.6,0.4v-0.1
			c-0.2-0.8-0.6-1.6-0.9-2.3c-0.3-0.7-0.6-1.4-1.1-2.1c-0.2,0.3-0.3,0.6-0.4,0.9c-0.2,0.4-0.3,0.8-0.3,0.9s0.1,0.3,0.3,0.4
			c0.4,2.7,0.7,4.7,0.9,6c0.6,3.6,1,6.1,1.1,7.6c0,0.5-0.3,1-0.7,1.2c-0.4,0.3-0.9,0.4-1.4,0.4h-0.1c-0.5,0-1-0.2-1.3-0.5
			c-0.3-0.4-0.4-1-0.3-1.5c0-0.2,0-0.3-0.1-0.3c-0.2,0.1-0.4,0.2-0.6,0.3c-1.2,0.7-2.6,1.2-3.9,1.5c-1.4,0.3-2.8,0.5-4.3,0.5
			c-2.7,0-4.4-0.4-5.1-1.3c-0.4-0.4-0.5-0.9-0.3-1.4c0.1-0.2,0-0.2-0.1-0.2s-0.5,0.4-1,1.1c-0.7,1.1-1.4,1.7-2.2,1.7h-0.1
			c-0.5,0-1-0.3-1.3-0.8c-0.5-1.2-0.9-2.4-1-3.7c-0.4-2.5-0.7-4.4-0.9-5.6c-0.7-4.5-1.3-7.7-1.8-9.5c-0.2-0.9-0.4-1.4-0.4-1.4
			c-0.1,0.3-0.2,0.7-0.3,1c-0.1,0.4-0.2,0.8-0.2,1.1c0-0.1,0.4,2.4,1.3,7.5c0.9,5.1,1.3,8.1,1.3,8.9c0,0.6-0.3,1.1-0.8,1.4
			c-1.4,0.8-2.8,1.5-4.3,2c-1.7,0.7-3.6,1.1-5.5,1.1c-1.2,0.1-2.4-0.3-3.3-1c-0.8-0.7-1.3-1.7-1.2-2.8c0-0.5,0.1-1.1,0.3-1.6
			c0.2-0.6,0.2-0.9,0.1-0.9s-0.3,0.1-0.5,0.5c-0.4,0.9-0.7,2-0.7,3c0,1.2,0.4,2.4,1.3,3.3c1.1,0.9,2.4,1.4,3.9,1.3
			c1.8-0.1,3.6-0.5,5.3-1.2c1.7-0.6,3.2-1.4,4.7-2.4c0.7-0.6,1.1-1.4,1.2-2.3c0.4,2.1,1.2,3.2,2.4,3.4c0,0,0.1,0,0.1,0h0.2
			c0.1,0,0.1,0,0.2,0c0.8-0.1,1.5-0.6,1.9-1.3c0.2-0.3,0.4-0.7,0.6-1c0.5,1.7,2.5,2.6,5.8,2.6l0,0c1.7,0,3.4-0.3,5-0.8
			c1.3-0.3,2.6-0.8,3.8-1.5c0.1,1.6,0.7,2.3,1.8,2.3h0.2c1.1,0,2-0.6,2.6-1.5c0.6-1,0.9-2.1,0.8-3.3
			C179.4,36.2,179.2,34.7,178.9,33.2z"/>
		<path class="st0" d="M143.3,38.4c0.9,0,1.8-0.1,2.6-0.4c0.4-0.3,0.8-0.7,1.1-1.2c0.4-0.5,0.7-1.1,0.7-1.7c0-0.5-0.4-0.7-1.1-0.7
			s-1.1-0.1-1.1-0.2c0-0.5,0.4-0.8,1.1-0.9c0.1,0,0.2-0.3,0.4-0.7c0.1-0.3,0.2-0.6,0.3-0.9c0-0.1-0.1-0.1-0.2-0.1
			c-0.4,0-0.9,0.5-1.6,1.4c-0.6,0.7-0.9,1.5-1,2.3c0,0.6,0.7,0.9,2.1,1c-0.4,0.5-0.9,0.8-1.4,1l-1.9,0.8c-0.2,0.1-0.3,0.1-0.3,0.2
			S143.1,38.4,143.3,38.4z"/>
		<path class="st0" d="M149.5,29.7c-0.1,0.5-0.4,0.8-0.7,0.8c-0.2,0-0.3-0.1-0.4-0.2c-0.2-0.3-0.3-0.6-0.3-1c0-0.3,0.1-0.7,0.1-1
			c0.1-0.6,0.3-1.2,0.5-1.8c0.1-0.2,0.2-0.4,0.2-0.4s0,0,0,0.1c0,0.1,0,0.2-0.1,0.4c-0.1,0.3-0.3,0.9-0.5,1.8
			c-0.1,0.4-0.1,0.8,0.1,1.1c0.1,0.2,0.2,0.3,0.4,0.3c0.1,0,0.2,0,0.3-0.1l0.2-0.3c0-0.1,0.1-0.1,0.1-0.1S149.5,29.4,149.5,29.7"/>
		<path class="st0" d="M169.9,38.5c-0.1,0.5-0.4,0.8-0.7,0.8c-0.2,0-0.3-0.1-0.4-0.2c-0.2-0.3-0.3-0.6-0.3-1c0-0.3,0.1-0.7,0.1-1
			c0.1-0.6,0.3-1.2,0.5-1.8c0.1-0.3,0.2-0.4,0.2-0.4s0,0,0,0.1c0,0.1,0,0.2-0.1,0.4c-0.1,0.3-0.3,0.9-0.5,1.8
			c-0.1,0.4-0.1,0.8,0.1,1.1c0.1,0.2,0.2,0.3,0.4,0.3c0.1,0,0.2,0,0.3-0.1l0.2-0.3c0-0.1,0.1-0.2,0.1-0.2S170,38.2,169.9,38.5"/>
		<path class="st0" d="M176.8,31c0,0.2-0.1,0.3-0.2,0.5c-0.1,0.3-0.2,0.4-0.3,0.4c-3.2,1.1-5.7,1.9-7.6,2.6
			c-3.6,1.2-6.1,2.2-7.6,2.9c0-0.2,0.1-0.4,0.2-0.6c0.1-0.2,0.2-0.3,0.4-0.4C166.1,34.6,171.1,32.8,176.8,31"/>
		<path class="st0" d="M147.9,24.8c0.1-0.6,0.1-0.9-0.3-0.9s-0.4,0.1-0.4,0.4S147.4,24.6,147.9,24.8 M148.8,25.1
			c0,0.1-0.1,0.2-0.1,0.3c-0.1,0.1-0.1,0.2-0.1,0.2c-0.2,0-0.5-0.1-0.7-0.2c-0.8,1-1.9,1.9-3.1,2.4c-0.1,0.1-0.4,0.2-1,0.4
			c-0.3,0.1-0.5,0.2-0.8,0.3c0.2-0.2,0.5-0.4,0.8-0.5c1.4-0.7,2.7-1.6,3.9-2.7c-0.6-0.3-0.9-0.6-0.9-0.9c0-0.3,0.2-0.6,0.4-0.8
			c0.2-0.2,0.4-0.4,0.7-0.5c0.3,0,0.4,0.3,0.4,0.9c0,0.2,0,0.5-0.1,0.7C148.5,25,148.8,25,148.8,25.1"/>
		<path class="st0" d="M167.7,23.6c0,0,0,0.2,0,0.5c0,0.1-0.1,0.1-0.1,0c-0.1-0.1-0.2-0.2-0.4-0.3c-0.2,0-0.3,0.1-0.3,0.5
			c0,0.5,0,1.2-0.1,1.9c0.1,0,0.2,0.1,0.4,0.3c0.1,0.1,0.2,0.2,0.3,0.4c0,0.1,0,0.2-0.1,0.3c0,0.1-0.1,0.2-0.1,0.2
			c-0.3,0-0.6,0.1-0.9,0.3c-0.3,0.1-0.5,0.3-0.5,0.4c0.5,3,0.8,4.6,0.8,4.8c0,0.3,0,0.3-0.1,0.3s0-0.1-0.1-0.2
			c-0.1-0.7-0.3-1.6-0.5-2.9c-0.2-0.7-0.3-1.4-0.3-2.1c0-0.3,0.1-0.7,0.3-0.9c0.2-0.2,0.4-0.4,0.6-0.4c-0.1-0.1-0.2-0.1-0.3-0.1
			c-0.1,0-0.2,0.1-0.2,0.2s-0.1,0.2-0.1,0.2s0,0,0-0.1c0-0.2,0-0.4,0.1-0.5c0.1-0.2,0.2-0.4,0.3-0.4c-0.1-0.2-0.1-0.4-0.3-0.6
			c-0.1-0.3-0.3-0.5-0.5-0.7c0,0.1,0,0.2-0.1,0.2c-0.2-0.1-0.3-0.1-0.4-0.3c-0.2-0.2-0.3-0.3-0.3-0.4c0-0.4,0.1-0.7,0.2-0.7
			c0.3,0,0.5,0.2,0.7,0.4c0.3,0.4,0.6,0.8,0.7,1.3l0,0c0-0.3,0-0.7,0-1.3s0.2-0.9,0.5-0.9C167.4,23.3,167.6,23.4,167.7,23.6"/>
		<path class="st0" d="M158.5,28.7c0,0-0.1-0.2-0.5-0.4c-0.2-0.1-0.3-0.2-0.5-0.3c0,0-0.1,0.1-0.2,0.3c-0.1,0.1-0.1,0.3-0.1,0.4
			c0,0.2,0.1,0.3,0.3,0.4c0,0,0.1,0,0.1,0c0.2,0,0.3-0.1,0.5-0.1C158.4,28.8,158.5,28.7,158.5,28.7 M158.9,28.3c0,1-0.4,1.5-1.3,1.5
			c-0.4,0-0.7-0.3-0.7-0.8c0-0.6,0.2-1.3,0.6-1.8c0.1-0.3,0.2-0.5,0.3-0.5s0.1,0,0,0.1c-0.1,0.1-0.1,0.2-0.1,0.4
			C158.5,27.7,158.9,28.1,158.9,28.3"/>
		<rect x="115.5" y="56.4" class="st0" width="70.9" height="0.6"/>
		<rect x="15.1" y="56.4" class="st0" width="70.9" height="0.6"/>
		<path class="st0" d="M91.4,55.2C91.3,54.6,91,54,90.2,54c-0.6,0-1,0.4-1,1c0,0.6,0.4,0.9,1.2,1.3s1.6,0.8,1.6,1.8
			c0,1-0.9,1.8-1.9,1.8c-0.1,0-0.1,0-0.2,0c-0.3,0-0.6,0-0.9-0.2c-0.2,0-0.3-0.1-0.5-0.2c-0.1-0.5-0.2-0.9-0.3-1.4l0.3-0.1
			c0.2,0.6,0.6,1.5,1.5,1.5c0.6,0,1-0.4,1.1-0.9c0,0,0-0.1,0-0.1c0-0.7-0.5-1-1.2-1.3s-1.5-0.8-1.5-1.8c0-1,0.8-1.7,1.8-1.7
			c0,0,0.1,0,0.1,0c0.4,0,0.8,0.1,1.2,0.2c0,0.3,0.1,0.7,0.2,1.3L91.4,55.2z"/>
		<path class="st0" d="M96.3,59.6v-0.3c0.6-0.1,0.7-0.2,0.5-0.5s-0.3-0.8-0.5-1.3h-2c-0.2,0.4-0.3,0.8-0.4,1.1
			c-0.2,0.5-0.1,0.7,0.6,0.7v0.3h-2v-0.3c0.6-0.1,0.7-0.2,1-1l1.9-4.7l0.3-0.1c0.6,1.6,1.2,3.2,1.8,4.8c0.3,0.8,0.4,0.9,1,1v0.3
			L96.3,59.6z M95.4,54.9L95.4,54.9c-0.3,0.8-0.6,1.5-0.9,2.2h1.7L95.4,54.9z"/>
		<path class="st0" d="M104.3,59.6v-0.3c0.7-0.1,0.8-0.1,0.8-1.1v-3.6l0,0l-2.3,4.9h-0.3l-2.1-4.8l0,0l-0.1,2.5c0,0.8,0,1.1,0,1.5
			s0.2,0.5,0.8,0.5v0.3H99v-0.3c0.5,0,0.7-0.2,0.8-0.5s0.1-0.7,0.2-1.7l0.1-1.8c0.1-1.2,0-1.2-0.8-1.3v-0.3h1.6l2.1,4.4l2.1-4.4h1.6
			v0.3c-0.8,0.1-0.9,0.1-0.8,1l0.1,3.2c0,1,0.1,1,0.9,1.1v0.3H104.3z"/>
		<path class="st0" d="M111.1,59.6v-0.3c0.6-0.1,0.7-0.2,0.5-0.5s-0.3-0.8-0.5-1.3h-2c-0.2,0.4-0.3,0.8-0.4,1.1
			c-0.2,0.5-0.1,0.7,0.6,0.7v0.3h-2v-0.3c0.6-0.1,0.7-0.2,1.1-1l1.9-4.7l0.3-0.1c0.6,1.6,1.2,3.2,1.8,4.8c0.3,0.8,0.4,0.9,1,1v0.3
			L111.1,59.6z M110.2,54.9L110.2,54.9l-0.9,2.2h1.7L110.2,54.9z"/>
		<path class="st0" d="M22.6,67.2c-0.4-1.4-1.1-3-2.9-3c-1.3-0.1-2.3,0.9-2.4,2.1c0,0.1,0,0.2,0,0.2c0,1.5,1,2.3,2.8,3.1
			c1.8,0.9,3.8,1.9,3.8,4.3s-2,4.2-5,4.2c-0.8,0-1.5-0.1-2.2-0.3c-0.4-0.1-0.7-0.3-1.1-0.4c-0.3-1.1-0.5-2.3-0.6-3.4l0.7-0.2
			c0.3,1.4,1.5,3.6,3.7,3.6c1.3,0.1,2.4-0.8,2.6-2.1c0-0.1,0-0.3,0-0.4c0-1.6-1.2-2.3-2.9-3.2c-1.5-0.8-3.6-1.8-3.6-4.2
			c0-2.2,1.8-3.9,4.6-3.9c1,0,1.9,0.2,2.9,0.5c0.1,0.8,0.2,1.7,0.4,3.1L22.6,67.2z"/>
		<path class="st0" d="M32.5,78.1c-0.4,0-0.8-0.2-1.1-0.4c-0.3-0.2-0.4-0.6-0.5-0.9c-0.7,0.6-1.6,1.1-2.5,1.3
			c-1.5,0-2.7-1.1-2.7-2.6c0,0,0,0,0,0c0-1.1,0.6-1.7,1.8-2.1c1.2-0.3,2.3-0.8,3.4-1.4v-0.4c0-1.6-0.7-2.4-1.8-2.4
			c-0.4,0-0.7,0.1-0.9,0.4c-0.3,0.4-0.6,0.9-0.7,1.5c-0.1,0.3-0.4,0.5-0.7,0.5c-0.5,0-1-0.5-1-1c0-0.3,0.3-0.6,0.7-0.9
			c1-0.7,2.2-1.2,3.4-1.5c0.7,0,1.3,0.2,1.8,0.6c0.8,0.7,1.2,1.7,1,2.7v3.9c0,1,0.4,1.3,0.8,1.3c0.3,0,0.5-0.1,0.8-0.2l0.2,0.6
			L32.5,78.1z M30.7,72.7c-0.4,0.2-1.3,0.6-1.8,0.8c-0.9,0.4-1.3,0.8-1.3,1.6c-0.1,0.8,0.6,1.6,1.4,1.6c0,0,0,0,0.1,0
			c0.6,0,1.2-0.3,1.6-0.7V72.7z"/>
		<path class="st0" d="M45.7,77.3c-0.6,0.1-1.2,0.2-1.7,0.3l-1.7,0.4L42.2,78v-1.5c-0.5,0.4-1,0.8-1.5,1.1c-0.5,0.3-1.1,0.5-1.8,0.6
			c-1.5,0-2.8-0.9-2.8-3.2v-4.1c0-1.2-0.2-1.3-0.7-1.4l-0.6-0.2v-0.5c0.5,0,1-0.1,1.7-0.2c0.7-0.1,1.3-0.2,1.6-0.2
			C38,69,38,70,38,71.4v2.9c0,1.8,0.9,2.4,1.9,2.4c0.9,0,1.7-0.4,2.3-1v-5c0-1.2-0.2-1.3-0.9-1.4l-0.8-0.1v-0.5
			c0.6,0,1.4-0.1,2.1-0.2c0.5,0,1-0.1,1.5-0.2v7.1c0,1.1,0.2,1.3,1,1.3h0.6L45.7,77.3z"/>
		<path class="st0" d="M58,77.3c-1.2,0.2-2.4,0.5-3.6,0.8v-1.4l-1.3,0.8c-0.5,0.3-1.1,0.5-1.7,0.6C49,78,47.1,76,47.3,73.5
			c0,0,0,0,0,0c0.1-3,2.7-5.4,5.7-5.3c0.5,0,1,0.1,1.4,0.2v-3c0-1.4-0.1-1.5-1.7-1.6v-0.6c1.2-0.1,2.4-0.4,3.6-0.8v12.8
			c0,1.2,0.2,1.3,1,1.4h0.6L58,77.3z M54.4,70.1C53.9,69.4,53,69,52.2,69c-0.9,0-2.8,0.8-2.8,3.9c0,2.6,1.6,3.8,3,3.8
			c0.7,0,1.4-0.3,2-0.7L54.4,70.1z"/>
		<path class="st0" d="M58.8,77.8v-0.6c1.4-0.1,1.5-0.3,1.5-1.8v-4.3c0-1.4-0.1-1.5-1.4-1.7V69c1.1-0.2,2.2-0.4,3.3-0.8v7.4
			c0,1.5,0.2,1.6,1.5,1.8v0.5H58.8z M60,65.2c0-0.7,0.5-1.2,1.2-1.2c0,0,0,0,0,0c0.6,0,1.2,0.5,1.2,1.1c0,0,0,0,0,0.1
			c0,0.6-0.5,1.2-1.2,1.2c0,0,0,0,0,0C60.5,66.3,60,65.8,60,65.2z"/>
		<path class="st0" d="M81.5,74.2c-0.3,1.2-0.8,2.3-1.3,3.4c-1.4,0.3-2.8,0.6-4.3,0.6c-5.7,0-8.2-3.8-8.2-7.2c0-4.6,3.7-7.5,8.8-7.5
			c1.4,0.1,2.8,0.3,4.1,0.6c0.2,1.2,0.3,2.2,0.5,3.4l-0.7,0.2c-0.6-2.4-2.1-3.3-4.5-3.3c-3.8,0-5.8,3.1-5.8,6.3c0,4.1,2.5,6.8,6,6.8
			c2.3,0,3.6-1.2,4.7-3.5L81.5,74.2z"/>
		<path class="st0" d="M91.2,75.9c-0.9,1.2-2.2,2-3.7,2.2c-2.4,0-4.3-1.9-4.3-4.3c0-0.1,0-0.2,0-0.3c0-1.4,0.5-2.7,1.4-3.7
			c0.8-1,2-1.6,3.3-1.7l0,0c1.8,0,3.3,1.5,3.4,3.3c0,0.4-0.1,0.6-0.5,0.7s-3.1,0.3-5.7,0.4c0,2.8,1.7,4,3.2,4c1,0,1.9-0.4,2.5-1.1
			L91.2,75.9z M87.4,68.9c-1,0-1.9,0.8-2.2,2.7c1.2,0,2.3,0,3.6,0c0.4,0,0.5-0.1,0.5-0.4C89.3,70.1,88.5,69.1,87.4,68.9
			C87.4,69,87.4,69,87.4,68.9L87.4,68.9z"/>
		<path class="st0" d="M99.3,77.8v-0.6c1.3-0.1,1.4-0.3,1.4-1.8v-3.5c0-1.5-0.6-2.4-1.9-2.4c-0.9,0.1-1.7,0.5-2.3,1.1v5
			c0,1.5,0.1,1.6,1.4,1.7v0.5H93v-0.6c1.5-0.2,1.6-0.3,1.6-1.7v-4.3c0-1.4-0.1-1.5-1.3-1.7V69c1.1-0.2,2.2-0.4,3.2-0.9v1.7
			c0.4-0.3,0.9-0.7,1.5-1c0.5-0.4,1.2-0.6,1.8-0.6c1.7,0,2.8,1.2,2.8,3.4v4c0,1.5,0.1,1.5,1.4,1.7v0.6H99.3z"/>
		<path class="st0" d="M109.7,77.8c-0.3,0.2-0.6,0.3-0.9,0.3c-1.5,0-2.3-0.8-2.3-2.6v-6.2H105l-0.1-0.3l0.6-0.7h1v-1.6l1.6-1.5
			l0.3,0v3h2.5c0.2,0.3,0.1,0.7-0.1,0.9c0,0,0,0,0,0h-2.3v5.6c0,1.8,0.8,2,1.3,2c0.5,0,0.9-0.1,1.3-0.4l0.2,0.6L109.7,77.8z"/>
		<path class="st0" d="M116.8,70.5c0.7-1.2,1.6-2.3,2.6-2.3c0.7,0,1.3,0.4,1.3,1.1c0,0.5-0.3,1-0.8,1.2c-0.2,0.1-0.4,0.1-0.6-0.1
			c-0.3-0.3-0.6-0.4-1-0.4c-0.6,0-1.2,0.6-1.7,1.8v3.9c0,1.4,0.1,1.6,1.8,1.7v0.5h-5.2v-0.6c1.3-0.1,1.5-0.3,1.5-1.7v-4.4
			c0-1.4-0.1-1.5-1.3-1.6V69c1.1-0.2,2.2-0.5,3.3-0.9L116.8,70.5L116.8,70.5z"/>
		<path class="st0" d="M129.2,78.1c-0.4,0-0.8-0.2-1.1-0.4c-0.3-0.3-0.4-0.6-0.5-0.9c-0.8,0.6-1.6,1.1-2.6,1.3
			c-1.5,0-2.7-1.1-2.7-2.6c0,0,0,0,0,0c0-1.1,0.6-1.7,1.8-2.1c1.2-0.3,2.3-0.8,3.4-1.4v-0.4c0-1.6-0.7-2.4-1.8-2.4
			c-0.3,0-0.7,0.1-0.9,0.4c-0.3,0.4-0.6,0.9-0.7,1.5c-0.1,0.3-0.4,0.5-0.7,0.5c-0.5,0-1-0.5-1-1c0-0.3,0.3-0.6,0.7-0.9
			c1-0.7,2.1-1.2,3.3-1.5c0.7,0,1.3,0.2,1.8,0.6c0.7,0.7,1.1,1.7,1,2.7v3.9c0,1,0.4,1.3,0.8,1.3c0.3,0,0.5-0.1,0.8-0.2l0.2,0.6
			L129.2,78.1z M127.5,72.7l-1.8,0.8c-0.9,0.4-1.3,0.8-1.3,1.6c-0.1,0.8,0.6,1.6,1.4,1.6c0,0,0,0,0.1,0c0.6,0,1.2-0.3,1.6-0.7V72.7z
			"/>
		<path class="st0" d="M131.3,77.8v-0.6c1.4-0.2,1.6-0.3,1.6-1.7V65.4c0-1.5-0.1-1.5-1.5-1.6v-0.5c1.2-0.2,2.3-0.4,3.4-0.8v13.1
			c0,1.5,0.2,1.6,1.6,1.7v0.5H131.3z"/>
		<path class="st0" d="M148.1,70.3c2.3,0.3,4,1.2,4,3.4c0,1.4-0.8,2.7-2.1,3.3c-1.4,0.6-2.9,0.9-4.4,0.9h-5.1v-0.6
			c1.9-0.1,2-0.3,2-2.1v-8.6c0-1.8-0.1-2-1.8-2.1v-0.6h5.9c1.2-0.1,2.4,0.2,3.4,0.8c0.8,0.6,1.3,1.5,1.2,2.5
			C151.1,69.1,149.3,69.9,148.1,70.3L148.1,70.3z M145.5,70c2.4,0,3.4-0.9,3.4-2.7c0.1-1.4-0.9-2.7-2.4-2.8c-0.2,0-0.4,0-0.6,0
			c-0.4,0-0.8,0.1-1.2,0.3c-0.2,0.1-0.3,0.4-0.3,1.1V70H145.5z M144.5,75.1c0,1.6,0.4,2,1.8,2c1.7,0,3.3-0.9,3.3-3.2
			s-1.5-3.1-4.2-3.1h-0.9L144.5,75.1z"/>
		<path class="st0" d="M160.8,78.1c-0.4,0-0.8-0.2-1.1-0.4c-0.3-0.2-0.4-0.6-0.5-0.9c-0.8,0.6-1.6,1.1-2.6,1.3
			c-1.5,0-2.7-1.1-2.7-2.6c0,0,0,0,0,0c0-1.1,0.6-1.7,1.8-2.1c1.2-0.3,2.3-0.8,3.4-1.4v-0.4c0-1.6-0.7-2.4-1.8-2.4
			c-0.3,0-0.7,0.1-0.9,0.4c-0.3,0.4-0.6,0.9-0.7,1.5c-0.1,0.3-0.4,0.5-0.7,0.5c-0.5,0-1-0.5-1-1c0-0.3,0.3-0.6,0.7-0.9
			c1-0.7,2.2-1.2,3.4-1.5c0.7,0,1.3,0.2,1.8,0.6c0.8,0.7,1.2,1.7,1,2.8v3.9c0,1,0.4,1.3,0.8,1.3c0.3,0,0.5-0.1,0.8-0.2l0.2,0.6
			L160.8,78.1z M159.1,72.7c-0.4,0.2-1.3,0.6-1.8,0.8c-0.9,0.4-1.3,0.8-1.3,1.6c-0.1,0.8,0.6,1.6,1.4,1.6c0,0,0,0,0.1,0
			c0.6,0,1.2-0.3,1.6-0.7V72.7z"/>
		<path class="st0" d="M169.7,77.8v-0.6c1.3-0.1,1.4-0.3,1.4-1.8v-3.5c0-1.5-0.6-2.4-2-2.4c-0.9,0.1-1.7,0.5-2.3,1.1v5
			c0,1.5,0.1,1.6,1.4,1.7v0.5h-4.9v-0.6c1.5-0.2,1.6-0.3,1.6-1.7v-4.3c0-1.4-0.1-1.5-1.3-1.7V69c1.1-0.2,2.2-0.4,3.2-0.9v1.7
			c0.4-0.3,0.9-0.7,1.5-1c0.5-0.4,1.2-0.6,1.8-0.6c1.7,0,2.9,1.2,2.9,3.4v4c0,1.5,0.1,1.5,1.4,1.7v0.6H169.7z"/>
		<path class="st0" d="M183.3,77.9c-1-1.1-2.4-2.9-3.5-4.3c-0.3-0.3-0.4-0.4-0.6-0.4c-0.1,0-0.2,0-0.3,0v2.3c0,1.4,0.2,1.5,1.6,1.7
			v0.6h-5.1v-0.6c1.5-0.2,1.6-0.3,1.6-1.7V65.4c0-1.4-0.1-1.5-1.5-1.6v-0.5c1.1-0.2,2.3-0.4,3.3-0.8v10.2c0.5-0.1,1-0.4,1.4-0.8
			c0.6-0.6,1.1-1.2,1.5-1.9c0.4-0.7,0.4-0.8-0.6-1v-0.6l4.6-0.2v0.5c-1.1,0-2.1,0.5-2.9,1.3c-0.7,0.6-1.3,1.3-1.9,2
			c0.5,0.7,2.7,3.3,3.4,4c0.5,0.7,1.3,1.1,2.2,1.2v0.6L183.3,77.9z"/>
		<path class="st0" d="M232.5,58.5c-0.7,0.6-1.4,1.1-2.2,1.5l0.6,0.6v0.7c-0.6,0.2-1.4,0.4-1.8,1c-0.4,0.9-0.5,1.9-0.4,2.8h3.8
			C232.5,63,232.4,60.7,232.5,58.5z M230.9,64h-0.8c0-1,0.8-1,0.8-1V64z"/>
		<path class="st0" d="M252.7,62.9c-0.4-0.7-1-1.6-1.9-1.6c-0.7,0-1.4,0.4-1.7,1c-0.5,0.9-0.7,1.9-0.5,2.9c0.7,0.2,1.5,0,2.3,0.1
			c-0.3,1.2-1.7,1.4-2.7,1.3l0.1,0.4c0.6,0.2,1.2,0.4,1.8,0.5c1.8-0.1,3.2-1.7,3.1-3.5C252.9,63.7,252.8,63.3,252.7,62.9z
			 M250.6,64.1c-0.4,0-0.7-0.3-0.7-0.7s0.3-0.7,0.7-0.7s0.7,0.3,0.7,0.7c0,0,0,0,0,0C251.3,63.8,250.9,64.1,250.6,64.1z"/>
		<path class="st0" d="M242.7,59.8h-1.6l3.5,3.9h-3.2l0,0c0-0.1,0-0.3,0-0.4c0,0,0,0.1,0,0.1v-0.2l0,0c0-0.1,0-0.1,0-0.2
			c-0.1-0.9-0.9-1.6-1.9-1.6h-4l-0.7-0.6c-0.5,0.8-1,1.5-1.5,2.2h6.2v0.6h-6.2v1.6h1.1c3.4,0,8,0,11.5,0l0.5,0.5h1.6l-4.8-5.7
			C243.2,59.9,243,59.8,242.7,59.8z"/>
		<path class="st0" d="M252.3,41.6c-0.2-0.3-0.3-0.6-0.6-0.9c0.2-0.4,0.6-0.7,0.6-1.2c0-0.3,0-0.5,0-0.8c0-0.9,0-1.8,0-2.8
			c0-0.3,0-0.5,0-0.8l0.3-0.1l0.2-0.1h0.1l0.1-0.1c-0.2-0.2-0.4-0.3-0.6-0.5c-0.2-0.2-0.3-0.3-0.5-0.5s-0.2-0.3-0.4-0.4l-0.3-0.3
			c-0.2-0.2-0.3-0.4-0.5-0.5c0,0.7,0,1.4,0,2.1v2.9c0,0.4,0,0.8,0,1.2c0,0.3-0.1,0.6-0.2,0.9h-0.8c-0.1-0.3-0.2-0.6-0.2-0.9
			c0-0.4,0-0.8,0-1.2c0-0.5,0-1.1,0-1.6v-1.2c0-0.7,0-1.4,0-2.1c-0.2,0.2-0.4,0.4-0.5,0.5c-0.1,0.1-0.2,0.2-0.3,0.3l-0.3,0.4
			c-0.2,0.2-0.3,0.3-0.5,0.5c-0.2,0.2-0.4,0.4-0.6,0.5l0.1,0.1l0,0l0.2,0.1l0.3,0.1c0,0.3,0,0.5,0,0.8c0,0.9,0,1.8,0,2.8v0.8
			c-0.1,0.5,0.4,0.8,0.6,1.2c-0.2,0.3-0.4,0.6-0.6,0.9c-0.1,0.9,0,1.8-0.1,2.7h4.4C252.3,43.4,252.4,42.5,252.3,41.6z M250.8,42.8
			h-1.2V42l0.3-0.4h0.6l0.3,0.4V42.8z"/>
		<path class="st0" d="M245.3,36.1c-0.1-0.6,0.5-0.9,0.8-1.3c-0.6-0.3-1.1-0.7-1.5-1.2c-0.2-0.4-0.5-0.7-0.9-1c0,3.9,0,7.8,0,11.6
			h1.6C245.3,41.6,245.2,38.8,245.3,36.1z"/>
		<path class="st0" d="M242.1,44.3c0.1-2.7,0-5.8,0-8.5c-0.1-0.5,0.4-0.8,0.7-1.1c-1-0.5-1.4-1.5-2.3-2.1c0,3.4,0,6.7,0,10.1
			c-2.7,0-5.4,0-8,0c0-1.8,0-3.5,0-5.3c-0.7,0.6-1.5,1.1-2.3,1.5c0.2,0.2,0.4,0.4,0.7,0.6c0,0.3,0,0.5-0.1,0.8
			c-0.6,0.2-1.2,0.5-1.7,1c-0.6,0.7-0.4,2-0.4,3L242.1,44.3z M230.1,42.7L230.1,42.7c0.1-0.8,0.8-0.8,0.8-0.8v1h-0.8
			C230.1,42.8,230.1,42.8,230.1,42.7L230.1,42.7z"/>
		<path class="st0" d="M249.3,54.6c-0.2-0.3-0.3-0.6-0.6-0.8c0.2-0.4,0.6-0.7,0.6-1.2c0-0.3,0-0.5,0-0.8c0-0.9,0-1.8,0-2.7
			c0-0.3,0-0.5,0-0.8l0.3-0.1l0.2-0.1l0,0l0.1-0.1c-0.2-0.2-0.4-0.3-0.6-0.5c-0.2-0.2-0.3-0.3-0.5-0.5s-0.2-0.3-0.4-0.4l-0.3-0.3
			c-0.2-0.2-0.3-0.4-0.5-0.5c0,0.7,0,1.4,0,2.1c0,0.4,0,0.8,0,1.2v1.6c0,0.4,0,0.8,0,1.2c0,0.3-0.1,0.6-0.2,0.9h-0.8
			c-0.1-0.3-0.2-0.6-0.2-0.9c0-0.4,0-0.8,0-1.2V49c0-0.4,0-0.8,0-1.2c0-0.7,0-1.4,0-2.1c-0.2,0.2-0.4,0.3-0.5,0.5l-0.3,0.3
			c-0.1,0.1-0.2,0.3-0.4,0.4s-0.3,0.3-0.5,0.5c-0.2,0.2-0.4,0.4-0.6,0.5l0.1,0.1l0,0l0.2,0.1l0.3,0.1c0,0.3,0,0.5,0,0.8
			c0,0.9,0,1.8,0,2.7c0,0.3,0,0.5,0,0.8c0,0.5,0.4,0.8,0.6,1.2c-0.2,0.3-0.4,0.5-0.6,0.8c-0.1,0.9,0,1.8-0.1,2.7h4.4
			C249.3,56.4,249.4,55.5,249.3,54.6z M247.8,55.8h-1.2V55l0.3-0.4h0.6l0.3,0.4V55.8z"/>
		<path class="st0" d="M242.2,49.1c-0.1-0.5,0.4-0.7,0.7-1c0-0.1,0.1-0.2,0.1-0.3c-1.2-0.3-1.5-1.6-2.5-2.1c0,3.8,0.1,7.7,0,11.6
			h1.6C242.3,54.5,242.3,51.8,242.2,49.1z"/>
		<path class="st0" d="M252.2,49.1c-0.1-0.6,0.5-0.9,0.8-1.3c-0.6-0.3-1.1-0.7-1.5-1.2c-0.2-0.4-0.5-0.7-0.9-1c0,3.9,0,7.8,0,11.7
			h1.6C252.2,54.6,252.2,51.8,252.2,49.1z"/>
		<path class="st0" d="M238.4,46.6c-0.2-0.4-0.5-0.8-0.9-1.1c0,0.4-0.1,0.7-0.1,1.1c0.1,3,0,6.1,0,9.1c-0.7,0-1.4,0-2.1,0
			c0-2.3,0-4.5,0-6.8c-0.1-0.5,0.4-0.8,0.7-1.1c-0.8-0.6-1.6-1.4-2.3-2.2c0.1,3.4,0,6.7,0,10.1h-1.3c0-1.8,0-3.5,0-5.3
			c-0.7,0.6-1.4,1.1-2.2,1.5c0.5,0.3,0.7,0.9,0.6,1.5c-0.7,0.1-1.3,0.5-1.8,1c-0.4,0.9-0.5,1.9-0.4,2.8h10.4c0-2.2-0.1-4.3,0-6.5
			c-0.1-0.7,0-1.5,0.1-2.3c0.2-0.3,0.4-0.6,0.7-0.8C239.3,47.5,238.8,47.1,238.4,46.6z M231,55.9h-0.8c0-1,0.8-1,0.8-1V55.9z"/>
		<path class="st0" d="M206.4,34.4c1.6-3.7,3.7-7.1,6.3-10.1c0.4,0.2,0.8,0.6,1.2,1c-0.7,0.7-1.3,1.5-1.8,2.3
			c-0.9,1.3-1.8,2.6-2.6,3.9c-0.4,0.8-0.8,1.6-1.2,2.4c0.5,0.3,1.3,0.6,1.6-0.1c1.1-2.2,2.4-4.3,4-6.2c0.3-0.5,0.6-0.9,1.1-1.2
			c0.2,0.9,0.5,1.7,0.9,2.5c-0.5,0.1-1-0.2-1.4,0.2c-1.4,1.9-2.6,3.9-3.7,6c-0.3,0.6-0.9,0.9-1.6,0.7
			C208.3,35.6,207.4,34.8,206.4,34.4z"/>
		<path class="st0" d="M227.2,14.2c0.7-0.3,1.5-0.6,2.3-0.9c0.8,1.3,0,2.6-0.5,3.8c1.2,1,2.9,1.6,3.5,3.2c0.6,1.5-0.7,2.6-1.1,4
			c-1.9-1.5-3.9-2.8-5.8-4.2c-0.4-0.4-0.9,0.3-1.3,0.3c-0.4-0.2-0.7-0.5-1-0.9l-0.3,0.1c0.8-0.6,1.6-1.1,2.5-1.5
			c0.9,0.3,1.4,1.2,2.2,1.6c1.1,0.6,2,1.8,3.3,1.8c-0.1-0.6-0.3-1.1-0.6-1.6c-1.1-0.9-2.2-1.7-3.4-2.4c0.3-0.7,0.8-1.3,0.9-2.1
			c-1.6,0.7-3.2,1.4-4.6,2.3c-1.3,0.7-2.4,1.6-3.6,2.4c-0.5,0.3-0.9,0.8-1.3,1.1c-1,0.7-1.7,1.6-2.6,2.3c-0.2-0.5-0.8-1-0.6-1.5
			C218.6,18.8,222.7,16.1,227.2,14.2L227.2,14.2z"/>
		<path class="st0" d="M225.2,73.1c0.4-0.5,0.6-1.4,1.2-1.7c0.3,1,0.4,2.2,0.8,3.2c-0.4,0.1-0.9,0.3-1.2,0.5
			c-1.3,2.1-2.6,4.1-3.9,6.2c-0.4,0.1-0.9-0.3-1.3-0.4s-0.1-0.6,0.1-0.8c0.7-1,1.4-2.1,2-3.2C223.7,75.6,224.3,74.2,225.2,73.1z"/>
		<path class="st0" d="M223.4,68.8l-0.3,0c-1.6,2.7-3.4,5.2-5,7.9c-0.4,0.1-0.6-0.2-0.9-0.4c-1.1-1-2.2-2-3.1-3.1
			c1-0.9,2-1.7,3.1-2.5c-0.6-0.4-1.2-0.7-1.7-1.1c-0.4,1.1-1.6,1.6-2.4,2.4c-0.9-1-1.7-2.2-2.4-3.4c1.1-0.6,2.1-1.4,3.3-1.9v-0.3
			c-0.4-0.4-0.9-0.8-1.4-1.2c-0.7,0.9-1.7,1.6-2.8,2c-0.7-1-1-2.2-1.7-3.2l0.2-0.3c1.2-0.4,2.4-1,3.6-1.5c-0.5-0.4-1-0.9-1.4-1.5
			c-0.7,1-1.9,1.3-3,1.7c-1.1-2.8-1.9-5.7-2.2-8.6c1.4,0.3,2.5,1.1,3.8,1.6c-0.1-0.6-0.1-1.3-0.2-1.9c-0.8-0.3-1.7-0.7-2.6-0.9
			c0.8-0.4,1.6-0.8,2.5-1.1c0-0.7-0.1-1.4-0.1-2.1c-0.7,0.3-1.1,0.9-1.8,1.3l-1.8,1c-0.1-1.2-0.2-2.5-0.1-3.7
			c0.1-1.9,0.3-3.7,0.6-5.5c1,0.1,2-0.1,2.9-0.7c0.6-0.5,1.2-0.9,1.8-1.4l-0.9-0.1c-0.2-0.8-0.7-1.6-1.3-2.1
			c-0.5-0.4-1.1-0.5-1.8-0.4c-0.3,0-0.5,0.2-0.8,0.4c-0.6,0.5-0.9,1.2-0.9,2l-0.1,0c-0.5-0.1-0.9-0.5-1.2-0.9
			c-0.5-0.8-0.1-1.8-0.1-2.7c-1,0.8-1.4,2.2-1,3.4c0.3,0.9,1.1,1.5,1.9,2c-2.9,14.2,2.7,28.9,14.4,37.5l0.2-0.3l0,0
			c0,0,0.1-0.1,0.1-0.1c0.1-0.2,0.2-0.3,0.3-0.5c1.3-2,2.6-4.1,3.9-6.1c0.3-0.4,0.8-0.4,1.1-0.5C223.8,70.7,223.6,69.8,223.4,68.8z
			 M206.8,38.9c0.6,0,1,0.4,1,1s-0.4,1-1,1s-1-0.4-1-1C205.8,39.4,206.3,38.9,206.8,38.9C206.8,38.9,206.8,38.9,206.8,38.9
			L206.8,38.9z"/>
		<path class="st0" d="M266.4,55.8c0.7-0.7,1.4-1.3,2-2c0.5,0.2,1,0.7,1.6,0.7c2.6,0,5.3,0.3,7.9,0.3c-0.2,2-0.7,4.1-1.4,6
			c0.5,0.5,1,1,1,1.7c0.1,0.9-0.2,1.8-0.9,2.4c-0.6,0.4-1.3,0.6-2,0.7c-0.5,1.1-1.1,2.2-1.7,3.3c0.7,0.7,1.8,1.2,1.9,2.3
			c0.2,0.9-0.3,1.9-1.2,2.2c0-0.5,0-1.1,0-1.6c-0.9-0.8-1.9-1.5-3-2c-0.5-0.2-1.1-0.3-1.6-0.3c0-0.9,0-1.8-0.1-2.6
			c0.8,0.5,1.6,0.9,2.5,1.3c0.7-1,1.3-2,1.9-3.1c-1-1-1.1-2.5-0.3-3.7c0.5-0.7,1.4-1.2,2.3-1.2c0.4-1.2,0.7-2.5,1-3.8
			c-1.6-0.2-3.2-0.4-4.8-0.5C269.7,55.8,268.1,55.8,266.4,55.8z M273.9,62.4c-0.5,0.7,0.1,1.3,0.7,1.7c0.4-0.1,0.9-0.1,1.2-0.4
			c0.4-0.5,0.4-1.2,0-1.6c-0.5-0.4-1.2-0.4-1.6,0C274.1,62.2,274,62.3,273.9,62.4z"/>
		<path class="st0" d="M229,76.3c0.6-1.3,2.2-1.2,3.3-1.9c0.1,0.9,0.4,1.8,0.6,2.7c0.5,1.5,0.7,3.1,1.2,4.5c0.3,0.1,0.9-0.1,1.1,0.3
			c0.1,0.4,0.2,0.9,0.3,1.4c-1-0.1-1.9-0.3-2.8-0.5c-0.3-2.1-0.8-4.2-1.6-6.1h-0.5c-0.6,1.2-0.2,2.5,0.1,3.7c0.2,0.7,0.4,1.4,0.6,2
			c-0.6,0.1-1.2,0.3-1.8,0.6v0.3c2.3,0.8,4.6,1.3,7,1.6c2.5,0.3,5,0.3,7.5,0.1c-0.1,0.5-0.3,1.1-0.4,1.6c-2.8,0.2-5.7,0.1-8.5-0.3
			c-2.9-0.4-5.8-1.2-8.5-2.3c0.2-1.4,1.7-2,2.8-2.7C229.1,79.6,228.3,77.8,229,76.3z"/>
		<path class="st0" d="M266.9,52.5c0.8-0.8,1.7-1.6,2.6-2.3c0.4,0.2,0.7,0.7,1.2,0.8c2.5,0.1,5.1,0.1,7.6,0.3c0,0.5,0,1-0.1,1.5
			C274.4,52.7,270.7,52.6,266.9,52.5z"/>
		<path class="st0" d="M266.2,71c0.8-0.4,1.7-0.3,2.3,0.3c0.6,0.4,1.2,1,1.5,1.6c-1.2,1.5-2.6,3-4,4.3c-2.4,2.1-5,3.9-7.8,5.4
			c-1.6,0.8-3.3,1.5-5,2.1c-1.5,0.5-3.1,0.9-4.7,1.2c0.1,0.9,0.4,1.9-0.2,2.7c-0.5,0.4-1.2,0.6-1.9,0.5c0.3-0.2,0.5-0.5,0.6-0.8
			c0-1-0.1-1.9-0.4-2.9c-0.2-0.7-0.6-1.3-1.1-1.8c0.7-0.5,1.3-1.1,1.9-1.8c0.3,0.9,0.5,1.8,0.7,2.7c2.1-0.5,4.2-1.1,6.3-1.9
			c4.6-1.9,8.7-4.7,12.2-8.3c0.4-0.5,0.9-1,1.5-1.4c-0.4-0.3-0.8-0.8-1.4-0.6c-0.4,0.3-0.8,0.7-1.2,1.1c-2.3,2.4-5,4.4-7.9,6.1
			c-0.9,0.4-1.8,0.9-2.7,1.3c-1.1,0.5-2.3,0.8-3.4,1.3c-0.3,0.1-0.6,0.2-0.9,0.2c0.8-1,1.2-2.2,1.9-3.3c0.5-0.8,0.8-1.7,1.3-2.5
			c-0.2,1.2-0.5,2.5-1,3.6c4-1.5,7.7-3.9,10.8-6.9C264.6,72.5,265.1,71.4,266.2,71z"/>
		<circle class="st0" cx="245.7" cy="79.2" r="0.9"/>
		<path class="st0" d="M252.1,13.4c0.6,0.1,1.1,0.3,1.6,0.5c-0.6,2.2-1.4,4.3-2,6.4c-0.3,1.4-1,2.7-1.3,4.1c-0.6-1-1.1-2-1.6-3
			c0.4-0.3,0.9-0.6,1.1-1.1c0.4-0.8,0.5-1.7,0.8-2.6C251.2,16.4,251.7,14.9,252.1,13.4z"/>
		<path class="st0" d="M255.5,14.6c1.1,0.4,2.1,0.8,3.1,1.4c5.4,2.9,9.9,7,13.3,12c0.9,1.1,1.4,2.4,2.2,3.5c1.1,2.1,2,4.3,2.6,6.5
			c1,3.2,1.6,6.6,1.6,9.9c-0.7,0-1.5,0-2.2,0.1c0.3-0.5,0.5-1.1,0.5-1.6c0-2.3-0.4-4.6-1-6.9c-0.5-1.2-0.8-2.4-1.2-3.6
			c-1.2-3.1-2.9-6-4.9-8.6l-0.3-0.1c-0.2,0.3-0.5,0.6-0.6,1c0,0.5,0.4,0.9,0.7,1.3c1.8,2.6,3.3,5.5,4.3,8.5c0.9,2.7,1.5,5.4,1.7,8.2
			c-0.9-0.6-1.6-1.5-2.5-2.2c-0.7-0.5-1.3-1.1-2-1.6c-0.2-0.2-0.4-0.3-0.5-0.5c1.2,0.4,2.4,1,3.4,1.8c-0.4-2.2-1-4.4-1.8-6.4
			c-0.6-1.6-1.3-3.2-2.2-4.6c-0.7-1.2-1.6-2.3-2.2-3.5c-0.4-1.1,0.1-2.3,1.1-2.9c-0.7-0.9-1.4-1.8-2.3-2.5c-0.6,1-2.1,1.6-1.9,3
			c-0.7-0.3-1.5-0.5-2.3-0.7c1-1.2,2-2.3,3-3.5c-1.2-1-2.4-2-3.6-2.8c-0.7,1-1.8,1.9-1.6,3.3c-0.7-0.3-1.4-0.5-2.1-0.6
			c0.7-1.3,1.7-2.4,2.5-3.6c-1.2-0.7-2.4-1.4-3.7-2c-0.4,1.7-1.1,3.4-1.5,5.1c-0.3,1.4-0.9,2.8-1.2,4.2h-0.3
			c-0.3-0.9-1.1-1.6-1.3-2.6c0.3-0.1,0.5-0.2,0.8-0.3c0.4-0.9,0.7-1.8,0.8-2.8C254.5,18.6,255,16.6,255.5,14.6z"/>
		<circle class="st0" cx="263.1" cy="16.3" r="0.9"/>
		<circle class="st0" cx="261.5" cy="28.4" r="0.9"/>
		<path class="st0" d="M246.3,6.2L245.1,6c-1.4-0.1-2.8-0.2-4.2-0.2S238,5.9,236.6,6l-1.3,0.1c-24.2,3-41.4,25.1-38.3,49.3
			s25.1,41.4,49.3,38.3s41.4-25.1,38.3-49.3C282.1,24.5,266.4,8.7,246.3,6.2L246.3,6.2z M240.8,7.1c1.4,0,2.8,0.1,4.2,0.2
			c-0.3,2.1-2.1,3.7-4.2,3.7c-2.1,0-4-1.6-4.2-3.7C238,7.2,239.4,7.1,240.8,7.1z M236.7,27.4c2.7-0.5,5.5-0.5,8.3,0
			c0.4,0.1,0.8,0.2,1.2,0.3c12.4,3,20,15.4,17,27.7c-3,12.4-15.4,20-27.7,17c-12.4-3-20-15.4-17-27.7c2-8.4,8.6-15,17-17
			C235.9,27.6,236.3,27.5,236.7,27.4z M240.8,25.8c-1.4,0-2.9,0.1-4.3,0.4c0.1-2.4,2.1-4.2,4.5-4.1c2.2,0.1,4,1.9,4.1,4.1
			C243.7,25.9,242.3,25.8,240.8,25.8z M236.5,16.5c0-2.4,1.9-4.3,4.3-4.3c2.4,0,4.3,1.9,4.3,4.3s-1.9,4.3-4.3,4.3c0,0,0,0,0,0
			C238.5,20.8,236.5,18.9,236.5,16.5z M240.8,92.9c-23.7,0-42.9-19.3-42.8-43c0-21.5,16-39.7,37.4-42.5c0.2,1.8,1.4,3.4,3,4.2
			c-2.7,1.4-3.8,4.7-2.4,7.4c0.5,1,1.4,1.9,2.4,2.4c-1.8,0.9-3,2.8-3,4.9l0,0c-13,3-21.1,16.1-18.1,29.1s16.1,21.1,29.1,18.1
			c13-3,21.1-16.1,18.1-29.1c-2.1-9-9.1-16-18.1-18.1l0,0c0-2.1-1.2-4-3-4.9c2.7-1.4,3.8-4.7,2.4-7.4c-0.5-1-1.4-1.9-2.4-2.4
			c1.6-0.8,2.8-2.4,3-4.2c23.5,3.1,40.1,24.6,37,48.1C280.6,76.9,262.4,92.9,240.8,92.9L240.8,92.9z"/>
	</g>
</g>
</svg>
