<?xml version="1.0" encoding="utf-8"?>
<!-- Generator: Adobe Illustrator 26.3.1, SVG Export Plug-In . SVG Version: 6.00 Build 0)  -->
<svg version="1.1" id="Layer_1" xmlns="http://www.w3.org/2000/svg" xmlns:xlink="http://www.w3.org/1999/xlink" x="0px" y="0px"
	 viewBox="0 0 1080 1080" style="enable-background:new 0 0 1080 1080;" xml:space="preserve">
<style type="text/css">
	.st0{fill:#333333;stroke:#333333;stroke-width:2;stroke-miterlimit:10;}
</style>
<g id="Layer_2_00000180327276126284590910000010730021517602146726_">
	<g id="Layer_1-2">
		<polygon class="st0" points="809.5,867.2 265.9,867.2 243.1,867.2 243.1,890 832.3,890 832.3,867.2 		"/>
		<polygon class="st0" points="265.9,676.8 265.9,212.8 809.5,212.8 809.5,676.8 832.3,676.8 832.3,190 243.1,190 243.1,676.8 		"/>
		<path class="st0" d="M312.1,552.5V379h20.2v155.2h76.5v18.3H312.1z"/>
		<path class="st0" d="M515,552.5l-58.8-153.8h-1c1.1,12.2,1.7,26.7,1.7,43.4v110.4h-18.7V379h30.4l54.9,143.1h1L579.9,379H610
			v173.5h-20.2V440.8c0-12.8,0.6-26.7,1.7-41.8h-0.9l-59.3,153.6L515,552.5L515,552.5z"/>
		<path class="st0" d="M732,394.6c-19.1,0-34.1,6.3-45.2,19c-11,12.7-16.5,30.1-16.6,52.1c0,22.7,5.3,40.3,16,52.6
			c10.6,12.4,25.8,18.6,45.5,18.6c12.1,0,25.9-2.2,41.4-6.5v17.7c-12,4.5-26.9,6.8-44.5,6.8c-25.5,0-45.3-7.8-59.2-23.3
			s-20.8-37.5-20.8-66.1c0-17.9,3.3-33.5,10-47c6.3-13,16.4-23.9,29-31.1c12.6-7.3,27.5-11,44.6-11c18.2,0,34.1,3.3,47.7,10
			l-8.5,17.3C758.2,397.7,745.1,394.6,732,394.6z"/>
		<path class="st0" d="M202.1,807.1v-86.8h10.1V798h38.3v9.1H202.1z"/>
		<path class="st0" d="M313.5,807.1h-48.4v-86.8h48.4v9h-38.3v27.9h36v8.9h-36V798h38.3V807.1z"/>
		<path class="st0" d="M387.3,807.1l-10.8-27.6h-34.8L331,807.1h-10.2l34.3-87.1h8.5l34.1,87.1H387.3z M373.4,770.4l-10.1-26.9
			c-1.3-3.4-2.6-7.6-4-12.5c-1,4.2-2.2,8.4-3.7,12.5l-10.2,26.9H373.4z"/>
		<path class="st0" d="M478.9,762.9c0,14.3-3.9,25.3-11.7,32.8c-7.8,7.6-19,11.4-33.6,11.4h-24v-86.8h26.6c13.5,0,24,3.7,31.5,11.2
			C475.2,739.1,478.9,749.5,478.9,762.9z M468.3,763.3c0-11.3-2.8-19.8-8.5-25.6c-5.7-5.7-14.1-8.6-25.3-8.6h-14.7v69.3H432
			c12,0,21.1-3,27.1-8.9C465.2,783.6,468.2,774.9,468.3,763.3L468.3,763.3z"/>
		<path class="st0" d="M546.6,807.1h-48.4v-86.8h48.4v9h-38.3v27.9h36v8.9h-36V798h38.3V807.1z"/>
		<path class="st0" d="M575.9,771v36.1h-10.1v-86.8h23.8c10.6,0,18.5,2,23.6,6.1s7.6,10.2,7.6,18.4c0,11.5-5.8,19.2-17.4,23.3
			l23.6,39h-12L594,771H575.9z M575.9,762.4h13.8c7.1,0,12.3-1.4,15.7-4.2c3.3-2.8,5-7.1,5-12.7c0-5.7-1.7-9.9-5.1-12.4
			c-3.4-2.5-8.8-3.8-16.3-3.8h-13.1L575.9,762.4L575.9,762.4z"/>
		<path class="st0" d="M641,807.1v-86.8h10.1V798h38.3v9.1H641z"/>
		<path class="st0" d="M704,807.1v-86.8h10.1v86.8H704z"/>
		<path class="st0" d="M805.7,807.1h-11.5l-47.4-72.8h-0.5c0.6,8.5,0.9,16.4,1,23.5v49.3H738v-86.8h11.4l47.3,72.5h0.5
			c-0.1-1.1-0.3-4.5-0.5-10.3c-0.3-5.8-0.4-9.9-0.3-12.4v-49.8h9.4v86.8H805.7z"/>
		<path class="st0" d="M877.9,807.1h-48.4v-86.8h48.4v9h-38.3v27.9h36v8.9h-36V798h38.3V807.1z"/>
	</g>
</g>
</svg>
