<?xml version="1.0" encoding="utf-8"?>
<!-- Generator: Adobe Illustrator 24.0.1, SVG Export Plug-In . SVG Version: 6.00 Build 0)  -->
<svg version="1.1" id="Layer_1" xmlns="http://www.w3.org/2000/svg" xmlns:xlink="http://www.w3.org/1999/xlink" x="0px" y="0px"
	 viewBox="0 0 300 100" style="enable-background:new 0 0 300 100;" xml:space="preserve">
<style type="text/css">
	.st0{fill:#3E3E3E;}
</style>
<title>Elm- Web- Dark</title>
<g id="Layer_2_1_">
	<g id="Layer_1-2">
		<polyline class="st0" points="121.1,57 111.1,51.2 111.1,39.6 121.1,45.5 121.1,57 		"/>
		<polyline class="st0" points="121.1,22.4 111.1,28.1 111.1,39.6 121.1,33.9 121.1,22.4 		"/>
		<polyline class="st0" points="131.1,5 121.1,10.8 121.1,22.4 131.1,16.5 131.1,5 		"/>
		<polyline class="st0" points="101.1,22.4 91.1,28.1 91.1,39.6 101.1,33.9 101.1,22.4 		"/>
		<polyline class="st0" points="111.1,39.6 101.1,33.9 101.1,22.4 111.1,28.1 111.1,39.6 		"/>
		<polyline class="st0" points="150.9,39.6 140.9,33.9 140.9,22.4 150.9,28.1 150.9,39.6 		"/>
		<polygon class="st0" points="81.2,57 81.2,57 91.1,62.7 101.1,57 91.1,51.2 		"/>
		<polygon class="st0" points="101.1,57 101.1,57 111.1,62.7 121.1,57 111.1,51.2 		"/>
		<polygon class="st0" points="111.1,39.6 111.1,39.6 121.1,45.5 131.1,39.6 121.1,33.9 		"/>
		<polygon class="st0" points="131.1,39.6 131.1,39.6 140.9,45.5 150.9,39.6 140.9,33.9 		"/>
		<path class="st0" d="M151.6,52.6V71h-12.5c-0.1,0-0.2,0-0.3,0.1l-3.7,6.3c-0.1,0.2-0.2,0.3-0.1,0.4s0.2,0.3,0.4,0.3h42.7
			c1.9,0,3.6-0.9,4.8-2.4c1.2,1.4,2.9,2.3,4.8,2.4h30.6c0.2,0,0.4-0.2,0.4-0.4l0,0v-6.3c0-0.2-0.2-0.4-0.4-0.4l0,0h-16.2V61
			c0-0.9,0.7-1.6,1.6-1.6h11c0.1,0,0.2,0,0.3-0.1l3.8-6.4c0.1-0.2,0.2-0.3,0.1-0.4c-0.1-0.2-0.2-0.3-0.4-0.3h-16.5
			c-3.7-0.1-6.7,2.8-6.8,6.5V71h-6.2V39.7c0-0.2-0.1-0.4-0.3-0.4c-0.2,0-0.3,0-0.4,0.1l-6.2,3.7c-0.1,0.1-0.1,0.2-0.1,0.3V71h-6.2
			V58.6c-0.2-3.6-3.1-6.5-6.8-6.4h-16.6C151.8,52.2,151.6,52.4,151.6,52.6L151.6,52.6L151.6,52.6z M168.4,71h-8
			c-0.9,0-1.6-0.7-1.6-1.5V59.4h8c0.9,0,1.5,0.7,1.5,1.6C168.4,61,168.4,71,168.4,71z"/>
		<path class="st0" d="M190.8,83c0-0.1,0.1-0.2,0.2-0.2l0,0h7.6c0.1,0,0.2,0,0.2,0.1l0,0l0,0v1.8c0,0.1-0.1,0.2-0.1,0.2l0,0h-5.1
			l0,0v2.4v0.1h4.3c0.1,0,0.2,0,0.2,0.1l0,0l0,0v1.8c0,0.1-0.1,0.2-0.2,0.2h-4.3 M193.5,89.5V92v0.1h5.2c0.1,0,0.2,0.1,0.2,0.2l0,0
			v1.8c0,0.1-0.1,0.2-0.2,0.2H191c-0.1,0-0.2-0.1-0.2-0.2l0,0V83L193.5,89.5z"/>
		<path class="st0" d="M203.3,94.9c-1.8,0-2.6-0.8-2.6-2.7V83c0-0.1,0.1-0.2,0.2-0.2h2.2c0.1,0,0.2,0.1,0.2,0.2l0,0v9
			c0,0.5,0.3,0.8,0.7,0.8h0.4c0.1,0,0.2,0.1,0.2,0.2l0,0v1.8c0,0.1-0.1,0.2-0.2,0.2l0,0L203.3,94.9L203.3,94.9z"/>
		<path class="st0" d="M216.5,94.7c-0.1,0-0.2-0.1-0.2-0.2l0,0v-4.9c0-0.9-0.4-1.5-1.3-1.5c-0.9,0-1.3,0.6-1.3,1.5v4.9
			c0,0.1-0.1,0.2-0.2,0.2h-2.2c-0.1,0-0.2-0.1-0.2-0.2l0,0v-4.9c0-0.9-0.4-1.5-1.3-1.5c-0.8,0-1.3,0.6-1.3,1.5v4.9
			c0,0.1-0.1,0.2-0.1,0.2l0,0h-2.2c-0.1,0-0.2-0.1-0.2-0.2l0,0l0,0v-8.2c0-0.1,0.1-0.2,0.2-0.2h2.2c0.1,0,0.2,0.1,0.2,0.2l0,0v0.6
			l0,0c1.1-1.2,3-1.3,4.1-0.2l0,0c0.1,0.1,0.2,0.2,0.3,0.3l0,0c0.7-0.7,1.6-1.1,2.7-1.1c1.6-0.1,3,1.1,3.1,2.7c0,0.2,0,0.4,0,0.5
			v5.4c0,0.1-0.1,0.2-0.2,0.2L216.5,94.7L216.5,94.7z"/>
	</g>
</g>
</svg>
