<?xml version="1.0" encoding="utf-8"?>
<!-- Generator: Adobe Illustrator 26.3.1, SVG Export Plug-In . SVG Version: 6.00 Build 0)  -->
<svg version="1.1" id="Layer_1" xmlns="http://www.w3.org/2000/svg" xmlns:xlink="http://www.w3.org/1999/xlink" x="0px" y="0px"
	 viewBox="0 0 300 100" style="enable-background:new 0 0 300 100;" xml:space="preserve">
<style type="text/css">
	.st0{fill-rule:evenodd;clip-rule:evenodd;fill:#FFFFFF;}
	.st1{fill:#FFFFFF;}
</style>
<g id="Layer_2_00000135652568937813977640000012290658055733318554_">
	<g id="Layer_1-2">
		<path class="st0" d="M102.1,38.6c-0.6-0.1-1.3-0.3-1.9-0.5c-0.9-0.2-1.7-0.6-2.5-1c-2-1.2-3.6-2.8-4.7-4.8
			c-7.7,2.2-11.5-1.1-14.1-4.2c-1-1.1-1.9-2.3-2.7-3.6L71,30c0.6,1.2,1.4,2.3,2.3,3.3c3.3,3.7,9.8,8.7,17.5,5c0,0,1,5.4,7.6,7.2
			c-6,9.8-18.9,13-28.7,6.9s-13-18.9-6.9-28.7s18.9-13,28.7-6.9c4.5,2.7,7.8,7.1,9.2,12.1h8.9c-3.1-16-18.7-26.5-34.7-23.4
			S48.2,24.2,51.3,40.2C54.5,56.3,70,66.7,86,63.6c12.1-2.4,21.5-12,23.5-24.1C109.1,39.4,105.1,39.2,102.1,38.6z M74.5,57.6
			l-2.4-0.9c-0.3-0.1-0.7-0.1-0.9,0.1c-0.3,0.2-0.5,0.5-0.6,0.8c-0.1,0.3-0.2,0.7-0.1,1c0,0.3,0.3,0.6,0.6,0.7l1.4,0.5l0.4-1.1
			l-1.5-0.5l0.3-0.7l2.5,0.9l-0.9,2.5L70.4,60c-0.5-0.2-0.9-0.6-1-1.1c-0.2-0.5-0.1-1.1,0.1-1.7c0.2-0.5,0.6-0.9,1-1.2
			c0.5-0.3,1.1-0.3,1.6-0.1l2.6,1L74.5,57.6z M82.7,61.5c-0.3,0.3-0.6,0.4-1,0.4h-3.2v-0.8h2.6c0.2,0,0.3,0,0.4-0.1
			c0.1-0.1,0.2-0.2,0.2-0.4c0-0.4-0.3-0.6-0.8-0.6h-1.3c-0.4,0-0.7-0.1-1-0.3c-0.3-0.2-0.4-0.5-0.4-0.9c0-0.4,0.1-0.7,0.4-1
			c0.3-0.3,0.7-0.4,1.1-0.4l3.1,0v0.8h-2.7c-0.1,0-0.3,0.1-0.4,0.2c-0.2,0.2-0.2,0.5-0.1,0.7c0,0,0,0,0.1,0.1
			c0.1,0.1,0.3,0.2,0.4,0.1h1.5c0.4,0,0.8,0.1,1.1,0.3c0.3,0.2,0.4,0.6,0.4,0.9C83.1,60.9,83,61.2,82.7,61.5z M91.7,59.2
			c-0.4,0.5-0.9,0.9-1.5,1.1c-0.6,0.3-1.3,0.4-2,0.2c-0.6-0.3-1.1-0.9-1.3-1.5c-0.2-0.6-0.2-1.2,0-1.8c0.3-0.6,0.9-1.1,1.6-1.3
			c0.6-0.3,1.4-0.4,2.1-0.1c0.5,0.3,0.9,0.8,1.1,1.4C92,57.8,92,58.5,91.7,59.2L91.7,59.2z M89.9,56.7c-0.4-0.2-0.8-0.2-1.1,0
			c-0.4,0.1-0.7,0.4-0.8,0.8c-0.1,0.4-0.1,0.7,0.1,1.1c0.1,0.4,0.3,0.7,0.6,0.9c0.4,0.2,0.9,0.2,1.3,0c0.4-0.1,0.7-0.4,0.8-0.8
			c0-0.4,0-0.8-0.2-1.1C90.5,57.2,90.3,56.9,89.9,56.7L89.9,56.7z"/>
		<path class="st1" d="M141.5,58.9h-16.6c-0.3,0.5-0.6,1-1,1.4c-1.2,1.4-3,2.3-4.9,2.2c-1.9,0-3.6-0.8-4.9-2.1
			c-1.4-1.4-2.1-3.4-2.1-5.3v-6h2.5v5.8c0,1.3,0.4,2.6,1.1,3.7c1.3,1.9,3.8,2.3,5.7,1c0.4-0.3,0.8-0.6,1-1c0.7-1.1,1.1-2.4,1.1-3.7
			V49h2.4v6.1c0,0.5,0,0.9-0.1,1.3h2c1.2,0,1.9-0.8,1.9-2.4v-5h2.4v4.8c0.1,0.9-0.1,1.9-0.5,2.7h2.4c1.2,0,1.9-0.8,1.9-2.4v-5h2.5
			v4.7c0,0.9-0.2,1.9-0.5,2.7h3.7L141.5,58.9z"/>
		<path class="st1" d="M143.2,63.7h-2.3v-2.5h2.4L143.2,63.7z M151,58.9h-10.1v-2.5h2.3c0.6,0.1,1.2-0.2,1.5-0.7
			c0.2-0.5,0.3-1.1,0.3-1.7v-5h2.4v4.9c0.1,0.9-0.1,1.7-0.6,2.5h4.1L151,58.9z M147.4,63.7H145v-2.5h2.4L147.4,63.7z"/>
		<path class="st1" d="M152.7,63.7h-2.4v-2.5h2.4V63.7z M160.5,58.9h-10.1v-2.5h2.3c0.6,0.1,1.2-0.2,1.5-0.7
			c0.2-0.5,0.3-1.1,0.3-1.7v-5h2.4v4.9c0.1,0.9-0.1,1.8-0.5,2.5h4.1L160.5,58.9z M156.8,63.7h-2.4v-2.5h2.4V63.7z"/>
		<path class="st1" d="M174.7,58.9h-2.4c-1.7,0.1-3.4-0.3-4.9-1.2c-1.4,0.9-3.1,1.3-4.8,1.2h-2.7v-2.5h2.6c0.7,0.1,1.4,0,2-0.2
			c-0.7-0.5-1.3-1.2-1.6-2c-0.3-0.7-0.5-1.5-0.5-2.3c0-0.5,0.1-1,0.3-1.5c0.7-2,2.7-3.4,4.8-3.4c2.7-0.1,5,1.9,5.1,4.6
			c0,0.1,0,0.1,0,0.2c0,0.8-0.2,1.6-0.5,2.3c-0.3,0.8-0.9,1.5-1.6,2.1c0.6,0.2,1.3,0.3,2,0.2h2.3L174.7,58.9z M166.5,45.3h-2.4v-2.4
			h2.4V45.3z M168.7,54.4c0.9-0.6,1.5-1.7,1.4-2.8c0-1.5-1.2-2.8-2.8-2.8s-2.8,1.2-2.8,2.8c0,1.1,0.5,2.2,1.4,2.8
			c0.4,0.3,0.9,0.6,1.3,0.8C167.9,55,168.3,54.8,168.7,54.4z M170.6,45.3h-2.4v-2.4h2.4V45.3z"/>
		<path class="st1" d="M176.2,46.9h-2.4v-2.4h2.4V46.9z M184,58.9h-10.1v-2.5h2.3c0.6,0.1,1.2-0.2,1.5-0.7c0.2-0.5,0.3-1.1,0.3-1.7
			v-5h2.4v4.9c0.1,0.9,0,1.7-0.4,2.5h4.2L184,58.9z M180.3,46.9h-2.4v-2.4h2.4V46.9z"/>
		<path class="st1" d="M189.5,54.9c0,2.7-1.2,4-3.7,4h-2.6v-2.5h2.1c0.6,0.1,1.2-0.2,1.5-0.7c0.1-0.5,0.2-1,0.2-1.6v-9.3h2.4V54.9z"
			/>
		<path class="st1" d="M194.2,58.9h-2.4V44.7h2.4V58.9z"/>
		<path class="st1" d="M214.8,58.9h-2.7c-1.9,0-3.6-1.4-4-3.2c-0.6,1-1.6,1.6-2.8,1.6c-2.8,0-4.5-2.1-4.5-5.1c0-3.3,1.7-5.3,4.5-5.3
			h5.4v7c0,1.7,0.8,2.6,2.4,2.6h1.6V58.9z M208.3,51.9v-3.2h-2.3c-1.7,0-2.8,1.4-2.8,3.4c0,1.7,0.9,3.1,2.4,3.1
			S208.3,53.8,208.3,51.9L208.3,51.9z M206.5,45h-2.4v-2.4h2.4V45z M210.6,45h-2.4v-2.4h2.4V45z"/>
		<path class="st1" d="M224.3,58.9h-10.1v-2.5h2.3c0.6,0.1,1.2-0.2,1.5-0.7c0.2-0.5,0.3-1.1,0.3-1.7v-3.8h2.4v3.7
			c0.1,0.9-0.1,1.8-0.5,2.5h4.2L224.3,58.9z M220.6,48.9h-5.4v-1.4h1.2c-0.1-0.3-0.2-0.7-0.2-1.1c-0.1-1.3,0.9-2.4,2.2-2.5
			c0,0,0.1,0,0.1,0c0.9-0.1,1.7,0.5,2,1.3l-1,0.7c-0.1-0.4-0.5-0.7-0.9-0.7c-0.6,0-1,0.4-1,1.2c0,0.4,0.1,0.7,0.3,1h2.7L220.6,48.9z
			"/>
		<path class="st1" d="M225.8,63.7h-2.4v-2.5h2.4V63.7z M233.6,58.9h-10.1v-2.5h2.3c0.6,0.1,1.2-0.2,1.5-0.7
			c0.2-0.5,0.3-1.1,0.3-1.7v-5h2.4v4.9c0.1,0.9-0.1,1.8-0.5,2.5h4.1L233.6,58.9z M230,63.7h-2.4v-2.5h2.4V63.7z"/>
		<path class="st1" d="M248.8,58.9H233v-2.5h3.2c-0.3-0.7-0.5-1.5-0.6-2.3c0-2.4,1.9-4.3,4.3-4.3c2.4,0,4.3,1.9,4.3,4.3
			c0,0.8-0.2,1.6-0.6,2.3h2.9c0-0.2,0-0.4,0-0.6c0-3.7-2.2-7-5.4-7.7l0.3-2.3c4.7,0.9,7.5,5,7.5,10.5C249.1,57.2,249,58,248.8,58.9z
			 M242,54.1c0-1.1-0.9-2-2-2c-1.1,0-2,0.9-2,2s0.9,2,2,2C241.1,56.1,242,55.2,242,54.1z"/>
		<path class="st1" d="M61.8,77.1h-1.3c-1,0-1.8-0.7-2-1.6c-0.3,0.5-0.8,0.8-1.4,0.8c-1.3,0-2.2-1.1-2.2-2.4c0-0.1,0-0.1,0-0.2
			c0-1.6,0.9-2.6,2.2-2.6h2.6v3.4c0,0.8,0.4,1.3,1.2,1.3h0.8V77.1z M58.5,73.6v-1.6h-1.1c-0.8,0-1.4,0.7-1.4,1.7
			c0,0.8,0.5,1.6,1.2,1.6S58.5,74.6,58.5,73.6z M57.7,70.2h-1.2V69h1.2V70.2z M59.7,70.2h-1.2V69h1.2V70.2z"/>
		<path class="st1" d="M62.6,79.5h-1.2v-1.2h1.2V79.5z M66.5,77.1h-5v-1.2h1.2c0.3,0,0.6-0.1,0.7-0.4c0.1-0.3,0.2-0.5,0.1-0.8v-2.5
			h1.2v2.4c0.1,0.4,0,0.9-0.3,1.3h2L66.5,77.1z M64.7,79.5h-1.2v-1.2h1.2V79.5z"/>
		<path class="st1" d="M69.3,75.1c0,1.3-0.6,2-1.8,2h-1.2v-1.3h0.9c0.3,0,0.6-0.1,0.8-0.4c0.1-0.3,0.1-0.5,0.1-0.8v-2.6h1.2
			L69.3,75.1z M69.3,79.5h-1.2v-1.2h1.2L69.3,79.5z"/>
		<path class="st1" d="M74.7,77.1h-1.9c-0.2,1.2-1.2,1.8-2.7,1.8v-1c0.7,0.1,1.4-0.4,1.5-1.1c0-0.1,0-0.3,0-0.4v-4.2h1.2v3.7h1.9
			V77.1z"/>
		<path class="st1" d="M82.5,77.1h-2.3c-0.4,0-0.7-0.1-1-0.3c-0.3-0.1-0.5-0.3-0.7-0.5c-0.7,0.5-1.5,0.8-2.4,0.8h-1.8v-1.2h1.8
			c0.3,0,0.6,0,0.8-0.1c0.3-0.1,0.5-0.2,0.8-0.3c-0.3-0.3-0.6-0.6-0.9-0.8c-0.4-0.3-0.8-0.5-1.3-0.6v-1.2c0.9-0.6,1.9-0.9,3-0.9
			c1.1,0,2.2,0.4,3.1,1.1c-0.2,0.4-0.5,0.9-0.8,1.2c-0.4,0.5-0.8,0.9-1.2,1.2c0.1,0.1,0.3,0.2,0.4,0.3c0.2,0,0.3,0,0.5,0h2
			L82.5,77.1z M80,73.5c-0.5-0.3-1-0.4-1.6-0.4c-0.6,0-1.2,0.2-1.7,0.4c0.7,0.3,1.4,0.7,1.8,1.3c0.3-0.2,0.6-0.4,0.8-0.6
			C79.7,74,79.9,73.8,80,73.5z"/>
		<path class="st1" d="M85.2,75.1c0,1.3-0.6,2-1.8,2h-1.3v-1.3h1c0.3,0,0.6-0.1,0.8-0.4C84,75.3,84,75,84,74.7v-4.6h1.2L85.2,75.1z"
			/>
		<path class="st1" d="M87.5,77.1h-1.2v-7h1.2L87.5,77.1z"/>
		<path class="st1" d="M98.2,77.1h-0.3c-0.8,0-1.6-0.3-2.1-0.9c-0.4-0.4-0.7-0.9-0.9-1.5h-1.4c-0.8,0-1.4,0.6-1.4,1.3
			c0,0.1,0,0.1,0,0.2c0,0.4,0.1,0.7,0.4,1c0.3,0.3,0.6,0.4,1,0.4h1.3v1.3h-0.9c-0.8,0-1.5-0.2-2.1-0.6c-0.6-0.5-0.9-1.3-0.9-2.1
			c-0.1-0.8,0.2-1.5,0.7-2.1c0.5-0.4,1.1-0.7,1.8-0.6h1.3c0-1-0.8-1.8-1.8-1.7c0,0,0,0-0.1,0c-0.3,0-0.6,0-0.8,0.2v-1
			c0.3-0.1,0.6-0.2,0.9-0.2c1.8,0,2.9,0.9,3.1,3c0,0.7,0.3,1.3,0.8,1.7c0.3,0.2,0.6,0.4,1,0.4h0.3L98.2,77.1z M94.5,76.8h-1.2v-1.2
			h1.2V76.8z"/>
		<path class="st1" d="M98.9,79.5h-1.2v-1.2h1.2V79.5z M102.8,77.1h-5v-1.2H99c0.3,0,0.6-0.1,0.7-0.4c0.1-0.3,0.2-0.5,0.1-0.8v-2.5
			h1.2v2.4c0.1,0.4,0,0.9-0.3,1.3h2L102.8,77.1z M101,79.5h-1.2v-1.2h1.2V79.5z"/>
		<path class="st1" d="M107.5,77.1h-5v-1.2h1.1c0.3,0,0.6-0.1,0.7-0.4c0.1-0.3,0.1-0.5,0.1-0.8v-4.6h1.2v4.5c0.1,0.4,0,0.9-0.3,1.3
			h2L107.5,77.1z"/>
		<path class="st1" d="M115.9,77.1h-8.7v-1.2h6.3c0-0.6-0.2-1.2-0.6-1.7c-0.5-0.6-1.2-0.9-1.9-0.8c-0.3,0-0.6,0.1-0.9,0.2
			c-0.4,0.1-0.7,0.4-1,0.7c-0.2-0.3-0.4-0.7-0.6-1c0.3-0.3,0.7-0.6,1.2-0.8c0.4-0.2,0.9-0.3,1.4-0.3c0.7,0,1.4,0.2,2,0.5
			c1,0.7,1.7,1.9,1.6,3.2h1.1L115.9,77.1z M111.8,71.1h-1.2v-1.2h1.2V71.1z"/>
		<path class="st1" d="M118.7,75.1c0,1.3-0.6,2-1.8,2h-1.3v-1.3h1c0.4,0,0.7-0.1,0.8-0.4c0.1-0.3,0.1-0.5,0.1-0.8v-4.6h1.2
			L118.7,75.1z"/>
		<path class="st1" d="M121,77.1h-1.2v-7h1.2V77.1z"/>
		<path class="st1" d="M131.2,75.2c0.1,1.9-1.3,3.6-3.2,3.7c-1.9,0.1-3.6-1.3-3.7-3.2c0-0.2,0-0.4,0-0.5v-1.1h1.2v0.9
			c-0.2,1.3,0.8,2.5,2.1,2.7c0,0,0,0,0.1,0c1.3,0,2.2-1.2,2.2-2.7v-5h1.2V75.2z"/>
		<path class="st1" d="M136.9,77c0,1.3-0.8,2-2.4,2v-1c0.8,0,1.1-0.5,1.2-1.4c-0.2,0.4-0.7,0.6-1.1,0.6c-1.4,0.1-2.5-1-2.6-2.3
			c-0.1-1.4,1-2.5,2.3-2.6c1.4-0.1,2.5,1,2.6,2.3c0,0,0,0.1,0,0.1V77z M135.6,74.7c0-0.8-0.5-1.4-1.2-1.4c-0.7,0-1.1,0.6-1.1,1.4
			c-0.1,0.7,0.5,1.3,1.1,1.3c0,0,0,0,0,0C135.2,75.9,135.7,75.3,135.6,74.7L135.6,74.7z"/>
		<path class="st1" d="M145,77.1h-7.1v-1.2h3.9c0-1.4-0.6-2.3-1.7-2.5c-0.4-0.1-0.7-0.1-1.1-0.1v-1.1c0.6,0,1,0,1.1,0
			c0.2,0,0.4,0.1,0.6,0.1c1.5,0.5,2.2,1.7,2.2,3.5h1.9L145,77.1z"/>
		<path class="st1" d="M147.6,75.1c0,1.3-0.6,2-1.8,2h-1.3v-1.3h1c0.3,0,0.6-0.1,0.8-0.4c0.1-0.3,0.1-0.5,0.1-0.8v-4.6h1.2
			L147.6,75.1z"/>
		<path class="st1" d="M157.7,75.2c0,1-0.3,1.9-1,2.6c-0.6,0.7-1.5,1.1-2.4,1.1c-0.9,0-1.8-0.4-2.4-1.1c-0.7-0.7-1-1.7-1-2.7v-3h1.2
			v2.9c0,0.7,0.2,1.3,0.5,1.8c0.4,0.6,1,0.9,1.7,0.9c0.7,0,1.3-0.3,1.7-0.9c0.4-0.5,0.6-1.2,0.5-1.8v-2.9h1.2L157.7,75.2z
			 M154.9,71.2h-1.2V70h1.2V71.2z"/>
		<path class="st1" d="M163.4,77c0,1.3-0.8,2-2.4,2v-1c0.8,0,1.1-0.5,1.2-1.4c-0.2,0.4-0.7,0.6-1.1,0.6c-1.4,0.1-2.5-1-2.6-2.3
			s1-2.5,2.3-2.6c1.4-0.1,2.5,1,2.6,2.3c0,0.1,0,0.1,0,0.2L163.4,77z M162.2,74.7c0-0.8-0.4-1.4-1.1-1.4s-1.1,0.6-1.1,1.4
			c-0.1,0.7,0.4,1.3,1.1,1.3C161.8,75.9,162.2,75.4,162.2,74.7C162.2,74.7,162.2,74.7,162.2,74.7L162.2,74.7z"/>
		<path class="st1" d="M167.8,77.1h-1.4c-0.5,0-1-0.2-1.3-0.6c-0.3-0.4-0.5-0.9-0.4-1.4v-5h1.2v4.6c0,0.4,0.1,0.7,0.3,1
			c0.3,0.1,0.6,0.2,0.9,0.2h0.7V77.1z"/>
		<path class="st1" d="M175.6,77.1h-2.3c-0.4,0-0.7-0.1-1-0.3c-0.3-0.1-0.5-0.3-0.7-0.5c-0.7,0.5-1.5,0.8-2.4,0.8h-1.8v-1.2h1.8
			c0.3,0,0.6,0,0.8-0.1c0.3-0.1,0.5-0.2,0.8-0.3c-0.2-0.3-0.6-0.6-0.9-0.8c-0.4-0.3-0.8-0.5-1.3-0.6v-1.2c0.9-0.6,1.9-0.9,3-0.9
			c1.1,0,2.2,0.4,3.1,1.1c-0.2,0.4-0.5,0.9-0.8,1.2c-0.4,0.5-0.8,0.9-1.3,1.2c0.1,0.1,0.3,0.2,0.4,0.3c0.2,0,0.3,0,0.5,0h2
			L175.6,77.1z M173.2,73.5c-0.5-0.3-1-0.4-1.6-0.4c-0.6,0-1.2,0.2-1.7,0.4c0.7,0.3,1.4,0.7,1.8,1.3c0.3-0.2,0.6-0.4,0.8-0.6
			C172.8,74,173,73.8,173.2,73.5z"/>
		<path class="st1" d="M176.4,71.2h-1.2V70h1.2V71.2z M180.3,77.1h-5v-1.3h1.1c0.3,0,0.6-0.1,0.7-0.4c0.1-0.3,0.1-0.5,0.1-0.8v-2.5
			h1.2v2.4c0.1,0.4,0,0.9-0.3,1.3h2.1L180.3,77.1z M178.5,71.2h-1.2V70h1.2V71.2z"/>
		<path class="st1" d="M183,75.1c0,1.3-0.6,2-1.8,2h-1.3v-1.3h1c0.3,0,0.6-0.1,0.8-0.4c0.1-0.3,0.1-0.5,0.1-0.8v-4.6h1.2L183,75.1z"
			/>
		<path class="st1" d="M185.4,77.1h-1.2v-7h1.2V77.1z"/>
		<path class="st1" d="M203.3,77.1H195c-0.1,0.3-0.3,0.5-0.5,0.7c-0.6,0.7-1.5,1.1-2.4,1.1c-0.9,0-1.8-0.4-2.4-1.1
			c-0.7-0.7-1-1.7-1-2.7v-3h1.2v2.9c0,0.7,0.2,1.3,0.5,1.8c0.6,0.9,1.8,1.2,2.8,0.6c0.2-0.1,0.4-0.3,0.6-0.6
			c0.4-0.5,0.5-1.2,0.5-1.8v-2.9h1.2v3c0,0.2,0,0.4,0,0.7h1c0.6,0,0.9-0.4,0.9-1.2v-2.5h1.2v2.4c0.1,0.5,0,0.9-0.2,1.3h1.2
			c0.6,0,0.9-0.4,0.9-1.2v-2.5h1.2v2.4c0,0.5-0.1,0.9-0.3,1.3h1.9L203.3,77.1z"/>
		<path class="st1" d="M208,77.1h-5v-1.2h1.1c0.3,0,0.6-0.1,0.7-0.4c0.1-0.3,0.2-0.5,0.1-0.8v-4.6h1.2v4.5c0.1,0.4,0,0.9-0.3,1.3h2
			L208,77.1z"/>
		<path class="st1" d="M216.5,77.1h-8.7v-1.2h6.3c0-0.6-0.2-1.2-0.6-1.7c-0.5-0.6-1.2-0.9-1.9-0.8c-0.3,0-0.6,0.1-0.9,0.2
			c-0.4,0.1-0.7,0.4-1,0.7c-0.2-0.3-0.4-0.7-0.6-1c0.3-0.3,0.7-0.6,1.2-0.8c0.4-0.2,0.9-0.3,1.4-0.3c1.9-0.1,3.5,1.4,3.6,3.4
			c0,0.1,0,0.2,0,0.3h1.2L216.5,77.1z M212.3,79.5h-1.2v-1.2h1.2V79.5z"/>
		<path class="st1" d="M222.5,75.6c0.1,1.3-0.9,2.4-2.2,2.5c-0.1,0-0.1,0-0.2,0c-0.8,0-1.5-0.3-2-1h-2v-1.2h1.5l0,0
			c0-0.1,0-0.2,0-0.3c-0.1-1.3,0.9-2.5,2.2-2.6c0.1,0,0.2,0,0.3,0c1.3,0,2.4,1.1,2.4,2.4C222.5,75.5,222.5,75.5,222.5,75.6z
			 M221.2,75.6c0.1-0.7-0.4-1.4-1.1-1.4c0,0,0,0-0.1,0c-0.7,0-1.2,0.6-1.2,1.3c0,0,0,0.1,0,0.1c-0.1,0.7,0.4,1.4,1.1,1.5
			c0,0,0.1,0,0.1,0c0.7,0,1.2-0.6,1.2-1.3C221.3,75.7,221.2,75.6,221.2,75.6z"/>
		<path class="st1" d="M232.7,75.2c0.1,1.9-1.3,3.6-3.2,3.7c-1.9,0.1-3.6-1.3-3.7-3.2c0-0.2,0-0.4,0-0.5v-1.1h1.2v0.9
			c0,1.5,0.9,2.7,2.2,2.7c1.3,0,2.2-1.2,2.2-2.7v-5h1.2L232.7,75.2z"/>
		<path class="st1" d="M238.4,77c0,1.3-0.8,2-2.4,2v-1c0.8,0,1.1-0.5,1.2-1.4c-0.2,0.4-0.7,0.6-1.1,0.6c-1.4,0.1-2.5-1-2.6-2.3
			s1-2.5,2.3-2.6s2.5,1,2.6,2.3c0,0.1,0,0.1,0,0.2L238.4,77z M237.1,74.7c0-0.8-0.4-1.4-1.1-1.4s-1.1,0.6-1.1,1.4
			c-0.1,0.7,0.5,1.3,1.1,1.3C236.7,75.9,237.2,75.4,237.1,74.7C237.1,74.7,237.1,74.7,237.1,74.7L237.1,74.7z"/>
		<path class="st1" d="M246.5,77.1h-7.1v-1.2h3.9c0-1.4-0.5-2.3-1.6-2.5c-0.4-0.1-0.7-0.1-1.1-0.1v-1.1c0.6,0,1,0,1.1,0
			c0.2,0,0.4,0.1,0.7,0.1c1.4,0.5,2.2,1.7,2.2,3.5h1.9V77.1z"/>
		<path class="st1" d="M249,75.1c0,1.3-0.6,2-1.8,2h-1.3v-1.3h1c0.4,0,0.7-0.1,0.8-0.4c0.1-0.3,0.1-0.5,0.1-0.8v-4.6h1.2L249,75.1z"
			/>
		<path class="st1" d="M62.3,92.5c-0.6,0.2-1.1,0.3-1.7,0.2c-0.7,0-1.4-0.1-2-0.3c-0.6-0.2-1.1-0.6-1.5-1c-0.4-0.4-0.8-0.9-1-1.5
			c-0.2-0.6-0.4-1.2-0.3-1.9c0-0.7,0.1-1.3,0.3-1.9c0.2-0.6,0.6-1.1,1-1.5c0.4-0.4,0.9-0.8,1.5-1c0.6-0.2,1.3-0.4,2-0.3
			c0.3,0,0.7,0,1,0.1c0.3,0.1,0.6,0.1,0.9,0.2c0.3,0.1,0.5,0.2,0.7,0.4c0.2,0.1,0.4,0.3,0.6,0.5L63.4,85c-0.1,0.1-0.1,0.1-0.2,0.2
			c-0.1,0-0.2,0-0.3-0.1l-0.4-0.2c-0.2-0.1-0.3-0.2-0.5-0.2c-0.2-0.1-0.4-0.1-0.7-0.2c-0.3-0.1-0.6-0.1-0.9-0.1
			c-0.5,0-0.9,0.1-1.4,0.2c-0.4,0.2-0.7,0.4-1,0.7c-0.3,0.3-0.5,0.7-0.7,1.1c-0.2,0.5-0.3,1-0.3,1.5c0,0.5,0.1,1.1,0.2,1.5
			c0.1,0.4,0.4,0.8,0.7,1.1c0.3,0.3,0.7,0.6,1.1,0.7c0.5,0.2,1,0.2,1.4,0.2c0.2,0,0.4,0,0.6,0c0.2,0,0.3-0.1,0.5-0.1
			c0.2,0,0.3-0.1,0.5-0.2c0.2-0.1,0.3-0.1,0.5-0.2v-2h-1.4c-0.1,0-0.2,0-0.2-0.1c-0.1,0-0.1-0.1-0.1-0.2v-0.8h2.9v3.6
			C63.3,92.1,62.9,92.3,62.3,92.5z"/>
		<path class="st1" d="M72.2,90.7c0.1,0,0.1,0,0.2,0.1l0.5,0.6c-0.4,0.4-0.9,0.8-1.4,1c-0.6,0.3-1.3,0.4-2,0.4
			c-0.6,0-1.2-0.1-1.8-0.3c-0.5-0.2-1-0.6-1.4-1c-0.4-0.4-0.7-0.9-0.9-1.5c-0.2-0.6-0.3-1.2-0.3-1.9c0-0.7,0.1-1.3,0.3-1.9
			c0.2-0.6,0.5-1.1,0.9-1.5c0.4-0.4,0.9-0.8,1.4-1c0.6-0.2,1.2-0.4,1.8-0.3c1.1,0,2.3,0.4,3.1,1.2L72.3,85c0,0-0.1,0.1-0.1,0.1
			c-0.1,0-0.1,0-0.2,0c-0.1,0-0.2-0.1-0.3-0.1l-0.4-0.3c-0.2-0.1-0.4-0.2-0.7-0.3c-0.3-0.1-0.7-0.1-1-0.1c-0.4,0-0.9,0.1-1.3,0.2
			c-0.4,0.2-0.7,0.4-1,0.7c-0.3,0.3-0.5,0.7-0.6,1.1c-0.2,0.5-0.2,1-0.2,1.6c0,0.5,0.1,1,0.2,1.5c0.1,0.4,0.4,0.8,0.7,1.1
			c0.3,0.3,0.6,0.5,1,0.7c0.4,0.2,0.8,0.2,1.2,0.2c0.2,0,0.5,0,0.7,0c0.2,0,0.4-0.1,0.6-0.1c0.2-0.1,0.4-0.1,0.5-0.2
			c0.2-0.1,0.3-0.2,0.5-0.4l0.1-0.1C72.1,90.7,72.1,90.7,72.2,90.7z"/>
		<path class="st1" d="M80.6,90.7c0.1,0,0.1,0,0.2,0.1l0.5,0.6c-0.4,0.4-0.9,0.8-1.4,1c-0.6,0.3-1.3,0.4-2,0.4
			c-0.6,0-1.2-0.1-1.8-0.3c-0.5-0.2-1-0.6-1.4-1c-0.4-0.4-0.7-0.9-0.9-1.5c-0.2-0.6-0.3-1.2-0.3-1.9c0-0.7,0.1-1.3,0.3-1.9
			c0.2-0.6,0.5-1.1,0.9-1.5c0.4-0.4,0.9-0.8,1.4-1c0.6-0.2,1.2-0.4,1.8-0.3c0.6,0,1.2,0.1,1.7,0.3c0.5,0.2,0.9,0.5,1.3,0.9L80.8,85
			c0,0-0.1,0.1-0.1,0.1c-0.1,0-0.1,0-0.2,0c-0.1,0-0.2-0.1-0.3-0.1l-0.4-0.3c-0.2-0.1-0.4-0.2-0.7-0.3c-0.3-0.1-0.7-0.1-1-0.1
			c-0.4,0-0.9,0.1-1.3,0.2c-0.4,0.2-0.7,0.4-1,0.7c-0.3,0.3-0.5,0.7-0.6,1.1c-0.2,0.5-0.3,1-0.3,1.6c0,0.5,0.1,1,0.2,1.5
			c0.1,0.4,0.4,0.8,0.7,1.1c0.3,0.3,0.6,0.5,1,0.7c0.4,0.2,0.8,0.2,1.2,0.2c0.2,0,0.5,0,0.7,0c0.2,0,0.4-0.1,0.6-0.1
			c0.2-0.1,0.4-0.1,0.5-0.2c0.2-0.1,0.3-0.2,0.5-0.4l0.1-0.1C80.5,90.7,80.6,90.7,80.6,90.7z"/>
		<path class="st1" d="M90.8,84.8c0,0.1-0.1,0.1-0.1,0.1c-0.1,0-0.1,0-0.2,0c-0.1,0-0.2,0-0.3-0.1l-0.3-0.2
			c-0.2-0.1-0.4-0.2-0.5-0.2c-0.2-0.1-0.5-0.1-0.7-0.1c-0.2,0-0.5,0-0.7,0.1c-0.2,0.1-0.4,0.2-0.5,0.3c-0.1,0.1-0.2,0.3-0.3,0.4
			c-0.1,0.2-0.1,0.4-0.1,0.5c0,0.2,0.1,0.4,0.2,0.6c0.1,0.2,0.3,0.3,0.5,0.4c0.2,0.1,0.5,0.2,0.7,0.3l0.8,0.3
			c0.3,0.1,0.5,0.2,0.8,0.3c0.3,0.1,0.5,0.3,0.7,0.4c0.2,0.2,0.4,0.4,0.5,0.7c0.1,0.3,0.2,0.7,0.2,1c0,0.4-0.1,0.8-0.2,1.2
			c-0.1,0.3-0.3,0.7-0.6,0.9c-0.3,0.3-0.6,0.5-1,0.6c-0.4,0.2-0.9,0.2-1.3,0.2c-0.3,0-0.6,0-0.9-0.1c-0.3-0.1-0.5-0.1-0.8-0.2
			c-0.2-0.1-0.4-0.3-0.6-0.4c-0.2-0.1-0.4-0.3-0.6-0.5l0.4-0.6c0-0.1,0.1-0.1,0.1-0.1c0.1,0,0.1,0,0.2,0c0.1,0,0.2,0.1,0.3,0.1
			c0.1,0.1,0.3,0.2,0.4,0.3c0.2,0.1,0.4,0.2,0.6,0.3c0.3,0.1,0.6,0.2,0.9,0.1c0.3,0,0.5,0,0.8-0.1c0.2-0.1,0.4-0.2,0.6-0.3
			c0.2-0.1,0.3-0.3,0.4-0.5c0.1-0.2,0.1-0.4,0.1-0.7c0-0.2-0.1-0.5-0.2-0.7c-0.1-0.2-0.3-0.3-0.5-0.4c-0.2-0.1-0.5-0.2-0.7-0.3
			l-0.8-0.3c-0.3-0.1-0.5-0.2-0.8-0.3c-0.3-0.1-0.5-0.3-0.7-0.5c-0.2-0.2-0.4-0.4-0.5-0.7c-0.3-0.6-0.3-1.4,0-2
			c0.1-0.3,0.3-0.6,0.6-0.8c0.3-0.3,0.6-0.4,0.9-0.6c0.4-0.2,0.8-0.2,1.2-0.2c0.5,0,1,0.1,1.4,0.2c0.4,0.2,0.8,0.4,1.1,0.7
			L90.8,84.8z"/>
		<path class="st1" d="M92.9,84h1.1v1.9h1.1v0.9h-1.1v4.4c0,0.2,0.1,0.4,0.2,0.5c0.1,0.1,0.3,0.1,0.4,0.1h0.2h0.2v0.9
			c-0.1,0-0.3,0.1-0.4,0.1h-0.5c-0.4,0-0.8-0.1-1.1-0.4c-0.2-0.3-0.3-0.7-0.3-1.1v-4.5H92v-0.9h0.9V84z"/>
		<path class="st1" d="M99.9,88.5c0.2,0,0.4-0.1,0.5-0.3c0.1-0.1,0.1-0.3,0.1-0.4c0-0.3-0.1-0.7-0.4-0.8c-0.4-0.2-0.8-0.3-1.2-0.3
			c-0.5,0-0.9,0.1-1.3,0.5c-0.2,0.2-0.3,0.5-0.3,0.8h-1c0-0.7,0.3-1.3,0.8-1.7c0.5-0.3,1.2-0.5,1.8-0.5c0.7,0,1.3,0.1,1.9,0.4
			c0.5,0.3,0.8,0.8,0.7,1.4v3.9c0,0.1,0,0.2,0.1,0.3c0,0.1,0.1,0.1,0.3,0.1h0.2h0.2v0.8c-0.1,0-0.3,0.1-0.4,0.1h-0.4
			c-0.3,0-0.7-0.1-0.9-0.4c-0.1-0.2-0.2-0.4-0.2-0.6c-0.3,0.3-0.6,0.6-1,0.8c-0.4,0.2-0.9,0.3-1.4,0.3c-0.6,0-1.1-0.2-1.5-0.6
			c-0.4-0.4-0.6-0.9-0.6-1.4c0-0.5,0.2-1.1,0.6-1.5c0.4-0.4,1-0.6,1.5-0.6L99.9,88.5z M97.5,91.6c0.2,0.2,0.5,0.3,0.8,0.3
			c0.4,0,0.8-0.1,1.2-0.3c0.6-0.2,1-0.8,1-1.5v-0.9c-0.2,0.1-0.3,0.2-0.5,0.2c-0.2,0.1-0.4,0.1-0.6,0.1l-0.7,0.1
			c-0.3,0-0.6,0.1-0.9,0.3c-0.3,0.2-0.6,0.5-0.5,0.9C97.2,91.1,97.3,91.4,97.5,91.6L97.5,91.6z"/>
		<path class="st1" d="M103.6,92.6v-6.6h0.7c0.2,0,0.3,0.1,0.3,0.2l0.1,0.7c0.3-0.3,0.6-0.6,0.9-0.7c0.4-0.2,0.8-0.3,1.2-0.2
			c0.3,0,0.6,0.1,0.9,0.2c0.3,0.1,0.5,0.3,0.7,0.5c0.2,0.2,0.3,0.5,0.4,0.8c0.1,0.3,0.1,0.7,0.1,1v4.2h-1.3v-4.2
			c0-0.4-0.1-0.8-0.3-1.1c-0.3-0.3-0.6-0.4-1-0.4c-0.3,0-0.6,0.1-0.9,0.2c-0.3,0.2-0.6,0.4-0.8,0.6v4.8L103.6,92.6z"/>
		<path class="st1" d="M115.5,92.6c-0.2,0-0.3-0.1-0.3-0.2l-0.1-0.8c-0.1,0.2-0.3,0.3-0.4,0.4c-0.2,0.1-0.3,0.3-0.5,0.3
			c-0.2,0.1-0.4,0.2-0.6,0.2c-0.2,0-0.4,0.1-0.6,0.1c-0.3,0-0.7-0.1-1-0.2c-0.3-0.2-0.6-0.4-0.8-0.6c-0.2-0.3-0.4-0.7-0.5-1
			c-0.1-0.5-0.2-1-0.2-1.4c0-0.5,0-0.9,0.2-1.4c0.1-0.4,0.3-0.8,0.6-1.1c0.5-0.6,1.3-1,2.1-1c0.7,0,1.3,0.2,1.8,0.7v-3.6h1.2v9.5
			H115.5z M113.3,91.7c0.4,0,0.7-0.1,1-0.2c0.3-0.2,0.6-0.4,0.8-0.7v-3.1c-0.2-0.2-0.4-0.4-0.7-0.6c-0.3-0.1-0.5-0.2-0.8-0.2
			c-0.5,0-1,0.2-1.4,0.6c-0.4,0.5-0.5,1.2-0.5,1.8c0,0.4,0,0.7,0.1,1.1c0.1,0.3,0.2,0.5,0.3,0.7c0.1,0.2,0.3,0.3,0.5,0.4
			C112.9,91.7,113.1,91.7,113.3,91.7z"/>
		<path class="st1" d="M121.6,88.5c0.2,0,0.4-0.1,0.5-0.3c0.1-0.1,0.1-0.3,0.1-0.4c0-0.3-0.1-0.7-0.4-0.8c-0.4-0.2-0.8-0.3-1.2-0.3
			c-0.5-0.1-0.9,0.1-1.3,0.5c-0.2,0.2-0.3,0.5-0.3,0.8H118c0-0.7,0.3-1.3,0.8-1.7c0.5-0.3,1.2-0.5,1.8-0.5c0.7,0,1.3,0.1,1.9,0.4
			c0.5,0.3,0.8,0.8,0.7,1.4v3.9c0,0.1,0,0.2,0.1,0.3c0,0.1,0.1,0.1,0.3,0.1h0.2h0.2v0.8c-0.1,0-0.3,0.1-0.4,0.1h-0.4
			c-0.3,0-0.7-0.1-0.8-0.4c-0.1-0.2-0.2-0.4-0.2-0.6c-0.3,0.3-0.6,0.6-1,0.8c-0.4,0.2-0.9,0.3-1.4,0.3c-0.6,0-1.1-0.2-1.5-0.6
			c-0.4-0.4-0.6-0.9-0.6-1.4c0-0.6,0.2-1.1,0.6-1.5c0.4-0.4,1-0.6,1.5-0.6L121.6,88.5z M119.2,91.6c0.2,0.2,0.5,0.3,0.8,0.3
			c0.4,0,0.8-0.1,1.2-0.3c0.6-0.2,1-0.8,1-1.5v-0.9c-0.2,0.1-0.4,0.2-0.5,0.2c-0.2,0.1-0.4,0.1-0.6,0.1l-0.7,0.1
			c-0.3,0-0.6,0.1-0.9,0.3c-0.3,0.2-0.6,0.5-0.5,0.9C118.9,91.1,119,91.4,119.2,91.6z"/>
		<path class="st1" d="M125.2,92.6v-6.6h0.7c0.1,0,0.2,0,0.3,0.1c0.1,0.1,0.1,0.2,0.1,0.3l0.1,1c0.2-0.4,0.4-0.7,0.8-1
			c0.3-0.3,0.7-0.4,1.1-0.4c0.1,0,0.3,0,0.4,0c0.1,0,0.2,0.1,0.3,0.1l-0.1,0.9c0,0.1-0.1,0.2-0.2,0.2h-0.3c-0.1,0-0.3,0-0.4,0
			c-0.2,0-0.4,0-0.5,0.1c-0.2,0.1-0.3,0.2-0.4,0.3c-0.1,0.1-0.2,0.3-0.3,0.4c-0.1,0.2-0.2,0.4-0.3,0.6v4.1L125.2,92.6z"/>
		<path class="st1" d="M134.4,92.6c-0.2,0-0.3-0.1-0.3-0.2l-0.1-0.8c-0.1,0.2-0.3,0.3-0.4,0.4c-0.2,0.1-0.3,0.3-0.5,0.3
			c-0.2,0.1-0.4,0.2-0.6,0.2c-0.2,0-0.4,0.1-0.7,0.1c-0.3,0-0.7-0.1-1-0.2c-0.3-0.1-0.6-0.4-0.8-0.6c-0.2-0.3-0.4-0.7-0.5-1
			c-0.1-0.5-0.2-1-0.2-1.4c0-0.5,0-0.9,0.2-1.4c0.1-0.4,0.3-0.8,0.6-1.1c0.2-0.3,0.5-0.5,0.9-0.7c0.4-0.2,0.8-0.2,1.2-0.2
			c0.3,0,0.7,0.1,1,0.2c0.3,0.1,0.5,0.3,0.7,0.6v-3.7h1.2v9.5H134.4z M132.2,91.7c0.4,0,0.7-0.1,1-0.2c0.3-0.2,0.6-0.4,0.8-0.7v-3.1
			c-0.2-0.2-0.4-0.4-0.7-0.6c-0.3-0.1-0.5-0.2-0.8-0.2c-0.5,0-1,0.2-1.4,0.6c-0.4,0.5-0.5,1.2-0.5,1.8c0,0.4,0,0.7,0.1,1.1
			c0.1,0.3,0.2,0.5,0.3,0.7c0.1,0.2,0.3,0.3,0.5,0.4C131.8,91.7,132,91.7,132.2,91.7z"/>
		<path class="st1" d="M136.9,83.3h1.2v1.3h-1.2V83.3z M136.9,85.9h1.2v6.7h-1.2V85.9z"/>
		<path class="st1" d="M144.4,86.6c0,0.1,0,0.2,0,0.2c0,0.1-0.1,0.2-0.1,0.2l-3.5,4.6h3.5v1h-5v-0.5c0-0.1,0-0.1,0-0.2
			c0-0.1,0.1-0.2,0.1-0.2l3.5-4.7h-3.5v-1h4.9V86.6z"/>
		<path class="st1" d="M149.2,88.5c0.2,0,0.4-0.1,0.5-0.3c0.1-0.1,0.1-0.3,0.1-0.4c0-0.3-0.1-0.7-0.4-0.8c-0.4-0.2-0.8-0.3-1.2-0.3
			c-0.5,0-0.9,0.1-1.3,0.5c-0.2,0.2-0.3,0.5-0.3,0.8h-1.1c0-0.7,0.3-1.3,0.8-1.7c0.5-0.3,1.2-0.5,1.8-0.5c0.7,0,1.3,0.1,1.9,0.4
			c0.5,0.3,0.8,0.8,0.7,1.4v3.9c0,0.1,0,0.2,0.1,0.3c0,0.1,0.1,0.1,0.3,0.1h0.2h0.2v0.8c-0.1,0-0.3,0.1-0.4,0.1h-0.4
			c-0.3,0-0.7-0.1-0.8-0.4c-0.1-0.2-0.2-0.4-0.2-0.6c-0.3,0.3-0.6,0.6-1,0.8c-0.4,0.2-0.9,0.3-1.4,0.3c-0.6,0-1.1-0.2-1.5-0.6
			c-0.4-0.4-0.6-0.9-0.6-1.4c0-0.6,0.2-1.1,0.6-1.5c0.4-0.4,1-0.6,1.5-0.6L149.2,88.5z M146.9,91.6c0.2,0.2,0.5,0.3,0.8,0.3
			c0.4,0,0.8-0.1,1.1-0.3c0.6-0.3,1-0.9,0.9-1.5v-0.9c-0.2,0.1-0.3,0.2-0.5,0.2c-0.2,0.1-0.4,0.1-0.6,0.1l-0.7,0.1
			c-0.3,0-0.6,0.1-0.9,0.3c-0.3,0.2-0.6,0.5-0.5,0.9C146.5,91.1,146.6,91.4,146.9,91.6z"/>
		<path class="st1" d="M153,84h1.1v1.9h1.1v0.9h-1.1v4.4c0,0.2,0.1,0.4,0.2,0.5c0.1,0.1,0.3,0.1,0.4,0.1h0.2h0.2v0.9
			c-0.1,0-0.3,0.1-0.4,0.1h-0.5c-0.4,0-0.8-0.1-1.1-0.4c-0.2-0.3-0.3-0.7-0.3-1.1v-4.5h-0.9v-0.9h0.9V84z"/>
		<path class="st1" d="M156.4,83.3h1.1v1.3h-1.1V83.3z M156.4,85.9h1.1v6.7h-1.1V85.9z"/>
		<path class="st1" d="M162.1,86c0.4,0,0.9,0.1,1.3,0.2c0.4,0.2,0.7,0.4,1,0.7c0.3,0.3,0.5,0.7,0.6,1.1c0.3,0.9,0.3,1.9,0,2.8
			c-0.1,0.4-0.3,0.8-0.6,1.1c-0.3,0.3-0.6,0.5-1,0.7c-0.8,0.3-1.8,0.3-2.6,0c-0.4-0.2-0.7-0.4-1-0.7c-0.3-0.3-0.5-0.7-0.6-1.1
			c-0.1-0.5-0.2-0.9-0.2-1.4c0-0.5,0.1-0.9,0.2-1.4c0.1-0.4,0.3-0.8,0.6-1.1c0.3-0.3,0.6-0.5,1-0.7C161.2,86.1,161.6,86,162.1,86z
			 M162.1,91.8c0.5,0,1.1-0.2,1.4-0.6c0.6-1.1,0.6-2.5,0-3.6c-0.3-0.4-0.9-0.7-1.4-0.6c-0.6,0-1.1,0.2-1.4,0.6
			c-0.6,1.1-0.6,2.5,0,3.6C161,91.6,161.5,91.8,162.1,91.8L162.1,91.8z"/>
		<path class="st1" d="M166.6,92.6v-6.6h0.7c0.2,0,0.3,0.1,0.3,0.2l0.1,0.7c0.3-0.3,0.6-0.6,1-0.7c0.4-0.2,0.8-0.3,1.2-0.3
			c0.3,0,0.6,0.1,0.9,0.2c0.3,0.1,0.5,0.3,0.7,0.5c0.2,0.2,0.3,0.5,0.4,0.8c0.1,0.3,0.1,0.7,0.1,1v4.2H171v-4.2
			c0-0.4-0.1-0.8-0.3-1.1c-0.3-0.3-0.6-0.4-1-0.4c-0.3,0-0.6,0.1-0.9,0.2c-0.3,0.2-0.6,0.4-0.8,0.6v4.8L166.6,92.6z"/>
		<path class="st1" d="M186,88c0,0.7-0.1,1.3-0.3,1.9c-0.2,0.6-0.5,1.1-0.9,1.5c-0.4,0.4-0.9,0.8-1.4,1c-1.2,0.5-2.5,0.5-3.7,0
			c-0.5-0.2-1-0.6-1.4-1c-0.4-0.4-0.7-0.9-0.9-1.5c-0.4-1.2-0.4-2.6,0-3.8c0.4-1.1,1.3-2,2.4-2.5c1.2-0.5,2.5-0.5,3.7,0
			c0.5,0.2,1,0.6,1.4,1c0.4,0.4,0.7,0.9,0.9,1.5C185.9,86.7,186,87.3,186,88z M184.6,88c0-0.5-0.1-1-0.2-1.5
			c-0.1-0.4-0.4-0.8-0.6-1.1c-0.3-0.3-0.6-0.5-1-0.7c-0.4-0.2-0.9-0.2-1.3-0.2c-0.5,0-0.9,0.1-1.3,0.2c-0.4,0.2-0.7,0.4-1,0.7
			c-0.3,0.3-0.5,0.7-0.6,1.1c-0.3,1-0.3,2,0,3c0.1,0.4,0.4,0.8,0.6,1.1c0.3,0.3,0.6,0.5,1,0.7c0.4,0.2,0.9,0.2,1.3,0.2
			c0.5,0,0.9-0.1,1.3-0.2c0.4-0.2,0.7-0.4,1-0.7c0.3-0.3,0.5-0.7,0.6-1.1C184.6,89,184.6,88.5,184.6,88z"/>
		<path class="st1" d="M187.4,92.6v-6.6h0.7c0.1,0,0.2,0,0.3,0.1c0.1,0.1,0.1,0.2,0.1,0.3l0.1,1c0.2-0.4,0.4-0.7,0.8-1
			c0.3-0.3,0.7-0.4,1.1-0.4c0.1,0,0.3,0,0.4,0c0.1,0,0.2,0.1,0.3,0.1L191,87c0,0.1-0.1,0.2-0.2,0.2c0,0,0,0,0,0h-0.3
			c-0.1,0-0.3,0-0.4,0c-0.2,0-0.4,0-0.5,0.1c-0.2,0.1-0.3,0.2-0.4,0.3c-0.1,0.1-0.3,0.3-0.3,0.4c-0.1,0.2-0.2,0.4-0.3,0.6v4.1
			L187.4,92.6z"/>
		<path class="st1" d="M194.2,86c0.3,0,0.5,0,0.8,0.1c0.2,0.1,0.5,0.1,0.7,0.3h1.8v0.5c0,0.1-0.1,0.2-0.3,0.3l-0.7,0.1
			c0.1,0.3,0.2,0.6,0.2,0.9c0,0.3-0.1,0.6-0.2,0.9c-0.1,0.3-0.3,0.5-0.5,0.7c-0.2,0.2-0.5,0.3-0.8,0.4c-0.3,0.1-0.7,0.2-1,0.1
			c-0.3,0-0.6,0-0.8-0.1c-0.3,0.2-0.4,0.3-0.4,0.5c0,0.1,0.1,0.3,0.2,0.3c0.2,0.1,0.3,0.1,0.5,0.2c0.2,0,0.5,0.1,0.7,0.1h0.8
			c0.3,0,0.5,0.1,0.8,0.1c0.2,0,0.5,0.1,0.7,0.2c0.2,0.1,0.4,0.3,0.5,0.4c0.1,0.2,0.2,0.5,0.2,0.7c0,0.3-0.1,0.6-0.2,0.8
			c-0.1,0.3-0.4,0.5-0.6,0.7c-0.3,0.2-0.6,0.4-1,0.5c-0.4,0.1-0.9,0.2-1.3,0.2c-0.4,0-0.9,0-1.3-0.1c-0.3-0.1-0.6-0.2-0.9-0.4
			c-0.2-0.1-0.4-0.3-0.5-0.6c-0.1-0.2-0.2-0.4-0.2-0.6c0-0.3,0.1-0.6,0.3-0.8c0.2-0.2,0.5-0.4,0.8-0.5c-0.2-0.1-0.3-0.2-0.4-0.3
			c-0.1-0.2-0.2-0.4-0.2-0.6c0-0.1,0-0.2,0-0.3c0-0.1,0.1-0.2,0.2-0.3c0.1-0.1,0.2-0.2,0.3-0.3c0.1-0.1,0.2-0.2,0.4-0.2
			c-0.3-0.2-0.6-0.4-0.8-0.7c-0.3-0.6-0.4-1.3-0.1-1.9c0.1-0.3,0.3-0.5,0.5-0.7c0.2-0.2,0.5-0.3,0.8-0.4C193.5,86,193.9,86,194.2,86
			z M196.2,93c0-0.1,0-0.3-0.1-0.4c-0.1-0.1-0.2-0.2-0.4-0.2c-0.2-0.1-0.3-0.1-0.5-0.1h-0.6h-0.7l-0.7-0.1c-0.2,0.1-0.4,0.2-0.6,0.4
			c-0.1,0.2-0.2,0.4-0.2,0.6c0,0.1,0,0.3,0.1,0.4c0.1,0.1,0.2,0.2,0.3,0.3c0.2,0.1,0.4,0.2,0.6,0.2c0.3,0.1,0.5,0.1,0.8,0.1
			c0.3,0,0.6,0,0.8-0.1c0.2,0,0.4-0.1,0.6-0.2c0.1-0.1,0.3-0.2,0.4-0.3C196.2,93.4,196.2,93.2,196.2,93L196.2,93z M194.2,89.4
			c0.2,0,0.4,0,0.6-0.1c0.2-0.1,0.3-0.1,0.4-0.3c0.1-0.1,0.2-0.3,0.3-0.4c0.1-0.2,0.1-0.3,0.1-0.5c0-0.3-0.1-0.7-0.3-0.9
			c-0.3-0.2-0.6-0.4-1-0.3c-0.4,0-0.7,0.1-1,0.3c-0.2,0.2-0.4,0.6-0.4,0.9c0,0.2,0,0.3,0.1,0.5c0.1,0.2,0.2,0.3,0.3,0.4
			c0.1,0.1,0.3,0.2,0.4,0.3C193.8,89.3,194,89.4,194.2,89.4L194.2,89.4z"/>
		<path class="st1" d="M202.2,88.5c0.2,0,0.4-0.1,0.5-0.3c0.1-0.1,0.1-0.3,0.1-0.4c0-0.3-0.1-0.7-0.4-0.8c-0.4-0.2-0.8-0.3-1.2-0.3
			c-0.5,0-0.9,0.1-1.3,0.5c-0.2,0.2-0.2,0.5-0.3,0.8h-1.1c0-0.7,0.3-1.3,0.8-1.7c0.5-0.3,1.2-0.5,1.8-0.5c0.7,0,1.3,0.1,1.9,0.4
			c0.5,0.3,0.8,0.8,0.7,1.4v3.9c0,0.1,0,0.2,0.1,0.3c0,0.1,0.1,0.1,0.3,0.1h0.2h0.2v0.8c-0.1,0-0.3,0.1-0.4,0.1h-0.4
			c-0.3,0-0.7-0.1-0.8-0.4c-0.1-0.2-0.2-0.4-0.2-0.6c-0.3,0.3-0.6,0.6-1,0.8c-0.4,0.2-0.9,0.3-1.4,0.3c-0.6,0-1.1-0.2-1.5-0.6
			c-0.4-0.4-0.6-0.9-0.6-1.4c0-0.6,0.2-1.1,0.6-1.5c0.4-0.4,1-0.6,1.5-0.6L202.2,88.5z M199.9,91.6c0.2,0.2,0.5,0.3,0.8,0.3
			c0.4,0,0.8-0.1,1.2-0.3c0.6-0.3,1-0.8,0.9-1.5v-0.9c-0.2,0.1-0.4,0.2-0.5,0.2c-0.2,0.1-0.4,0.1-0.6,0.1l-0.7,0.1
			c-0.3,0-0.6,0.1-0.9,0.3c-0.3,0.2-0.5,0.6-0.5,0.9C199.5,91.1,199.6,91.4,199.9,91.6z"/>
		<path class="st1" d="M205.8,85.9h1.1v1c0.3-0.4,0.6-0.6,1-0.8c0.4-0.2,0.8-0.3,1.2-0.3c0.8-0.1,1.5,0.3,1.9,1
			c0.2,0.5,0.3,1,0.3,1.6v4.3h-1.1v-4.3c0-0.3,0-0.7-0.2-1c-0.2-0.4-0.6-0.7-1.1-0.6c-0.2,0-0.5,0-0.7,0.1c-0.3,0.1-0.6,0.3-0.8,0.5
			c-0.2,0.2-0.3,0.4-0.4,0.7c-0.1,0.3-0.1,0.7-0.1,1v3.5h-1.1L205.8,85.9z"/>
		<path class="st1" d="M213,83.3h1.1v1.3H213V83.3z M213,85.9h1.1v6.7H213V85.9z"/>
		<path class="st1" d="M215.3,91.7l4-4.9h-3.7v-1h5.2v0.9l-4,4.8h4.1v1h-5.7L215.3,91.7z"/>
		<path class="st1" d="M225.9,88.5c0.2,0,0.4-0.1,0.5-0.3c0.1-0.1,0.1-0.3,0.1-0.4c0-0.3-0.1-0.7-0.4-0.8c-0.4-0.2-0.8-0.3-1.2-0.3
			c-0.5,0-0.9,0.1-1.3,0.5c-0.2,0.2-0.3,0.5-0.3,0.8h-1.1c0-0.7,0.3-1.3,0.8-1.7c0.5-0.3,1.2-0.5,1.8-0.5c0.7,0,1.3,0.1,1.9,0.4
			c0.5,0.3,0.8,0.8,0.7,1.4v3.9c0,0.1,0,0.2,0.1,0.3c0,0.1,0.1,0.1,0.3,0.1h0.2h0.2v0.8c-0.1,0-0.3,0.1-0.4,0.1h-0.4
			c-0.3,0-0.7-0.1-0.9-0.4c-0.1-0.2-0.2-0.4-0.2-0.6c-0.3,0.3-0.6,0.6-1,0.8c-0.4,0.2-0.9,0.3-1.4,0.3c-0.6,0-1.1-0.2-1.5-0.6
			c-0.4-0.4-0.6-0.9-0.6-1.4c0-0.5,0.2-1.1,0.6-1.5c0.4-0.4,1-0.6,1.5-0.6L225.9,88.5z M223.5,91.6c0.2,0.2,0.5,0.3,0.8,0.3
			c0.4,0,0.8-0.1,1.2-0.3c0.6-0.3,1-0.9,0.9-1.5v-0.9c-0.2,0.1-0.3,0.2-0.5,0.2c-0.2,0.1-0.4,0.1-0.6,0.1l-0.7,0.1
			c-0.3,0-0.6,0.1-0.9,0.3c-0.3,0.2-0.6,0.5-0.5,0.9C223.1,91.1,223.3,91.4,223.5,91.6z"/>
		<path class="st1" d="M229.7,84h1.1v1.9h1.1v0.9h-1.1v4.4c0,0.2,0.1,0.4,0.2,0.5c0.1,0.1,0.3,0.1,0.4,0.1h0.2h0.2v0.9
			c-0.1,0-0.3,0.1-0.4,0.1h-0.5c-0.4,0-0.8-0.1-1.1-0.4c-0.2-0.3-0.3-0.7-0.3-1.1v-4.5h-0.9v-0.9h0.9L229.7,84z"/>
		<path class="st1" d="M233.1,83.3h1.1v1.3h-1.1V83.3z M233.1,85.9h1.1v6.7h-1.1V85.9z"/>
		<path class="st1" d="M240.8,86.5c0.6,0.7,1,1.6,0.9,2.6c0,1-0.2,1.9-0.8,2.7c-0.6,0.7-1.5,1.1-2.4,1.1c-0.8,0-1.6-0.3-2.2-0.9
			c-0.6-0.7-0.9-1.6-0.8-2.5c-0.1-1,0.3-1.9,0.9-2.7c0.6-0.7,1.4-1,2.3-1C239.5,85.6,240.3,86,240.8,86.5z M240.1,91
			c0.3-0.6,0.4-1.2,0.4-1.9c0-0.5-0.1-1.1-0.3-1.5c-0.3-0.6-1-1-1.6-0.9c-0.6,0-1.2,0.3-1.5,0.8c-0.3,0.6-0.5,1.2-0.5,1.9
			c0,0.6,0.1,1.3,0.5,1.8c0.3,0.5,0.9,0.8,1.5,0.7C239.2,91.9,239.8,91.6,240.1,91L240.1,91z"/>
		<path class="st1" d="M243.1,85.9h1.1v1c0.3-0.4,0.6-0.6,1-0.8c0.4-0.2,0.8-0.3,1.2-0.3c0.8-0.1,1.6,0.3,1.9,1
			c0.2,0.5,0.3,1,0.3,1.6v4.3h-1.2v-4.3c0-0.3,0-0.7-0.2-1c-0.2-0.4-0.6-0.7-1.1-0.6c-0.2,0-0.4,0-0.7,0.1c-0.3,0.1-0.6,0.3-0.8,0.5
			c-0.2,0.2-0.3,0.4-0.4,0.7c-0.1,0.3-0.1,0.7-0.1,1v3.5h-1.1L243.1,85.9z"/>
	</g>
</g>
</svg>
