<?xml version="1.0" encoding="utf-8"?>
<!-- Generator: Adobe Illustrator 24.0.1, SVG Export Plug-In . SVG Version: 6.00 Build 0)  -->
<svg version="1.1" id="Layer_1" xmlns="http://www.w3.org/2000/svg" xmlns:xlink="http://www.w3.org/1999/xlink" x="0px" y="0px"
	 viewBox="0 0 300 100" style="enable-background:new 0 0 300 100;" xml:space="preserve">
<style type="text/css">
	.st0{fill:#3E3E3E;}
</style>
<title>HRSD- Web- Dark</title>
<g id="Layer_2_1_">
	<g id="Layer_1-2">
		<path class="st0" d="M18.9,55.8c0.6,0.1,1.2-0.4,1.3-1l0,0c0,0,0-0.1,0-0.2c-0.1-0.7-0.7-1.3-1.4-1.2c-0.6,0.1-1.1,0.5-1.2,1.2
			C17.6,55.2,18.1,55.8,18.9,55.8L18.9,55.8z"/>
		<path class="st0" d="M22.3,55.8c0.6,0.1,1.2-0.4,1.3-1l0,0c0,0,0-0.1,0-0.2c0-0.7-0.5-1.3-1.3-1.3S21,53.9,21,54.6
			C21,55.2,21.6,55.8,22.3,55.8L22.3,55.8L22.3,55.8z"/>
		<path class="st0" d="M25.4,68.3c-0.6-0.1-1.3,0.4-1.4,1.1l0,0v0.1c0,0.7,0.5,1.3,1.3,1.3s1.3-0.5,1.3-1.3l0,0
			C26.5,68.8,26,68.3,25.4,68.3L25.4,68.3z"/>
		<path class="st0" d="M28.7,68.3c-0.6-0.1-1.3,0.4-1.3,1.1v0.1c0,0.7,0.5,1.3,1.3,1.3s1.3-0.5,1.3-1.3l0,0
			C29.9,68.8,29.4,68.3,28.7,68.3L28.7,68.3z"/>
		<path class="st0" d="M36.6,62c-0.1-1.4,0.9-2.4,2.2-2.5H39c0.9,0,1.7,0.3,2.5,0.6l0.6-1.9c-1-0.5-2.2-0.7-3.2-0.8
			c-2.2-0.2-4,1.4-4.2,3.6c0,0.2,0,0.5,0,0.6c0.1,1.1,0.3,2.1,0.6,3.1H31v-7.1h-2v7.1h-5.6v-7.1h-3.2c-3.1,0-5.2,1.9-5.2,4.6l0,0
			c0,2.7,2,4.6,5,4.6h22.6v-2.1h-5C37,63.9,36.6,63,36.6,62z M21.5,64.7h-1.7c-1.4,0.1-2.7-0.9-2.8-2.3c0-0.1,0-0.2,0-0.2l0,0
			c0-1.4,1.2-2.6,2.6-2.6c0.1,0,0.2,0,0.3,0h1.7L21.5,64.7z"/>
		<path class="st0" d="M60.6,56.1c0.6,0.1,1.2-0.4,1.3-1.1c0,0,0-0.1,0-0.2c0-0.7-0.5-1.3-1.3-1.3s-1.3,0.5-1.3,1.3
			C59.4,55.5,59.9,56,60.6,56.1L60.6,56.1z"/>
		<path class="st0" d="M64,56.1c0.6,0.1,1.2-0.5,1.3-1.1c0.1-0.6-0.4-1.2-1.1-1.3H64c-0.6-0.1-1.3,0.5-1.3,1.1l0,0v0.1
			C62.7,55.6,63.2,56.1,64,56.1C63.9,56.1,64,56.1,64,56.1z"/>
		<path class="st0" d="M73.1,57.3c-1.2,0-2.3,0.4-3.3,0.9l0.7,1.9c0.7-0.5,1.6-0.8,2.5-0.7c2.4,0,3,2.9,4.3,5.3H67v-7.1h-2.1v7.1
			h-5.5v-2.4c0-3-1.8-4.9-4.5-4.9l0,0c-2.7,0-4.5,2-4.5,4.9l0,0c0,1.7-0.8,2.5-2.4,2.5h-1.3v-11h-2v12.9h3.4c1.4,0,2.8-0.4,3.3-1.5
			c0.9,1.1,2.3,1.6,3.6,1.5h25v-2.1C78.1,63.9,78.1,57.3,73.1,57.3z M57.5,64.7H55c-1.3,0.1-2.3-0.8-2.5-2.1l0,0c0-0.2,0-0.3,0-0.5
			l0,0c0-1.7,1-2.8,2.5-2.8l0,0c1.4,0,2.4,1.1,2.4,2.8L57.5,64.7z"/>
		<path class="st0" d="M74.4,68.3c-0.6-0.2-1.3,0.3-1.4,0.9c-0.2,0.6,0.3,1.3,0.9,1.4c0.1,0,0.1,0,0.2,0c0.1,0,0.2,0,0.3,0
			c0.6,0.1,1.3-0.4,1.3-1.1l0,0v-0.1C75.7,68.8,75.1,68.3,74.4,68.3C74.5,68.3,74.5,68.3,74.4,68.3L74.4,68.3z"/>
		<polygon class="st0" points="89.7,64.7 82.5,64.7 82.5,66.7 91.7,66.7 91.7,53.9 89.7,53.9 		"/>
		<rect x="84.7" y="55.1" class="st0" width="2.1" height="8.5"/>
		<rect x="94.3" y="53.9" class="st0" width="2" height="12.9"/>
		<path class="st0" d="M103.6,54.6c0,0.7,0.5,1.3,1.3,1.3c0.7,0,1.3-0.5,1.3-1.3s-0.5-1.3-1.3-1.3l0,0
			C104.1,53.2,103.6,53.9,103.6,54.6L103.6,54.6z"/>
		<path class="st0" d="M106.9,54.6c0,0.7,0.5,1.3,1.3,1.3s1.3-0.5,1.3-1.3s-0.5-1.3-1.3-1.3l0,0C107.5,53.2,106.9,53.9,106.9,54.6
			L106.9,54.6z"/>
		<path class="st0" d="M111.1,68.3c-0.6-0.1-1.3,0.4-1.3,1.1v0.1c0.1,0.7,0.7,1.3,1.3,1.2s1.1-0.5,1.2-1.2
			C112.4,68.8,111.8,68.3,111.1,68.3L111.1,68.3z"/>
		<path class="st0" d="M114.5,68.3c-0.6-0.1-1.3,0.4-1.3,1.1v0.1c0,0.7,0.5,1.3,1.3,1.3c0.7,0,1.3-0.5,1.3-1.3l0,0
			C115.8,68.8,115.3,68.3,114.5,68.3L114.5,68.3z"/>
		<path class="st0" d="M132.6,56.1c0.6,0.1,1.2-0.4,1.3-1.1l0,0c0,0,0-0.1,0-0.2c0.1-0.7-0.4-1.3-1.2-1.3c-0.7-0.1-1.3,0.5-1.3,1.2
			C131.3,55.4,131.8,56,132.6,56.1L132.6,56.1L132.6,56.1z"/>
		<path class="st0" d="M139.4,53.9c-0.6-0.1-1.3,0.5-1.3,1.1V55c0.1,0.7,0.7,1.3,1.4,1.2c0.6-0.1,1.1-0.5,1.2-1.2
			C140.6,54.4,140.1,53.9,139.4,53.9L139.4,53.9z"/>
		<path class="st0" d="M141.7,55c-0.1,0.7,0.4,1.3,1.2,1.3c0.7,0,1.4-0.4,1.4-1.2c0.1-0.7-0.4-1.3-1.2-1.3H143
			C142.3,53.8,141.7,54.2,141.7,55L141.7,55z"/>
		<path class="st0" d="M150.5,64.7h-4.2v-7.1h-2.1v7.1h-6.1v-7.1h-2.1v7.1h-5.8v-2.4c0-3-1.8-4.9-4.5-4.9l0,0c-2.7,0-4.5,2-4.5,4.9
			l0,0c0,1.7-0.8,2.5-2.4,2.5h-2.1v-7.2h-2.1v7.1h-5.5v-7.1h-3.3c-3.2,0-5.2,1.9-5.2,4.6l0,0c0,2.7,2,4.6,4.9,4.6h13.1
			c1.4,0,2.8-0.4,3.3-1.5c0.9,1.1,2.3,1.6,3.6,1.5h26.6V53.9h-2L150.5,64.7z M107.3,64.7h-1.7c-1.4,0.1-2.7-0.9-2.8-2.3
			c0-0.1,0-0.2,0-0.2l0,0c0-1.4,1.2-2.6,2.6-2.6c0.1,0,0.2,0,0.3,0h1.7L107.3,64.7L107.3,64.7z M128.3,64.7h-2.5
			c-1.3,0.1-2.3-0.8-2.5-2.1l0,0c0-0.2,0-0.3,0-0.5l0,0c0-1.7,1-2.8,2.5-2.8l0,0c1.5,0,2.4,1.1,2.4,2.8L128.3,64.7z"/>
		<rect x="155.1" y="53.9" class="st0" width="2" height="12.9"/>
		<path class="st0" d="M164.1,57.6c-3.2,0-5.2,1.9-5.2,4.6l0,0c0,2.7,2,4.6,5,4.6h1.5c-0.1,1.1-0.8,1.4-1.9,1.4
			c-0.9,0-1.8-0.2-2.7-0.5l0.4,2.2c0.7,0.2,1.5,0.4,2.3,0.3c2.6,0,3.9-1,3.9-4.1v-8.6L164.1,57.6z M165.4,62.1L165.4,62.1v2.6h-1.7
			c-1.4,0.2-2.7-0.9-2.9-2.3c0-0.1,0-0.2,0-0.3l0,0c0-1.4,1.2-2.6,2.6-2.6c0.1,0,0.2,0,0.3,0h1.7V62.1z"/>
		<path class="st0" d="M120.9,41.5c0-2.9-1.4-4.4-4.3-4.4h-1.4v2.1h1.7c1.1-0.1,2,0.6,2.2,1.6c0,0.2,0,0.4,0,0.5v3h-5.6v2.1h7.6
			L120.9,41.5L120.9,41.5z"/>
		<path class="st0" d="M126.1,45.9V37H124v9.2c0,1.3-0.6,1.7-1.4,1.7c-0.5,0-0.7,0-1.3-0.1l-0.2,1.8c0.4,0.1,0.8,0.2,1.3,0.2
			C124.6,49.7,126.1,48.9,126.1,45.9z"/>
		<rect x="128.4" y="33.4" class="st0" width="2" height="12.9"/>
		<path class="st0" d="M137.1,46.2h1.5c0,1.1-0.8,1.4-1.9,1.4c-0.9,0-1.8-0.2-2.7-0.5l0.4,2.2c0.6,0.2,1.3,0.4,1.9,0.3
			c2.4,0,4.1-0.8,4.3-3.5h4.3c1.4,0,2.6-0.5,3.1-1.4c0.8,1.1,2.1,1.5,3.6,1.5h10.7V33.4h-2.1v10.9h-4.2v-2.5c0-2.9-1.8-4.9-4.5-4.9
			l0,0c-2.7,0-4.5,1.9-4.5,4.9l0,0c0,1.7-0.8,2.5-2.4,2.5h-4.1v-7.2h-3.3c-3.1,0-5.2,1.9-5.2,4.6l0,0
			C132.2,44.4,134.2,46.2,137.1,46.2z M149.3,41.7c0-1.7,1-2.8,2.5-2.8l0,0c1.4,0,2.4,1.1,2.4,2.8v2.5h-2.5c-1.3,0.1-2.3-0.8-2.4-2
			l0,0C149.2,42,149.2,41.9,149.3,41.7L149.3,41.7z M134.1,41.7c0-1.4,1.2-2.6,2.6-2.6c0.1,0,0.2,0,0.3,0h1.7v2.5l0,0v2.6h-1.7
			c-1.4,0.1-2.7-0.9-2.8-2.3C134.1,41.9,134.1,41.8,134.1,41.7L134.1,41.7z"/>
		<rect x="165.1" y="33.4" class="st0" width="2" height="12.9"/>
		<path class="st0" d="M56.5,35.2c0.6,0.1,1.2-0.4,1.3-1.1v-0.1c0-0.7-0.5-1.3-1.3-1.3c-0.7,0-1.3,0.5-1.3,1.3
			C55.2,34.7,55.8,35.2,56.5,35.2L56.5,35.2L56.5,35.2z"/>
		<path class="st0" d="M53.2,35.2c0.6,0.1,1.2-0.4,1.3-1.1v-0.1c0-0.7-0.5-1.3-1.3-1.3c-0.7,0-1.3,0.5-1.3,1.3
			C51.9,34.7,52.4,35.2,53.2,35.2L53.2,35.2L53.2,35.2z"/>
		<path class="st0" d="M54.2,46.2h11.1V37h-2v7.1h-5.5V37h-3.3c-3.1,0-5.2,1.9-5.2,4.6l0,0C49.2,44.4,51.2,46.2,54.2,46.2z
			 M51.1,41.7c0-1.4,1.2-2.6,2.6-2.6c0.1,0,0.2,0,0.3,0h1.7v5.1H54c-1.4,0.1-2.7-0.9-2.8-2.3C51.1,41.8,51.1,41.7,51.1,41.7z"/>
		<path class="st0" d="M83.2,34.3c0.6,0.1,1.1-0.4,1.2-1l0,0v-0.1c0.1-0.6-0.5-1.3-1.1-1.3c-0.6-0.1-1.3,0.5-1.3,1.1
			C82,33.6,82.5,34.3,83.2,34.3L83.2,34.3z"/>
		<path class="st0" d="M81.6,36.8c0.6,0,1.2-0.5,1.2-1.3c0-0.6-0.5-1.2-1.3-1.2c-0.6,0-1.2,0.5-1.2,1.3
			C80.3,36.2,80.9,36.7,81.6,36.8L81.6,36.8z"/>
		<path class="st0" d="M83.7,35.6c-0.1,0.6,0.4,1.3,1.1,1.3s1.3-0.5,1.3-1.1c0.1-0.6-0.4-1.3-1.1-1.3h-0.1
			C84.3,34.4,83.8,34.9,83.7,35.6C83.7,35.5,83.7,35.5,83.7,35.6L83.7,35.6z"/>
		<path class="st0" d="M104.1,33.4H102v10.9h-4v-7.2H96v7.1h-5.4v-7.1h-2v7.1h-4.2v-5.8h-2.1v5.8h-3.7v-5.8h-2v5.8h-5.2v-7.4h-2.1
			v9.4c0,1.3-0.6,1.7-1.4,1.7c-0.5,0-0.8,0-1.3-0.1l-0.2,1.8c0.4,0.1,0.8,0.2,1.3,0.2c2.1,0,3.6-0.8,3.7-3.5h32.7V33.4z"/>
		<rect x="106.7" y="33.4" class="st0" width="2" height="12.9"/>
		<path class="st0" d="M60.6,49c0-0.7-0.5-1.3-1.3-1.3c-0.7,0-1.3,0.5-1.3,1.3s0.5,1.3,1.3,1.3l0,0C60.1,50.3,60.6,49.7,60.6,49z"/>
		<path class="st0" d="M64.1,49c0-0.7-0.5-1.3-1.3-1.3c-0.7,0-1.3,0.5-1.3,1.3c0,0.7,0.5,1.3,1.3,1.3C63.4,50.3,64,49.7,64.1,49
			C64,49,64.1,49,64.1,49z"/>
		<path class="st0" d="M93.3,47.8c-0.6-0.1-1.3,0.5-1.3,1.1l0,0c0,0,0,0,0,0.1c-0.1,0.7,0.4,1.3,1.2,1.3c0.7,0.1,1.3-0.4,1.3-1.2
			C94.7,48.5,94.1,47.8,93.3,47.8L93.3,47.8z"/>
		<path class="st0" d="M221.1,30l1.3,0.2c1.9-3.6,4.2-6.9,6.8-10.1c-6.4-5-13.7-8.9-21.4-11.5L221.1,30z M255.7,57.2l-22-7.2
			l25.9,41.4C261,79.9,259.7,68.1,255.7,57.2L255.7,57.2z"/>
		<path class="st0" d="M219.6,41.2c9.5-15.3,22-26.5,40-32.6L233.6,50l-25.9,41.4C205.4,72.6,209.9,56.5,219.6,41.2z"/>
		<path class="st0" d="M182.2,33.4l27.5,9c2.9-1.6,5.9-3.1,9-4.4c0.4-1,0.8-2,1.3-2.9c0.7-1.6,1.5-3.2,2.4-4.8
			C208.9,28,195.2,29,182.2,33.4z M257.5,42.3L233.6,50L285,66.7C277.8,56.6,268.4,48.3,257.5,42.3L257.5,42.3z"/>
		<path class="st0" d="M182.2,66.7l29.3-9.5c1.1-2.9,2.3-5.7,3.7-8.4c0.8-3.7,2-7.4,3.4-10.9C204.2,44.2,191.9,53.2,182.2,66.7z
			 M246.1,30l-12.5,20L285,33.4C272.5,29.1,259.2,28,246.1,30L246.1,30z"/>
	</g>
</g>
</svg>
