<?xml version="1.0" encoding="utf-8"?>
<!-- Generator: Adobe Illustrator 24.0.1, SVG Export Plug-In . SVG Version: 6.00 Build 0)  -->
<svg version="1.1" id="Layer_1" xmlns="http://www.w3.org/2000/svg" xmlns:xlink="http://www.w3.org/1999/xlink" x="0px" y="0px"
	 viewBox="0 0 850.4 283.5" style="enable-background:new 0 0 850.4 283.5;" xml:space="preserve">
<style type="text/css">
	.st0{fill:#3E3E3E;}
	.st1{fill:#FFFFFF;}
</style>
<title>KAI.SAU- Web- Dark</title>
<g>
	<g>
		<path class="st0" d="M563.3,14.3l-10.2,10.2c6.4,30.3,10.4,73.9,10.4,122.4c0,48.5-4,92.1-10.4,122.3l0,0
			c30.2-6.4,73.9-10.4,122.3-10.4c48.5,0,92.1,4.1,122.3,10.4l10.2-10.2c-31.1-6.5-75.1-10.2-121-10.2c-46.3,0-90.8,3.8-122,10.4h0
			l-2.3,0.5l0,0l0.5-2.3c6.6-31.2,10.4-75.7,10.4-122.1C573.4,89.5,569.7,45.4,563.3,14.3L563.3,14.3z M566.5,15
			c6.4,31.3,10,75,10,120.4c0,45.5-3.6,89.1-10,120.4c31.3-6.4,75-10,120.3-10c45.5,0,89.1,3.6,120.4,10c-6.3-31.2-10-74.9-10-120.4
			c0-45.5,3.7-89.1,10-120.4c-31.3,6.4-74.9,10-120.4,10C641.5,25,597.8,21.3,566.5,15L566.5,15z"/>
		<path class="st0" d="M304,78.4c-3.5,5.8-5.2,9.6-5,11.5c1.8,16.6,3.2,30.7,4.2,42.4c2.1-5.3,3.1-9,3.1-11.4l-0.9-21.1
			C304.7,86,304.2,78.9,304,78.4L304,78.4z M403.3,78.4c-3.5,5.8-5.2,9.6-5,11.5c1.8,16.6,3.2,30.7,4.2,42.4c2.1-5.3,3.1-9,3.1-11.4
			l-0.9-21.1C404,86,403.6,78.9,403.3,78.4L403.3,78.4z M108.8,78.4c-2,2.7-3.4,4.6-4.3,5.8c1.3,14.4,2.5,29.5,3.3,45.4h12.7h60.6
			h11.2h14.7c3.1,0,5.7-1,7.7-3c0.8-0.8,2.2-1.7,4.1-3c1.9-1.2,3.3-2.3,4-3c0.4,2.8,0.6,4.6,0.9,5.4c0.6,2.4,1.7,3.6,3.3,3.6h17.9
			h11.9c0.4,0,1-0.7,1.8-2c0.8-1.3,1.3-2,1.5-2c0.1,0.1,0.4,0.5,0.9,1.4c0.4,0.9,0.8,1.4,1.1,1.7c0.9,0.6,1.8,0.9,2.7,0.9h2v0h17.4
			c0.6,0,1.3-1.7,1.9-5.2c0.6-3.3,0.9-5.7,0.9-7.4l-2.2-22.2l1,0.3l3.8-7.5c-1.9-1-3.8-2-5.7-3.1c-0.5-0.3-0.8-0.6-0.8-1l0.3-1.1
			l0.3-1.1l-0.6-0.6c-0.3-0.3-0.8,0.2-1.4,1.3l-3.4,6c-0.3,0.6-0.4,1.1-0.4,1.6c0,0.7,0.4,1.4,1.3,1.9l0.5,0.2
			c2.6,15.4,3.9,25.3,3.9,29.7c0,1.1-0.1,1.6-0.3,1.6h-16.3v0h-0.3c-0.8,0-1.3-0.3-1.3-0.8c0-0.1,0.1-0.7,0.3-2
			c1-5.5,1.5-9.6,1.5-12.5l-0.1-0.8c-2.5,2.8-4.5,5.2-6,7.2l-0.2,8.7h-17.3v0h-15.3l-0.7-0.4c-1.1-0.8-1.7-1.9-1.7-3.2
			c2.5-1.2,6.1-1.9,10.7-1.9c1,0,1.8,0.1,2.3,0.1c1.4-3,2.3-5.3,2.8-6.8c-0.3,0-1,0-2.3,0.1H237c-3.3,0-8.6-1.1-15.9-3.2
			c-4.8-1.4-8.3-2.2-10.6-2.2c-3.9,0-6.9,2.5-9,7.4c-0.5,1.2-0.7,2.1-0.7,2.9l0.1,0.3c3.1-2.3,5.6-3.4,7.4-3.4l3.6,0.8
			c5,1,8.8,1.8,11.4,2.4c-5.9,4.8-11.3,7.2-16.1,7.2h-14.9h-11.2h-60.6h-3.4c-1.7,0-2.9-0.3-3.5-1l-0.6-0.6c-0.4-0.8-1.1-6.8-2.1-18
			L108.8,78.4L108.8,78.4z M241.6,110.8C241.7,110.8,241.8,110.8,241.6,110.8C241.6,110.8,241.6,110.8,241.6,110.8z M46.3,86.7
			l-3.2,5.5l7.8,4.5l2.2-4.2l7.3,4.4l3.1-5.2l-7.6-4.6l-2.5,4.1L46.3,86.7L46.3,86.7z M339,86.7l-3.2,5.5l7.8,4.5l2.2-4.2l7.3,4.4
			l3.1-5.2l-7.6-4.6l-2.5,4.1L339,86.7L339,86.7z M424,88.9l-3.3,5.3l7.5,4.5l3.2-5.4L424,88.9L424,88.9z M248.7,89.3l-3.2,5.5
			l7.6,4.4l2.3-4.1l7.4,4.4l3.2-5.2l-7.7-4.6l-2.4,4.1L248.7,89.3L248.7,89.3z M55.8,102.9l-6.1,8c-4.8,6.2-7.1,10.9-7.1,13.9
			c0,2,1,3.4,3,4.3c1.6,0.7,3.5,1,5.6,0.7c3.3-0.4,6-1.5,8.4-3.3c1.2-0.9,2.4-2.2,3.7-3.9c1.7-3.7,2.6-6.3,2.6-7.9
			c0-2.1-0.8-4-2.4-5.5c-0.5-0.5-1.8-1.5-3.8-2.9C57.7,104.8,56.5,103.7,55.8,102.9L55.8,102.9z M348.4,102.9l-6.1,8
			c-4.8,6.2-7.1,10.9-7.1,13.9c0,2,1,3.4,3,4.3c1.6,0.7,3.5,1,5.6,0.7c3.3-0.4,6-1.5,8.4-3.3c1.2-0.9,2.4-2.2,3.7-3.9
			c1.7-3.7,2.6-6.3,2.6-7.9c0-2.1-0.8-4-2.4-5.5c-0.5-0.5-1.8-1.5-3.8-2.9C350.4,104.8,349.2,103.7,348.4,102.9L348.4,102.9z
			 M463.9,104.4c-1.9,0-4.1,2-6.7,6.1c-2.4,3.8-3.5,6.8-3.5,9c0,2,0.4,3.7,1.2,5.3c1,1.9,2.3,3,4.1,3.1c2.1,0.2,3.6,0,4.6-0.6
			c1.5-0.8,3-2.8,4.4-6c0.4,1,0.5,2.4,0.5,4.1c0.1,3.4-2,7.3-6.3,11.4c-3.9,3.8-8,6.5-12.2,8c-0.8,0.3-1.8,0.4-2.9,0.4
			c-1,0-2.5-0.2-4.4-0.7c-2-0.5-3.4-0.7-4.3-0.7c-0.6,0-1,0.2-1,0.7c0,0.9,2.5,1.8,7.5,2.9c3.9,0.8,7,1.3,9.3,1.5
			c2.5,0.2,5.1-1,7.9-3.7c2.2-2.2,3.9-4.6,5.3-7.4c2.6-5.4,3.9-11.2,3.9-17.4c0-3.7-0.9-7.4-2.8-10.9
			C466.8,106.1,465.3,104.4,463.9,104.4L463.9,104.4z M86.2,107.4c-0.8,3.9-1.4,6.6-1.7,8c5.9,4.3,8.8,7.6,8.8,10.1
			c0,3.4-2.4,7.4-7.2,12.1c-4.8,4.7-8.9,7-12.4,7c-1.6,0-3.6-0.5-6.2-1.6c-2.6-1-3.9-1.6-4.2-1.6l-0.6,0.5c0,1.2,2.4,2.7,7.1,4.5
			c4.4,1.6,7.6,2.5,9.4,2.5c3.8,0,7.4-2.5,10.8-7.4c3.8-5.4,5.6-10.4,5.6-15.1c0-4.9-1-9-2.9-12.2C91.5,112.1,89.3,109.8,86.2,107.4
			L86.2,107.4z M378.8,107.4c-0.8,3.9-1.4,6.6-1.8,8c5.9,4.3,8.8,7.6,8.8,10.1c0,3.4-2.4,7.4-7.2,12.1c-4.8,4.7-8.9,7-12.4,7
			c-1.6,0-3.6-0.5-6.2-1.6c-2.6-1-4-1.6-4.2-1.6l-0.6,0.5c0,1.2,2.4,2.7,7.1,4.5c4.4,1.6,7.6,2.5,9.4,2.5c3.8,0,7.4-2.5,10.8-7.4
			c3.8-5.4,5.6-10.4,5.6-15.1c0-4.9-1-9-2.9-12.2C384.2,112.1,381.9,109.8,378.8,107.4L378.8,107.4z M430.2,107.4
			c-0.8,3.9-1.4,6.6-1.7,8c5.9,4.3,8.8,7.6,8.8,10.1c0,3.4-2.4,7.4-7.2,12.1c-4.8,4.7-9,7-12.4,7c-1.6,0-3.6-0.5-6.2-1.6
			c-2.6-1-4-1.6-4.2-1.6l-0.5,0.5c0,1.2,2.4,2.7,7.1,4.5c4.4,1.6,7.6,2.5,9.4,2.5c3.8,0,7.4-2.5,10.8-7.4c3.8-5.4,5.7-10.4,5.7-15.1
			c0-4.9-1-9-2.9-12.2C435.5,112.1,433.3,109.8,430.2,107.4L430.2,107.4z M53.5,110.8c4.7,2.9,7.1,5.5,7.2,7.8c0.1,1-0.5,2-1.7,2.7
			c-2.6,1.1-5,1.6-7.3,1.6c-2.5,0-3.8-1.1-3.8-3.2c0-0.6,0.2-1.3,0.5-2C50.4,114.8,52,112.6,53.5,110.8L53.5,110.8z M346.2,110.8
			c4.7,2.9,7.1,5.5,7.2,7.8c0,1-0.5,2-1.7,2.7c-2.6,1.1-5,1.6-7.3,1.6c-2.5,0-3.8-1.1-3.8-3.2c0-0.6,0.2-1.3,0.5-2
			C343.1,114.8,344.8,112.6,346.2,110.8L346.2,110.8z M461.6,112.3c1.3,0.1,2.5,1,3.5,2.8c0.9,1.6,1.4,3.1,1.4,4.6
			c-0.7,0.8-2,1.3-4.1,1.3c-1.2,0-2.4-0.2-3.7-0.7c-1.6-0.6-2.4-1.4-2.4-2.5c0-1,0.6-2.1,1.9-3.4
			C459.5,112.9,460.7,112.3,461.6,112.3L461.6,112.3z M217.1,138.3l-3.2,5.1l7.2,4.5l3.2-5.3C224.3,142.6,217.1,138.3,217.1,138.3z"
			/>
		<path class="st0" d="M236.8,162.5c-0.9,0-1.7,0.1-2.3,0.4c-0.7,0.2-1.3,0.5-1.8,1c-0.5,0.4-0.9,0.9-1.1,1.5
			c-0.3,0.6-0.4,1.2-0.4,1.8v5h-3.7v3.6h3.7v18.9h5.2v-18.9h3.8v-3.6h-3.8v-4.4c0-0.6,0.1-1,0.4-1.2l1.1-0.4l0.8,0.3
			c0.5,0.2,1.1,0.4,1.8,0.7v-3.4c-0.6-0.4-1.3-0.7-1.9-0.9C237.9,162.6,237.3,162.5,236.8,162.5L236.8,162.5z M267.3,162.5
			c-1.5,0-3,0.2-4.3,0.6c-1.3,0.4-2.5,1-3.6,1.7c-1.1,0.7-2,1.6-2.9,2.6c-0.8,1-1.5,2.1-2.1,3.3c-0.6,1.2-1,2.5-1.3,3.8
			c-0.3,1.3-0.4,2.7-0.4,4c0,2.7,0.4,5,1,7.1c0.7,2.1,1.7,3.9,3,5.3c1.3,1.4,2.8,2.6,4.6,3.3c1.8,0.8,3.8,1.2,6,1.2
			c1.9,0,3.7-0.3,5.3-1c1.6-0.6,2.9-1.5,4.1-2.6c1.2-1.1,2.1-2.4,2.9-3.8c0.7-1.4,1.3-3,1.6-4.7h-5.2c-0.2,1.1-0.6,2.1-1,3.1
			c-0.5,1-1.1,1.9-1.8,2.7c-0.7,0.8-1.6,1.4-2.5,1.9c-1,0.5-2,0.7-3.2,0.7c-1.2,0-2.3-0.3-3.4-0.8c-1.1-0.5-2.1-1.3-3-2.4
			c-0.9-1.1-1.6-2.5-2.2-4.2c-0.5-1.6-0.8-3.6-0.8-5.9c0-1.7,0.2-3.3,0.7-4.8c0.5-1.5,1.1-2.8,1.9-4c0.8-1.1,1.8-2,3-2.7
			c1.2-0.7,2.4-1,3.8-1c2.2,0,3.9,0.6,5.3,1.7c1.4,1.1,2.5,2.8,3.3,5.1h5.3c-0.4-1.5-1-2.9-1.8-4.1c-0.8-1.3-1.7-2.4-2.9-3.3
			c-1.1-0.9-2.5-1.6-4-2.2C271,162.8,269.2,162.5,267.3,162.5L267.3,162.5z M81.3,163.4v4.5h5.1v-4.5H81.3z M113.5,163.4v4.5h5.1
			v-4.5H113.5z M47.3,163.4v31.2h5.2v-21.5l7.9,21.5h3.4l8.2-21.5v21.5h5.2v-31.2h-6l-9,23.5l-8.9-23.5H47.3z M146.4,165.6v6.5H143
			v3.5h3.4v14.9c0,0.9,0.1,1.6,0.4,2.1c0.3,0.6,0.7,1.1,1.2,1.4c0.5,0.4,1.1,0.6,1.7,0.8c0.7,0.2,1.3,0.3,2,0.3c0.5,0,1.1,0,1.8-0.1
			c0.7-0.1,1.3-0.2,1.9-0.4v-3.4c-0.7,0.1-1.3,0.2-1.7,0.3l-0.8,0.1l-1-0.5c-0.3-0.3-0.4-0.9-0.4-1.7v-13.8h3.4v-3.5h-3.4v-6.5
			H146.4L146.4,165.6z M333.6,171.7c-0.6,0-1.2,0.1-1.9,0.2c-0.6,0.1-1.3,0.3-1.9,0.5c-0.6,0.3-1.2,0.6-1.8,0.9
			c-0.6,0.4-1.1,0.8-1.5,1.4c-0.8-1.1-1.7-1.8-2.7-2.3c-1-0.4-2-0.7-3.1-0.7c-1,0-1.9,0.2-3,0.5c-1,0.3-2,0.8-2.9,1.6v-1.7h-5.1
			v22.5h5.1v-13.5c0-0.6,0.1-1.3,0.4-2c0.3-0.7,0.6-1.3,1.1-1.9c0.4-0.6,1-1.1,1.6-1.4c0.6-0.4,1.3-0.6,2-0.6l1,0.2l1,0.7
			c0.3,0.3,0.5,0.8,0.7,1.3c0.2,0.5,0.3,1.2,0.3,2.1v15.1h5.1v-13.8c0-0.8,0.1-1.5,0.4-2.2c0.3-0.7,0.7-1.3,1.1-1.8
			c0.4-0.5,1-0.9,1.5-1.2c0.6-0.3,1.1-0.4,1.7-0.4l1.2,0.2l1.1,0.7c0.3,0.3,0.6,0.8,0.8,1.3c0.2,0.5,0.3,1.2,0.3,2.1v15.1h5.1v-16
			c0-1-0.2-1.9-0.6-2.8c-0.4-0.8-0.9-1.6-1.6-2.2c-0.7-0.6-1.5-1.1-2.5-1.5C335.7,171.8,334.7,171.7,333.6,171.7L333.6,171.7z
			 M369.1,171.7c-0.6,0-1.2,0.1-1.9,0.2c-0.6,0.1-1.3,0.3-1.9,0.5c-0.6,0.3-1.2,0.6-1.8,0.9c-0.6,0.4-1.1,0.8-1.5,1.4
			c-0.8-1.1-1.7-1.8-2.7-2.3c-1-0.4-2-0.7-3.1-0.7c-1,0-1.9,0.2-3,0.5c-1,0.3-2,0.8-2.9,1.6v-1.7h-5.1v22.5h5.1v-13.5
			c0-0.6,0.1-1.3,0.4-2c0.3-0.7,0.6-1.3,1.1-1.9c0.4-0.6,1-1.1,1.6-1.4c0.6-0.4,1.3-0.6,2-0.6l1,0.2l1,0.7c0.3,0.3,0.5,0.8,0.7,1.3
			c0.2,0.5,0.3,1.2,0.3,2.1v15.1h5.1v-13.8c0-0.8,0.1-1.5,0.4-2.2c0.3-0.7,0.7-1.3,1.1-1.8c0.4-0.5,1-0.9,1.5-1.2
			c0.6-0.3,1.1-0.4,1.7-0.4l1.2,0.2l1.1,0.7c0.3,0.3,0.6,0.8,0.8,1.3c0.2,0.5,0.3,1.2,0.3,2.1v15.1h5.1v-16c0-1-0.2-1.9-0.6-2.8
			c-0.4-0.8-0.9-1.6-1.6-2.2c-0.7-0.6-1.5-1.1-2.5-1.5C371.3,171.8,370.2,171.7,369.1,171.7L369.1,171.7z M214.3,171.7
			c-1.7,0-3.3,0.3-4.7,0.9c-1.3,0.6-2.5,1.4-3.4,2.5c-0.9,1.1-1.6,2.3-2.1,3.7c-0.5,1.4-0.7,2.9-0.7,4.5s0.2,3.1,0.7,4.5
			c0.5,1.4,1.2,2.6,2.1,3.7c0.9,1,2,1.9,3.4,2.5c1.4,0.6,2.9,0.9,4.7,0.9c1.7,0,3.3-0.3,4.6-0.9c1.4-0.6,2.5-1.4,3.4-2.5
			c0.9-1.1,1.6-2.3,2.1-3.7c0.5-1.4,0.7-2.9,0.7-4.5s-0.2-3.1-0.7-4.5c-0.5-1.4-1.2-2.7-2.1-3.7c-0.9-1-2.1-1.9-3.4-2.5
			C217.6,172,216,171.7,214.3,171.7z M295.3,171.7c-1.7,0-3.3,0.3-4.6,0.9c-1.3,0.6-2.5,1.4-3.4,2.5c-0.9,1.1-1.6,2.3-2.1,3.7
			c-0.5,1.4-0.7,2.9-0.7,4.5s0.2,3.1,0.7,4.5c0.5,1.4,1.2,2.6,2.1,3.7c0.9,1,2,1.9,3.4,2.5c1.3,0.6,2.9,0.9,4.6,0.9
			c1.7,0,3.3-0.3,4.7-0.9c1.4-0.6,2.5-1.4,3.4-2.5c0.9-1.1,1.7-2.3,2.1-3.7c0.5-1.4,0.7-2.9,0.7-4.5s-0.2-3.1-0.7-4.5
			c-0.5-1.4-1.2-2.7-2.1-3.7c-0.9-1-2.1-1.9-3.4-2.5C298.6,172,297.1,171.7,295.3,171.7z M102,171.7c-1.2,0-2.4,0.2-3.5,0.6
			c-1.2,0.3-2.2,0.9-3.2,1.6v-1.8h-5.2v22.5h5.2v-13.5c0-0.7,0.2-1.5,0.5-2.2c0.3-0.7,0.7-1.3,1.3-1.9c0.6-0.6,1.2-1,1.9-1.3
			c0.7-0.3,1.5-0.5,2.4-0.5c1,0,1.7,0.3,2.2,0.8c0.5,0.6,0.8,1.5,0.8,2.9v15.6h5.1v-16c0-1.1-0.2-2-0.5-2.9
			c-0.3-0.9-0.8-1.6-1.5-2.2c-0.6-0.6-1.4-1.1-2.4-1.4C104.2,171.9,103.2,171.7,102,171.7L102,171.7z M168,171.7
			c-0.9,0-1.7,0.2-2.6,0.6c-0.8,0.4-1.6,1-2.2,1.8l-0.3-2h-4.6v22.5h5.1v-13.5c0-0.7,0.1-1.4,0.3-2.1c0.2-0.7,0.5-1.3,0.9-1.7
			c0.4-0.5,0.8-0.9,1.4-1.2c0.6-0.3,1.2-0.4,1.9-0.4c0.3,0,1.1,0.3,2.6,0.8v-4.2l-1.3-0.4L168,171.7L168,171.7z M415.1,171.7
			c-0.9,0-1.7,0.2-2.6,0.6c-0.8,0.4-1.6,1-2.2,1.8l-0.3-2h-4.6v22.5h5.1v-13.5c0-0.7,0.1-1.4,0.3-2.1c0.2-0.7,0.5-1.3,0.9-1.7
			c0.4-0.5,0.8-0.9,1.4-1.2c0.6-0.3,1.2-0.4,1.9-0.4c0.3,0,1.1,0.3,2.6,0.8v-4.2l-1.3-0.4L415.1,171.7L415.1,171.7z M430.5,171.7
			c-1.6,0-3,0.3-4.3,0.9c-1.3,0.6-2.4,1.4-3.3,2.4c-0.9,1-1.6,2.2-2.1,3.6c-0.5,1.4-0.7,2.9-0.7,4.4c0,1.4,0.2,2.9,0.6,4.3
			c0.4,1.4,1,2.7,1.9,3.9c0.8,1.1,1.9,2.1,3.2,2.8c1.3,0.7,2.8,1.1,4.6,1.1c1.4,0,2.7-0.2,3.9-0.6c1.2-0.4,2.2-1,3-1.8
			c0.9-0.8,1.6-1.7,2.1-2.8c0.5-1.1,0.9-2.3,1-3.7h-5.4c-0.1,0.7-0.3,1.4-0.6,2c-0.3,0.6-0.6,1.2-0.9,1.7l-1.3,1.1
			c-0.5,0.3-1.1,0.4-1.7,0.4c-0.8,0-1.6-0.2-2.2-0.7c-0.6-0.5-1.2-1.1-1.6-1.9c-0.5-0.8-0.8-1.7-1.1-2.7c-0.2-1-0.4-2.1-0.4-3.1
			c0-1,0.1-2,0.4-2.9c0.3-0.9,0.6-1.8,1.1-2.5c0.4-0.7,1-1.3,1.7-1.7c0.7-0.4,1.4-0.6,2.3-0.6c1.1,0,2.1,0.3,2.8,1
			c0.7,0.6,1.3,1.7,1.7,3.3h5.3c-0.2-1.1-0.6-2.2-1.1-3.1c-0.5-1-1.2-1.8-2-2.5c-0.8-0.7-1.8-1.2-2.9-1.6
			C433.2,171.9,432,171.7,430.5,171.7L430.5,171.7z M391.6,171.7c-1.7,0-3.2,0.3-4.5,0.9c-1.4,0.6-2.5,1.4-3.4,2.5
			c-0.9,1-1.7,2.2-2.2,3.6c-0.5,1.4-0.8,2.8-0.8,4.3c0,1.6,0.3,3.1,0.8,4.6c0.5,1.5,1.3,2.7,2.2,3.8c1,1.1,2.1,2,3.5,2.6
			c1.3,0.6,2.9,1,4.5,1c1.2,0,2.4-0.2,3.4-0.5c1.1-0.4,2.1-0.9,3-1.6c0.9-0.7,1.7-1.5,2.3-2.5c0.7-1,1.1-2.1,1.4-3.3H397
			c-1,2.9-2.8,4.3-5.4,4.3c-0.8,0-1.5-0.2-2.2-0.6c-0.7-0.4-1.3-0.9-1.7-1.6c-0.5-0.7-0.9-1.4-1.2-2.3c-0.3-0.9-0.5-1.7-0.5-2.7
			l16.2,0v-1.6c0-1.6-0.3-3-0.7-4.4c-0.5-1.4-1.2-2.5-2.1-3.5c-0.9-1-2-1.7-3.3-2.3C394.7,172,393.2,171.7,391.6,171.7L391.6,171.7z
			 M454.5,171.7c-1.7,0-3.2,0.3-4.5,0.9c-1.4,0.6-2.5,1.4-3.4,2.5c-0.9,1-1.7,2.2-2.2,3.6c-0.5,1.4-0.8,2.8-0.8,4.3
			c0,1.6,0.3,3.1,0.8,4.6c0.5,1.5,1.3,2.7,2.2,3.8c0.9,1.1,2.1,2,3.4,2.6c1.3,0.6,2.9,1,4.5,1c1.2,0,2.4-0.2,3.5-0.5
			c1.1-0.4,2.1-0.9,3-1.6c0.9-0.7,1.7-1.5,2.3-2.5c0.7-1,1.1-2.1,1.4-3.3H460c-1,2.9-2.8,4.3-5.4,4.3c-0.8,0-1.5-0.2-2.2-0.6
			c-0.7-0.4-1.2-0.9-1.8-1.6c-0.5-0.7-0.9-1.4-1.2-2.3c-0.3-0.9-0.5-1.7-0.5-2.7l16.2,0v-1.6c0-1.6-0.3-3-0.7-4.4
			c-0.5-1.4-1.2-2.5-2.1-3.5c-0.9-1-2-1.7-3.3-2.3C457.7,172,456.2,171.7,454.5,171.7L454.5,171.7z M131.6,171.7
			c-1.1,0-2.2,0.1-3.2,0.4c-1.1,0.2-2,0.6-2.7,1.1c-0.8,0.5-1.4,1.1-1.9,1.9c-0.5,0.7-0.7,1.6-0.7,2.7c0,1,0.2,1.9,0.7,2.7
			c0.5,0.7,1.1,1.3,1.9,1.9c0.8,0.5,1.6,1,2.6,1.3c1,0.4,1.9,0.7,2.9,1.1c0.7,0.2,1.3,0.4,1.9,0.7c0.6,0.2,1.1,0.5,1.6,0.7l1.1,1
			c0.3,0.4,0.4,0.9,0.4,1.4c0,0.6-0.1,1.1-0.4,1.5l-1.1,0.9c-0.4,0.2-0.9,0.4-1.4,0.5c-0.5,0.1-1,0.1-1.5,0.1
			c-0.6,0-1.1-0.1-1.6-0.2l-1.3-0.7c-0.4-0.3-0.7-0.8-0.9-1.4c-0.2-0.5-0.3-1.2-0.3-2l-5.3,0c0,1.3,0.3,2.5,0.8,3.5
			c0.5,1,1.2,1.8,2,2.5c0.9,0.6,1.8,1.2,2.9,1.5c1.1,0.3,2.3,0.5,3.6,0.5c1.3,0,2.5-0.1,3.7-0.4c1.2-0.3,2.2-0.7,3.1-1.2
			c0.9-0.6,1.6-1.3,2.1-2.2c0.5-0.9,0.8-1.9,0.8-3.2c0-0.9-0.3-1.7-0.7-2.4c-0.5-0.7-1.1-1.3-1.9-1.8c-0.8-0.5-1.6-1-2.6-1.3
			c-1-0.4-1.9-0.7-2.9-1.1c-0.7-0.2-1.3-0.4-1.9-0.7c-0.6-0.2-1.1-0.5-1.6-0.8l-1.1-1l-0.4-1.3c0-0.7,0.3-1.3,0.9-1.8
			c0.6-0.5,1.4-0.7,2.5-0.7l1.4,0.1l1.2,0.5l0.9,1c0.2,0.4,0.4,0.9,0.5,1.5h4.2l0.6,0h0.4c0-1.2-0.3-2.2-0.8-3
			c-0.5-0.8-1.1-1.5-1.9-2.1c-0.8-0.6-1.7-1-2.8-1.2C134,171.8,132.9,171.7,131.6,171.7L131.6,171.7z M81.3,172.1v22.5h5.1v-22.5
			C86.4,172.1,81.3,172.1,81.3,172.1z M113.5,172.1v22.5h5.1v-22.5C118.6,172.1,113.5,172.1,113.5,172.1z M187.1,172.1l-5.3,15.4
			l-5.3-15.4H171l8.3,22.4l-0.9,3l-0.3,0.9l-0.4,1l-0.5,0.8l-0.6,0.3l-0.5-0.1l-0.7-0.2l-0.8-0.3l-0.8-0.3v3.8
			c0.7,0.3,1.3,0.5,1.8,0.5c0.5,0.1,1,0.1,1.5,0.1c0.5,0,1.1-0.1,1.7-0.3c0.6-0.2,1.1-0.5,1.6-0.9c0.5-0.4,1-0.9,1.5-1.5
			c0.5-0.6,0.8-1.4,1.2-2.3l9.6-27.1L187.1,172.1L187.1,172.1z M214.3,175.3c0.9,0,1.7,0.2,2.4,0.6c0.7,0.4,1.3,1,1.8,1.7
			c0.5,0.7,0.9,1.6,1.2,2.6c0.3,1,0.4,2,0.4,3.1c0,1.1-0.1,2.2-0.4,3.1c-0.3,1-0.7,1.8-1.2,2.6c-0.5,0.7-1.1,1.3-1.8,1.7
			c-0.7,0.4-1.5,0.6-2.4,0.6c-0.9,0-1.7-0.2-2.4-0.6c-0.7-0.4-1.3-1-1.8-1.7c-0.5-0.7-0.9-1.6-1.1-2.6c-0.3-1-0.4-2-0.4-3.1
			c0-1.1,0.1-2.1,0.4-3.1c0.3-1,0.6-1.9,1.1-2.6c0.5-0.7,1.1-1.3,1.8-1.7C212.6,175.5,213.4,175.3,214.3,175.3z M295.3,175.3
			c0.9,0,1.7,0.2,2.4,0.6c0.7,0.4,1.3,1,1.8,1.7c0.5,0.7,0.9,1.6,1.2,2.6c0.3,1,0.4,2,0.4,3.1c0,1.1-0.1,2.2-0.4,3.1
			c-0.3,1-0.7,1.8-1.2,2.6c-0.5,0.7-1.1,1.3-1.8,1.7c-0.7,0.4-1.5,0.6-2.4,0.6c-0.9,0-1.7-0.2-2.4-0.6c-0.7-0.4-1.3-1-1.8-1.7
			c-0.5-0.7-0.9-1.6-1.1-2.6c-0.3-1-0.4-2-0.4-3.1c0-1.1,0.1-2.1,0.4-3.1c0.3-1,0.7-1.9,1.1-2.6c0.5-0.7,1.1-1.3,1.8-1.7
			C293.6,175.5,294.4,175.3,295.3,175.3z M391.4,175.3c0.8,0,1.5,0.1,2.2,0.4c0.7,0.3,1.2,0.7,1.7,1.2c0.5,0.5,0.9,1.1,1.1,1.8
			c0.3,0.7,0.4,1.5,0.5,2.3h-11c0-0.8,0.2-1.5,0.5-2.2c0.3-0.7,0.7-1.3,1.1-1.9c0.5-0.5,1-1,1.7-1.3
			C389.9,175.4,390.6,175.3,391.4,175.3L391.4,175.3z M454.3,175.3c0.8,0,1.6,0.1,2.2,0.4c0.7,0.3,1.2,0.7,1.7,1.2
			c0.5,0.5,0.8,1.1,1.1,1.8c0.3,0.7,0.4,1.5,0.5,2.3h-11c0-0.8,0.2-1.5,0.5-2.2c0.3-0.7,0.7-1.3,1.1-1.9c0.5-0.5,1-1,1.7-1.3
			C452.9,175.4,453.6,175.3,454.3,175.3L454.3,175.3z"/>
	</g>
	<path class="st1" d="M686.8,41.3c-0.3,0.4-0.7,1.1-1.2,2c-0.1,0.2-0.2,0.5-0.3,0.7v0c-0.3,0.8-0.6,1.7-0.8,2.8l-0.1,0.7l-0.6-0.3
		l-0.4-0.1l-0.4,0.2c-0.8,0.9-1,4-0.6,7.8l0.1,0.6h-0.4c-0.1,0.4,0,1.4,0.3,2.9l0.1,0.8l0.3,1.4c0.2,0.9,0.4,1.9,0.7,2.9v0
		c0.2,1,0.5,2.1,0.8,3.3c0,0,0,0,0,0c0.3,1.1,0.6,2.3,0.9,3.6c0.3,1.2,0.7,2.5,1,3.7l0.1,0.3l0.4,1.5l0,0.2l0.1-0.2l0.4-1.5l0.1-0.3
		c1.1-3.7,2-7.5,2.8-10.6c0.2-1,0.5-2,0.7-2.9l0.3-1.4l0.1-0.8c0.3-1.4,0.4-2.5,0.3-2.9h-0.4l0-0.6c0.3-3.8,0.1-6.9-0.6-7.8
		l-0.4-0.2l-0.4,0.1l-0.6,0.3l-0.1-0.7c-0.2-1.1-0.5-2-0.8-2.8v0C687.8,42.7,687.3,41.8,686.8,41.3L686.8,41.3z M708,50.7
		c-0.1,0-0.3,0-0.4,0c-1.1,0.1-2.1,0.7-2.1,0.7l-0.2,0.2l-0.1-0.1l-0.1-0.1c-0.5-0.3-0.9-0.6-1.3-0.7c-0.1,0-0.1,0-0.2,0h0
		c0,0-0.1,0-0.1,0c0,0-0.1,0-0.1,0c-0.1,0-0.3,0-0.4,0c-0.5,0.1-0.9,0.4-1.1,0.6c-0.1,0.1-0.1,0.1-0.2,0.1c-0.1,0.1-0.1,0.1-0.1,0.1
		l-0.1,0.1L701,52l-0.4-0.4l-0.7-0.3c0,0,0,0,0,0l0,0c-1.2,0-2.6,2.6-3,3.5l-0.3,0.8l-0.5-0.7l-0.1-0.1l-0.3-0.3c0,0,0,0,0,0l0,0
		c-0.8,0-1.8,2.5-2.3,4.7l-0.2,0.9l-0.3-0.3l-0.3-0.3l-0.3-0.1l-0.3-0.2c-0.9,5-3,12.8-4.3,17.1l-0.2,0.6l1-1.1l1.2-1.2
		c1.7-1.6,3.4-3,3.8-3.3c2.4-3,1.6-4.6,1.6-4.6l-0.3-0.5l0,0l0.1,0l0.4-0.2c0.9-0.4,1.4-0.8,1.9-1.3c0.6-0.7,0.8-1.3,0.8-1.7
		c0,0,0-0.1,0-0.1l0-0.1l0-0.3l-0.1-0.3l-0.1-0.1l0,0l0.3-0.1l0.2,0c1.3-0.4,2-1.2,2.5-1.9c0.7-1,0.7-1.8,0.7-1.8l0-0.4L702,58
		c2.6-1,4.4-2.7,4.4-2.8l0.1-0.1l0.1,0c0.9-0.2,2.2-2.2,2.8-3.6c-0.2-0.4-0.5-0.7-1-0.8c-0.1,0-0.2,0-0.2,0
		C708.1,50.7,708.1,50.7,708,50.7L708,50.7z M665.7,50.7c-0.7,0-1.2,0.3-1.5,0.8c0.7,1.4,1.9,3.4,2.8,3.6l0.1,0.1l0.1,0.1
		c0,0,1.8,1.8,4.4,2.7c0,0,0,0,0,0l0.1,0l0.2,0.1l0,0.1l0,0.2c0,0.1,0.1,0.9,0.7,1.8c0.5,0.7,1.3,1.4,2.6,1.9l0.1,0l0.3,0.1
		l-0.1,0.2l-0.1,0.4v0.3c0,0.4,0.1,1.1,0.9,1.8c0.4,0.4,0.9,0.8,1.6,1.1c0.1,0,0.1,0.1,0.2,0.1h0l0.4,0.2l0,0l0.1,0l0,0.1l-0.3,0.5
		c0,0-0.8,1.5,1.6,4.6c0.2,0.1,0.7,0.5,1.3,1.1h0c0.3,0.3,0.7,0.6,1.1,1h0c0.4,0.4,0.8,0.8,1.2,1.2l1,0.9L685,76l0.1,0.2l0.9,1l0,0
		l0,0l-0.2-0.6c-1.3-4.3-3.4-12.1-4.3-17.1l0,0c0,0,0,0,0,0l-0.6,0.3l-0.6,0.6l-0.2-0.9c-0.5-2.3-1.4-4.7-2.1-4.7l0,0c0,0,0,0,0,0
		l-0.1,0.1l-0.4,0.2l-0.3,0.4l-0.2,0.3l-0.3-0.7c-0.4-0.9-1.7-3.5-3-3.5l0,0c0,0,0,0,0,0l-0.7,0.3l-0.4,0.4l-0.3-0.4
		c0,0-0.7-0.9-1.8-0.9c-0.1,0-0.3,0-0.4,0c0,0,0,0,0,0c-0.1,0-0.2,0.1-0.3,0.1c0,0-0.1,0-0.1,0l0,0c-0.3,0.1-0.6,0.3-0.9,0.5
		l-0.2,0.1l-0.1,0.1l-0.3-0.2c0,0-1-0.6-2.1-0.7C666,50.7,665.9,50.7,665.7,50.7L665.7,50.7z M660.4,56.9c-0.1,0-0.2,0-0.2,0
		c-0.1,0-0.1,0-0.2,0c-0.1,0-0.1,0-0.2,0.1c-0.1,0-0.1,0.1-0.2,0.1c0,0,0,0-0.1,0.1c0,0-0.1,0-0.1,0.1c-0.1,0.1-0.2,0.2-0.3,0.4
		c0,0.1-0.1,0.1-0.1,0.2l-0.2,0.5l-0.5-0.2c0,0-0.1-0.1-0.4-0.1c-0.1,0-0.2-0.1-0.4-0.1h0c-0.1,0-0.2,0-0.2,0h0c-0.1,0-0.2,0-0.3,0
		c-0.6,0-1.1,0.2-1.6,0.5c-0.3,0.3-0.7,0.6-0.9,1.1v0c-0.1,0.1-0.2,0.3-0.3,0.5v0l-0.1,0.3l-0.3,0h-0.2c-0.2,0-0.4,0-0.7,0
		c-0.1,0-0.3,0-0.5,0.1c0,0-0.1,0-0.1,0c-0.3,0-0.5,0.1-0.8,0.2c0,0-0.1,0-0.1,0c-0.2,0.1-0.4,0.1-0.5,0.2c-0.2,0.1-0.5,0.3-0.7,0.5
		c-0.1,0.1-0.1,0.1-0.2,0.2v0c-0.2,0.2-0.4,0.5-0.4,0.9v0c0,0,0,0,0,0c0,0.1,0,0.2,0,0.3c0.2,0.2,0.5,0.4,0.9,0.7h0
		c0.2,0.1,0.4,0.3,0.6,0.4h0c0.2,0.1,0.4,0.3,0.6,0.4h0c0.2,0.1,0.4,0.2,0.6,0.3c0.2,0.1,0.4,0.2,0.6,0.3h0c0.1,0,0.2,0.1,0.3,0.1
		c0.1,0,0.2,0.1,0.3,0.1h0c0.1,0,0.2,0,0.3,0.1c0.1,0,0.2,0,0.3,0l0.2,0l0.2,0h0l0.1,0l0.1,0h0l0.1,0.1h0c0,0,1.9,0.6,4.3,0.6
		c0.6,0,1.1,0,1.7-0.1l0.3-0.1l0.2,0.3c0,0,0.2,0.4,0.6,0.8c0.1,0.1,0.3,0.3,0.4,0.4h0c0.1,0.1,0.2,0.1,0.3,0.2h0
		c0.1,0.1,0.2,0.1,0.3,0.2h0c0.1,0.1,0.2,0.1,0.3,0.2h0c0.1,0.1,0.2,0.1,0.4,0.2h0c0.1,0.1,0.3,0.1,0.4,0.1h0
		c0.3,0.1,0.6,0.1,0.9,0.2h0c0.2,0,0.4,0,0.5,0l1-0.1l0.4-0.1l0.1,0.5c0,0,0.1,0.2,0.2,0.4c0.1,0.2,0.2,0.4,0.4,0.6
		c0.1,0.1,0.1,0.1,0.2,0.2l0.5,0.3h0l1.1,0.5l0.5,0.1h0c0.1,0,0.2,0,0.4,0.1h0c0.1,0,0.3,0,0.4,0h0c0.1,0,0.3,0,0.4,0h0h0
		c0.1,0,0.3,0,0.5,0l0.3,0l0.4,0v0.2l-0.1,0.5v0v0c0,0.1,0,0.6,0.4,1.2c0.2,0.3,0.5,0.8,0.9,1.2c0.1,0.1,0.2,0.2,0.4,0.3h0
		c0.3,0.2,0.6,0.4,0.9,0.7h0c0.2,0.1,0.4,0.2,0.6,0.3h0c0.2,0.1,0.4,0.2,0.6,0.3h0c0.3,0.1,1.8,0.4,3.7,0.9h0
		c1.1,0.3,2.3,0.7,3.5,1.1c0.5,0.2,0.9,0.4,1.4,0.5h0c0.2,0.1,0.4,0.2,0.6,0.3c0,0,0,0,0,0c0.2,0.1,0.4,0.2,0.6,0.3h0l0-0.1l0-0.1
		l-1.2-1.3c-0.3-0.3-0.5-0.6-0.8-0.8c-0.3-0.3-0.6-0.5-0.8-0.8h0c-0.6-0.5-1.1-1-1.6-1.4h0c-0.5-0.4-0.9-0.8-1.2-1h0
		c-0.3-0.2-0.5-0.4-0.5-0.4l-0.1-0.1c-2.1-2.7-2.1-4.5-1.9-5.3h0c-0.2-0.1-0.3-0.2-0.4-0.3h0c-0.1-0.1-0.3-0.2-0.4-0.3h0
		c-0.1-0.1-0.2-0.2-0.4-0.3h0c-0.1-0.1-0.2-0.2-0.3-0.3c-0.6-0.5-0.9-1.1-1.1-1.6v0c-0.1-0.2-0.1-0.3-0.1-0.5
		c-0.1-0.3-0.1-0.6-0.1-0.8c-0.7-0.3-1.2-0.7-1.7-1h0c-0.3-0.2-0.5-0.5-0.7-0.7l-0.1,0c-0.3,0-0.5,0.1-0.8,0.5
		c0,0.1-0.1,0.1-0.1,0.2l-0.1,0.2l-0.3,0.6l-0.5-0.7c-0.7-1-1.8-2.3-2.8-3.1c-0.2-0.2-0.4-0.3-0.6-0.4c-0.4-0.3-0.7-0.4-1-0.4
		c-0.1,0-0.4,0-0.6,0.8l-0.2,0.8l-0.6-0.6c0,0-0.2-0.1-0.4-0.4c-0.1-0.1-0.3-0.2-0.5-0.4h0c-0.2-0.1-0.4-0.3-0.6-0.4h0
		c-0.2-0.1-0.4-0.3-0.7-0.4h0c-0.1-0.1-0.2-0.1-0.3-0.2h0c-0.1-0.1-0.2-0.1-0.4-0.2c-0.1-0.1-0.2-0.1-0.4-0.1
		c-0.1,0-0.2-0.1-0.3-0.1h0c-0.1,0-0.2-0.1-0.3-0.1h0C660.7,56.9,660.5,56.9,660.4,56.9L660.4,56.9z M713.3,56.9
		c-0.4,0-0.8,0.1-1.2,0.3c-0.2,0.1-0.4,0.2-0.6,0.3c-0.2,0.1-0.4,0.2-0.6,0.3c-0.2,0.1-0.4,0.2-0.6,0.4c-0.5,0.4-1,0.7-1.3,1
		l-0.2,0.2l-0.4,0.4l-0.2-0.8c-0.1-0.4-0.2-0.6-0.3-0.7c-0.1,0-0.1-0.1-0.2-0.1l0,0c0,0-0.1,0-0.1,0c-0.1,0-0.3,0-0.5,0.1
		c-0.2,0.1-0.3,0.2-0.5,0.3c-0.2,0.1-0.4,0.3-0.6,0.4c-0.4,0.3-0.8,0.8-1.2,1.2l0,0c-0.6,0.7-1.2,1.4-1.6,1.9l-0.3,0.5l-0.1,0.2
		l-0.4-0.8l0,0c0-0.1-0.1-0.2-0.1-0.2c0-0.1-0.1-0.1-0.1-0.2l0,0c0,0-0.1-0.1-0.1-0.1c0,0-0.1,0-0.1-0.1c0,0,0,0,0,0
		c0,0-0.1,0-0.1-0.1c-0.1,0-0.2-0.1-0.3-0.1l-0.1,0c0,0,0,0,0,0c-0.5,0.6-1.3,1.3-2.4,1.7c0,0,0,0,0,0h0c0,0.1,0,0.2,0,0.4
		c0,0.1,0,0.3-0.1,0.4c0,0,0,0,0,0c0,0.1-0.1,0.3-0.1,0.5v0c0,0,0,0,0,0c0,0.1-0.1,0.2-0.1,0.2c0,0,0,0,0,0
		c-0.3,0.7-0.9,1.4-2.1,2.2l0,0c0,0,0,0-0.1,0c-0.1,0.1-0.2,0.1-0.4,0.2c0.1,0.3,0.1,0.8,0,1.4c0,0.2-0.1,0.4-0.1,0.6c0,0,0,0,0,0
		c0,0.1-0.1,0.2-0.1,0.3c0,0,0,0,0,0c-0.1,0.2-0.2,0.5-0.3,0.7c0,0,0,0,0,0c-0.1,0.1-0.1,0.3-0.2,0.4c0,0,0,0,0,0c0,0,0,0,0,0.1
		c-0.1,0.2-0.3,0.5-0.4,0.7c0,0,0,0.1-0.1,0.1c0,0,0,0,0,0c0,0-0.1,0.1-0.1,0.1c-0.2,0.3-0.4,0.5-0.6,0.8l-0.1,0.1
		c0,0-0.2,0.2-0.5,0.4c-0.4,0.3-1,0.9-1.7,1.5c-0.2,0.1-0.3,0.3-0.5,0.4c-0.8,0.7-1.6,1.4-2.3,2.2l-1.2,1.3l0,0.1l0,0l0,0
		c0,0,0,0,0,0l0,0c0.4-0.2,0.8-0.4,1.3-0.6c0.5-0.2,0.9-0.4,1.4-0.5c0.4-0.1,0.8-0.3,1.2-0.4h0c0.4-0.1,0.8-0.3,1.2-0.4
		c1.2-0.4,2.2-0.6,3.1-0.8c0.3-0.1,0.6-0.2,0.9-0.2c0,0,0,0,0,0c0.5-0.1,0.8-0.2,0.9-0.2c0.5-0.2,0.9-0.4,1.2-0.7
		c0.2-0.1,0.3-0.2,0.5-0.3c0.2-0.1,0.3-0.2,0.4-0.3c0.1-0.1,0.2-0.2,0.3-0.3c0,0,0,0,0,0l0,0c0.1-0.1,0.2-0.2,0.3-0.3l0,0
		c0.1-0.1,0.2-0.2,0.3-0.3l0,0c0.1-0.1,0.1-0.2,0.2-0.3c0,0,0,0,0,0c0.1-0.1,0.1-0.2,0.2-0.3c0,0,0,0,0,0c0.3-0.6,0.4-1.1,0.4-1.2v0
		l0-0.5v-0.1l0.3,0h0.3c0.3,0,0.6,0,0.9,0h0c0.3,0,0.6-0.1,0.8-0.1l0.4-0.1L705,70l0.6-0.3l0.5-0.3c0.1-0.1,0.3-0.3,0.4-0.4l0,0
		c0.3-0.4,0.3-0.7,0.3-0.7l0.1-0.5l0.5,0.1l1,0.1h0h0c0.2,0,0.4,0,0.5,0c0.3,0,0.7-0.1,1-0.2h0c0.1,0,0.3-0.1,0.4-0.1
		c0.3-0.1,0.5-0.2,0.7-0.4h0c0.1-0.1,0.2-0.1,0.3-0.2c0.1-0.1,0.2-0.1,0.3-0.2c0.7-0.6,1-1.1,1-1.1l0.1-0.2l0-0.1l0.1,0l0.3,0.1
		c0.5,0,1.1,0.1,1.7,0.1h0c0.3,0,0.6,0,0.9,0c0.3,0,0.6,0,0.8-0.1c0.3,0,0.5-0.1,0.7-0.1c0.2,0,0.4-0.1,0.6-0.1
		c0.4-0.1,0.7-0.2,0.9-0.2c0.2-0.1,0.3-0.1,0.3-0.1l0.1,0h0l0,0l0.1,0l0.4,0c0.1,0,0.2,0,0.3,0c0,0,0.1,0,0.1,0c0,0,0.1,0,0.1,0
		c1.3-0.3,3.1-1.6,3.9-2.3h0c0-0.3-0.1-0.6-0.2-0.8c-0.1-0.1-0.2-0.3-0.3-0.4c-0.2-0.3-0.6-0.5-0.9-0.6c-0.2-0.1-0.3-0.1-0.5-0.2
		c0,0,0,0,0,0c-0.2-0.1-0.4-0.1-0.5-0.1h0c-0.2,0-0.3-0.1-0.5-0.1c0,0,0,0,0,0c-0.2,0-0.3,0-0.5-0.1h0c-0.1,0-0.2,0-0.3,0
		c-0.1,0-0.3,0-0.3,0h0h-0.2l-0.1,0l-0.3,0l-0.1-0.2l-0.1-0.1c-0.4-0.8-0.9-1.4-1.6-1.7c-0.1-0.1-0.2-0.1-0.4-0.2h0
		c-0.1,0-0.3-0.1-0.4-0.1h0c-0.1,0-0.3,0-0.4,0h0c-0.1,0-0.2,0-0.3,0c-0.5,0.1-0.9,0.3-0.9,0.3l-0.4,0.2l0,0l-0.2-0.5
		c-0.1-0.2-0.2-0.4-0.4-0.6c0,0-0.1-0.1-0.2-0.1h0C713.9,56.9,713.6,56.9,713.3,56.9L713.3,56.9z M710.6,69.7c-1.4,0-3.2,0.6-4,0.8
		c0,0,0,0,0,0c-0.3,0.1-0.4,0.1-0.4,0.1l-0.2,0.1l0,0c-0.4,0.2-0.8,0.4-1.4,0.6c-0.5,0.1-1.2,0.2-1.9,0.2v0c0,0.1,0,0.3-0.1,0.4v0
		c0,0.2-0.1,0.3-0.2,0.5v0c-0.4,1-1.5,2.5-4.2,3.7l-0.1,0c0,0-0.5,0.1-1.2,0.3c-0.8,0.2-1.8,0.4-2.9,0.7c-1,0.3-2.1,0.6-3.1,1
		c-0.3,0.1-0.7,0.2-1,0.4l-0.1,0l1.4,0.2c3.7,0.8,7.8,2.4,9,2.8c0.1,0,0.3,0.1,0.4,0.1c0,0,0,0,0,0c0.6,0.1,1.3,0.1,1.8,0.1
		c0.2,0,0.4,0,0.6,0c0.4,0,0.8-0.1,1.1-0.1h0c0.2,0,0.3-0.1,0.5-0.1c0.3-0.1,0.5-0.2,0.8-0.3c1.1-0.5,1.4-1.2,1.4-1.2l0.2-0.5l0-0.1
		l0.2,0.1l0.3,0.2c0.1,0.1,0.2,0.1,0.3,0.2c0.1,0,0.1,0.1,0.2,0.1h0c0.2,0.1,0.3,0.2,0.5,0.3c0.2,0.1,0.3,0.2,0.5,0.3l0,0
		c0.8,0.4,1.6,0.6,2.3,0.6h0.1l0.5-0.1l0.5-0.1c0.6-0.2,0.9-0.6,0.9-0.6l0.2-0.2l0.2-0.2l0.4,0.3c1,0.9,2,1.4,3.1,1.6
		c0,0,0.1,0,0.1,0h0c0,0,0.1,0,0.1,0c0.3,0.1,0.7,0.1,1,0.1c0.2,0,0.3,0,0.5,0c0.3,0,0.6-0.1,0.8-0.1h0c0.1,0,0.2-0.1,0.3-0.1
		c0.2-0.1,0.4-0.1,0.5-0.2c0.1,0,0.2-0.1,0.2-0.1l0.3-0.2l0.3,0.2c1.5,1.3,3.1,2.1,4.3,2.7c0.3,0.1,0.6,0.2,0.8,0.3c0,0,0,0,0,0
		c0.2,0.1,0.5,0.2,0.6,0.2l0,0c0.4,0.1,0.6,0.2,0.6,0.2l0.1,0l0.1,0.1l0,0c0.1,0.1,0.2,0.2,0.2,0.2h0c0.3,0.2,0.7,0.4,1.2,0.5h0
		c0.2,0,0.3,0.1,0.5,0.1h0c0.2,0,0.4,0.1,0.6,0.1c0,0,0,0,0,0c0.2,0,0.4,0,0.6,0c0.2,0,0.5,0,0.7,0c1,0,1.9-0.1,2.3-0.1
		c0.2-0.3,0.3-0.6,0.3-0.9c0-0.3,0-0.6,0-0.9c-0.5-2.1-3.2-3.7-3.3-3.7h0l-0.3-0.2v-0.3c0.1-2.3-0.9-3.4-1.8-4
		c-0.5-0.3-1-0.4-1.2-0.5c-0.1,0-0.2,0-0.2,0h0l-0.5-0.1l0.1-0.5v0c0.1-0.6-0.1-1.1-0.4-1.5c-0.2-0.3-0.6-0.5-1-0.7
		c-0.7-0.3-1.7-0.4-2.8-0.4h0c-0.4,0-0.8,0-1.1,0c-0.7,0.1-1.1,0.1-1.1,0.1l-0.8,0.1l0.1-0.4l0.1-0.4c0.2-0.5,0.1-0.9,0-1.1
		c-0.1-0.1-0.3-0.3-0.5-0.3c-0.1,0-0.3-0.1-0.4-0.1c-0.2,0-0.3,0-0.5,0c-0.5,0-1.1,0.1-1.8,0.2c-0.9,0.2-1.8,0.5-2.5,0.7
		c-0.7,0.2-1.2,0.4-1.2,0.5l-0.4,0.2l-0.4,0.2l0-0.1l0.1-0.7c0-0.3,0-0.5,0-0.7c0-0.1,0-0.2-0.1-0.3c0-0.1-0.1-0.2-0.1-0.2h0
		C712.1,69.9,711.5,69.7,710.6,69.7L710.6,69.7z M663.1,69.7c-0.9,0-1.5,0.2-1.8,0.6c-0.1,0.1-0.1,0.1-0.1,0.2
		c-0.1,0.2-0.2,0.6-0.1,1l0.1,0.8l-0.8-0.3c0,0-2.9-1.2-5.1-1.4c-0.1,0-0.3,0-0.4,0c-0.1,0-0.1,0-0.1,0c-0.1,0-0.2,0-0.3,0
		c0,0-0.1,0-0.1,0c-0.1,0-0.2,0-0.3,0.1c-0.1,0-0.2,0.1-0.3,0.1c-0.1,0.1-0.2,0.1-0.2,0.2c-0.2,0.2-0.2,0.6-0.1,1.1l0.2,0.8
		l-0.7-0.1c0,0-1-0.2-2.2-0.2c-1.9,0-3.2,0.4-3.8,1.1c0,0,0,0,0,0c0,0,0,0,0,0c-0.3,0.3-0.4,0.8-0.4,1.4c0,0,0,0.1,0,0.1l0,0.1
		l0,0.5l-0.5,0.1c-0.1,0-1,0.1-1.8,0.8c-0.8,0.6-1.5,1.7-1.4,3.7v0.3l-0.3,0.1c0,0-1.9,1.1-2.8,2.6c-0.2,0.4-0.4,0.7-0.5,1.1
		c-0.1,0.6,0,1.2,0.2,1.7c0.4,0,1.3,0.1,2.3,0.1c1.7,0,3-0.3,3.6-0.8c0.1-0.1,0.2-0.1,0.2-0.2l0.1-0.1l0.1-0.1c0,0,3.3-0.9,6.4-3.4
		l0.3-0.2l0.3,0.2c0,0,0.7,0.4,1.8,0.5c0.2,0,0.3,0,0.5,0c1.3,0,2.7-0.5,3.9-1.5c0.1-0.1,0.2-0.2,0.4-0.3l0.4-0.3l0.3,0.4
		c0,0,0.3,0.4,0.9,0.6l0.5,0.1l0.5,0.1h0.1c0.9,0,1.8-0.3,2.8-0.9c0.3-0.2,0.7-0.4,1-0.7l0.4-0.3l0.1-0.1l0.2,0.6
		c0,0,0.8,1.8,4.4,1.8c0.4,0,0.9,0,1.3-0.1c0,0,0,0,0,0c0.1,0,0.3,0,0.4,0c0.5-0.2,3.2-1.2,6.3-2.1c0.3-0.1,0.6-0.2,1-0.3
		c0.2-0.1,0.4-0.1,0.6-0.2c0.5-0.1,1-0.3,1.6-0.4l0.4-0.1l0.9-0.2l0,0l0,0l-0.1,0c-1.3-0.5-2.8-1-4.1-1.4c-2.2-0.6-4.1-1-4.1-1
		l-0.1,0c-3.5-1.7-4.3-3.7-4.5-4.6c-1.5,0-2.5-0.3-3.2-0.8l-0.2-0.1C667.5,70.6,665,69.7,663.1,69.7L663.1,69.7z M685.4,79.5
		l-0.8,0.1c-4.1,0.5-10.1,2.8-11,3.1c-0.1,0-0.3,0.1-0.3,0.1l0,0l-0.1,0c-0.7,0.1-1.4,0.1-2,0.1c-1.2,0-2.1-0.2-2.8-0.4
		c-1.2-0.4-1.8-1-2.2-1.5c0,0,0,0,0,0c0,0,0,0,0,0c-0.7,0.4-1.3,0.8-2,1c0,0,0,0-0.1,0c0,0,0,0,0,0c-0.1,0-0.1,0-0.2,0.1
		c-0.3,0.1-0.5,0.2-0.8,0.2c-0.2,0-0.3,0.1-0.5,0.1c-0.2,0-0.3,0-0.5,0l-0.3-0.1l0,0h0l0,0.2l0.1,0.5l0.2,0.7h-0.7
		c-1.4,0-5.4,0.3-6.3,2c-0.3,0.5-0.3,1,0.1,1.7l0.3,0.6l-0.6,0.2c0,0-0.2,0.1-0.6,0.2c-0.2,0.1-0.4,0.2-0.7,0.3
		c-0.2,0.1-0.5,0.2-0.8,0.4c-0.3,0.2-0.6,0.3-0.9,0.5c-0.1,0.1-0.3,0.2-0.4,0.3c-0.7,0.5-1.3,1.2-1.7,1.9c-0.3,0.8-0.4,1.6-0.1,2.4
		l0.1,0.3l0,0.1l-0.3,0.2c0,0-0.1,0-0.2,0.1c-0.6,0.5-2.7,2.6-1.7,6.7l0.1,0.2l0,0l0,0l-0.1,0.2c0,0.1-3.5,5.2-1.6,7.8c0,0,0,0,0,0
		c0,0,0,0,0,0c1.5-0.5,4.6-2,5.3-3.9l0.1-0.1l0,0l0,0h0c0,0,0.1-0.1,0.1-0.1c0.3-0.3,2.8-2.8,4.9-6.8l0.1-0.2l0.1-0.1l0,0l0.3,0
		l0.3,0h0c0.1,0,0.2,0,0.4,0c1.1-0.1,3.2-0.9,4.9-4.6l0.3-0.6l0.4,0.3l0.1,0.1l0.1,0l0.7,0.2c0.4,0,1.2-0.2,2.2-1.1l0.4-0.4
		c0.5-0.6,1-1.3,1.6-2.3l0.4-0.7l0.1,0.2l0.1,0.2l0.2,0.3c0,0,0.1,0.1,0.2,0.2c0.2,0.2,0.6,0.5,1.4,0.5c1.2,0,2.6-0.6,4.3-1.8
		c0.5-0.6,4.4-4.9,8-7.9l1.4-1.2l0.9-0.6h0v0L685.4,79.5L685.4,79.5L685.4,79.5L685.4,79.5L685.4,79.5z M688.3,79.5l-0.1,0l0.9,0.6
		c0.3,0.2,0.6,0.5,1,0.8c0.2,0.1,0.3,0.3,0.5,0.4c3.3,2.8,6.8,6.7,7.7,7.6c0.1,0.1,0.2,0.2,0.2,0.3h0c0.4,0.3,0.8,0.6,1.2,0.8h0
		c0.2,0.1,0.4,0.2,0.6,0.3h0c0.2,0.1,0.4,0.2,0.5,0.3h0c0.2,0.1,0.3,0.1,0.5,0.2h0c0.2,0.1,0.3,0.1,0.5,0.1c0.2,0,0.3,0.1,0.5,0.1h0
		c0.2,0,0.3,0,0.4,0c0.1,0,0.3,0,0.4,0c0.1,0,0.2,0,0.3-0.1c0.3-0.1,0.6-0.3,0.7-0.4c0.1-0.1,0.2-0.2,0.2-0.2l0.1-0.2l0.1-0.1l0-0.1
		l0.2-0.3l0.4,0.7c0.4,0.6,0.7,1.1,1.1,1.6c0.1,0.1,0.2,0.3,0.3,0.4c0.1,0.1,0.2,0.2,0.2,0.3l0.4,0.4c0.8,0.7,1.4,1,1.8,1.1h0
		c0.2,0,0.3,0,0.4,0c0.1,0,0.2,0,0.3,0c0.3,0,0.4-0.1,0.4-0.2c0,0,0,0,0,0l0.1-0.1l0.3-0.2l0.3,0.5c1.1,2.3,2.4,3.5,3.4,4.1
		c0,0,0,0,0,0c0.1,0.1,0.2,0.1,0.3,0.2h0c0.1,0,0.2,0.1,0.3,0.1h0c0,0,0.1,0,0.1,0c0.2,0.1,0.4,0.1,0.6,0.1c0.1,0,0.1,0,0.2,0
		c0,0,0,0,0,0c0,0,0,0,0.1,0c0.1,0,0.3,0,0.4,0h0.3l0.3-0.1l0.1,0.2l0.1,0.2c0.7,1.4,1.5,2.6,2.2,3.6c0.4,0.6,0.8,1.1,1.1,1.5
		c0.2,0.3,0.5,0.6,0.7,0.8c0,0,0,0,0,0c0.2,0.2,0.4,0.4,0.5,0.6c0.1,0.1,0,0,0.1,0.1c0.2,0.2,0.4,0.4,0.4,0.4l0.1,0.1l0,0.1
		c0.1,0.4,0.3,0.7,0.6,1l0,0c0.2,0.2,0.4,0.4,0.6,0.6l0,0c0.1,0.1,0.2,0.2,0.4,0.3l0,0c0.2,0.2,0.5,0.4,0.8,0.5l0,0
		c0.1,0,0.1,0.1,0.2,0.1c1,0.6,2.1,1.1,2.7,1.3v0c0,0,0,0,0,0c1.4-1.9-0.2-5.3-1-6.9c-0.3-0.5-0.5-0.9-0.5-0.9l-0.1-0.1l-0.1-0.1
		l0,0l0.1-0.2c0.8-3.5-0.6-5.6-1.4-6.4c-0.1-0.1-0.3-0.2-0.3-0.3h0c-0.1-0.1-0.1-0.1-0.2-0.1l-0.3-0.2l0-0.1l0.1-0.3
		c0.3-0.9,0.2-1.6-0.2-2.4c0,0,0,0,0,0c-1.2-2.4-5-3.6-5-3.6l-0.6-0.2l0.3-0.6v0c0.3-0.5,0.3-1,0.2-1.4c0-0.1-0.1-0.3-0.1-0.4
		c-0.7-1.2-3-1.7-4.8-1.9h0c-0.6-0.1-1.1-0.1-1.5-0.1h-0.7l0.2-0.5l0.1-0.2l0-0.2l0.1-0.5l0,0l0,0l-0.2,0.1h0c0,0-0.1,0-0.1,0
		c-0.3,0-0.6,0-0.9-0.1h0c-0.7-0.1-1.3-0.4-2-0.7h0c-0.3-0.2-0.7-0.4-1-0.6l0,0c0,0,0,0,0,0c-0.3,0.4-0.7,0.8-1.5,1.2l0,0
		c-0.3,0.2-0.7,0.3-1.1,0.4c-0.2,0-0.3,0.1-0.5,0.1c-0.5,0.1-1.2,0.2-1.9,0.2h0h0c-0.6,0-1.3,0-2-0.1l-0.1,0l0,0
		c0,0-0.5-0.2-1.2-0.4c-1.8-0.7-5.3-1.9-8.4-2.5c0,0,0,0,0,0c-0.3-0.1-0.6-0.1-0.9-0.2c0,0,0,0,0,0c-0.1,0-0.2,0-0.3,0
		c-0.2,0-0.4-0.1-0.5-0.1L688.3,79.5L688.3,79.5z M686.8,79.7c-1.6,1.3-2.5,3.3-3,4.3v0c-0.1,0.4-0.2,0.6-0.3,0.7v0.1l0.3,10.2
		l-2.3,1.5l1.7,9.4l-2.7,1.5l2.4,10.6l-2.7,2l3,12.4l-2.3,1.1l0,0l0,0l2.9,11.3l-2.3,2.2l0,0l0,0l2.9,12.6h-13.7
		c0,0-0.7,0.3-1.1,0.8l0,0c0,0.1-0.1,0.1-0.1,0.2c0,0.1-0.1,0.1-0.1,0.2v0c0,0.1-0.1,0.3-0.1,0.4v0c0,0.1,0,0.3,0.1,0.5
		c0.2,0.5,1.3,1.8,2.7,3.2v0c2.2,2.3,5.1,5,5.5,4.8c0.5-0.3,0.5-3,1-3.5c0.3-0.3,2.3,2.7,3.6,3.5c0,0,2.2-1.6,4.3-2.9
		c2.1,1.3,3.5,2.9,3.5,2.9c1.3-0.7,4.3-3.9,4.6-3.6c0,0.1,0.1,0.2,0.1,0.3v0c0,0.1,0.1,0.3,0.1,0.4c0,0,0,0,0,0
		c0.1,0.3,0.1,0.7,0.2,1.1c0,0,0,0,0,0c0.1,0.4,0.1,0.8,0.2,1.1c0.1,0.3,0.2,0.6,0.3,0.6c0.3,0.1,2.2-1.5,4.1-3.4
		c1.9-1.9,3.8-3.9,4.1-4.6c0.2-0.5,0.1-0.9-0.1-1.3c-0.4-0.5-1.1-0.8-1.1-0.8h-13.3L692,147l0,0l0,0l-2.3-2.2l2.9-11.3l0,0l0,0
		l-2.2-1.1l3-12.4l-2.7-2l2.4-10.6l-2.7-1.5l1.7-9.4l-2.3-1.5l0.3-10.2c0,0-0.1-0.2-0.2-0.5C689.5,83.3,688.6,81.1,686.8,79.7
		L686.8,79.7z M689.1,81.6c1.1,1.9,2.1,4.3,2.8,6.2c0.2,0.4,0.3,0.8,0.5,1.2c0.3,0.9,0.5,1.5,0.6,1.7c0.5,0.8,0.9,1.4,1.3,1.8
		c0,0,0,0,0,0c0.1,0.2,0.3,0.3,0.4,0.4l0,0c1.6,1.6,2.6,1.2,2.6,1.2l0.6-0.2l0.1,0.6c0.5,4.3,2.6,4.5,2.7,4.5h0.1l0.4,0v0.5
		c0.1,2.4,1,3.8,1.8,4.5c0.5,0.5,1,0.7,1,0.8l0.1,0.1l0.1,0.1l0,0.4c0.2,3.6,1.4,6.3,1.4,6.4l0.1,0.2l0,0.1
		c-0.1,1.2,1.6,3.5,2.8,4.7c0,0,0,0,0,0l1-0.7l0.1-0.1v0c0.7-1,0.6-3,0.5-3.9c0-0.1,0-0.3-0.1-0.4l-0.1-0.3l0.2-0.2
		c2.5-2.1,1-4.5,1-4.6l-0.3-0.5l0.4-0.3h0l0.1-0.1l0.6-1c0-0.8-0.4-1.8-1-2.6c-0.1-0.2-0.3-0.4-0.4-0.6c0,0,0,0,0,0
		c-0.5-0.6-0.9-1.1-1.2-1.3l0,0l-0.6-0.5l0.7-0.3l0.6-0.7c0,0,0,0,0,0l0,0c0-1.1-2.5-3.1-4.3-4.2l-0.7-0.4l0.7-0.5l0.2-0.2l0,0l0,0
		c-0.4-0.5-0.8-1.1-1.3-1.8c0,0,0,0,0,0c0,0,0,0,0,0c-0.2,0.1-0.4,0.3-0.7,0.4c0,0,0,0-0.1,0c0,0,0,0,0,0c-0.1,0-0.2,0.1-0.2,0.1
		c0,0,0,0,0,0c-0.3,0.1-0.6,0.1-0.9,0.1c-1.3,0-3-0.7-4.8-2l-0.1-0.1c0,0-1.9-2.2-4.3-4.5c-0.5-0.5-0.9-0.9-1.4-1.4c0,0,0,0,0,0
		c-0.5-0.5-1-0.9-1.5-1.3c0,0,0,0,0,0c-0.1-0.1-0.1-0.1-0.2-0.2c-0.2-0.2-0.4-0.3-0.5-0.5C689.6,82,689.4,81.8,689.1,81.6
		L689.1,81.6z M684.6,81.6c-3.7,2.9-8.6,8.4-8.7,8.4l-0.1,0.1c-1.1,0.8-2.2,1.4-3.2,1.7c-0.6,0.2-1.1,0.3-1.6,0.3c0,0,0,0-0.1,0
		c-0.2,0-0.4,0-0.6-0.1c0,0,0,0,0,0c-0.1,0-0.2,0-0.3-0.1h0c-0.1,0-0.2-0.1-0.2-0.1h0c-0.2-0.1-0.3-0.1-0.4-0.2
		c-0.1-0.1-0.2-0.1-0.3-0.2l0,0c0,0,0,0,0,0c-0.2,0.3-0.4,0.6-0.6,0.9l0,0c-0.2,0.3-0.4,0.6-0.7,0.8l0.1,0.1l0.1,0.1l0.7,0.5
		l-0.7,0.4c-1.8,1.1-4.3,3.1-4.3,4.2l0,0c0,0,0,0,0,0l0.6,0.7l0.7,0.3l-0.6,0.5c-0.7,0.7-2.6,2.7-2.7,4.3c0,0,0,0,0,0
		c0,0.1,0,0.2,0,0.3c0,0,0,0,0,0l0.2,0.3l0.5,0.8l0.2,0.1l0.2,0.2l-0.3,0.4c0,0.1-0.6,1-0.4,2.3v0c0,0,0,0,0,0.1
		c0,0.1,0,0.2,0.1,0.3c0,0.1,0.1,0.3,0.1,0.4v0c0.2,0.5,0.6,1.1,1.2,1.6l0.2,0.2l0,0.3c0,0-0.1,0.4-0.1,1c0,0,0,0,0,0
		c0,0.2,0,0.4,0,0.6v0c0,0,0,0,0,0c0,0.5,0,1.1,0.2,1.7v0c0,0.1,0.1,0.2,0.1,0.3v0c0,0,0,0.1,0,0.1c0.1,0.2,0.2,0.4,0.3,0.5l0.4,0.3
		l0.6,0.5c1.2-1.2,2.8-3.3,2.9-4.5c0-0.1,0-0.1,0-0.2v0V112v0l0-0.1c0,0,0.7-1.6,1.2-3.9c0.1-0.4,0.1-0.8,0.2-1.2v0
		c0-0.4,0.1-0.8,0.1-1.3v0l0-0.1l0-0.3l0.3-0.1c0.1,0,2.7-1.2,2.8-5.3v0v-0.5h0.5c0,0,0.1,0,0.1,0c0.2,0,0.6-0.2,1.1-0.6
		c0.1-0.1,0.2-0.2,0.2-0.2v0c0.1-0.1,0.2-0.2,0.2-0.3v0c0.1-0.1,0.1-0.2,0.2-0.4c0.1-0.3,0.3-0.6,0.4-0.9c0.1-0.2,0.1-0.4,0.2-0.6
		c0.1-0.4,0.2-0.9,0.3-1.4l0.1-0.6l0.1,0l0.5,0.2c0,0,0.9,0.3,2.2-0.9c0.5-0.4,1-1,1.6-1.9c0.1-0.2,0.3-0.4,0.5-0.7v0
		C680.9,90.1,682.7,85,684.6,81.6C684.6,81.6,684.5,81.6,684.6,81.6C684.5,81.6,684.6,81.6,684.6,81.6L684.6,81.6z M618,158.1
		c-5.6-0.1-11.3,0.7-16.5,2.6c0,0,0.3,0,1,0c0.7,0,1.7,0,2.9,0.1c0,0,0,0,0,0c0,0,0.1,0,0.1,0c5.2,0.3,14.8,1.6,27.2,6.7
		c1.6,0.6,3.2,1.3,4.8,2.1c1.6,0.8,3.3,1.6,5,2.5c0,0,0,0,0,0c0,0,0,0,0,0c1.7,0.9,3.5,1.9,5.3,3c1.8,1.1,3.6,2.2,5.5,3.4
		c9.5,6.3,18.8,13.7,26.7,20.5c-2.2,2-4.4,4.2-6.7,6.4c-2.2,2.2-4.5,4.5-6.7,6.9l-0.4-0.4h0h-0.9h0l-0.2,0.6l-0.7-0.9
		c0.4-1,0.1-2.3-0.9-3.2c-0.3-0.3-0.6-0.5-1-0.6c-0.1,0-0.1,0-0.2-0.1c-1-0.3-2-0.1-2.7,0.7c-0.1,0.1-0.2,0.3-0.3,0.4
		c-0.1,0.2-0.1,0.3-0.2,0.5c-0.1,0.3-0.1,0.7-0.1,1c0.1,0.7,0.4,1.4,1,1.9c0.2,0.2,0.4,0.3,0.6,0.4c0.4,0.2,0.9,0.3,1.3,0.4
		c0.2,0,0.4,0,0.7-0.1c0.6,1,0.2,1.9,0.2,1.9c-0.3,0.7-0.8,1.3-1.5,1.9c-0.4,0.3-0.7,0.6-1.2,0.8c-1.7,1.1-3.9,1.8-6,2.1
		c-0.5,0.1-1,0.1-1.5,0.1c-0.4,0-0.8,0-1.1-0.1c-0.1,0-0.2,0-0.4-0.1c-2.3-0.3-4.2-1.4-6.8-4c-1.1-1.1-2.2-1.5-3.1-1.6
		c-0.9,0-1.8,0.3-2.4,0.7c-0.7,0.4-1.2,1-1.2,1c-0.3,0.4-0.6,0.9-0.8,1.3c-0.2,0.4-0.3,0.9-0.4,1.3c0,0,0,0,0,0
		c-0.1,0.4-0.1,0.9-0.1,1.3c0,0,0,0.1,0,0.1c0.1,4.1,4.7,7.6,9.4,9c1,0.3,1.9,0.5,2.8,0.6c0.5,0.1,0.9,0.1,1.4,0.1
		c8.7,0.2,16.6-5.2,18.6-7.6c0.7-0.8,1.3-1.2,1.9-0.9c0.4,0.2,0.6,0.7,0.7,1.3c0,0,0,0.1,0,0.1c0,0,0,0,0,0c0,0,0,0,0,0
		c-0.1,0.9,0.2,1.9,1,2.6c0.4,0.4,1,0.7,1.5,0.8c0.1,0,0.1,0,0.2,0c0.8,0.1,1.6-0.1,2.2-0.8c0.8-1,0.8-2.4-0.1-3.4c0,0,0,0,0,0
		c0,0,0,0,0,0c-0.1-0.1-0.2-0.3-0.4-0.4c0,0,0,0,0,0c-0.6-0.6-1.4-0.8-2.2-0.8h0l-0.2-0.1l0.3-0.2v-0.9l-1-1
		c0.9-0.9,2.7-2.6,5.1-4.9c1.2-1.1,2.6-2.4,4.1-3.8c0,0,0,0,0,0c1.5-1.4,3.2-2.9,5-4.5c3.6,3.2,6.6,6,9.1,8.3c2.4,2.3,4.2,4,5.1,4.9
		l-1,1v0.9l0.3,0.2l-0.3,0.1c-0.7,0-1.6,0.2-2.2,0.8c0,0,0,0,0,0c-0.2,0.1-0.3,0.3-0.4,0.4c-0.5,0.6-0.7,1.3-0.6,2c0,0,0,0,0,0
		c0,0.5,0.2,1,0.6,1.4c0.6,0.7,1.5,0.9,2.4,0.8c0.5-0.1,1.1-0.4,1.5-0.8c0.8-0.7,1.2-1.6,1-2.6c0.1-0.3,0.1-0.6,0.3-0.8
		c0.1-0.2,0.3-0.4,0.5-0.5c0.7-0.3,1.2,0,2,0.9c0.3,0.3,0.6,0.6,1,1c3,2.6,10,6.7,17.6,6.6c0.4,0,0.9,0,1.4-0.1
		c0.5-0.1,0.9-0.1,1.4-0.2c5.2-1.1,10.8-4.9,10.8-9.5c0,0,0,0,0,0c0,0,0-0.1,0-0.1c0-0.7-0.2-1.3-0.4-2c-0.1-0.1-0.1-0.3-0.1-0.4
		c-0.2-0.4-0.4-0.9-0.8-1.3c0,0-0.2-0.2-0.5-0.5c-0.3-0.3-0.8-0.6-1.5-0.9c0,0,0,0,0,0c-0.3-0.1-0.6-0.2-1-0.2c-0.2,0-0.3,0-0.5,0
		c0,0-0.1,0-0.1,0c-0.9,0-2,0.5-3.1,1.6c-2.7,2.7-4.7,3.8-7.2,4c-0.3,0-0.7,0.1-1.1,0.1c-0.5,0-1,0-1.6-0.1c-0.4,0-0.8-0.1-1.2-0.2
		c-0.1,0-0.3,0-0.4-0.1c-1.1-0.3-2.1-0.6-3.1-1.1c0,0,0,0,0,0c-1.9-0.9-3.5-2.1-4.1-3.5c0,0-0.3-1,0.2-1.9c0.2,0.1,0.4,0.1,0.7,0.1
		c0,0,0.1,0,0.1,0c0.4,0,0.9-0.1,1.3-0.3c0,0,0,0,0,0c0.2-0.1,0.4-0.3,0.6-0.4c0.4-0.4,0.7-0.8,0.9-1.3c0-0.1,0-0.1,0.1-0.1
		c0,0,0,0,0,0c0.1-0.2,0.1-0.3,0.1-0.5c0,0,0,0,0,0c0.1-0.7-0.1-1.4-0.6-1.9c0,0,0,0,0,0c0,0,0,0,0,0c-0.7-0.8-1.9-1-2.9-0.6
		c-0.4,0.1-0.7,0.3-1,0.6c-0.5,0.4-0.8,1-0.9,1.5c-0.2,0.6-0.1,1.1,0.1,1.6l-0.6,0.9l-0.2-0.6h0h-0.9l-0.4,0.4
		c-2.2-2.4-4.5-4.7-6.7-6.9c-2.2-2.2-4.5-4.3-6.7-6.4c4-3.4,8.3-6.9,12.8-10.4c4.5-3.5,9.2-6.9,13.9-10.1
		c22.2-14.8,40.3-17.4,48-17.8c1.3-0.1,2.3-0.1,2.9-0.1c0.7,0,1,0,1,0c-1-0.4-2.1-0.7-3.2-1c0,0,0,0,0,0c-1.1-0.3-2.2-0.6-3.3-0.8
		c0,0,0,0,0,0c-1.1-0.2-2.2-0.4-3.3-0.5c0,0,0,0,0,0c-1.1-0.1-2.2-0.2-3.3-0.3c0,0,0,0,0,0c-4.5-0.2-9,0.1-13.3,0.8
		c-8.6,1.4-16.2,4.3-21,7c-6.8,3.9-21.5,12.9-38,27c-5.4-4.6-10.5-8.6-15.2-12.1c-9.9-7.3-18.1-12.3-22.7-14.9
		c-4.8-2.7-12.4-5.6-21-7C624.7,158.5,621.3,158.2,618,158.1L618,158.1z"/>
</g>
</svg>
