<?xml version="1.0" encoding="utf-8"?>
<!-- Generator: Adobe Illustrator 26.3.1, SVG Export Plug-In . SVG Version: 6.00 Build 0)  -->
<svg version="1.1" id="Layer_1" xmlns="http://www.w3.org/2000/svg" xmlns:xlink="http://www.w3.org/1999/xlink" x="0px" y="0px"
	 viewBox="0 0 300 100" style="enable-background:new 0 0 300 100;" xml:space="preserve">
<style type="text/css">
	.st0{fill:#FFFFFF;}
	.st1{fill:#1D1D1B;}
</style>
<g>
	<g>
		<path class="st0" d="M198.8,5l-3.6,3.6c2.3,10.7,3.7,26.1,3.7,43.2s-1.4,32.5-3.7,43.1l0,0c10.7-2.3,26.1-3.7,43.1-3.7
			c17.1,0,32.5,1.4,43.1,3.7l3.6-3.6c-11-2.3-26.5-3.6-42.7-3.6c-16.3,0-32,1.3-43,3.7l0,0l-0.8,0.2l0,0l0.2-0.8
			c2.3-11,3.7-26.7,3.7-43.1C202.3,31.6,201,16,198.8,5L198.8,5z M199.9,5.3c2.3,11,3.5,26.5,3.5,42.5c0,16.1-1.3,31.4-3.5,42.5
			c11-2.3,26.5-3.5,42.4-3.5c16.1,0,31.4,1.3,42.5,3.5c-2.2-11-3.5-26.4-3.5-42.5s1.3-31.4,3.5-42.5c-11,2.3-26.4,3.5-42.5,3.5
			C226.3,8.8,210.9,7.5,199.9,5.3L199.9,5.3z"/>
		<path class="st0" d="M107.3,27.6c-1.2,2-1.8,3.4-1.8,4.1c0.6,5.9,1.1,10.8,1.5,15c0.7-1.9,1.1-3.2,1.1-4l-0.3-7.4
			C107.5,30.3,107.3,27.8,107.3,27.6L107.3,27.6z M142.3,27.6c-1.2,2-1.8,3.4-1.8,4.1c0.6,5.9,1.1,10.8,1.5,15
			c0.7-1.9,1.1-3.2,1.1-4l-0.3-7.4C142.6,30.3,142.4,27.8,142.3,27.6L142.3,27.6z M38.4,27.6c-0.7,1-1.2,1.6-1.5,2
			c0.5,5.1,0.9,10.4,1.2,16h4.5H64h4h5.2c1.1,0,2-0.4,2.7-1.1c0.3-0.3,0.8-0.6,1.4-1.1c0.7-0.4,1.2-0.8,1.4-1.1
			c0.1,1,0.2,1.6,0.3,1.9c0.2,0.8,0.6,1.3,1.2,1.3h6.3h4.2c0.1,0,0.4-0.2,0.6-0.7c0.3-0.5,0.5-0.7,0.5-0.7s0.1,0.2,0.3,0.5
			c0.1,0.3,0.3,0.5,0.4,0.6c0.3,0.2,0.6,0.3,1,0.3h0.7l0,0h6.1c0.2,0,0.5-0.6,0.7-1.8s0.3-2,0.3-2.6l-0.8-7.8l0.4,0.1l1.3-2.6
			c-0.7-0.4-1.3-0.7-2-1.1c-0.2-0.1-0.3-0.2-0.3-0.4L100,29l0.1-0.4l-0.2-0.2c-0.1-0.1-0.3,0.1-0.5,0.5L98.2,31
			c-0.1,0.2-0.1,0.4-0.1,0.6s0.1,0.5,0.5,0.7l0.2,0.1c0.9,5.4,1.4,8.9,1.4,10.5c0,0.4,0,0.6-0.1,0.6h-5.8l0,0h-0.1
			c-0.3,0-0.5-0.1-0.5-0.3c0,0,0-0.2,0.1-0.7c0.4-1.9,0.5-3.4,0.5-4.4v-0.3c-0.9,1-1.6,1.8-2.1,2.5l-0.1,3.1H86l0,0h-5.4l-0.2-0.1
			c-0.4-0.3-0.6-0.7-0.6-1.1c0.9-0.4,2.2-0.7,3.8-0.7c0.4,0,0.6,0,0.8,0c0.5-1.1,0.8-1.9,1-2.4c-0.1,0-0.4,0-0.8,0h-0.8
			c-1.2,0-3-0.4-5.6-1.1c-1.7-0.5-2.9-0.8-3.7-0.8c-1.4,0-2.4,0.9-3.2,2.6c-0.2,0.4-0.2,0.7-0.2,1v0.1c1.1-0.8,2-1.2,2.6-1.2L75,40
			c1.8,0.4,3.1,0.6,4,0.8c-2.1,1.7-4,2.5-5.7,2.5H68h-4H42.5h-1.2c-0.6,0-1-0.1-1.2-0.4l-0.2-0.2c-0.1-0.3-0.4-2.4-0.7-6.4
			L38.4,27.6L38.4,27.6z M85.3,39.1L85.3,39.1L85.3,39.1z M16.4,30.6l-1.1,1.9l2.8,1.6l0.8-1.5l2.6,1.6l1.1-1.8l-2.7-1.6L19,32.2
			L16.4,30.6L16.4,30.6z M119.6,30.6l-1.1,1.9l2.8,1.6l0.8-1.5l2.6,1.6l1.1-1.8l-2.7-1.6l-0.9,1.4L119.6,30.6L119.6,30.6z
			 M149.6,31.4l-1.2,1.9l2.6,1.6l1.1-1.9L149.6,31.4L149.6,31.4z M87.8,31.5l-1.1,1.9l2.7,1.6l0.8-1.4l2.6,1.6l1.1-1.8l-2.7-1.6
			l-0.8,1.4L87.8,31.5L87.8,31.5z M19.7,36.3l-2.2,2.8C15.9,41.3,15,43,15,44c0,0.7,0.4,1.2,1.1,1.5c0.6,0.2,1.2,0.4,2,0.2
			c1.2-0.1,2.1-0.5,3-1.2c0.4-0.3,0.8-0.8,1.3-1.4c0.6-1.3,0.9-2.2,0.9-2.8c0-0.7-0.3-1.4-0.8-1.9c-0.2-0.2-0.6-0.5-1.3-1
			C20.4,37,20,36.6,19.7,36.3L19.7,36.3z M122.9,36.3l-2.2,2.8c-1.7,2.2-2.5,3.8-2.5,4.9c0,0.7,0.4,1.2,1.1,1.5
			c0.6,0.2,1.2,0.4,2,0.2c1.2-0.1,2.1-0.5,3-1.2c0.4-0.3,0.8-0.8,1.3-1.4c0.6-1.3,0.9-2.2,0.9-2.8c0-0.7-0.3-1.4-0.8-1.9
			c-0.2-0.2-0.6-0.5-1.3-1C123.6,37,123.2,36.6,122.9,36.3L122.9,36.3z M163.7,36.8c-0.7,0-1.4,0.7-2.4,2.2
			c-0.8,1.3-1.2,2.4-1.2,3.2c0,0.7,0.1,1.3,0.4,1.9c0.4,0.7,0.8,1.1,1.4,1.1c0.7,0.1,1.3,0,1.6-0.2c0.5-0.3,1.1-1,1.6-2.1
			c0.1,0.4,0.2,0.8,0.2,1.4c0,1.2-0.7,2.6-2.2,4c-1.4,1.3-2.8,2.3-4.3,2.8c-0.3,0.1-0.6,0.1-1,0.1s-0.9-0.1-1.6-0.2
			c-0.7-0.2-1.2-0.2-1.5-0.2c-0.2,0-0.4,0.1-0.4,0.2c0,0.3,0.9,0.6,2.6,1c1.4,0.3,2.5,0.5,3.3,0.5c0.9,0.1,1.8-0.4,2.8-1.3
			c0.8-0.8,1.4-1.6,1.9-2.6c0.9-1.9,1.4-4,1.4-6.1c0-1.3-0.3-2.6-1-3.8C164.7,37.5,164.2,36.8,163.7,36.8L163.7,36.8z M30.4,38
			c-0.3,1.4-0.5,2.3-0.6,2.8c2.1,1.5,3.1,2.7,3.1,3.6c0,1.2-0.8,2.6-2.5,4.3C28.7,50.2,27.3,51,26,51c-0.6,0-1.3-0.2-2.2-0.6
			c-0.9-0.4-1.4-0.6-1.5-0.6L22.1,50c0,0.4,0.8,1,2.5,1.6c1.6,0.6,2.7,0.9,3.3,0.9c1.3,0,2.6-0.9,3.8-2.6c1.3-1.9,2-3.7,2-5.3
			c0-1.7-0.4-3.2-1-4.3C32.3,39.5,31.5,38.8,30.4,38L30.4,38z M133.7,38c-0.3,1.4-0.5,2.3-0.6,2.8c2.1,1.5,3.1,2.7,3.1,3.6
			c0,1.2-0.8,2.6-2.5,4.3s-3.1,2.5-4.4,2.5c-0.6,0-1.3-0.2-2.2-0.6c-0.9-0.4-1.4-0.6-1.5-0.6l-0.2,0.2c0,0.4,0.8,1,2.5,1.6
			c1.6,0.6,2.7,0.9,3.3,0.9c1.3,0,2.6-0.9,3.8-2.6c1.3-1.9,2-3.7,2-5.3c0-1.7-0.4-3.2-1-4.3C135.6,39.5,134.8,38.8,133.7,38
			L133.7,38z M151.8,38c-0.3,1.4-0.5,2.3-0.6,2.8c2.1,1.5,3.1,2.7,3.1,3.6c0,1.2-0.8,2.6-2.5,4.3s-3.2,2.5-4.4,2.5
			c-0.6,0-1.3-0.2-2.2-0.6c-0.9-0.4-1.4-0.6-1.5-0.6l-0.2,0.2c0,0.4,0.8,1,2.5,1.6c1.6,0.6,2.7,0.9,3.3,0.9c1.3,0,2.6-0.9,3.8-2.6
			c1.3-1.9,2-3.7,2-5.3c0-1.7-0.4-3.2-1-4.3C153.7,39.5,152.9,38.8,151.8,38L151.8,38z M18.9,39.1c1.7,1,2.5,1.9,2.5,2.8
			c0,0.4-0.2,0.7-0.6,1c-0.9,0.4-1.8,0.6-2.6,0.6c-0.9,0-1.3-0.4-1.3-1.1c0-0.2,0.1-0.5,0.2-0.7C17.8,40.5,18.4,39.8,18.9,39.1
			L18.9,39.1z M122.2,39.1c1.7,1,2.5,1.9,2.5,2.8c0,0.4-0.2,0.7-0.6,1c-0.9,0.4-1.8,0.6-2.6,0.6c-0.9,0-1.3-0.4-1.3-1.1
			c0-0.2,0.1-0.5,0.2-0.7C121.1,40.5,121.7,39.8,122.2,39.1L122.2,39.1z M162.9,39.6c0.5,0,0.9,0.4,1.2,1s0.5,1.1,0.5,1.6
			c-0.2,0.3-0.7,0.5-1.4,0.5c-0.4,0-0.8-0.1-1.3-0.2c-0.6-0.2-0.8-0.5-0.8-0.9s0.2-0.7,0.7-1.2C162.1,39.8,162.6,39.6,162.9,39.6
			L162.9,39.6z M76.6,48.8l-1.1,1.8l2.5,1.6l1.1-1.9L76.6,48.8z"/>
		<path class="st0" d="M83.6,57.3c-0.3,0-0.6,0-0.8,0.1c-0.2,0.1-0.5,0.2-0.6,0.4c-0.2,0.1-0.3,0.3-0.4,0.5s-0.1,0.4-0.1,0.6v1.8
			h-1.3V62h1.3v6.7h1.8V62h1.3v-1.3h-1.3v-1.6c0-0.2,0-0.4,0.1-0.4l0.4-0.1l0.3,0.1c0.2,0.1,0.4,0.1,0.6,0.2v-1.2
			c-0.2-0.1-0.5-0.2-0.7-0.3C84,57.5,83.7,57.3,83.6,57.3L83.6,57.3z M94.3,57.3c-0.5,0-1.1,0.1-1.5,0.2c-0.5,0.1-0.9,0.4-1.3,0.6
			s-0.7,0.6-1,0.9c-0.3,0.4-0.5,0.7-0.7,1.2c-0.2,0.4-0.4,0.9-0.5,1.3s-0.1,1-0.1,1.4c0,1,0.1,1.8,0.4,2.5c0.2,0.7,0.6,1.4,1.1,1.9
			s1,0.9,1.6,1.2s1.3,0.4,2.1,0.4c0.7,0,1.3-0.1,1.9-0.4c0.6-0.2,1-0.5,1.4-0.9s0.7-0.8,1-1.3c0.2-0.5,0.5-1.1,0.6-1.7h-1.8
			c-0.1,0.4-0.2,0.7-0.4,1.1c-0.2,0.4-0.4,0.7-0.6,1s-0.6,0.5-0.9,0.7c-0.4,0.2-0.7,0.2-1.1,0.2s-0.8-0.1-1.2-0.3
			c-0.4-0.2-0.7-0.5-1.1-0.8c-0.3-0.4-0.6-0.9-0.8-1.5c-0.2-0.6-0.3-1.3-0.3-2.1c0-0.6,0.1-1.2,0.2-1.7s0.4-1,0.7-1.4
			c0.3-0.4,0.6-0.7,1.1-1c0.4-0.2,0.8-0.4,1.3-0.4c0.8,0,1.4,0.2,1.9,0.6c0.5,0.4,0.9,1,1.2,1.8h1.9c-0.1-0.5-0.4-1-0.6-1.4
			c-0.3-0.5-0.6-0.8-1-1.2c-0.4-0.3-0.9-0.6-1.4-0.8C95.6,57.5,95,57.3,94.3,57.3L94.3,57.3z M28.7,57.6v1.6h1.8v-1.6H28.7z
			 M40.1,57.6v1.6h1.8v-1.6H40.1z M16.7,57.6v11h1.8V61l2.8,7.6h1.2l2.9-7.6v7.6h1.8v-11h-2.1L22,65.9l-3.1-8.3
			C18.9,57.6,16.7,57.6,16.7,57.6z M51.7,58.5v2.3h-1.2V62h1.2v5.3c0,0.3,0,0.6,0.1,0.7c0.1,0.2,0.2,0.4,0.4,0.5s0.4,0.2,0.6,0.3
			c0.2,0.1,0.5,0.1,0.7,0.1s0.4,0,0.6,0c0.2,0,0.5-0.1,0.7-0.1v-1.2c-0.2,0-0.5,0.1-0.6,0.1h-0.3l-0.4-0.2c-0.1-0.1-0.1-0.3-0.1-0.6
			V62h1.2v-1.2h-1.2v-2.3H51.7L51.7,58.5z M117.7,60.6c-0.2,0-0.4,0-0.7,0.1c-0.2,0-0.5,0.1-0.7,0.2c-0.2,0.1-0.4,0.2-0.6,0.3
			s-0.4,0.3-0.5,0.5c-0.3-0.4-0.6-0.6-1-0.8c-0.4-0.1-0.7-0.2-1.1-0.2s-0.7,0.1-1.1,0.2c-0.4,0.1-0.7,0.3-1,0.6v-0.6h-1.8v7.9h1.8
			V64c0-0.2,0-0.5,0.1-0.7s0.2-0.5,0.4-0.7c0.1-0.2,0.4-0.4,0.6-0.5s0.5-0.2,0.7-0.2l0.4,0.1l0.4,0.2c0.1,0.1,0.2,0.3,0.2,0.5
			s0.1,0.4,0.1,0.7v5.3h1.8v-4.9c0-0.3,0-0.5,0.1-0.8c0.1-0.2,0.2-0.5,0.4-0.6c0.1-0.2,0.4-0.3,0.5-0.4c0.2-0.1,0.4-0.1,0.6-0.1
			l0.4,0.1l0.4,0.2c0.1,0.1,0.2,0.3,0.3,0.5c0.1,0.2,0.1,0.4,0.1,0.7v5.3h1.8V63c0-0.4-0.1-0.7-0.2-1s-0.3-0.6-0.6-0.8
			c-0.2-0.2-0.5-0.4-0.9-0.5C118.5,60.6,118.1,60.6,117.7,60.6L117.7,60.6z M130.2,60.6c-0.2,0-0.4,0-0.7,0.1
			c-0.2,0-0.5,0.1-0.7,0.2c-0.2,0.1-0.4,0.2-0.6,0.3c-0.2,0.1-0.4,0.3-0.5,0.5c-0.3-0.4-0.6-0.6-1-0.8c-0.4-0.1-0.7-0.2-1.1-0.2
			s-0.7,0.1-1.1,0.2c-0.4,0.1-0.7,0.3-1,0.6v-0.6h-1.8v7.9h1.8V64c0-0.2,0-0.5,0.1-0.7s0.2-0.5,0.4-0.7c0.1-0.2,0.4-0.4,0.6-0.5
			s0.5-0.2,0.7-0.2l0.4,0.1l0.4,0.2c0.1,0.1,0.2,0.3,0.2,0.5s0.1,0.4,0.1,0.7v5.3h1.8v-4.9c0-0.3,0-0.5,0.1-0.8
			c0.1-0.2,0.2-0.5,0.4-0.6c0.1-0.2,0.4-0.3,0.5-0.4c0.2-0.1,0.4-0.1,0.6-0.1l0.4,0.1l0.4,0.2c0.1,0.1,0.2,0.3,0.3,0.5
			s0.1,0.4,0.1,0.7v5.3h1.8V63c0-0.4-0.1-0.7-0.2-1c-0.1-0.3-0.3-0.6-0.6-0.8c-0.2-0.2-0.5-0.4-0.9-0.5
			C131,60.6,130.6,60.6,130.2,60.6L130.2,60.6z M75.6,60.6c-0.6,0-1.2,0.1-1.7,0.3s-0.9,0.5-1.2,0.9s-0.6,0.8-0.7,1.3
			c-0.2,0.5-0.2,1-0.2,1.6s0.1,1.1,0.2,1.6c0.2,0.5,0.4,0.9,0.7,1.3c0.3,0.4,0.7,0.7,1.2,0.9c0.5,0.2,1,0.3,1.7,0.3
			c0.6,0,1.2-0.1,1.6-0.3c0.5-0.2,0.9-0.5,1.2-0.9c0.3-0.4,0.6-0.8,0.7-1.3c0.2-0.5,0.2-1,0.2-1.6s-0.1-1.1-0.2-1.6
			c-0.2-0.5-0.4-1-0.7-1.3c-0.3-0.4-0.7-0.7-1.2-0.9C76.8,60.8,76.2,60.6,75.6,60.6z M104.2,60.6c-0.6,0-1.2,0.1-1.6,0.3
			c-0.5,0.2-0.9,0.5-1.2,0.9s-0.6,0.8-0.7,1.3c-0.2,0.5-0.2,1-0.2,1.6s0.1,1.1,0.2,1.6c0.2,0.5,0.4,0.9,0.7,1.3
			c0.3,0.4,0.7,0.7,1.2,0.9c0.5,0.2,1,0.3,1.6,0.3s1.2-0.1,1.7-0.3s0.9-0.5,1.2-0.9c0.3-0.4,0.6-0.8,0.7-1.3c0.2-0.5,0.2-1,0.2-1.6
			s-0.1-1.1-0.2-1.6c-0.2-0.5-0.4-1-0.7-1.3s-0.7-0.7-1.2-0.9C105.4,60.8,104.8,60.6,104.2,60.6z M36,60.6c-0.4,0-0.8,0.1-1.2,0.2
			c-0.4,0.1-0.8,0.3-1.1,0.6v-0.6h-1.8v7.9h1.8v-4.8c0-0.2,0.1-0.5,0.2-0.8c0.1-0.2,0.2-0.5,0.5-0.7c0.2-0.2,0.4-0.4,0.7-0.5
			s0.5-0.2,0.8-0.2c0.4,0,0.6,0.1,0.8,0.3s0.3,0.5,0.3,1v5.5h1.8V63c0-0.4-0.1-0.7-0.2-1s-0.3-0.6-0.5-0.8s-0.5-0.4-0.8-0.5
			C36.8,60.6,36.4,60.6,36,60.6L36,60.6z M59.3,60.6c-0.3,0-0.6,0.1-0.9,0.2c-0.3,0.1-0.6,0.4-0.8,0.6l-0.1-0.7h-1.6v7.9h1.8v-4.8
			c0-0.2,0-0.5,0.1-0.7s0.2-0.5,0.3-0.6c0.1-0.2,0.3-0.3,0.5-0.4C58.8,62,59,62,59.3,62c0.1,0,0.4,0.1,0.9,0.3v-1.5l-0.5-0.1
			L59.3,60.6L59.3,60.6z M146.5,60.6c-0.3,0-0.6,0.1-0.9,0.2c-0.3,0.1-0.6,0.4-0.8,0.6l-0.1-0.7H143v7.9h1.8v-4.8
			c0-0.2,0-0.5,0.1-0.7s0.2-0.5,0.3-0.6c0.1-0.2,0.3-0.3,0.5-0.4c0.2-0.1,0.4-0.1,0.7-0.1c0.1,0,0.4,0.1,0.9,0.3v-1.5l-0.5-0.1
			L146.5,60.6L146.5,60.6z M151.9,60.6c-0.6,0-1.1,0.1-1.5,0.3c-0.5,0.2-0.8,0.5-1.2,0.8s-0.6,0.8-0.7,1.3c-0.2,0.5-0.2,1-0.2,1.6
			c0,0.5,0.1,1,0.2,1.5c0.1,0.5,0.4,1,0.7,1.4s0.7,0.7,1.1,1c0.5,0.2,1,0.4,1.6,0.4c0.5,0,1-0.1,1.4-0.2s0.8-0.4,1.1-0.6
			c0.3-0.3,0.6-0.6,0.7-1c0.2-0.4,0.3-0.8,0.4-1.3h-1.9c0,0.2-0.1,0.5-0.2,0.7s-0.2,0.4-0.3,0.6l-0.5,0.4c-0.2,0.1-0.4,0.1-0.6,0.1
			c-0.3,0-0.6-0.1-0.8-0.2c-0.2-0.2-0.4-0.4-0.6-0.7c-0.2-0.3-0.3-0.6-0.4-1c-0.1-0.4-0.1-0.7-0.1-1.1s0-0.7,0.1-1s0.2-0.6,0.4-0.9
			c0.1-0.2,0.4-0.5,0.6-0.6c0.2-0.1,0.5-0.2,0.8-0.2c0.4,0,0.7,0.1,1,0.4c0.2,0.2,0.5,0.6,0.6,1.2h1.9c-0.1-0.4-0.2-0.8-0.4-1.1
			c-0.2-0.4-0.4-0.6-0.7-0.9c-0.3-0.2-0.6-0.4-1-0.6C152.9,60.6,152.4,60.6,151.9,60.6L151.9,60.6z M138.2,60.6
			c-0.6,0-1.1,0.1-1.6,0.3s-0.9,0.5-1.2,0.9s-0.6,0.8-0.8,1.3s-0.3,1-0.3,1.5c0,0.6,0.1,1.1,0.3,1.6s0.5,1,0.8,1.3
			c0.4,0.4,0.7,0.7,1.2,0.9s1,0.4,1.6,0.4c0.4,0,0.8-0.1,1.2-0.2s0.7-0.3,1.1-0.6c0.4-0.3,0.6-0.5,0.8-0.9s0.4-0.7,0.5-1.2h-1.7
			c-0.4,1-1,1.5-1.9,1.5c-0.3,0-0.5-0.1-0.8-0.2s-0.5-0.3-0.6-0.6c-0.2-0.2-0.3-0.5-0.4-0.8c-0.1-0.3-0.2-0.6-0.2-1h5.7v-0.6
			c0-0.6-0.1-1.1-0.2-1.6c-0.2-0.5-0.4-0.9-0.7-1.2c-0.3-0.4-0.7-0.6-1.2-0.8C139.3,60.8,138.7,60.6,138.2,60.6L138.2,60.6z
			 M160.4,60.6c-0.6,0-1.1,0.1-1.6,0.3s-0.9,0.5-1.2,0.9s-0.6,0.8-0.8,1.3s-0.3,1-0.3,1.5c0,0.6,0.1,1.1,0.3,1.6s0.5,1,0.8,1.3
			c0.3,0.4,0.7,0.7,1.2,0.9s1,0.4,1.6,0.4c0.4,0,0.8-0.1,1.2-0.2s0.7-0.3,1.1-0.6c0.4-0.3,0.6-0.5,0.8-0.9s0.4-0.7,0.5-1.2h-1.7
			c-0.4,1-1,1.5-1.9,1.5c-0.3,0-0.5-0.1-0.8-0.2s-0.4-0.3-0.6-0.6c-0.2-0.2-0.3-0.5-0.4-0.8c-0.1-0.3-0.2-0.6-0.2-1h5.7v-0.6
			c0-0.6-0.1-1.1-0.2-1.6c-0.2-0.5-0.4-0.9-0.7-1.2c-0.3-0.4-0.7-0.6-1.2-0.8C161.5,60.8,161,60.6,160.4,60.6L160.4,60.6z
			 M46.4,60.6c-0.4,0-0.8,0-1.1,0.1c-0.4,0.1-0.7,0.2-1,0.4s-0.5,0.4-0.7,0.7c-0.2,0.2-0.2,0.6-0.2,1s0.1,0.7,0.2,1
			c0.2,0.2,0.4,0.5,0.7,0.7s0.6,0.4,0.9,0.5c0.4,0.1,0.7,0.2,1,0.4c0.2,0.1,0.5,0.1,0.7,0.2s0.4,0.2,0.6,0.2l0.4,0.4
			c0.1,0.1,0.1,0.3,0.1,0.5s0,0.4-0.1,0.5l-0.4,0.3c-0.1,0.1-0.3,0.1-0.5,0.2c-0.2,0-0.4,0-0.5,0c-0.2,0-0.4,0-0.6-0.1l-0.5-0.2
			c-0.1-0.1-0.2-0.3-0.3-0.5S45,66.6,45,66.2h-1.9c0,0.5,0.1,0.9,0.3,1.2c0.2,0.4,0.4,0.6,0.7,0.9c0.3,0.2,0.6,0.4,1,0.5
			s0.8,0.2,1.3,0.2s0.9,0,1.3-0.1c0.4-0.1,0.8-0.2,1.1-0.4c0.3-0.2,0.6-0.5,0.7-0.8c0.2-0.3,0.3-0.7,0.3-1.1c0-0.3-0.1-0.6-0.2-0.8
			c-0.2-0.2-0.4-0.5-0.7-0.6c-0.3-0.2-0.6-0.4-0.9-0.5c-0.4-0.1-0.7-0.2-1-0.4c-0.2-0.1-0.5-0.1-0.7-0.2s-0.4-0.2-0.6-0.3l-0.4-0.4
			l-0.1-0.5c0-0.2,0.1-0.5,0.3-0.6s0.5-0.2,0.9-0.2h0.5l0.4,0.2l0.3,0.4c0.1,0.1,0.1,0.3,0.2,0.5h1.5h0.2h0.1c0-0.4-0.1-0.8-0.3-1.1
			s-0.4-0.5-0.7-0.7S48,61,47.6,61C47.3,60.6,46.9,60.6,46.4,60.6L46.4,60.6z M28.7,60.8v7.9h1.8v-7.9
			C30.5,60.8,28.7,60.8,28.7,60.8z M40.1,60.8v7.9h1.8v-7.9C41.9,60.8,40.1,60.8,40.1,60.8z M66,60.8l-1.9,5.4l-1.9-5.4h-1.9
			l2.9,7.9L63,69.8l-0.1,0.3l-0.1,0.4l-0.2,0.3l-0.2,0.1h-0.2L62,70.8l-0.3-0.1l-0.3-0.1v1.3c0.2,0.1,0.5,0.2,0.6,0.2
			c0.2,0,0.4,0,0.5,0c0.2,0,0.4,0,0.6-0.1c0.2-0.1,0.4-0.2,0.6-0.3c0.2-0.1,0.4-0.3,0.5-0.5c0.2-0.2,0.3-0.5,0.4-0.8l3.4-9.6
			L66,60.8L66,60.8z M75.6,61.8c0.3,0,0.6,0.1,0.8,0.2c0.2,0.1,0.5,0.4,0.6,0.6c0.2,0.2,0.3,0.6,0.4,0.9s0.1,0.7,0.1,1.1
			s0,0.8-0.1,1.1c-0.1,0.4-0.2,0.6-0.4,0.9c-0.2,0.2-0.4,0.5-0.6,0.6s-0.5,0.2-0.8,0.2s-0.6-0.1-0.8-0.2c-0.2-0.1-0.5-0.4-0.6-0.6
			c-0.2-0.2-0.3-0.6-0.4-0.9c-0.1-0.4-0.1-0.7-0.1-1.1s0-0.7,0.1-1.1c0.1-0.4,0.2-0.7,0.4-0.9c0.2-0.2,0.4-0.5,0.6-0.6
			C75,62,75.3,61.8,75.6,61.8z M104.2,61.8c0.3,0,0.6,0.1,0.8,0.2c0.2,0.1,0.5,0.4,0.6,0.6c0.2,0.2,0.3,0.6,0.4,0.9
			c0.1,0.4,0.1,0.7,0.1,1.1s0,0.8-0.1,1.1c-0.1,0.4-0.2,0.6-0.4,0.9c-0.2,0.2-0.4,0.5-0.6,0.6s-0.5,0.2-0.8,0.2s-0.6-0.1-0.8-0.2
			c-0.2-0.1-0.5-0.4-0.6-0.6c-0.2-0.2-0.3-0.6-0.4-0.9c-0.1-0.4-0.1-0.7-0.1-1.1s0-0.7,0.1-1.1c0.1-0.4,0.2-0.7,0.4-0.9
			c0.2-0.2,0.4-0.5,0.6-0.6C103.6,62,103.9,61.8,104.2,61.8z M138.1,61.8c0.3,0,0.5,0,0.8,0.1c0.2,0.1,0.4,0.2,0.6,0.4
			c0.2,0.2,0.3,0.4,0.4,0.6c0.1,0.2,0.1,0.5,0.2,0.8h-3.9c0-0.3,0.1-0.5,0.2-0.8s0.2-0.5,0.4-0.7s0.4-0.4,0.6-0.5
			C137.6,62,137.8,61.8,138.1,61.8L138.1,61.8z M160.3,61.8c0.3,0,0.6,0,0.8,0.1s0.4,0.2,0.6,0.4c0.2,0.2,0.3,0.4,0.4,0.6
			c0.1,0.2,0.1,0.5,0.2,0.8h-3.9c0-0.3,0.1-0.5,0.2-0.8s0.2-0.5,0.4-0.7s0.4-0.4,0.6-0.5C159.8,62,160.1,61.8,160.3,61.8L160.3,61.8
			z"/>
	</g>
	<path class="st1" d="M242.3,14.6c-0.1,0.1-0.2,0.4-0.4,0.7c0,0.1-0.1,0.2-0.1,0.2l0,0c-0.1,0.3-0.2,0.6-0.3,1v0.2l-0.2-0.1h-0.1
		l-0.1,0.1c-0.3,0.3-0.4,1.4-0.2,2.8v0.2h-0.1c0,0.1,0,0.5,0.1,1V21l0.1,0.5c0.1,0.3,0.1,0.7,0.2,1l0,0c0.1,0.4,0.2,0.7,0.3,1.2l0,0
		c0.1,0.4,0.2,0.8,0.3,1.3c0.1,0.4,0.2,0.9,0.4,1.3v0.1l0.1,0.5V27v-0.1l0.1-0.5v-0.1c0.4-1.3,0.7-2.6,1-3.7c0.1-0.4,0.2-0.7,0.2-1
		l0.1-0.5v-0.3c0.1-0.5,0.1-0.9,0.1-1h-0.1v-0.2c0.1-1.3,0-2.4-0.2-2.8l-0.1-0.1h-0.1l-0.2,0.1v-0.2c-0.1-0.4-0.2-0.7-0.3-1l0,0
		C242.7,15.1,242.5,14.7,242.3,14.6L242.3,14.6z M249.8,17.9h-0.1c-0.4,0-0.7,0.2-0.7,0.2l-0.1,0.1l0,0l0,0
		c-0.2-0.1-0.3-0.2-0.5-0.2c0,0,0,0-0.1,0l0,0l0,0l0,0h-0.1c-0.2,0-0.3,0.1-0.4,0.2c0,0,0,0-0.1,0l0,0l0,0l-0.2,0.1l-0.1-0.1
		l-0.2-0.1l0,0l0,0c-0.4,0-0.9,0.9-1.1,1.2l-0.1,0.3l-0.2-0.2l0,0l-0.1-0.1l0,0l0,0c-0.3,0-0.6,0.9-0.8,1.7l-0.1,0.3l-0.1-0.1
		l-0.1-0.1h-0.1l-0.1-0.1c-0.3,1.8-1.1,4.5-1.5,6l-0.1,0.2l0.4-0.4l0.4-0.4c0.6-0.6,1.2-1.1,1.3-1.2c0.8-1.1,0.6-1.6,0.6-1.6
		l-0.1-0.2l0,0l0,0l0.1-0.1c0.3-0.1,0.5-0.3,0.7-0.5s0.3-0.5,0.3-0.6l0,0l0,0V22v-0.1l0,0l0,0h0.1h0.1c0.5-0.1,0.7-0.4,0.9-0.7
		c0.2-0.4,0.2-0.6,0.2-0.6v-0.1h0.2c0.9-0.4,1.6-1,1.6-1l0,0l0,0c0.3-0.1,0.8-0.8,1-1.3c-0.1-0.1-0.2-0.2-0.4-0.3
		C249.9,17.9,249.9,17.9,249.8,17.9L249.8,17.9L249.8,17.9z M234.9,17.9c-0.2,0-0.4,0.1-0.5,0.3c0.2,0.5,0.7,1.2,1,1.3l0,0l0,0
		c0,0,0.6,0.6,1.6,1l0,0l0,0h0.1l0,0v0.1c0,0,0,0.3,0.2,0.6c0.2,0.2,0.5,0.5,0.9,0.7l0,0h0.1V22v0.1v0.1c0,0.1,0,0.4,0.3,0.6
		c0.1,0.1,0.3,0.3,0.6,0.4c0,0,0,0,0.1,0l0,0l0.1,0.1l0,0l0,0l0,0l-0.1,0.2c0,0-0.3,0.5,0.6,1.6c0.1,0,0.2,0.2,0.5,0.4l0,0
		c0.1,0.1,0.2,0.2,0.4,0.4l0,0c0.1,0.1,0.3,0.3,0.4,0.4l0.4,0.3l0.2,0.1v0.1l0.3,0.4l0,0l0,0L242,27c-0.5-1.5-1.2-4.3-1.5-6l0,0l0,0
		l-0.2,0.1l-0.2,0.2L240,21c-0.2-0.8-0.5-1.7-0.7-1.7l0,0l0,0l0,0l-0.1,0.1l-0.1,0.1l-0.1,0.1l-0.1-0.2c-0.1-0.3-0.6-1.2-1.1-1.2
		l0,0l0,0l-0.2,0.1l-0.1,0.1l-0.1-0.1c0,0-0.2-0.3-0.6-0.3h-0.1l0,0h-0.1l0,0l0,0c-0.1,0-0.2,0.1-0.3,0.2h-0.1l0,0l-0.1-0.1
		c0,0-0.4-0.2-0.7-0.2C235,17.9,235,17.9,234.9,17.9L234.9,17.9z M233,20.1C233,20.1,232.9,20.1,233,20.1c-0.1,0-0.1,0-0.1,0
		s0,0-0.1,0c0,0,0,0-0.1,0l0,0l0,0l-0.1,0.1c0,0,0,0,0,0.1l-0.1,0.2l-0.2-0.1c0,0,0,0-0.1,0h-0.1l0,0H232l0,0h-0.1
		c-0.2,0-0.4,0.1-0.6,0.2c-0.1,0.1-0.2,0.2-0.3,0.4l0,0c0,0-0.1,0.1-0.1,0.2l0,0v0.1h-0.1h-0.1c-0.1,0-0.1,0-0.2,0c0,0-0.1,0-0.2,0
		l0,0c-0.1,0-0.2,0-0.3,0.1l0,0c-0.1,0-0.1,0-0.2,0.1c-0.1,0-0.2,0.1-0.2,0.2c0,0,0,0-0.1,0.1l0,0c-0.1,0.1-0.1,0.2-0.1,0.3l0,0l0,0
		v0.1c0.1,0.1,0.2,0.1,0.3,0.2l0,0c0.1,0,0.1,0.1,0.2,0.1l0,0c0.1,0,0.1,0.1,0.2,0.1l0,0c0.1,0,0.1,0.1,0.2,0.1
		c0.1,0,0.1,0.1,0.2,0.1l0,0h0.1h0.1l0,0h0.1h0.1h0.1h0.1l0,0l0,0l0,0l0,0l0,0l0,0c0,0,0.7,0.2,1.5,0.2c0.2,0,0.4,0,0.6,0h0.1
		l0.1,0.1c0,0,0.1,0.1,0.2,0.3l0.1,0.1l0,0c0,0,0.1,0,0.1,0.1l0,0c0,0,0.1,0,0.1,0.1l0,0c0,0,0.1,0,0.1,0.1l0,0c0,0,0.1,0,0.1,0.1
		l0,0h0.1l0,0c0.1,0,0.2,0,0.3,0.1l0,0c0.1,0,0.1,0,0.2,0h0.4h0.1v0.2c0,0,0,0.1,0.1,0.1c0,0.1,0.1,0.1,0.1,0.2c0,0,0,0,0.1,0.1
		l0.2,0.1l0,0l0.4,0.2h0.2l0,0h0.1l0,0h0.1l0,0h0.1l0,0l0,0c0,0,0.1,0,0.2,0h0.1h0.1V25v0.2l0,0l0,0c0,0,0,0.2,0.1,0.4
		c0.1,0.1,0.2,0.3,0.3,0.4l0.1,0.1l0,0c0.1,0.1,0.2,0.1,0.3,0.2l0,0c0.1,0,0.1,0.1,0.2,0.1l0,0c0.1,0,0.1,0.1,0.2,0.1l0,0
		c0.1,0,0.6,0.1,1.3,0.3l0,0c0.4,0.1,0.8,0.2,1.2,0.4c0.2,0.1,0.3,0.1,0.5,0.2l0,0c0.1,0,0.1,0.1,0.2,0.1l0,0c0.1,0,0.1,0.1,0.2,0.1
		l0,0l0,0l0,0l-0.4-0.5c-0.1-0.1-0.2-0.2-0.3-0.3c-0.1-0.1-0.2-0.2-0.3-0.3l0,0c-0.2-0.2-0.4-0.4-0.6-0.5l0,0
		c-0.2-0.1-0.3-0.3-0.4-0.4l0,0c-0.1-0.1-0.2-0.1-0.2-0.1l0,0c-0.7-1-0.7-1.6-0.7-1.9l0,0c-0.1,0-0.1-0.1-0.1-0.1l0,0l-0.1-0.1l0,0
		l-0.1-0.1l0,0l-0.1-0.1c-0.2-0.2-0.3-0.4-0.4-0.6l0,0c0-0.1,0-0.1,0-0.2s0-0.2,0-0.3c-0.2-0.1-0.4-0.2-0.6-0.4l0,0
		c-0.1-0.1-0.2-0.2-0.2-0.2l0,0c-0.1,0-0.2,0-0.3,0.2c0,0,0,0,0,0.1V22l-0.1,0.2l-0.2-0.2c-0.2-0.4-0.6-0.8-1-1.1
		c-0.1-0.1-0.1-0.1-0.2-0.1c-0.1-0.1-0.2-0.1-0.4-0.1c0,0-0.1,0-0.2,0.3l-0.1,0.3l-0.2-0.2c0,0-0.1,0-0.1-0.1c0,0-0.1-0.1-0.2-0.1
		l0,0c-0.1,0-0.1-0.1-0.2-0.1l0,0c-0.1,0-0.1-0.1-0.2-0.1l0,0c0,0-0.1,0-0.1-0.1l0,0c0,0-0.1,0-0.1-0.1h-0.1h-0.1l0,0h-0.1l0,0
		C233.1,20.1,233,20.1,233,20.1L233,20.1z M251.7,20.1c-0.1,0-0.3,0-0.4,0.1c-0.1,0-0.1,0.1-0.2,0.1c-0.1,0-0.1,0.1-0.2,0.1
		c-0.1,0-0.1,0.1-0.2,0.1c-0.2,0.1-0.4,0.2-0.5,0.4l-0.1,0.1l-0.1,0.1l-0.1-0.3c0-0.1-0.1-0.2-0.1-0.2s0,0-0.1,0l0,0l0,0
		c0,0-0.1,0-0.2,0c-0.1,0-0.1,0.1-0.2,0.1c-0.1,0-0.1,0.1-0.2,0.1c-0.1,0.1-0.3,0.3-0.4,0.4l0,0c-0.2,0.2-0.4,0.5-0.6,0.7l-0.1,0.2
		v0.1l-0.1-0.3l0,0v-0.1c0,0,0,0,0-0.1l0,0l0,0l0,0l0,0l0,0h-0.1l0,0l0,0c-0.2,0.2-0.5,0.5-0.8,0.6l0,0l0,0v0.1v0.1l0,0
		c0,0,0,0.1,0,0.2l0,0l0,0v0.1l0,0c-0.1,0.2-0.3,0.5-0.7,0.8l0,0l0,0c0,0-0.1,0-0.1,0.1s0,0.3,0,0.5c0,0.1,0,0.1,0,0.2l0,0v0.1l0,0
		c0,0.1-0.1,0.2-0.1,0.2l0,0c0,0,0,0.1-0.1,0.1l0,0l0,0c0,0.1-0.1,0.2-0.1,0.2l0,0l0,0l0,0c-0.1,0.1-0.1,0.2-0.2,0.3l0,0
		c0,0-0.1,0.1-0.2,0.1c-0.1,0.1-0.4,0.3-0.6,0.5c-0.1,0-0.1,0.1-0.2,0.1c-0.3,0.2-0.6,0.5-0.8,0.8l-0.4,0.5l0,0l0,0l0,0l0,0l0,0
		c0.1-0.1,0.3-0.1,0.5-0.2s0.3-0.1,0.5-0.2c0.1,0,0.3-0.1,0.4-0.1l0,0c0.1,0,0.3-0.1,0.4-0.1c0.4-0.1,0.8-0.2,1.1-0.3
		c0.1,0,0.2-0.1,0.3-0.1l0,0c0.2,0,0.3-0.1,0.3-0.1c0.2-0.1,0.3-0.1,0.4-0.2c0.1,0,0.1-0.1,0.2-0.1c0.1,0,0.1-0.1,0.1-0.1l0.1-0.1
		l0,0l0,0l0.1-0.1l0,0l0.1-0.1l0,0c0,0,0-0.1,0.1-0.1l0,0c0,0,0-0.1,0.1-0.1l0,0c0.1-0.2,0.1-0.4,0.1-0.4l0,0v-0.2l0,0h0.1h0.1
		c0.1,0,0.2,0,0.3,0l0,0c0.1,0,0.2,0,0.3,0h0.1h0.2l0.2-0.1l0.2-0.1l0.1-0.1l0,0c0.1-0.1,0.1-0.2,0.1-0.2V24h0.2h0.4l0,0l0,0
		c0.1,0,0.1,0,0.2,0c0.1,0,0.2,0,0.4-0.1l0,0h0.1c0.1,0,0.2-0.1,0.2-0.1l0,0c0,0,0.1,0,0.1-0.1c0,0,0.1,0,0.1-0.1
		c0.2-0.2,0.4-0.4,0.4-0.4v-0.1l0,0l0,0h0.1c0.2,0,0.4,0,0.6,0l0,0c0.1,0,0.2,0,0.3,0s0.2,0,0.3,0s0.2,0,0.2,0c0.1,0,0.1,0,0.2,0
		c0.1,0,0.2-0.1,0.3-0.1s0.1,0,0.1,0l0,0l0,0l0,0l0,0h0.1h0.1l0,0l0,0c0.5-0.1,1.1-0.6,1.4-0.8l0,0c0-0.1,0-0.2-0.1-0.3l-0.1-0.1
		c-0.1-0.1-0.2-0.2-0.3-0.2s-0.1,0-0.2-0.1l0,0c-0.1,0-0.1,0-0.2,0l0,0c-0.1,0-0.1,0-0.2,0l0,0c-0.1,0-0.1,0-0.2,0l0,0h-0.1h-0.1
		l0,0H254l0,0h-0.1v-0.1l0,0c-0.1-0.3-0.3-0.5-0.6-0.6c0,0-0.1,0-0.1-0.1l0,0h-0.1l0,0H253l0,0h-0.1c-0.2,0-0.3,0.1-0.3,0.1
		l-0.1,0.1l0,0l-0.1-0.2c0-0.1-0.1-0.1-0.1-0.2c0,0,0,0-0.1,0l0,0C251.9,20.1,251.8,20.1,251.7,20.1L251.7,20.1z M250.7,24.6
		c-0.5,0-1.1,0.2-1.4,0.3l0,0c-0.1,0-0.1,0-0.1,0h-0.1l0,0c-0.1,0.1-0.3,0.1-0.5,0.2c-0.2,0-0.4,0.1-0.7,0.1l0,0v0.1l0,0
		c0,0.1,0,0.1-0.1,0.2l0,0c-0.1,0.4-0.5,0.9-1.5,1.3l0,0c0,0-0.2,0-0.4,0.1c-0.3,0.1-0.6,0.1-1,0.2s-0.7,0.2-1.1,0.4
		c-0.1,0-0.2,0.1-0.4,0.1l0,0l0.5,0.1c1.3,0.3,2.8,0.8,3.2,1h0.1l0,0c0.2,0,0.5,0,0.6,0s0.1,0,0.2,0c0.1,0,0.3,0,0.4,0l0,0
		c0.1,0,0.1,0,0.2,0c0.1,0,0.2-0.1,0.3-0.1c0.4-0.2,0.5-0.4,0.5-0.4l0.1-0.2l0,0h0.1l0.1,0.1c0,0,0.1,0,0.1,0.1c0,0,0,0,0.1,0l0,0
		c0.1,0,0.1,0.1,0.2,0.1c0.1,0,0.1,0.1,0.2,0.1l0,0c0.3,0.1,0.6,0.2,0.8,0.2l0,0h0.2h0.2c0.2-0.1,0.3-0.2,0.3-0.2l0.1-0.1l0.1-0.1
		l0.1,0.1c0.4,0.3,0.7,0.5,1.1,0.6l0,0l0,0l0,0c0.1,0,0.2,0,0.4,0c0.1,0,0.1,0,0.2,0c0.1,0,0.2,0,0.3,0l0,0h0.1c0.1,0,0.1,0,0.2-0.1
		h0.1l0.1-0.1l0.1,0.1c0.5,0.5,1.1,0.7,1.5,1c0.1,0,0.2,0.1,0.3,0.1l0,0c0.1,0,0.2,0.1,0.2,0.1l0,0c0.1,0,0.2,0.1,0.2,0.1l0,0l0,0
		l0,0l0.1,0.1l0,0c0.1,0.1,0.2,0.1,0.4,0.2l0,0c0.1,0,0.1,0,0.2,0l0,0c0.1,0,0.1,0,0.2,0l0,0c0.1,0,0.1,0,0.2,0s0.2,0,0.2,0
		c0.4,0,0.7,0,0.8,0c0.1-0.1,0.1-0.2,0.1-0.3c0-0.1,0-0.2,0-0.3c-0.2-0.7-1.1-1.3-1.2-1.3l0,0l-0.1-0.1v-0.1c0-0.8-0.3-1.2-0.6-1.4
		c-0.2-0.1-0.4-0.1-0.4-0.2h-0.1l0,0h-0.2v-0.2l0,0c0-0.2,0-0.4-0.1-0.5s-0.2-0.2-0.4-0.2c-0.2-0.1-0.6-0.1-1-0.1l0,0
		c-0.1,0-0.3,0-0.4,0c-0.2,0-0.4,0-0.4,0h-0.3v-0.1v-0.1c0.1-0.2,0-0.3,0-0.4c0,0-0.1-0.1-0.2-0.1h-0.1c-0.1,0-0.1,0-0.2,0
		c-0.2,0-0.4,0-0.6,0.1c-0.3,0.1-0.6,0.2-0.9,0.2c-0.2,0.1-0.4,0.1-0.4,0.2l-0.1,0.1l-0.1,0.1l0,0v-0.2c0-0.1,0-0.2,0-0.2v-0.1v-0.1
		l0,0C251.3,24.8,251,24.6,250.7,24.6L250.7,24.6z M234,24.6c-0.3,0-0.5,0.1-0.6,0.2c0,0,0,0,0,0.1s-0.1,0.2,0,0.4v0.3l-0.3-0.1
		c0,0-1-0.4-1.8-0.5h-0.1l0,0h-0.1l0,0H231h-0.1c0,0-0.1,0-0.1,0.1c-0.1,0.1-0.1,0.2,0,0.4l0.1,0.3h-0.2c0,0-0.4-0.1-0.8-0.1
		c-0.7,0-1.1,0.1-1.3,0.4l0,0l0,0c-0.1,0.1-0.1,0.3-0.1,0.5l0,0l0,0v0.2h-0.2c0,0-0.4,0-0.6,0.3c-0.3,0.2-0.5,0.6-0.5,1.3v0.1h-0.1
		c0,0-0.7,0.4-1,0.9c-0.1,0.1-0.1,0.2-0.2,0.4c0,0.2,0,0.4,0.1,0.6c0.1,0,0.5,0,0.8,0c0.6,0,1.1-0.1,1.3-0.3c0,0,0.1,0,0.1-0.1l0,0
		l0,0c0,0,1.2-0.3,2.3-1.2l0.1-0.1l0.1,0.1c0,0,0.2,0.1,0.6,0.2c0.1,0,0.1,0,0.2,0c0.5,0,1-0.2,1.4-0.5l0.1-0.1l0.1-0.1l0.1,0.1
		c0,0,0.1,0.1,0.3,0.2h0.2h0.2l0,0c0.3,0,0.6-0.1,1-0.3c0.1-0.1,0.2-0.1,0.4-0.2l0.1-0.1l0,0l0.1,0.2c0,0,0.3,0.6,1.6,0.6
		c0.1,0,0.3,0,0.5,0l0,0h0.1c0.2-0.1,1.1-0.4,2.2-0.7c0.1,0,0.2-0.1,0.4-0.1c0.1,0,0.1,0,0.2-0.1c0.2,0,0.4-0.1,0.6-0.1h0.1l0.3-0.1
		l0,0l0,0l0,0c-0.5-0.2-1-0.4-1.4-0.5c-0.8-0.2-1.4-0.4-1.4-0.4l0,0c-1.2-0.6-1.5-1.3-1.6-1.6c-0.5,0-0.9-0.1-1.1-0.3h-0.1
		C235.5,24.9,234.6,24.6,234,24.6L234,24.6z M241.8,28h-0.3c-1.4,0.2-3.6,1-3.9,1.1h-0.1l0,0l0,0c-0.2,0-0.5,0-0.7,0
		c-0.4,0-0.7-0.1-1-0.1c-0.4-0.1-0.6-0.4-0.8-0.5l0,0l0,0c-0.2,0.1-0.5,0.3-0.7,0.4l0,0l0,0c0,0,0,0-0.1,0S234,29,233.9,29
		s-0.1,0-0.2,0s-0.1,0-0.2,0h-0.1l0,0l0,0v0.1v0.2l0.1,0.2h-0.2c-0.5,0-1.9,0.1-2.2,0.7c-0.1,0.2-0.1,0.4,0,0.6l0.1,0.2l-0.2,0.1
		c0,0-0.1,0-0.2,0.1c-0.1,0-0.1,0.1-0.2,0.1c-0.1,0-0.2,0.1-0.3,0.1c-0.1,0.1-0.2,0.1-0.3,0.2l-0.1,0.1c-0.2,0.2-0.5,0.4-0.6,0.7
		s-0.1,0.6,0,0.8v0.1l0,0l-0.1,0.1c0,0,0,0-0.1,0c-0.2,0.2-1,0.9-0.6,2.4V36l0,0l0,0l0,0c0,0-1.2,1.8-0.6,2.8l0,0l0,0
		c0.5-0.2,1.6-0.7,1.9-1.4l0,0l0,0l0,0l0,0l0,0c0.1-0.1,1-1,1.7-2.4v-0.1l0,0l0,0h0.1h0.1l0,0h0.1c0.4,0,1.1-0.3,1.7-1.6l0.1-0.2
		L234,33l0,0l0,0l0.2,0.1c0.1,0,0.4-0.1,0.8-0.4l0.1-0.1c0.2-0.2,0.4-0.5,0.6-0.8l0.1-0.2v0.1v0.1l0.1,0.1c0,0,0,0,0.1,0.1
		c0.1,0.1,0.2,0.2,0.5,0.2c0.4,0,0.9-0.2,1.5-0.6c0.2-0.2,1.6-1.7,2.8-2.8l0.5-0.4L241.8,28L241.8,28L241.8,28L241.8,28L241.8,28
		L241.8,28L241.8,28L241.8,28z M242.9,28L242.9,28l0.3,0.2c0.1,0.1,0.2,0.2,0.4,0.3c0.1,0,0.1,0.1,0.2,0.1c1.2,1,2.4,2.4,2.7,2.7
		l0.1,0.1l0,0c0.1,0.1,0.3,0.2,0.4,0.3l0,0c0.1,0,0.1,0.1,0.2,0.1l0,0c0.1,0,0.1,0.1,0.2,0.1l0,0c0.1,0,0.1,0,0.2,0.1l0,0
		c0.1,0,0.1,0,0.2,0c0.1,0,0.1,0,0.2,0l0,0c0.1,0,0.1,0,0.1,0h0.1h0.1c0.1,0,0.2-0.1,0.2-0.1l0.1-0.1v-0.1l0,0l0,0l0.1-0.1l0.1,0.2
		c0.1,0.2,0.2,0.4,0.4,0.6l0.1,0.1l0.1,0.1l0.1,0.1c0.3,0.2,0.5,0.4,0.6,0.4l0,0c0.1,0,0.1,0,0.1,0h0.1c0.1,0,0.1,0,0.1-0.1l0,0l0,0
		l0.1-0.1l0.1,0.2c0.4,0.8,0.8,1.2,1.2,1.4l0,0c0,0,0.1,0,0.1,0.1l0,0h0.1l0,0l0,0c0.1,0,0.1,0,0.2,0c0,0,0,0,0.1,0l0,0l0,0h0.1h0.1
		h0.1v0.1v0.1c0.2,0.5,0.5,0.9,0.8,1.3c0.1,0.2,0.3,0.4,0.4,0.5c0.1,0.1,0.2,0.2,0.2,0.3l0,0c0.1,0.1,0.1,0.1,0.2,0.2l0,0
		c0.1,0.1,0.1,0.1,0.1,0.1l0,0l0,0c0,0.1,0.1,0.2,0.2,0.4l0,0c0.1,0.1,0.1,0.1,0.2,0.2l0,0l0.1,0.1l0,0c0.1,0.1,0.2,0.1,0.3,0.2l0,0
		c0,0,0,0,0.1,0c0.4,0.2,0.7,0.4,1,0.5l0,0l0,0c0.5-0.7-0.1-1.9-0.4-2.4c-0.1-0.2-0.2-0.3-0.2-0.3l0,0l0,0l0,0v-0.1
		c0.3-1.2-0.2-2-0.5-2.3l-0.1-0.1l0,0c0,0,0,0-0.1,0l-0.1-0.1l0,0v-0.1c0.1-0.3,0.1-0.6-0.1-0.8l0,0c-0.4-0.8-1.8-1.3-1.8-1.3
		l-0.2-0.1l0.1-0.2l0,0c0.1-0.2,0.1-0.4,0.1-0.5v-0.1c-0.2-0.4-1.1-0.6-1.7-0.7l0,0c-0.2,0-0.4,0-0.5,0h-0.2l0.1-0.2v-0.1v-0.1v-0.2
		l0,0l0,0h-0.1l0,0l0,0c-0.1,0-0.2,0-0.3,0l0,0c-0.2,0-0.5-0.1-0.7-0.2l0,0c-0.1-0.1-0.2-0.1-0.4-0.2l0,0l0,0
		c-0.1,0.1-0.2,0.3-0.5,0.4l0,0c-0.1,0.1-0.2,0.1-0.4,0.1c-0.1,0-0.1,0-0.2,0c-0.2,0-0.4,0.1-0.7,0.1l0,0l0,0c-0.2,0-0.5,0-0.7,0
		l0,0l0,0c0,0-0.2-0.1-0.4-0.1c-0.6-0.2-1.9-0.7-3-0.9l0,0C243.1,28.1,243,28.1,242.9,28L242.9,28L242.9,28c-0.2,0-0.2,0-0.3,0
		H242.9L242.9,28z M242.3,28.1c-0.6,0.5-0.9,1.2-1.1,1.5l0,0c0,0.1-0.1,0.2-0.1,0.2l0,0l0.1,3.6l-0.8,0.5l0.6,3.3l-1,0.5l0.8,3.7
		l-1,0.7l1.1,4.4l-0.8,0.4l0,0l0,0l1,4l-0.8,0.8l0,0l0,0l1,4.4h-4.8c0,0-0.2,0.1-0.4,0.3l0,0c0,0,0,0,0,0.1c0,0,0,0,0,0.1l0,0v0.1
		l0,0c0,0,0,0.1,0,0.2c0.1,0.2,0.5,0.6,1,1.1l0,0c0.8,0.8,1.8,1.8,1.9,1.7c0.2-0.1,0.2-1.1,0.4-1.2c0.1-0.1,0.8,1,1.3,1.2
		c0,0,0.8-0.6,1.5-1c0.7,0.5,1.2,1,1.2,1c0.5-0.2,1.5-1.4,1.6-1.3v0.1l0,0v0.1l0,0c0,0.1,0,0.2,0.1,0.4l0,0c0,0.1,0,0.3,0.1,0.4
		c0,0.1,0.1,0.2,0.1,0.2c0.1,0,0.8-0.5,1.4-1.2c0.7-0.7,1.3-1.4,1.4-1.6c0.1-0.2,0-0.3,0-0.5c-0.1-0.2-0.4-0.3-0.4-0.3H243l1-4.4
		l0,0l0,0l-0.8-0.8l1-4l0,0l0,0l-0.8-0.4l1.1-4.4l-1-0.7l0.8-3.7l-1-0.5l0.6-3.3l-0.8-0.5l0.1-3.6c0,0,0-0.1-0.1-0.2
		C243.3,29.4,243,28.6,242.3,28.1L242.3,28.1z M243.1,28.8c0.4,0.7,0.7,1.5,1,2.2c0.1,0.1,0.1,0.3,0.2,0.4c0.1,0.3,0.2,0.5,0.2,0.6
		c0.2,0.3,0.3,0.5,0.5,0.6l0,0c0,0.1,0.1,0.1,0.1,0.1l0,0c0.6,0.6,0.9,0.4,0.9,0.4l0.2-0.1v0.2c0.2,1.5,0.9,1.6,1,1.6l0,0h0.1V35
		c0,0.8,0.4,1.3,0.6,1.6c0.2,0.2,0.4,0.2,0.4,0.3l0,0l0,0V37c0.1,1.3,0.5,2.2,0.5,2.3v0.1l0,0c0,0.4,0.6,1.2,1,1.7l0,0l0.4-0.2l0,0
		l0,0c0.2-0.4,0.2-1.1,0.2-1.4v-0.1v-0.1l0.1-0.1c0.9-0.7,0.4-1.6,0.4-1.6l-0.1-0.2l0.1-0.1l0,0l0,0l0.2-0.4c0-0.3-0.1-0.6-0.4-0.9
		c0-0.1-0.1-0.1-0.1-0.2l0,0c-0.2-0.2-0.3-0.4-0.4-0.5l0,0l-0.2-0.2l0.2-0.1l0.2-0.2l0,0l0,0c0-0.4-0.9-1.1-1.5-1.5l-0.2-0.1L249,33
		l0.1-0.1l0,0l0,0c-0.1-0.2-0.3-0.4-0.5-0.6l0,0l0,0c-0.1,0-0.1,0.1-0.2,0.1l0,0l0,0h-0.1l0,0c-0.1,0-0.2,0-0.3,0
		c-0.5,0-1.1-0.2-1.7-0.7l0,0c0,0-0.7-0.8-1.5-1.6c-0.2-0.2-0.3-0.3-0.5-0.5l0,0c-0.2-0.2-0.4-0.3-0.5-0.5l0,0c0,0,0,0-0.1-0.1
		s-0.1-0.1-0.2-0.2C243.3,28.9,243.2,28.8,243.1,28.8L243.1,28.8z M241.5,28.8c-1.3,1-3,3-3.1,3l0,0c-0.4,0.3-0.8,0.5-1.1,0.6
		c-0.2,0.1-0.4,0.1-0.6,0.1l0,0c-0.1,0-0.1,0-0.2,0l0,0h-0.1l0,0h-0.1l0,0c-0.1,0-0.1,0-0.1-0.1c0,0-0.1,0-0.1-0.1l0,0l0,0
		c-0.1,0.1-0.1,0.2-0.2,0.3l0,0c-0.1,0.1-0.1,0.2-0.2,0.3l0,0l0,0l0.2,0.2l-0.2,0.1c-0.6,0.4-1.5,1.1-1.5,1.5l0,0l0,0l0.2,0.2
		l0.2,0.1l-0.2,0.2c-0.2,0.2-0.9,1-1,1.5l0,0v0.1l0,0l0.1,0.1l0.2,0.3h0.1l0.1,0.1l-0.1,0.1c0,0-0.2,0.4-0.1,0.8l0,0l0,0v0.1v0.1
		l0,0c0.1,0.2,0.2,0.4,0.4,0.6l0.1,0.1v0.1c0,0,0,0.1,0,0.4l0,0c0,0.1,0,0.1,0,0.2l0,0l0,0c0,0.2,0,0.4,0.1,0.6l0,0v0.1l0,0l0,0
		c0,0.1,0.1,0.1,0.1,0.2l0.1,0.1l0.2,0.2c0.4-0.4,1-1.2,1-1.6c0,0,0,0,0-0.1l0,0v0.1l0,0l0,0c0,0,0.2-0.6,0.4-1.4
		c0-0.1,0-0.3,0.1-0.4l0,0c0-0.1,0-0.3,0-0.5l0,0l0,0V37h0.1c0,0,1-0.4,1-1.9l0,0V35h0.2l0,0c0.1,0,0.2-0.1,0.4-0.2l0.1-0.1l0,0
		l0.1-0.1l0,0c0,0,0-0.1,0.1-0.1c0-0.1,0.1-0.2,0.1-0.3s0-0.1,0.1-0.2c0-0.1,0.1-0.3,0.1-0.5v-0.2l0,0l0.2,0.1c0,0,0.3,0.1,0.8-0.3
		c0.2-0.1,0.4-0.4,0.6-0.7c0-0.1,0.1-0.1,0.2-0.2l0,0C240.2,31.8,240.9,30,241.5,28.8L241.5,28.8L241.5,28.8L241.5,28.8z
		 M218.1,55.8c-2,0-4,0.2-5.8,0.9c0,0,0.1,0,0.4,0c0.2,0,0.6,0,1,0l0,0l0,0c1.8,0.1,5.2,0.6,9.6,2.4c0.6,0.2,1.1,0.5,1.7,0.7
		c0.6,0.3,1.2,0.6,1.8,0.9l0,0l0,0c0.6,0.3,1.2,0.7,1.9,1.1c0.6,0.4,1.3,0.8,1.9,1.2c3.4,2.2,6.6,4.8,9.4,7.2
		c-0.8,0.7-1.6,1.5-2.4,2.3c-0.8,0.8-1.6,1.6-2.4,2.4l-0.1-0.1l0,0h-0.3l0,0l-0.1,0.2l-0.2-0.3c0.1-0.4,0-0.8-0.3-1.1
		c-0.1-0.1-0.2-0.2-0.4-0.2c0,0,0,0-0.1,0c-0.4-0.1-0.7,0-1,0.2l-0.1,0.1c0,0.1,0,0.1-0.1,0.2c0,0.1,0,0.2,0,0.4
		c0,0.2,0.1,0.5,0.4,0.7c0.1,0.1,0.1,0.1,0.2,0.1c0.1,0.1,0.3,0.1,0.5,0.1c0.1,0,0.1,0,0.2,0c0.2,0.4,0.1,0.7,0.1,0.7
		c-0.1,0.2-0.3,0.5-0.5,0.7c-0.1,0.1-0.2,0.2-0.4,0.3c-0.6,0.4-1.4,0.6-2.1,0.7c-0.2,0-0.4,0-0.5,0s-0.3,0-0.4,0h-0.1
		c-0.8-0.1-1.5-0.5-2.4-1.4c-0.4-0.4-0.8-0.5-1.1-0.6c-0.3,0-0.6,0.1-0.8,0.2s-0.4,0.4-0.4,0.4c-0.1,0.1-0.2,0.3-0.3,0.5
		c-0.1,0.1-0.1,0.3-0.1,0.5l0,0c0,0.1,0,0.3,0,0.5l0,0c0,1.4,1.7,2.7,3.3,3.2c0.4,0.1,0.7,0.2,1,0.2c0.2,0,0.3,0,0.5,0
		c3.1,0.1,5.9-1.8,6.6-2.7c0.2-0.3,0.5-0.4,0.7-0.3c0.1,0.1,0.2,0.2,0.2,0.5l0,0l0,0l0,0c0,0.3,0.1,0.7,0.4,0.9
		c0.1,0.1,0.4,0.2,0.5,0.3c0,0,0,0,0.1,0c0.3,0,0.6,0,0.8-0.3c0.3-0.4,0.3-0.8,0-1.2l0,0l0,0l-0.1-0.1l0,0c-0.2-0.2-0.5-0.3-0.8-0.3
		l0,0h-0.1l0.1-0.1v-0.3l-0.4-0.4c0.3-0.3,1-0.9,1.8-1.7c0.4-0.4,0.9-0.8,1.4-1.3l0,0c0.5-0.5,1.1-1,1.8-1.6
		c1.3,1.1,2.3,2.1,3.2,2.9c0.8,0.8,1.5,1.4,1.8,1.7l-0.4,0.4v0.3l0.1,0.1h-0.1c-0.2,0-0.6,0.1-0.8,0.3l0,0c-0.1,0-0.1,0.1-0.1,0.1
		c-0.2,0.2-0.2,0.5-0.2,0.7l0,0c0,0.2,0.1,0.4,0.2,0.5c0.2,0.2,0.5,0.3,0.8,0.3c0.2,0,0.4-0.1,0.5-0.3c0.3-0.2,0.4-0.6,0.4-0.9
		c0-0.1,0-0.2,0.1-0.3c0-0.1,0.1-0.1,0.2-0.2c0.2-0.1,0.4,0,0.7,0.3c0.1,0.1,0.2,0.2,0.4,0.4c1.1,0.9,3.5,2.4,6.2,2.3
		c0.1,0,0.3,0,0.5,0c0.2,0,0.3,0,0.5-0.1c1.8-0.4,3.8-1.7,3.8-3.4l0,0l0,0c0-0.2-0.1-0.5-0.1-0.7v-0.1c-0.1-0.1-0.1-0.3-0.3-0.5
		c0,0-0.1-0.1-0.2-0.2s-0.3-0.2-0.5-0.3l0,0c-0.1,0-0.2-0.1-0.4-0.1c-0.1,0-0.1,0-0.2,0l0,0c-0.3,0-0.7,0.2-1.1,0.6
		c-1,1-1.7,1.3-2.5,1.4c-0.1,0-0.2,0-0.4,0s-0.4,0-0.6,0c-0.1,0-0.3,0-0.4-0.1h-0.1c-0.4-0.1-0.7-0.2-1.1-0.4l0,0
		c-0.7-0.3-1.2-0.7-1.4-1.2c0,0-0.1-0.4,0.1-0.7c0.1,0,0.1,0,0.2,0l0,0c0.1,0,0.3,0,0.5-0.1l0,0c0.1,0,0.1-0.1,0.2-0.1
		c0.1-0.1,0.2-0.3,0.3-0.5l0,0l0,0c0-0.1,0-0.1,0-0.2l0,0c0-0.2,0-0.5-0.2-0.7l0,0l0,0c-0.2-0.3-0.7-0.4-1-0.2
		c-0.1,0-0.2,0.1-0.4,0.2s-0.3,0.4-0.3,0.5c-0.1,0.2,0,0.4,0,0.6L250,75l-0.1-0.2l0,0h-0.3l-0.1,0.1c-0.8-0.8-1.6-1.7-2.4-2.4
		c-0.8-0.8-1.6-1.5-2.4-2.3c1.4-1.2,2.9-2.4,4.5-3.7c1.6-1.2,3.2-2.4,4.9-3.6c7.8-5.2,14.2-6.1,16.9-6.3c0.5,0,0.8,0,1,0
		s0.4,0,0.4,0c-0.4-0.1-0.7-0.2-1.1-0.4l0,0c-0.4-0.1-0.8-0.2-1.2-0.3l0,0c-0.4-0.1-0.8-0.1-1.2-0.2l0,0c-0.4,0-0.8-0.1-1.2-0.1l0,0
		c-1.6-0.1-3.2,0-4.7,0.3c-3,0.5-5.7,1.5-7.4,2.5c-2.4,1.4-7.6,4.6-13.4,9.5c-1.9-1.6-3.7-3-5.4-4.3c-3.5-2.6-6.4-4.3-8-5.3
		c-1.7-1-4.4-2-7.4-2.5C220.4,56,219.2,55.8,218.1,55.8L218.1,55.8z"/>
</g>
</svg>
