<?xml version="1.0" encoding="utf-8"?>
<!-- Generator: Adobe Illustrator 26.3.1, SVG Export Plug-In . SVG Version: 6.00 Build 0)  -->
<svg version="1.1" id="Layer_1" xmlns="http://www.w3.org/2000/svg" xmlns:xlink="http://www.w3.org/1999/xlink" x="0px" y="0px"
	 viewBox="0 0 300 100" style="enable-background:new 0 0 300 100;" xml:space="preserve">
<style type="text/css">
	.st0{fill:#FFFFFF;}
</style>
<g id="Layer_2_00000147177899462838074990000012927154806841157789_">
	<g id="Layer_1-2">
		<polygon class="st0" points="85.2,58.5 83.9,57.2 82.6,58.5 83.9,59.8 		"/>
		<polygon class="st0" points="82.2,58.5 80.9,57.2 79.6,58.5 80.9,59.8 		"/>
		<polygon class="st0" points="106.7,58.4 105.4,57.1 104.1,58.4 105.4,59.7 		"/>
		<path class="st0" d="M82.2,68.1c-0.3,0-0.6,0-0.8-0.1c-0.2,0-0.5-0.1-0.7-0.2c-0.2-0.1-0.4-0.2-0.5-0.4c-0.1-0.2-0.2-0.4-0.2-0.6
			c0-0.3,0.1-0.6,0.3-0.8c0.2-0.3,0.5-0.5,0.9-0.7c0.4-0.2,0.8-0.4,1.3-0.5c0.5-0.1,1-0.2,1.5-0.3v3.3C83.3,68,82.7,68.1,82.2,68.1
			 M106.4,66.6c-0.3,0.1-0.7,0.1-1,0.2c-0.5,0-0.9-0.1-1.3-0.4c-0.3-0.3-0.5-0.7-0.5-1.2c0-0.5,0.2-1.1,0.5-1.5
			c0.3-0.4,0.8-0.6,1.3-0.6c0.5,0,1,0.3,1.3,0.7c0.4,0.7,0.6,1.5,0.6,2.3C107,66.4,106.7,66.5,106.4,66.6 M107.9,63
			c-0.4-1-1.4-1.6-2.4-1.7c-0.4,0-0.9,0.1-1.2,0.3c-0.4,0.2-0.7,0.5-1,0.8c-0.3,0.4-0.5,0.8-0.6,1.3c-0.2,0.5-0.3,1-0.3,1.5
			c-0.1,0.8,0.2,1.6,0.8,2.2c0.6,0.6,1.3,0.8,2.1,0.8c0.4,0,0.8-0.1,1.2-0.2c0.4-0.1,0.7-0.3,1-0.5V69c0,0.3-0.5,0.5-1.4,0.6
			s-16.4,0.2-18.2,0.2h-0.6c-0.5,0-1-0.1-1.5-0.4c-0.3-0.3-0.5-0.8-0.4-1.3l0.1-7l-1.6,0.3v1.3c-1.4,0.2-2.7,0.8-3.9,1.6
			c-0.9,0.6-1.4,1.6-1.4,2.7c0,0.4,0.1,0.8,0.3,1.2c0.2,0.3,0.4,0.6,0.7,0.9c0.3,0.2,0.7,0.4,1.1,0.5c0.4,0.1,0.9,0.2,1.3,0.2
			c0.7,0,1.4-0.2,2-0.5c0.2,1.6,1.3,2.3,3.3,2.3h0.5c0.7,0,15.5,0,16.1,0c0.5,0,1,0,1.5-0.1c0.4,0,0.7-0.1,1.1-0.2
			c0.3-0.1,0.6-0.2,0.9-0.3c0.5-0.2,0.9-0.6,1.2-1.1c0.3-0.7,0.4-1.4,0.3-2.1C108.8,66.3,108.5,64.6,107.9,63"/>
		<polygon class="st0" points="133,60.6 131.7,59.3 130.5,60.6 131.7,61.9 		"/>
		<polygon class="st0" points="136,60.6 134.8,59.3 133.5,60.6 134.8,61.9 		"/>
		<polygon class="st0" points="157.1,60.3 155.8,59 154.5,60.3 155.8,61.6 		"/>
		<polygon class="st0" points="157.3,64.3 158.6,63 157.3,61.7 156,63 		"/>
		<polygon class="st0" points="155.6,63 154.3,61.7 153,63 154.3,64.3 		"/>
		<path class="st0" d="M133.2,69.3c-1.3-0.4-1.9-1.1-1.9-2c0-0.3,0-0.5,0.2-0.8c0.1-0.2,0.2-0.4,0.4-0.6c0.2-0.2,0.4-0.3,0.6-0.4
			c0.5-0.2,1-0.2,1.5,0c0.2,0.1,0.4,0.2,0.6,0.4c0.2,0.2,0.3,0.4,0.4,0.6c0.1,0.2,0.2,0.5,0.2,0.8C135.1,68.3,134.5,69,133.2,69.3
			 M175.1,58.7l0.1,10.1c0,0.2-0.1,0.4-0.2,0.5c-0.2,0.2-0.3,0.3-0.6,0.3c-0.3,0.1-0.5,0.1-0.8,0.2c-0.3,0-14.7,0-15,0
			c-1.6,0-2.5-0.4-2.5-1.3c0-0.1,0-0.4,0.1-0.9c0.1-0.5,0.1-1,0.2-1.6l-1.4-0.2c0,0.2-0.1,0.4-0.1,0.6c0,0.2-0.1,0.5-0.1,0.7
			c0,0.2-0.1,0.5-0.1,0.7c0,0.2-0.1,0.4-0.1,0.6c-0.1,0.4-0.4,0.8-0.8,1c-0.4,0.2-15.2,0.3-16.1,0.3l0,0h-1.2l-1-0.1
			c0.7-0.6,1.1-1.6,1.1-2.5c0-0.5-0.1-1-0.3-1.4c-0.2-0.4-0.4-0.8-0.7-1.2c-0.3-0.3-0.6-0.6-1-0.8c-0.4-0.2-0.8-0.3-1.3-0.3
			c-0.4,0-0.9,0.1-1.3,0.3c-0.4,0.2-0.7,0.5-1,0.8c-0.3,0.3-0.5,0.7-0.7,1.2c-0.2,0.5-0.3,0.9-0.3,1.4c0,1,0.4,1.9,1.1,2.5l-1.1,0.1
			h-15.3c-0.5,0-1-0.1-1.5-0.4c-0.3-0.3-0.5-0.8-0.4-1.3l0.1-9.8l-1.6,0.3l0.1,10.1c0,1.9,1.1,2.9,3.4,2.9c0.8,0,15.7-0.1,16.4-0.2
			c0.7-0.1,1.4-0.3,2.1-0.5c0.7,0.2,1.4,0.4,2.1,0.5c0.8,0.1,1.5,0.2,2.3,0.2c0.9,0,15.8-0.1,16.4-0.4c0.5-0.2,1-0.5,1.4-1
			c0.5,0.9,1.6,1.4,3.2,1.4l0,0c0.5,0,15.1,0,15.6-0.2c0.4-0.1,0.8-0.3,1.1-0.5c0.4-0.2,0.7-0.6,0.9-0.9c0.2-0.4,0.3-0.9,0.3-1.4
			l0.1-10.2L175.1,58.7z"/>
		<polygon class="st0" points="179.4,71.7 179.3,58.7 180.9,58.4 180.8,71.7 		"/>
		<path class="st0" d="M192,61.9l-1.3-1.3l1.3-1.3l1.3,1.3L192,61.9z M192.6,68.8c0-0.4,0-0.9-0.2-1.3c-0.1-0.4-0.2-0.7-0.5-1.1
			c-0.2-0.3-0.4-0.5-0.7-0.7c-0.3-0.2-0.6-0.3-0.9-0.3c-0.3,0-0.6,0.1-0.8,0.2c-0.3,0.1-0.5,0.3-0.7,0.6c-0.2,0.3-0.4,0.6-0.5,0.9
			c-0.1,0.3-0.2,0.7-0.2,1c0,0.5,0.2,1,0.6,1.4c0.5,0.3,1,0.5,1.6,0.5c0.3,0,0.6,0,0.8-0.1c0.2-0.1,0.5-0.1,0.7-0.3
			c0.2-0.1,0.3-0.2,0.5-0.4C192.6,69.1,192.6,68.9,192.6,68.8 M189,61.9l-1.3-1.3l1.3-1.3l1.3,1.3L189,61.9z M194,68.6
			c0.1,0.9-0.3,1.8-0.9,2.5c-0.7,0.6-1.7,0.9-2.6,0.9c-1,0.1-1.9-0.2-2.7-0.9c-0.6-0.7-1-1.5-0.9-2.5c0-0.6,0.1-1.3,0.3-1.9
			c0.2-0.6,0.4-1.1,0.8-1.6c0.3-0.4,0.7-0.8,1.1-1.1c0.4-0.3,0.9-0.4,1.4-0.4c0.5,0,1,0.1,1.4,0.4c0.4,0.3,0.8,0.6,1.1,1
			c0.3,0.5,0.6,1,0.8,1.6C193.9,67.2,194,67.9,194,68.6"/>
		<path class="st0" d="M193.4,74.2c0.7-0.3,1.4-0.6,2.1-1c0.6-0.3,1.1-0.7,1.6-1.1c0.4-0.3,0.8-0.7,1.1-1.2c0.2-0.3,0.4-0.7,0.4-1.1
			c0-0.3-0.1-0.6-0.2-0.9c-0.1-0.4-0.2-0.8-0.4-1.1c-0.2-0.4-0.4-0.9-0.6-1.3c-0.2-0.4-0.5-0.9-0.7-1.3l1.5-0.8
			c0.6,0.8,1,1.6,1.4,2.6c0.3,0.8,0.5,1.7,0.5,2.6c0,1.3-0.5,2.6-1.5,3.6c-1.2,1.2-2.6,2.1-4.2,2.6L193.4,74.2z"/>
		<polygon class="st0" points="202.9,71.7 202.8,58.7 204.4,58.4 204.3,71.7 		"/>
		<path class="st0" d="M209.3,62.8l-1.3-1.3l1.3-1.3l1.3,1.3L209.3,62.8z M205.5,74.2c0.7-0.3,1.4-0.6,2.1-1
			c0.6-0.3,1.1-0.7,1.6-1.1c0.4-0.3,0.8-0.7,1.1-1.2c0.2-0.3,0.4-0.7,0.4-1.1c0-0.3-0.1-0.6-0.2-0.9c-0.1-0.4-0.2-0.8-0.4-1.1
			c-0.2-0.4-0.4-0.9-0.6-1.3c-0.2-0.4-0.5-0.9-0.7-1.3l1.5-0.8c0.6,0.8,1,1.6,1.4,2.6c0.3,0.8,0.5,1.7,0.5,2.6
			c0,1.3-0.6,2.6-1.5,3.6c-1.2,1.2-2.6,2.1-4.2,2.6L205.5,74.2z"/>
		<path class="st0" d="M218.1,69.9c0.4,0,0.8-0.1,1.1-0.2c0.3-0.1,0.6-0.2,0.9-0.4c0-0.9-0.2-1.7-0.6-2.5c-0.4-0.8-1.4-1.1-2.3-0.7
			c-0.2,0.1-0.4,0.2-0.5,0.4c-0.4,0.4-0.5,1-0.5,1.6c0,0.5,0.2,1,0.5,1.3C217.1,69.7,217.6,69.9,218.1,69.9 M214.8,74.1
			c3-0.4,4.7-1.5,5.1-3.2c-0.3,0.2-0.6,0.4-1,0.5c-0.4,0.1-0.8,0.2-1.2,0.2c-0.8,0-1.6-0.4-2.2-1c-0.6-0.7-0.9-1.6-0.8-2.5
			c0-0.5,0.1-1.1,0.3-1.6c0.1-0.5,0.4-0.9,0.7-1.3c0.3-0.3,0.6-0.6,1-0.8c0.4-0.2,0.8-0.3,1.3-0.3c1,0,2,0.5,2.5,1.5
			c0.7,1.3,1,2.7,0.9,4.1c0,0.8-0.1,1.6-0.4,2.3c-0.3,0.7-0.7,1.3-1.2,1.9c-0.5,0.5-1.2,1-1.9,1.3c-0.8,0.4-1.6,0.6-2.4,0.7
			L214.8,74.1z"/>
		<polygon class="st0" points="79.1,79 80.8,79 84.5,85.3 88.2,79 89.8,79 90.4,91.2 88.7,91.2 88.3,81.9 84.8,87.6 84,87.6 
			80.6,81.9 80.2,91.2 78.5,91.2 		"/>
		<path class="st0" d="M92.5,82.7h1.6v8.5h-1.6V82.7z M93.3,79l1.3,1.3l-1.3,1.3L92,80.3L93.3,79z"/>
		<path class="st0" d="M96.5,91.2v-7.9c0-0.1,0-0.3,0-0.5h1.6l0,1.3c0.1-0.2,0.3-0.3,0.4-0.5c0.2-0.2,0.4-0.4,0.6-0.5
			c0.3-0.2,0.5-0.3,0.8-0.4c0.3-0.1,0.7-0.2,1.1-0.2c0.9-0.1,1.8,0.3,2.5,1c0.6,0.7,0.8,1.7,0.8,2.6v5.1h-1.6v-5
			c0.1-0.6-0.1-1.2-0.5-1.7c-0.4-0.4-0.9-0.6-1.4-0.6c-0.4,0-0.8,0.1-1.2,0.3c-0.3,0.2-0.6,0.5-0.8,0.8c-0.2,0.3-0.3,0.7-0.4,1.1
			c-0.1,0.4-0.1,0.8-0.1,1.2v3.9L96.5,91.2z"/>
		<path class="st0" d="M106.2,82.7h1.6v8.5h-1.6V82.7z M107,79l1.3,1.3l-1.3,1.3l-1.3-1.3L107,79z"/>
		<path class="st0" d="M110.6,89c0.3,0.3,0.7,0.6,1.1,0.7c0.5,0.2,1,0.3,1.5,0.3c0.5,0,0.9-0.1,1.4-0.3c0.3-0.1,0.6-0.5,0.6-0.8
			c0-0.2,0-0.3-0.1-0.5c-0.1-0.2-0.2-0.3-0.4-0.4c-0.2-0.1-0.5-0.2-0.8-0.3c-0.3-0.1-0.7-0.2-1.2-0.3c-0.3-0.1-0.7-0.2-1-0.3
			c-0.3-0.1-0.6-0.3-0.9-0.5c-0.3-0.2-0.5-0.4-0.6-0.7c-0.2-0.3-0.2-0.7-0.2-1c0-0.4,0.1-0.8,0.3-1.1c0.2-0.3,0.4-0.6,0.8-0.8
			c0.3-0.2,0.7-0.4,1.1-0.5c0.4-0.1,0.8-0.2,1.2-0.2c0.6,0,1.3,0.1,1.9,0.3c0.5,0.2,1,0.4,1.4,0.8l-0.9,1.1c-0.3-0.3-0.6-0.5-1-0.6
			c-0.4-0.2-0.9-0.2-1.3-0.2c-0.4,0-0.9,0.1-1.3,0.3c-0.3,0.2-0.5,0.5-0.5,0.8c0,0.4,0.3,0.7,0.6,0.8c0.5,0.2,1.1,0.4,1.7,0.5
			c0.4,0.1,0.8,0.2,1.1,0.3c0.3,0.1,0.6,0.3,0.9,0.5c0.3,0.2,0.5,0.5,0.6,0.7c0.1,0.3,0.2,0.7,0.2,1c0,0.4-0.1,0.8-0.3,1.1
			c-0.2,0.3-0.5,0.6-0.8,0.8c-0.3,0.2-0.7,0.4-1.1,0.5c-0.4,0.1-0.9,0.2-1.3,0.2c-1.3,0.1-2.6-0.3-3.6-1.2L110.6,89z"/>
		<path class="st0" d="M119.3,84.1h-1.5v-1.4h1.5v-2.8h1.6v2.8h2.5v1.4h-2.5v4.2c0,0.5,0.1,1,0.3,1.4c0.2,0.3,0.6,0.4,0.9,0.4
			c0.3,0,0.5,0,0.8-0.1c0.2-0.1,0.4-0.3,0.6-0.4l0.8,1c-0.3,0.3-0.7,0.6-1.1,0.7c-0.4,0.2-0.9,0.2-1.3,0.2c-0.7,0.1-1.5-0.2-2-0.7
			c-0.5-0.7-0.7-1.5-0.6-2.3L119.3,84.1z"/>
		<path class="st0" d="M125.7,91.2v-7.9c0-0.1,0-0.3,0-0.5h1.6v1.4c0.1-0.2,0.2-0.3,0.4-0.5c0.2-0.2,0.4-0.4,0.6-0.5
			c0.2-0.2,0.5-0.3,0.8-0.4c0.3-0.1,0.7-0.2,1-0.2c0.2,0,0.3,0,0.5,0c0.1,0,0.3,0.1,0.4,0.1l-0.4,1.5c-0.3-0.1-0.6-0.1-0.8-0.1
			c-0.7,0-1.3,0.3-1.7,0.8c-0.2,0.2-0.4,0.5-0.5,0.8c-0.1,0.3-0.2,0.7-0.2,1v4.5L125.7,91.2z"/>
		<path class="st0" d="M132.6,93.2c0.1,0.1,0.3,0.2,0.4,0.3c0.2,0.1,0.4,0.1,0.6,0.1c0.2,0,0.3,0,0.5-0.1c0.2-0.1,0.3-0.2,0.4-0.4
			c0.1-0.2,0.2-0.4,0.3-0.6c0.1-0.3,0.2-0.5,0.4-0.9l0.2-0.6l-3.8-8.4h1.9l2.7,6.4l2.4-6.4h1.8l-3.4,8.2c-0.2,0.4-0.3,0.8-0.5,1.3
			c-0.2,0.5-0.4,0.9-0.6,1.3c-0.2,0.4-0.5,0.7-0.9,1c-0.4,0.3-0.8,0.4-1.3,0.4c-0.4,0-0.7,0-1.1-0.2c-0.3-0.1-0.5-0.3-0.8-0.5
			L132.6,93.2z"/>
		<path class="st0" d="M148.5,90c0.4,0,0.8-0.1,1.2-0.3c0.4-0.2,0.7-0.4,0.9-0.7c0.2-0.3,0.4-0.6,0.6-1c0.3-0.7,0.3-1.5,0-2.3
			c-0.1-0.4-0.3-0.7-0.6-1c-0.2-0.3-0.6-0.5-0.9-0.7c-0.4-0.2-0.8-0.3-1.2-0.3c-0.4,0-0.8,0.1-1.2,0.3c-0.3,0.2-0.6,0.4-0.9,0.7
			c-0.2,0.3-0.4,0.6-0.6,1c-0.3,0.7-0.3,1.5,0,2.3c0.1,0.4,0.3,0.7,0.6,1c0.2,0.3,0.5,0.5,0.9,0.7C147.7,89.9,148.1,90,148.5,90
			 M148.5,91.4c-0.6,0-1.2-0.1-1.8-0.4c-0.5-0.2-1-0.6-1.4-1c-0.4-0.4-0.7-0.9-0.9-1.4c-0.5-1.1-0.5-2.4,0-3.5
			c0.2-0.5,0.5-1,0.9-1.4c0.4-0.4,0.9-0.8,1.4-1c0.6-0.2,1.2-0.4,1.8-0.4c0.6,0,1.2,0.1,1.8,0.4c0.5,0.2,1,0.6,1.4,1
			c0.4,0.4,0.7,0.9,0.9,1.5c0.7,1.7,0.3,3.6-0.9,4.9c-0.4,0.4-0.9,0.8-1.4,1C149.7,91.3,149.1,91.4,148.5,91.4"/>
		<path class="st0" d="M155.4,84.1h-1.5v-1.4h1.5V82c0-0.5,0.1-1,0.3-1.5c0.1-0.4,0.4-0.7,0.7-1c0.3-0.3,0.6-0.5,0.9-0.6
			c0.4-0.1,0.7-0.2,1.1-0.2c0.4,0,0.9,0.1,1.3,0.2c0.4,0.1,0.8,0.4,1.2,0.7l-0.8,1.1c-0.4-0.4-0.9-0.6-1.4-0.6
			c-0.4,0-0.8,0.1-1.1,0.5c-0.3,0.5-0.5,1-0.4,1.6v0.6h2.4v1.4h-2.4v7.1h-1.6V84.1z"/>
		<path class="st0" d="M175.2,89c-0.2,0.3-0.4,0.5-0.6,0.7c-0.3,0.3-0.6,0.6-1,0.8c-0.4,0.3-0.9,0.5-1.4,0.6
			c-0.6,0.2-1.1,0.3-1.7,0.3c-0.8,0-1.7-0.1-2.5-0.4c-0.7-0.3-1.4-0.7-1.9-1.3c-0.5-0.6-1-1.3-1.2-2c-0.6-1.6-0.6-3.4,0-5
			c0.3-0.7,0.7-1.4,1.2-2c0.5-0.6,1.2-1.1,1.9-1.4c0.8-0.3,1.6-0.5,2.5-0.5c1.1,0,2.1,0.3,3.1,0.8c0.4,0.2,0.7,0.5,1,0.8
			c0.2,0.2,0.5,0.5,0.7,0.8l-1.2,1.1c-0.2-0.2-0.3-0.4-0.5-0.6c-0.2-0.2-0.5-0.4-0.7-0.6c-0.3-0.2-0.6-0.3-1-0.5
			c-0.4-0.2-0.8-0.2-1.2-0.3c-0.6,0-1.2,0.1-1.8,0.4c-0.5,0.2-1,0.6-1.3,1c-0.4,0.5-0.7,1-0.9,1.6c-0.4,1.2-0.4,2.5,0,3.7
			c0.2,0.5,0.5,1.1,0.8,1.5c0.4,0.4,0.8,0.8,1.3,1c0.5,0.2,1.1,0.4,1.7,0.4c0.5,0,1-0.1,1.4-0.2c0.4-0.1,0.7-0.3,1-0.5
			c0.3-0.2,0.5-0.4,0.7-0.6L174,88L175.2,89z"/>
		<path class="st0" d="M176.9,82.7h1.6v5c-0.1,0.6,0.1,1.2,0.5,1.7c0.4,0.4,0.9,0.6,1.4,0.5c0.4,0,0.8-0.1,1.2-0.3
			c0.3-0.2,0.6-0.5,0.8-0.8c0.2-0.3,0.3-0.6,0.4-1c0.1-0.4,0.1-0.8,0.1-1.2v-4h1.6v7.9c0,0.2,0,0.3,0,0.5H183v-1.3
			c-0.1,0.2-0.3,0.3-0.4,0.5c-0.4,0.4-0.9,0.7-1.4,0.8c-0.3,0.1-0.7,0.2-1,0.2c-0.9,0.1-1.8-0.3-2.4-1c-0.6-0.7-0.8-1.7-0.8-2.6
			L176.9,82.7z"/>
		<rect x="186.8" y="79" class="st0" width="1.6" height="12.1"/>
		<path class="st0" d="M191.4,84.1h-1.5v-1.4h1.5v-2.8h1.6v2.8h2.5v1.4h-2.5v4.2c0,0.5,0.1,1,0.3,1.4c0.2,0.3,0.6,0.4,0.9,0.4
			c0.3,0,0.5,0,0.8-0.1c0.2-0.1,0.4-0.3,0.6-0.4l0.8,1c-0.3,0.3-0.7,0.6-1.1,0.7c-0.4,0.2-0.9,0.2-1.3,0.2c-0.7,0.1-1.5-0.2-2-0.7
			c-0.5-0.7-0.7-1.5-0.6-2.3L191.4,84.1z"/>
		<path class="st0" d="M197.5,82.7h1.6v5c-0.1,0.6,0.1,1.2,0.5,1.7c0.4,0.4,0.9,0.6,1.4,0.5c0.4,0,0.8-0.1,1.2-0.3
			c0.3-0.2,0.6-0.5,0.8-0.8c0.2-0.3,0.3-0.6,0.4-1c0.1-0.4,0.1-0.8,0.1-1.2v-4h1.6v7.9c0,0.2,0,0.4,0,0.5h-1.5l-0.1-1.3
			c-0.1,0.2-0.3,0.3-0.4,0.5c-0.2,0.2-0.4,0.3-0.6,0.5c-0.3,0.2-0.5,0.3-0.8,0.4c-0.3,0.1-0.7,0.2-1,0.2c-0.9,0.1-1.8-0.3-2.4-1
			c-0.6-0.7-0.8-1.7-0.8-2.6L197.5,82.7z"/>
		<path class="st0" d="M207.4,91.2v-7.9c0-0.1,0-0.3,0-0.5h1.6l0.1,1.4c0.1-0.2,0.2-0.3,0.4-0.5c0.2-0.2,0.4-0.4,0.6-0.5
			c0.2-0.2,0.5-0.3,0.8-0.4c0.3-0.1,0.7-0.2,1-0.2c0.2,0,0.3,0,0.5,0c0.1,0,0.3,0.1,0.4,0.1l-0.4,1.5c-0.3-0.1-0.6-0.1-0.8-0.1
			c-0.3,0-0.7,0.1-1,0.2c-0.3,0.1-0.6,0.3-0.8,0.6c-0.2,0.2-0.4,0.5-0.5,0.8c-0.1,0.3-0.2,0.7-0.2,1v4.5L207.4,91.2z"/>
		<path class="st0" d="M219.8,86.2c0-0.6-0.3-1.2-0.7-1.7c-0.5-0.5-1.1-0.7-1.8-0.7c-0.3,0-0.7,0.1-1,0.2c-0.3,0.1-0.6,0.3-0.8,0.5
			c-0.2,0.2-0.4,0.5-0.5,0.8c-0.1,0.3-0.2,0.6-0.2,0.9L219.8,86.2z M221.2,89.9c-0.1,0.1-0.3,0.3-0.4,0.4c-0.2,0.2-0.5,0.4-0.8,0.5
			c-0.3,0.2-0.7,0.3-1.1,0.4c-0.5,0.1-0.9,0.2-1.4,0.2c-0.6,0-1.2-0.1-1.8-0.3c-0.5-0.2-1-0.5-1.4-0.9c-0.4-0.4-0.7-0.9-0.9-1.4
			c-0.2-0.6-0.3-1.2-0.3-1.9c0-0.6,0.1-1.2,0.3-1.7c0.2-0.5,0.5-1,0.9-1.4c0.8-0.8,1.9-1.3,3-1.3c0.7,0,1.3,0.1,1.9,0.4
			c0.5,0.3,1,0.7,1.3,1.1c0.3,0.5,0.6,1,0.7,1.6c0.2,0.6,0.2,1.2,0.2,1.9h-6.7c0,0.3,0.1,0.7,0.2,1c0.2,0.3,0.4,0.6,0.6,0.8
			c0.3,0.2,0.6,0.4,0.9,0.5c0.3,0.1,0.7,0.2,1,0.2c0.6,0,1.2-0.1,1.8-0.4c0.4-0.2,0.7-0.4,1-0.7L221.2,89.9z"/>
		<path class="st0" d="M191.7,10.5c-0.9,12.1,0.2,24.2-0.1,36.4c0,2.2,0.2,4.6,0.1,6.9c0,0.3-0.1,0.5-0.5,0.5
			c-0.6-0.1-1.1-0.1-1.7,0c-0.2-1.6-0.1-2.9-0.3-4.3c-0.2-2.9-0.3-5.9-0.2-8.8c0-5.7-0.5-11.4-0.1-17.1c0.1-2.4,0.2-4.9,0.1-7.3
			c-0.1-2.1-0.2-4.1-0.1-6.2C189.9,10.4,190.8,10.4,191.7,10.5"/>
		<path class="st0" d="M91.3,7.1c1,0.1,1.4,0.4,1.5,1.5c0.1,1.7-0.1,2.6,0,4.2c0.6,5.4-0.7,10.9-0.1,16.3c0.3,2.9,0,5.4,0.1,8.3
			c0.2,4.3,0,9.1-0.2,14.1H79.4c-0.5-0.7-0.4-4-0.2-4.9c0.1-0.8,0.1-1.5,0.1-2.3c0-3.2,0.2-6,0.1-9.1c0-1.9-0.1-3.7-0.3-5.5
			c-0.3-1.6,0.2-4.5-0.1-6.1c-0.3-2-0.5-14.2-0.4-16.5C78.5,7.2,89.7,7,91.3,7.1"/>
		<path class="st0" d="M115.7,10c-0.8-0.3-0.7,0.6-0.6,1.1c0,0.5,0,0.7,0,1.3c0,1.2,0.1,4.4,0.1,5.5c0,1.9,0.1,3.6,0.1,5.2
			c-0.1,2.9-0.1,5.8,0,8.6c0.3,7.2-0.1,14.3,0.2,21.4c0,0.6,0.4,0.8,1,0.9l0.8,0.1c0-6.1,0.5-12.5,0.1-18.6
			c-0.2-2.5-0.1-5.1-0.1-7.6s0-4.9,0-7.3c0-1.5,0-3,0-4.4c-0.1-1.8,0-5.4-0.5-5.8C116.5,10.2,116.2,10.2,115.7,10"/>
		<path class="st0" d="M102.6,49.2c0.8,0,0.7-0.6,0.7-1.1c0-0.5,0.1-0.7,0.1-1.3c0-1.2-0.1-4.4-0.1-5.6c0-2-0.1-3.7-0.1-5.2
			c0.1-2.9,0.1-5.8,0-8.7c-0.3-7.2,0.1-14.4-0.1-21.6c0-0.6-0.4-0.7-1.1-0.7h-1c0,6.1,0.1,12.7,0.2,19.2c0,2.6,0,4.6,0,7.1
			s0,4.4,0,6.9c0,1.3-0.1,2.7-0.1,4.6c0,1.8-0.1,5.3,0.3,5.9C101.6,49,102,49.2,102.6,49.2"/>
		<path class="st0" d="M120.1,52.9c-0.7-0.1-0.8-0.4-0.8-1.3c0.1-2.5-0.1-7.9-0.4-11.2c-0.2-3-0.2-6,0.2-8.9c0.3-2-0.1-3.6-0.1-6.1
			c0-3.3,0.2-5.9,0.2-8.2c0-1.4-0.1-2.8-0.1-4.1s0-4.1,0-4.4c0.4,0,0.8,0,1.2,0c0.5,0,1.1,0.2,1.6,0.4c0.2,1.9,0.3,3.8,0.2,5.6
			c0,0.9-0.1,4.7,0,5.6c0.1,1.5,0,3,0.1,4.5c0,1.9,0.1,3.8,0.1,5.8c0,2.4-0.2,4.9-0.3,7.3c-0.1,4.5,0.5,10.3,0.4,14
			c0,0.8,0.1,1.2-0.7,1.2L120.1,52.9"/>
		<path class="st0" d="M187.6,50.9c0.2-1.9-0.3-4.8-0.3-6.3c0-0.9-0.1-4.5,0-5.4c0.1-1.5,0-2.9,0-4.4c0-1.9,0.1-3.7,0.1-5.6
			c0-2.4-0.3-4.7-0.3-7.1c-0.2-4.9,0.6-11.4,0.3-14.9C185.9,7,184.5,6.9,183,7c-0.3,2.9-0.4,5.9-0.3,8.8c0,2.2-0.2,4.7-0.1,7.9
			c0,2.4,0.7,5.4,0.4,7.3c-0.4,2.9-0.4,5.8-0.1,8.7c0.4,4.1,0.3,10.9,0.3,11L187.6,50.9z"/>
		<path class="st0" d="M200.6,51c0.2-5.1,0.2-8.2,0.3-12.5c0.1-3.1-0.4-7-0.4-10.3c0.2-4.5,0.1-9.1-0.3-13.6c-0.1-1.3,0.1-3.6,0-4.9
			c0-0.8-0.1-1.9-0.1-2.8c2.4,0.5,4.9,0.6,7.3,0.2c5.1-1.1,13.5,0,13.5,0c0.4,1.1,0.6,2.2,0.6,3.3c-0.1,2-0.1,4,0,6
			c0.1,3.5-0.5,6.5-0.5,11.4c0,3.2,0.5,5.3,0.6,7.4c0.1,2.1-0.3,4-0.1,7.5c0.1,2.1,0,7.8,0.1,8.3c0,0-15.1,0.1-18.3-0.3
			C202.2,50.7,201.4,50.8,200.6,51"/>
		<path class="st0" d="M173,5.1c0.1,7.6,0.2,16,0.5,22.9c0.1,2.3,0.1,5.2,0.2,7.8c0,1.2-0.2,3.5-0.3,5c-0.1,1.3,0,2.5,0,3.8
			c0.1,1.4,0.1,2.8,0,4.2c-0.8-0.1-1.6-0.1-2.5,0c-0.2-1-0.2-2-0.1-3c0.2-9.1-0.5-15.8-0.3-24.1c0-2.7,0-6.4-0.3-9.2
			c-0.2-2.4-0.2-4.9,0.1-7.3C171.3,5,172.1,5,173,5.1"/>
		<path class="st0" d="M198.3,5.5c0.2,3.9,0.1,6.5,0.1,9.9c0.1,3,0.4,5.5,0.2,8.9c-0.2,2.9,0.2,5.9,0.2,8.8c0.1,2.9,0.1,5.7,0.2,8.6
			c0,2.2,0.1,4.2,0.1,6.4c0,0.4,0,1.2,0,1.5c-0.5-0.1-1-0.1-1.5-0.1c-1.3,0.1-2.7,0.1-4-0.2c-0.5-0.1-0.1-7.8-0.1-8.5
			c0.1-2.9,0.1-5.8,0-8.7c0-2.9-0.3-6-0.3-9s0.1-5.8,0-8.7s-0.2-5.5-0.3-8.5c0-0.6,0.6-0.9,1.5-0.7C195.7,5.5,197.1,5.1,198.3,5.5"
			/>
		<path class="st0" d="M97.8,9.2c0.9,0.2,1.6,1,1.6,2c0,1.4,0,2.7,0,3.9c0,1.4-0.1,2.8-0.1,4.3c0.1,6.2,0.3,12.1,0.1,18.5
			c-0.2,5.4,0.3,10.7,0.2,15.7c-1.7-0.1-3.6-0.2-5.2-0.3c0.5-9.2,0.2-17.9,0.1-27.5c-0.1-5.4,0.8-9.6,0.1-16.7
			C95.7,9,96.8,9,97.8,9.2"/>
		<path class="st0" d="M127.2,22.1c1.1-0.7,2.3-1.3,3.5-1.7c-1.9-0.7-4-0.5-5.7,0.5c-1.6,1-1.1,3.8-1.3,5.6
			C124.5,24.8,125.7,23.3,127.2,22.1 M124.3,46.8c-0.1,1.8,0,3.2,0.1,5.3c1.5-0.1,3,0,4.6,0.1c1.7,0.1,3.5-0.1,5.2,0.1
			C131.5,49.6,128.2,47.1,124.3,46.8 M133,33.4c-0.3,1-0.5,1.9-0.6,2.9c-0.1,0.4-0.4,2.6-0.4,2.6c-0.1-0.1-0.2-0.2-0.3-0.4
			c-0.6-1.7-0.8-3.5-0.7-5.3c0.3-5.1,2.1-6.5,2.2-6.5c-0.8-0.5-2.5,1.5-3.3,2.7c-1.2,1.6-1,2.8-1.1,5.3c-0.6-0.1-1.2-1.2-1.3-1.9
			c-0.2-4,1.6-7.6,3.5-9.1c-0.9,0-1.8,0.2-2.6,0.5c-1.5,0.6-2.8,1.8-3.5,3.3c-1.6,3.2-0.6,6.9-0.8,10.4c-0.1,2,0.2,3.9,0.1,5.9
			c0,1.5-0.4,1.8,1.1,1.9c0.6,0,1.2,0.1,1.8,0.3c3.4,0.7,6.5,2.5,8.9,5c0.4-4.6,0.5-8.8,0.5-13.5c0-1.8,0.3-5.7-0.9-7.3
			S133.2,32.4,133,33.4 M168.9,29.6c-0.1-3.3-0.1-9.5,0.2-12.7c0.3-3.7-0.6-9.2-2.7-9.1c-1.8,0-3.6,0-5.5,0.2
			c-1.4,0.1-3.2,0.1-4.6,0.2c-2.4,0.2-2.7-0.1-5.1-0.1c-3,0-5.7,0.3-8.7,0.3s-6.2-0.1-9.2-0.3c-2.9-0.3-5.9-0.5-8.8-0.5
			c-0.4,0-0.7,1.9-0.7,4.2c-0.1,2.3-0.2,6.9,0,9.2c1.1-1.4,2.8-2.3,4.7-2.4c1.4-0.2,2.9-0.2,4.3,0c-0.5-0.6-1.1-1.2-1.8-1.7
			c-0.5-0.4-1.1-0.7-1.7-0.9c-0.8-0.1-1.6-0.1-2.4-0.1c1-1.2,2.5-1.7,4-1.4c1.3,0.2,3.5,2.5,4.3,1.9c0.8-0.6,0.5-3.5,1.7-3.7
			c1-0.2,1.6,3.4,2,4.2c1.1-1.4,2.7-2.3,4.5-2.5c0.9-0.1,3.7,0.2,4.1,1.6c-2.2-0.3-4.5,0.7-5.8,2.6c3-1.3,6.5-0.8,9,1.2
			c0.7,0.5,1.2,1.2,1.7,1.9c0.5,0.5,0.7,1.2,0.6,2c-1.2-0.2-2.3-2.2-4.3-2.9c-1.7-0.5-3.5-0.4-5.2,0.1c3.8,0.6,9.1,5.7,7.3,9.9
			c-0.6,1.3-0.8,0.4-1-0.7c-0.2-1.1-0.6-2.1-1.3-3c-0.6-0.8-1.2-1.5-1.9-2.1c-1-0.8-2.1-1.2-3.4-1.4c2.5,0.7,4,5.6,4.3,6.1
			c0.4,1.3,0.6,2.7,0.5,4.1c0,0.8,0.1,3.5-0.9,3.7c0,0,0.2-6.5-4.5-10.3c1.1,2.2,1.5,4.7,1.2,7.1c0,1.2-0.3,2.5-0.9,3.6
			c-0.1,0.3-0.6,1.5-0.8,1.5c-0.6,0.1-0.3-3.7-0.4-4.3c-0.1-0.8-1.6-6.4-3.2-5.1c-0.8,0.7-0.4,3.9-0.3,5.3c0.1,1.7,0.3,4.2,0.4,6
			c0,3.2,0.2,6.5,0.6,9.7c4.2-2.2,22.2-11.5,24.8-3.9c0,0.2-0.1,0.1-0.1,0.1l0,0c-1.8-2.6-6.6-1.3-9-0.5c-4.3,1.4-8.4,3.3-12.3,5.6
			c6.4,0,16.3,0,23.6,0c1.7,0,3-1.3,3-3c0,0,0,0,0-0.1c0-1.2-0.1-2.7-0.1-4.3c0-1.8,0.1-3.8,0.2-5.6C169.5,35.3,169,33.2,168.9,29.6
			"/>
		<path class="st0" d="M180,8.6c0.2,0,0.4,0.2,0.4,0.5c0.1,5,0.2,9.5,0.5,14.6c0.2,2.5,0.2,5-0.1,7.5c-0.4,3.2,0.4,5.7,0.2,8.9
			c-0.3,4.2,0.3,7.6,0.1,11.8l-5.2,0.1c-0.4,0-0.8-0.4-0.8-1.4c0.1-1,0-5.3,0-8.5c0-3.2,0.4-6.2,0.1-9.8c-0.2-1.8,0.3-3.7,0.1-5.4
			c-0.2-3.2-0.3-6.1-0.4-9.3c0-1.9,0-4.8-0.1-6.7c0-1.3,0.2-2.3,1-2.6C176.8,7.8,179.1,8.5,180,8.6"/>
		<path class="st0" d="M105,46.8c-0.1,1.2-0.1,1.6-0.1,2.1s0.3,0.4,0.5,0.5c0.7,0.2,1.3,0.4,2,0.5c0.4,0.1,0.9,0.1,1.4,0.2
			c1.4,0,2.7,0.4,4,0.3c0,0,0.1,0,0.1,0c0.4-0.2,0.6-0.6,0.6-1c0.2-1.1-0.2-2.1,0-4.2c0.2-2.1,0-7.7,0-9.1
			c0.1-10.3-0.5-10.4-0.2-18.4c0.1-2.2,0-4.4-0.3-6.7c-0.2-1.4-0.3-2.7-0.3-4.1c0.1-0.4-0.2-0.8-0.6-0.9c0,0-0.1,0-0.1,0
			c-2.2-0.1-6.9,0.2-6.9,0.2c-0.3,1.1-0.3,2.3-0.2,3.4c0,1-0.1,2.6-0.1,3.5s-0.1,2.2,0,3.3c0.1,2.9,0.2,5.9,0.1,8.8
			c-0.2,7.4,0.4,11.7,0.1,19V46.8z"/>
	</g>
</g>
</svg>
