<?xml version="1.0" encoding="utf-8"?>
<!-- Generator: Adobe Illustrator 24.0.1, SVG Export Plug-In . SVG Version: 6.00 Build 0)  -->
<svg version="1.1" id="Layer_1" xmlns="http://www.w3.org/2000/svg" xmlns:xlink="http://www.w3.org/1999/xlink" x="0px" y="0px"
	 viewBox="0 0 300 100" style="enable-background:new 0 0 300 100;" xml:space="preserve">
<style type="text/css">
	.st0{fill:#3E3E3E;}
	.st1{fill-rule:evenodd;clip-rule:evenodd;fill:#3E3E3E;}
</style>
<title>Asset 14</title>
<g id="Layer_2_1_">
	<g id="Layer_1-2">
		<path class="st0" d="M44.5,32.7c0.5-7.1,4.4-13.1,9.7-15.3c-0.5-1.1-0.7-2.3-0.7-3.5c0-0.4,0-0.8,0.1-1.2
			C47.4,15.4,42.8,23,42.6,32l0.9,0.3L44.5,32.7"/>
		<path class="st0" d="M74.8,32.1c-0.2-9-4.8-16.6-11-19.4c0,0.4,0.1,0.8,0.1,1.2c0,1.2-0.2,2.4-0.7,3.5c5.2,2.2,9.1,8.1,9.6,15.3
			l1.1-0.4L74.8,32.1"/>
		<path class="st0" d="M58.7,19.5c2.1,0,3.8-2.5,3.8-5.6s-1.7-5.6-3.8-5.6s-3.8,2.5-3.8,5.6S56.6,19.5,58.7,19.5"/>
		<path class="st0" d="M94.9,47.2C94.4,52.8,90,58.2,83.5,61l0.7,0.9c0.2,0.3,0.3,0.5,0.5,0.8c8.4-3,14.2-9.7,14.9-16.4
			C98.1,47,96.5,47.3,94.9,47.2"/>
		<path class="st0" d="M74.7,34.1c6.9-1.7,13.7,0.2,17.4,4.5c0.9-0.8,2-1.4,3.1-1.7c0.4-0.1,0.8-0.2,1.2-0.3c-4.5-5-13-7-21.7-4.5
			c0,0.2,0,0.5,0,0.8C74.8,33.2,74.8,33.7,74.7,34.1"/>
		<path class="st0" d="M72.9,34.6l0.2-0.1c0.6-0.2,1.1-0.3,1.7-0.5c0-0.4,0-0.8,0-1.3c0-0.3,0-0.5,0-0.8l-0.9,0.3l-1.1,0.4
			c0,0.5,0.1,1.1,0.1,1.6C72.9,34.4,72.9,34.5,72.9,34.6"/>
		<path class="st0" d="M102.2,40c-0.7-2-3.6-2.8-6.6-1.9c-3,1-4.8,3.4-4.2,5.4s3.6,2.8,6.6,1.9S102.9,42,102.2,40"/>
		<path class="st0" d="M82.7,63.2c3.7,6,4,13.1,1.1,17.9c1,0.6,1.9,1.5,2.6,2.4c0.2,0.3,0.4,0.7,0.6,1c3.4-5.8,2.6-14.6-2.4-22
			l-0.9,0.3C83.5,63,83.1,63.1,82.7,63.2"/>
		<path class="st0" d="M58.6,81.5c5.5,7.1,13.6,10.6,20.2,9.2c-0.3-0.3-0.5-0.6-0.8-0.9c-0.7-1-1.2-2.1-1.5-3.3
			c-5.6,1.3-12.1-1.2-16.7-6.6c-0.2,0.3-0.4,0.6-0.6,0.8S58.8,81.2,58.6,81.5"/>
		<path class="st0" d="M79,82.1c-1.7,1.2-1.6,4.3,0.2,6.8s4.7,3.6,6.4,2.3s1.6-4.3-0.2-6.8S80.7,80.9,79,82.1"/>
		<path class="st0" d="M32.6,62.6c-5,7.4-5.7,16.1-2.3,21.9c0.2-0.4,0.4-0.7,0.6-1c0.7-1,1.6-1.8,2.6-2.4c-2.9-4.8-2.6-11.8,1-17.8
			c-0.3-0.1-0.7-0.2-1-0.3L32.6,62.6"/>
		<path class="st0" d="M57.4,79.8c-4.6,5.3-11.1,7.8-16.6,6.4c-0.3,1.2-0.8,2.3-1.5,3.3c-0.2,0.3-0.5,0.6-0.8,0.9
			c6.6,1.4,14.6-2,20.1-9l-0.5-0.7C57.9,80.5,57.6,80.1,57.4,79.8"/>
		<path class="st0" d="M38.4,81.9c-1.7-1.2-4.6-0.2-6.4,2.3c-1.8,2.5-1.9,5.6-0.2,6.8c1.7,1.2,4.6,0.2,6.4-2.3
			C40,86.2,40.1,83.1,38.4,81.9"/>
		<path class="st0" d="M42.6,32c-8.6-2.5-17.2-0.5-21.7,4.5c0.4,0.1,0.8,0.2,1.2,0.3c1.2,0.4,2.2,1,3.2,1.7
			c3.7-4.3,10.4-6.2,17.4-4.5c0-0.4,0-0.9,0-1.3C42.6,32.5,42.6,32.3,42.6,32"/>
		<path class="st0" d="M33.8,60.9c-6.5-2.7-10.9-8.2-11.3-13.8c-1.2,0.1-2.4-0.1-3.6-0.4c-0.4-0.1-0.8-0.3-1.1-0.5
			c0.7,6.7,6.4,13.3,14.8,16.3c0.2-0.3,0.4-0.6,0.6-0.9S33.6,61.2,33.8,60.9"/>
		<path class="st0" d="M44.5,34.6c0-0.1,0-0.2,0-0.3c0-0.5,0-1.1,0.1-1.6l-1.1-0.4c-0.3-0.1-0.6-0.2-0.9-0.3c0,0.2,0,0.5,0,0.8
			c0,0.4,0,0.9,0,1.3c0.6,0.1,1.1,0.3,1.7,0.5L44.5,34.6"/>
		<path class="st0" d="M25.9,43.5c0.6-2-1.2-4.4-4.2-5.4S15.8,38,15.1,40s1.2,4.4,4.2,5.4S25.2,45.5,25.9,43.5"/>
		<path class="st0" d="M90.3,43.9c-2-6.2-10-9.2-17.7-6.7c-0.8,0.2-1.5,0.5-2.2,0.9c0.1-0.8,0.2-1.7,0.2-2.5
			c0-8.2-5.3-14.8-11.8-14.8s-11.8,6.6-11.8,14.8c0,0.8,0.1,1.7,0.2,2.5c-0.7-0.3-1.5-0.6-2.2-0.9c-7.8-2.5-15.7,0.5-17.7,6.7
			s2.6,13.3,10.4,15.8c0.7,0.2,1.4,0.4,2.2,0.6c-0.5,0.5-1,1.1-1.4,1.7c-4.8,6.6-4.4,15.1,0.9,18.9s13.5,1.6,18.3-5
			c0.4-0.6,0.9-1.3,1.2-1.9c0.4,0.7,0.8,1.4,1.3,2.1c4.8,6.6,13,8.8,18.3,5c5.3-3.8,5.7-12.3,0.9-18.9c-0.5-0.6-1-1.2-1.5-1.8
			c0.8-0.1,1.5-0.3,2.3-0.6C87.6,57.2,92.3,50.1,90.3,43.9 M77.3,60.1L77,60.1c0.1,0.1,0.2,0.2,0.2,0.3c0.6,0.6,1.1,1.2,1.6,1.9
			c4.7,6.5,4.3,14.8-0.8,18.5s-13.2,1.5-17.9-4.9c-0.5-0.7-1-1.4-1.4-2.2c-0.1-0.1-0.1-0.2-0.2-0.3c0,0.1-0.1,0.2-0.2,0.3
			c-0.4,0.7-0.8,1.4-1.3,2.1c-4.7,6.5-12.7,8.7-17.9,4.9s-5.5-12.1-0.8-18.5c0.5-0.6,1-1.2,1.5-1.8l0.3-0.2l-0.3-0.1
			c-0.8-0.1-1.6-0.3-2.3-0.6C30,57,25.4,50.1,27.3,44s9.8-9,17.4-6.5c0.8,0.3,1.6,0.6,2.4,1l0.3,0.2l-0.1-0.4
			c-0.1-0.9-0.2-1.8-0.2-2.7c0-8,5.2-14.5,11.5-14.5s11.6,6.5,11.6,14.5c0,0.9-0.1,1.8-0.2,2.7c0,0.1,0,0.2,0,0.3l0.3-0.2
			c0.8-0.4,1.6-0.7,2.4-1C80.2,35,88,37.9,90,44s-2.6,13-10.2,15.5C79,59.7,78.1,59.9,77.3,60.1"/>
		<path class="st0" d="M84.2,61.9c-0.2-0.3-0.5-0.6-0.7-0.9c-0.5,0.2-1.1,0.4-1.6,0.6h-0.2c0,0.1,0.1,0.1,0.1,0.2
			c0.3,0.5,0.7,1,1,1.5l1.1-0.3l0.9-0.3L84.2,61.9"/>
		<path class="st0" d="M58.8,78.5c-0.1-0.1-0.1-0.2-0.2-0.2c0,0,0,0.1,0,0.1c-0.4,0.5-0.8,1-1.2,1.4c0.2,0.3,0.5,0.7,0.7,1l0.5,0.7
			c0.2-0.3,0.4-0.5,0.6-0.8s0.4-0.6,0.6-0.8C59.5,79.4,59.2,78.9,58.8,78.5"/>
		<path class="st0" d="M35.5,61.6c-0.6-0.2-1.2-0.4-1.7-0.7c-0.2,0.3-0.4,0.5-0.6,0.8s-0.4,0.6-0.6,0.9l1,0.3c0.3,0.1,0.7,0.2,1,0.3
			c0.3-0.5,0.7-1.1,1.1-1.6l0,0L35.5,61.6"/>
		<path class="st0" d="M56,47.3c0.1,0.6,0.5,1,1.1,1.2l0,0l0.6,3h-0.9l0.9,4.1h-0.9l0.9,4.1h1.8l0.9-4.1h-0.9l0.9-4.1h-0.9l0.7-3
			c0.6-0.1,1-0.6,1.1-1.2c2.5,0.8,4.3,2.7,5,5.2c0,0,2.3-5.8-2.1-9c-0.7-0.5-1.5-0.9-2.3-1.2c1.5-0.4,3-0.2,4.4,0.4
			c0,0-2.1-4.1-6.6-3c-0.4,0.1-0.7,0.2-1.1,0.4c-0.3-0.2-0.7-0.3-1.1-0.4c-4.6-1.1-6.6,3-6.6,3c1.4-0.6,2.9-0.8,4.4-0.4
			c-0.8,0.3-1.6,0.6-2.3,1.2c-4.3,3.2-2.1,9-2.1,9C51.7,50.1,53.6,48.1,56,47.3"/>
		<path class="st1" d="M74.5,58.4h-0.3c-2.6,0.1-5.3,0.6-7.8,1.4c-1.7,0.6-3.3,1.4-4.8,2.5c-0.6,0.4-1.2,0.9-1.8,1.4
			c-0.1,0.1-0.1,0.1,0,0.2l3,2.8c0.1,0.1,0.1,0.1,0.2,0c0.1-0.2,0.2-0.4,0.2-0.6c0.1-0.3,0.2-0.6,0.5-0.9c0.4-0.4,0.9-0.6,1.4-0.5
			c0.6,0.1,1,0.6,1,1.1c0,0.5-0.4,1-0.9,1.1c-0.4,0.1-0.8,0-1.1-0.2c-0.1-0.1-0.2-0.1-0.3,0.1c-0.1,0.2-0.1,0.5,0,0.7
			c0.3,0.4,0.7,0.6,1.1,0.8c0.2,0.1,0.4,0.1,0.5-0.1c0.4-0.3,0.9-0.4,1.3-0.2c0.4,0.2,0.6,0.6,0.6,1c0,0.4-0.3,0.8-0.7,0.9
			c-0.7,0.2-1.5,0.2-2.1-0.2c-0.6-0.3-1.2-0.7-1.8-1.1c-0.1-0.1-0.1-0.1-0.2,0c-0.4,0.6-1.1,1.1-1.8,1.3c-0.5,0.1-1,0-1.4-0.3
			c-0.5-0.4-0.6-1.1-0.2-1.5c0,0,0.1-0.1,0.1-0.1c0.4-0.5,1.1-0.5,1.6-0.2c0.2,0.1,0.3,0.3,0.3,0.6c0,0.2,0,0.3,0.3,0.2
			c0.2-0.1,0.3-0.2,0.4-0.3c0.1-0.1,0-0.1,0-0.2c-0.3-0.5-0.6-0.9-1-1.2c-0.5-0.5-1.2-1-1.8-1.5c-0.2-0.2-0.3-0.3-0.5-0.4
			s-0.1-0.1-0.2,0c-0.6,0.6-1.3,1.1-2,1.7c-0.5,0.4-0.9,0.9-1.2,1.4c-0.1,0.1-0.1,0.2,0,0.3c0,0,0,0,0,0c0.1,0.1,0.2,0.2,0.4,0.2
			c0.1,0,0.2,0,0.3-0.1c0,0,0-0.1,0-0.1c0-0.1,0.1-0.2,0.1-0.3c0-0.2,0.2-0.4,0.4-0.4c0.1,0,0.3-0.1,0.4-0.1
			c0.6-0.1,1.1,0.3,1.2,0.8c0.2,0.5-0.1,1.1-0.6,1.3C57,70,56.5,70,56,69.8c-0.6-0.2-1.1-0.7-1.4-1.2c0-0.1-0.1-0.1-0.2,0
			c-0.5,0.4-1.1,0.8-1.7,1.1c-0.6,0.3-1.2,0.4-1.8,0.3c-0.6,0-1.1-0.6-1-1.2c0-0.1,0-0.2,0.1-0.4c0.2-0.6,0.8-0.9,1.4-0.7
			c0.2,0.1,0.3,0.2,0.4,0.3c0.1,0.1,0.3,0.2,0.4,0.1c0.5-0.2,0.9-0.5,1.2-0.8c0.2-0.2,0.2-0.5,0-0.7c-0.1-0.1-0.2-0.1-0.3-0.1
			c0,0,0,0,0,0c-0.2,0.1-0.3,0.1-0.5,0.2c-0.5,0.2-1.1,0-1.3-0.5c0-0.1,0-0.1-0.1-0.2c-0.2-0.4-0.1-0.9,0.3-1.2
			c0.3-0.3,0.8-0.4,1.2-0.2l0.1,0.1c0.5,0.2,0.9,0.6,1.1,1.2c0.1,0.3,0.1,0.5,0.3,0.7c0,0.1,0.1,0.1,0.1,0l3-2.8
			c0.1-0.1,0-0.1,0-0.2c-0.7-0.7-1.5-1.3-2.4-1.8c-2.1-1.4-4.5-2.3-7-2.8c-1.4-0.3-2.8-0.5-4.3-0.6h-0.9c-0.1,0-0.1,0-0.2,0l0.9-0.1
			c1.3-0.2,2.6-0.2,3.8-0.1c1.2,0.1,2.4,0.3,3.6,0.5c1.7,0.4,3.4,1.1,4.9,2c0.9,0.6,1.8,1.2,2.7,1.8c0.1,0.1,0.2,0,0.3,0
			c1.4-1.2,2.9-2.1,4.5-2.8c1.5-0.6,3-1.1,4.5-1.3c1.6-0.3,3.2-0.3,4.8-0.2c0.6,0,1.1,0.1,1.7,0.2C74.4,58.5,74.5,58.5,74.5,58.4"/>
		<path class="st0" d="M140.3,48.1c0,0,2.1,2.4,0.6,2.4h-2.5c-1.7,0-3.3-0.9-4.2-2.4c-1.2,0.2-2.5,0.3-3.7,0.4c-4.3,0-8.3-2.1-8.3-7
			c0-5.4,4.6-7.3,9.4-7.3c1.5,0,2.9,0.1,4.4,0.3v8.8c0,3.1,0.9,4.9,3.2,4.9L140.3,48.1L140.3,48.1z M133.1,36.6
			c-0.7-0.1-1.5-0.2-2.3-0.2c-3.2,0-5.7,1.6-5.7,5s2.8,4.7,5.7,4.7c0.8,0,1.6-0.1,2.3-0.2L133.1,36.6z M127.1,29.8
			c0-0.9,0.7-1.6,1.6-1.6c0,0,0,0,0,0c0.9,0,1.7,0.7,1.7,1.6s-0.7,1.7-1.6,1.7C127.9,31.5,127.1,30.8,127.1,29.8
			C127.1,29.8,127.1,29.8,127.1,29.8z M131.5,29.8c0-0.9,0.7-1.6,1.6-1.6c0,0,0,0,0,0c0.9,0.1,1.6,0.9,1.5,1.8
			c-0.1,0.8-0.7,1.5-1.5,1.5C132.2,31.5,131.5,30.7,131.5,29.8C131.5,29.8,131.5,29.8,131.5,29.8L131.5,29.8z"/>
		<path class="st0" d="M139.9,48.1h2.6v-6l2.8-1l-0.6,6.5c1.1-6.3,6-13.3,13.5-13.3c4.2,0,8.5,2.5,8.5,7.3c-0.1,5-4.2,8.9-9.2,8.8
			h-16.6L139.9,48.1z M158.2,36.7c-6.2,0-10.3,5.1-11.8,11.4h11c3.4,0,6.2-2.6,6.3-6c0.1-2.9-2.2-5.3-5.1-5.4
			C158.5,36.7,158.3,36.7,158.2,36.7z M156.4,30.5c-0.9,0-1.6-0.8-1.6-1.7c0,0,0,0,0,0c0-0.9,0.7-1.7,1.6-1.7c0,0,0,0,0.1,0
			c0.9,0,1.6,0.7,1.6,1.6c0,0,0,0,0,0.1C158.1,29.7,157.4,30.5,156.4,30.5C156.5,30.5,156.5,30.5,156.4,30.5L156.4,30.5z"/>
		<path class="st0" d="M178.3,48.1c0,0,2.1,2.4,0.6,2.4h-2.3c-2.1,0-5.4-1.4-5.4-6.9V28.2l2.9-1v16.1c0,3.1,0.9,4.9,3.2,4.9
			L178.3,48.1L178.3,48.1z"/>
		<path class="st0" d="M178,57.3c-0.9-0.1-1.6-0.9-1.5-1.8c0.1-0.8,0.7-1.5,1.5-1.5c0.9,0,1.6,0.7,1.6,1.5c0,0,0,0.1,0,0.1
			c0.1,0.9-0.6,1.6-1.4,1.7C178.1,57.3,178,57.3,178,57.3z M177.7,48.1c2.3,0,3.4-1.8,3.4-4.9v-8l2.9-1v9.3c0,5.5-3.1,6.9-5.3,6.9
			L177.7,48.1z M182.4,57.3c-0.9,0-1.6-0.7-1.6-1.6c0,0,0-0.1,0-0.1c0-0.9,0.7-1.6,1.6-1.6c0,0,0,0,0,0c0.9,0,1.6,0.7,1.6,1.5
			c0,0,0,0.1,0,0.1c0,0.9-0.6,1.6-1.5,1.7C182.5,57.3,182.5,57.3,182.4,57.3L182.4,57.3z"/>
		<path class="st0" d="M197.5,48.1c0,0,2.1,2.4,0.6,2.4c-1.8,0.1-3.6-0.8-4.7-2.2v1.1c0,5.2-2,8-6.8,8.1l-0.4-2.3
			c2.7-0.3,4.5-0.9,4.3-6.9v-9.8l2.9-1v7c0.1,2,1.7,3.5,3.6,3.6H197.5z"/>
		<path class="st0" d="M197,48.1c2.3,0,3.4-1.8,3.4-4.9v-15l2.9-1v16.4c0,5.5-3.1,6.9-5.3,6.9L197,48.1z"/>
		<path class="st0" d="M207.6,28.2l2.9-1v23.3h-2.9V28.2z"/>
		<path class="st0" d="M231.1,50.5c-4.3,0-7.6-3.2-7.6-8.2c0-5.3,3.5-8.5,7.9-8.5c4.6,0,7.7,3.3,7.7,8.2
			C239,47.9,234.9,50.5,231.1,50.5L231.1,50.5z M231.2,48.3c2.8,0,4.8-2.6,4.8-6.2c0-2.7-1.3-6.1-4.8-6.1s-4.8,3.1-4.8,6.2
			C226.4,45.7,228.4,48.3,231.2,48.3L231.2,48.3z M229.2,30.4c-0.9,0-1.6-0.7-1.6-1.6c0,0,0,0,0-0.1c0-0.9,0.7-1.6,1.6-1.6
			c0,0,0,0,0,0c0.9,0.1,1.6,0.9,1.5,1.8C230.7,29.7,230,30.4,229.2,30.4L229.2,30.4z M232,28.8c0-0.9,0.7-1.6,1.6-1.6
			c0.9,0.1,1.6,0.9,1.5,1.8c-0.1,0.8-0.7,1.5-1.5,1.5C232.7,30.5,232,29.7,232,28.8C232,28.8,232,28.8,232,28.8z"/>
		<path class="st0" d="M241.1,55.1c2.7-0.3,4.5-0.9,4.3-6.9v-9.7l2.9-1v11.8c0,5.2-2,8-6.8,8.1L241.1,55.1z"/>
		<path class="st0" d="M252.5,28.2l2.9-1v23.3h-2.9V28.2z"/>
		<path class="st0" d="M257.7,55.1c2.7-0.3,4.5-0.9,4.3-6.9v-9.7l2.9-1v11.8c0,5.2-2,8-6.8,8.1L257.7,55.1z M263.2,33.7
			c-0.9,0-1.6-0.7-1.6-1.6c0,0,0,0,0-0.1c0-0.9,0.7-1.6,1.6-1.6c0,0,0,0,0,0c0.9,0,1.7,0.7,1.7,1.7C264.9,33,264.2,33.7,263.2,33.7
			L263.2,33.7z"/>
		<path class="st0" d="M277.7,55.1c2.8-0.4,4-1.3,4.2-4.7c-1,0.2-2.1,0.3-3.2,0.3c-4.9,0-7.8-3.3-7.8-8s2.8-8.5,7.5-8.5
			c5.2,0,6.5,3.3,6.5,7.5v7.4c0,5.2-1.9,8.2-6.9,8.4L277.7,55.1z M273.7,42.5c0,4.4,2.5,6,5.4,6c1,0,1.9-0.1,2.9-0.3v-7.6
			c0-1.9-0.9-4.4-3.9-4.4S273.6,39.1,273.7,42.5L273.7,42.5z"/>
		<path class="st0" d="M136.6,62.6c0.6,0,1.2,0.3,1.6,0.8c0.4,0.5,0.6,1.1,0.6,1.7v16.1h-1.5V65.1c0-0.5-0.4-0.9-0.9-0.9
			c0,0,0,0,0,0c-0.6-0.1-0.9,0.2-1,0.8l-3,14.8c-0.1,0.4-0.3,0.8-0.7,1.2c-0.3,0.3-0.8,0.5-1.3,0.5c-0.5,0-0.9-0.1-1.3-0.4
			c-0.4-0.3-0.6-0.7-0.7-1.2l-3-14.8c-0.1-0.6-0.5-0.9-1-0.8c-0.5,0-0.9,0.4-0.9,0.9c0,0,0,0,0,0v16.1h-1.6V65.1
			c0-0.6,0.2-1.2,0.6-1.7c0.4-0.5,1-0.7,1.6-0.8c0.6-0.1,1.2,0.1,1.7,0.4c0.5,0.4,0.8,0.9,0.9,1.5l3,14.9c0,0.2,0.3,0.4,0.5,0.4
			c0.2,0,0.4-0.1,0.5-0.4l3-14.9c0.1-0.6,0.4-1.1,0.9-1.5C135.4,62.7,136,62.6,136.6,62.6z"/>
		<path class="st0" d="M142.6,65.1h-1.5v-2.3h1.5V65.1z M142.6,81.2h-1.5V67.4h1.5V81.2z"/>
		<path class="st0" d="M150.3,67.1c3,0,5.4,2.5,5.5,5.5v8.6h-1.5v-8.6c0-2.2-1.8-4-4-4c-1,0-2,0.4-2.8,1.1c-0.8,0.7-1.2,1.8-1.2,2.8
			v8.6h-1.5v-8.6c0-1.5,0.5-2.9,1.6-3.9C147.4,67.7,148.8,67.1,150.3,67.1z"/>
		<path class="st0" d="M159.5,65.1H158v-2.3h1.5V65.1z M159.5,81.2H158V67.4h1.5V81.2z"/>
		<path class="st0" d="M165.6,67.1c1,0,2,0.4,2.8,1.2c0.8,0.7,1.2,1.7,1.2,2.7v1H168v-1c0-0.6-0.2-1.2-0.7-1.7
			c-0.4-0.5-1.1-0.7-1.7-0.7c-0.6,0-1.2,0.2-1.7,0.7c-0.5,0.4-0.7,1-0.7,1.6c0,0.9,0.5,1.8,1.4,2.1l2.4,1c0.7,0.3,1.3,0.7,1.7,1.4
			c0.4,0.6,0.7,1.4,0.6,2.1c0,0.7-0.2,1.3-0.5,1.9c-1.1,1.9-3.5,2.5-5.4,1.4c-0.3-0.2-0.5-0.4-0.7-0.6c-0.8-0.7-1.2-1.7-1.1-2.8v-1
			h1.5v1c0,1.3,1.1,2.4,2.4,2.4c0.6,0,1.2-0.2,1.7-0.7c0.5-0.4,0.7-1,0.7-1.6c0-0.9-0.6-1.8-1.4-2.1l-2.4-1c-1.9-0.8-2.9-3-2.1-5
			C162.6,68,164,67.1,165.6,67.1L165.6,67.1z"/>
		<path class="st0" d="M173,62.8v4.3c0,0.1,0.1,0.3,0.2,0.3c0,0,0,0,0.1,0h2.2v1.5h-2.2c-0.2,0-0.3,0.1-0.3,0.3v8.3
			c0,0.6,0.2,1.1,0.6,1.5c0.4,0.4,0.9,0.6,1.5,0.6h0.4v1.5h-0.4c-2,0-3.6-1.6-3.6-3.5c0,0,0,0,0-0.1V62.8H173z"/>
		<path class="st0" d="M183.3,68.6h-1c-0.9,0-1.7,0.4-2.3,1c-0.6,0.6-0.9,1.4-0.9,2.3v9.3h-1.5v-9.4c0-1.2,0.5-2.4,1.4-3.3
			c0.9-0.9,2.1-1.4,3.4-1.4h1L183.3,68.6z"/>
		<path class="st0" d="M191.9,85.8h-1.5l0.9-4.3c0-0.1,0-0.1,0-0.2c-0.1,0-0.1,0-0.2,0h-0.2h-0.3c-0.7,0-1.3-0.2-1.8-0.6
			c-0.5-0.4-0.9-1-1-1.6l-2.5-11.7h1.5l2.5,11.3c0.1,0.6,0.7,1.1,1.4,1c0.6,0,1.2-0.4,1.3-1l2.5-11.3h1.5L191.9,85.8z"/>
		<path class="st0" d="M209.7,67.1c3.9,0,7.1,3.2,7.1,7.1c0,0,0,0,0,0c0,3.9-3.2,7.1-7.1,7.1s-7.1-3.2-7.1-7.1
			C202.6,70.3,205.8,67.1,209.7,67.1L209.7,67.1z M209.7,68.6c-1.5,0-3,0.6-4,1.6c-2.2,2.2-2.2,5.7,0,7.9c2.2,2.2,5.8,2.2,8,0
			c1-1.1,1.6-2.5,1.6-4c0-1.5-0.6-3-1.7-4C212.6,69.2,211.2,68.6,209.7,68.6z"/>
		<path class="st0" d="M222.9,64.3h-0.4c-0.6,0-1.1,0.2-1.5,0.6c-0.4,0.4-0.6,0.9-0.6,1.5v0.7c0,0.1,0.1,0.3,0.2,0.3c0,0,0,0,0.1,0
			h2.2v1.5h-2.2c-0.1,0-0.3,0.1-0.3,0.2c0,0,0,0,0,0.1v12h-1.5V66.4c0-2,1.6-3.6,3.6-3.6h0.4L222.9,64.3z"/>
		<path class="st0" d="M234.1,62.6c1.3,0,2.5,0.5,3.4,1.4c0.9,0.9,1.4,2.1,1.4,3.3v1.1h-1.5v-1.1c0-1.8-1.5-3.2-3.2-3.2
			c-1.8,0-3.2,1.4-3.2,3.2c0,0,0,0,0,0c0,0.7,0.2,1.4,0.6,2c0.4,0.6,0.9,1.1,1.6,1.4l2.8,1.3c1.8,0.8,3,2.7,3.1,4.7
			c-0.1,2.6-2.3,4.6-5,4.5c-2.4-0.1-4.4-2.1-4.5-4.5v-1.1h1.5v1.1c0,1.8,1.4,3.2,3.1,3.2c0,0,0,0,0.1,0c1.8,0,3.2-1.4,3.2-3.2
			c0-0.7-0.2-1.4-0.6-2c-0.4-0.6-0.9-1.1-1.6-1.3l-2.8-1.3c-0.9-0.4-1.7-1.1-2.2-1.9c-0.5-0.8-0.8-1.8-0.8-2.8
			c0-1.2,0.5-2.4,1.4-3.3C231.6,63.1,232.9,62.6,234.1,62.6z"/>
		<path class="st0" d="M248,67.1c3.9,0,7.1,3.2,7.1,7.1c0,3.9-3.2,7.1-7.1,7.1c-2.1,0-4.1-0.9-5.4-2.5c0,0-0.1-0.1-0.2,0
			c0,0-0.1,0.1-0.1,0.1v6.9h-1.5V74.2c0-1.8,0.7-3.6,2-4.9C244.2,67.9,246.1,67.1,248,67.1z M248,68.6c-3.1,0-5.6,2.4-5.7,5.5
			c0,0,0,0.1,0,0.1c0,1.5,0.6,3,1.7,4c1,1.1,2.5,1.7,4,1.6c1.5,0,3-0.5,4-1.6c2.2-2.2,2.2-5.7,0-7.9c0,0,0,0,0,0
			C251,69.2,249.5,68.6,248,68.6z"/>
		<path class="st0" d="M264.1,67.1c3.9,0,7.1,3.2,7.1,7.1c0,3.9-3.2,7.1-7.1,7.1c0,0,0,0,0,0c-3.9,0-7.1-3.2-7.1-7.1
			C257,70.3,260.2,67.1,264.1,67.1z M264.1,68.6c-1.5,0-3,0.6-4,1.6c-2.2,2.2-2.2,5.7,0,7.9c2.2,2.2,5.7,2.2,7.9,0s2.2-5.7,0-7.9
			C267.1,69.2,265.7,68.6,264.1,68.6z"/>
		<path class="st0" d="M279,68.6h-1c-0.9,0-1.7,0.4-2.3,1c-0.6,0.6-0.9,1.4-0.9,2.3v9.3h-1.5v-9.4c0-1.2,0.5-2.4,1.4-3.3
			c0.9-0.9,2.1-1.4,3.3-1.4h1V68.6z"/>
		<path class="st0" d="M282.5,62.8v4.3c0,0.1,0.1,0.3,0.2,0.3c0,0,0,0,0.1,0h2.2v1.5h-2.2c-0.2,0-0.3,0.1-0.3,0.3v8.3
			c0,0.6,0.2,1.1,0.6,1.5c0.4,0.4,0.9,0.6,1.5,0.6h0.4v1.5h-0.4c-2,0-3.6-1.6-3.6-3.5c0,0,0,0,0-0.1V62.8H282.5z"/>
	</g>
</g>
</svg>
