<?xml version="1.0" encoding="utf-8"?>
<!-- Generator: Adobe Illustrator 24.0.1, SVG Export Plug-In . SVG Version: 6.00 Build 0)  -->
<svg version="1.1" id="Layer_1" xmlns="http://www.w3.org/2000/svg" xmlns:xlink="http://www.w3.org/1999/xlink" x="0px" y="0px"
	 viewBox="0 0 300 100" style="enable-background:new 0 0 300 100;" xml:space="preserve">
<style type="text/css">
	.st0{fill:#3E3E3E;}
</style>
<title>MoMRA- Web- Dark</title>
<g id="Layer_2_1_">
	<g id="Layer_1-2">
		<path class="st0" d="M247.1,26.1c0.5,2.2,0.8,4.4,0.8,6.7s-0.2,4.5-0.6,6.8c-0.1-0.7-0.2-1.4-0.3-2c-0.3-2.7-0.8-5.4-1.6-8
			c-0.2-0.6-0.5-1.4-0.8-2c-0.1-0.1-0.2-0.2-0.3-0.3l-0.5,4.3c0.5,0.2,0.5,0.6,0.4,1c0,1.4-0.2,2.9-0.2,4.3c0,0.3-0.1,0.6,0.3,0.9
			c0.1,0,0.1,0.5,0.1,0.6c-0.1,1.5-0.3,3.2-0.4,4.9c0,0.4,0,0.7,0.5,0.8c0,0.8-0.1,1.5-0.2,2.3c-0.1,1.1-0.2,2.3-0.4,3.3
			c-0.1,0.4,0.1,0.8,0.5,0.9c0.4,0.2,0.6,0.5,0.9,0.7c0.1,0.2,0.3,0.4,0.4,0.6h-5.5c0.1-0.2,0.2-0.4,0.4-0.5
			c0.4-0.3,0.6-0.6,1.1-0.8c0.3-0.2,0.5-0.5,0.4-0.7c-0.2-1.5-0.3-3.1-0.5-4.7c0-0.5-0.3-0.9,0.4-1.2c0.1,0,0.1-0.3,0.1-0.5
			c-0.2-1.8-0.3-3.7-0.5-5.6c0.4,0,0.5-0.4,0.5-0.7c-0.1-1.5-0.2-3-0.3-4.5c0-0.5-0.2-0.9,0.3-1.2c0.1,0,0-0.3,0-0.4
			c-0.2-1.2-0.3-2.3-0.5-3.4c0-0.2-0.1-0.3-0.2-0.5c-0.1,0.2-0.2,0.3-0.3,0.5c-0.8,2.3-1.4,4.5-1.7,6.8c-0.3,1.5-0.4,3.1-0.5,4.5
			c-0.4-0.8-0.6-1.7-0.7-2.6c-0.3-1.7-0.4-3.5-0.3-5.2c0.1-1.5,0.5-3,0.6-4.4c0.1-0.3,0.1-0.5,0.1-0.7c-1.4,1.5-2.7,3.2-3.6,5.1
			c-1,1.8-1.7,3.8-2.2,5.9h-0.1c0-0.5-0.2-1.2-0.3-1.7c-0.2-2.7,0.4-5.3,1.5-7.7c0.6-1.3,1.4-2.5,2-3.8l0.3-0.5l-0.1-0.1l-0.5,0.3
			c-1.8,1-3.3,2.3-4.7,3.8c-1.4,1.5-2.5,3.2-3.6,4.9c1-5.7,3.4-10.4,8.9-12.9c-1.6-0.4-3.3-0.2-4.9,0.5c-1.6,0.5-3.1,1.4-4.3,2.4
			c-0.2-0.8,2.8-4.1,4.7-5.2c2.1-1.2,4.4-1.8,6.8-1.8c-0.1-0.5-0.5-0.9-1.7-1.4c0.7-0.5,1.5-0.6,2.3-0.5c0.8,0.1,1.6,0.4,2.3,0.8
			c0.1-0.5,0.3-1,0.5-1.4s0.4-0.8,0.6-1.2c0.3-0.4,0.5-0.4,0.7,0c0.2,0.4,0.5,1.2,0.7,1.8c0.1,0.3,0.2,0.5,0.3,0.7
			c0.7-0.5,1.5-0.7,2.3-0.8c0.8,0,1.7,0.1,2.5,0.4c-0.8,0.3-1.4,0.8-2,1.4c0.2,0,0.3,0.1,0.5,0.1c3,0,5.8,1.1,7.9,3.1
			c1.4,1.3,2.6,2.6,3.6,4.2c-1.4-1-2.9-1.8-4.4-2.4c-1.6-0.7-3.3-1-5.1-0.9c0.1,0.1,0.3,0.2,0.4,0.3c4.2,2.2,7.2,6.1,8.1,10.8
			c0.1,0.6,0.2,1.2,0.2,1.8c-1.1-1.9-2.3-3.6-3.9-5.1c-1.4-1.6-3.2-2.9-5.2-3.7c2.3,2.9,3.6,6.3,4,9.9c0.1,1.4,0.1,2.7,0,4.1
			c-1.2-4-3.1-7.7-5.6-11c-0.1-0.2-0.3-0.3-0.5-0.5L247.1,26.1z"/>
		<path class="st0" d="M208,40.9v-8.7l0.7-0.1v-1.3h2.1c1.3,0,0.9-0.2,1.5,0.8c0.2,0.5,0.6,0.7,1.2,0.6c0.3,0,0.5,0,0.8,0
			c0,0.3,0,0.5,0,0.8v9.7c0,0.8,0,0.8,0.8,0.8h0.5c0,0.4,0,0.6,0,1c0,0.3-0.1,0.5,0.3,0.5s0.3-0.3,0.3-0.5v-8.5h5.2v1.5
			c0,0.7,0,0.7,0.7,0.7h1v4.2c1.1,0.1,2.1,0,3.1,0v-4.1c0.2,0,0.4,0,0.5,0c1,0,2,0,2.9,0c0.3,0,0.6,0.2,0.8,0.4
			c0.8,0.8,1.3,2,1.1,3.1c-0.1,0.8-0.1,1.7,0,2.5c0,0.6,0,0.6,0.6,0.6h7.5v1h-9.1c0-0.2,0-0.5,0-0.6c0-1.4,0-2.8,0-4.2
			c0-0.6-0.4-1.2-0.8-1.5c-0.1-0.1-0.2-0.1-0.3-0.1c-0.6,0-1.3,0-2,0c-0.1,0.9-0.1,1.9,0,2.8c0,0.9,0,1.8,0,2.8h-1.5
			c0-0.4,0-0.6,0-1c0-0.4-0.2-0.5-0.5-0.5c-0.8,0-1.6,0-2.4,0h-0.7c0-0.3,0-0.5,0-0.7V40c0-0.5,0-0.6-0.6-0.6h-1.3v-2.2h-2.9v8.9
			h-2.9v-1.5l-1.2-0.1c0-0.3,0-0.5,0-0.8c0-3.1,0-6.3,0-9.4v-0.5c0-0.4-0.1-0.5-0.5-0.5c-0.5,0.1-0.9-0.2-1-0.6
			c0-0.1-0.1-0.2-0.1-0.2c-0.5-0.8-0.6-0.9-1.7-0.6v1.3l-0.6,0.2v8.7h-6.9c-0.6,5-0.3,10.2,1.1,15.1c5.8,21.9,28.2,34.9,50.1,29.1
			c17.9-4.8,30.4-20.9,30.4-39.4H280v-7.3h-2.5v-0.9c0-0.7,0-1.5,0-2.3c0-0.5,0-0.5-0.5-0.5h-1.5h-0.7v-1.1c0-0.3-0.1-0.5-0.4-0.5
			h-3.1c0,0.1-0.1,0.1-0.1,0.2c0.1,0.6-0.2,1.3-0.6,1.7c-0.2,0.1-0.1,0.5-0.1,0.6c0,1.8,0,3.6,0,5.3v0.7H267c0-0.3,0-0.5,0-0.6v-3.6
			c0.1-0.8-0.5-1.6-1.3-1.8c-0.2,0-0.3,0-0.5,0h-1.1l-0.1-1.5h-2.3v10.8h-3.6c0-0.3,0-0.5,0-0.7c0-0.9,0-1.8,0-2.7
			c0-0.5,0-0.6-0.6-0.6s-1.4,0-2.1,0c-0.7,0-0.6,0-0.7,0.6v2.6c0,0.2,0,0.4,0,0.6h-8.3v-1h7.1v-3.9h5.6c0,0.3,0,0.5,0,0.6v2.7
			c0,0.6,0,0.7,0.7,0.7l0,0c0.5,0,0.6,0,0.6-0.6V34.2h4.5c0,0.4,0,0.8,0,1.2s0.2,0.5,0.5,0.5c0.2,0,0.4,0,0.5,0
			c0.2,0.1,0.4,0.2,0.5,0.3c0,0,0,0,0.1,0.1c1,0.7,1.4,2,1.3,3.2c-0.1,0.8-0.1,1.5,0,2.3h1.1v-0.8c0-1.5,0-3.1,0-4.8
			c0-0.3,0.1-0.5,0.3-0.8c0.4-0.3,0.5-0.8,0.5-1.3c0-0.4,0-0.6,0-1h5.8c0,0.2,0,0.5,0,0.6c0,0.9,0,0.9,0.9,0.9h2v3.7h2.4v7.1h4.1
			c0,0.3,0,0.5,0,0.8c0.1,19.6-13.3,36.7-32.4,41.2c-2.4,0.6-5,1-7.5,1.1c-0.9,0-1.8,0.1-2.6,0.1c-4.8-0.1-9.5-0.9-14-2.5
			c-10.7-4-19.5-12.1-24.1-22.5c-1.6-3.5-2.7-7.3-3.2-11.2c-0.4-2.3-0.5-4.5-0.4-6.8c0-1.5,0.2-3,0.3-4.4c0-0.5,0-0.5,0.6-0.5h5.3
			L208,40.9z"/>
		<path class="st0" d="M206.7,52.2c2.1-0.4,4.1-0.8,6.2-1c2.6-0.3,5.1-0.3,7.7,0c3.2,0.3,6.3,0.9,9.3,1.8c3.3,1.1,6.6,2.6,9.5,4.7
			c1.2,0.7,2.3,1.5,3.4,2.3c0.5,0.4,0.5,0.4,0.9,0c5-4.1,10.9-6.8,17.2-8.1c2.3-0.5,4.8-0.7,7.2-0.8c3.6-0.1,7.1,0.3,10.6,1.1
			c0.4,0.1,0.7,0.2,1,0.3c-1.1,0-2.2,0-3.2,0c-5.9,0.1-11.8,1.2-17.4,3.1c-4.5,1.5-8.6,3.9-12.3,6.9c-0.3,0.2-0.5,0.5-0.8,0.7
			c2,1.9,4,3.7,5.9,5.6c0.1-0.2,0.2-0.3,0.3-0.5c0.2-0.4,0.3-0.7,0.4-1.1c0.5-1.6,2.1-2.6,3.7-2.6c1.4,0.1,2.5,1.2,2.6,2.5
			c0.1,1.4-1,2.6-2.3,2.7h-0.1c-0.7,0-1.5-0.1-2.3-0.3c-0.2,0.2-0.2,0.5,0,0.8c0.6,0.8,1.4,1.4,2.4,1.7c0.1,0,0.4-0.1,0.5-0.2
			c0.8-0.6,1.9-0.8,2.8-0.5c1.1,0.4,1.8,1.4,1.8,2.5c0,1.1-0.7,2.1-1.8,2.3c-1.2,0.4-2.4,0.4-3.6,0c-1.4-0.5-2.7-1.2-3.8-2.1
			c-0.2-0.2-0.4-0.3-0.6-0.5h-0.1c-0.6,0.5-1.2,1.2-1.9,1.6c-1,0.8-2.3,1.2-3.6,1.1c-1.3-0.2-2.3-1.2-2.7-2.4
			c-0.2-1.5,0.9-3,2.4-3.2c0.3,0,0.5,0,0.8,0l0.3,0.1c0.9,0.1,1.6,0.9,1.7,1.8c0.6-0.1,0.7-0.3,0.5-0.8c-0.5-0.9-1.3-1.7-2.1-2.4
			c-1.4-1.2-2.8-2.3-4.2-3.5c-2.3,2.1-5,3.7-6.7,6.4l0.7,0.5c0.1-0.2,0.2-0.4,0.3-0.5c0.1-0.8,0.7-1.4,1.5-1.5
			c1.4-0.5,3,0.4,3.4,1.8c0,0.1,0.1,0.2,0.1,0.3c0.4,1.2-0.2,2.3-1.2,2.9c-0.9,0.5-2.1,0.7-3.1,0.5c-1.4-0.4-2.6-1.2-3.5-2.3
			l-0.4-0.5l-0.6,0.4c-1.4,1.2-2.9,2-4.6,2.4c-0.7,0.2-1.5,0.3-2.3,0.1c-1.1-0.1-2-1-2.2-2.1c-0.4-1.4,0.5-2.9,2-3.2
			c0.8-0.2,1.7,0,2.4,0.5c0.1,0.1,0.2,0.2,0.4,0.3c0.1,0,0.3,0,0.4,0c0.9-0.3,1.7-0.8,2.3-1.5c0.4-0.5,0.4-0.6-0.1-1.1l-0.6,0.2
			c-0.3,0.1-0.6,0.2-0.9,0.3c-1.4,0.2-2.7-0.8-2.9-2.3c0-0.1,0-0.1,0-0.2c-0.1-1.5,1-2.8,2.5-3c0,0,0,0,0.1,0c1.5,0.1,3,1,3.7,2.3
			c0.1,0.4,0.3,0.8,0.4,1.2c0.2,0.4,0.2,0.4,0.3,0.6l5.9-5.5c-0.3-0.3-0.4-0.5-0.6-0.6c-4-3.4-8.6-6-13.6-7.6
			c-3.2-1.1-6.6-1.8-10-2.2c-1.8-0.2-3.5-0.3-5.3-0.4C209.4,52.3,208.1,52.3,206.7,52.2L206.7,52.2z M251.9,72.7
			c0.3,0.2,0.6,0.5,0.9,0.6c1.1,0.9,2.3,1.6,3.7,2.2c1.1,0.5,2.3,0.5,3.4,0.2c0.7-0.2,1.2-0.7,1.4-1.4c0.2-0.7-0.2-1.5-0.8-1.9
			c-0.9-0.6-2.2-0.5-2.8,0.4c-0.3,0.3-0.5,0.4-0.8,0.2c-0.6-0.4-1.4-0.6-2-1.1c-0.4-0.3-0.7-0.7-1.1-1.1c-0.4-0.5-0.3-1.3,0.1-1.7
			c0.3-0.4,0.5-0.4,0.9-0.2c0.4,0.2,0.6,0.3,1,0.4c0.8,0.3,1.7-0.1,2.3-0.7c0.5-0.6,0.5-1.4,0.2-2.2c-0.4-0.7-1.2-1.2-2-1.1
			c-1.2,0.1-2.2,0.8-2.6,1.8c-0.2,0.5-0.4,1-0.5,1.4c-0.2,0.5-0.5,0.9-0.6,1.4l-7.2-6.7l0.2-0.2c1.3-1.3,2.7-2.4,4.2-3.5
			c3.6-2.5,7.7-4.3,11.9-5.6c3-0.9,6-1.5,9.2-1.9l1.5-0.2c-0.1-0.2-0.2-0.2-0.3-0.2c-3.4-0.2-6.8,0-10.1,0.6
			c-6.8,1.2-13.1,4.2-18.4,8.8c-2.8-2.2-5.8-4-8.8-5.6c-3.2-1.5-6.5-2.6-9.9-3.2c-3.2-0.6-9.5-0.9-10.3-0.5c0.1,0,0.3,0.1,0.4,0.1
			l3.1,0.4c2.9,0.4,5.8,1.1,8.6,2c5.1,1.5,9.9,4.2,14,7.7l1.1,1c-2.4,2.3-4.8,4.4-7.1,6.7c-0.1-0.1-0.2-0.2-0.3-0.3
			c-0.3-0.5-0.5-1.2-0.7-1.7c-0.3-1.2-1.2-2.1-2.3-2.4c-1-0.5-2.3,0.1-2.7,1.1c0,0.1-0.1,0.1-0.1,0.2c-0.2,0.7,0,1.5,0.5,2.1
			c0.5,0.5,1.2,0.7,1.8,0.5l1-0.4c0.5-0.3,1-0.1,1.2,0.3c0,0.1,0.1,0.1,0.1,0.2c0.3,0.5,0.2,1.1-0.1,1.5c-0.9,1.1-2.1,1.9-3.4,2.3
			c-0.3-0.3-0.5-0.5-0.8-0.8c-0.6-0.5-1.5-0.5-2.3-0.1c-0.7,0.5-1,1.4-0.9,2.2c0.1,0.8,0.8,1.4,1.7,1.5c0.6,0.1,1.3,0,1.9-0.1
			c1.6-0.4,3.2-1.2,4.5-2.3c0.5-0.3,0.8-0.6,1.3-0.9h0.1l0.3,0.4c0.8,1.3,2.1,2.3,3.5,2.6c0.8,0.3,1.6,0.1,2.3-0.3
			c1-0.5,1.4-1.6,0.9-2.5c-0.1-0.1-0.1-0.2-0.2-0.4c-0.4-0.6-1.1-1-1.8-0.9c-0.8,0-1.5,0.3-1.6,1.3c0,0.2-0.1,0.3-0.2,0.5
			c-0.1,0.1-0.2,0.2-0.4,0.3c-0.6,0.1-1.2-0.2-1.5-0.6c-0.4-0.4-0.4-0.9,0-1.3c0.7-1,1.5-1.9,2.5-2.7c1.1-0.9,2.2-1.8,3.2-2.7
			l1.4-1.2c1.4,1.2,2.8,2.3,4.1,3.3c1.2,1,2.3,2.1,3,3.4c0.1,0.3,0.3,0.5,0.1,0.7c-0.3,0.5-0.7,0.8-1.3,0.9s-0.7-0.1-0.8-0.6
			c0-0.5-0.4-1.1-0.9-1.2c-0.2-0.1-0.5-0.2-0.6-0.2c-0.9-0.1-1.7,0.3-2.1,1.1c-0.5,0.7-0.4,1.6,0.3,2.3c0.7,0.8,1.8,1.1,2.9,0.8
			c0.9-0.3,1.8-0.7,2.5-1.4C250.9,73.8,251.3,73.2,251.9,72.7z"/>
		<path class="st0" d="M31.5,49.9h2.1v11c0,1.5,0.3,1.8,1.8,1.8h11.8c0-0.3,0-0.5,0-0.6v-4.4c0-1-0.5-1.4-1.4-1.4
			c-1.4,0-2.7,0-4.1,0h-1.2c0-0.2,0-0.4,0-0.5c0-1.1,0-2.1,0.1-3.1c0.1-1.4,1.2-2.5,2.6-2.6c0.7-0.1,1.4-0.1,2.2-0.1h2.3v2
			c-0.2,0-0.4,0-0.6,0h-3c-1.3,0-1.7,0.5-1.7,1.7c0,0.2,0,0.3,0,0.5c0.2,0,0.3,0,0.5,0c0.8,0,1.6,0,2.4,0c1.8-0.3,3.5,1,3.7,2.8
			c0.1,0.4,0,0.6,0,1v4.8h10.4v-8.5h2.1v8.5c1.2,0.2,2.3,0,3.6,0v-8.5h2.1v8.6c0.9,0,1.7,0,2.6-0.1c0.5-0.1,0.9-0.5,0.9-1
			c0-0.2,0-0.5,0-0.6c0-2,0-4.1,0-6v-0.7h2.1c0,0.2,0,0.5,0,0.6v6.4c0,0.3,0,0.5,0,0.7c-0.2,1.6-1.5,2.8-3.1,2.8H34.9
			c-0.6,0-1.3-0.1-1.8-0.4c-0.9-0.5-1.5-1.5-1.5-2.6c0-0.9,0-1.8,0-2.7L31.5,49.9L31.5,49.9z"/>
		<path class="st0" d="M98.8,41.1c0.7-0.1,1.4-0.2,2.1-0.3c1.1-0.1,2-0.8,2.3-1.9c0.2-0.5,0.3-1.2,0.1-1.7c-0.5,0-1.1,0-1.6,0
			c-0.5,0-0.9,0-1.4-0.1c-1.4-0.2-2.3-1.4-2.4-2.7c-0.1-1.6-0.1-3.2,0-4.8c0-1.5,1.3-2.8,2.8-2.8c1.5-0.2,3.1,0,4.7,0v8.5
			c2.3,0.1,4.7,0,7.1,0.1v-8.6h2v8.5h3.6v-8.5h2.1v8.4h3.5c0-0.9,0-1.9,0-2.8v-5.6h2.1v8.6c0.8,0,1.5,0,2.2-0.2
			c0.5-0.1,0.9-0.5,0.9-1c0-0.5,0-0.8,0-1.3V22.6h2v11.4c0.1,1.7-1.3,3.2-3,3.2c-0.1,0-0.1,0-0.2,0h-22.2c0,0.4,0,0.7-0.1,1.1
			c-0.1,0.7-0.3,1.4-0.5,2c-0.3,0.8-0.9,1.4-1.6,1.7c-0.8,0.5-1.8,0.6-2.7,0.7c-0.3,0.1-0.5,0-0.6-0.3L98.8,41.1z M103.3,35.3v-6.5
			c-0.9,0-1.7,0-2.5,0c-0.5,0-0.8,0.4-0.8,0.8c-0.1,0.3-0.1,0.5-0.1,0.7v3.3c0,0.2,0,0.4,0,0.6c0,0.5,0.5,0.8,0.9,0.9
			C101.5,35.3,102.4,35.3,103.3,35.3z"/>
		<path class="st0" d="M44.4,22.5h2v12.7h5.1c0-2.8,0-5.6,0-8.4h2v8.5c0.9,0.1,1.8,0.1,2.6-0.1c0.5-0.1,0.8-0.5,0.9-0.8
			c0.1-0.3,0.1-0.5,0.1-0.8v-11h2c0,0.2,0,0.5,0,0.6V34c0.2,1.7-1.1,3.2-2.8,3.3c-0.2,0-0.4,0-0.5,0H32.7v-2h5.9
			c0.1-0.1,0.2-0.2,0.2-0.2c0-1.4,0-2.7,0-4.1c-0.1-1.2-1-2.2-2.2-2.2c-0.5-0.1-0.9-0.1-1.3-0.1h-0.7v-1.9c3.7-0.7,6.2,1.4,6.3,4.5
			c0,1.1,0,2.1,0,3.1c0,0.2,0,0.5,0,0.7h3.6V22.5H44.4z"/>
		<path class="st0" d="M143.6,64.8c0.5,2.3-0.8,4.8-3.1,5.6l-1.4-1.8l1.1-0.5c0.8-0.4,1.4-1.2,1.4-2.1c0-0.5,0-0.9,0-1.3V55
			c0-0.3,0-0.5,0-0.7h2.1v8.5h3.5V62c0-1.4,0-2.8,0-4.1c0-0.5,0.1-0.8,0.2-1.3c0.4-1.4,1.5-2.3,3-2.3s2.9,0,4.3,0c0,0,0,0,0.2,0.1
			v8.4h0.7h4.1c0.3,0,0.5,0,0.7,0c0.9-0.1,1.2-0.5,1.3-1.3c0-0.2,0-0.4,0-0.6V50h2v11.3c0.1,0.9-0.3,1.8-0.8,2.5
			c-0.6,0.6-1.4,0.9-2.3,1c-0.3,0-0.6,0-0.9,0C159.5,64.8,143.6,64.8,143.6,64.8z M152.6,62.7v-6.4c-0.1,0-0.2,0-0.3,0
			c-0.6,0-1.2,0-1.8,0c-0.7-0.1-1.4,0.5-1.4,1.1c0,0.1,0,0.2,0,0.3c0,1.6,0,3.3,0,5c0,0,0,0,0.1,0.2L152.6,62.7z"/>
		<path class="st0" d="M116.1,54.2v8.5c0.6,0,1.3,0.1,1.8,0.1h4.6c0.3,0,0.6,0,0.9-0.1c0.5-0.1,1-0.5,1-1.2c0-0.2,0-0.4,0-0.5v-6.8
			h2c0,0.2,0,0.4,0,0.5v6.5c0.2,1.8-1.2,3.3-3,3.4c-0.1,0-0.3,0-0.4,0c-0.7,0-1.4,0-2.1,0h-6.8l-0.1-1.1H114
			c-0.2,0.3-0.5,0.5-0.6,0.8c-0.2,0.3-0.5,0.4-0.7,0.4c-0.5,0-1.1-0.1-1.6-0.2c-1.4-0.2-2.4-1.4-2.4-2.8c-0.1-1.5-0.1-3.1,0-4.7
			c0.1-1.6,1.4-2.9,3-2.9C113,54.1,114.5,54.2,116.1,54.2z M114,56.3c-0.8,0-1.5,0-2.3,0c-0.5,0-1,0.5-1.1,1c0,0.3,0,0.5,0,0.8
			c0,0.9,0,1.9,0,2.8c0,0.3,0,0.5,0,0.8c0,0.5,0.5,0.9,0.9,0.9c0.8,0,1.6,0,2.5,0C114,62.6,114,56.3,114,56.3z"/>
		<path class="st0" d="M20.4,36.2c-0.2,0.3-0.4,0.5-0.5,0.7c-0.1,0.3-0.4,0.4-0.6,0.4c-0.6,0-1.3-0.1-1.9-0.2
			c-1.3-0.3-2.2-1.3-2.3-2.5c-0.1-1-0.1-2.1-0.1-3.1c0-0.6,0-1.4,0.1-2c0.1-1.4,1.2-2.5,2.5-2.7c1.6-0.2,3.2-0.2,5-0.2v8.6h0.6h2.8
			c1.2,0,1.6-0.5,1.6-1.6c0-2,0-4.1,0-6v-0.7h2c0,0.2,0,0.5,0,0.6c0,2.1,0,4.1,0,6.2c0,0.3,0,0.6,0,0.9c-0.2,1.5-1.4,2.6-3,2.6
			c-1.7,0.1-3.3,0-5,0h-1l-0.1-1.1L20.4,36.2z M20.6,28.8h-1.8c-1.2,0-1.6,0.5-1.7,1.7c0,1.2,0,2.2,0,3.2c0,0.2,0,0.5,0,0.6
			c0.1,0.5,0.5,0.8,0.9,0.9c0.8,0.1,1.7,0.2,2.5,0.1L20.6,28.8z"/>
		<path class="st0" d="M130.5,68.6c0.7,0,1.3-0.1,1.9-0.2c0.3-0.1,0.5-0.1,0.8-0.3c1.4-0.5,2.1-2,1.7-3.3h-1c-0.6,0-1.3,0-1.8-0.1
			c-1.5-0.2-2.7-1.5-2.6-3.1c0-1.4,0-2.8,0-4.1c-0.1-1.7,1.3-3.2,3-3.2h0.1c1.4,0,2.9,0,4.4,0c0,0.2,0,0.4,0,0.5c0,3.5,0,7,0,10.5
			c0,0.5-0.1,1-0.2,1.4c-0.4,1.8-1.8,3.2-3.7,3.3c-1.4,0.3-1.4,0.3-2.2-0.9L130.5,68.6z M135,62.7v-6.4c-0.8,0-1.5,0-2.4,0
			c-0.5,0-1,0.5-1,1.1l0,0c0,1.4,0,2.9,0,4.3c0,0.5,0.4,1,0.9,1h0.1C133.2,62.7,134.1,62.7,135,62.7z"/>
		<path class="st0" d="M179.1,54.2V55c0,3.4,0,6.9,0,10.4c0,0.5-0.1,1.1-0.2,1.5c-0.4,1.9-1.9,3.2-3.8,3.4c-1.3,0.2-1.3,0.2-2.1-0.8
			l-0.5-0.8c0.4,0,0.6,0,0.9,0c0.6-0.1,1.2-0.2,1.7-0.4c1.4-0.5,2.3-1.9,1.8-3.3c0,0,0,0,0-0.1h-1.3c-0.5,0-1.1-0.1-1.5-0.1
			c-1.6-0.2-2.8-1.5-2.7-3.2c0-1.4,0-2.9,0-4.3c0-1.7,1.4-3.1,3.1-3.1C176.1,54.1,177.6,54.2,179.1,54.2z M177,62.7v-6.4
			c-0.8,0-1.5,0-2.4,0c-0.5,0-1,0.5-1,1.1l0,0c0,1.4,0,2.9,0,4.3c0,0.5,0.4,1,0.9,1c0,0,0,0,0.1,0C175.4,62.7,176.1,62.7,177,62.7z"
			/>
		<path class="st0" d="M177.1,37.3h-1.6c-0.5,0-0.9,0-1.4-0.1c-1.4-0.2-2.5-1.4-2.5-2.9c0-1.5,0-3,0-4.4c0-1.6,1.3-3,2.9-3
			c1.4-0.1,2.7,0,4.1-0.1h0.5c0,0.3,0,0.5,0,0.6c0,3.5,0,6.9,0,10.4c0,0.5-0.1,1-0.2,1.4c-0.2,1.5-1.4,2.8-2.8,3.2
			c-0.6,0.2-1.3,0.3-1.9,0.4c-0.2,0-0.3,0-0.5-0.2c-0.4-0.5-0.7-1-1.2-1.5c0.5,0,0.9,0,1.4-0.1c0.5-0.1,1-0.2,1.4-0.4
			c1.1-0.4,1.8-1.4,1.8-2.6L177.1,37.3z M177.1,28.8c-0.9-0.1-1.8-0.1-2.7,0.1c-0.5,0.2-0.7,0.5-0.7,1.1c0,0.5,0,0.9,0,1.4
			c0,0.9,0,1.8,0,2.8c0,0.5,0.3,0.8,0.6,1c0.9,0.2,1.9,0.3,2.8,0.2V28.8z"/>
		<path class="st0" d="M94.8,26.9v0.7c0,3.3,0,6.6,0,9.9c0,0.5,0,1.1-0.1,1.6c-0.2,1.8-1.6,3.3-3.5,3.6c-0.4,0.1-0.8,0.1-1.2,0.2
			c-0.4,0.1-0.7,0-0.9-0.4c-0.3-0.5-0.6-0.9-1-1.4c0.5,0,0.9,0,1.3-0.1c0.5-0.1,0.8-0.1,1.2-0.3c1.4-0.4,2.3-1.9,2-3.3l0,0
			c-0.3,0-0.5,0-0.8,0c-0.7,0-1.5-0.1-2.3-0.2c-1.4-0.3-2.3-1.4-2.3-2.8c-0.1-1.5-0.1-3.1,0-4.6c0-1.6,1.3-3,2.8-3
			C91.6,26.8,93.2,26.9,94.8,26.9z M92.7,28.8c-0.8,0-1.6,0-2.4,0c-0.5,0-1,0.5-1,1c0,0.3,0,0.5,0,0.7c0,1,0,2,0,3
			c0,0.3,0,0.6,0.1,0.9c0.1,0.4,0.4,0.6,0.6,0.7c0.9,0.2,1.8,0.3,2.8,0.1L92.7,28.8z"/>
		<path class="st0" d="M95,68.6c0.7,0,1.3-0.1,1.9-0.2c0.3-0.1,0.6-0.1,0.9-0.3c1.4-0.5,2.1-1.9,1.7-3.2h-0.5c-0.5,0-1.2,0-1.7,0
			c-1.7,0-3.2-1.4-3.2-3.1l0,0c-0.1-1.5-0.1-3.1,0-4.7s1.4-2.9,3-2.9c1.3-0.1,2.5,0,3.8,0h0.6c0,0.3,0,0.5,0,0.7c0,3.4,0,6.8,0,10.2
			c0,0.7-0.1,1.5-0.3,2.3c-0.3,1.1-1.1,2-2.2,2.4c-0.7,0.3-1.5,0.5-2.3,0.5c-0.3,0.1-0.6-0.1-0.8-0.4C95.7,69.5,95.3,69.1,95,68.6z
			 M99.5,56.3c-0.8,0-1.5,0-2.4,0c-0.5,0-0.9,0.4-1,0.9C96,57.4,96,57.7,96,57.8c0,1.1,0,2.3,0,3.4c0,0.3,0,0.5,0.1,0.7
			c0.1,0.4,0.3,0.6,0.6,0.7c0.9,0.1,1.8,0.1,2.7,0L99.5,56.3z"/>
		<path class="st0" d="M26.4,54.2h2.1v11.2c0,1.5-0.7,3-2.1,3.8c-1.3,0.8-2.7,1.2-4.1,1.2c-1.5,0.1-3.1-0.3-4.4-0.9
			c-1.6-0.8-2.6-2.4-2.5-4.2c0-1.5,0-3.1,0-4.7c0-0.4,0.2-0.7,0.5-0.8c0.5-0.3,1-0.6,1.5-1.1v0.7c0,1.9,0,3.8,0,5.7
			c0,1.2,0.6,2.3,1.8,2.6c1.7,0.7,3.7,0.7,5.4,0c1.3-0.5,2.1-1.7,1.9-3.1c0-3.2,0-6.5,0-9.8V54.2z"/>
		<path class="st0" d="M73.1,31.3v0.8c0,1.8,0,3.6,0,5.4c-0.1,1.4,0.7,2.6,2,3c1.6,0.6,3.4,0.6,5,0c1.4-0.4,2.3-1.7,2.1-3.1V26.9
			h2.1v0.7c0,3.3,0,6.8,0,10.1c0.1,2-1.1,3.8-2.9,4.6c-2.3,1.1-5,1.1-7.3,0c-1.4-0.5-2.5-1.7-2.9-3.2C71,38.7,71,38.3,71,37.9
			c0-1.6,0-3.2,0-5c-0.1-0.4,0.1-0.6,0.5-0.8C72,32,72.5,31.6,73.1,31.3z"/>
		<path class="st0" d="M75.7,64.7v-2h3.7c-1.2-2.9-2.3-5.7-3.3-8.5h2.2l1,2.6c0.7,1.8,1.4,3.5,2.1,5.3c0.1,0.4,0.5,0.6,0.8,0.5
			c1.5,0,1.8-0.4,1.8-1.9c0-3.3,0-6.8,0-10.2v-0.8H86v11.3c0.2,1.7-1,3.2-2.7,3.4c-0.3,0-0.5,0-0.7,0c-2.2,0-4.2,0-6.4,0L75.7,64.7z
			"/>
		<path class="st0" d="M150.3,26.9c0,0.2,0,0.4,0,0.6v6.3c0.2,1.8-1.1,3.3-2.9,3.5c-0.2,0-0.4,0-0.5,0c-0.5,0.1-0.9,0.1-1.4,0
			c-1.4-0.2-2.6-1.3-2.7-2.7c-0.2-1.6-0.2-3.2,0-4.9c0.1-1.7,1.5-3,3.2-2.9c1.4,0,2.7,0,4.1,0C150.1,26.9,150.3,26.9,150.3,26.9z
			 M148.2,28.8h-2c-0.7-0.1-1.4,0.5-1.4,1.2c0,0.1,0,0.2,0,0.3c0,1.2,0,2.4,0,3.6c-0.1,0.7,0.5,1.4,1.3,1.4l0,0
			c0.4,0.1,0.7,0.1,1.1,0c0.7-0.1,1.3-0.6,1.2-1.4c0-0.5,0-1,0-1.5L148.2,28.8z"/>
		<path class="st0" d="M168.5,26.9c0,0.3,0,0.5,0,0.6c0,3.6,0,7.3,0,10.8c0.1,1.9-1.1,3.7-2.9,4.4l-0.3,0.1l-1.4-1.7
			c0.3-0.1,0.5-0.3,0.7-0.3c1.1-0.4,1.8-1.4,1.8-2.6c0-0.5,0-1.1,0-1.6v-9.7H168.5z"/>
		<path class="st0" d="M153.7,42.9l-1.4-1.7c0.2-0.1,0.4-0.2,0.5-0.3c1.3-0.4,2.2-1.6,2.1-3V26.9h2c0,0.2,0,0.4,0,0.6
			c0,3.7,0,7.4,0,11C156.9,40.5,155.7,42.3,153.7,42.9z"/>
		<path class="st0" d="M166.6,49.9h2c0,0.3,0,0.5,0,0.6c0,4.5,0,9.1,0,13.6c0.1,0.4-0.2,0.7-0.5,0.9c-0.5,0.2-0.9,0.5-1.4,0.7
			C166.5,65.4,166.4,50.8,166.6,49.9z"/>
		<path class="st0" d="M88.9,49.9h2c0,0.3,0,0.5,0,0.7c0,4.5,0,8.9,0,13.4c0.1,0.5-0.2,0.8-0.6,1c-0.5,0.2-0.9,0.5-1.4,0.8
			L88.9,49.9z"/>
		<path class="st0" d="M133.8,22.5h1.5h0.5v0.7c0,4.5,0,9,0,13.4c0.1,0.5-0.2,0.8-0.5,0.9c-0.5,0.2-1,0.5-1.5,0.8L133.8,22.5z"/>
		<path class="st0" d="M160,22.6h2c0,0.3,0,0.5,0,0.7c0,4.5,0,9,0,13.5c0.1,0.5-0.2,0.8-0.5,0.9c-0.5,0.3-1,0.5-1.4,0.8L160,22.6z"
			/>
		<path class="st0" d="M64.1,22.6v0.6c0,4.5,0,9,0,13.5c0.1,0.5-0.2,0.8-0.5,0.9c-0.5,0.2-0.9,0.5-1.4,0.8V22.6H64.1z"/>
		<path class="st0" d="M17.9,81.6l1.5-5h1c0.2,1.9,0.2,3.9,0.1,5.8h-0.6V78h-0.1c0,0.2-0.2,0.4-0.2,0.5c-0.4,1.2-0.7,2.3-1.1,3.6
			c-0.2,0.4-0.3,0.5-0.7,0.5c-0.3,0.1-0.6-0.2-0.6-0.5l0,0c-0.4-1.2-0.7-2.3-1.1-3.4c0-0.3-0.2-0.5-0.3-0.7h-0.1v4.6H15v-5.9h0.1
			c1-0.1,1-0.1,1.3,0.8l1.2,3.5C17.6,81.3,17.7,81.4,17.9,81.6L17.9,81.6z"/>
		<path class="st0" d="M61.5,76.7v5.7l-0.3,0.1h-0.4v-4.7h-0.2c0,0.2-0.2,0.4-0.2,0.5c-0.4,1.2-0.7,2.4-1.2,3.6
			c-0.1,0.4-0.5,0.6-0.8,0.5c-0.1,0-0.1,0-0.2-0.1c-0.2-0.1-0.3-0.3-0.3-0.5c-0.4-1.2-0.8-2.4-1.2-3.6c-0.1-0.2-0.1-0.4-0.2-0.5
			h-0.1v4.6H56v-5.7c0.1,0,0.3,0,0.4,0c0.7,0,0.7,0,0.9,0.6l1.3,4.1c0.1,0.2,0.1,0.3,0.2,0.5c0.1-0.2,0.2-0.4,0.2-0.5l1.2-3.9
			C60.3,76.6,60.3,76.6,61.5,76.7z"/>
		<path class="st0" d="M141.1,79.2c-0.4-0.8-0.7-1.5,0-2.3c0.7-0.5,1.6-0.5,2.3-0.1v0.5h-0.2c-0.4-0.1-0.7-0.1-1.1-0.2
			c-0.5,0-0.6,0.3-0.6,0.7c0,0.2,0.1,0.4,0.2,0.5c0.5,0.8,1.1,1.5,1.8,2.2c0.5-0.5,0.3-1.1,0.5-1.5h1.2c0.3,0.6-0.4,0.5-0.6,0.6
			c-0.2,0.5-0.3,0.9-0.4,1.4c0,0.2,0,0.4,0.2,0.5c0.3,0.2,0.5,0.3,0.8,0.4c0,0.5,0,0.6-0.5,0.5c-0.4-0.1-0.7-0.3-1.1-0.5l-0.4,0.2
			c-0.7,0.5-1.5,0.5-2.3,0.2c-0.8-0.5-1.2-1.5-0.7-2.4c0.1-0.2,0.2-0.4,0.4-0.5C140.7,79.4,140.9,79.3,141.1,79.2z M143,81.4
			c-0.5-0.5-0.9-1.1-1.4-1.5c-0.1-0.1-0.3-0.1-0.5-0.1c-0.4,0.3-0.5,0.7-0.5,1.2c0,0.4,0.3,0.7,0.6,0.8C142,82,142.6,81.9,143,81.4z
			"/>
		<path class="st0" d="M96.1,80.3l1.1,2.2c-0.7,0.2-0.8,0.2-1.2-0.5c-0.2-0.4-0.4-0.6-0.5-1c-0.4-0.8-0.5-0.8-1.4-0.6v2.1h-0.8v-5.8
			c0.9-0.1,1.7-0.1,2.6,0.1c0.6,0.1,1.1,0.7,1.1,1.4C97.2,79.1,97.1,79.4,96.1,80.3z M94.3,79.5c0.1,0,0.1,0.1,0.2,0.1h0.9
			c0.6,0,0.9-0.3,1-0.8c0.1-0.5-0.2-1.4-0.7-1.4c-0.5,0-0.9,0-1.4,0C94.3,77.4,94.3,79.5,94.3,79.5z"/>
		<path class="st0" d="M176.7,82.2c-0.5,0.4-1.2,0.5-1.8,0.4c-0.5-0.1-0.8-0.4-0.9-0.8c-0.4-0.7-0.4-1.6,0-2.3c0.3-0.6,0.9-1,1.5-1
			c0.5,0,1.1,0,1.6,0.1c0.3,0,0.4,0.2,0.4,0.5c0,1.3,0,2.4,0,3.7s-0.4,1.5-1.5,1.5c-0.5,0-1.2-0.1-1.7-0.1c-0.3,0-0.5-0.2-0.4-0.5
			c0.1-0.3,0.3-0.2,0.5-0.1c0.4,0.1,0.8,0.2,1.2,0.2C176.7,83.6,176.9,83.1,176.7,82.2z M176.7,80.1c0-1.3,0-1.4-1.2-1.3
			c-0.5,0-1,0.4-1,0.9c-0.1,0.4-0.1,0.8,0,1.2c0,0.5,0.4,0.9,0.9,1c0.1,0,0.2,0,0.2,0c0.5,0,1.1-0.5,1.1-1c0,0,0,0,0-0.1
			C176.8,80.6,176.8,80.4,176.7,80.1L176.7,80.1z"/>
		<path class="st0" d="M148.7,82.4H148v-5.8h0.7v1.8c0,0.7,0,0.7,0.7,0.7c0.7,0,1,0,1.5,0c0.5,0,0.5,0,0.5-0.5s0-1.3,0-2h0.7v5.8
			h-0.8v-1.1c0-0.4,0-0.7,0-1.1c0-0.4-0.1-0.5-0.4-0.5h-1.9c-0.4,0-0.5,0.2-0.5,0.5C148.7,80.3,148.7,82.4,148.7,82.4z"/>
		<path class="st0" d="M118.6,82.4c-0.8,0-0.8,0-1-0.6c-0.2-0.6-0.3-0.7-1-0.7h-0.9c-0.6,0-0.6,0-0.8,0.6V82
			c-0.2,0.6-0.3,0.6-0.9,0.5c0-0.1,0-0.1,0-0.2c0.6-1.7,1.2-3.5,1.7-5.2c0.1-0.4,0.4-0.4,0.6-0.4c0.3-0.1,0.5,0.1,0.5,0.4l0,0
			c0.5,1.7,1.2,3.5,1.7,5.2C118.6,82.2,118.6,82.3,118.6,82.4z M116.3,77.8h-0.2l-0.8,2.5h1.8L116.3,77.8z"/>
		<path class="st0" d="M81.2,84.1h-0.7v-5.8c0.5-0.2,0.5-0.2,0.8,0.3c0.4-0.2,0.6-0.3,1-0.4c0.7-0.2,1.4,0.2,1.7,0.8
			c0.4,0.8,0.4,1.7,0,2.4c-0.4,0.7-1.1,1.1-1.8,1c-0.3,0-0.6-0.2-1-0.3V84.1z M83.4,80.4L83.4,80.4c0-0.1,0-0.2,0-0.3
			c0-0.8-0.5-1.2-1.1-1.2s-1.2,0.5-1.2,1.3l0,0c0,0.3,0,0.5,0,0.8c0,0.5,0.2,0.7,0.7,0.9c0.6,0.2,1.3-0.1,1.4-0.7
			c0.1-0.1,0.1-0.3,0.1-0.5C83.4,80.7,83.4,80.5,83.4,80.4L83.4,80.4z"/>
		<path class="st0" d="M128.8,82.2c-0.6,0.5-0.8,0.4-1.4-0.2c-0.4,0.4-0.9,0.5-1.4,0.5c-0.6-0.2-0.9-0.4-1-0.9
			c-0.1-0.8,0.2-1.3,0.8-1.5c0.4-0.1,0.7-0.2,1.1-0.2h0.5c0.2-0.8,0-1-0.7-1.1c-0.5,0-0.8,0-1.4,0c0-0.3,0-0.5,0.4-0.5
			c0.5-0.1,0.9-0.1,1.4-0.1c0.9,0.1,1.2,0.5,1.3,1.4c0,0.5,0,0.8,0,1.3S128.1,82,128.8,82.2z M127.4,80.5c-0.4,0-0.7,0-1.1,0
			c-0.4,0.1-0.6,0.5-0.6,0.8c0,0.4,0.3,0.5,0.7,0.6c0.5,0,1-0.4,1-0.9C127.5,80.8,127.5,80.6,127.4,80.5z"/>
		<path class="st0" d="M85.5,78.9c0-0.4,0.2-0.5,0.5-0.5c0.5-0.1,0.9-0.1,1.4,0c0.7,0.1,1,0.5,1,1.2s0,1.3,0,1.8
			c0,0.3,0,0.5,0.4,0.7c0.4,0.2,0.2,0.3-0.1,0.5c-0.3,0.1-0.6,0-1.1-0.5c-0.5,0.4-1,0.5-1.5,0.5c-0.6-0.2-0.9-0.4-0.9-0.9
			s0.1-1.3,0.6-1.4c0.5-0.1,0.8-0.2,1.3-0.3c0.3,0,0.5,0.2,0.6-0.3c0.1-0.4-0.2-0.7-0.5-0.8H87C86.6,78.8,86.1,78.9,85.5,78.9z
			 M87,80.4c-0.3,0.1-0.5,0.1-0.8,0.2c-0.3,0.1-0.4,0.4-0.4,0.6c0.1,0.2,0.2,0.5,0.4,0.5c0.5,0.2,1,0.1,1.3-0.4
			c0.1-0.3,0.2-0.5,0.1-0.8C87.6,80.5,87.2,80.4,87,80.4L87,80.4z"/>
		<path class="st0" d="M65.4,78.4h0.8v2.7c0,0.5-0.1,0.9,0.5,1.2v0.1c-0.6,0.4-0.8,0.4-1.4-0.3l-0.5,0.3c-0.5,0.3-0.9,0.3-1.4,0.2
			c-0.4-0.1-0.5-0.3-0.6-0.6c-0.1-0.4-0.1-0.8-0.1-1.3c0-0.7,0-1.4,0-2.2h0.8V80c0,0.4,0,0.7,0,1.1c0,0.9,0.4,1.1,1.2,0.8
			c0.8-0.3,0.7-0.5,0.7-1.1C65.4,80.8,65.4,78.4,65.4,78.4z"/>
		<path class="st0" d="M109.7,82.3c-0.7,0.3-0.8,0.3-1.3-0.3c-0.3,0.2-0.5,0.3-0.7,0.4c-0.6,0.3-1.4,0-1.6-0.6c0,0,0,0,0-0.1
			c-0.3-0.6,0.1-1.4,0.8-1.7c0.1,0,0.1,0,0.2-0.1c0.3-0.1,0.5-0.1,0.8-0.1h0.7c0.2-0.7,0-1.1-0.6-1.1h-1.4c-0.1-0.3,0-0.5,0.4-0.5
			c0.5-0.2,1.1-0.2,1.6,0c0.5,0.1,0.9,0.5,0.9,1c0,0.6,0,1.2,0,1.8s0,0.8,0.5,1.1C109.7,82.2,109.7,82.2,109.7,82.3z M107.9,80.4
			c-0.3,0-0.5,0.1-0.7,0.2s-0.5,0.4-0.4,0.7c0.1,0.2,0.2,0.5,0.4,0.5c0.5,0.2,0.9,0.1,1.2-0.4c0.2-0.3,0.2-0.5,0.2-0.8
			C108.4,80.5,108,80.4,107.9,80.4z"/>
		<path class="st0" d="M50.2,80.4v0.3c-0.1,1.4-0.9,1.9-2.3,1.8c-1.5-0.2-1.9-1.4-1.7-2.7c0.2-1.1,0.7-1.5,2.1-1.5
			c1-0.1,1.8,0.6,1.9,1.6c0,0.1,0,0.2,0,0.2S50.2,80.4,50.2,80.4z M49.5,80.4L49.5,80.4c0-0.3,0-0.5,0-0.7c-0.1-0.5-0.6-0.9-1.2-0.9
			c-0.5-0.1-1,0.4-1.1,0.8c-0.1,0.5-0.1,0.9,0,1.4c0.1,0.8,0.6,0.9,1.2,0.9c0.6,0,1.1-0.5,1.1-1.1c0,0,0,0,0-0.1
			C49.5,80.7,49.5,80.5,49.5,80.4L49.5,80.4z"/>
		<path class="st0" d="M153.4,80.3c0,0,0-0.3,0-0.4c0-0.8,0.5-1.4,1.4-1.5c0.5-0.2,1.1-0.2,1.5,0c0.5,0.2,0.9,0.5,1,1.1
			c0.1,0.5,0.1,1.1,0,1.5c-0.1,1-1,1.7-2,1.6c-0.1,0-0.1,0-0.2,0C153.9,82.4,153.4,81.8,153.4,80.3z M156.7,80.4
			c0-0.3,0-0.5-0.1-0.7c-0.1-0.5-0.6-1-1.2-0.9c-0.5,0-1.1,0.5-1.1,1.1c0,0.4,0,0.6,0,1c0,0.6,0.4,1.1,1,1.2h0.1
			c0.6,0.1,1.2-0.4,1.3-0.9l0,0C156.6,80.8,156.7,80.6,156.7,80.4z"/>
		<path class="st0" d="M28.1,82.4c-0.2,0-0.3,0.1-0.5,0.1c-0.5,0.1-0.8-0.2-0.8-0.6c0-0.6,0-1.3,0-1.9c0-0.2,0-0.5-0.1-0.6
			c0-0.2-0.1-0.3-0.3-0.4c-0.7-0.2-1.4,0.2-1.7,0.9c0,0.7,0,1.4,0,2.1c0,0.2,0,0.3,0,0.5H24v-4c0.4-0.1,0.7-0.2,0.8,0.4
			c0.4-0.2,0.7-0.4,1.1-0.5c1-0.3,1.5,0.1,1.5,1.1c0,0.6,0,1.2,0,1.8c0,0.4,0,0.7,0.5,0.9C28,82.2,28,82.2,28.1,82.4z"/>
		<path class="st0" d="M40.3,78.4h0.8l1.1,2.8h0.2c0-0.2,0.2-0.4,0.2-0.6c0.2-0.5,0.4-1.2,0.5-1.7c0.2-0.5,0.2-0.6,0.9-0.5
			c0,0.2-0.1,0.4-0.2,0.5l-1.3,3.7c0,0.2-0.1,0.4-0.2,0.5c-0.5,1.1-1,1.3-2.2,0.9l0.1-0.5h0.2c0.5,0.2,1.2-0.1,1.4-0.7
			c0.1-0.3,0.1-0.6-0.1-0.9C41.4,81,41,80,40.7,79.1C40.6,79,40.5,78.7,40.3,78.4z"/>
		<path class="st0" d="M67.6,78.5c0.5-0.3,0.6,0,0.7,0.4c0.4-0.2,0.7-0.4,1.2-0.5c0.9-0.3,1.4,0.1,1.5,1c0,0.5,0,1,0,1.5
			c0,0.5-0.2,1.2,0.6,1.5c-0.3,0.1-0.4,0.2-0.5,0.2c-0.4,0.1-0.7-0.1-0.8-0.5c0-0.1,0-0.2,0-0.3c0-0.7,0-1.4,0-2.1s-0.4-1.1-1.2-0.7
			c-0.8,0.4-0.9,0.5-0.9,1.3s0,1.3,0,1.9c0,0.1,0,0.1,0,0.2h-0.6V78.5z"/>
		<path class="st0" d="M162.5,82.3c-0.8,0.3-0.9,0.3-1.4-0.3c-0.4,0.2-0.7,0.3-1.2,0.5c-0.2,0.1-0.4,0.1-0.6,0
			c-0.6-0.1-0.8-0.3-0.8-0.9c0-1.1,0-2.2,0-3.2h0.7v1.7c0,0.4,0,0.7,0,1.1c0,0.4,0.3,0.7,0.8,0.6c0.2-0.1,0.4-0.1,0.5-0.2
			c0.4-0.2,0.5-0.5,0.5-0.8c0-0.8,0-1.5,0-2.3h0.7v2.9c0,0.4,0,0.7,0.5,0.9C162.4,82.2,162.4,82.2,162.5,82.3z"/>
		<path class="st0" d="M169.9,78.7c0.4-0.2,0.8-0.4,1.2-0.5c0.9-0.3,1.4,0,1.5,0.9c0.1,0.6,0.1,1.3,0,1.9c0,0.5,0,0.8,0.5,1.1
			c0,0,0,0.1,0,0.2l-0.4,0.2c-0.4,0.1-0.7-0.1-0.8-0.5c0-0.1,0-0.2,0-0.3c0-0.7,0-1.4,0-2.1s-0.3-1.1-1.1-0.8
			c-0.8,0.3-0.9,0.5-0.9,1.3v2.1h-0.6v-4C169.6,78.2,169.9,78.4,169.9,78.7z"/>
		<path class="st0" d="M101.2,78.4h0.6c0,0.1,0.1,0.2,0.1,0.3v2.6c0,0.4,0,0.6,0.4,0.8c0.4,0.2,0.2,0.3,0,0.5
			c-0.2,0.1-0.7,0-1.2-0.5c-0.4,0.2-0.7,0.3-1.1,0.5c-0.4,0.1-0.7,0.1-1,0c-0.3-0.1-0.4-0.4-0.5-0.6c0-1.1,0-2.3,0-3.4h0.6v1.3
			c0,0.5,0,1.1,0,1.6c0,0.5,0.4,0.7,0.8,0.5c0.2-0.1,0.4-0.1,0.5-0.2c0.4-0.1,0.6-0.5,0.5-0.9c0-0.5,0-1.2,0-1.7
			C101.1,78.8,101.1,78.6,101.2,78.4z"/>
		<path class="st0" d="M119.7,78.2c0-0.3,0-0.6,0-0.9c0.1-0.6,0.6-1.1,1.3-1c0.2,0,0.3,0.1,0.5,0.2c0.1,0.1,0.2,0.2,0.2,0.3
			s-0.1,0.2-0.3,0.3c-0.3,0-0.6-0.1-0.7,0.3c-0.1,0.4-0.1,0.7,0,1.1l0.8,0.1c0,0.5,0,0.5-0.7,0.6v3.4h-0.8v-1.8c0-0.5,0-0.8,0-1.3
			c0-0.4,0-0.6-0.5-0.6c-0.5,0-0.3-0.4,0-0.5c0.1,0,0.2,0,0.3,0L119.7,78.2z"/>
		<path class="st0" d="M102.7,21v0.7H102c-0.5,0-0.8,0.4-0.8,0.8c0,0.5,0.3,0.8,0.9,0.8h1.4v0.8h-3.8v-0.7h0.7
			C99.9,21.4,101.2,20.6,102.7,21z"/>
		<path class="st0" d="M52.3,82.4h-0.7V79L51,78.8c0-0.5,0.3-0.5,0.5-0.5c0-0.4,0-0.7,0.2-1.1c0-0.5,0.5-0.8,0.9-0.8l0,0
			c0.3,0,0.6,0,0.9,0c0,0.3,0,0.5-0.4,0.6c-0.8,0-0.8,0.2-0.8,0.9c0,0.1,0,0.2,0,0.4c0.2,0,0.4,0,0.5,0.1c0.1,0,0.2,0.2,0.3,0.3
			c0.1,0.1-0.2,0.2-0.3,0.3s-0.1,0-0.1,0c-0.4,0-0.5,0.2-0.5,0.5c0,0.9,0,1.8,0,2.6C52.3,82.2,52.3,82.2,52.3,82.4z"/>
		<path class="st0" d="M75.7,70.3v-0.7l0.8-0.1c-0.5-2.2,0.9-2.7,2.3-2.3v0.7c-0.3,0-0.5,0-0.7,0c-0.5,0-0.8,0.4-0.8,0.8l0,0
			c0,0.5,0.4,0.8,0.8,0.8c0,0,0,0,0.1,0c0.5,0,0.9,0,1.4,0v0.9L75.7,70.3L75.7,70.3z"/>
		<path class="st0" d="M137.4,78.5l-0.1,0.5c-0.4-0.1-0.8-0.1-1.2-0.1c-0.3,0-0.6,0.1-0.6,0.5c-0.1,0.4,0.3,0.5,0.5,0.5l0.9,0.4
			c0.5,0.2,0.8,0.7,0.7,1.3c0,0.5-0.5,0.8-1,1c-0.6,0.1-1.4,0.1-2,0l0.2-0.5c0.5,0,1,0,1.5,0c0.4,0,0.6-0.3,0.6-0.5l0,0
			c0-0.4-0.2-0.5-0.5-0.6c-0.3-0.1-0.7-0.3-1.1-0.5c-0.5-0.2-0.6-0.6-0.5-1.1c0.1-0.5,0.5-0.7,0.8-0.8
			C136.2,78.2,136.9,78.2,137.4,78.5z"/>
		<path class="st0" d="M33.5,79l-0.6-0.1c-0.2,0-0.4,0-0.5,0c-0.4,0-0.7,0-0.7,0.5s0.3,0.5,0.5,0.5s0.6,0.3,1,0.5
			c0.4,0.2,0.6,0.6,0.6,1.1s-0.3,0.8-0.7,1c-0.6,0.3-1.4,0.3-2.1,0.1c0,0-0.2-0.3-0.2-0.4s0.3-0.2,0.4-0.2c0.4,0,0.7,0,1.2,0
			c0.3,0,0.6-0.2,0.6-0.5l0,0c0-0.4-0.2-0.5-0.5-0.6c-0.3-0.1-0.7-0.3-1-0.5c-0.5-0.2-0.7-0.6-0.6-1.2c0.1-0.5,0.5-0.8,0.9-0.8
			c0.5,0,0.9,0,1.4,0C33.6,78.4,33.6,78.6,33.5,79z"/>
		<path class="st0" d="M163.1,82.3l0.1-0.5c0.4,0,0.6,0.1,0.9,0.2c0.3,0,0.5,0,0.8-0.1c0.3-0.1,0.5-0.4,0.5-0.6
			c0-0.2-0.2-0.3-0.3-0.4c-0.2-0.1-0.5-0.2-0.6-0.3c-0.3-0.1-0.5-0.3-0.8-0.5c-0.5-0.3-0.5-0.9-0.3-1.4c0.1-0.1,0.2-0.2,0.3-0.3
			c0.6-0.4,1.4-0.4,2.1-0.1c0.4,0.1,0.1,0.4,0,0.5c-0.3,0-0.5-0.1-0.7-0.1c-0.2-0.1-0.5-0.1-0.6,0c-0.2,0-0.4,0.3-0.5,0.5
			c0,0.2,0.2,0.4,0.3,0.5c0.3,0.2,0.6,0.3,0.9,0.5c0.6,0.3,0.9,0.6,0.8,1.3c-0.1,0.6-0.4,0.8-1,1C164.3,82.6,163.7,82.5,163.1,82.3z
			"/>
		<path class="st0" d="M123.4,78.3h0.7c0.1,0.3,0.1,0.5-0.3,0.5c-0.4,0-0.5,0.2-0.5,0.7c0,0.5,0,1.4,0,2.2c0,0.2,0,0.4,0,0.6h-0.6
			c0-0.3,0-0.5,0-0.6c0-0.8,0-1.5,0-2.3c0-0.3,0-0.5-0.4-0.5c-0.1,0-0.2-0.2-0.2-0.3s0.1-0.3,0.2-0.3c0.4,0,0.4-0.3,0.4-0.5
			c0-0.1,0-0.2,0-0.3c0-1,0.5-1.4,1.5-1.2c0.2,0.1,0.3,0.2,0.4,0.4c0,0.2-0.2,0.3-0.4,0.3C123.4,77.1,123.3,77.4,123.4,78.3z"/>
		<path class="st0" d="M77.2,81.9c0.1,0.2,0,0.5-0.3,0.5c0,0,0,0-0.1,0c-0.9,0.4-2,0-2.5-0.8c-0.5-1-0.4-2.2,0.4-3
			c0.4-0.3,0.7-0.5,1.2-0.5c0.5,0,0.9,0,1.4,0.2L77.1,79c-0.7,0-1.5-0.4-2,0.4c-0.4,0.6-0.4,1.4,0,2C75.7,82.2,76.5,81.9,77.2,81.9z
			"/>
		<path class="st0" d="M36.7,82.3c-0.3,0.1-0.5,0.1-0.7,0.2c-0.4,0.1-0.8-0.1-0.9-0.5c0-0.1,0-0.2,0-0.3c0-0.7,0-1.4,0-2.1
			s0-0.7-0.7-0.9c0.1-0.2,0.2-0.4,0.3-0.4c0.5,0,0.5-0.4,0.5-0.6c0-0.5,0-0.5,0.6-0.6c0,0.2,0,0.4,0,0.5c0,0.7,0,0.7,0.8,0.8
			c0.1,0.2,0.1,0.5-0.4,0.5s-0.5,0.1-0.5,0.5c0,0.6,0,1.3,0,1.9c0,0.4,0.2,0.6,0.5,0.6C36.7,81.9,36.7,82.1,36.7,82.3z"/>
		<path class="st0" d="M110.6,76.7h0.7c0,0.3,0,0.5,0,0.6v4.1c0,0.3,0,0.5,0.4,0.7c0.4,0.1,0.2,0.3,0,0.4c-0.4,0.2-0.8,0.1-1-0.3
			c-0.1-0.1-0.1-0.2-0.1-0.4C110.6,80.2,110.6,78.5,110.6,76.7z"/>
		<path class="st0" d="M23.3,50.4c0,0.7-0.5,1.3-1.2,1.3c-0.7,0-1.3-0.5-1.3-1.3c-0.1-0.6,0.5-1.2,1.2-1.2c0,0,0,0,0.1,0
			C22.7,49.2,23.3,49.7,23.3,50.4z"/>
		<path class="st0" d="M117.4,21.8c0.7,0,1.3,0.5,1.3,1.3c-0.1,0.7-0.7,1.2-1.4,1.1c-0.6-0.1-1.1-0.5-1.1-1.1
			C116.1,22.4,116.7,21.8,117.4,21.8L117.4,21.8z"/>
		<path class="st0" d="M145,21.8c0.7,0,1.3,0.5,1.3,1.3c0,0.7-0.5,1.3-1.3,1.3l0,0c-0.7,0-1.3-0.5-1.3-1.3
			C143.8,22.4,144.3,21.8,145,21.8L145,21.8z"/>
		<path class="st0" d="M120.6,24.2c-0.7,0-1.3-0.5-1.3-1.3s0.5-1.3,1.3-1.3l0,0c0.7,0,1.3,0.5,1.3,1.3
			C121.8,23.7,121.3,24.2,120.6,24.2L120.6,24.2z"/>
		<path class="st0" d="M112,50.4c0,0.7-0.5,1.3-1.2,1.3l0,0c-0.7,0-1.3-0.5-1.3-1.3c0-0.7,0.5-1.3,1.3-1.3
			C111.5,49.2,112,49.7,112,50.4L112,50.4z"/>
		<path class="st0" d="M113.9,51.6c-0.7,0-1.3-0.6-1.3-1.3c-0.1-0.7,0.5-1.4,1.1-1.4c0.7-0.1,1.4,0.5,1.4,1.1c0,0.1,0,0.2,0,0.3
			C115.1,51.1,114.5,51.6,113.9,51.6z"/>
		<path class="st0" d="M150.6,50.4c0,0.7-0.5,1.3-1.3,1.3s-1.3-0.5-1.3-1.3l0,0c0-0.6,0.5-1.2,1.2-1.3c0,0,0,0,0.1,0
			C150,49.2,150.5,49.7,150.6,50.4z"/>
		<path class="st0" d="M77.8,24.2c-0.7,0-1.3-0.5-1.3-1.3s0.5-1.3,1.3-1.3l0,0c0.7,0,1.3,0.5,1.3,1.3C79,23.7,78.5,24.2,77.8,24.2z"
			/>
		<path class="st0" d="M18.5,23c0,0.6-0.5,1.2-1.1,1.3h-0.1c-0.7,0-1.3-0.5-1.3-1.3s0.5-1.3,1.3-1.3l0,0C18,21.7,18.5,22.3,18.5,23
			L18.5,23z"/>
		<path class="st0" d="M153.7,50.4c0,0.7-0.5,1.3-1.2,1.3c-0.7,0-1.3-0.5-1.3-1.3c0-0.7,0.5-1.3,1.3-1.3
			C153.2,49.2,153.7,49.7,153.7,50.4L153.7,50.4z"/>
		<path class="st0" d="M148.1,24.2c-0.7,0-1.3-0.5-1.3-1.3l0,0c0-0.7,0.5-1.3,1.3-1.3h0.1c0.7,0,1.3,0.5,1.3,1.3
			S148.9,24.2,148.1,24.2L148.1,24.2z"/>
		<path class="st0" d="M53.7,41.6c0,0.6-0.5,1.3-1.2,1.3c0,0,0,0-0.1,0c-0.6,0-1.2-0.5-1.3-1.2v-0.1c0-0.6,0.5-1.3,1.2-1.3l0,0
			C53.2,40.5,53.7,41,53.7,41.6z"/>
		<path class="st0" d="M26.8,41.7c-0.1,0.7-0.7,1.2-1.4,1.1c-0.5-0.1-1-0.5-1.1-1.1c0-0.7,0.5-1.3,1.3-1.3
			C26.3,40.5,26.8,41,26.8,41.7z"/>
		<path class="st0" d="M20.4,21.8c0.7,0,1.3,0.5,1.3,1.3c0,0.7-0.5,1.3-1.3,1.3c-0.7,0-1.3-0.5-1.3-1.3
			C19.2,22.4,19.8,21.8,20.4,21.8L20.4,21.8z"/>
		<path class="st0" d="M27.5,41.7c0-0.7,0.5-1.3,1.3-1.3l0,0c0.7,0,1.3,0.5,1.3,1.3c0,0.6-0.5,1.2-1.2,1.3c0,0,0,0-0.1,0
			C28.1,43,27.5,42.4,27.5,41.7L27.5,41.7z"/>
		<path class="st0" d="M126.7,69.1c-0.1,0.7-0.7,1.2-1.4,1.1c-0.5-0.1-1-0.5-1.1-1.1c0-0.6,0.5-1.3,1.2-1.3c0,0,0,0,0.1,0
			C126.1,67.8,126.7,68.4,126.7,69.1C126.7,69,126.7,69.1,126.7,69.1z"/>
		<path class="st0" d="M167.6,24.2c-0.7,0-1.3-0.5-1.3-1.2l0,0c0-0.7,0.5-1.3,1.3-1.2l0,0c0.7,0,1.3,0.5,1.3,1.3
			C168.8,23.7,168.3,24.2,167.6,24.2L167.6,24.2z"/>
		<path class="st0" d="M123.4,69.1c0,0.6-0.5,1.2-1.1,1.3h-0.1c-0.6,0-1.2-0.5-1.3-1.1v-0.1c0-0.6,0.5-1.3,1.2-1.3c0,0,0,0,0.1,0
			C122.9,67.8,123.4,68.4,123.4,69.1C123.4,69,123.4,69,123.4,69.1z"/>
		<path class="st0" d="M38.4,78.7c0.7-0.6,0.8-0.6,1.5-0.2l-0.2,0.5h-0.4c-0.5-0.1-1,0.2-1.1,0.6c0,0.1,0,0.2,0,0.3
			c0,0.7,0,1.4,0,2.2c0,0.1,0,0.2,0,0.4h-0.7v-4.1C38,78.3,38.2,78.2,38.4,78.7z"/>
		<path class="st0" d="M131.6,78.4c0.4-0.1,0.6-0.2,0.8,0.3c0.5-0.4,0.9-0.6,1.4-0.2l-0.1,0.5h-0.2c-1.1,0-1.3,0.2-1.3,1.2
			c0,0.7,0,1.4,0,2.1c0,0.1,0,0.1,0,0.2h-0.6L131.6,78.4z"/>
		<path class="st0" d="M89.7,76.7h0.6c0.1,0.1,0.1,0.3,0.1,0.4c0,1,0,2,0,3c0,0.4,0,0.6,0,1c0,0.4-0.1,1,0.5,1.2c0,0,0,0.1,0,0.2
			c-0.3,0.2-0.5,0.3-0.8,0.1c-0.3-0.2-0.4-0.4-0.4-0.5C89.7,80.2,89.7,78.5,89.7,76.7z"/>
		<path class="st0" d="M103.8,82.4h-0.6v-4.1c0.4-0.1,0.6-0.1,0.7,0.4l0.5-0.4c0.3-0.2,0.6-0.2,0.8,0c0.1,0.1,0.2,0.3,0.2,0.4
			s-0.2,0.2-0.3,0.2c-1,0-1.2,0.3-1.3,1.3V82.4z"/>
		<path class="st0" d="M117.8,20.2c0-0.6,0.5-1.1,1.1-1.1s1.1,0.5,1.1,1.1c0,0.6-0.5,1.1-1.1,1.1c0,0,0,0-0.1,0
			C118.3,21.3,117.8,20.8,117.8,20.2L117.8,20.2z"/>
		<path class="st0" d="M30,82.3c-0.8,0.4-1.3,0.2-1.3-0.7v-3.2h0.8v2.7C29.6,81.5,29.5,82,30,82.3C30,82.2,30,82.2,30,82.3z"/>
		<path class="st0" d="M168.5,82.3c-0.2,0.1-0.4,0.2-0.6,0.2c-0.4,0.1-0.6-0.2-0.7-0.5V82c0-1.2,0-2.3,0-3.6h0.8v1.3
			c0,0.3,0,0.5,0,0.9C167.9,81.2,167.7,81.9,168.5,82.3z"/>
		<path class="st0" d="M22,78.4h0.4h0.4v2.8c0,0.4,0,0.8,0.5,1c0,0,0,0.2,0.1,0.3c-0.3,0-0.5,0.1-0.6,0.1c-0.3,0-0.5-0.2-0.6-0.5V82
			C22,80.8,22,79.6,22,78.4z"/>
		<path class="st0" d="M72.4,78.4h0.7v3c0,0.3,0,0.6,0.4,0.7v0.4c-0.3,0.1-0.5,0.1-0.7,0.1s-0.5-0.3-0.5-0.5
			C72.4,80.8,72.4,79.6,72.4,78.4z"/>
		<path class="st0" d="M129.6,78.4h0.6c0,0.2,0,0.4,0,0.6c0,0.7,0,1.5,0,2.3c0,0.4,0,0.7,0.5,0.9c0,0,0,0.2,0.1,0.3
			c-0.2,0.1-0.4,0.1-0.5,0.2c-0.4,0-0.6-0.2-0.6-0.5C129.6,80.8,129.6,79.6,129.6,78.4z"/>
		<path class="st0" d="M78.4,78.4H79c0,0.3,0,0.5,0,0.8c0,0.6,0,1.4,0,2c0,0.4,0,0.7,0.5,0.8c0,0,0,0.2,0.1,0.3
			c-0.3,0.3-0.6,0.3-0.9,0.1c-0.2-0.1-0.3-0.3-0.3-0.5C78.4,80.8,78.4,79.6,78.4,78.4z"/>
		<path class="st0" d="M79.2,76.9c0,0.3-0.3,0.5-0.5,0.5c-0.3,0-0.5-0.2-0.5-0.5l0,0c0-0.3,0.2-0.5,0.5-0.5c0,0,0,0,0.1,0
			C78.9,76.4,79.2,76.7,79.2,76.9z"/>
		<path class="st0" d="M22.7,76.8c0,0.3-0.2,0.5-0.5,0.5s-0.5-0.2-0.5-0.5l0,0c0-0.3,0.2-0.5,0.5-0.5l0,0
			C22.6,76.4,22.7,76.6,22.7,76.8z"/>
		<path class="st0" d="M129.9,77.4c-0.3,0-0.5-0.2-0.5-0.5c0-0.3,0.2-0.5,0.5-0.5s0.5,0.2,0.5,0.5C130.4,77.1,130.2,77.4,129.9,77.4
			L129.9,77.4z"/>
		<path class="st0" d="M29.9,76.8c-0.3,0.2-0.5,0.5-0.6,0.5c-0.2,0-0.5-0.2-0.5-0.5c-0.1-0.3,0.3-0.5,0.5-0.5
			C29.4,76.5,29.7,76.7,29.9,76.8z"/>
		<path class="st0" d="M72.6,76.4c0.3,0,0.5,0.2,0.5,0.5c0,0.3-0.2,0.5-0.5,0.5c-0.3,0-0.5-0.2-0.5-0.5S72.4,76.5,72.6,76.4z"/>
		<path class="st0" d="M167.9,76.8c0,0.3-0.2,0.5-0.5,0.5l0,0c-0.3,0-0.5-0.2-0.5-0.5c0-0.3,0.2-0.5,0.5-0.5
			C167.7,76.4,167.9,76.6,167.9,76.8L167.9,76.8z"/>
	</g>
</g>
</svg>
