<?xml version="1.0" encoding="utf-8"?>
<!-- Generator: Adobe Illustrator 26.3.1, SVG Export Plug-In . SVG Version: 6.00 Build 0)  -->
<svg version="1.1" id="Layer_1" xmlns="http://www.w3.org/2000/svg" xmlns:xlink="http://www.w3.org/1999/xlink" x="0px" y="0px"
	 viewBox="0 0 300 100" style="enable-background:new 0 0 300 100;" xml:space="preserve">
<style type="text/css">
	.st0{fill:#FFFFFF;}
</style>
<g id="Layer_2_00000023971404630899011190000001140449856845411764_">
	<g id="Layer_1-2">
		<path id="svg_106" class="st0" d="M152.5,68.5c-0.8-0.5-1.7-0.8-2.7-0.7h-4.2c-0.4,0-0.7-0.1-1-0.3c-0.2-0.3-0.4-0.6-0.3-1v-0.5
			c0-0.3,0.1-0.7,0.3-0.9c0.2-0.2,0.5-0.3,0.8-0.3h7.5V62h-7.1c-0.6,0-1.2,0.1-1.8,0.2c-0.5,0.1-1,0.3-1.4,0.7
			c-0.4,0.4-0.7,0.8-0.8,1.3c-0.2,0.6-0.3,1.3-0.2,1.9v0.6c-0.1,1.1,0.3,2.1,1.1,2.8c0.8,0.5,1.8,0.8,2.9,0.8h4.1
			c0.3,0,0.6,0.1,0.9,0.3c0.2,0.2,0.3,0.5,0.3,0.8v1c0,0.8-0.4,1.1-1.2,1.1h-7.8v2.7h7.9c1.1,0.1,2.1-0.3,2.9-1.1
			c0.6-0.9,0.9-1.9,0.9-3v-0.9C153.6,70.1,153.2,69.1,152.5,68.5"/>
		<path id="svg_107" class="st0" d="M179.6,62h-5.8v2.8h5.8c1.1,0,1.6,0.6,1.6,1.8v0.6h-4.6c-2.3,0-3.5,1.2-3.5,3.4v2
			c-0.1,1,0.2,1.9,0.9,2.6c0.7,0.7,1.7,1,2.6,0.9h7.3v-9.6C183.8,63.6,182.4,62,179.6,62 M181.2,69.8v3.6h-4.5
			c-0.8,0-1.1-0.3-1.1-1.1V71c0-0.8,0.3-1.2,1.1-1.2L181.2,69.8z"/>
		<polygon id="svg_108" class="st0" points="187.2,64.2 189.1,64.2 189.8,59.1 186.5,59.1 		"/>
		<path id="svg_109" class="st0" d="M198.8,62H193v2.8h5.8c1.1,0,1.6,0.6,1.6,1.8v0.6h-4.6c-2.3,0-3.5,1.2-3.5,3.4v2
			c-0.1,1,0.2,1.9,0.9,2.6c0.7,0.7,1.7,1,2.6,0.9h7.3v-9.6C203,63.5,201.5,61.9,198.8,62 M200.4,69.7v3.6h-4.5
			c-0.8,0-1.1-0.3-1.1-1.1v-1.3c0-0.8,0.3-1.2,1.1-1.2L200.4,69.7z"/>
		<path id="svg_110" class="st0" d="M214.3,64.5V62H211v-4.5h-2.7v13.9c0,3.9,2.2,4.7,4,4.7h1.9v-2.6h-1.7c-0.7,0-1.5-0.2-1.5-1.9
			v-7L214.3,64.5z"/>
		<path id="svg_111" class="st0" d="M117,62h-3.3c-2.4,0-4.3,2-4.3,4.4c0,0,0,0,0,0v5.3c0,2.4,1.9,4.4,4.3,4.4h3.3
			c2.4,0,4.3-2,4.3-4.4c0,0,0,0,0,0v-5.3C121.3,64,119.4,62,117,62C117,62,117,62,117,62 M118.6,66.4v5.3c0,0.9-0.7,1.7-1.7,1.7
			c0,0,0,0,0,0h-3.3c-0.9,0-1.7-0.8-1.7-1.7c0,0,0,0,0,0v-5.4c0-0.9,0.7-1.7,1.7-1.7c0,0,0,0,0,0h3.3
			C117.9,64.7,118.7,65.5,118.6,66.4C118.7,66.4,118.7,66.4,118.6,66.4"/>
		<path id="svg_112" class="st0" d="M136.7,67.8c0-4-2.7-5.8-5.2-5.8h-5.8v14.1h2.6V64.7h3.1c1.4,0.1,2.5,1.2,2.5,2.6v8.3v0.5h2.6
			V67.8L136.7,67.8z"/>
		<path id="svg_113" class="st0" d="M105.8,67.8L105.8,67.8c0-3.6-2.2-5.4-4.4-5.8V62h-2.9l0,0c-1.3,0.2-2.4,0.8-3.3,1.7
			c-1-1.1-2.4-1.7-3.8-1.7h-5.8v14.1h2.6V64.7h3.1c1.4,0,2.5,1.1,2.5,2.5c0,0,0,0,0,8.5v0.4h2.6v-8.9c0-1.4,1.1-2.5,2.5-2.5
			c0,0,0,0,0,0h1.5c1.4,0.1,2.5,1.2,2.5,2.6v8.3v0.5h2.6L105.8,67.8z"/>
		<path id="svg_114" class="st0" d="M169.2,67.8L169.2,67.8c0-4-2.7-5.8-5.2-5.8h-3.2v-4.5h-2.6v18.6h2.6V64.7h3.2
			c1.4,0.1,2.5,1.2,2.5,2.6v8.3v0.5h2.6L169.2,67.8L169.2,67.8z"/>
		<path id="svg_115" class="st0" d="M191.1,28.1c0-2-4.1-3.9-4.1-3.9s-4.2,4-4,4.1l4.6,3.9C187.6,32.2,191.1,30.1,191.1,28.1"/>
		<path id="svg_116" class="st0" d="M167.3,28.4l4.6,3.9c0,0,3.5-2.2,3.5-4.1s-4.1-3.9-4.1-3.9S167.2,28.2,167.3,28.4"/>
		<path id="svg_117" class="st0" d="M165.1,28.1c0-2-4.1-3.9-4.1-3.9s-4.2,4-4,4.1l4.6,3.9C161.6,32.2,165.1,30.1,165.1,28.1"/>
		<path id="svg_118" class="st0" d="M169.2,20.2c0-2-4.1-3.9-4.1-3.9s-4.2,4-4,4.1l4.6,3.9C165.7,24.3,169.2,22.2,169.2,20.2"/>
		<path id="svg_119" class="st0" d="M214.3,35.9c0-1.1-0.7-5.3-6.3-5.3h-3.3l-8.3,8.7v7.5c0,0.4,0,0.8,0.1,1.1c-2.4,0-5.3,0-6.7-2.4
			c-0.5-1-0.8-2.1-0.8-3.2v-7.1l-4.4,4.5v7.1c0,0.4,0,0.7,0.1,1.1c-2.4,0-5.3,0-6.7-2.4c-0.5-1-0.8-2.1-0.8-3.2V31.7l-4.4,4.5v10.7
			c0,0.4,0,0.7,0.1,1.1c-1.1-0.1-2.2-0.6-3.1-1.4c-1.3-1-2-2.6-2-4.2V34l-4.4,4.5v8.5c0,0.4,0,0.7,0.1,1.1c-1.2-0.1-2.3-0.6-3.2-1.4
			c-1.3-1-2-2.6-2-4.2V31.7l-4.4,4.5v10.7c0,0.4,0,0.7,0.1,1.1c-2.4,0-5.3,0-6.7-2.4c-0.5-1-0.8-2.1-0.7-3.2V15.2l-4.4,4.5v27.5l0,0
			c-0.1,1.7,0.7,3.4,2.1,4.4c1.2,0.7,2.6,1,4,1c0.6,0,1.2,0,1.7,0c0.2,0,0.6-0.5,0.8-0.5c0.6-0.5,1.1-1,1.6-1.5s1-1.1,1.5-1.6
			l0.3-0.4c0.3,1.1,0.9,2,1.8,2.8c1,0.8,2.2,1.3,3.5,1.4c0.2,0,0.7-0.5,0.8-0.5c0.6-0.5,1.1-1,1.6-1.5s1-1.1,1.5-1.6l0.3-0.4
			c0.3,1.1,1,2,1.8,2.7c1,0.8,2.2,1.3,3.5,1.4c0.2,0,0.7-0.5,0.8-0.5c0.6-0.5,1.1-1,1.6-1.5c0.5-0.5,1-1.1,1.5-1.6
			c0,0,0.1-0.2,0.2-0.3c0.2,1.3,0.9,2.4,2,3.1c1.2,0.7,2.6,1,4,1c0.6,0,1.2,0,1.7,0c0.2,0,0.7-0.5,0.8-0.5c0.6-0.5,1.1-1,1.6-1.5
			s1-1.1,1.5-1.6l0.2-0.3l0,0c0.2,1.2,0.9,2.4,2,3.1c1.2,0.7,2.6,1,4,1c0.6,0,1.2,0,1.7,0c0.2,0,0.7-0.5,0.8-0.5
			c0.6-0.5,1.1-1,1.6-1.5s1-1.1,1.5-1.6l0.3-0.4c0.9,3.1,4.6,4.1,7.6,4.1h1l9.1-9.1c0,0,0-7.4,0-7.5 M204.8,47.7
			c-4.1,0-3.9-3.5-3.9-5.2V35h6.3c2.2,0,2.9,3.3,2.9,7.2c0,0.1,0,4.4,0,5.4L204.8,47.7"/>
		<path id="svg_120" class="st0" d="M113.4,31.4l4.8,4c0,0,3.7-2.3,3.7-4.3s-4.3-4-4.3-4s-3.5,3.4-4.1,4.2c-0.1-2-4.3-4-4.3-4
			s-4.4,4.1-4.2,4.3l4.8,4.1C109.7,35.5,113.2,33.4,113.4,31.4"/>
		<polygon id="svg_121" class="st0" points="147.5,11.8 152.8,6.7 152.8,5 149.4,8.3 141.9,5.8 141.5,5.7 136.4,10.8 136.4,12.4 
			139.6,9.2 147.2,11.7 		"/>
		<path id="svg_122" class="st0" d="M136.6,36.5c-0.3-0.6-1-1.6-1-1.6l-4.8,4.7c0,0,2.1,3.5,2.1,5.7c0,0.9,0,0,0,0.9v1.7H95.1
			c-3.3,0-4.8-0.9-4.8-5.6l2.3-2.4v-2.7l-6.9,7.1c0,0,0,2.5,0,2.7c0,1.2,0.3,2.4,1,3.4c0.6,0.8,1.4,1.4,2.3,1.7
			c1.6,0.4,3.2,0.6,4.8,0.5h36.7l7-6.3v-2C137.6,41.6,137.8,38.9,136.6,36.5"/>
		<path id="svg_123" class="st0" d="M87.9,91.6L87.9,91.6l-0.6-0.2c-0.2-0.1-0.5-0.1-0.7-0.2c-0.1,0-0.2-0.1-0.2-0.2
			c0-0.1-0.1-0.2-0.1-0.3v-0.1c0-0.2,0.1-0.3,0.2-0.4c0.2-0.1,0.4-0.2,0.6-0.2c0.2,0,0.5,0,0.7,0.2c0.2,0.1,0.2,0.3,0.2,0.5v0.1h0.6
			v-0.1c0-0.2,0-0.3-0.1-0.5c0-0.1-0.1-0.3-0.2-0.4c-0.1-0.1-0.2-0.2-0.3-0.2c-0.1-0.1-0.3-0.1-0.4-0.1c-0.1,0-0.3,0-0.5,0
			c-0.4,0-0.7,0.1-1,0.3c-0.2,0.2-0.4,0.5-0.4,0.8v0.1c0,0.2,0.1,0.5,0.2,0.7c0.2,0.2,0.4,0.4,0.6,0.4l0.6,0.2
			c0.2,0.1,0.5,0.1,0.7,0.2c0.1,0,0.2,0.1,0.2,0.2c0.1,0.1,0.1,0.2,0.1,0.3v0.1c0,0.2-0.1,0.3-0.2,0.4c-0.2,0.1-0.4,0.2-0.6,0.2
			c-0.2,0-0.5,0-0.7-0.2c-0.2-0.1-0.2-0.3-0.2-0.5v-0.2h-0.7v0.2c0,0.2,0,0.3,0.1,0.5c0.1,0.1,0.1,0.2,0.2,0.3
			c0.1,0.1,0.2,0.2,0.3,0.2c0.1,0.1,0.3,0.1,0.4,0.1c0.1,0,0.3,0,0.5,0c0.4,0,0.7-0.1,1-0.3c0.3-0.2,0.5-0.5,0.5-0.8v-0.1
			c0-0.3-0.1-0.5-0.2-0.7C88.3,91.8,88.1,91.7,87.9,91.6"/>
		<path id="svg_124" class="st0" d="M95.8,90.7c-0.1,0-0.3,0.1-0.4,0.2c-0.1,0.1-0.2,0.2-0.3,0.3c-0.1,0.1-0.2,0.3-0.2,0.4
			c-0.1,0.2-0.1,0.4-0.1,0.6v0.4c0,0.2,0,0.4,0.1,0.6c0,0.1,0.1,0.3,0.2,0.4c0.1,0.1,0.2,0.2,0.3,0.3c0.1,0.1,0.2,0.1,0.4,0.2
			c0.1,0,0.3,0,0.4,0h1.3v-3.2h-1.3C96.1,90.6,96,90.6,95.8,90.7 M95.4,92.1c0-0.3,0-0.6,0.2-0.8c0.2-0.2,0.4-0.3,0.6-0.2H97v2.2
			h-0.8c-0.2,0-0.5-0.1-0.6-0.2C95.5,92.7,95.4,92.5,95.4,92.1L95.4,92.1z"/>
		<rect id="svg_125" x="98.6" y="89.4" class="st0" width="0.6" height="4.4"/>
		<rect id="svg_126" x="100.2" y="89.4" class="st0" width="0.6" height="4.4"/>
		<path id="svg_127" class="st0" d="M103.1,91.2c-0.1-0.1-0.2-0.3-0.2-0.4v-0.1c0-0.2,0.1-0.3,0.2-0.4c0.2-0.1,0.4-0.2,0.6-0.2
			c0.2,0,0.4,0,0.6,0.2c0.1,0.1,0.2,0.2,0.2,0.4v0.2h0.6v-0.2c0-0.1,0-0.2,0-0.2c0-0.1-0.1-0.2-0.1-0.3c-0.1-0.1-0.1-0.2-0.2-0.3
			c-0.1-0.1-0.3-0.1-0.4-0.2c-0.2-0.1-0.4-0.1-0.6-0.1c-0.2,0-0.4,0-0.6,0.1c-0.1,0-0.3,0.1-0.4,0.2c-0.1,0.1-0.2,0.2-0.2,0.3
			c0,0.1-0.1,0.2-0.1,0.3c0,0.1,0,0.1,0,0.2v0.1c0,0.1,0,0.1,0,0.2l0.1,0.2c0,0.1,0.1,0.2,0.2,0.2c0,0.1,0.1,0.1,0.2,0.2
			c-0.3,0.2-0.4,0.5-0.4,0.9v0.2c0,0.1,0,0.2,0,0.3c0,0.1,0.1,0.2,0.1,0.3c0.1,0.1,0.2,0.2,0.3,0.3c0.1,0.1,0.2,0.1,0.4,0.2
			c0.2,0,0.4,0.1,0.5,0.1h1.3v-1.9h0.5v-0.5h-1.8C103.5,91.4,103.3,91.3,103.1,91.2 M103.7,93.3c-0.2,0-0.4-0.1-0.6-0.2
			c-0.1-0.1-0.2-0.3-0.2-0.4v-0.2c0-0.2,0.1-0.3,0.2-0.4c0.1-0.1,0.3-0.2,0.5-0.2h0.9v1.4H103.7z"/>
		<polygon id="svg_128" class="st0" points="109.1,92.9 107.9,89.7 107.9,89.7 107.1,89.7 107.1,93.8 107.7,93.8 107.7,90.6 
			108.8,93.8 108.8,93.8 109.4,93.8 110.6,90.6 110.6,93.8 111.2,93.8 111.2,89.7 110.3,89.7 		"/>
		<path id="svg_129" class="st0" d="M114.6,91L114.6,91c-0.1-0.1-0.2-0.2-0.3-0.3c-0.1-0.1-0.2-0.1-0.4-0.2c-0.3-0.1-0.5-0.1-0.8,0
			c-0.1,0-0.3,0.1-0.4,0.2c-0.3,0.1-0.5,0.4-0.5,0.7c-0.1,0.2-0.1,0.4-0.1,0.6v0.5c0,0.2,0,0.4,0.1,0.6c0,0.1,0.1,0.3,0.2,0.4
			c0.1,0.1,0.2,0.2,0.3,0.3c0.1,0.1,0.2,0.1,0.4,0.1c0.1,0,0.3,0,0.4,0c0.2,0,0.3,0,0.5-0.1c0.1,0,0.3-0.1,0.4-0.2
			c0.1-0.1,0.2-0.2,0.3-0.3c0.1-0.2,0.2-0.3,0.2-0.5v-0.1h-0.6v0.1c0,0.2-0.1,0.3-0.3,0.4c-0.2,0.1-0.3,0.1-0.5,0.1
			c-0.2,0-0.5-0.1-0.6-0.2c-0.1-0.2-0.2-0.5-0.2-0.7h2.2V92c0-0.2,0-0.4-0.1-0.6C114.7,91.3,114.7,91.1,114.6,91 M114.3,91.9h-1.7
			c0-0.2,0.1-0.5,0.2-0.6c0.2-0.2,0.4-0.2,0.6-0.2c0.2,0,0.4,0.1,0.6,0.2C114.2,91.5,114.3,91.7,114.3,91.9"/>
		<path id="svg_130" class="st0" d="M117.8,90.6H117c-0.1,0-0.3,0-0.4,0c-0.1,0-0.3,0.1-0.4,0.2c-0.1,0.1-0.2,0.2-0.3,0.3
			c-0.1,0.1-0.2,0.3-0.2,0.4c-0.1,0.2-0.1,0.4-0.1,0.6v0.3c0,0.2,0,0.4,0.1,0.7c0,0.1,0.1,0.3,0.2,0.4c0.1,0.1,0.2,0.2,0.3,0.3
			c0.1,0.1,0.2,0.1,0.4,0.2c0.1,0,0.3,0,0.4,0h1.3v-4.4h-0.5L117.8,90.6z M116.2,92.2c0-0.3,0-0.6,0.2-0.8c0.2-0.2,0.4-0.3,0.6-0.2
			h0.8v2.2H117c-0.2,0-0.5-0.1-0.6-0.2C116.3,92.8,116.2,92.5,116.2,92.2L116.2,92.2z"/>
		<rect id="svg_131" x="119.4" y="90.6" class="st0" width="0.6" height="3.2"/>
		<path id="svg_132" class="st0" d="M123.1,92.3c0,0.3,0,0.6-0.2,0.8c-0.2,0.2-0.4,0.3-0.6,0.2c-0.2,0-0.5-0.1-0.6-0.2
			c-0.1-0.2-0.2-0.5-0.2-0.8v-1.7H121v1.8c0,0.2,0,0.4,0.1,0.6c0,0.1,0.1,0.3,0.2,0.4c0.1,0.1,0.2,0.2,0.3,0.3
			c0.1,0.1,0.2,0.1,0.4,0.1c0.3,0.1,0.6,0.1,0.8,0c0.1,0,0.3-0.1,0.4-0.1c0.1-0.1,0.2-0.2,0.3-0.3c0.1-0.1,0.2-0.3,0.2-0.4
			c0-0.2,0.1-0.4,0.1-0.6v-1.8h-0.5V92.3z"/>
		<polygon id="svg_133" class="st0" points="131.5,93.8 133.9,93.8 133.9,93.3 132.1,93.3 132.1,92 133.8,92 133.8,91.5 132.1,91.5 
			132.1,90.2 133.9,90.2 133.9,89.7 131.5,89.7 		"/>
		<path id="svg_134" class="st0" d="M143,91L143,91c-0.1-0.1-0.2-0.2-0.3-0.3c-0.1-0.1-0.2-0.1-0.4-0.2c-0.3,0-0.6,0-0.8,0
			c-0.1,0-0.3,0.1-0.4,0.2c-0.3,0.1-0.5,0.4-0.5,0.7c-0.1,0.2-0.1,0.4-0.1,0.6v0.5c0,0.2,0,0.4,0.1,0.6c0,0.1,0.1,0.3,0.2,0.4
			c0.1,0.1,0.2,0.2,0.3,0.3c0.1,0.1,0.2,0.1,0.4,0.1c0.1,0,0.3,0,0.4,0c0.2,0,0.3,0,0.4-0.1c0.1,0,0.3-0.1,0.4-0.2
			c0.1-0.1,0.3-0.2,0.3-0.3c0.1-0.2,0.2-0.3,0.2-0.5v-0.1h-0.5v0.1c0,0.2-0.1,0.3-0.3,0.4c-0.2,0.1-0.3,0.1-0.5,0.1
			c-0.2,0-0.5-0.1-0.6-0.2c-0.1-0.2-0.2-0.5-0.2-0.7h2.2V92c0-0.2,0-0.4-0.1-0.6C143.2,91.3,143.1,91.1,143,91 M142.8,91.9H141
			c0-0.2,0.1-0.5,0.2-0.6c0.2-0.2,0.4-0.2,0.6-0.2c0.2,0,0.4,0.1,0.6,0.2C142.6,91.5,142.7,91.7,142.8,91.9"/>
		<path id="svg_135" class="st0" d="M148.8,91.1c-0.1-0.1-0.2-0.2-0.3-0.3c-0.1-0.1-0.2-0.1-0.4-0.2c-0.1,0-0.3,0-0.4,0h-1.3V95h0.6
			v-1.2h0.8c0.1,0,0.3,0,0.4,0c0.1,0,0.3-0.1,0.4-0.2c0.1-0.1,0.2-0.2,0.3-0.3c0.1-0.1,0.2-0.3,0.2-0.4c0.1-0.2,0.1-0.4,0.1-0.6V92
			c0-0.2,0-0.4-0.1-0.6C149,91.3,148.9,91.1,148.8,91.1 M148.6,92.1L148.6,92.1c0,0.4,0,0.7-0.2,0.9c-0.2,0.2-0.4,0.3-0.6,0.2H147
			v-2.1h0.8c0.2,0,0.5,0.1,0.6,0.2C148.5,91.6,148.6,91.9,148.6,92.1"/>
		<rect id="svg_136" x="152.3" y="90.6" class="st0" width="0.6" height="3.2"/>
		<path id="svg_137" class="st0" d="M155.7,92.1l-0.5-0.1c-0.2,0-0.4-0.1-0.6-0.2c-0.1,0-0.2-0.1-0.2-0.1c0-0.1-0.1-0.1-0.1-0.2l0,0
			c0-0.1,0.1-0.2,0.2-0.2c0.2-0.1,0.4-0.1,0.5-0.1c0.7,0,0.7,0.3,0.7,0.4v0.1h0.6v-0.1c0-0.2,0-0.3-0.1-0.4
			c-0.1-0.1-0.2-0.2-0.3-0.3c-0.1-0.1-0.3-0.1-0.4-0.2c-0.2,0-0.3,0-0.5,0c-0.3,0-0.6,0.1-0.9,0.2c-0.2,0.1-0.4,0.4-0.4,0.6l0,0
			c0,0.2,0,0.4,0.1,0.5c0.1,0.1,0.3,0.3,0.5,0.3l0.5,0.1l0.6,0.2c0.1,0,0.2,0.1,0.2,0.1c0,0.1,0,0.1,0,0.2v0.1c0,0.1,0,0.4-0.7,0.4
			c-0.7,0-0.7-0.3-0.7-0.4v-0.2h-0.6v0.2c0,0.2,0,0.3,0.1,0.4c0.1,0.1,0.2,0.2,0.3,0.3c0.1,0.1,0.3,0.1,0.4,0.2
			c0.2,0,0.3,0.1,0.5,0.1c0.2,0,0.3,0,0.5,0c0.1,0,0.3-0.1,0.4-0.2c0.1-0.1,0.2-0.2,0.3-0.3c0.1-0.1,0.1-0.3,0.1-0.4l0,0
			c0-0.2,0-0.4-0.2-0.6C156,92.3,155.8,92.2,155.7,92.1"/>
		<path id="svg_138" class="st0" d="M159.6,91c-0.1-0.1-0.2-0.2-0.3-0.3c-0.1-0.1-0.2-0.1-0.4-0.2c-0.3-0.1-0.6-0.1-0.8,0
			c-0.1,0-0.3,0.1-0.4,0.2c-0.1,0.1-0.2,0.2-0.3,0.3c-0.1,0.1-0.2,0.3-0.2,0.4c-0.1,0.2-0.1,0.4-0.1,0.6v0.5c0,0.2,0,0.4,0.1,0.6
			c0,0.1,0.1,0.3,0.2,0.4c0.1,0.1,0.2,0.2,0.3,0.3c0.1,0.1,0.2,0.1,0.4,0.1c0.1,0,0.3,0,0.4,0c0.2,0,0.3,0,0.5-0.1
			c0.1,0,0.3-0.1,0.4-0.2c0.1-0.1,0.2-0.2,0.3-0.3c0.1-0.2,0.2-0.3,0.2-0.5v-0.1h-0.6v0.1c0,0.2-0.1,0.3-0.3,0.4
			c-0.2,0.1-0.3,0.2-0.5,0.1c-0.2,0-0.5-0.1-0.6-0.2c-0.1-0.2-0.2-0.5-0.2-0.7h2.2V92c0-0.2,0-0.4-0.1-0.6
			C159.8,91.3,159.7,91.1,159.6,91 M159.3,91.9h-1.7c0-0.2,0.1-0.5,0.2-0.6c0.2-0.2,0.4-0.2,0.6-0.2c0.2,0,0.5,0.1,0.6,0.2
			C159.3,91.5,159.3,91.7,159.3,91.9"/>
		<path id="svg_139" class="st0" d="M162.6,92.1l-0.5-0.1c-0.2,0-0.4-0.1-0.6-0.2c-0.1,0-0.2-0.1-0.2-0.1c0-0.1,0-0.1,0-0.2l0,0
			c0-0.1,0.1-0.2,0.2-0.2c0.2-0.1,0.4-0.1,0.5-0.1c0.7,0,0.7,0.3,0.7,0.4v0.1h0.6v-0.1c0-0.2,0-0.3-0.1-0.4
			c-0.1-0.1-0.2-0.2-0.3-0.3c-0.1-0.1-0.3-0.1-0.4-0.2c-0.2,0-0.3,0-0.5,0c-0.3,0-0.6,0.1-0.9,0.2c-0.2,0.1-0.4,0.4-0.4,0.6l0,0
			c0,0.2,0,0.4,0.2,0.5c0.1,0.1,0.3,0.3,0.5,0.3l0.5,0.1l0.6,0.2c0.1,0,0.2,0.1,0.2,0.1c0,0.1,0,0.1,0,0.2v0.1c0,0.1,0,0.4-0.7,0.4
			s-0.7-0.3-0.7-0.4v-0.2h-0.6v0.2c0,0.2,0,0.3,0.1,0.4c0.1,0.1,0.2,0.2,0.3,0.3c0.1,0.1,0.3,0.1,0.4,0.2c0.2,0,0.3,0.1,0.5,0.1
			c0.2,0,0.3,0,0.5,0c0.1,0,0.3-0.1,0.4-0.2c0.1-0.1,0.2-0.2,0.3-0.3c0.1-0.1,0.1-0.3,0.1-0.4l0,0c0-0.2,0-0.4-0.2-0.6
			C162.9,92.3,162.8,92.2,162.6,92.1"/>
		<path id="svg_140" class="st0" d="M166.3,90.4c0.2-0.2,0.4-0.3,0.7-0.2c0.2,0,0.5,0.1,0.7,0.2c0.2,0.2,0.3,0.4,0.3,0.7l0,0h0.6v0
			c0-0.2,0-0.4-0.1-0.6c0-0.1-0.1-0.3-0.2-0.4c-0.1-0.1-0.2-0.2-0.3-0.3c-0.1-0.1-0.3-0.1-0.4-0.1c-0.3-0.1-0.6-0.1-0.9,0
			c-0.1,0-0.3,0.1-0.4,0.1c-0.1,0.1-0.3,0.2-0.3,0.3c-0.1,0.1-0.2,0.3-0.2,0.4c-0.1,0.2-0.1,0.4-0.1,0.6v1.4c0,0.2,0,0.4,0.1,0.6
			c0.1,0.1,0.1,0.3,0.2,0.4c0.1,0.1,0.2,0.2,0.3,0.3c0.1,0.1,0.3,0.1,0.4,0.1c0.1,0,0.3,0,0.5,0c0.3,0,0.6,0,0.9-0.1
			c0.2-0.1,0.5-0.2,0.6-0.4l0,0v-1.7h-1.3v0.5h0.7v1c-0.1,0.1-0.2,0.1-0.3,0.2c-0.2,0-0.4,0.1-0.6,0.1c-0.3,0-0.5-0.1-0.7-0.2
			c-0.2-0.2-0.3-0.5-0.2-0.8v-1.1C166,90.9,166.1,90.6,166.3,90.4"/>
		<path id="svg_141" class="st0" d="M171.9,91L171.9,91c-0.1-0.1-0.2-0.2-0.3-0.3c-0.1-0.1-0.2-0.1-0.4-0.2c-0.3-0.1-0.6-0.1-0.8,0
			c-0.1,0-0.3,0.1-0.4,0.2c-0.1,0.1-0.2,0.2-0.3,0.3c-0.1,0.1-0.2,0.3-0.2,0.4c-0.1,0.2-0.1,0.4-0.1,0.6v0.5c0,0.2,0,0.4,0.1,0.6
			c0,0.1,0.1,0.3,0.2,0.4c0.1,0.1,0.2,0.2,0.3,0.3c0.1,0.1,0.2,0.1,0.4,0.1c0.1,0,0.3,0,0.4,0c0.2,0,0.3,0,0.5-0.1
			c0.1,0,0.3-0.1,0.4-0.2c0.1-0.1,0.2-0.2,0.3-0.3c0.1-0.2,0.2-0.3,0.2-0.5v-0.1h-0.6v0.1c0,0.2-0.1,0.3-0.3,0.4
			c-0.2,0.1-0.3,0.1-0.5,0.1c-0.2,0-0.5-0.1-0.6-0.2c-0.1-0.2-0.2-0.5-0.2-0.7h2.2V92c0-0.2,0-0.4-0.1-0.6
			C172,91.3,172,91.1,171.9,91 M171.6,91.9h-1.7c0-0.2,0.1-0.5,0.2-0.6c0.2-0.2,0.4-0.2,0.6-0.2c0.2,0,0.5,0.1,0.6,0.2
			C171.5,91.5,171.6,91.7,171.6,91.9"/>
		<path id="svg_142" class="st0" d="M175.4,90.9c-0.1-0.1-0.3-0.2-0.5-0.2c-0.2-0.1-0.5-0.1-0.7-0.1h-1.2v3.2h0.5v-2.7h0.7
			c0.1,0,0.3,0,0.4,0c0.1,0,0.2,0.1,0.2,0.1c0.1,0.1,0.1,0.1,0.1,0.2c0,0.1,0,0.2,0,0.3v2h0.6v-1.9c0-0.2,0-0.4-0.1-0.6
			C175.6,91.2,175.5,91,175.4,90.9"/>
		<path id="svg_143" class="st0" d="M179.1,91L179.1,91c-0.1-0.1-0.2-0.2-0.3-0.3c-0.1-0.1-0.2-0.1-0.4-0.2c-0.3-0.1-0.6-0.1-0.8,0
			c-0.1,0-0.3,0.1-0.4,0.2c-0.1,0.1-0.2,0.2-0.3,0.3c-0.1,0.1-0.2,0.3-0.2,0.4c-0.1,0.2-0.1,0.4-0.1,0.6v0.5c0,0.2,0.1,0.4,0.1,0.5
			c0,0.1,0.1,0.3,0.2,0.4c0.1,0.1,0.2,0.2,0.3,0.3c0.1,0.1,0.2,0.1,0.4,0.1c0.1,0,0.3,0,0.4,0c0.2,0,0.3,0,0.5-0.1
			c0.1,0,0.3-0.1,0.4-0.2c0.1-0.1,0.2-0.2,0.3-0.3c0.1-0.2,0.2-0.3,0.2-0.5v-0.1h-0.6v0.1c0,0.2-0.1,0.3-0.3,0.4
			c-0.2,0.1-0.3,0.1-0.5,0.1c-0.2,0-0.5-0.1-0.6-0.2c-0.1-0.2-0.2-0.5-0.2-0.7h2.2V92c0-0.2,0-0.4-0.1-0.6
			C179.3,91.3,179.2,91.1,179.1,91 M178.9,91.9h-1.7c0-0.2,0.1-0.5,0.2-0.6c0.2-0.2,0.4-0.2,0.6-0.2c0.2,0,0.5,0.1,0.6,0.2
			C178.7,91.5,178.8,91.7,178.9,91.9"/>
		<polygon id="svg_144" class="st0" points="180.3,93.8 180.9,93.8 180.9,91.1 181.7,91.1 181.7,90.6 180.3,90.6 		"/>
		<path id="svg_145" class="st0" d="M183.2,90.7c-0.1,0-0.3,0.1-0.4,0.2c-0.1,0.1-0.2,0.2-0.3,0.3c-0.1,0.1-0.2,0.3-0.2,0.4
			c-0.1,0.2-0.1,0.4-0.1,0.6v0.4c0,0.2,0,0.4,0.1,0.6c0,0.1,0.1,0.3,0.2,0.4c0.1,0.1,0.2,0.2,0.3,0.3c0.1,0.1,0.2,0.1,0.4,0.2
			c0.1,0,0.3,0,0.4,0h1.3v-3.2h-1.3C183.5,90.6,183.3,90.6,183.2,90.7 M182.8,92.1c0-0.3,0-0.6,0.2-0.8c0.2-0.2,0.4-0.3,0.6-0.2h0.8
			v2.2h-0.8c-0.2,0-0.5-0.1-0.6-0.2C182.8,92.7,182.8,92.5,182.8,92.1L182.8,92.1z"/>
		<rect id="svg_146" x="186" y="89.4" class="st0" width="0.6" height="4.4"/>
		<path id="svg_147" class="st0" d="M190.2,89.7h-0.7l-1.3,4v0.1h0.6l0.3-0.9h1.6l0.3,0.9h0.6L190.2,89.7L190.2,89.7L190.2,89.7z
			 M190.5,92.4h-1.2l0.6-1.9L190.5,92.4z"/>
		<path id="svg_148" class="st0" d="M194.4,92.3c0,0.3,0,0.6-0.2,0.8c-0.2,0.2-0.4,0.3-0.6,0.2c-0.2,0-0.5-0.1-0.6-0.2
			c-0.1-0.2-0.2-0.5-0.2-0.8v-1.7h-0.6v1.8c0,0.2,0,0.4,0.1,0.6c0,0.1,0.1,0.3,0.2,0.4c0.1,0.1,0.2,0.2,0.3,0.3
			c0.1,0.1,0.2,0.1,0.4,0.1c0.3,0.1,0.6,0.1,0.8,0c0.1,0,0.3-0.1,0.4-0.1c0.1-0.1,0.2-0.2,0.3-0.3c0.1-0.1,0.2-0.3,0.2-0.4
			c0-0.2,0.1-0.4,0.1-0.6v-1.8h-0.6V92.3z"/>
		<path id="svg_149" class="st0" d="M200.5,90.9c-0.1-0.1-0.3-0.2-0.5-0.2c-0.2-0.1-0.5-0.1-0.7-0.1h-0.6v-1.2h-0.6v4.4h0.6v-2.7
			h0.7c0.1,0,0.3,0,0.4,0c0.1,0,0.2,0.1,0.2,0.1c0.1,0.1,0.1,0.1,0.1,0.2c0,0.1,0,0.2,0,0.3v2h0.6v-1.9c0-0.2,0-0.4-0.1-0.6
			C200.7,91.2,200.6,91,200.5,90.9"/>
		<path id="svg_150" class="st0" d="M204.2,91L204.2,91c-0.1-0.1-0.2-0.2-0.3-0.3c-0.1-0.1-0.2-0.1-0.4-0.2c-0.3-0.1-0.5-0.1-0.8,0
			c-0.1,0-0.3,0.1-0.4,0.2c-0.1,0.1-0.2,0.2-0.3,0.3c-0.1,0.1-0.2,0.3-0.2,0.4c-0.1,0.2-0.1,0.4-0.1,0.6v0.5c0,0.2,0,0.4,0.1,0.5
			c0,0.1,0.1,0.3,0.2,0.4c0.1,0.1,0.2,0.2,0.3,0.3c0.1,0.1,0.2,0.1,0.4,0.1c0.3,0.1,0.6,0.1,0.8,0c0.1,0,0.3-0.1,0.4-0.1
			c0.1-0.1,0.2-0.2,0.3-0.3c0.1-0.1,0.2-0.3,0.2-0.4c0-0.2,0.1-0.4,0.1-0.6V92c0-0.2,0-0.4-0.1-0.6C204.3,91.3,204.2,91.2,204.2,91
			 M203.9,92.1v0.2c0,0.3,0,0.6-0.2,0.8c-0.2,0.2-0.4,0.3-0.6,0.2c-0.2,0-0.5-0.1-0.6-0.2c-0.2-0.2-0.2-0.5-0.2-0.8v-0.2
			c0-0.3,0-0.6,0.2-0.8c0.2-0.2,0.4-0.3,0.6-0.2c0.2,0,0.5,0.1,0.6,0.2C203.8,91.6,203.9,91.8,203.9,92.1"/>
		<rect id="svg_151" x="207.6" y="90.6" class="st0" width="0.6" height="3.2"/>
		<polygon id="svg_152" class="st0" points="210.1,89.7 209.5,89.7 209.5,90.6 209,90.6 209,91.1 209.5,91.1 209.5,93.8 210.1,93.8 
			210.1,91.1 210.6,91.1 210.6,90.6 210.1,90.6 		"/>
		<path id="svg_153" class="st0" d="M213.7,90.6l-1,2.6l-1-2.5l0,0h-0.6l1.2,3c0,0.1,0.1,0.2,0.2,0.2L212,95h0.6l1.7-4.4H213.7z"/>
		<polygon id="svg_154" class="st0" points="205.4,93.8 205.9,93.8 205.9,91.1 206.8,91.1 206.8,90.6 205.4,90.6 		"/>
		<polygon id="svg_155" class="st0" points="150,93.8 150.6,93.8 150.6,91.1 151.5,91.1 151.5,90.6 150,90.6 		"/>
		<polygon id="svg_156" class="st0" points="144.2,93.8 144.7,93.8 144.7,91.1 145.6,91.1 145.6,90.6 144.2,90.6 		"/>
		<polygon id="svg_157" class="st0" points="196.8,89.7 196.2,89.7 196.2,90.6 195.7,90.6 195.7,91.1 196.2,91.1 196.2,93.8 
			196.8,93.8 196.8,91.1 197.3,91.1 197.3,90.6 196.8,90.6 		"/>
		<polygon id="svg_158" class="st0" points="139.4,89.7 138.8,89.7 138.8,90.6 138.3,90.6 138.3,91.1 138.8,91.1 138.8,93.8 
			139.4,93.8 139.4,91.1 139.9,91.1 139.9,90.6 139.4,90.6 		"/>
		<path id="svg_159" class="st0" d="M137.2,90.9c-0.1-0.1-0.3-0.2-0.5-0.2c-0.2-0.1-0.5-0.1-0.7-0.1h-1.2v3.2h0.6v-2.7h0.7
			c0.1,0,0.3,0,0.4,0c0.2,0,0.3,0.2,0.4,0.3c0,0.1,0,0.2,0,0.3v2h0.6v-1.9c0-0.2,0-0.4-0.1-0.6C137.3,91.2,137.2,91,137.2,90.9"/>
		<path id="svg_160" class="st0" d="M152.8,89.8c0,0-0.1-0.1-0.1-0.1c-0.1,0-0.2,0-0.3,0c0,0-0.1,0.1-0.1,0.1c0,0,0,0.1,0,0.1
			c0,0.1,0,0.1,0,0.2c0,0,0,0.1,0,0.1c0,0,0.1,0.1,0.1,0.1l0,0c0.1,0,0.1,0,0.2,0c0.1,0,0.1,0,0.2,0c0,0,0.1-0.1,0.1-0.1
			c0,0,0-0.1,0-0.1c0,0,0-0.1,0-0.1C152.8,90,152.8,89.9,152.8,89.8C152.8,89.9,152.8,89.8,152.8,89.8"/>
		<path id="svg_161" class="st0" d="M120,89.8c0,0-0.1-0.1-0.1-0.1c-0.1,0-0.2,0-0.4,0c0,0-0.1,0.1-0.1,0.1v0.1c0,0.1,0,0.1,0,0.2
			c0,0,0,0.1,0,0.1c0,0,0.1,0.1,0.1,0.1c0.1,0,0.1,0,0.2,0c0.1,0,0.1,0,0.2,0c0,0,0.1-0.1,0.1-0.1c0,0,0-0.1,0-0.1
			C120,90,120,90,120,89.8C120,89.9,120,89.8,120,89.8"/>
		<path id="svg_162" class="st0" d="M208.2,89.8c0,0-0.1-0.1-0.1-0.1c-0.1,0-0.2,0-0.4,0c-0.1,0-0.1,0.1-0.1,0.1v0.1
			c0,0,0,0.1,0,0.1c0,0,0,0.1,0,0.1c0,0,0,0.1,0,0.1c0,0,0.1,0.1,0.1,0.1l0,0c0.1,0,0.1,0,0.2,0c0.1,0,0.1,0,0.2,0
			c0,0,0.1-0.1,0.1-0.1c0,0,0-0.1,0-0.1c0,0,0-0.1,0-0.1C208.2,90,208.2,89.9,208.2,89.8C208.2,89.9,208.2,89.8,208.2,89.8"/>
		<path id="svg_163" class="st0" d="M128.8,90.9c-0.1-0.1-0.3-0.2-0.4-0.2c-0.2-0.1-0.4-0.1-0.7-0.1h-3v3.2h0.6v-2.7h1.3v2.7h0.6
			v-2.7h0.6c0.1,0,0.3,0,0.4,0c0.1,0,0.2,0.1,0.2,0.1c0.1,0.1,0.1,0.1,0.1,0.2c0,0.1,0,0.2,0,0.3v2h0.6v-1.9c0-0.2,0-0.4-0.1-0.6
			C129,91.2,128.9,91.1,128.8,90.9"/>
		<path id="svg_164" class="st0" d="M93.7,90.9c-0.1-0.1-0.3-0.2-0.4-0.2c-0.2-0.1-0.4-0.1-0.7-0.1h-3v3.2h0.6v-2.7h1.3v2.7H92v-2.7
			h0.6c0.1,0,0.3,0,0.4,0c0.1,0,0.2,0.1,0.2,0.1c0.1,0.1,0.1,0.1,0.1,0.2c0,0.1,0,0.2,0,0.3v2h0.5v-1.9c0-0.2,0-0.4-0.1-0.6
			C93.9,91.2,93.8,91.1,93.7,90.9"/>
		<rect id="svg_165" x="213.7" y="81.2" class="st0" width="0.6" height="5.7"/>
		<path id="svg_166" class="st0" d="M211.9,81.2v5.1h-1.3V85c0-0.3,0-0.6-0.1-0.9c-0.1-0.4-0.4-0.8-0.8-0.9
			c-0.2-0.1-0.5-0.1-0.8-0.1h-1v0.6h1c0.2,0,0.3,0,0.5,0c0.1,0.1,0.3,0.1,0.4,0.3c0.1,0.1,0.2,0.2,0.2,0.4c0,0.2,0.1,0.4,0.1,0.6
			v1.3h-0.6v-0.8c0-0.2,0-0.3-0.1-0.5c0-0.1-0.1-0.2-0.2-0.3c-0.1-0.1-0.2-0.2-0.3-0.2c-0.1-0.1-0.2-0.1-0.3-0.1c-0.1,0-0.2,0-0.4,0
			c-0.1,0-0.2,0-0.4,0c-0.1,0-0.2,0.1-0.3,0.1c-0.1,0.1-0.2,0.1-0.3,0.2c-0.1,0.1-0.1,0.2-0.2,0.3c0,0.2-0.1,0.3-0.1,0.5l0,0
			c0,0.2,0,0.4,0.1,0.6c0,0.1,0,0.1,0.1,0.2h-1.8v-3h-0.6v3h-2.1v-3h-0.6v3h-2v-1.7c0-0.2,0-0.3-0.1-0.5c0-0.1-0.1-0.2-0.2-0.3
			c-0.1-0.1-0.2-0.2-0.3-0.2c-0.1-0.1-0.2-0.1-0.3-0.1c-0.1,0-0.2,0-0.4,0h-0.5c-0.1,0-0.2,0-0.3,0c-0.1,0-0.2,0.1-0.3,0.1
			c-0.1,0.1-0.2,0.1-0.3,0.2c-0.1,0.1-0.1,0.2-0.2,0.3c-0.1,0.2-0.1,0.3-0.1,0.5v1.1c0,0.2,0,0.3,0.1,0.5c0,0.1,0.1,0.2,0.2,0.3
			c0.1,0.1,0.2,0.2,0.3,0.2c0.1,0.1,0.2,0.1,0.3,0.1c0.1,0,0.2,0,0.4,0h14.1v-5.6H211.9z M199.5,86.2h-1.1c-0.2,0-0.3-0.1-0.5-0.2
			c-0.1-0.2-0.2-0.4-0.2-0.6v-0.9c0-0.2,0-0.4,0.2-0.6c0.1-0.1,0.3-0.2,0.4-0.2h0.5c0.2,0,0.4,0,0.5,0.2c0.1,0.2,0.2,0.4,0.2,0.6
			C199.5,84.6,199.5,86.2,199.5,86.2z M208.8,86.2h-0.6c-0.2,0-0.4-0.1-0.5-0.2c-0.1-0.1-0.1-0.3-0.2-0.4v-0.2c0-0.2,0-0.3,0.2-0.5
			c0.1-0.1,0.3-0.2,0.5-0.2c0.2,0,0.3,0,0.5,0.2c0.1,0.2,0.2,0.4,0.2,0.6C208.8,85.5,208.8,86.3,208.8,86.2z"/>
		<path id="svg_167" class="st0" d="M202.9,82.7L202.9,82.7l0.1-0.4h-0.5c-0.1,0-0.1-0.1-0.1-0.2c0-0.1,0.2-0.2,0.4-0.2h0.2v-0.4
			h-0.3c-0.5,0-0.8,0.2-0.8,0.6c0,0.1,0,0.2,0,0.3h-0.2v0.4H202.9L202.9,82.7z"/>
		<path id="svg_168" class="st0" d="M205.4,88.1c0.1,0.1,0.3,0.1,0.4,0c0,0,0.1-0.1,0.1-0.1c0,0,0-0.1,0-0.1c0,0,0-0.1,0-0.1
			s0-0.1,0-0.1c0,0,0-0.1,0-0.1c0,0-0.1-0.1-0.1-0.1c-0.1-0.1-0.3-0.1-0.4,0c0,0-0.1,0.1-0.1,0.1v0.1c0,0.1,0,0.1,0,0.2V88
			C205.3,88.1,205.4,88.1,205.4,88.1"/>
		<path id="svg_169" class="st0" d="M204.7,88.1c0.1,0,0.1-0.1,0.1-0.1c0,0,0-0.1,0-0.1c0,0,0-0.1,0-0.1c0,0,0-0.1,0-0.1
			c0,0,0-0.1,0-0.1c0,0-0.1-0.1-0.1-0.1c-0.1-0.1-0.3-0.1-0.4,0c0,0-0.1,0.1-0.1,0.1v0.1c0,0,0,0.1,0,0.1s0,0.1,0,0.1V88
			c0,0,0.1,0.1,0.1,0.1C204.4,88.2,204.6,88.2,204.7,88.1"/>
		<path id="svg_170" class="st0" d="M198.9,82.5c0,0,0.1,0.1,0.1,0.1c0.1,0.1,0.3,0.1,0.4,0c0.1,0,0.1-0.1,0.1-0.1c0,0,0-0.1,0-0.1
			c0,0,0-0.1,0-0.1c0,0,0-0.1,0-0.1c0,0,0-0.1,0-0.1c0,0-0.1-0.1-0.1-0.1c-0.1-0.1-0.3-0.1-0.4,0c0,0-0.1,0.1-0.1,0.1v0.1
			c0,0,0,0.1,0,0.1s0,0.1,0,0.1C198.9,82.4,198.9,82.5,198.9,82.5"/>
		<path id="svg_171" class="st0" d="M197.7,82.5c0,0,0.1,0.1,0.1,0.1c0.1,0,0.1,0,0.2,0c0.1,0,0.1,0,0.2,0c0.1,0,0.1-0.1,0.1-0.1
			c0,0,0-0.1,0-0.1c0,0,0-0.1,0-0.1c0,0,0-0.1,0-0.1c0,0,0-0.1,0-0.1c0,0-0.1-0.1-0.1-0.1c-0.1,0-0.1,0-0.2,0c-0.1,0-0.1,0-0.2,0
			c0,0-0.1,0.1-0.1,0.1c0,0,0,0.1,0,0.1c0,0,0,0.1,0,0.1c0,0,0,0.1,0,0.1C197.7,82.4,197.7,82.5,197.7,82.5"/>
		<path id="svg_172" class="st0" d="M172.9,81.2v5.1h-1.5v-5.1h-0.6v5.1h-1.2v-1.7c0-0.2,0-0.3-0.1-0.5c0-0.1-0.1-0.2-0.2-0.3
			c-0.1-0.1-0.2-0.2-0.3-0.2c-0.1-0.1-0.2-0.1-0.3-0.1c-0.1,0-0.2,0-0.4,0h-0.5c-0.1,0-0.2,0-0.3,0c-0.1,0-0.2,0.1-0.3,0.1
			c-0.1,0.1-0.2,0.1-0.3,0.2c-0.1,0.1-0.1,0.2-0.2,0.3c0,0.1-0.1,0.3-0.1,0.5l0,0l0,0v0.4c0,0.4-0.1,0.7-0.2,1
			c-0.2,0.2-0.6,0.4-0.9,0.3h-0.7v-3h-0.6v3h-2.5v-3h-0.6v3h-0.6c-0.3,0-0.7-0.1-0.9-0.3c-0.2-0.3-0.3-0.7-0.3-1.1v-1.1H159v1.2
			c0,0.4-0.1,0.8-0.3,1.1c-0.2,0.2-0.6,0.4-0.9,0.3h-0.5v-2.7h-0.6v2.7h-2.6v-5.1h-0.6v5.7h4.4c0.2,0,0.4,0,0.5,0
			c0.2,0,0.3-0.1,0.5-0.2c0.1-0.1,0.3-0.2,0.4-0.3c0,0,0-0.1,0-0.1l0.1,0.1c0.1,0.1,0.2,0.2,0.4,0.3c0.1,0.1,0.3,0.2,0.5,0.2
			c0.2,0,0.3,0,0.5,0h4.9c0.2,0,0.4,0,0.5,0c0.2,0,0.3-0.1,0.5-0.2c0.1-0.1,0.2-0.2,0.3-0.3c0,0,0,0.1,0.1,0.1
			c0.1,0.1,0.2,0.2,0.3,0.2c0.1,0.1,0.2,0.1,0.3,0.1c0.1,0,0.2,0,0.4,0h5.6v-5.7H172.9z M169.1,86.2h-1.1c-0.2,0-0.3-0.1-0.5-0.2
			c-0.1-0.2-0.2-0.4-0.2-0.6v-0.9c0-0.2,0-0.4,0.2-0.6c0.1-0.1,0.3-0.2,0.4-0.2h0.5c0.2,0,0.4,0,0.5,0.2c0.1,0.2,0.2,0.4,0.2,0.6
			C169.1,84.6,169.1,86.2,169.1,86.2z"/>
		<path id="svg_173" class="st0" d="M152.7,80.3l0.6-0.4c0.2,0.2,0.4,0.3,0.6,0.3c0.3,0,0.5-0.1,0.7-0.3v0.5
			c-0.2,0.2-0.4,0.3-0.7,0.2c-0.2,0-0.4-0.1-0.6-0.2l-0.3,0.2L152.7,80.3z"/>
		<path id="svg_174" class="st0" d="M151.8,86.2h-3.9c-0.3,0-0.7-0.1-0.9-0.3c-0.2-0.3-0.3-0.7-0.3-1.1v-0.7h-0.6V85
			c0,0.2,0,0.5,0.1,0.7c0,0.2,0.1,0.4,0.2,0.5c0.1,0.1,0.2,0.2,0.4,0.3c0.1,0.1,0.3,0.2,0.5,0.2c0.2,0,0.3,0,0.5,0h4.5v-3.5h-0.6
			L151.8,86.2z"/>
		<path id="svg_175" class="st0" d="M159.6,82.1c0,0,0,0.1,0,0.1c0,0,0,0.1,0,0.1c0,0,0,0.1,0,0.1c0,0,0,0.1,0,0.1
			c0,0,0.1,0.1,0.1,0.1c0.1,0,0.1,0,0.2,0c0.1,0,0.1,0,0.2,0c0,0,0.1-0.1,0.1-0.1c0,0,0-0.1,0-0.1c0,0,0-0.1,0-0.1c0,0,0-0.1,0-0.1
			c0,0,0-0.1,0-0.1c0,0-0.1-0.1-0.1-0.1c-0.1,0-0.1,0-0.2,0c-0.1,0-0.1,0-0.2,0C159.7,82,159.6,82.1,159.6,82.1"/>
		<path id="svg_176" class="st0" d="M164.3,82.5c0,0,0.1,0.1,0.1,0.1c0.1,0.1,0.3,0.1,0.4,0c0,0,0.1-0.1,0.1-0.1c0,0,0-0.1,0.1-0.1
			c0,0,0-0.1,0-0.1s0-0.1,0-0.1l-0.1-0.1c0,0-0.1-0.1-0.1-0.1c-0.1-0.1-0.3-0.1-0.4,0c0,0-0.1,0.1-0.1,0.1c0,0,0,0.1,0,0.1
			c0,0,0,0.1,0,0.1c0,0,0,0.1,0,0.1C164.3,82.4,164.3,82.5,164.3,82.5"/>
		<path id="svg_177" class="st0" d="M159.1,81.6c0,0,0.1,0.1,0.1,0.1c0.1,0,0.1,0,0.2,0c0.1,0,0.1,0,0.2,0c0,0,0.1-0.1,0.1-0.1
			c0,0,0-0.1,0-0.1c0,0,0-0.1,0-0.1c0,0,0-0.1,0-0.1c0,0,0-0.1,0-0.1c0,0-0.1-0.1-0.1-0.1c-0.1,0-0.1,0-0.2,0c-0.1,0-0.1,0-0.2,0
			c0,0-0.1,0.1-0.1,0.1c0,0.1-0.1,0.1-0.1,0.2c0,0,0,0.1,0,0.1C159,81.5,159,81.6,159.1,81.6"/>
		<path id="svg_178" class="st0" d="M158.5,82.5c0,0.1,0.1,0.1,0.1,0.1c0.1,0,0.1,0,0.2,0c0.1,0,0.1,0,0.2,0c0,0,0.1-0.1,0.1-0.1
			c0,0,0-0.1,0-0.1c0,0,0-0.1,0-0.1c0,0,0-0.1,0-0.1c0,0,0-0.1,0-0.1c0,0-0.1-0.1-0.1-0.1c-0.1,0-0.1,0-0.2,0c-0.1,0-0.1,0-0.2,0
			c-0.1,0-0.1,0.1-0.1,0.1c0,0,0,0.1,0,0.1c0,0,0,0.1,0,0.1c0,0,0,0.1,0,0.1C158.5,82.4,158.5,82.5,158.5,82.5"/>
		<path id="svg_179" class="st0" d="M149.5,82.5c0,0,0.1,0.1,0.1,0.1c0.1,0,0.1,0,0.2,0c0.1,0,0.1,0,0.2,0c0.1,0,0.1-0.1,0.1-0.1
			c0,0,0-0.1,0-0.1c0,0,0-0.1,0-0.1c0,0,0-0.1,0-0.1c0,0,0-0.1,0-0.1c0,0-0.1-0.1-0.1-0.1c-0.1,0-0.1,0-0.2,0c-0.1,0-0.1,0-0.2,0
			c0,0-0.1,0.1-0.1,0.1c0,0,0,0.1,0,0.1c0,0,0,0.1,0,0.1c0,0,0,0.1,0,0.1C149.5,82.4,149.5,82.5,149.5,82.5"/>
		<path id="svg_180" class="st0" d="M148.4,82.5c0,0,0.1,0.1,0.1,0.1c0.1,0,0.1,0,0.2,0c0.1,0,0.1,0,0.2,0c0.1,0,0.1-0.1,0.1-0.1
			c0,0,0-0.1,0-0.1c0,0,0-0.1,0-0.1c0,0,0-0.1,0-0.1c0,0,0-0.1,0-0.1c0,0-0.1-0.1-0.1-0.1c-0.1,0-0.1,0-0.2,0c-0.1,0-0.1,0-0.2,0
			c0,0-0.1,0.1-0.1,0.1c0,0,0,0.1,0,0.1c0,0,0,0.1,0,0.1c0,0,0,0.1,0,0.1C148.4,82.4,148.4,82.5,148.4,82.5"/>
		<rect id="svg_181" x="142.9" y="81.2" class="st0" width="0.6" height="5.7"/>
		<path id="svg_182" class="st0" d="M141.1,81.2v5.1h-1.4v-1.5c0-0.6-0.4-1.1-0.9-1.3c-0.8-0.3-1.8-0.2-2.4,0.4v-0.6h-0.6v3h-1.3
			c-0.3,0-0.7,0-1-0.1c0.5-0.4,0.9-1,1-1.6c0.1-0.6-0.4-1.1-1-1.2c0,0-0.1,0-0.1,0c-0.6-0.1-1.2,0-1.8,0.2h-0.1l-0.1,0.2
			c-0.2,0.7-0.1,1.5,0.4,2.1c0.1,0.2,0.3,0.3,0.4,0.5c-0.1,0-0.2,0-0.2,0h-2.3v-3h-0.6v3H127v-3h-0.6v2.9c0,0.2,0,0.4-0.1,0.6
			c0,0.1-0.1,0.3-0.2,0.4c-0.1,0.1-0.2,0.2-0.3,0.2c-0.1,0-0.3,0.1-0.4,0.1v0.7c0.2,0,0.3,0,0.5-0.1c0.1,0,0.3-0.1,0.4-0.2
			c0.1-0.1,0.2-0.2,0.3-0.3c0.1-0.2,0.2-0.3,0.2-0.5c0-0.1,0-0.2,0-0.2h5.1c0.3,0,0.6-0.1,0.8-0.3c0.5,0.2,1,0.3,1.5,0.3h7.2v-5.6
			H141.1z M132.9,85.9c-0.7-0.4-1-1.1-0.9-1.9c0.4-0.1,0.9-0.2,1.3-0.1c0.6,0.1,0.6,0.4,0.6,0.6C133.8,85.1,133.5,85.6,132.9,85.9
			 M139.2,86.2h-2.8v-1.7c0.6-0.6,1.4-0.8,2.2-0.5c0.3,0.1,0.5,0.4,0.6,0.8L139.2,86.2z"/>
		<path id="svg_183" class="st0" d="M132.5,82.5c0,0,0.1,0.1,0.1,0.1c0.1,0.1,0.3,0.1,0.4,0c0,0,0.1-0.1,0.1-0.1c0,0,0-0.1,0-0.1
			c0,0,0-0.1,0-0.1s0-0.1,0-0.1v-0.1c0,0-0.1-0.1-0.1-0.1c-0.1-0.1-0.3-0.1-0.4,0c0,0-0.1,0.1-0.1,0.1v0.1c0,0,0,0.1,0,0.1
			c0,0,0,0.1,0,0.1C132.5,82.4,132.5,82.5,132.5,82.5"/>
		<path id="svg_184" class="st0" d="M123.9,82.5c0,0,0.1,0.1,0.1,0.1c0.1,0,0.1,0,0.2,0c0.1,0,0.1,0,0.2,0c0,0,0.1-0.1,0.1-0.1
			c0,0,0-0.1,0-0.1c0,0,0-0.1,0-0.1s0-0.1,0-0.1v-0.1c0,0-0.1-0.1-0.1-0.1c-0.1,0-0.1,0-0.2,0c-0.1,0-0.1,0-0.2,0
			c-0.1,0-0.1,0.1-0.1,0.1c0,0,0,0.1,0,0.1c0,0,0,0.1,0,0.1c0,0,0,0.1,0,0.1C123.9,82.4,123.9,82.5,123.9,82.5"/>
		<path id="svg_185" class="st0" d="M122.8,82.5c0,0,0.1,0.1,0.1,0.1c0.1,0.1,0.3,0.1,0.4,0c0,0,0.1-0.1,0.1-0.1c0,0,0-0.1,0-0.1
			c0,0,0-0.1,0-0.1s0-0.1,0-0.1v-0.1c0,0-0.1-0.1-0.1-0.1c-0.1-0.1-0.3-0.1-0.4,0c0,0-0.1,0.1-0.1,0.1c0,0,0,0.1,0,0.1
			c0,0,0,0.1,0,0.1c0,0,0,0.1,0,0.1C122.8,82.4,122.8,82.5,122.8,82.5"/>
		<path id="svg_186" class="st0" d="M129.8,88.1c0.1,0.1,0.3,0.1,0.4,0c0,0,0.1-0.1,0.1-0.1c0,0,0-0.1,0-0.1c0,0,0-0.1,0-0.1
			s0-0.1,0-0.1c0,0,0-0.1,0-0.1c0,0-0.1-0.1-0.1-0.1c-0.1-0.1-0.3-0.1-0.4,0c0,0-0.1,0.1-0.1,0.1c0,0,0,0.1-0.1,0.1
			c0,0.1,0,0.1,0,0.2c0,0,0,0.1,0,0.1C129.7,88,129.8,88.1,129.8,88.1"/>
		<path id="svg_187" class="st0" d="M129.2,87.6c0,0-0.1-0.1-0.1-0.1c-0.1,0-0.1,0-0.2,0c-0.1,0-0.1,0-0.2,0c0,0-0.1,0.1-0.1,0.1
			l-0.1,0.1c0,0,0,0.1,0,0.1s0,0.1,0,0.1l0.1,0.1c0,0,0.1,0.1,0.1,0.1c0.1,0,0.1,0,0.2,0c0.1,0,0.1,0,0.2,0c0,0,0.1-0.1,0.1-0.1
			c0,0,0-0.1,0-0.1c0,0,0-0.1,0-0.1c0,0,0-0.1,0-0.1C129.2,87.7,129.2,87.6,129.2,87.6"/>
		<path id="svg_188" class="st0" d="M122.7,86.7c0.1,0.1,0.2,0.1,0.3,0.1c0.1,0,0.2,0,0.4,0h1.7v-2.3c0-0.2,0-0.3-0.1-0.5
			c0-0.1-0.1-0.2-0.2-0.3c-0.1-0.1-0.2-0.2-0.3-0.2c-0.1-0.1-0.2-0.1-0.3-0.1c-0.1,0-0.2,0-0.4,0h-0.5c-0.1,0-0.2,0-0.3,0
			c-0.1,0-0.2,0.1-0.3,0.1c-0.1,0.1-0.2,0.1-0.3,0.2c-0.1,0.1-0.1,0.2-0.2,0.3c-0.1,0.2-0.1,0.3-0.1,0.5v1.1c0,0.2,0,0.3,0.1,0.5
			c0,0.1,0.1,0.2,0.2,0.3C122.6,86.5,122.7,86.6,122.7,86.7 M122.8,84.7c0-0.2,0-0.4,0.1-0.6c0.1-0.1,0.3-0.2,0.5-0.2h0.5
			c0.2,0,0.4,0.1,0.5,0.2c0.1,0.2,0.2,0.4,0.2,0.6v1.6h-1.1c-0.2,0-0.4,0-0.5-0.2c-0.1-0.2-0.2-0.4-0.2-0.6L122.8,84.7z"/>
		<rect id="svg_189" x="194" y="81.2" class="st0" width="0.6" height="5.7"/>
		<path id="svg_190" class="st0" d="M178.5,82.5c0,0,0.1,0.1,0.1,0.1c0.1,0,0.1,0,0.2,0c0.1,0,0.1,0,0.2,0c0.1,0,0.1-0.1,0.1-0.1
			c0,0,0-0.1,0-0.1c0,0,0-0.1,0-0.1c0,0,0-0.1,0-0.1c0,0,0-0.1,0-0.1c0,0-0.1-0.1-0.1-0.1c-0.1,0-0.1,0-0.2,0c-0.1,0-0.1,0-0.2,0
			c0,0-0.1,0.1-0.1,0.1c0,0,0,0.1,0,0.1c0,0,0,0.1,0,0.1c0,0,0,0.1,0,0.1C178.5,82.4,178.5,82.5,178.5,82.5"/>
		<path id="svg_191" class="st0" d="M177.4,82.5c0,0,0.1,0.1,0.1,0.1c0.1,0,0.1,0,0.2,0c0.1,0,0.1,0,0.2,0c0.1,0,0.1-0.1,0.1-0.1
			c0,0,0-0.1,0-0.1c0,0,0-0.1,0-0.1c0,0,0-0.1,0-0.1c0,0,0-0.1,0-0.1c0,0-0.1-0.1-0.1-0.1c-0.1,0-0.1,0-0.2,0c-0.1,0-0.1,0-0.2,0
			c0,0-0.1,0.1-0.1,0.1c0,0,0,0.1,0,0.1c0,0,0,0.1,0,0.1c0,0,0,0.1,0,0.1C177.4,82.4,177.4,82.5,177.4,82.5"/>
		<path id="svg_192" class="st0" d="M192.2,81.2v5.1h-1.3c-0.3,0-0.7,0-1-0.1c0.5-0.4,0.9-1,1-1.7c0-0.3,0-1-1.1-1.2
			c-0.6-0.1-1.2,0-1.8,0.2h-0.1v0.1c-0.2,0.7-0.1,1.5,0.3,2.1c0.1,0.2,0.3,0.3,0.5,0.5h-0.2h-2.1v-5h-0.6v5.7h2.7
			c0.3,0,0.6-0.1,0.8-0.2c0.5,0.2,1,0.2,1.5,0.2h2v-5.7H192.2z M189.3,85.9c-0.2-0.1-0.4-0.3-0.6-0.5c-0.3-0.4-0.4-0.9-0.3-1.4
			c0.4-0.1,0.9-0.1,1.3-0.1c0.6,0.1,0.6,0.4,0.6,0.5C190.2,85,189.8,85.6,189.3,85.9"/>
		<path id="svg_193" class="st0" d="M184.7,86.8v-2.3c0-0.2,0-0.3-0.1-0.5c0-0.1-0.1-0.2-0.2-0.3c-0.1-0.1-0.2-0.2-0.3-0.2
			c-0.1-0.1-0.2-0.1-0.3-0.1c-0.1,0-0.2,0-0.4,0H183c-0.1,0-0.2,0-0.3,0c-0.1,0-0.2,0.1-0.3,0.1c-0.1,0.1-0.2,0.1-0.3,0.2
			c-0.1,0.1-0.1,0.2-0.2,0.3c0,0.1-0.1,0.3-0.1,0.5l0,0v0.3c0,0.4-0.1,0.8-0.3,1.1c-0.2,0.2-0.6,0.4-0.9,0.3h-1v-1.7
			c0-0.2,0-0.3,0-0.5c0-0.1-0.1-0.2-0.2-0.3c-0.1-0.1-0.2-0.2-0.3-0.2c-0.1-0.1-0.2-0.1-0.3-0.1c-0.1,0-0.2,0-0.4,0H178
			c-0.1,0-0.2,0-0.3,0c-0.1,0-0.2,0.1-0.3,0.1c-0.1,0.1-0.2,0.1-0.3,0.2c-0.1,0.1-0.1,0.2-0.2,0.3c0,0.2-0.1,0.3-0.1,0.5v1.1
			c0,0.2,0,0.3,0.1,0.5c0,0.1,0.1,0.2,0.2,0.3c0.1,0.1,0.2,0.2,0.3,0.2c0.1,0.1,0.2,0.1,0.3,0.1c0.1,0,0.2,0,0.4,0h2.6
			c0.2,0,0.4,0,0.5,0c0.2,0,0.3-0.1,0.5-0.2c0.1-0.1,0.2-0.2,0.3-0.3c0,0,0,0.1,0.1,0.1c0.1,0.1,0.2,0.2,0.3,0.2
			c0.1,0.1,0.2,0.1,0.3,0.1c0.1,0,0.2,0,0.4,0L184.7,86.8z M177.6,86.1c-0.1-0.2-0.2-0.4-0.2-0.6v-0.9c0-0.2,0-0.4,0.2-0.6
			c0.1-0.1,0.3-0.2,0.4-0.2h0.5c0.2,0,0.4,0,0.5,0.2c0.1,0.2,0.2,0.4,0.2,0.6v1.6H178C177.9,86.3,177.7,86.2,177.6,86.1 M182.6,86.1
			c-0.1-0.2-0.2-0.4-0.2-0.6v-0.9c0-0.2,0-0.4,0.2-0.6c0.1-0.1,0.3-0.2,0.4-0.2h0.5c0.2,0,0.4,0,0.5,0.2c0.1,0.2,0.2,0.4,0.1,0.6
			v1.6H183C182.8,86.3,182.7,86.2,182.6,86.1"/>
		<rect id="svg_194" x="115" y="81.2" class="st0" width="0.6" height="5.7"/>
		<path id="svg_195" class="st0" d="M100.4,86.2h-0.5c-0.3,0-0.7-0.1-0.9-0.3c-0.2-0.3-0.3-0.7-0.2-1.1v-1.2h-0.6v1.2
			c0,0.4-0.1,0.8-0.3,1.1c-0.2,0.2-0.6,0.4-0.9,0.3h-0.5v-2.7h-0.6v2.7h-1.6v-1.5c0-0.6-0.4-1.1-0.9-1.3c-0.8-0.3-1.8-0.2-2.4,0.4
			v-2.7h-0.6v5.1h-1.6v-1.7c0-0.2,0-0.3-0.1-0.5c0-0.1-0.1-0.2-0.2-0.3c-0.1-0.1-0.2-0.2-0.3-0.2c-0.1-0.1-0.2-0.1-0.3-0.1
			c-0.1,0-0.2,0-0.4,0h-0.5c-0.1,0-0.2,0-0.3,0c-0.1,0-0.2,0.1-0.3,0.1c-0.1,0.1-0.2,0.1-0.3,0.2C86,83.8,86,83.9,85.9,84
			c0,0.2-0.1,0.3-0.1,0.5v1.1c0,0.2,0,0.3,0.1,0.5c0,0.1,0.1,0.2,0.2,0.3c0.1,0.1,0.2,0.2,0.3,0.2c0.1,0.1,0.2,0.1,0.3,0.1
			c0.1,0,0.2,0,0.4,0H97c0.2,0,0.4,0,0.5,0c0.2,0,0.3-0.1,0.5-0.2c0.1-0.1,0.3-0.2,0.4-0.3c0,0,0-0.1,0-0.1l0.1,0.1
			c0.1,0.1,0.2,0.2,0.4,0.3c0.1,0.1,0.3,0.2,0.5,0.2c0.2,0,0.3,0,0.5,0h1.2v-3.5h-0.6L100.4,86.2L100.4,86.2z M88.2,86.2h-1.1
			c-0.2,0-0.3-0.1-0.5-0.2c-0.1-0.2-0.2-0.4-0.1-0.6v-0.9c0-0.2,0-0.4,0.1-0.6c0.1-0.1,0.3-0.2,0.5-0.2h0.5c0.2,0,0.3,0.1,0.5,0.2
			c0.1,0.2,0.2,0.4,0.2,0.6V86.2z M93.7,86.2h-2.8v-1.7c0.6-0.6,1.4-0.8,2.2-0.5c0.3,0.1,0.5,0.4,0.6,0.8V86.2z"/>
		<path id="svg_196" class="st0" d="M87.6,82.5c0,0.1,0.1,0.1,0.1,0.1c0.1,0,0.1,0,0.2,0c0.1,0,0.1,0,0.2,0c0,0,0.1-0.1,0.1-0.1
			c0,0,0-0.1,0-0.1c0,0,0-0.1,0-0.1c0,0,0-0.1,0-0.1c0,0,0-0.1,0-0.1c0,0-0.1-0.1-0.1-0.1c-0.1,0-0.1,0-0.2,0c-0.1,0-0.1,0-0.2,0
			c-0.1,0-0.1,0.1-0.1,0.1c0,0,0,0.1,0,0.1c0,0,0,0.1,0,0.1c0,0,0,0.1,0,0.1C87.6,82.4,87.6,82.5,87.6,82.5"/>
		<path id="svg_197" class="st0" d="M86.4,82.5c0,0,0.1,0.1,0.1,0.1c0.1,0,0.1,0,0.2,0c0.1,0,0.1,0,0.2,0c0,0,0.1-0.1,0.1-0.1
			c0,0,0-0.1,0-0.1c0,0,0-0.1,0-0.1s0-0.1,0-0.1v-0.1c0,0-0.1-0.1-0.1-0.1c-0.1,0-0.2,0-0.2,0c-0.1,0-0.1,0-0.2,0
			c-0.1,0-0.1,0.1-0.1,0.1c0,0,0,0.1,0,0.1c0,0,0,0.1,0,0.1c0,0,0,0.1,0,0.1C86.4,82.4,86.4,82.5,86.4,82.5"/>
		<path id="svg_198" class="st0" d="M107,82.5c0,0.1,0.1,0.1,0.1,0.1c0.1,0,0.1,0,0.2,0c0.1,0,0.1,0,0.2,0c0,0,0.1-0.1,0.1-0.1
			c0,0,0-0.1,0-0.1c0,0,0-0.1,0-0.1c0,0,0-0.1,0-0.1c0,0,0-0.1,0-0.1c0,0-0.1-0.1-0.1-0.1c-0.1,0-0.1,0-0.2,0c-0.1,0-0.1,0-0.2,0
			c-0.1,0-0.1,0.1-0.1,0.1c0,0,0,0.1,0,0.1c0,0,0,0.1,0,0.1c0,0,0,0.1,0,0.1C107,82.4,107,82.5,107,82.5"/>
		<path id="svg_199" class="st0" d="M105.8,82.5c0,0,0.1,0.1,0.1,0.1c0.1,0,0.1,0,0.2,0c0.1,0,0.1,0,0.2,0c0,0,0.1-0.1,0.1-0.1
			c0,0,0-0.1,0.1-0.1c0,0,0-0.1,0-0.1s0-0.1,0-0.1l-0.1-0.1c0,0-0.1-0.1-0.1-0.1c-0.1,0-0.1,0-0.2,0c-0.1,0-0.1,0-0.2,0
			c-0.1,0-0.1,0.1-0.1,0.1c0,0,0,0.1,0,0.1c0,0,0,0.1,0,0.1c0,0,0,0.1,0,0.1C105.8,82.4,105.8,82.5,105.8,82.5"/>
		<path id="svg_200" class="st0" d="M119.6,86.8v-2.3c0-0.2,0-0.3-0.1-0.5c0-0.1-0.1-0.2-0.2-0.3c-0.1-0.1-0.2-0.2-0.3-0.2
			c-0.1-0.1-0.2-0.1-0.3-0.1c-0.1,0-0.2,0-0.4,0h-0.5c-0.1,0-0.2,0-0.3,0c-0.1,0-0.2,0.1-0.3,0.1c-0.1,0.1-0.2,0.1-0.3,0.2
			c-0.1,0.1-0.2,0.2-0.2,0.3c-0.1,0.2-0.1,0.3-0.1,0.5v1.1c0,0.2,0,0.3,0.1,0.5c0,0.1,0.1,0.2,0.2,0.3c0.1,0.1,0.2,0.2,0.3,0.2
			c0.1,0.1,0.2,0.1,0.3,0.1c0.1,0,0.2,0,0.4,0h1.1c0,0.8-0.5,0.9-0.9,0.9h-0.6v0.6h0.6c0.7,0.1,1.4-0.5,1.5-1.2
			C119.6,87,119.6,86.9,119.6,86.8 M119,84.9v1.3h-1.1c-0.2,0-0.4,0-0.5-0.2c-0.1-0.2-0.2-0.4-0.2-0.6v-0.9c0-0.2,0-0.4,0.2-0.6
			c0.1-0.1,0.3-0.2,0.5-0.2h0.5c0.2,0,0.4,0.1,0.5,0.2c0.1,0.2,0.2,0.4,0.2,0.6L119,84.9z"/>
		<path id="svg_201" class="st0" d="M113.1,81.2v5.1h-1.4v-1.7c0-0.2,0-0.3,0-0.5c0-0.1-0.1-0.2-0.2-0.3c-0.1-0.1-0.2-0.2-0.3-0.2
			c-0.1-0.1-0.2-0.1-0.3-0.1c-0.1,0-0.2,0-0.4,0h-0.5c-0.1,0-0.2,0-0.3,0c-0.1,0-0.2,0.1-0.3,0.1c-0.1,0.1-0.2,0.1-0.3,0.2
			c-0.1,0.1-0.1,0.2-0.2,0.3c0,0.1-0.1,0.3-0.1,0.5l0,0l0,0v0.4c0,0.4-0.1,0.7-0.3,1c-0.2,0.2-0.6,0.4-0.9,0.3H107v-3h-0.6v3h-1.5
			v-1.6c0-0.2,0-0.3-0.1-0.5c0-0.1-0.1-0.2-0.2-0.3c-0.1-0.1-0.2-0.2-0.3-0.2c-0.1-0.1-0.2-0.1-0.3-0.1c-0.1,0-0.2,0-0.4,0h-0.5
			c-0.1,0-0.2,0-0.3,0c-0.1,0-0.2,0.1-0.3,0.1c-0.1,0.1-0.2,0.1-0.3,0.2c-0.1,0.1-0.1,0.2-0.2,0.3c-0.1,0.2-0.1,0.3-0.1,0.5v1.1
			c0,0.2,0,0.3,0.1,0.5c0,0.1,0.1,0.2,0.2,0.3c0.1,0.1,0.2,0.2,0.3,0.2c0.1,0.1,0.2,0.1,0.3,0.1c0.1,0,0.2,0,0.4,0h1.1
			c0,0.8-0.5,0.9-0.9,0.9h-0.6v0.6h0.6c0.7,0.1,1.4-0.4,1.5-1.2c0-0.1,0-0.2,0-0.4h2.8c0.2,0,0.4,0,0.5,0c0.2,0,0.3-0.1,0.5-0.2
			c0.1-0.1,0.2-0.2,0.3-0.3c0,0,0,0.1,0.1,0.1c0.1,0.1,0.2,0.2,0.3,0.2c0.1,0.1,0.2,0.1,0.3,0.1c0.1,0,0.2,0,0.4,0h3.6v-5.7H113.1z
			 M104.3,84.9v1.3h-1.1c-0.2,0-0.4,0-0.5-0.2c-0.1-0.2-0.2-0.4-0.1-0.6v-0.9c0-0.2,0-0.4,0.1-0.6c0.1-0.1,0.3-0.2,0.4-0.2h0.6
			c0.2,0,0.3,0.1,0.5,0.2c0.1,0.2,0.2,0.4,0.2,0.6L104.3,84.9z M111.2,86.2h-1.1c-0.2,0-0.3-0.1-0.5-0.2c-0.1-0.2-0.2-0.4-0.2-0.6
			v-0.9c0-0.2,0-0.4,0.2-0.6c0.1-0.1,0.3-0.2,0.4-0.2h0.5c0.2,0,0.4,0,0.5,0.2c0.1,0.2,0.2,0.4,0.1,0.6V86.2z"/>
	</g>
</g>
</svg>
