<?xml version="1.0" encoding="utf-8"?>
<!-- Generator: Adobe Illustrator 26.3.1, SVG Export Plug-In . SVG Version: 6.00 Build 0)  -->
<svg version="1.1" id="Layer_1" xmlns="http://www.w3.org/2000/svg" xmlns:xlink="http://www.w3.org/1999/xlink" x="0px" y="0px"
	 viewBox="0 0 300 100" style="enable-background:new 0 0 300 100;" xml:space="preserve">
<style type="text/css">
	.st0{fill:#FFFFFF;}
</style>
<g id="Layer_2_00000165229332499238259470000007327112142477925296_">
	<g id="Layer_1-2">
		<path class="st0" d="M56,60.2h1.4v-7.9H56V60.2z M108.5,52.3h2v1.4h-0.6v6.5h-9c-1.1,1.2-3,1.2-4.2,0.1c0,0-0.1-0.1-0.1-0.1H64.3
			c-1.5-0.1-2.7-1.4-2.6-2.9c0.1-1.4,1.2-2.5,2.6-2.6h0.8v-0.5h1.4v4.6H75v-4.2h1.4v4.2h9.4v-1.7c0-0.4-0.3-0.7-0.7-0.7h-4.5
			l-0.5-1.3l1.6-2.9h1.5l-1.5,2.9h3.6c1,0,1.9,0.8,1.9,1.9c0,0,0,0,0,0v1.8h3.5v-6.6h1.4v6.6h3.7c0-0.2-0.1-0.4-0.1-0.6
			c-0.1-1.6,1.1-3,2.8-3.1c1.6-0.1,3,1.1,3.1,2.8c0,0.1,0,0.2,0,0.3c0,0.2,0,0.4-0.1,0.6h3.6v-6.6h1.4v6.6h2L108.5,52.3L108.5,52.3z
			 M65.1,56.1h-0.8c-0.8,0-1.4,0.6-1.4,1.4c0,0.8,0.6,1.4,1.4,1.4h0.8V56.1z M100.2,58.2c0-0.9-0.7-1.6-1.6-1.6
			c-0.9,0-1.6,0.7-1.6,1.6c0,0.9,0.7,1.6,1.6,1.6C99.5,59.8,100.2,59.2,100.2,58.2C100.2,58.3,100.2,58.3,100.2,58.2z M114.3,57.5
			c0-1.5,1.2-2.7,2.7-2.7h0.8v-0.5h1.4v4.6h7.9v-4.2h1.4v5.5h-11.4C115.6,60.2,114.3,59,114.3,57.5z M115.7,57.5
			c0,0.8,0.6,1.4,1.3,1.4c0,0,0,0,0,0h0.8v-2.8h-0.8C116.3,56.1,115.7,56.7,115.7,57.5z M169,60.2h1.4v-7.9H169V60.2z M190.6,53.2
			h-1.3V53c0-0.3,0.1-0.5,0.5-0.5h0.5v-0.4h-0.6c-0.6-0.1-1.1,0.3-1.2,0.9c0,0.1,0,0.2,0,0.3V54h2.1V53.2z M174.5,57.5
			c0-1.5,1.2-2.7,2.7-2.7l0,0h0.8v-0.5h1.4v4.7h9.5v-4.2h1.4v4.2h4.6v-4.2h1.4v4.2h4.5c-0.1-0.3-0.2-0.6-0.2-0.9
			c-0.1-1.2,0.8-2.2,2-2.2c1.2-0.1,2.2,0.8,2.2,2c0,0.1,0,0.2,0,0.3c0,0.3-0.1,0.6-0.2,0.9h0.9c0.1-0.3,0.1-0.6,0.1-0.9
			c0-1.6-1.3-2.9-2.9-3c-0.6,0-1.1,0.2-1.6,0.5l-0.8-1.2c0.7-0.5,1.5-0.7,2.3-0.7c2.4,0,4.4,1.9,4.4,4.3c0,0,0,0,0,0
			c0,0.3-0.1,0.6-0.1,0.9h4v-6.6h2v1.4h-0.6v6.5h-35C175.9,60.3,174.6,59,174.5,57.5C174.6,57.5,174.6,57.5,174.5,57.5L174.5,57.5z
			 M201.8,58c0,0.5,0.4,0.9,0.9,0.9c0.5,0,0.9-0.4,0.9-0.9c0-0.5-0.4-0.9-0.9-0.9l0,0C202.2,57.1,201.8,57.5,201.8,58
			C201.8,58,201.8,58,201.8,58L201.8,58z M176,57.5c0,0.8,0.6,1.4,1.3,1.4c0,0,0,0,0,0h0.8v-2.8h-0.8C176.6,56.2,176,56.8,176,57.5z
			 M214,52.3v7.9h1.4v-7.9L214,52.3z M24.6,61.6c0,0.4,0.3,0.7,0.7,0.7s0.7-0.3,0.7-0.7s-0.3-0.7-0.7-0.7S24.6,61.2,24.6,61.6
			L24.6,61.6z M26.9,60.9c-0.4,0-0.7,0.3-0.7,0.7c0,0.4,0.3,0.7,0.7,0.7c0.4,0,0.7-0.3,0.7-0.7c0,0,0,0,0,0
			C27.6,61.2,27.3,60.9,26.9,60.9z M47.7,53.6c0.4,0,0.8-0.3,0.8-0.7c0-0.4-0.3-0.8-0.7-0.8c-0.4,0-0.8,0.3-0.8,0.7c0,0,0,0.1,0,0.1
			C47,53.3,47.3,53.6,47.7,53.6z M74.8,60.9c-0.4,0-0.7,0.3-0.7,0.7c0,0.4,0.3,0.7,0.7,0.7c0.4,0,0.7-0.3,0.7-0.7c0,0,0,0,0,0
			C75.5,61.2,75.2,60.9,74.8,60.9z M77.1,61.6c0-0.4-0.3-0.7-0.7-0.7s-0.7,0.3-0.7,0.7s0.3,0.7,0.7,0.7l0,0
			C76.8,62.3,77.1,62,77.1,61.6C77.1,61.6,77.1,61.6,77.1,61.6z M177.1,53.6c0.4,0,0.7-0.3,0.7-0.7s-0.3-0.7-0.7-0.7
			s-0.7,0.3-0.7,0.7C176.4,53.3,176.7,53.6,177.1,53.6C177.1,53.6,177.1,53.6,177.1,53.6L177.1,53.6z M178.7,53.6
			c0.4,0,0.8-0.3,0.8-0.7s-0.3-0.8-0.7-0.8c-0.4,0-0.8,0.3-0.8,0.7c0,0,0,0.1,0,0.1C178,53.3,178.3,53.6,178.7,53.6L178.7,53.6z
			 M126.2,60.8c-0.4,0-0.7,0.3-0.7,0.7c0,0.4,0.3,0.7,0.7,0.7c0.4,0,0.7-0.3,0.7-0.7l0,0C126.9,61.2,126.6,60.9,126.2,60.8
			L126.2,60.8z M128.5,61.6c0-0.4-0.3-0.7-0.7-0.7s-0.7,0.3-0.7,0.7c0,0.4,0.3,0.7,0.7,0.7c0,0,0,0,0,0
			C128.2,62.3,128.5,62,128.5,61.6L128.5,61.6z M194.8,60.8c-0.4,0-0.7,0.3-0.7,0.7c0,0.4,0.3,0.7,0.7,0.7c0.4,0,0.7-0.3,0.7-0.7
			C195.5,61.2,195.2,60.9,194.8,60.8L194.8,60.8z M195.6,61.6c0,0.4,0.3,0.7,0.7,0.7c0.4,0,0.7-0.3,0.7-0.7c0-0.4-0.3-0.7-0.7-0.7
			c0,0,0,0,0,0C196,60.8,195.6,61.2,195.6,61.6C195.6,61.6,195.6,61.6,195.6,61.6L195.6,61.6z M116.9,53.6c0.4,0,0.7-0.3,0.7-0.7
			c0-0.4-0.3-0.7-0.7-0.7c-0.4,0-0.7,0.3-0.7,0.7l0,0C116.1,53.3,116.4,53.6,116.9,53.6C116.8,53.6,116.9,53.6,116.9,53.6
			L116.9,53.6z M118.5,53.6c0.4,0,0.7-0.3,0.7-0.7c0-0.4-0.3-0.7-0.7-0.7c-0.4,0-0.7,0.3-0.7,0.7l0,0
			C117.7,53.2,118,53.6,118.5,53.6C118.4,53.6,118.4,53.6,118.5,53.6L118.5,53.6z M134.5,56.6c0-1-0.8-1.9-1.9-1.9h-1.3l-0.3,1.4
			h1.4c0.4,0,0.7,0.3,0.7,0.7v2.1h-3.5v1.4h4.9L134.5,56.6z M64.1,53.6c0.4,0,0.7-0.3,0.7-0.7c0-0.4-0.3-0.7-0.7-0.7
			c-0.4,0-0.7,0.3-0.7,0.7C63.3,53.2,63.6,53.6,64.1,53.6C64,53.6,64.1,53.6,64.1,53.6L64.1,53.6z M65.6,53.6c0.4,0,0.7-0.3,0.7-0.7
			c0-0.4-0.3-0.7-0.7-0.7c-0.4,0-0.7,0.3-0.7,0.7C64.9,53.3,65.2,53.6,65.6,53.6C65.6,53.6,65.7,53.6,65.6,53.6L65.6,53.6z
			 M17.5,53.6c0.4,0,0.7-0.3,0.8-0.7c0-0.4-0.3-0.7-0.7-0.8c-0.4,0-0.7,0.3-0.8,0.7c0,0,0,0.1,0,0.1C16.8,53.3,17.1,53.6,17.5,53.6
			L17.5,53.6z M19.1,53.6c0.4,0,0.7-0.3,0.8-0.7c0-0.4-0.3-0.7-0.7-0.8c-0.4,0-0.7,0.3-0.8,0.7c0,0,0,0.1,0,0.1
			C18.4,53.3,18.7,53.6,19.1,53.6L19.1,53.6z M15,57.5c0-1.5,1.2-2.7,2.7-2.7c0,0,0,0,0,0h0.8v-0.5h1.4v4.6h6.2v-4.2h1.4v5.5h-9.7
			C16.2,60.2,15,59,15,57.5z M16.4,57.5c0,0.8,0.6,1.4,1.3,1.4c0,0,0,0,0,0h0.8v-2.8h-0.8C17,56.1,16.4,56.7,16.4,57.5z M29.3,62.4
			c-0.2,0-0.5,0-0.7-0.1v-1.4C28.8,61,29,61,29.2,61c0.5,0,0.7-0.3,0.7-1v-5.2h1.4v4.2h8.7v-1.7c0-0.4-0.3-0.7-0.7-0.7l0,0h-4.5
			l-0.5-1.3l1.6-2.9h1.5l-1.5,2.9h3.6c1,0,1.9,0.8,1.9,1.9v1.8h3.8c-0.2-0.4-0.4-0.9-0.4-1.4c0-1.5,1.2-2.7,2.7-2.7h0h2.1v4.1H53
			v-6.6h2v1.4h-0.6v6.5H31.2C31.2,61.7,30.6,62.4,29.3,62.4z M46.1,57.5c0,0.8,0.6,1.4,1.3,1.4c0,0,0,0,0,0h0.8v-2.8h-0.8
			C46.7,56.1,46.1,56.7,46.1,57.5z M138.9,60.2h-0.8c-1.5-0.1-2.7-1.4-2.6-2.9c0.1-1.4,1.2-2.5,2.6-2.6h2.1v4.2h4.1l-1.2-3.1
			c0.8-0.8,1.9-1.3,3-1.4c1.1,0.1,2.2,0.6,3,1.4l-1.2,3.1h3.5c0.8,0,1.4-0.6,1.4-1.4c0,0,0,0,0,0V54h1.4v3.5c0,0.8,0.6,1.4,1.4,1.4
			c0.8,0,1.4-0.6,1.4-1.4v-2.4h1.4v2.4c0,0.8,0.6,1.4,1.4,1.4c0.8,0,1.4-0.6,1.4-1.4V54h1.4v3.5c0,0.8,0.6,1.4,1.3,1.4
			c0,0,0,0,0.1,0h2.1v-6.6h2v1.4h-0.6v6.5h-3.5c-0.8,0-1.5-0.3-2.1-0.9c-0.5,0.6-1.3,0.9-2.1,0.9c-0.8,0-1.5-0.3-2.1-0.9
			c-0.5,0.6-1.3,0.9-2.1,0.9c-0.8,0-1.5-0.3-2.1-0.9c-0.5,0.6-1.3,0.9-2.1,0.9h-11.2c-0.1,1.3-0.7,2.1-2.5,2.1c-0.5,0-1-0.1-1.4-0.2
			v-1.3c0.4,0.1,0.9,0.2,1.3,0.2C138.5,61,138.8,60.9,138.9,60.2z M144.7,56.4l0.9,2.5h1.2l0.9-2.5c-0.4-0.3-0.9-0.5-1.5-0.5
			C145.6,55.8,145.1,56,144.7,56.4z M139,58.9v-2.8h-0.8c-0.8,0-1.4,0.6-1.4,1.4c0,0.8,0.6,1.4,1.4,1.4c0,0,0,0,0,0L139,58.9z"/>
		<path class="st0" d="M26.5,69.2v3.1c-0.7,0.3-1.5,0.4-2.3,0.4c-1.3,0-2.5-0.5-2.5-1.8s1-1.8,2.5-1.8c0.3,0,0.7,0,1,0.1v-0.1
			c0-0.6-0.5-0.8-1.2-0.8c-0.6,0-1.3,0.2-1.9,0.5l0.2-1.3c0.6-0.3,1.2-0.4,1.9-0.4C25.5,67.1,26.5,67.7,26.5,69.2z M25.1,70.3
			c-0.3-0.1-0.6-0.1-0.9-0.1c-0.7,0-1.2,0.2-1.2,0.7s0.5,0.7,1.1,0.7c0.3,0,0.7-0.1,1-0.2L25.1,70.3z M31,71.3
			c-0.3,0.1-0.7,0.1-1,0.1c-0.7,0-1-0.3-1-1.3v-2.9h-1.4v3.2c0,1.6,1,2.2,2.4,2.2c0.8,0,1.5-0.1,2.3-0.4v-5H31L31,71.3L31,71.3z
			 M37.2,64.9h1.3v7.5c-0.7,0.2-1.4,0.3-2.1,0.3c-1.5,0.2-2.9-1-3.1-2.5c-0.2-1.5,1-2.9,2.5-3.1c0.2,0,0.3,0,0.5,0
			c0.2,0,0.5,0,0.9,0.1C37.2,67.1,37.2,64.9,37.2,64.9z M37.2,68.5c-0.3-0.1-0.5-0.1-0.8-0.1c-1,0-1.7,0.5-1.7,1.5
			c0,1,0.7,1.5,1.7,1.5c0.3,0,0.6,0,0.8-0.1L37.2,68.5z M40,72.6h1.3v-5.3H40V72.6z M56,71.3c-0.3,0.1-0.7,0.1-1,0.1
			c-0.7,0-1-0.3-1-1.3v-2.9h-1.4v3.2c0,1.6,1,2.2,2.4,2.2c0.8,0,1.5-0.1,2.3-0.4v-5H56V71.3L56,71.3z M60.5,70.4v-1.9h2v-1.2h-2
			v-1.9h-1.3v1.9h-1v1.2h1v2.4c0,1.3,0.6,1.7,2.1,1.7h1.2v-1.2h-1.1C60.7,71.4,60.5,71.2,60.5,70.4z M66,67.1
			c-0.4,0-0.7,0.1-1.1,0.1v-2.3h-1.3v7.7H65v-4.1c0.3-0.1,0.7-0.1,1-0.1c0.8,0,1.2,0.3,1.2,1.3v2.9h1.3v-3.3
			C68.5,67.5,67.4,67.1,66,67.1z M75.1,69.9c0,1.6-1.2,2.9-2.8,2.9c-1.6,0-2.9-1.2-2.9-2.8c0-1.6,1.2-2.9,2.8-2.9c0,0,0,0,0.1,0
			C73.8,67.1,75.1,68.3,75.1,69.9C75.1,69.9,75.1,69.9,75.1,69.9z M73.7,69.9c0-0.8-0.7-1.5-1.5-1.5c-0.8,0-1.5,0.7-1.5,1.5
			s0.7,1.5,1.5,1.5C73.1,71.4,73.7,70.7,73.7,69.9z M80.1,72.6h1.3v-5.3h-1.3V72.6z M84.6,70.4v-1.9h2v-1.2h-2v-1.9h-1.3v1.9h-1v1.2
			h1v2.4c0,1.3,0.6,1.7,2.1,1.7h1.2v-1.2h-1.1C84.9,71.4,84.6,71.2,84.6,70.4z M91,71.2c-0.3,0.1-0.7,0.1-1,0.1c-0.7,0-1-0.3-1-1.3
			v-2.8h-1.4v3.1c0,1.7,1,2.2,2.3,2.2c0.4,0,0.7,0,1.1-0.1v0.1c0,0.6-0.6,0.9-1.4,0.9c-0.6,0-1.3-0.2-1.9-0.4l0.3,1.4
			c0.5,0.1,1,0.2,1.5,0.2c2.1,0,2.8-0.6,2.8-2.5v-4.9H91L91,71.2L91,71.2z M97,66.8v0.5h-1v1.2h1v4.1h1.3v-4.1h2v-1.2h-2V67
			c0-0.6,0.1-0.8,0.8-0.8h1.2v-1.3H99C97.6,64.9,96.9,65.5,97,66.8L97,66.8z M106.4,69.9c0,1.6-1.2,2.9-2.8,2.9
			c-1.6,0-2.9-1.2-2.9-2.8c0-1.6,1.2-2.9,2.8-2.9c0,0,0,0,0.1,0C105,67.1,106.3,68.3,106.4,69.9C106.4,69.9,106.4,69.9,106.4,69.9z
			 M105,69.9c0-0.8-0.7-1.5-1.5-1.5c-0.8,0-1.5,0.7-1.5,1.5c0,0.8,0.7,1.5,1.5,1.5c0,0,0,0,0,0c0.8,0,1.5-0.6,1.5-1.4
			C105,70,105,70,105,69.9z M119.3,67.1c-0.8,0-1.6,0.1-2.4,0.3v5.2h1.3v-4.1c0.3-0.1,0.7-0.1,1-0.1c0.8,0,1.2,0.3,1.2,1.3v3h1.3
			v-3.4C121.7,67.5,120.6,67.1,119.3,67.1L119.3,67.1z M124.8,70.4v-1.9h2v-1.2h-2v-1.9h-1.3v1.9h-1v1.2h1v2.4
			c0,1.3,0.6,1.7,2.1,1.7h1.2v-1.2h-1.1C125,71.4,124.8,71.2,124.8,70.4L124.8,70.4z M132.9,70.3h-4.2c0.2,0.7,0.9,1.2,1.6,1.1h0.1
			c0.6,0,1.1-0.2,1.5-0.5l0.6,1.2c-0.7,0.4-1.5,0.6-2.3,0.6c-1.5,0.1-2.8-1.1-2.9-2.7c0,0,0-0.1,0-0.1c0-1.5,1.2-2.8,2.7-2.8
			c0,0,0.1,0,0.1,0C131.7,67.1,132.9,68.3,132.9,70.3L132.9,70.3z M131.5,69.3c-0.1-0.6-0.7-1.1-1.4-1c-0.6,0-1.2,0.4-1.4,1H131.5z
			 M133.8,72.6h1.3v-7.7h-1.3V72.6z M136.6,72.6h1.3v-7.7h-1.3V72.6z M144.4,70.3h-4.2c0.2,0.7,0.9,1.2,1.6,1.1h0.1
			c0.6,0,1.1-0.2,1.5-0.5l0.6,1.2c-0.7,0.4-1.5,0.6-2.3,0.6c-1.5,0.1-2.8-1.1-2.9-2.7c0,0,0-0.1,0-0.1c0-1.5,1.2-2.8,2.7-2.8
			c0,0,0.1,0,0.1,0C143.3,67.1,144.5,68.3,144.4,70.3L144.4,70.3z M143,69.3c-0.1-0.6-0.7-1.1-1.4-1c-0.6,0-1.2,0.4-1.4,1H143z
			 M147.9,68.4c0.4,0,0.9,0.1,1.2,0.3l0.5-1.2c-0.6-0.3-1.2-0.4-1.8-0.4c-1.5-0.1-2.9,1.1-3,2.6c-0.1,1.5,1.1,2.9,2.6,3
			c0.1,0,0.2,0,0.3,0c0.6,0,1.3-0.1,1.8-0.4l-0.5-1.2c-0.4,0.2-0.8,0.3-1.2,0.3c-0.8,0.1-1.6-0.5-1.7-1.3s0.5-1.6,1.3-1.7
			C147.7,68.4,147.8,68.4,147.9,68.4L147.9,68.4z M152.4,70.4v-1.9h2v-1.2h-2v-1.9H151v1.9h-1v1.2h1v2.4c0,1.3,0.6,1.7,2.1,1.7h1.2
			v-1.2h-1.1C152.6,71.4,152.4,71.2,152.4,70.4L152.4,70.4z M158.7,71.3c-0.3,0.1-0.7,0.1-1,0.1c-0.7,0-1-0.3-1-1.3v-2.9h-1.3v3.2
			c0,1.6,1,2.2,2.4,2.2c0.8,0,1.5-0.1,2.3-0.4v-5h-1.3L158.7,71.3L158.7,71.3z M166,69.2v3.1c-0.7,0.3-1.5,0.4-2.3,0.4
			c-1.3,0-2.5-0.5-2.5-1.8s1-1.8,2.5-1.8c0.4,0,0.7,0,1,0.1v-0.1c0-0.6-0.5-0.8-1.2-0.8c-0.6,0-1.3,0.2-1.9,0.5l0.2-1.3
			c0.6-0.3,1.2-0.4,1.9-0.4C165,67.1,166,67.7,166,69.2z M164.7,70.3c-0.3-0.1-0.6-0.1-0.9-0.1c-0.7,0-1.2,0.2-1.2,0.7
			s0.5,0.7,1.1,0.7c0.3,0,0.7-0.1,1-0.2L164.7,70.3L164.7,70.3z M167.3,72.6h1.3v-7.7h-1.3V72.6z M188.7,69.9c0,1.6-1.2,2.9-2.8,2.9
			c-1.6,0-2.9-1.2-2.9-2.8c0-1.6,1.2-2.9,2.8-2.9c0,0,0,0,0.1,0C187.4,67.1,188.7,68.3,188.7,69.9C188.7,69.9,188.7,69.9,188.7,69.9
			z M187.3,69.9c0-0.8-0.7-1.5-1.5-1.5c-0.8,0-1.5,0.7-1.5,1.5c0,0.8,0.7,1.5,1.5,1.5c0.8,0,1.5-0.6,1.5-1.4
			C187.3,70,187.3,70,187.3,69.9z M194.9,69.9c0,1.5-1.2,2.8-2.7,2.8c-0.1,0-0.2,0-0.3,0c-0.3,0-0.6,0-0.9-0.1v2h-1.3v-7.3
			c0.7-0.2,1.4-0.3,2.1-0.3c1.5-0.2,2.9,1,3.1,2.5C194.9,69.7,194.9,69.8,194.9,69.9z M193.5,69.9c0-1-0.7-1.5-1.7-1.5
			c-0.3,0-0.6,0.1-0.8,0.1v2.8c0.3,0.1,0.6,0.1,0.8,0.1C192.9,71.4,193.5,70.9,193.5,69.9z M201.1,70.4h-4.2
			c0.2,0.7,0.9,1.2,1.6,1.1h0.1c0.6,0,1.1-0.2,1.6-0.5l0.6,1.2c-0.7,0.4-1.5,0.6-2.3,0.6c-1.5,0.1-2.8-1.1-2.9-2.7c0,0,0-0.1,0-0.1
			c0-1.5,1.2-2.8,2.7-2.8c0,0,0.1,0,0.1,0C200,67.1,201.2,68.3,201.1,70.4L201.1,70.4z M199.8,69.3c-0.1-0.6-0.7-1.1-1.4-1
			c-0.6,0-1.2,0.4-1.4,1H199.8z M207.8,70.5v-1.9h2v-1.2h-2v-1.9h-1.3v1.9h-1v1.2h1v2.4c0,1.3,0.6,1.7,2.1,1.7h1.2v-1.2h-1.1
			C208.1,71.4,207.8,71.2,207.8,70.5L207.8,70.5z M214,71.2c-0.3,0.1-0.7,0.1-1,0.1c-0.7,0-1-0.3-1-1.3v-2.8h-1.3v3.1
			c0,1.7,1,2.2,2.3,2.2c0.4,0,0.7,0,1-0.1v0.1c0,0.6-0.6,0.9-1.4,0.9c-0.6,0-1.3-0.2-1.9-0.4l0.3,1.4c0.5,0.1,1,0.2,1.5,0.2
			c2.1,0,2.8-0.6,2.8-2.5v-4.9H214L214,71.2L214,71.2z M107.4,68.7v3.9h1.3v-3.7c0-0.2,0.2-0.4,0.4-0.4l0,0h1.4v-1.3h-1.6
			C108,67.2,107.4,67.9,107.4,68.7z M76.1,68.7v3.9h1.3v-3.7c0-0.2,0.2-0.4,0.4-0.4h0h1.4v-1.3h-1.6C76.7,67.2,76.1,67.9,76.1,68.7z
			 M179.4,68.7v3.9h1.3v-3.7c0-0.2,0.2-0.4,0.4-0.4h1.4v-1.3h-1.6C180,67.2,179.4,67.9,179.4,68.7z M202,68.7v3.9h1.3v-3.7
			c0-0.2,0.2-0.4,0.4-0.4h1.4v-1.3h-1.6C202.7,67.2,202,67.9,202,68.7C202,68.7,202,68.7,202,68.7L202,68.7z M40.6,65
			c-0.4,0-0.7,0.3-0.7,0.7c0,0.4,0.3,0.7,0.7,0.7c0.4,0,0.7-0.3,0.7-0.7c0,0,0,0,0,0C41.4,65.4,41,65,40.6,65z M80.8,65
			c-0.4,0-0.7,0.3-0.7,0.7s0.3,0.7,0.7,0.7c0.4,0,0.7-0.3,0.7-0.7c0,0,0,0,0,0C81.5,65.4,81.2,65,80.8,65z"/>
		<path class="st0" d="M20.9,70.4c0,1.5-1.3,2.3-3,2.3c-1,0-2-0.2-2.8-0.7l0.5-1.2c0.7,0.4,1.5,0.6,2.2,0.6c0.9,0,1.6-0.3,1.6-1
			s-0.6-0.9-1.4-1.1l-0.6-0.2c-1.4-0.3-2.1-1.1-2.1-2.3c0-1.1,1.1-2.1,2.8-2.1c0.9,0,1.9,0.2,2.7,0.7l-0.5,1.2
			c-0.7-0.4-1.4-0.6-2.1-0.6c-0.7,0-1.4,0.3-1.4,0.8c0,0.5,0.4,0.8,1.2,1l0.6,0.2C19.8,68.4,20.9,69.1,20.9,70.4z M49.3,64.9
			l2.8,7.6h-1.4L50,70.8h-3.2l-0.6,1.8h-1.4l2.8-7.7H49.3z M49.6,69.5l-1.1-3.2l-1.1,3.2H49.6z M178.7,67.3c0,1.4-1.1,2.5-2.5,2.5
			c-0.1,0-0.2,0-0.3,0h-1.5v2.9H173v-7.6h2.9C177.8,64.9,178.7,66.1,178.7,67.3L178.7,67.3z M177.3,67.3c0-0.8-0.5-1.1-1.7-1.1h-1.2
			v2.3h1.2C176.6,68.5,177.3,68.2,177.3,67.3L177.3,67.3z M114.1,72.6h1.3v-7.7h-1.3V72.6z"/>
		<path class="st0" d="M273.5,40.3c1.5-8,3-16-3.5-19.2c-11-5.4-39-5.1-42.2,9.4c-0.6,2.8,0.6,7.7,2.5,12.3
			c0.7-4.9,5-12.3,24.2-13.6C266.8,28.5,271.9,33.4,273.5,40.3z"/>
		<path class="st0" d="M285,32.1c-0.2-5.4-5.5-8.7-11.9-10.6c0.7,0.6,1.3,1.3,1.8,2.1c1.5,2.3,1.6,7,0.9,11.9
			c-5,34.3-18,33.6-19.1,33.7c14.2,4.9,19.5-7,20.2-8.3C277.2,60.1,285.4,44.9,285,32.1z"/>
		<path class="st0" d="M258.9,41.5c0.6-0.1,1.2-0.2,1.8-0.2c2.7,0,5.3,1,7.3,2.9c-1.8-3.8-5.6-6.2-9.8-6.2c-0.3,0-0.6,0-0.9,0
			c0.9-1.4,2.3-2.4,3.8-2.9c-2.4-0.3-4.9,0.6-6.5,2.4c0-0.1,0-0.2,0-0.3c0-1.4-0.4-2.7-1.1-3.8c-0.7,1.1-1.1,2.5-1.1,3.8
			c0,0.1,0,0.2,0,0.3c-1.6-1.8-4.1-2.8-6.5-2.4c1.6,0.5,2.9,1.5,3.8,2.9c-0.3,0-0.6,0-0.9,0c-4.2,0-8,2.4-9.8,6.2
			c2-1.8,4.6-2.9,7.3-2.9c0.6,0,1.2,0.1,1.9,0.2c-2.6,1.5-4.5,3.9-5.3,6.8c1.6-2.2,4-3.7,6.7-4.2c0.3-0.1,0.6-0.1,0.9-0.1l3,3.1
			l3-3.1c0.3,0,0.6,0.1,0.9,0.1c2.7,0.5,5.1,2,6.7,4.2C263.4,45.4,261.5,42.9,258.9,41.5z"/>
		<path class="st0" d="M253.6,54.7c0.8,0,1.4-0.6,1.4-1.4s-0.6-1.4-1.4-1.4c-0.8,0-1.4,0.6-1.4,1.4c0,0,0,0,0,0
			C252.2,54,252.8,54.7,253.6,54.7z"/>
		<path class="st0" d="M253.6,57.6c0.6,0,1.1-0.5,1.1-1.1c0-0.6-0.5-1.1-1.1-1.1s-1.1,0.5-1.1,1.1c0,0,0,0,0,0
			C252.4,57.1,252.9,57.6,253.6,57.6z"/>
		<path class="st0" d="M253.6,51.2c1,0,1.8-0.8,1.8-1.7c0-1-0.8-1.8-1.7-1.8c-1,0-1.8,0.8-1.8,1.7c0,0,0,0,0,0
			C251.8,50.4,252.6,51.2,253.6,51.2C253.6,51.2,253.6,51.2,253.6,51.2z"/>
		<path class="st0" d="M264.9,55.7c-6.5,0-12.7,2.5-17.3,7h2.4c0.6,0,1.2-0.2,1.6-0.6c4.7-4.1,10.8-6.3,17-6.1
			C267.4,55.7,266.1,55.6,264.9,55.7z"/>
		<path class="st0" d="M242.2,55.7c6.5,0,12.7,2.5,17.3,7h-2.4c-0.6,0-1.2-0.2-1.6-0.6c-3.7-3.3-8.4-5.4-13.3-6
			c-1.2-0.1-2.4-0.2-3.7-0.1C239.8,55.7,241,55.7,242.2,55.7z"/>
		<path class="st0" d="M226.4,33.7c-2.1,2-6.4,7.2-5.4,13.3c1.3,8,20,35,33.9,35c6.8,0,12-5.1,17.3-13.1
			C260.8,79.2,232,63.9,226.4,33.7z"/>
	</g>
</g>
</svg>
