<?xml version="1.0" encoding="utf-8"?>
<!-- Generator: Adobe Illustrator 24.0.1, SVG Export Plug-In . SVG Version: 6.00 Build 0)  -->
<svg version="1.1" id="Layer_1" xmlns="http://www.w3.org/2000/svg" xmlns:xlink="http://www.w3.org/1999/xlink" x="0px" y="0px"
	 viewBox="0 0 300 100" style="enable-background:new 0 0 300 100;" xml:space="preserve">
<style type="text/css">
	.st0{fill:#3E3E3E;}
</style>
<title>Asset 15</title>
<g id="Layer_2_1_">
	<g id="Layer_1-2">
		<path class="st0" d="M202.9,28.6c-0.2,0.2-0.3,0.4-0.5,0.6c-9.2,9.1-18.4,18.3-27.5,27.5c-0.4,0.4-0.9,0.6-1.5,0.6h-27.3
			c-0.3,0-0.6,0-0.8,0c0.2-0.2,0.4-0.5,0.6-0.7l13-13c0.2-0.2,0.4-0.5,0.6-0.7s0.4-0.3,0.6-0.5L173.5,29l0.5-0.6c-0.4,0-0.6,0-0.9,0
			c-9.1,0-18.1,0-27.2,0c-0.5,0-0.9,0.2-1.2,0.5c-3,3-6,6-9,9c-1.6,1.6-3.2,3.2-4.8,4.8h-0.2c-0.2-0.1-0.3-0.2-0.4-0.4
			c-4.5-4.5-9-9-13.6-13.6c-0.1-0.1-0.3-0.3-0.4-0.4c4.7-4.6,9.3-9.3,13.9-13.9c0.3-0.4,0.8-0.6,1.2-0.6c18.8,0,37.6,0,56.5,0h0.6
			c-0.2,0.2-0.4,0.5-0.6,0.7l-13.1,13.1c-0.2,0.2-0.4,0.4-0.7,0.8H202C202.3,28.4,202.6,28.5,202.9,28.6z"/>
		<path class="st0" d="M130.7,42.6h0.2c0,0,0,0.1,0,0.1c0.2,0.2,0.4,0.5,0.6,0.7l13,13c0.2,0.2,0.4,0.5,0.6,0.7c-0.3,0-0.7,0-1,0
			h-27.7h-0.6H88h-0.6c0.2,0.2,0.3,0.3,0.3,0.4l13.7,13.7c0.2,0.1,0.3,0.3,0.5,0.4c0.3,0,0.7,0,1,0c8.8,0,17.7,0,26.5,0
			c0.8,0,1.6,0.3,2.1,0.9c4.3,4.3,8.5,8.6,12.8,12.8c0.2,0.2,0.5,0.4,0.7,0.6l-0.1,0.3H92.6c-1.6,0-3.1,0-4.7,0
			c-0.4,0-0.7-0.1-1-0.4c-4.6-4.6-9.2-9.2-13.9-13.8c-0.1-0.1-0.1-0.1-0.2-0.2c0,0,0-0.1,0-0.1L86.6,58c0.2-0.2,0.4-0.5,0.6-0.7
			c-0.2-0.3-0.3-0.5-0.5-0.8c-4.3-4.3-8.6-8.6-12.9-12.9c-0.2-0.2-0.4-0.5-0.6-0.7v-0.1h28.1c0.2,0,0.4,0,0.7,0s0.4,0.1,0.7,0.1
			c9.2,0,18.4,0,27.5,0C130.3,42.8,130.5,42.7,130.7,42.6z"/>
		<path class="st0" d="M202.9,28.6c-0.3-0.1-0.6-0.1-0.9-0.2h-27.8c0.3-0.4,0.5-0.6,0.7-0.8l13.1-13.1c0.2-0.2,0.4-0.4,0.6-0.7
			c0.2,0.1,0.5,0.3,0.7,0.4c4.5,4.5,9,9,13.5,13.4C202.8,28,203.4,28.1,202.9,28.6z"/>
		<path class="st0" d="M57,28.3h1.2h0.2l0.1,0.1l0.1-0.1h0.2l0,0c0.1,0.2,0.3,0.5,0.4,0.7c4.4,4.4,8.9,8.9,13.3,13.3
			c0.2,0.2,0.4,0.3,0.7,0.4c0,0,0,0.1,0,0.1v0.1h-29c-0.1-0.4,0.2-0.5,0.4-0.7c4.3-4.3,8.7-8.7,13-13l0.6-0.6L57,28.3z"/>
		<path class="st0" d="M87.3,28.3l14.5-14.4c0.1,0.1,0.2,0.2,0.3,0.3c4.6,4.5,9.1,9,13.6,13.6c0.1,0.2,0.3,0.3,0.4,0.5l-0.1,0.1H115
			H88.3c-0.3,0-0.7,0-1,0V28.3z"/>
		<path class="st0" d="M72.9,71.6c0,0,0,0.1,0,0.1l-0.3,0.1c-0.3,0-0.5,0-0.8,0c-9,0-17.9,0-26.9,0c-0.3,0-0.5,0-0.8,0
			c0,0-0.1,0-0.1-0.1c0,0,0-0.1,0-0.1l8.1-8.1l6.2-6.2h0.2c0.2,0.2,0.4,0.4,0.6,0.6L72.2,71C72.4,71.2,72.7,71.4,72.9,71.6z"/>
		<path class="st0" d="M44,71.6c0,0,0,0.1,0,0.1H15c0.2-0.2,0.3-0.4,0.4-0.5l13.5-13.5c0.2-0.2,0.3-0.3,0.5-0.4h0.1
			c0.2,0.2,0.5,0.4,0.7,0.6L43.3,71C43.5,71.2,43.7,71.4,44,71.6z"/>
		<path class="st0" d="M116.1,28.4l0.1-0.1h0.2c0.1,0.2,0.2,0.3,0.4,0.4c4.5,4.5,9,9.1,13.6,13.6c0.1,0.1,0.3,0.2,0.4,0.4
			c-0.2,0.1-0.5,0.2-0.7,0.2c-9.2,0-18.4,0-27.5,0c-0.2,0-0.4,0-0.7-0.1c0.2-0.2,0.4-0.5,0.6-0.7l11.9-11.9
			C114.9,29.6,115.5,29,116.1,28.4z"/>
		<path class="st0" d="M57,28.3l1.2,0.2l-0.6,0.6c-4.3,4.3-8.7,8.7-13,13c-0.2,0.2-0.5,0.3-0.4,0.7V43l-0.3,0c0-0.1,0-0.1,0-0.2
			c-0.2-0.3-0.4-0.5-0.7-0.7c-4.3-4.3-8.6-8.6-12.9-12.9l-0.7-0.7c0.2,0,0.4-0.1,0.6-0.1L57,28.3L57,28.3z"/>
		<path class="st0" d="M43.8,42.8c0,0.1,0,0.1,0,0.2L30.1,56.6c-0.2,0.2-0.4,0.5-0.6,0.8h-0.1c-0.3-0.3-0.5-0.5-0.7-0.8l-13-13
			c-0.2-0.2-0.4-0.4-0.6-0.5l0.1-0.2H43.8z"/>
		<path class="st0" d="M58.4,28.3h-0.2c-0.2-0.2-0.4-0.5-0.6-0.7l-13-13c-0.2-0.2-0.5-0.4-0.6-0.6l0.1-0.1h28.8L58.7,28.1l-0.1,0.1
			l0,0L58.4,28.3z"/>
		<path class="st0" d="M102,71.6c-0.2-0.1-0.4-0.2-0.5-0.4L87.9,57.6c-0.1-0.1-0.2-0.2-0.3-0.4h0.6h27.7h0.6l-13.7,13.7L102,71.6z"
			/>
		<path class="st0" d="M44.1,71.8c0.3,0,0.6,0,0.8,0c9,0,17.9,0,26.9,0c0.3,0,0.6,0,0.8,0c-0.1,0.2-0.3,0.4-0.4,0.6L58.8,85.8
			c-0.1,0.1-0.3,0.3-0.5,0.4l-0.6-0.6L44.7,72.5C44.4,72.3,44.3,72,44.1,71.8z"/>
		<path class="st0" d="M73.1,42.6c-0.2-0.1-0.5-0.3-0.7-0.4c-4.4-4.4-8.9-8.8-13.3-13.3c-0.2-0.2-0.3-0.4-0.4-0.7h27.5h1
			c0,0,0,0.1,0,0.1c-0.2,0.2-0.4,0.5-0.6,0.7C82.3,33.4,78,37.7,73.7,42C73.5,42.2,73.3,42.4,73.1,42.6z"/>
		<path class="st0" d="M145.1,57.2c-0.2-0.2-0.4-0.5-0.6-0.7l-13-13c-0.2-0.2-0.4-0.5-0.6-0.7l1.1,0h26.6c0.3,0,0.6,0,0.9,0
			c-0.2,0.2-0.4,0.5-0.6,0.7l-13,13c-0.2,0.2-0.4,0.5-0.6,0.7H145.1z"/>
		<path class="st0" d="M269.8,13.9c2,0,4-0.1,5.9,0c2,0.2,3.6,1.8,3.7,3.8c0.1,0.5,0.1,1,0.1,1.5c0,4.7,0,9.4,0,14
			c0,0.8-0.1,1.7-0.4,2.5c-0.5,1.7-2,2.9-3.7,2.9c-1.9,0.1-3.7,0-5.6,0L269.8,13.9z M272.7,35.9h1.6c1.2,0.2,2.2-0.6,2.4-1.7
			c0-0.2,0-0.3,0-0.5c0-0.2,0-0.4,0-0.6c0-4.6,0-9.1,0-13.7c0-0.4-0.1-0.9-0.2-1.3c-0.1-0.7-0.7-1.3-1.5-1.4c-0.8-0.1-1.6,0-2.4,0
			L272.7,35.9z"/>
		<path class="st0" d="M256.3,58.5v11.1h-2.8V45.7c1.9,0,3.8-0.1,5.7,0c2.2,0.1,4,2.1,3.8,4.3c0,1.4,0,2.8,0,4.2
			c0.1,1.2-0.5,2.3-1.6,2.9c1.5,0.7,1.8,2,1.8,3.5c0,3,0,5.9,0,8.9h-2.9v-0.8c0-2.7,0-5.3,0-8c0-1.8-0.4-2.2-2.2-2.3L256.3,58.5z
			 M256.3,56h1.5c0.3,0,0.6,0,0.8,0c1-0.1,1.6-0.5,1.6-1.5c0.1-1.5,0.1-3,0-4.5c0-0.9-0.7-1.6-1.6-1.6c-0.7-0.1-1.5,0-2.3,0
			L256.3,56z"/>
		<path class="st0" d="M240.2,57.6c0-2.6,0-5.1,0-7.7c-0.1-2.1,1.3-4,3.4-4.5c2.4-0.8,5,0.3,6.1,2.6c0.2,0.6,0.4,1.3,0.4,2
			c0,5.1,0,10.1,0,15.2c0.1,2.6-1.9,4.7-4.5,4.8c-0.2,0-0.4,0-0.6,0c-2.2,0.1-4.2-1.4-4.6-3.6c-0.1-0.5-0.1-1-0.1-1.5
			C240.2,62.5,240.2,60.1,240.2,57.6z M243.1,57.6c0,2.5,0,5.1,0,7.6c-0.1,0.7,0.3,1.4,0.9,1.8c1,0.6,2.3,0.4,3-0.6
			c0.2-0.3,0.3-0.7,0.3-1.2c0-0.2,0-0.3,0-0.5V50.5c0-0.3,0-0.7-0.1-1c-0.1-0.6-0.6-1.2-1.2-1.4c-1-0.5-2.3-0.1-2.8,0.9
			c-0.2,0.3-0.3,0.7-0.2,1.1L243.1,57.6z"/>
		<path class="st0" d="M257.2,13.9h2.8v19.8c-0.1,1.1,0.7,2.1,1.8,2.2c0.2,0,0.4,0,0.7,0c1,0,1.7-0.8,1.8-1.8c0-0.3,0-0.5,0-0.8
			c0-6.2,0-12.3,0-18.5v-0.9h2.8c0,0.2,0,0.4,0,0.5c0,6.4,0,12.9,0,19.3c0.2,2-1,3.8-2.8,4.5c-2,0.9-4.3,0.5-5.8-1
			c-0.8-0.8-1.3-1.9-1.3-3.1c0-6.6,0-13.3,0-19.9C257.2,14.1,257.2,14,257.2,13.9z"/>
		<path class="st0" d="M252,34.8c-0.1,0-0.2-0.1-0.4-0.1h-4c-0.2,1.3-0.4,2.5-0.6,3.8h-2.8c1.4-8.2,2.8-16.5,4.2-24.7h2.7
			c1.4,8.2,2.9,16.5,4.3,24.7c-0.2,0-0.4,0-0.6,0h-2.2L252,34.8z M251.7,32.3c-0.6-3.8-1.2-7.5-1.8-11.2h-0.2
			c-0.6,3.7-1.1,7.4-1.7,11.2L251.7,32.3z"/>
		<path class="st0" d="M230.4,60.2v9.3h-2.8V45.7c0.2,0,0.4,0,0.6,0c1.5,0,3,0,4.5,0c2.3-0.1,4.3,1.6,4.4,3.9c0,0,0,0,0,0
			c0.2,2.2,0.2,4.4,0,6.7c-0.2,2.3-2.1,4-4.4,3.9C232,60.2,231.3,60.2,230.4,60.2z M230.4,48.4v9c0.8,0,1.5,0,2.2,0
			c0.8,0,1.5-0.6,1.7-1.4c0.1-0.4,0.2-0.9,0.2-1.3c0-1.2,0-2.3,0-3.5c0-0.4-0.1-0.9-0.2-1.3c-0.1-0.7-0.6-1.2-1.3-1.3
			C232.2,48.4,231.3,48.4,230.4,48.4L230.4,48.4z"/>
		<path class="st0" d="M224.4,50.8h-2.6c-0.1-0.5-0.1-1-0.2-1.4c-0.2-0.8-0.8-1.4-1.6-1.4c-0.8-0.2-1.7,0.2-2.1,1
			c-0.4,0.9-0.5,1.9-0.1,2.8c0.3,0.8,0.7,1.5,1.1,2.1c1.1,1.6,2.3,3.1,3.5,4.7c0.6,0.8,1.1,1.6,1.5,2.5c0.9,1.9,1,4.2,0.2,6.2
			c-0.7,2-2,2.8-4.5,2.8c-0.5,0-1.1-0.1-1.6-0.2c-2-0.5-3.3-2.3-3.3-4.3c0-0.4,0-0.9,0-1.5l2.6,0.7c0,0.2,0,0.4,0,0.6
			c0,1.2,1,2.2,2.2,2.2c0.2,0,0.4,0,0.6-0.1c0.8-0.1,1.4-0.7,1.6-1.5c0.4-1.2,0.2-2.5-0.3-3.6c-0.5-0.9-1-1.7-1.6-2.5
			c-1.1-1.6-2.3-3.1-3.4-4.7c-1.1-1.6-1.5-3.5-1.4-5.4c0.3-4.6,4.7-5.4,7.3-4c1.4,0.8,2.2,2.2,2.2,3.8
			C224.5,50,224.4,50.4,224.4,50.8z"/>
		<path class="st0" d="M275.1,64l2.6,0.7c0,0.2,0,0.3,0,0.5c-0.1,1.2,0.9,2.2,2.1,2.3c0.2,0,0.4,0,0.6-0.1c0.8-0.1,1.5-0.7,1.7-1.6
			c0.3-1.2,0.2-2.5-0.4-3.6c-0.6-1.1-1.3-2.1-2.1-3.1c-1.3-1.5-2.4-3.2-3.4-5c-0.7-1.4-1-3-0.8-4.6c0.2-2.6,2.4-4.5,5-4.3
			c0,0,0,0,0,0c3.1,0.2,4.9,2.5,4.3,5.6h-2.5c0-0.3,0-0.6,0-0.9c0.1-1-0.7-1.9-1.8-2c0,0,0,0,0,0c-1.1-0.2-2.1,0.5-2.3,1.6
			c-0.3,1-0.1,2.1,0.4,3c0.5,0.9,1.2,1.8,1.8,2.6c1.1,1.5,2.2,3,3.2,4.5c1.3,1.9,1.8,4.3,1.2,6.6c-0.2,2.2-2.1,3.8-4.3,3.8
			c-2.2,0.3-4.3-1-5.1-3.1C275.1,65.9,275,65,275.1,64z"/>
		<path class="st0" d="M243.1,19.4h-2.6c0-0.4,0-0.7-0.1-1c0-0.9-0.7-1.7-1.7-1.8c-1-0.2-2,0.3-2.3,1.3c-0.4,1.2-0.3,2.5,0.4,3.5
			c0.6,1,1.3,1.8,1.9,2.7c1.1,1.5,2.3,3,3.3,4.6c1.2,1.9,1.6,4.2,0.9,6.3c-0.7,2.9-2.6,4-5.6,3.5c-2.4-0.3-4.2-2.4-4-4.8v-1.1
			l2.6,0.7c0,0.2,0,0.4,0.1,0.5c-0.1,1.1,0.7,2.1,1.8,2.2c0.1,0,0.1,0,0.2,0c1.1,0.2,2.1-0.5,2.3-1.6c0-0.1,0-0.2,0-0.3
			c0.2-1.5-0.1-3-1-4.2c-1-1.4-2.1-2.8-3.1-4.1c-1.1-1.4-2-3-2.5-4.8c0-0.1-0.1-0.3-0.1-0.4c-0.4-2-0.4-2,1.1-3.4
			c1-0.9,1.9-1.9,2.8-2.8c0.3-0.3,0.6-0.4,1-0.4c2.4-0.1,4.3,1.8,4.4,4.2c0,0.1,0,0.1,0,0.2C243.1,18.6,243.1,18.9,243.1,19.4z"/>
		<path class="st0" d="M212.3,45.7v2.8h-5v7.4h3.5v2.8h-3.5v8.2h5v2.7h-7.9c0-0.2,0-0.5,0-0.7c0-6.5,0-12.9,0-19.4
			c0-0.4,0.1-0.9,0.5-1.2c0.8-0.7,1.5-1.5,2.3-2.2c0.2-0.2,0.4-0.3,0.7-0.4C209.3,45.6,210.8,45.7,212.3,45.7z"/>
		<path class="st0" d="M267.9,48.4h-2.7v-2.7h8.1v2.7h-2.6v21.1h-2.9V48.4z"/>
		<path class="st0" d="M282.2,13.8h2.7v24.7h-2.7V13.8z"/>
		<path class="st0" d="M283.3,80.1h1.3V86c-0.9,0.3-1,0.2-1.5-0.5l-2.3-3.3V86h-1.3c0-2,0-3.9,0-5.8c0.6-0.3,1.3,0,1.6,0.6
			c0,0,0,0,0,0c0.6,1,1.4,2,2.1,2.9L283.3,80.1z"/>
		<path class="st0" d="M269,86.2c-1.8,0-2.9-1.2-2.9-3.1c-0.2-1.5,0.9-2.9,2.4-3.1c0.2,0,0.3,0,0.5,0c1.7,0.1,3,1.6,2.9,3.3
			C271.8,84.8,270.6,86.1,269,86.2z M267.4,83.1c0.1,0.4,0.2,0.7,0.3,1.1c0.3,0.7,1.2,1.1,2,0.7c0.1-0.1,0.2-0.1,0.3-0.2
			c0.8-0.9,0.8-2.3,0-3.2c-0.2-0.2-0.5-0.3-0.8-0.3C268.1,81,267.4,81.8,267.4,83.1L267.4,83.1z"/>
		<path class="st0" d="M224.6,83.8c0.4,0.8,0.8,1.5,1.1,2.2l-0.2,0.1c-1.2,0.1-1.2,0.1-1.7-1c-0.1-0.2-0.2-0.3-0.3-0.5
			c-0.4-0.7-0.4-0.7-1.3-0.5v2h-1.3v-5.9c1-0.1,2.1-0.1,3.1,0c1,0.2,1.7,1.2,1.5,2.2c-0.1,0.3-0.2,0.6-0.4,0.8
			C224.9,83.4,224.8,83.6,224.6,83.8z M222.2,83c0.7,0,1.4,0.3,1.8-0.4c0.2-0.3,0.2-0.7,0-1c-0.4-0.6-1.1-0.3-1.8-0.3L222.2,83z"/>
		<path class="st0" d="M196.4,86.1v-5.9c1-0.1,2.1-0.1,3.1,0c0.9,0.1,1.7,0.8,1.8,1.7c0.2,0.8,0.2,1.5,0,2.3
			c-0.3,1.1-1.2,1.9-2.4,1.9C198.2,86.1,197.3,86.1,196.4,86.1z M197.6,85c0.9,0,1.8,0.2,2.3-0.7c0.5-0.7,0.5-1.7,0-2.4
			c-0.5-0.8-1.3-0.7-2.2-0.6L197.6,85z"/>
		<path class="st0" d="M188.6,81.2H186v1.3h2.4v1.1H186V85h2.6v1.1h-3.9v-6h3.9L188.6,81.2z"/>
		<path class="st0" d="M209.2,86.1v-6h4v1.1h-2.6v1.3h2.5v1h-2.5v1.4h2.6V86L209.2,86.1z"/>
		<path class="st0" d="M238.5,86h-1.4l-0.5-1.4h-2l-0.5,1.4h-1.4c0.7-2,1.4-4,2.1-5.9h1.6C237.1,82.1,237.8,84,238.5,86z
			 M235.7,81.5h-0.2c-0.2,0.7-0.4,1.3-0.6,2.1h1.4C236.1,82.8,235.9,82.2,235.7,81.5z"/>
		<path class="st0" d="M173.1,80.1h3.9v1.1h-2.6v1.5h2.3v1.1h-2.3V86h-1.3L173.1,80.1z"/>
		<path class="st0" d="M249.6,80.1v1l-1.6,0.1V86h-1.4v-4.8l-1.7-0.1v-1.1C246.4,80,248,80,249.6,80.1z"/>
		<path class="st0" d="M258.4,86.1h-1.3v-6h1.3V86.1z"/>
		<path class="st0" d="M87.2,28.4c0,0,0-0.1,0-0.1h0.2l0,0L87.2,28.4z"/>
		<path class="st0" d="M58.5,28.2l0.1-0.1c0,0.1,0,0.1,0,0.2L58.5,28.2z"/>
		<path class="st0" d="M72.8,42.8h0.3c0.2,0.2,0.4,0.5,0.6,0.7c4.3,4.3,8.6,8.6,12.9,12.9c0.2,0.2,0.4,0.5,0.5,0.8H58.5
			c0.2-0.2,0.4-0.5,0.6-0.7l13-13C72.4,43.3,72.6,43.1,72.8,42.8z"/>
		<path class="st0" d="M58.5,57.2v0.2h-0.2c-0.2-0.2-0.4-0.5-0.5-0.7c-2-2.1-4.1-4.1-6.1-6.1L44.1,43v-0.2h28.6
			c-0.2,0.2-0.4,0.5-0.6,0.7l-13,13C58.9,56.7,58.7,57,58.5,57.2z"/>
		<path class="st0" d="M58.4,28.3h0.1l-0.1,0.1L58.4,28.3z"/>
	</g>
</g>
</svg>
