<svg xmlns="http://www.w3.org/2000/svg" viewBox="0 0 270 72.34"><defs><style>.cls-1{fill:#3e3e3e;}</style></defs><title>Asset 15</title><g id="Layer_2" data-name="Layer 2"><g id="Layer_1-2" data-name="Layer 1"><path class="cls-1" d="M187.9,14.75c-.18.18-.34.37-.52.55Q173.61,29,159.86,42.8a1.84,1.84,0,0,1-1.46.6H131.11c-.28,0-.56,0-.83,0,.2-.23.39-.47.6-.68l13-13c.22-.22.41-.45.61-.68s.39-.31.57-.49l13.38-13.36.53-.56c-.37,0-.61-.05-.85-.05q-13.6,0-27.21,0a1.58,1.58,0,0,0-1.23.55q-4.48,4.5-9,9c-1.6,1.6-3.2,3.18-4.81,4.77h-.18c-.15-.12-.31-.23-.45-.36q-6.78-6.78-13.57-13.57a5.46,5.46,0,0,1-.38-.44q7-6.94,13.9-13.89A1.6,1.6,0,0,1,116.44,0q28.23,0,56.46,0l.59,0c-.2.23-.39.47-.61.68L159.8,13.8c-.2.2-.37.42-.69.77H187A5.16,5.16,0,0,1,187.9,14.75Z"/><path class="cls-1" d="M115.71,28.81h.18a.24.24,0,0,1,0,.12,7.8,7.8,0,0,0,.56.7l13,13c.21.21.4.45.6.68-.33,0-.66,0-1,0H101.32l-.58,0H73l-.55,0c.18.2.26.31.35.4L86.45,57.39a4.26,4.26,0,0,0,.53.39c.33,0,.67,0,1,0,8.84,0,17.69,0,26.53,0a2.72,2.72,0,0,1,2.12.87c4.25,4.31,8.54,8.57,12.82,12.84a7.83,7.83,0,0,0,.72.57l-.1.25H77.6c-1.56,0-3.12,0-4.69,0a1.31,1.31,0,0,1-1-.4Q65,65,58,58.1c-.06-.06-.1-.13-.15-.19a.33.33,0,0,0,0-.14L71.54,44.12c.22-.23.41-.49.61-.74a5,5,0,0,0-.54-.79Q65.16,36.13,58.7,29.68c-.21-.22-.4-.46-.6-.68v-.06H86.16c.22,0,.44,0,.66,0s.44.06.66.06q13.77,0,27.54,0A2.87,2.87,0,0,0,115.71,28.81Z"/><path class="cls-1" d="M187.9,14.75a5.16,5.16,0,0,0-.94-.17H159.11c.32-.35.49-.57.69-.77L172.88.72c.22-.21.41-.45.61-.68a3.61,3.61,0,0,1,.66.44q6.73,6.71,13.46,13.45C187.81,14.13,188.35,14.29,187.9,14.75Z"/><path class="cls-1" d="M42,14.46l1.18,0h.16l.08.09.06-.11h.19v0a4.25,4.25,0,0,0,.43.67q6.63,6.65,13.29,13.27a3.49,3.49,0,0,0,.67.43.2.2,0,0,1,0,.13V29h-29c-.13-.39.24-.48.42-.66q6.49-6.51,13-13l.63-.65Z"/><path class="cls-1" d="M72.33,14.49,86.81.06a3.07,3.07,0,0,1,.34.29Q94,7.13,100.75,13.93a4.15,4.15,0,0,1,.39.52l-.08.14-1.09,0H73.33c-.34,0-.67,0-1,0Z"/><path class="cls-1" d="M57.89,57.77a.33.33,0,0,1,0,.14l-.25.06c-.28,0-.55,0-.83,0q-13.45,0-26.9,0c-.27,0-.55,0-.83,0a.25.25,0,0,1-.12-.07.41.41,0,0,0,0-.11l8.09-8.08,6.22-6.18h.23a8.09,8.09,0,0,1,.61.56l13.1,13.08C57.43,57.38,57.67,57.57,57.89,57.77Z"/><path class="cls-1" d="M29,57.78a.41.41,0,0,1,0,.11H0c.17-.21.28-.37.4-.5L13.89,43.93c.16-.16.34-.29.51-.43l.12,0c.23.2.47.38.69.59L28.28,57.17C28.5,57.39,28.73,57.58,29,57.78Z"/><path class="cls-1" d="M101.06,14.59l.08-.14h.17a5.46,5.46,0,0,0,.38.44q6.78,6.8,13.57,13.57c.14.13.3.24.45.36A2.87,2.87,0,0,1,115,29q-13.77,0-27.54,0c-.22,0-.44,0-.66-.06.21-.22.4-.46.62-.67L99.3,16.38C99.89,15.79,100.47,15.19,101.06,14.59Z"/><path class="cls-1" d="M42,14.46l1.15.21-.63.65q-6.51,6.49-13,13c-.18.18-.55.27-.42.66l0,.19-.33-.05a.86.86,0,0,1,0-.16c-.22-.25-.43-.51-.67-.74q-6.46-6.48-12.94-12.94l-.72-.73a4,4,0,0,1,.56-.1H42Z"/><path class="cls-1" d="M28.78,29a.86.86,0,0,0,0,.16L15.13,42.76a7.64,7.64,0,0,0-.61.77l-.12,0c-.25-.27-.48-.55-.73-.81l-13-13c-.19-.19-.41-.37-.61-.55L.11,29Z"/><path class="cls-1" d="M43.36,14.43H43.2c-.2-.22-.39-.46-.6-.68L29.63.79C29.42.58,29.18.4,29,.2l.1-.14H57.87L43.66,14.26l-.14.15h0Z"/><path class="cls-1" d="M87,57.78a4.26,4.26,0,0,1-.53-.39L72.84,43.8c-.09-.09-.17-.2-.35-.4l.55,0h27.7l.58,0L87.67,57.05Z"/><path class="cls-1" d="M29.08,58c.28,0,.56,0,.83,0q13.46,0,26.9,0c.28,0,.55,0,.83,0a5.39,5.39,0,0,1-.45.59L43.81,71.92c-.13.14-.28.26-.45.41l-.64-.59L29.64,58.67C29.43,58.45,29.27,58.2,29.08,58Z"/><path class="cls-1" d="M58.08,28.81a3.49,3.49,0,0,1-.67-.43q-6.66-6.63-13.29-13.27a4.25,4.25,0,0,1-.43-.67H71.15l1,0a.5.5,0,0,0,0,.12c-.2.23-.39.47-.61.68Q65.14,21.72,58.7,28.14C58.48,28.36,58.28,28.59,58.08,28.81Z"/><path class="cls-1" d="M130.1,43.36c-.2-.23-.39-.47-.6-.68l-13-13a7.8,7.8,0,0,1-.56-.7L117,29h26.61c.31,0,.62,0,.92,0-.2.23-.39.46-.61.68l-13,13c-.21.21-.4.45-.6.68Z"/><path class="cls-1" d="M254.78.06c2,0,4-.11,5.89,0a4.1,4.1,0,0,1,3.73,3.79,10.81,10.81,0,0,1,.11,1.5c0,4.68,0,9.36,0,14a8.46,8.46,0,0,1-.37,2.45,3.9,3.9,0,0,1-3.71,2.88c-1.86.12-3.73,0-5.64,0Zm2.88,22h1.6a2.11,2.11,0,0,0,2.44-2.23,5.61,5.61,0,0,0,0-.58q0-6.85,0-13.7a5.36,5.36,0,0,0-.16-1.32,1.65,1.65,0,0,0-1.48-1.38c-.79-.07-1.58,0-2.41,0Z"/><path class="cls-1" d="M241.24,44.64V55.71h-2.77V31.87c1.93,0,3.83-.13,5.71,0A4.08,4.08,0,0,1,248,36.18c0,1.39,0,2.79,0,4.18a3.12,3.12,0,0,1-1.55,2.94c1.46.74,1.76,2.05,1.77,3.46,0,3,0,5.91,0,8.92h-2.87v-.76c0-2.68,0-5.35,0-8,0-1.8-.42-2.23-2.2-2.25Zm0-2.44h1.48c.28,0,.56,0,.83,0,1-.1,1.57-.51,1.62-1.47a37.52,37.52,0,0,0,0-4.5,1.64,1.64,0,0,0-1.62-1.63c-.74-.07-1.49,0-2.28,0Z"/><path class="cls-1" d="M225.2,43.78c0-2.57,0-5.13,0-7.69a4.43,4.43,0,0,1,3.4-4.49,5,5,0,0,1,6.09,2.64,5.4,5.4,0,0,1,.37,1.95c0,5.06,0,10.13,0,15.2A4.65,4.65,0,0,1,230,56.2a4.52,4.52,0,0,1-4.63-3.58,6.72,6.72,0,0,1-.12-1.49Q225.2,47.46,225.2,43.78Zm2.85,0c0,2.54,0,5.07,0,7.61a1.82,1.82,0,0,0,.91,1.75,2.14,2.14,0,0,0,3.3-1.8c0-.17,0-.34,0-.5V36.71a5.6,5.6,0,0,0-.06-1A1.78,1.78,0,0,0,231,34.32a2.06,2.06,0,0,0-3,2Z"/><path class="cls-1" d="M242.23.05H245V19.87A2,2,0,0,0,247.47,22a1.81,1.81,0,0,0,1.76-1.78c0-.25,0-.5,0-.75q0-9.24,0-18.47V.05H252c0,.19,0,.35,0,.51q0,9.66,0,19.31a4.5,4.5,0,0,1-2.8,4.52,5.35,5.35,0,0,1-5.82-1,4.32,4.32,0,0,1-1.26-3.09c0-6.64,0-13.27,0-19.9A2,2,0,0,1,242.23.05Z"/><path class="cls-1" d="M237,21a2,2,0,0,0-.37-.06h-4c-.2,1.26-.41,2.51-.62,3.81h-2.76q2.08-12.37,4.17-24.7h2.7q2.14,12.32,4.3,24.72c-.24,0-.4,0-.56,0h-2.2Zm-.36-2.49c-.61-3.79-1.19-7.49-1.78-11.19h-.18c-.57,3.7-1.14,7.41-1.71,11.18Z"/><path class="cls-1" d="M215.38,46.35v9.34h-2.8V31.86c.22,0,.44,0,.65,0,1.51,0,3,0,4.52,0a4.17,4.17,0,0,1,4.41,3.93,42.31,42.31,0,0,1,0,6.66,4.21,4.21,0,0,1-4.42,3.93C217,46.37,216.24,46.35,215.38,46.35Zm.05-11.82v9c.77,0,1.49,0,2.21,0a1.74,1.74,0,0,0,1.69-1.37,5.37,5.37,0,0,0,.17-1.32q0-1.76,0-3.51a5.36,5.36,0,0,0-.16-1.32,1.6,1.6,0,0,0-1.27-1.31A25.43,25.43,0,0,0,215.43,34.53Z"/><path class="cls-1" d="M209.42,36.94h-2.57c-.07-.5-.09-1-.2-1.42A1.78,1.78,0,0,0,205,34.1a1.92,1.92,0,0,0-2.1,1,3.33,3.33,0,0,0-.13,2.76A9.6,9.6,0,0,0,203.9,40c1.12,1.59,2.34,3.12,3.47,4.71a17.57,17.57,0,0,1,1.51,2.49,7.79,7.79,0,0,1,.21,6.17c-.71,2-2,2.82-4.52,2.84A5.6,5.6,0,0,1,203,56a4.45,4.45,0,0,1-3.33-4.3c0-.44,0-.89,0-1.46l2.61.66c0,.24,0,.4,0,.57a2.2,2.2,0,0,0,2.77,2.12,1.91,1.91,0,0,0,1.56-1.45,4.8,4.8,0,0,0-.33-3.57,21.33,21.33,0,0,0-1.56-2.47c-1.12-1.59-2.34-3.11-3.41-4.73A8.43,8.43,0,0,1,199.93,36c.29-4.57,4.73-5.4,7.31-4a4.25,4.25,0,0,1,2.18,3.79C209.44,36.14,209.42,36.53,209.42,36.94Z"/><path class="cls-1" d="M260.13,50.19l2.59.68c0,.2,0,.33,0,.47a2.17,2.17,0,0,0,2.68,2.21A2,2,0,0,0,267.1,52a4.75,4.75,0,0,0-.44-3.64,27.68,27.68,0,0,0-2.1-3.1,29.9,29.9,0,0,1-3.36-5,8.46,8.46,0,0,1-.82-4.62,4.63,4.63,0,0,1,5-4.28c3.07.16,4.86,2.46,4.28,5.56h-2.54c0-.29,0-.58,0-.87a1.88,1.88,0,0,0-1.76-2,2,2,0,0,0-2.31,1.58,3.87,3.87,0,0,0,.44,3.05c.54.91,1.17,1.76,1.79,2.62,1.07,1.49,2.18,3,3.23,4.46a8.14,8.14,0,0,1,1.23,6.62,4.2,4.2,0,0,1-4.32,3.76A4.83,4.83,0,0,1,260.34,53,7.11,7.11,0,0,1,260.13,50.19Z"/><path class="cls-1" d="M228.08,5.53h-2.62c0-.36,0-.69-.06-1a1.88,1.88,0,0,0-1.66-1.81A2,2,0,0,0,221.45,4a3.85,3.85,0,0,0,.4,3.52c.58.95,1.26,1.83,1.91,2.74,1.1,1.54,2.25,3,3.29,4.63a7.82,7.82,0,0,1,.95,6.34c-.68,2.89-2.65,3.95-5.61,3.53a4.49,4.49,0,0,1-4-4.82V18.8l2.61.66c0,.2,0,.36.05.53a2,2,0,0,0,2,2.17,2,2,0,0,0,2.36-1.93,5.64,5.64,0,0,0-1-4.2c-1-1.41-2.07-2.76-3.1-4.15a13.26,13.26,0,0,1-2.49-4.78c0-.13-.07-.26-.1-.4-.36-2-.36-2,1.08-3.44,1-.94,1.91-1.88,2.84-2.84a1.28,1.28,0,0,1,1-.42,4.29,4.29,0,0,1,4.42,4.37C228.09,4.73,228.08,5.09,228.08,5.53Z"/><path class="cls-1" d="M197.32,31.82v2.76h-5V42h3.51v2.77h-3.51V53h5v2.74h-7.86c0-.22,0-.46,0-.71,0-6.46,0-12.92,0-19.39a1.45,1.45,0,0,1,.48-1.17c.77-.72,1.49-1.5,2.26-2.23a1.17,1.17,0,0,1,.7-.35C194.29,31.81,195.77,31.82,197.32,31.82Z"/><path class="cls-1" d="M252.9,34.57h-2.66V31.88h8.12v2.71h-2.59v21.1H252.9Z"/><path class="cls-1" d="M267.18,0h2.74v24.7h-2.74Z"/><path class="cls-1" d="M268.29,66.28h1.25v5.85c-.93.25-1,.23-1.51-.49l-2.26-3.25v3.82h-1.29c0-2,0-3.92,0-5.85a1.23,1.23,0,0,1,1.66.59,22.45,22.45,0,0,0,2.14,2.89Z"/><path class="cls-1" d="M254,72.33c-1.83,0-2.91-1.15-2.91-3.1A2.77,2.77,0,0,1,254,66.14a3.1,3.1,0,0,1,0,6.19Zm-1.64-3.1a6.94,6.94,0,0,0,.28,1.11,1.49,1.49,0,0,0,2.3.54,2.44,2.44,0,0,0,0-3.24,1.55,1.55,0,0,0-.82-.35C253.06,67.16,252.38,67.94,252.31,69.23Z"/><path class="cls-1" d="M209.54,70c.39.76.75,1.47,1.12,2.17l-.22.11c-1.17.08-1.17.07-1.71-1-.08-.17-.17-.35-.26-.52-.35-.69-.35-.69-1.3-.54v2h-1.26V66.3a23.61,23.61,0,0,1,3.15,0,1.89,1.89,0,0,1,1.06,3.07A7.94,7.94,0,0,1,209.54,70Zm-2.33-.88c.71,0,1.44.25,1.83-.45a1.07,1.07,0,0,0,0-1c-.45-.59-1.14-.35-1.78-.33Z"/><path class="cls-1" d="M181.37,72.25V66.32a27.5,27.5,0,0,1,3.15,0,2.21,2.21,0,0,1,1.84,1.74,4.09,4.09,0,0,1,0,2.3A2.47,2.47,0,0,1,184,72.23C183.17,72.31,182.3,72.25,181.37,72.25Zm1.26-1.13c.88,0,1.75.2,2.26-.69a2.26,2.26,0,0,0,0-2.45c-.51-.79-1.34-.73-2.21-.61Z"/><path class="cls-1" d="M173.55,67.34H171v1.31h2.42v1.07H171v1.4h2.56v1.1h-3.93v-6h3.93Z"/><path class="cls-1" d="M194.16,72.22v-6h4v1.06h-2.65v1.35H198v1h-2.47v1.4h2.64v1.1Z"/><path class="cls-1" d="M223.47,72.2h-1.35l-.48-1.36h-2l-.48,1.37h-1.35c.69-2,1.37-4,2.05-5.92h1.55C222.09,68.22,222.76,70.17,223.47,72.2Zm-2.75-4.51-.16,0c-.2.67-.39,1.34-.61,2.07h1.37C221.1,69,220.91,68.37,220.72,67.69Z"/><path class="cls-1" d="M158.11,66.25H162v1.08h-2.55v1.48h2.28V69.9h-2.33v2.31h-1.28Z"/><path class="cls-1" d="M234.56,66.25v1l-1.64.11V72.2h-1.4V67.41l-1.68-.1V66.23C231.41,66.2,233,66.19,234.56,66.25Z"/><path class="cls-1" d="M243.39,72.22h-1.26v-6h1.26Z"/><path class="cls-1" d="M72.17,14.6a.5.5,0,0,1,0-.12h.18v0Z"/><path class="cls-1" d="M43.52,14.41l.14-.15a.41.41,0,0,0,0,.16Z"/><path class="cls-1" d="M57.75,29h.35c.2.22.39.46.6.68q6.45,6.45,12.91,12.91a5,5,0,0,1,.54.79H43.53c.2-.23.37-.48.59-.69l13-13C57.35,29.46,57.54,29.22,57.75,29Z"/><path class="cls-1" d="M43.53,43.38l0,.15h-.23a6.4,6.4,0,0,0-.55-.71q-3.06-3.08-6.14-6.14l-7.48-7.5,0-.19H57.75c-.21.23-.4.47-.61.68l-13,13C43.9,42.9,43.73,43.15,43.53,43.38Z"/><path class="cls-1" d="M43.36,14.43l.14,0-.06.11Z"/></g></g></svg>