<?xml version="1.0" encoding="utf-8"?>
<!-- Generator: Adobe Illustrator 24.0.1, SVG Export Plug-In . SVG Version: 6.00 Build 0)  -->
<svg version="1.1" id="Layer_1" xmlns="http://www.w3.org/2000/svg" xmlns:xlink="http://www.w3.org/1999/xlink" x="0px" y="0px"
	 viewBox="0 0 300 100" style="enable-background:new 0 0 300 100;" xml:space="preserve">
<style type="text/css">
	.st0{fill:#3E3E3E;}
</style>
<title>Shaqra- Web- Dark</title>
<g id="Layer_2_1_">
	<g id="Layer_1-2">
		<path class="st0" d="M122.7,27.5c-1.4-1-2.8-2-4.1-3c-2.1-1.7-3.8-3.9-5-6.4c-0.6-1.5-1-3-1-4.6c0-0.2,0-0.3,0.1-0.5
			c1.7-2.6,3.2-5.2,4.9-7.9c0.1-0.1,0.2-0.1,0.2-0.2c-0.6,3.7,0.9,6.8,3.1,9.6c1.9,2.5,4.3,4.7,6.9,6.5c3,2,6.1,3.9,9.3,5.6
			c3.8,2.1,7.2,4.6,10.3,7.7c1.7,1.7,3.1,3.7,4.1,5.9c0.1,0.1,0.1,0.2,0.1,0.2l0.1,0.1c0.3-1,0.6-2,1-3c1.3-3.1,3.4-5.8,6.1-7.9
			c2.9-2.2,6-4,9.4-5.3c2.9-1.2,5.9-2.2,8.8-3.4c2.2-0.7,4.3-1.8,6.2-3.1c1.1-0.7,1.9-1.8,2.1-3.1c0.8,0.5,1.5,1,2.3,1.4
			c3.9,2.3,7.8,4.5,11.8,6.6c0.3,0.1,0.4,0.4,0.3,0.7c0,0,0,0.1,0,0.1c-0.8,2.5-2.3,4.6-4.3,6.2c-0.1,0.3-0.3,0.3-0.5,0.4
			c-2,1.4-4.3,2.4-6.6,3.1c-4.3,1.2-8.7,2.2-13.2,2.9c-3.6,0.6-7.1,1.5-10.5,2.6c-2.7,0.9-5.2,2.2-7.4,4c-1.5,1.3-2.6,2.8-3.5,4.5
			c-0.6,1.2-1.1,2.5-1.3,3.8c0,0.1-0.1,0.3-0.1,0.4c-0.1,0.2-0.2,0.2-0.3,0c-0.1-0.1-0.1-0.2-0.1-0.3c-0.2-2.5-1.2-4.9-2.8-6.9
			c-1.6-1.9-3.4-3.7-5.5-5.1c-2.7-1.9-5.5-3.5-8.3-5.1c-3.6-1.9-7.2-3.7-10.7-5.8C123.9,28.4,123.3,28,122.7,27.5L122.7,27.5z"/>
		<path class="st0" d="M122.7,27.5c0.8,0.5,1.7,1,2.6,1.5c2.7,1.6,5.4,3,8.1,4.5c3.5,1.8,6.9,3.8,10.1,6c2.4,1.6,4.5,3.7,6.2,6.2
			c1.2,1.8,1.9,3.8,2.1,5.9c0,0.2,0,0.3,0.1,0.4c0.1-0.5,0.2-1,0.4-1.5c0.1-0.5,0.3-1,0.5-1.4c1-2.6,2.7-4.9,4.9-6.6
			c2.6-2,5.6-3.4,8.8-4.2c3.6-1,7.2-1.8,10.9-2.4c3.2-0.6,6.5-1.2,9.7-2.1c2.9-0.7,5.6-2,8-3.7c0.1,0,0.1-0.1,0.1-0.1
			c0.7,0.5,1.4,1,2.2,1.4c2.4,1.5,4.8,3,7.3,4.6c-0.1,0.2-0.3,0.3-0.5,0.3c-2,0.6-4,1.2-6.1,1.7c-4.2,1-8.5,1.6-12.8,2.2
			c-3.1,0.5-6.3,0.9-9.4,1.5c-3.3,0.6-6.5,1.5-9.7,2.6c-2.5,0.8-4.7,2.3-6.5,4.3c-1.2,1.2-1.9,2.8-2.1,4.5c-0.1,0.3,0,0.5-0.2,0.8
			c-2-1-4.2-1.5-6.4-1.5c-0.7,0-1.5,0.1-2.2,0.2c0-0.3-0.1-0.6-0.3-0.8c-1.1-2.1-2.4-4-4-5.7c-3.1-3.2-6.9-5.7-11.2-7
			c-3.7-1.2-7.4-2-11.2-2.6c-2.7-0.4-5.4-0.7-8.1-1c-2.7-0.3-5.1-0.7-7.6-1c-1.2-0.2-2.4-0.4-3.7-0.7c-0.1,0-0.2-0.1-0.2-0.2
			c0.7-0.5,1.3-0.9,1.9-1.5c2.8-2.3,5.6-4.5,8.4-6.8c0.1-0.2,0.4-0.2,0.6-0.1c1.9,0.8,3.8,1.3,5.8,1.7
			C120.5,27.2,121.6,27.4,122.7,27.5L122.7,27.5z"/>
		<path class="st0" d="M102.5,33.5c1.2,0.2,2.3,0.4,3.4,0.6c1.2,0.2,2.4,0.4,3.6,0.5c2.2,0.3,4.5,0.5,6.7,0.8c2.2,0.3,4.7,0.5,7,0.9
			c4.5,0.6,8.9,1.8,13.1,3.6c5,2.2,9.1,5.9,11.8,10.7c0.3,0.5,0.6,1,0.8,1.5c0.1,0.2,0.1,0.3-0.1,0.4c-0.7,0.2-1.5,0.4-2.3,0.6
			c-1.5,0.6-2.8,1.4-4,2.4l-0.3-0.9c-0.3-1.4-1.3-2.6-2.6-3.2c-1.4-0.7-2.9-1.2-4.4-1.4c-1.3-0.3-2.6-0.4-3.9-0.6
			c-1.7-0.2-3.4-0.3-5-0.4c-1.2-0.1-2.5-0.2-3.7-0.3c-1.6-0.1-3.1-0.2-4.7-0.4s-3.3-0.3-5-0.5c-1.9-0.3-3.8-0.5-5.7-0.9
			c-2.5-0.4-5-1-7.5-1.6c-2.8-0.8-5.5-1.7-8.1-2.7c-0.4-0.2-0.4-0.2-0.1-0.5c3.6-2.8,7.2-5.7,10.8-8.5
			C102.4,33.6,102.5,33.6,102.5,33.5z"/>
		<path class="st0" d="M205.9,38.2c1,2.1,1.9,4.2,2.9,6.3c0.1,0.3-0.1,0.4-0.2,0.4c-1.7,0.6-3.5,1-5.3,1.3c-2.1,0.3-4.3,0.5-6.4,0.6
			c-4.3,0.2-8.8,0.2-13.1,0.1c-2.2-0.1-4.3,0-6.5,0.1c-3,0-6,0.3-8.9,1c-1.7,0.3-3.3,1.1-4.7,2.1c-1.7,1.3-2.7,3.3-2.6,5.4
			c0,0.2,0,0.4-0.1,0.5c-0.1,0.1-0.3-0.1-0.4-0.3c-0.6-0.6-1.3-1.1-2.1-1.5c-0.1-0.2-0.1-0.5,0-0.7c0.3-1.8,1.3-3.4,2.8-4.5
			c1.9-1.5,4.1-2.6,6.5-3.2c4-1.2,8.1-2,12.3-2.5c4.5-0.7,9-1.2,13.4-2c3.7-0.5,7.3-1.4,10.9-2.6C204.7,38.6,205.3,38.4,205.9,38.2
			L205.9,38.2z"/>
		<path class="st0" d="M205.9,38.2c0,0.2-0.1,0.2-0.3,0.3c-3.2,1.2-6.5,2-9.9,2.6c-2.3,0.4-4.6,0.8-6.9,1.2
			c-1.8,0.3-3.7,0.5-5.6,0.8c-2.5,0.4-5.1,0.7-7.6,1.2c-2.6,0.4-5.1,1-7.7,1.7c-2,0.6-3.8,1.4-5.6,2.4c-1.7,1-3.1,2.6-3.7,4.5
			c-0.2,0.5-0.1,1-0.3,1.5c-0.2-0.1-0.6-0.3-0.8-0.4c0.2-3.5,2.2-5.8,5-7.7c2.2-1.4,4.7-2.4,7.2-3c2.8-0.8,5.6-1.5,8.5-1.9
			c2.4-0.4,4.8-0.8,7.3-1.1c2.4-0.3,4.7-0.7,7-1c4.1-0.6,8.1-1.6,12.1-2.9c0.1-0.1,0.2-0.1,0.4-0.1
			C205.2,36.8,205.5,37.6,205.9,38.2L205.9,38.2z"/>
		<path class="st0" d="M174.1,17.5c-3.3,0-6-2.6-6-5.9c0,0,0,0,0,0c0-3.3,2.7-6,6-6c3.3,0,6,2.7,6,6c0.1,3.3-2.6,5.9-5.8,6
			C174.2,17.6,174.1,17.6,174.1,17.5L174.1,17.5z"/>
		<path class="st0" d="M196.4,74.5c-2.9-0.8-5.5-2.6-7.2-5.1c-0.2-0.2-0.3-0.4-0.1-0.7c0.5-0.7,1-1.3,1.5-2.1c0.2-0.3,0.2-0.3,0.4,0
			c1.6,2.3,3.6,4.3,6,5.8c1.5,0.9,3.2,1.6,4.9,1.9c0.3,0,0.6,0.1,0.9,0.1c0.3,0,0.4,0.1,0.4,0.4v1c0,0.3-0.1,0.4-0.4,0.4h-18.1
			c-0.9,0-1-0.1-1-1v-9.6c0-0.3,0.1-0.6,0.4-0.6c0.8-0.3,1.5-0.7,2.3-1c0.3-0.1,0.4-0.1,0.4,0.3V74c0,0.4,0.1,0.5,0.6,0.5
			C190.3,74.5,193.3,74.5,196.4,74.5L196.4,74.5z"/>
		<path class="st0" d="M181.8,54.4c0,2.7-2.3,4.9-5,4.9c0,0,0,0,0,0c-2.7,0-4.9-2.2-4.9-4.9c0,0,0,0,0-0.1c0-2.7,2.3-4.9,5-4.9
			c0.1,0,0.1,0,0.2,0C179.8,49.6,181.8,51.8,181.8,54.4z"/>
		<path class="st0" d="M166.9,17.7c0,2.7-2.3,4.9-5,4.9c-2.7,0-4.9-2.3-4.9-5c0-2.7,2.3-4.9,5-4.9C164.7,12.7,166.9,14.9,166.9,17.7
			C166.9,17.7,166.9,17.7,166.9,17.7z"/>
		<path class="st0" d="M153.6,21c2.1,0,3.8,1.7,3.8,3.8s-1.7,3.8-3.8,3.8c-2.1,0-3.9-1.8-3.9-3.9c0,0,0,0,0,0c0-2.1,1.6-3.8,3.7-3.8
			C153.5,21,153.6,21,153.6,21z"/>
		<path class="st0" d="M109,62.5v6.9c0,2.3-0.1,4.5,0.1,6.8h-2.6c-0.3,0-0.4-0.2-0.5-0.6V64.3c0-0.3,0.2-0.6,0.5-0.7
			C107.2,63.3,108,62.9,109,62.5z"/>
		<path class="st0" d="M149.7,86.7v-2.4c0-0.2,0.1-0.4,0.3-0.3h1.3c0.3,0,0.3,0.1,0.3,0.3c-0.1,1.7,0.1,3.4-0.1,5
			c-0.2,2.4-1.8,3.3-3.9,3.1c-1.9-0.2-2.7-1.5-2.8-3.2c-0.1-1.6,0-3.2-0.1-4.8c0-0.4,0.1-0.4,0.4-0.4c0.5,0.1,1.1-0.2,1.4,0.1
			c0.2,0.3,0.1,0.8,0.1,1.3c0.1,1.3-0.1,2.7,0.1,4c0,0.8,0.6,1.5,1.4,1.5c0.1,0,0.2,0,0.3,0c0.6,0,1-0.4,1.2-1
			c0.2-0.6,0.2-1.1,0.2-1.7C149.7,87.7,149.7,87.2,149.7,86.7L149.7,86.7z"/>
		<path class="st0" d="M108.8,87c0.5-0.6,1.3-0.9,2.1-0.8c0.9,0.1,1.6,0.9,1.7,1.8c0.1,0.8,0.1,1.6,0.1,2.4V92
			c0,0.2-0.1,0.3-0.3,0.3H111c-0.2,0-0.3-0.1-0.3-0.4v-3.1c0-0.6-0.4-1-0.9-1.1c0,0-0.1,0-0.1,0c-0.5,0-0.9,0.4-0.9,0.9
			c0,0,0,0.1,0,0.1v3.2c0,0.3-0.1,0.4-0.4,0.4h-1.3c-0.2,0-0.3-0.1-0.3-0.3v-8.2c0-0.2,0.1-0.3,0.4-0.3h1.2c0.3,0,0.4,0.1,0.4,0.4
			V87L108.8,87z"/>
		<path class="st0" d="M103.2,85.4c-0.3,0-0.6,0-0.9,0.1c-0.4,0.1-0.5,0.5-0.4,0.8c0.1,0.2,0.2,0.3,0.3,0.4c0.3,0.3,0.7,0.5,1.2,0.6
			c0.4,0.1,0.8,0.3,1.1,0.6c0.8,0.5,1.3,1.4,1.1,2.4c-0.1,0.9-0.7,1.6-1.5,1.9c-1.2,0.4-2.5,0.4-3.7,0c-0.3-0.1-0.5-0.2-0.3-0.6
			s0.2-0.7,0.3-1.1c0.3,0.1,0.7,0.2,1,0.3c0.5,0.2,1.1,0.2,1.6,0.1c0.4-0.1,0.7-0.3,0.7-0.7c0.1-0.4-0.1-0.7-0.5-0.9
			c-0.5-0.3-1-0.5-1.6-0.7c-0.7-0.3-1.3-0.9-1.5-1.6c-0.3-1.2,0.3-2.5,1.5-2.9c1.1-0.4,2.2-0.4,3.3,0c0.2,0,0.3,0.2,0.3,0.3
			c0,0.1,0,0.1,0,0.1c-0.1,0.3-0.2,0.6-0.3,0.9c-0.1,0.2-0.1,0.3-0.3,0.1C104.1,85.5,103.7,85.4,103.2,85.4L103.2,85.4z"/>
		<path class="st0" d="M195.8,86.3h1.9c0.2,0,0.2,0.2,0.3,0.4c0.4,1.2,0.7,2.4,1.1,3.6c0.1-0.1,0.1-0.3,0.2-0.5c0.2-1,0.5-2,0.7-3
			c0.1-0.3,0.2-0.4,0.6-0.4h1.3c0.3,0,0.3,0.1,0.3,0.3c-0.7,2.1-1.5,4.2-2.4,6.2c-0.5,1-1.4,1.8-2.5,2.2c-0.4,0.1-0.5,0-0.6-0.3
			v-0.1c-0.1-0.3-0.2-0.6-0.2-0.9c0.1-0.3,0.6-0.3,0.8-0.5c0.2-0.1,0.4-0.3,0.6-0.6c0.2-0.3,0.3-0.6,0.1-0.9c-0.7-1.6-1.3-3.2-2-4.8
			C196,86.7,195.9,86.6,195.8,86.3L195.8,86.3z"/>
		<path class="st0" d="M138.1,63.3c0-1.5,1.1-2.7,2.6-2.8c1.5-0.1,2.9,1,3,2.5c0.1,1.5-1,2.9-2.5,3c-0.1,0-0.2,0-0.2,0
			c-1.5,0.1-2.7-1-2.8-2.5C138.1,63.5,138.1,63.4,138.1,63.3z"/>
		<path class="st0" d="M155,87.1c0.5-0.7,1.4-1,2.2-0.9c1,0.1,1.8,1,1.8,2.1c0.1,1.3,0,2.5,0,3.8c0,0.2-0.1,0.2-0.2,0.2h-1.2
			c-0.3,0-0.4-0.1-0.4-0.4c0-1.1,0-2.2-0.1-3.2c-0.1-0.7-0.4-1-1-1c-0.5,0.1-0.9,0.6-0.9,1.1c0,0,0,0,0,0v3.1c0,0.3-0.1,0.4-0.4,0.4
			h-1.3c-0.2,0-0.3-0.1-0.3-0.3v-5.4c0-0.3,0.1-0.4,0.4-0.4h0.7c0.4-0.1,0.6,0.1,0.6,0.5C155,86.7,155,86.9,155,87.1z"/>
		<path class="st0" d="M121.8,65.4c-0.6,1-1.3,1.5-2.2,1.2c-0.8-0.2-1.4-0.9-1.4-1.8c0-1,0.8-1.8,1.8-1.8c0.8,0,1.5,0.6,1.7,1.3
			c0.2-0.5,0.5-0.8,0.9-1.1c0.4-0.2,0.9-0.3,1.4-0.1c0.9,0.3,1.4,1.1,1.2,2c-0.1,0.7-0.6,1.3-1.3,1.5
			C123,66.9,122.1,66.3,121.8,65.4L121.8,65.4z"/>
		<path class="st0" d="M167,90.4c0.3-1.3,0.7-2.5,1-3.8c0.1-0.3,0.1-0.3,0.4-0.3h1.4c0.3,0,0.3,0.1,0.2,0.3c-0.7,1.8-1.3,3.7-2,5.5
			c-0.1,0.2-0.2,0.3-0.4,0.2h-0.1c-0.5,0.1-1,0.1-1.5-0.1c-0.4-0.2-0.4-0.8-0.6-1.3c-0.6-1.4-1-2.9-1.6-4.3
			c-0.1-0.2-0.1-0.4,0.3-0.4h0.9c0.7,0,0.7,0,1,0.7C166.3,88.2,166.7,89.3,167,90.4z"/>
		<path class="st0" d="M100.2,74.5c-0.4-0.6-0.6-1.4-0.4-2.2c0.2-1,1.1-1.6,2.1-1.6h1.4c0.3,0,0.3,0.1,0.3,0.4v1.5
			c0,0.4-0.1,0.5-0.5,0.5c-0.3-0.1-0.6,0.1-0.7,0.4c-0.1,0.2,0,0.5,0.2,0.7c0.2,0.2,0.4,0.2,0.6,0.1c0.3,0,0.4,0.1,0.4,0.4v1.2
			c0,0.2-0.1,0.3-0.4,0.3h-3.4c-0.3,0-0.4-0.1-0.4-0.4v-0.5C99.5,74.6,99.5,74.6,100.2,74.5L100.2,74.5z"/>
		<path class="st0" d="M193.8,84.6v1.2c-0.1,0.4,0.1,0.4,0.4,0.4s0.7-0.1,0.9,0.1c0.1,0.4,0.1,0.8,0.1,1.2c0,0.1-0.1,0.2-0.2,0.2
			h-0.1c-0.3,0-0.7-0.1-0.9,0.1c-0.2,0.2-0.1,0.7-0.1,1V90c0,0.7,0.3,0.9,0.9,0.9c0.3,0,0.5,0.1,0.4,0.4s0.2,0.7-0.1,0.9
			c-0.4,0.2-0.9,0.3-1.4,0.2c-0.9,0-1.7-0.8-1.7-1.7c0-0.1,0-0.1,0-0.2c0-0.8-0.1-1.7,0-2.5c0-0.3-0.1-0.4-0.4-0.4s-0.5-0.1-0.4-0.4
			v-0.6c-0.1-0.4,0.1-0.6,0.4-0.5c0.4,0.1,0.4-0.1,0.4-0.4c0-0.8,0-0.8,0.8-1C193.1,84.8,193.5,84.8,193.8,84.6L193.8,84.6z"/>
		<path class="st0" d="M184.3,92.5c-0.6,0-1.2-0.1-1.8-0.3c-0.3-0.1-0.3-0.2-0.2-0.4c0.1-0.3,0.1-0.8,0.3-0.9
			c0.2-0.1,0.6,0.2,0.9,0.2c0.3,0.1,0.7,0.1,1,0.1c0.3-0.1,0.4-0.1,0.4-0.4c0.1-0.2,0-0.4-0.2-0.5c0,0,0,0,0,0
			c-0.2-0.1-0.4-0.2-0.6-0.3c-0.2-0.1-0.5-0.2-0.7-0.3c-0.7-0.3-1.1-1-1.1-1.8c0.1-0.8,0.7-1.4,1.4-1.7c0.8-0.3,1.7-0.2,2.4,0.1
			c0.2,0.1,0.3,0.2,0.2,0.4c-0.1,0.2-0.1,0.7-0.2,0.9c-0.2,0.2-0.6-0.1-0.8-0.1s-0.6-0.1-0.9,0s-0.3,0.1-0.3,0.4
			c0,0.2,0,0.3,0.2,0.4c0.3,0.1,0.5,0.3,0.8,0.4c0.8,0.3,1.5,0.7,1.6,1.7c0.1,1.1-0.7,2-1.7,2.1c0,0,0,0,0,0
			C184.7,92.4,184.4,92.5,184.3,92.5z"/>
		<path class="st0" d="M133.1,66.1c0-1.3,1.1-2.3,2.4-2.3s2.3,1.1,2.3,2.4c0,1.3-1.1,2.3-2.4,2.3c0,0,0,0,0,0
			C134.1,68.5,133,67.4,133.1,66.1C133.1,66.2,133.1,66.1,133.1,66.1z"/>
		<path class="st0" d="M179.3,87.3c0.2-0.6,0.8-1,1.4-1.2c0.5-0.1,0.6,0,0.6,0.5v1.1c0,0.2-0.1,0.2-0.2,0.2
			c-1.1-0.1-1.6,0.3-1.6,1.4V92c0,0.3-0.1,0.4-0.4,0.4h-1.4c-0.2,0-0.2-0.1-0.2-0.2v-5.5c0-0.2,0.1-0.3,0.2-0.3h0.3
			c0.4,0,0.7-0.1,1,0.1C179.3,86.6,179.2,86.9,179.3,87.3L179.3,87.3z"/>
		<path class="st0" d="M130.3,87.2c0.3-0.6,0.8-1,1.5-1.1c0.5-0.1,0.6,0,0.6,0.5V87c0,0.3,0,0.6,0,0.8c-0.1,0.3-0.5,0-0.7,0.1
			c-0.7,0.1-1.1,0.6-1.1,1.3V92c0,0.3-0.1,0.4-0.4,0.4c-0.5-0.1-1.1,0.2-1.4-0.1c-0.3-0.2-0.1-0.9-0.1-1.4c0-1.4,0-2.8-0.1-4.2
			c0-0.2,0.1-0.4,0.3-0.3c0.3,0,0.6,0,0.9,0c0.4-0.1,0.4,0.2,0.4,0.4C130.3,87,130.3,87.1,130.3,87.2L130.3,87.2z"/>
		<path class="st0" d="M151.4,70.2c-1.1,0-2-0.8-2.1-1.9c0,0,0-0.1,0-0.1c0-1.1,0.9-2,2-2c1.1,0,2,0.9,2,2
			C153.3,69.3,152.5,70.1,151.4,70.2L151.4,70.2z"/>
		<path class="st0" d="M160.8,89.3v-2.6c0-0.2,0.1-0.4,0.4-0.4h1.2c0.2,0,0.3,0.1,0.3,0.3v5.5c0,0.2-0.1,0.2-0.3,0.2h-1.2
			c-0.3,0-0.4-0.1-0.4-0.4C160.8,91.1,160.8,90.2,160.8,89.3z"/>
		<path class="st0" d="M190,89.3V92c0,0.2-0.1,0.4-0.4,0.4h-1.2c-0.3,0-0.4-0.1-0.4-0.4v-5.3c0-0.3,0.1-0.4,0.4-0.4h1.1
			c0.4,0,0.5,0.1,0.4,0.4C190,87.5,190,88.5,190,89.3z"/>
		<path class="st0" d="M128.2,69.1c0-1,0.8-1.8,1.8-1.8c1,0,1.8,0.8,1.8,1.8s-0.8,1.8-1.8,1.8C129,70.9,128.2,70.1,128.2,69.1z"/>
		<path class="st0" d="M150.5,71.4c0,1-0.7,1.8-1.7,1.8c0,0,0,0,0,0c-1,0-1.8-0.8-1.8-1.8c0-1,0.8-1.8,1.8-1.8
			C149.7,69.6,150.4,70.4,150.5,71.4z"/>
		<path class="st0" d="M197.3,77.1c1,0,1.8,0.8,1.8,1.8c0,1-0.8,1.8-1.8,1.8c-1,0-1.8-0.8-1.8-1.8C195.5,77.9,196.3,77.1,197.3,77.1
			C197.2,77.1,197.3,77.1,197.3,77.1z"/>
		<path class="st0" d="M189.1,83.5c0.5-0.1,1,0.3,1.1,0.9c0,0,0,0.1,0,0.1c0,0.5-0.5,1-1,1c-0.6,0-1.1-0.4-1.1-1c0,0,0,0,0,0
			C188,84,188.4,83.5,189.1,83.5L189.1,83.5z"/>
		<path class="st0" d="M161.7,83.5c0.5,0,1,0.4,1,0.9c0,0,0,0.1,0,0.1c0,0.6-0.4,1-1,1c-0.6,0-1-0.4-1-1S161.2,83.5,161.7,83.5z"/>
		<path class="st0" d="M143.8,70v-3.5l-0.4,0.2c-0.9,0.4-1.9,0.8-2.8,1.2c-0.3,0.1-0.4,0.3-0.4,0.6v5.5c0,0.4-0.1,0.5-0.4,0.4h-1.2
			c-0.4,0-0.6-0.1-0.6-0.5v-4.7c0-0.4-0.1-0.4-0.4-0.2c-1,0.4-1.9,0.8-2.9,1.3c-0.2,0.1-0.4,0.3-0.4,0.6v3.2c0,0.3-0.1,0.4-0.4,0.4
			h-1.5c-0.3,0-0.4-0.1-0.4-0.4v-2.3c0-0.2,0-0.4-0.3-0.2c-1,0.4-2,0.8-3.1,1.2c-0.3,0.1-0.3,0.2-0.3,0.4c-0.1,0.4,0.2,1-0.1,1.2
			s-0.8,0.1-1.2,0.1c-0.3,0-0.4-0.1-0.4-0.4c0-1.3-0.2-2.5-0.7-3.7c-0.4-1.2-1.4-2.1-2.7-2.3c-1.8-0.3-3.7,0.4-4.9,1.8
			c-1.2,1.2-1.6,3-1,4.6h-1.7c-0.4,0-0.5-0.1-0.5-0.4v-5.7c0-0.4-0.1-0.4-0.4-0.3c-0.8,0.4-1.6,0.7-2.4,1c-0.3,0.1-0.4,0.3-0.4,0.6
			c0,0,0,0,0,0v5.6c0.2,1.6-1,3.1-2.6,3.2c-0.3,0-0.6,0-0.8,0c-0.8-0.1-1.6-0.3-2.3-0.6c-0.1-0.1-0.3-0.2-0.3,0.1v2
			c0,0.5,0.3,1,0.8,1c1,0.2,2,0.4,3,0.4c3.1-0.1,5-1.6,5.4-4.5c0.1-0.6,0.1-0.6,0.7-0.6h27.3c0.4,0,0.5-0.1,0.5-0.5
			C143.8,73.9,143.8,71.9,143.8,70L143.8,70z M122.6,74.4c-0.7-0.1-1.3-0.5-1.8-1c-0.4-0.4-0.6-1-0.3-1.5c0.2-0.5,0.6-0.9,1.1-0.9
			c0.5-0.1,1.1,0.2,1.3,0.7c0.3,0.6,0.5,1.3,0.5,2.1C123.4,74.6,123.4,74.6,122.6,74.4L122.6,74.4z"/>
		<path class="st0" d="M181.8,75c0.1-1.4-0.1-2.9-0.6-4.3c-0.5-2-2.6-3.1-4.5-2.6c0,0,0,0-0.1,0c-2.8,0.6-5,2.9-4.1,6.3h-4.9
			c0,0,0.1-0.1,0.1-0.1c0.6-0.7,1.2-1.5,1.8-2.1c0.9-0.8,1.4-2,1.2-3.2v-0.4c0-0.3-0.1-0.4-0.4-0.4h-9.1c-0.3,0-0.4,0.1-0.4,0.4v1.9
			c0,0.2,0.1,0.4,0.2,0.6c0.6,0.7,1.1,1.3,1.7,2.1c0.4,0.4,0.7,0.9,1.1,1.4h-4.3c-0.4,0-0.4-0.1-0.4-0.4v-5.6c0-0.3-0.1-0.4-0.4-0.4
			h-2.5c-0.2,0-0.3,0-0.4,0.1c-1.9,1.9-3.9,4-5.8,5.9c-0.4,0.4-0.6,0.9-0.6,1.5c0.1,0.7,0,0.7,0.7,0.7H164c0.5,0.1,1-0.1,1.4-0.5
			c0.1-0.1,0.2-0.2,0.3,0c0.2,0.5,0.7,0.6,1.2,0.6h13.7c0.4,0,0.9,0.2,1.2-0.1S181.8,75.4,181.8,75L181.8,75z M155.6,74.5h-2
			c0.8-0.8,1.5-1.6,2.3-2.6v2.3C155.9,74.6,155.8,74.5,155.6,74.5L155.6,74.5z M166.5,73.2c-0.3,0.3-0.5,0.9-0.8,0.8
			s-0.5-0.5-0.7-0.8c-0.6-0.7-1.1-1.4-1.7-2.1h5C167.6,71.8,167.1,72.4,166.5,73.2L166.5,73.2z M177.8,74.4c-0.8-0.1-1.5-0.4-2-1
			c-0.5-0.6-0.5-1.4,0.1-1.9c0.1-0.1,0.1-0.1,0.2-0.1c0.6-0.4,1.4-0.2,1.8,0.4c0,0,0,0.1,0.1,0.1c0.4,0.7,0.5,1.4,0.5,2.2
			C178.4,74.6,178.4,74.6,177.8,74.4L177.8,74.4z"/>
		<path class="st0" d="M127,86.5c0-0.2-0.1-0.3-0.2-0.3h-1c-0.4-0.1-0.7,0.1-0.6,0.7c-0.9-1-2.5-1.1-3.5-0.1
			c-0.1,0.1-0.2,0.2-0.3,0.4c-0.8,1.2-0.8,2.7-0.2,4c0.6,1.1,1.9,1.6,3.1,1c0.3-0.1,0.5-0.3,0.7-0.5h0.1v2.7c0,0.3,0.1,0.4,0.4,0.4
			h1.2c0.2,0,0.3-0.1,0.3-0.3C127,91.8,126.9,89.2,127,86.5L127,86.5z M125,90.1c-0.1,0.4-0.5,0.8-1,0.8c-0.5,0.1-1-0.2-1.2-0.7
			c-0.3-0.5-0.3-1.2,0-1.7c0.2-0.6,0.8-1,1.4-0.8c0.6,0.1,1,0.6,1,1.2v0.4C125.1,89.6,125.1,89.9,125,90.1L125,90.1z"/>
		<path class="st0" d="M138.5,90.4L138.5,90.4c-0.1-0.6,0-1.1-0.1-1.6c0.1-1.3-0.9-2.5-2.2-2.6c-0.2,0-0.3,0-0.5,0
			c-0.5,0-1,0.1-1.5,0.2c-1,0.3-1,0.3-0.7,1.2v0.1c0.1,0.2,0.2,0.2,0.4,0.2c0.4-0.2,0.8-0.3,1.3-0.3c0.4,0,0.9,0,1.1,0.4
			c0.2,0.4,0.1,0.4-0.2,0.4c-0.7,0-1.4,0.1-2,0.4c-0.8,0.3-1.3,1.1-1.2,2c0,0.8,0.5,1.4,1.2,1.7c0.8,0.3,1.6,0.1,2.2-0.4
			c0.1-0.1,0.3-0.3,0.3,0s0.3,0.4,0.6,0.4h0.9c0.2,0,0.2,0,0.2-0.2C138.5,91.5,138.5,90.9,138.5,90.4z M135.8,91.1
			c-0.3,0.1-0.7-0.1-0.8-0.4c-0.2-0.4,0-0.8,0.3-1c0.3-0.2,0.7-0.3,1-0.2c0.4-0.1,0.4,0.1,0.4,0.4C136.6,90.6,136.3,91,135.8,91.1
			L135.8,91.1z"/>
		<path class="st0" d="M119.4,88.6c0.1-1.3-0.9-2.3-2.1-2.4c0,0-0.1,0-0.1,0c-0.7-0.1-1.3,0-2,0.1c-0.9,0.2-1,0.3-0.7,1.2v0.1
			c0.1,0.3,0.1,0.4,0.4,0.2c0.4-0.2,0.8-0.3,1.2-0.3c0.4-0.1,0.8,0,1.2,0.3c0.1,0.1,0.3,0.2,0.2,0.4c-0.1,0.2-0.3,0.1-0.4,0.1
			c-0.9,0-1.7,0.3-2.5,0.7c-0.6,0.5-0.9,1.3-0.7,2.1c0.1,0.7,0.7,1.2,1.4,1.3c0.8,0.2,1.6,0,2.2-0.6c0.2,0.1,0,0.6,0.4,0.6h1.3
			c0.1,0,0.3,0,0.2-0.2C119.3,91,119.5,89.8,119.4,88.6z M117.6,90c0,0.7-0.4,1.2-0.9,1.2c-0.3,0-0.7-0.1-0.8-0.4
			c-0.1-0.3,0-0.7,0.3-0.8c0.4-0.2,0.8-0.3,1.3-0.3C117.7,89.6,117.5,89.9,117.6,90z"/>
		<path class="st0" d="M176.1,88c-0.3-1.2-1.5-2-2.8-1.9c-1.7,0.1-3,1.6-2.9,3.4c0,0.1,0,0.2,0,0.3c0.1,1.3,1,2.3,2.3,2.6
			c0.7,0.2,1.4,0.2,2.1,0c1.2-0.3,1-0.1,0.8-1.3c-0.1-0.2-0.1-0.3-0.4-0.2c-0.4,0.1-0.7,0.2-1.1,0.2c-0.7,0.1-1.4-0.2-1.8-0.8
			c-0.1-0.3-0.1-0.4,0.2-0.4h3.2c0.4,0,0.5-0.1,0.5-0.5C176.4,88.9,176.3,88.4,176.1,88z M174.3,88.6h-1.7c-0.2,0-0.2-0.1-0.2-0.3
			c0.1-0.5,0.6-0.9,1.2-0.9c0.5,0,0.9,0.4,1,0.9C174.6,88.5,174.5,88.6,174.3,88.6L174.3,88.6z"/>
	</g>
</g>
</svg>
