<?xml version="1.0" encoding="utf-8"?>
<!-- Generator: Adobe Illustrator 24.0.1, SVG Export Plug-In . SVG Version: 6.00 Build 0)  -->
<svg version="1.1" id="Layer_1" xmlns="http://www.w3.org/2000/svg" xmlns:xlink="http://www.w3.org/1999/xlink" x="0px" y="0px"
	 viewBox="0 0 300 100" style="enable-background:new 0 0 300 100;" xml:space="preserve">
<style type="text/css">
	.st0{fill:#3E3E3E;}
</style>
<title>SMEH- Web- Dark</title>
<g id="Layer_2_1_">
	<g id="Layer_1-2">
		<path class="st0" d="M15,22.3h9.2v19.4l16.3-19.4H51L29.1,50l14.3,19.2h2.1v8.5h-6.2L24.2,56.9v20.8H15V22.3z"/>
		<path class="st0" d="M53.3,22.3H64L43,48.7h35.2c2.7,0,4.9,2.2,4.9,4.9v19.1c0,2.7-2.2,4.9-4.9,4.9h-31v-8.5h28V56.3H36.5l-4-5.7
			c-0.3-0.4-0.3-1,0-1.3L53.3,22.3z"/>
		<path class="st0" d="M100.5,49.2c0.4,0,0.7,0.2,0.9,0.4c0.2,0.2,0.4,0.5,0.3,0.8c0,0.6-0.5,1.2-1.2,1.2c-0.4,0-0.7-0.1-0.9-0.4
			c-0.2-0.2-0.4-0.5-0.3-0.8c0-0.4,0.2-0.6,0.4-0.9C100,49.3,100.2,49.2,100.5,49.2 M98.7,54.4c-0.4,0-0.6,0.1-0.9,0.3
			c-0.4,0.4-0.5,0.9-0.5,1.4c0,0.4,0.1,0.9,0.4,1.3c0.2,0.3,0.5,0.4,0.9,0.4h0.1c0.2,0,0.4,0,0.6-0.1v-3.2
			C99.1,54.5,98.9,54.4,98.7,54.4 M97.7,49.2c0.6,0,1.2,0.5,1.2,1.2c0,0.4-0.1,0.7-0.4,0.9c-0.2,0.2-0.5,0.4-0.8,0.3
			c-0.4,0-0.6-0.2-0.9-0.4c-0.2-0.2-0.3-0.5-0.3-0.8c0-0.4,0.2-0.7,0.4-0.9C97.2,49.3,97.4,49.2,97.7,49.2 M101.8,52.2v5.3
			c0,0.1,0,0.1,0,0.2c0.1,0,0.1,0,0.2,0h0.5v2h-1.2c-0.5,0-1.1-0.3-1.4-0.6c-0.3,0.3-0.5,0.4-0.9,0.5c-0.3,0.2-0.6,0.2-1,0.2
			c-0.7,0-1.4-0.3-2-0.7c-0.8-0.7-1.3-1.8-1.2-3c0-1,0.3-1.9,0.9-2.6c0.6-0.8,1.6-1.3,2.6-1.2c0.5,0,1.1,0.1,1.5,0.4l0.6-0.5
			L101.8,52.2z"/>
		<path class="st0" d="M106.3,60.4c0.4,0,0.7,0.2,0.9,0.4c0.2,0.2,0.4,0.5,0.3,0.8c0,0.4-0.2,0.7-0.4,0.9c-0.2,0.2-0.5,0.4-0.8,0.3
			c-0.4,0-0.7-0.1-0.9-0.4c-0.2-0.2-0.4-0.5-0.3-0.8c0-0.4,0.2-0.6,0.4-0.9C105.8,60.5,106.1,60.4,106.3,60.4 M107.6,52.6v4.9v0.1
			h0.8v2h-0.5l-0.6-0.7l0,0c-0.4,0.4-0.9,0.7-1.5,0.7h-3.2v-2h2.4c0.1,0,0.2,0,0.3-0.1c0.1-0.1,0.1-0.2,0.1-0.2v-4.9L107.6,52.6
			L107.6,52.6z M103.6,60.4c0.4,0,0.7,0.2,0.9,0.4c0.2,0.2,0.4,0.5,0.3,0.8c0,0.6-0.5,1.2-1.2,1.2c-0.4,0-0.7-0.2-0.9-0.4
			c-0.2-0.2-0.4-0.5-0.3-0.8c0-0.4,0.2-0.6,0.4-0.9C103,60.5,103.3,60.4,103.6,60.4"/>
		<path class="st0" d="M114.2,54.4c-0.4,0-0.8,0.3-1,0.7c-0.2,0.4-0.3,0.8-0.3,1.2c0,1.3,0.4,1.9,1.1,1.9c0.4,0,0.7-0.2,1.1-0.4
			v-2.4c0-0.3-0.1-0.4-0.3-0.6C114.7,54.5,114.4,54.4,114.2,54.4 M114.1,52.4c0.9-0.1,1.7,0.2,2.4,0.7c0.6,0.5,1,1.3,1,2.2v2.2
			c0,0.1,0,0.1,0.1,0.2c0.1,0,0.1,0,0.2,0h0.3v2h-0.9c-0.4,0-0.9-0.1-1.3-0.4c-0.3,0.3-0.5,0.5-0.9,0.7c-0.4,0.2-0.7,0.3-1.1,0.3
			c-0.8,0-1.6-0.4-2.2-1h-0.1l-0.4,0.5h-2.9v-2h2.5c-0.1-0.5-0.2-1.1-0.2-1.7c-0.1-1.1,0.4-2.1,1.1-2.8
			C112.4,52.7,113.2,52.4,114.1,52.4"/>
		<path class="st0" d="M123.1,48.7v8.9v0.1h0.7v2h-0.5l-0.6-0.7l0,0c-0.4,0.4-0.9,0.7-1.5,0.7h-3.2v-2h2.6h0.1
			c0.1,0,0.1-0.1,0.1-0.2v-8.8H123.1z"/>
		<path class="st0" d="M130.2,54.4c-0.4,0-0.7,0.1-1.1,0.2c-0.4,0.1-0.6,0.4-0.7,0.7c0.4,0.3,0.6,0.5,0.9,0.9
			c0.4,0.4,0.6,0.7,0.8,1.2h0.1c0.3-0.4,0.5-0.9,0.9-1.3c0.3-0.3,0.5-0.5,0.8-0.8c-0.2-0.4-0.4-0.6-0.9-0.8
			C130.7,54.5,130.5,54.4,130.2,54.4 M130.3,52.4c0.8,0,1.6,0.2,2.2,0.7c0.8,0.5,1.4,1.4,1.8,2.4l-0.2,0.4c-0.4,0.2-0.6,0.4-0.9,0.7
			c-0.3,0.3-0.6,0.6-0.8,1h2.1v2h-3.6c-0.3,0-0.5-0.2-0.7-0.4h-0.1c-0.2,0.3-0.4,0.4-0.7,0.4h-5.6v-2h4.1c-0.2-0.4-0.5-0.7-0.8-1
			c-0.3-0.3-0.6-0.5-1-0.8l-0.2-0.4c0.4-1.1,1.1-2,2-2.4C128.7,52.7,129.5,52.4,130.3,52.4"/>
		<path class="st0" d="M139.6,48.7v9.1c0,0.4-0.2,0.9-0.4,1.3c-0.4,0.4-0.9,0.7-1.4,0.7h-3.2v-1.9h2.6h0.1c0.1,0,0.1-0.1,0.1-0.2
			v-8.8L139.6,48.7z"/>
		<path class="st0" d="M144.1,48.7v10.5l-1.2,1h-1.2V48.7H144.1z"/>
		<path class="st0" d="M149.5,54.4c-0.4,0-0.7,0.2-0.9,0.4c-0.3,0.4-0.4,0.7-0.4,1.2s0.1,0.8,0.3,1.2c0.2,0.3,0.4,0.5,0.8,0.6
			c0.1,0.1,0.3,0.1,0.4,0.1c0.3,0,0.4-0.1,0.7-0.1v-2.5c0-0.3-0.1-0.4-0.3-0.6C150.1,54.5,149.8,54.4,149.5,54.4 M149.5,52.4
			c0.7,0,1.5,0.2,2.1,0.6c0.7,0.5,1.2,1.3,1.1,2.2v3.8c0.1,1.2-0.4,2.3-1.3,3.1c-0.5,0.5-1.3,0.8-2,1c-0.4,0.1-0.7,0.1-1.1,0.1H148
			l-1-1.3v-0.8h0.2c0.3,0,0.4,0.1,0.7,0.1c0.7,0,1.4-0.2,2-0.7c0.3-0.3,0.4-0.6,0.5-1c-0.4,0.1-0.6,0.1-1,0.1c-0.2,0-0.4,0-0.6,0
			c-0.9-0.2-1.6-0.7-2.1-1.4c-0.4-0.6-0.7-1.4-0.7-2.2c0-1,0.3-1.9,1-2.6C147.7,52.9,148.6,52.4,149.5,52.4"/>
		<path class="st0" d="M163.1,49.2c0.6,0,1.2,0.5,1.2,1.2c0,0.4-0.1,0.7-0.4,0.9c-0.2,0.2-0.5,0.4-0.8,0.3c-0.4,0-0.6-0.2-0.9-0.4
			c-0.2-0.2-0.3-0.5-0.3-0.8c0-0.4,0.2-0.7,0.4-0.9C162.5,49.3,162.8,49.2,163.1,49.2 M161.2,54.4c-0.4,0-0.6,0.1-0.9,0.3
			c-0.4,0.4-0.6,0.9-0.5,1.4c0,0.4,0.1,0.9,0.4,1.3c0.3,0.3,0.5,0.4,0.9,0.4h0.2c0.2,0,0.4,0,0.6-0.1v-3.2
			C161.7,54.5,161.5,54.4,161.2,54.4 M160.3,49.2c0.4,0,0.7,0.2,0.9,0.4c0.2,0.2,0.4,0.5,0.3,0.8c0,0.6-0.5,1.2-1.2,1.2
			c-0.4,0-0.7-0.1-0.9-0.4c-0.2-0.2-0.4-0.5-0.3-0.8c0-0.4,0.2-0.6,0.4-0.9C159.7,49.3,160.1,49.2,160.3,49.2 M164.3,52.2v5.3
			c0,0.1,0,0.1,0.1,0.2c0.1,0,0.1,0,0.2,0h0.5v2h-1.3c-0.5,0-1.1-0.3-1.4-0.6c-0.3,0.3-0.5,0.4-0.9,0.5c-0.4,0.2-0.6,0.2-1,0.2
			c-0.7,0-1.4-0.3-2-0.7c-0.8-0.7-1.3-1.8-1.2-3c0-1,0.3-1.9,0.9-2.6c0.6-0.8,1.6-1.3,2.6-1.2c0.5,0,1.1,0.1,1.5,0.4l0.6-0.5
			L164.3,52.2z"/>
		<path class="st0" d="M168.9,60.4c0.6,0,1.2,0.5,1.2,1.2c0,0.4-0.1,0.7-0.4,0.9c-0.2,0.2-0.5,0.4-0.8,0.3c-0.4,0-0.7-0.1-0.9-0.4
			c-0.2-0.2-0.4-0.5-0.3-0.8c0-0.4,0.2-0.6,0.4-0.9C168.4,60.5,168.6,60.4,168.9,60.4 M170.2,52.6v4.9v0.1h0.8v2h-0.4l-0.7-0.7l0,0
			c-0.4,0.4-0.9,0.7-1.5,0.7H165v-2h2.4c0.1,0,0.2,0,0.3-0.1c0.1-0.1,0.1-0.2,0.1-0.2v-4.9L170.2,52.6L170.2,52.6z M166.1,60.4
			c0.4,0,0.7,0.2,0.9,0.4c0.2,0.2,0.4,0.5,0.3,0.8c0,0.4-0.1,0.7-0.4,0.9c-0.2,0.2-0.5,0.4-0.8,0.3c-0.6,0-1.3-0.5-1.3-1.2l0,0
			c0-0.4,0.2-0.6,0.4-0.9C165.6,60.5,165.8,60.4,166.1,60.4"/>
		<path class="st0" d="M174.7,60.4c0.4,0,0.7,0.2,0.9,0.4c0.4,0.5,0.4,1.3-0.1,1.7c-0.2,0.2-0.5,0.3-0.8,0.3c-0.4,0-0.7-0.1-0.9-0.4
			c-0.2-0.2-0.4-0.5-0.3-0.8c0-0.4,0.2-0.6,0.4-0.9C174.2,60.5,174.5,60.4,174.7,60.4 M176,52.6v4.9v0.1h0.7v2h-0.4l-0.6-0.7l0,0
			c-0.4,0.4-0.9,0.7-1.5,0.7h-3.2v-2h2.5c0.1,0,0.2,0,0.3-0.1c0.1-0.1,0.1-0.2,0.1-0.2v-4.9L176,52.6L176,52.6z"/>
		<path class="st0" d="M186.2,54.4c-0.7,0-1.3,0.3-2,0.6c-1,0.6-1.9,1.5-2.4,2.7h6.5c0.2,0,0.2-0.1,0.2-0.2v-1
			c0-0.6-0.3-1.3-0.8-1.6C187.2,54.6,186.7,54.4,186.2,54.4 M181.9,48.7v5.8c0.6-0.7,1.5-1.3,2.4-1.7c0.7-0.3,1.4-0.4,2.2-0.4h0.5
			c1.2,0,2.3,0.5,3.1,1.5c0.5,0.6,0.8,1.5,0.8,2.3v1.5h0.5v2h-0.3l-0.7-0.8l0,0c-0.4,0.4-0.9,0.7-1.5,0.7h-12.3v-2h2.8v-9.1H181.9z"
			/>
		<path class="st0" d="M196.4,48.7v9.1c0,0.4-0.2,0.9-0.4,1.3c-0.4,0.4-0.9,0.7-1.4,0.7h-3.2v-1.9h2.6h0.1c0.1,0,0.1-0.1,0.1-0.2
			v-8.8L196.4,48.7z"/>
		<path class="st0" d="M200.9,48.7v10.5l-1.2,1h-1.2V48.7H200.9z"/>
		<path class="st0" d="M214,52.2c0.4,0,0.6,0.2,0.9,0.4c0.2,0.2,0.4,0.5,0.3,0.8c0,0.6-0.5,1.2-1.2,1.2c-0.4,0-0.7-0.1-0.9-0.4
			c-0.2-0.2-0.4-0.5-0.3-0.8c0-0.4,0.1-0.7,0.4-0.9C213.4,52.3,213.7,52.2,214,52.2 M211.2,52.2c0.4,0,0.6,0.2,0.9,0.4
			c0.2,0.2,0.3,0.5,0.3,0.8c0,0.6-0.5,1.2-1.2,1.2c-0.4,0-0.7-0.1-0.9-0.4c-0.2-0.2-0.4-0.5-0.3-0.8c0-0.4,0.1-0.7,0.4-0.9
			S210.9,52.2,211.2,52.2 M219.3,52.6v5.1c0,0.4-0.2,0.9-0.4,1.3c-0.4,0.4-0.9,0.7-1.4,0.7h-8.5c-0.7,0-1.3-0.3-1.9-0.7
			c-0.7-0.5-1.1-1.4-1.1-2.3v-2l1.2-1h1.2v3c0,0.3,0.1,0.5,0.4,0.7c0.2,0.2,0.4,0.3,0.6,0.3h7.5c0.2,0,0.2-0.1,0.2-0.2v-4.9
			L219.3,52.6z"/>
		<path class="st0" d="M223.8,48.7v10.5l-1.2,1h-1.2V48.7H223.8z"/>
		<path class="st0" d="M228.2,52.4c1.1,0,2.2,0.4,3,1.1c0.8,0.7,1.2,1.8,1.2,2.8v1.4h0.4v2h-0.2l-0.6-0.7l0,0
			c-0.1,0.1-0.2,0.2-0.3,0.3c-0.4,0.3-0.8,0.4-1.3,0.4h-4.9v-2h4.1c0.2,0,0.2-0.1,0.2-0.2v-1c0-0.6-0.2-1.2-0.6-1.6
			c-0.2-0.2-0.4-0.3-0.7-0.4c-0.3-0.1-0.5-0.2-0.8-0.2s-0.5,0-0.7,0v-1.9C227.5,52.4,227.8,52.4,228.2,52.4"/>
		<path class="st0" d="M239,54.4c-0.4,0-0.7,0.1-1.1,0.2c-0.4,0.1-0.6,0.4-0.7,0.7c0.4,0.3,0.6,0.5,0.9,0.9c0.4,0.4,0.6,0.7,0.8,1.2
			h0.1c0.3-0.4,0.5-0.9,0.9-1.3c0.3-0.3,0.5-0.5,0.8-0.8c-0.2-0.4-0.4-0.6-0.9-0.8C239.5,54.5,239.2,54.4,239,54.4 M239,52.4
			c0.8,0,1.6,0.3,2.2,0.7c0.8,0.5,1.4,1.4,1.8,2.4l-0.2,0.4c-0.4,0.2-0.6,0.4-0.9,0.7c-0.4,0.3-0.6,0.6-0.8,1h2.1v2h-3.6
			c-0.3,0-0.5-0.2-0.7-0.4h-0.1c-0.2,0.3-0.4,0.4-0.7,0.4h-5.6v-2.1h4.1c-0.3-0.4-0.5-0.7-0.8-1c-0.3-0.3-0.6-0.5-1-0.8l-0.2-0.4
			c0.4-1.1,1.1-2,2-2.4C237.5,52.7,238.3,52.5,239,52.4"/>
		<path class="st0" d="M249.2,54.4c-0.4,0-0.8,0.3-1,0.7c-0.2,0.4-0.3,0.8-0.3,1.2c0,1.3,0.4,1.9,1.1,1.9c0.4,0,0.7-0.2,1.1-0.4
			v-2.4c0-0.3-0.1-0.4-0.3-0.6C249.6,54.5,249.4,54.4,249.2,54.4 M249,52.4c0.9-0.1,1.7,0.2,2.4,0.7c0.6,0.5,1,1.3,1,2.2v2.2
			c0,0.1,0,0.1,0.1,0.2c0.1,0,0.1,0,0.2,0h0.3v2h-1c-0.4,0-0.9-0.2-1.3-0.4c-0.3,0.3-0.5,0.5-0.9,0.7c-0.4,0.2-0.7,0.3-1.1,0.3
			c-0.8,0-1.6-0.4-2.2-1l0,0l-0.4,0.5h-2.9v-1.9h2.5c-0.1-0.5-0.2-1.1-0.1-1.7c-0.2-1.8,1.2-3.4,3-3.6
			C248.7,52.4,248.8,52.4,249,52.4"/>
		<path class="st0" d="M258,48.7v9.1c0,0.4-0.2,0.9-0.4,1.3c-0.4,0.4-0.9,0.7-1.4,0.7h-3.2v-1.9h2.6h0.1c0.1,0,0.1-0.1,0.1-0.2v-8.8
			L258,48.7z"/>
		<path class="st0" d="M262.5,48.7v10.5l-1.2,1h-1.2V48.7H262.5z"/>
		<path class="st0" d="M272.1,52.6v6.5c0.1,1.3-0.4,2.4-1.3,3.2c-0.5,0.4-1.2,0.8-1.9,0.9c-0.4,0.1-0.8,0.1-1.2,0.1h-0.4l-1-1.3
			v-0.8h0.2c0.3,0,0.4,0.1,0.7,0.1c0.7,0,1.3-0.2,1.9-0.6c0.4-0.5,0.6-1.3,0.5-2v-6.3h2.4V52.6z"/>
		<path class="st0" d="M276.6,48.7v10.5l-1.2,1h-1.3V48.7H276.6z"/>
		<path class="st0" d="M280.9,52.4c1.1,0,2.2,0.4,3,1.1c0.7,0.7,1.2,1.8,1.1,2.8v1.4c0,0.5-0.2,1.1-0.6,1.4
			c-0.4,0.4-0.8,0.5-1.3,0.5h-4.9v-1.9h4.1c0.1,0,0.2-0.1,0.2-0.2c0,0,0,0,0-0.1v-1c0-0.6-0.2-1.2-0.6-1.6c-0.2-0.2-0.4-0.3-0.6-0.4
			c-0.3-0.1-0.5-0.2-0.8-0.2c-0.3,0-0.5,0-0.7,0v-1.9C280.1,52.4,280.5,52.4,280.9,52.4"/>
		<path class="st0" d="M95.5,74.1c0.5,0.4,1.2,0.5,1.8,0.5c1.1,0,1.7-0.5,1.7-1.3s-0.4-1.2-1.5-1.6c-1.3-0.4-2.1-1.1-2.1-2.2
			c0-1.3,1.1-2.2,2.3-2.2c0.1,0,0.2,0,0.2,0c0.6,0,1.3,0.1,1.8,0.4l-0.3,0.8c-0.4-0.3-1-0.4-1.5-0.4c-1.1,0-1.5,0.6-1.5,1.2
			c0,0.7,0.4,1.1,1.6,1.5c1.3,0.5,2.1,1.2,2.1,2.3c0,1.2-0.8,2.3-2.8,2.3c-0.7,0-1.4-0.2-2.1-0.5L95.5,74.1z"/>
		<path class="st0" d="M105.6,75.1c-0.5,0.3-1.1,0.4-1.6,0.4c-1.5,0.1-2.8-1.1-2.9-2.6c0-0.1,0-0.3,0-0.4c-0.1-1.6,1.2-3,2.8-3.1
			c0.1,0,0.2,0,0.4,0c0.4,0,1,0.1,1.4,0.3l-0.3,0.8c-0.4-0.2-0.8-0.3-1.2-0.3c-1.1,0-2,0.8-2.1,1.9c0,0.1,0,0.2,0,0.3
			c-0.1,1.1,0.7,2.1,1.8,2.2c0.1,0,0.2,0,0.2,0c0.4,0,0.9-0.1,1.3-0.3L105.6,75.1z"/>
		<path class="st0" d="M107,69.6h1v5.8h-1.1L107,69.6z M108.1,68c0,0.4-0.3,0.6-0.6,0.6c-0.4,0-0.6-0.3-0.6-0.6
			c0-0.4,0.3-0.6,0.6-0.6c0,0,0,0,0.1,0C107.8,67.4,108.1,67.6,108.1,68L108.1,68"/>
		<path class="st0" d="M113.5,72c0.1-0.8-0.4-1.5-1.3-1.7c-0.1,0-0.1,0-0.2,0c-0.9,0.1-1.6,0.8-1.6,1.7H113.5z M110.5,72.7
			c-0.1,1,0.6,1.9,1.6,2c0.1,0,0.2,0,0.3,0c0.5,0,1.1-0.1,1.5-0.3l0.2,0.7c-0.6,0.3-1.3,0.4-1.9,0.4c-1.4,0.1-2.7-1-2.8-2.5
			c0-0.1,0-0.3,0-0.4c-0.2-1.5,0.9-2.9,2.4-3.1c0.1,0,0.2,0,0.3,0c1.3,0,2.4,1.2,2.3,2.5c0,0.1,0,0.1,0,0.2c0,0.2,0,0.4,0,0.4
			L110.5,72.7z"/>
		<path class="st0" d="M115.9,71.1c0-0.6,0-1.1,0-1.5h0.9l0.1,1l0,0c0.4-0.7,1.1-1.2,1.9-1.1c0.8,0,2.1,0.4,2.1,2.4v3.4h-1.1V72
			c0-0.9-0.4-1.7-1.3-1.7c-0.8,0.1-1.4,0.7-1.4,1.5v3.4h-1.1L115.9,71.1z"/>
		<path class="st0" d="M123.8,68v1.6h1.5v0.8h-1.5v3.1c0,0.7,0.2,1.1,0.8,1.1c0.2,0,0.4,0,0.6-0.1v0.8c-0.3,0.1-0.6,0.2-0.9,0.2
			c-0.4,0-0.8-0.2-1.1-0.4c-0.4-0.4-0.4-1-0.4-1.5v-3.1h-0.9v-0.8h0.9v-1.3L123.8,68z"/>
		<path class="st0" d="M126.6,69.6h1.1v5.8h-1.1V69.6z M127.7,68c-0.1,0.4-0.4,0.6-0.7,0.5c-0.3,0-0.5-0.3-0.5-0.5
			c0-0.4,0.3-0.6,0.6-0.6l0,0C127.4,67.4,127.7,67.6,127.7,68L127.7,68"/>
		<path class="st0" d="M129.6,75.4v-4.9h-0.8v-0.8h0.8v-0.3c-0.1-1.3,0.8-2.3,2.1-2.5c0.2,0,0.3,0,0.4,0c0.5,0,1,0.1,1.4,0.4
			l-0.3,0.8c-0.4-0.2-0.8-0.4-1.2-0.4c-1.1,0-1.4,0.7-1.4,1.7v0.3h3.3v5.8h-1.1v-4.9h-2.2v4.9H129.6z"/>
		<path class="st0" d="M139.8,75.1c-0.5,0.3-1.1,0.4-1.6,0.4c-1.5,0.1-2.8-1.1-2.9-2.6c0-0.1,0-0.3,0-0.4c-0.1-1.6,1.2-3,2.8-3.1
			c0.1,0,0.2,0,0.4,0c0.5,0,1,0.1,1.4,0.3l-0.3,0.8c-0.4-0.2-0.8-0.3-1.2-0.3c-1.1,0-2,0.8-2.1,1.9c0,0.1,0,0.2,0,0.3
			c-0.1,1.1,0.7,2.1,1.8,2.2c0.1,0,0.2,0,0.2,0c0.4,0,0.9-0.1,1.3-0.3L139.8,75.1z"/>
		<path class="st0" d="M145.2,69.1c0,0.5,0.3,1.1,0.6,1.4c0.8-0.4,1.3-0.9,1.3-1.5c0.1-0.5-0.4-1-0.8-1h-0.1
			C145.8,68,145.3,68.5,145.2,69.1C145.2,69,145.2,69,145.2,69.1 M147.6,73.9c-0.4-0.5-1.3-1.4-2.2-2.5c-0.6,0.4-1,0.9-1,1.6
			c0,0.9,0.6,1.6,1.5,1.6h0.1C146.6,74.7,147.2,74.4,147.6,73.9 M148.9,75.3c-0.2-0.2-0.4-0.4-0.7-0.8c-0.6,0.6-1.4,0.9-2.3,0.9
			c-1.3,0.1-2.3-0.7-2.4-2c0-0.1,0-0.2,0-0.3c0-1,0.6-1.9,1.5-2.3l0,0c-0.4-0.4-0.6-1.1-0.6-1.6c0-1.1,0.8-2,1.9-2h0.1
			c0.9-0.1,1.7,0.6,1.8,1.5c0,0.1,0,0.1,0,0.2c0,0.8-0.4,1.5-1.7,2.2l0,0l2,2.2c0.4-0.7,0.6-1.4,0.7-2.2h0.9c-0.1,1.1-0.4,2.1-1.1,3
			l1.3,1.3L148.9,75.3z"/>
		<path class="st0" d="M160.5,71.9c0-1.1-0.1-2.4-0.1-3.4l0,0c-0.3,0.9-0.6,1.9-1,3.1l-1.4,3.9h-0.8l-1.3-3.8
			c-0.4-1.1-0.7-2.2-0.9-3.1l0,0c0,1-0.1,2.3-0.2,3.5l-0.3,3.4h-1l0.5-8h1.3l1.3,3.9c0.4,1,0.6,1.9,0.8,2.7l0,0
			c0.2-0.8,0.4-1.7,0.8-2.7l1.4-3.9h1.3l0.5,8h-1L160.5,71.9z"/>
		<path class="st0" d="M167.1,72c0.1-0.8-0.4-1.5-1.3-1.7c-0.1,0-0.1,0-0.2,0c-0.9,0.1-1.6,0.8-1.6,1.7H167.1z M164,72.7
			c-0.1,1,0.6,1.9,1.6,2c0.1,0,0.2,0,0.3,0c0.5,0,1.1-0.1,1.6-0.3l0.2,0.7c-0.6,0.3-1.3,0.4-1.9,0.4c-1.4,0.1-2.7-1-2.8-2.5
			c0-0.1,0-0.3,0-0.4c-0.2-1.5,0.9-2.9,2.4-3.1c0.1,0,0.2,0,0.3,0c1.3,0,2.4,1.2,2.3,2.5c0,0.1,0,0.1,0,0.2c0,0.2,0,0.4,0,0.4
			L164,72.7z"/>
		<path class="st0" d="M173.3,72c0-0.2,0-0.3,0-0.4c-0.2-0.7-0.8-1.2-1.5-1.2c-1.1,0-1.7,1-1.7,2.2s0.5,2.1,1.7,2.1
			c0.7,0,1.3-0.5,1.5-1.3c0-0.2,0-0.3,0-0.4V72z M174.5,66.9v6.9c0,0.5,0,1.1,0,1.4h-0.9v-1l0,0c-0.4,0.7-1.2,1.2-2,1.1
			c-1.4-0.1-2.5-1.3-2.4-2.8c0-0.1,0-0.1,0-0.2c-0.2-1.5,0.9-2.9,2.4-3.1c0.1,0,0.1,0,0.2,0c0.7,0,1.3,0.3,1.7,0.9l0,0v-3.4
			L174.5,66.9L174.5,66.9z"/>
		<path class="st0" d="M176.3,69.6h1.1v5.8h-1.1V69.6z M177.4,68c0,0.4-0.3,0.6-0.5,0.6h-0.1c-0.4,0-0.6-0.3-0.6-0.6c0,0,0,0,0-0.1
			c0-0.4,0.3-0.6,0.6-0.6c0,0,0,0,0.1,0C177.1,67.4,177.4,67.6,177.4,68L177.4,68"/>
		<path class="st0" d="M183.2,75.1c-0.5,0.3-1.1,0.4-1.6,0.4c-1.5,0.1-2.8-1.1-2.9-2.6c0-0.1,0-0.3,0-0.4c-0.1-1.6,1.2-3,2.8-3.1
			c0.1,0,0.2,0,0.4,0c0.4,0,1,0.1,1.4,0.3l-0.3,0.8c-0.4-0.2-0.8-0.3-1.2-0.3c-1.1,0-2,0.8-2.1,1.9c0,0.1,0,0.2,0,0.3
			c-0.1,1.1,0.7,2.1,1.8,2.2c0.1,0,0.2,0,0.2,0c0.4,0,0.9-0.1,1.3-0.3L183.2,75.1z"/>
		<path class="st0" d="M187.6,72.4c-1.1,0-2.4,0.2-2.4,1.3c0,0.5,0.4,1,0.9,1h0.1c0.6,0,1.2-0.4,1.3-1c0-0.1,0.1-0.2,0.1-0.4
			L187.6,72.4L187.6,72.4z M187.7,75.4l-0.1-0.7l0,0c-0.4,0.5-1.1,0.9-1.8,0.8c-0.9,0.1-1.7-0.6-1.7-1.5v-0.1c0-1.3,1.3-2.2,3.4-2.2
			v-0.1c0.1-0.6-0.4-1.3-1-1.3c-0.1,0-0.2,0-0.3,0c-0.5,0-1.1,0.2-1.5,0.4l-0.3-0.7c0.5-0.4,1.3-0.5,1.9-0.5c1.7,0,2.2,1.2,2.2,2.3
			v2.2c0,0.4,0,0.9,0.1,1.3L187.7,75.4L187.7,75.4z"/>
		<path class="st0" d="M190.4,66.9h1.1v8.4h-1.1V66.9z"/>
		<path class="st0" d="M200.1,71.6h-3.1v2.9h3.4v0.9H196v-8h4.3v0.9H197v2.5h3.1L200.1,71.6z"/>
		<path class="st0" d="M205.7,72c0-0.2,0-0.3,0-0.4c-0.2-0.7-0.8-1.2-1.5-1.2c-1.1,0-1.7,0.9-1.7,2.2s0.5,2.2,1.7,2.2
			c0.7,0,1.3-0.4,1.5-1.1c0.1-0.2,0.1-0.4,0.1-0.5L205.7,72z M205.7,74.5L205.7,74.5c-0.4,0.6-1.1,1.1-1.9,1
			c-1.4-0.1-2.5-1.3-2.4-2.8v-0.1c-0.2-1.5,0.9-2.9,2.3-3.1c0.1,0,0.2,0,0.2,0c0.7,0,1.4,0.4,1.8,1l0,0v-0.9h1c0,0.4,0,1,0,1.5v6.5
			h-1.1L205.7,74.5z"/>
		<path class="st0" d="M213.4,73.8c0,0.6,0,1.1,0,1.5h-0.9v-0.9l0,0c-0.4,0.7-1.1,1.1-1.9,1.1c-0.9,0-2-0.5-2-2.5v-3.3h1.1v3.1
			c0,1.1,0.4,1.8,1.3,1.8c0.6,0,1.2-0.4,1.3-0.9c0.1-0.2,0.1-0.4,0.1-0.5v-3.6h1.1L213.4,73.8z"/>
		<path class="st0" d="M215.2,69.6h1.1v5.8h-1.1V69.6z M216.3,68c0,0.4-0.3,0.6-0.6,0.6c-0.4,0-0.6-0.3-0.6-0.6
			c0-0.4,0.3-0.6,0.6-0.6l0,0C216.1,67.4,216.3,67.6,216.3,68L216.3,68"/>
		<path class="st0" d="M219.2,73c0,0.2,0,0.3,0,0.4c0.2,0.7,0.8,1.3,1.5,1.3c1.1,0,1.7-0.9,1.7-2.2s-0.6-2.2-1.7-2.2
			c-0.9,0.1-1.6,0.8-1.6,1.7L219.2,73z M218.1,71.5c0-0.7,0-1.3,0-1.9h0.9v1l0,0c0.4-0.7,1.2-1.2,2.1-1.1c1.4,0.1,2.5,1.3,2.4,2.8
			c0,0.1,0,0.1,0,0.2c0,2.1-1.3,3.1-2.6,3.1c-0.7,0-1.3-0.3-1.8-0.9l0,0v3.1h-1V71.5z"/>
		<path class="st0" d="M225,71.1c0-0.6,0-1.1,0-1.5h0.9v0.9l0,0c0.4-0.6,1.1-1.1,1.8-1.1c0.7,0,1.3,0.4,1.6,1.1l0,0
			c0.2-0.3,0.4-0.5,0.6-0.7c0.4-0.3,0.8-0.4,1.3-0.4c0.7,0,1.9,0.5,1.9,2.5v3.3h-1v-3.1c0-1.1-0.4-1.8-1.3-1.8c-0.5,0-1.1,0.4-1.3,1
			c-0.1,0.2-0.1,0.4-0.1,0.5v3.5h-1V72c0-0.9-0.4-1.5-1.2-1.5c-0.6,0-1.2,0.4-1.3,1.1c-0.1,0.2-0.1,0.4-0.1,0.5v3.4h-1L225,71.1z"/>
		<path class="st0" d="M238.6,72c0.1-0.8-0.4-1.5-1.3-1.7c-0.1,0-0.1,0-0.2,0c-0.9,0.1-1.6,0.8-1.6,1.7H238.6z M235.6,72.7
			c-0.1,1,0.6,1.9,1.6,2c0.1,0,0.3,0,0.4,0c0.5,0,1.1-0.1,1.6-0.3l0.2,0.7c-0.6,0.3-1.3,0.4-1.9,0.4c-1.4,0.1-2.7-1-2.8-2.5
			c0-0.1,0-0.3,0-0.4c-0.2-1.5,0.9-2.9,2.4-3.1c0.1,0,0.2,0,0.3,0c1.3,0.1,2.3,1.2,2.3,2.5v0.1c0,0.2,0,0.4,0,0.4L235.6,72.7z"/>
		<path class="st0" d="M241,71.1c0-0.6,0-1.1-0.1-1.5h0.9l0.1,1l0,0c0.4-0.7,1.1-1.1,1.9-1.1s2.1,0.4,2.1,2.4v3.4h-1.1V72
			c0-0.9-0.4-1.7-1.3-1.7c-0.6,0-1.3,0.4-1.4,1.1c-0.1,0.2-0.1,0.3-0.1,0.4v3.4h-1.1L241,71.1z"/>
		<path class="st0" d="M248.9,68v1.6h1.5v0.8h-1.5v3.1c0,0.7,0.2,1.1,0.8,1.1c0.2,0,0.4,0,0.6-0.1v0.8c-0.3,0.1-0.6,0.2-0.9,0.2
			c-0.4,0-0.8-0.2-1.1-0.4c-0.4-0.4-0.4-1-0.4-1.5v-3.1h-0.9v-0.8h0.9v-1.3L248.9,68z"/>
		<path class="st0" d="M255.4,67.4v3.3h3.9v-3.3h1.1v8h-1.1v-3.8h-3.9v3.7h-1v-8L255.4,67.4L255.4,67.4z"/>
		<path class="st0" d="M262.8,72.5c0,1.3,0.7,2.2,1.7,2.2s1.7-0.9,1.7-2.2c0-1-0.4-2.2-1.7-2.2S262.8,71.4,262.8,72.5 M267.3,72.4
			c0.1,1.5-1,2.9-2.5,3.1c-0.1,0-0.2,0-0.3,0c-1.5,0-2.7-1.2-2.7-2.7c0-0.1,0-0.2,0-0.3c-0.1-1.5,1-2.9,2.5-3.1c0.1,0,0.2,0,0.3,0
			c1.5,0,2.7,1.2,2.8,2.7C267.3,72.2,267.3,72.3,267.3,72.4"/>
		<path class="st0" d="M273.6,73.8c0,0.6,0,1.1,0,1.5h-0.9l-0.1-0.9l0,0c-0.4,0.7-1.1,1.1-1.9,1.1c-0.9,0-2-0.5-2-2.5v-3.3h1.1v3.1
			c0,1.1,0.4,1.8,1.3,1.8c0.6,0,1.2-0.4,1.3-0.9c0.1-0.2,0.1-0.4,0.1-0.5v-3.6h1.1V73.8z"/>
		<path class="st0" d="M275.2,74.3c0.4,0.3,0.9,0.4,1.3,0.4c0.7,0,1.1-0.4,1.1-0.8s-0.3-0.8-1.1-1.1c-1-0.4-1.5-0.9-1.5-1.6
			c0-1,0.9-1.7,1.9-1.7c0.1,0,0.1,0,0.2,0c0.4,0,1,0.1,1.4,0.4l-0.3,0.7c-0.4-0.2-0.7-0.4-1.2-0.4c-0.6,0-1,0.4-1,0.8s0.4,0.7,1.1,1
			c1,0.4,1.5,0.9,1.5,1.7s-0.8,1.7-2.2,1.7c-0.5,0-1.1-0.1-1.6-0.4L275.2,74.3z"/>
		<path class="st0" d="M283.8,72c0.1-0.8-0.4-1.5-1.3-1.7c-0.1,0-0.1,0-0.2,0c-0.9,0.1-1.6,0.8-1.6,1.7H283.8z M280.8,72.7
			c-0.1,1,0.6,1.9,1.6,2c0.1,0,0.2,0,0.3,0c0.5,0,1.1-0.1,1.6-0.3l0.2,0.7c-0.6,0.3-1.3,0.4-1.9,0.4c-1.4,0.1-2.7-1-2.8-2.5
			c0-0.1,0-0.3,0-0.4c-0.2-1.5,0.9-2.9,2.4-3.1c0.1,0,0.2,0,0.3,0c1.3,0,2.4,1.2,2.3,2.5c0,0.1,0,0.1,0,0.2c0,0.2,0,0.4,0,0.4
			L280.8,72.7z"/>
	</g>
</g>
</svg>
