<svg xmlns="http://www.w3.org/2000/svg" viewBox="0 0 243.88 50"><defs><style>.cls-1{fill:#3e3e3e;}</style></defs><title>SMEH- Web- Dark</title><g id="Layer_2" data-name="Layer 2"><g id="Layer_1-2" data-name="Layer 1"><path class="cls-1" d="M0,0H8.28V17.57L23,0h9.52L12.73,25,25.64,42.33h1.87V50H21.9L8.28,31.25V50H0Z"/><path class="cls-1" d="M34.63,0h9.61l-19,23.77H57a4.48,4.48,0,0,1,4.48,4.48V45.52A4.48,4.48,0,0,1,57,50H29.13V42.33H54.39V30.71h-35l-3.58-5.15a1.05,1.05,0,0,1,0-1.25Z"/><path class="cls-1" d="M77.24,24.27a1,1,0,0,1,.81.37,1,1,0,0,1,.28.72,1.11,1.11,0,0,1-1.09,1.09,1,1,0,0,1-.81-.36,1,1,0,0,1-.28-.73,1.06,1.06,0,0,1,.36-.81,1.09,1.09,0,0,1,.73-.28M75.55,29a1.31,1.31,0,0,0-.83.26,1.7,1.7,0,0,0-.49,1.32,1.72,1.72,0,0,0,.38,1.14,1.17,1.17,0,0,0,.81.43l.18,0a2.47,2.47,0,0,0,.58-.07v-3a2.47,2.47,0,0,0-.63-.08m-.83-4.73a1.11,1.11,0,0,1,1.09,1.09,1,1,0,0,1-.36.81,1,1,0,0,1-.73.28,1.06,1.06,0,0,1-.81-.36,1.09,1.09,0,0,1-.28-.73,1,1,0,0,1,.37-.81,1,1,0,0,1,.72-.28M78.33,27v4.81a.24.24,0,0,0,0,.14.29.29,0,0,0,.17,0H79v1.81H77.92a1.84,1.84,0,0,1-1.28-.56,2.52,2.52,0,0,1-.79.49,2.28,2.28,0,0,1-.9.19,2.48,2.48,0,0,1-1.76-.66,3.47,3.47,0,0,1-1.08-2.66,3.6,3.6,0,0,1,.8-2.37,3,3,0,0,1,2.37-1.09,3.59,3.59,0,0,1,1.41.31l.58-.46Z"/><path class="cls-1" d="M82.51,34.43a1,1,0,0,1,.81.37,1,1,0,0,1,.28.72,1,1,0,0,1-.37.81,1,1,0,0,1-.72.28,1,1,0,0,1-.81-.36,1,1,0,0,1-.28-.73,1.06,1.06,0,0,1,.36-.81,1.07,1.07,0,0,1,.73-.28m1.09-7.08v4.5a.57.57,0,0,0,0,.12h.7v1.81h-.45l-.6-.66h0a1.65,1.65,0,0,1-1.36.66H78.94V32h2.22a.23.23,0,0,0,.21-.08.26.26,0,0,0,.07-.2V27.35ZM80,34.43a1,1,0,0,1,.81.37,1,1,0,0,1,.28.72A1.09,1.09,0,0,1,80,36.61a1.08,1.08,0,0,1-.82-.36,1,1,0,0,1-.28-.73,1.06,1.06,0,0,1,.36-.81,1.12,1.12,0,0,1,.74-.28"/><path class="cls-1" d="M89.58,29a1,1,0,0,0-.9.61,2.38,2.38,0,0,0-.22,1.07q0,1.71,1,1.74a1.46,1.46,0,0,0,.94-.42V29.79a.87.87,0,0,0-.21-.56.8.8,0,0,0-.63-.26m-.1-1.79a3.33,3.33,0,0,1,2.22.67,2.42,2.42,0,0,1,.87,1.94v2a.24.24,0,0,0,.05.14.34.34,0,0,0,.17,0H93v1.81h-.85A1.71,1.71,0,0,1,91,33.36a2,2,0,0,1-.79.61,2.37,2.37,0,0,1-1,.22,2.55,2.55,0,0,1-1.95-.88h-.05l-.37.47H84.2V32h2.26a8.12,8.12,0,0,1-.13-1.52,3.15,3.15,0,0,1,1-2.53,3.11,3.11,0,0,1,2.1-.74"/><path class="cls-1" d="M97.58,23.77v8.08a.74.74,0,0,0,0,.12h.68v1.81h-.45l-.58-.66h0a1.65,1.65,0,0,1-1.36.66H92.92V32h2.32a.19.19,0,0,0,.12,0,.18.18,0,0,0,.07-.15v-8Z"/><path class="cls-1" d="M104,29a2.3,2.3,0,0,0-1,.2,1.14,1.14,0,0,0-.66.65,4.3,4.3,0,0,1,.8.79,4.22,4.22,0,0,1,.75,1.07H104a4.14,4.14,0,0,1,.83-1.14,4.26,4.26,0,0,1,.73-.72,1.39,1.39,0,0,0-.79-.71A2.11,2.11,0,0,0,104,29m.1-1.8a3.62,3.62,0,0,1,2.07.61A4,4,0,0,1,107.76,30l-.18.44a4.31,4.31,0,0,0-.84.69A4.37,4.37,0,0,0,106,32h1.9v1.81h-3.29a.89.89,0,0,1-.64-.34h-.06a.92.92,0,0,1-.68.34h-5V32h3.71a4.25,4.25,0,0,0-.73-.88,4.43,4.43,0,0,0-.87-.7l-.16-.44a3.8,3.8,0,0,1,1.81-2.23,4.37,4.37,0,0,1,2.14-.51"/><path class="cls-1" d="M112.47,23.77V32a1.7,1.7,0,0,1-.4,1.11,1.67,1.67,0,0,1-1.34.63H107.8V32h2.32a.17.17,0,0,0,.12,0,.18.18,0,0,0,.07-.15v-8Z"/><path class="cls-1" d="M116.55,23.77v9.47l-1.09.88h-1.07V23.77Z"/><path class="cls-1" d="M121.55,29a1,1,0,0,0-.84.39,1.68,1.68,0,0,0-.31,1.07,2.05,2.05,0,0,0,.25,1.06,1.21,1.21,0,0,0,.7.58,1.1,1.1,0,0,0,.37.06,2.2,2.2,0,0,0,.62-.11V29.81a.78.78,0,0,0-.23-.6.74.74,0,0,0-.56-.23m0-1.8a3.15,3.15,0,0,1,1.9.56,2.36,2.36,0,0,1,1,2.05v3.45a3.56,3.56,0,0,1-1.15,2.86,3.82,3.82,0,0,1-1.8.89,4.64,4.64,0,0,1-1,.11l-.36,0-.88-1.1v-.74l.15,0a4.14,4.14,0,0,0,.64.07,2.4,2.4,0,0,0,1.75-.62,2.07,2.07,0,0,0,.48-.92,4,4,0,0,1-.87.11,3.83,3.83,0,0,1-.6,0,3,3,0,0,1-1.9-1.32,3.52,3.52,0,0,1-.63-2,3.3,3.3,0,0,1,.87-2.35,3.19,3.19,0,0,1,2.41-1"/><path class="cls-1" d="M133.76,24.27a1.11,1.11,0,0,1,1.09,1.09,1,1,0,0,1-.36.81,1,1,0,0,1-.73.28,1.06,1.06,0,0,1-.81-.36,1.09,1.09,0,0,1-.28-.73,1,1,0,0,1,.37-.81,1,1,0,0,1,.72-.28M132.07,29a1.28,1.28,0,0,0-.82.26,1.66,1.66,0,0,0-.49,1.32,1.72,1.72,0,0,0,.37,1.14,1.21,1.21,0,0,0,.82.43l.18,0a2.46,2.46,0,0,0,.57-.07v-3a2.37,2.37,0,0,0-.63-.08m-.82-4.73a1,1,0,0,1,.81.37,1,1,0,0,1,.28.72,1.11,1.11,0,0,1-1.09,1.09,1,1,0,0,1-.81-.36,1,1,0,0,1-.28-.73,1.06,1.06,0,0,1,.36-.81,1.09,1.09,0,0,1,.73-.28m3.6,2.7v4.81a.2.2,0,0,0,.06.14.26.26,0,0,0,.17,0h.47v1.81h-1.1a1.84,1.84,0,0,1-1.29-.56,2.36,2.36,0,0,1-.78.49,2.32,2.32,0,0,1-.91.19,2.48,2.48,0,0,1-1.76-.66,3.47,3.47,0,0,1-1.08-2.66,3.65,3.65,0,0,1,.8-2.37,3,3,0,0,1,2.38-1.09,3.67,3.67,0,0,1,1.41.31l.57-.46Z"/><path class="cls-1" d="M139,34.43a1.11,1.11,0,0,1,1.09,1.09,1,1,0,0,1-.36.81,1,1,0,0,1-.73.28,1,1,0,0,1-.81-.36,1,1,0,0,1-.28-.73,1.06,1.06,0,0,1,.36-.81,1.09,1.09,0,0,1,.73-.28m1.09-7.08v4.5a.57.57,0,0,0,0,.12h.7v1.81h-.44l-.61-.66h0a1.62,1.62,0,0,1-1.35.66h-2.92V32h2.22a.25.25,0,0,0,.21-.08.3.3,0,0,0,.07-.2V27.35Zm-3.59,7.08a1,1,0,0,1,.81.37,1,1,0,0,1,.28.72,1,1,0,0,1-.36.81,1,1,0,0,1-.73.28,1.09,1.09,0,0,1-1.11-1.09,1.07,1.07,0,0,1,.37-.81,1.08,1.08,0,0,1,.74-.28"/><path class="cls-1" d="M144.3,34.43a1,1,0,0,1,.81.37,1.09,1.09,0,0,1-.81,1.81,1,1,0,0,1-.81-.36,1,1,0,0,1-.28-.73,1.06,1.06,0,0,1,.36-.81,1.09,1.09,0,0,1,.73-.28m1.09-7.08v4.5a.57.57,0,0,0,0,.12h.69v1.81h-.44l-.6-.66h0a1.64,1.64,0,0,1-1.35.66h-2.94V32H143a.25.25,0,0,0,.21-.08.35.35,0,0,0,.07-.2V27.35Z"/><path class="cls-1" d="M154.58,29a3.32,3.32,0,0,0-1.77.56,6.17,6.17,0,0,0-2.17,2.4h5.83c.13,0,.2-.06.2-.19v-.9a1.73,1.73,0,0,0-.77-1.46,2.18,2.18,0,0,0-1.32-.41m-3.92-5.24v5.3a6,6,0,0,1,2.19-1.56,5.66,5.66,0,0,1,2-.34h.46a3.72,3.72,0,0,1,2.76,1.35,3.3,3.3,0,0,1,.76,2.12V32h.45v1.81H159l-.52-.66h0a1.67,1.67,0,0,1-1.36.66H146V32h2.51v-8.2Z"/><path class="cls-1" d="M163.83,23.77V32a1.75,1.75,0,0,1-.39,1.11,1.67,1.67,0,0,1-1.34.63h-2.93V32h2.32a.19.19,0,0,0,.12,0,.18.18,0,0,0,.07-.15v-8Z"/><path class="cls-1" d="M167.91,23.77v9.47l-1.09.88h-1.06V23.77Z"/><path class="cls-1" d="M179.71,27a1.06,1.06,0,0,1,.81.36,1,1,0,0,1,.28.73,1.11,1.11,0,0,1-1.09,1.09,1,1,0,0,1-.81-.36,1,1,0,0,1-.28-.73,1,1,0,0,1,.36-.81,1,1,0,0,1,.73-.28m-2.5,0a1.06,1.06,0,0,1,.81.36,1.09,1.09,0,0,1,.28.73,1.11,1.11,0,0,1-1.09,1.09,1,1,0,0,1-.81-.36,1,1,0,0,1-.28-.73,1,1,0,0,1,.36-.81,1,1,0,0,1,.73-.28m7.29.38V32a1.67,1.67,0,0,1-.4,1.12,1.7,1.7,0,0,1-1.33.62h-7.69a2.59,2.59,0,0,1-1.72-.63,2.63,2.63,0,0,1-1-2.09V29.23l1.09-.88h1.07v2.71a.91.91,0,0,0,.29.69.81.81,0,0,0,.56.22h6.73c.13,0,.2-.06.2-.19V27.35Z"/><path class="cls-1" d="M188.58,23.77v9.47l-1.09.88h-1.06V23.77Z"/><path class="cls-1" d="M192.51,27.18a3.74,3.74,0,0,1,2.65,1,3.4,3.4,0,0,1,1.05,2.56V32h.36v1.81h-.18l-.51-.66h0a1.94,1.94,0,0,1-.22.25,1.8,1.8,0,0,1-1.1.41h-4.42V32h3.77c.13,0,.2-.06.2-.19v-.91a1.93,1.93,0,0,0-.56-1.45,1.88,1.88,0,0,0-.61-.35,1.84,1.84,0,0,0-.72-.14,3.91,3.91,0,0,0-.67,0V27.26a5.19,5.19,0,0,1,1-.08"/><path class="cls-1" d="M202.26,29a2.38,2.38,0,0,0-1,.2,1.15,1.15,0,0,0-.65.65,4.34,4.34,0,0,1,.79.79,4.06,4.06,0,0,1,.76,1.07h.08a4.14,4.14,0,0,1,.83-1.14,4.29,4.29,0,0,1,.72-.72,1.34,1.34,0,0,0-.78-.71,2.11,2.11,0,0,0-.77-.14m.1-1.8a3.67,3.67,0,0,1,2.07.61A4,4,0,0,1,206,30l-.19.44a4.65,4.65,0,0,0-.83.69,4.84,4.84,0,0,0-.75.89h1.9v1.81h-3.28a.89.89,0,0,1-.64-.34h-.06a.92.92,0,0,1-.68.34h-5V32h3.71a4.6,4.6,0,0,0-.73-.88,4.43,4.43,0,0,0-.87-.7L198.4,30a3.85,3.85,0,0,1,1.82-2.23,4.37,4.37,0,0,1,2.14-.51"/><path class="cls-1" d="M211.46,29a1,1,0,0,0-.9.61,2.38,2.38,0,0,0-.22,1.07q0,1.71,1,1.74a1.46,1.46,0,0,0,.94-.42V29.79a.87.87,0,0,0-.21-.56.8.8,0,0,0-.63-.26m-.1-1.79a3.33,3.33,0,0,1,2.22.67,2.42,2.42,0,0,1,.87,1.94v2a.24.24,0,0,0,.05.14.34.34,0,0,0,.17,0h.23v1.81H214a1.71,1.71,0,0,1-1.14-.42,2,2,0,0,1-.79.61,2.37,2.37,0,0,1-1,.22,2.55,2.55,0,0,1-2-.88h0l-.38.47h-2.64V32h2.26a8.21,8.21,0,0,1-.12-1.52,3,3,0,0,1,3.14-3.27"/><path class="cls-1" d="M219.46,23.77V32a1.75,1.75,0,0,1-.39,1.11,1.67,1.67,0,0,1-1.34.63H214.8V32h2.32a.19.19,0,0,0,.12,0,.18.18,0,0,0,.07-.15v-8Z"/><path class="cls-1" d="M223.54,23.77v9.47l-1.09.88h-1.06V23.77Z"/><path class="cls-1" d="M232.17,27.35v5.89A3.56,3.56,0,0,1,231,36.15a4.08,4.08,0,0,1-1.69.84,5.37,5.37,0,0,1-1.09.11l-.38,0-.88-1.1v-.73l.16,0a4,4,0,0,0,.64.07,2.43,2.43,0,0,0,1.72-.58A2.36,2.36,0,0,0,230,33V27.35Z"/><path class="cls-1" d="M236.25,23.77v9.47l-1.09.88h-1.07V23.77Z"/><path class="cls-1" d="M240.17,27.18a3.76,3.76,0,0,1,2.66,1,3.4,3.4,0,0,1,1,2.56V32a1.66,1.66,0,0,1-.56,1.28,1.73,1.73,0,0,1-1.18.46h-4.38V32h3.77a.17.17,0,0,0,.19-.19v-.91a1.89,1.89,0,0,0-.56-1.45,1.83,1.83,0,0,0-.6-.35,1.92,1.92,0,0,0-.72-.14,3.84,3.84,0,0,0-.67,0V27.26a5.08,5.08,0,0,1,1-.08"/><path class="cls-1" d="M72.65,46.75a3.22,3.22,0,0,0,1.66.47c1,0,1.51-.5,1.51-1.23s-.38-1.06-1.36-1.43c-1.17-.42-1.9-1-1.9-2a2.08,2.08,0,0,1,2.33-2,3.15,3.15,0,0,1,1.59.36l-.25.75a3,3,0,0,0-1.37-.34c-1,0-1.36.59-1.36,1.08,0,.68.44,1,1.43,1.39,1.22.47,1.84,1.06,1.84,2.12S76,48,74.25,48a3.69,3.69,0,0,1-1.84-.46Z"/><path class="cls-1" d="M81.87,47.69a3.46,3.46,0,0,1-1.49.3,2.45,2.45,0,0,1-2.57-2.64,2.62,2.62,0,0,1,2.78-2.74,3.15,3.15,0,0,1,1.3.26l-.21.73a2.18,2.18,0,0,0-1.09-.25,1.79,1.79,0,0,0-1.83,2,1.77,1.77,0,0,0,1.79,1.93A2.82,2.82,0,0,0,81.71,47Z"/><path class="cls-1" d="M83.08,42.71H84v5.17h-.94Zm1-1.45a.58.58,0,0,1-1.16,0,.57.57,0,0,1,.59-.59.56.56,0,0,1,.57.59"/><path class="cls-1" d="M89,44.8a1.34,1.34,0,0,0-1.3-1.53,1.55,1.55,0,0,0-1.44,1.53Zm-2.75.67A1.65,1.65,0,0,0,88,47.26,3.4,3.4,0,0,0,89.41,47l.16.67a4.15,4.15,0,0,1-1.72.32,2.4,2.4,0,0,1-2.54-2.61,2.51,2.51,0,0,1,2.42-2.79A2.2,2.2,0,0,1,89.87,45a3.94,3.94,0,0,1,0,.44Z"/><path class="cls-1" d="M91.14,44.11c0-.53,0-1,0-1.4h.83l.06.86h0a1.89,1.89,0,0,1,1.71-1c.71,0,1.83.43,1.83,2.2v3.09h-.94v-3c0-.83-.31-1.53-1.2-1.53a1.41,1.41,0,0,0-1.33,1.4v3.11h-.94Z"/><path class="cls-1" d="M98.27,41.23v1.48h1.35v.72H98.27v2.79c0,.64.18,1,.71,1a2.23,2.23,0,0,0,.54-.06l0,.7a2.17,2.17,0,0,1-.83.13,1.3,1.3,0,0,1-1-.39,1.91,1.91,0,0,1-.37-1.35V43.43h-.8v-.72h.8V41.47Z"/><path class="cls-1" d="M100.78,42.71h.94v5.17h-.94Zm1-1.45a.59.59,0,0,1-1.17,0,.58.58,0,0,1,.59-.59.56.56,0,0,1,.58.59"/><path class="cls-1" d="M103.49,47.88V43.43h-.73v-.72h.73v-.28a2.07,2.07,0,0,1,2.25-2.25,2.58,2.58,0,0,1,1.31.34l-.26.72a2,2,0,0,0-1.09-.3c-1,0-1.28.69-1.28,1.51v.26h3v5.17h-.93V43.43h-2.07v4.45Z"/><path class="cls-1" d="M112.77,47.69a3.4,3.4,0,0,1-1.48.3,2.46,2.46,0,0,1-2.58-2.64,2.62,2.62,0,0,1,2.78-2.74,3.07,3.07,0,0,1,1.3.26l-.21.73a2.15,2.15,0,0,0-1.09-.25,1.79,1.79,0,0,0-1.83,2,1.77,1.77,0,0,0,1.8,1.93,2.81,2.81,0,0,0,1.15-.25Z"/><path class="cls-1" d="M117.57,42.25a2,2,0,0,0,.54,1.29c.73-.41,1.2-.8,1.2-1.41a.85.85,0,0,0-.83-.93.94.94,0,0,0-.91,1m2.19,4.39c-.43-.47-1.23-1.34-2-2.26a1.74,1.74,0,0,0-.93,1.46,1.42,1.42,0,0,0,1.47,1.46,2,2,0,0,0,1.49-.66m1.13,1.24c-.2-.2-.4-.4-.67-.7a3,3,0,0,1-2.11.82,2,2,0,0,1-2.21-2,2.36,2.36,0,0,1,1.41-2.1v0a2.49,2.49,0,0,1-.6-1.5,1.75,1.75,0,0,1,1.83-1.78,1.5,1.5,0,0,1,1.59,1.53c0,.76-.44,1.36-1.58,1.93v0l1.75,2A5.37,5.37,0,0,0,121,44h.85a5.5,5.5,0,0,1-1,2.66L122,47.88Z"/><path class="cls-1" d="M131.39,44.72c0-1-.12-2.21-.11-3.11h0c-.24.84-.54,1.74-.91,2.74l-1.27,3.49h-.7l-1.17-3.43c-.34-1-.63-1.94-.83-2.8h0c0,.9-.08,2.11-.14,3.19L126,47.88h-.89l.5-7.2h1.19l1.23,3.48c.3.89.54,1.68.72,2.43h0c.19-.73.44-1.52.76-2.43l1.29-3.48H132l.45,7.2h-.91Z"/><path class="cls-1" d="M137.33,44.8a1.34,1.34,0,0,0-1.3-1.53,1.55,1.55,0,0,0-1.44,1.53Zm-2.75.67a1.65,1.65,0,0,0,1.77,1.79,3.4,3.4,0,0,0,1.43-.26l.16.67a4.19,4.19,0,0,1-1.72.32,2.4,2.4,0,0,1-2.54-2.61,2.51,2.51,0,0,1,2.42-2.79A2.2,2.2,0,0,1,138.24,45a3.94,3.94,0,0,1,0,.44Z"/><path class="cls-1" d="M143,44.82a1.81,1.81,0,0,0,0-.4,1.39,1.39,0,0,0-1.36-1.09c-1,0-1.55.86-1.55,2s.51,1.91,1.53,1.91A1.41,1.41,0,0,0,143,46.12a1.78,1.78,0,0,0,0-.41ZM144,40.3v6.25c0,.46,0,1,0,1.33h-.84l0-.89h0a1.9,1.9,0,0,1-1.76,1,2.36,2.36,0,0,1-2.21-2.63,2.48,2.48,0,0,1,2.32-2.78,1.75,1.75,0,0,1,1.56.79h0V40.3Z"/><path class="cls-1" d="M145.65,42.71h.94v5.17h-.94Zm1-1.45a.55.55,0,0,1-.59.57.55.55,0,0,1-.57-.57.57.57,0,0,1,.59-.59.56.56,0,0,1,.57.59"/><path class="cls-1" d="M151.94,47.69a3.46,3.46,0,0,1-1.49.3,2.45,2.45,0,0,1-2.57-2.64,2.62,2.62,0,0,1,2.78-2.74,3.11,3.11,0,0,1,1.3.26l-.21.73a2.18,2.18,0,0,0-1.09-.25,1.79,1.79,0,0,0-1.83,2,1.77,1.77,0,0,0,1.8,1.93,2.81,2.81,0,0,0,1.15-.25Z"/><path class="cls-1" d="M155.87,45.24c-1,0-2.19.16-2.19,1.17a.84.84,0,0,0,.89.9,1.29,1.29,0,0,0,1.25-.87,1,1,0,0,0,.05-.3Zm.14,2.64-.07-.65h0a1.93,1.93,0,0,1-1.59.77,1.48,1.48,0,0,1-1.58-1.48c0-1.25,1.11-1.94,3.11-1.93v-.1a1.07,1.07,0,0,0-1.17-1.2,2.6,2.6,0,0,0-1.35.38l-.21-.62a3.24,3.24,0,0,1,1.7-.46c1.58,0,2,1.08,2,2.12v1.93a6.68,6.68,0,0,0,.09,1.24Z"/><path class="cls-1" d="M158.41,40.3h.94v7.58h-.94Z"/><path class="cls-1" d="M167.17,44.51h-2.8V47.1h3.12v.78h-4.05v-7.2h3.89v.78h-3v2.28h2.8Z"/><path class="cls-1" d="M172.25,44.81a1.75,1.75,0,0,0,0-.4,1.37,1.37,0,0,0-1.35-1.07c-1,0-1.56.82-1.56,2s.49,1.92,1.53,1.92a1.41,1.41,0,0,0,1.35-1,1.69,1.69,0,0,0,.07-.45Zm0,2.27h0a1.84,1.84,0,0,1-1.69.92,2.36,2.36,0,0,1-2.19-2.62,2.48,2.48,0,0,1,2.34-2.79,1.7,1.7,0,0,1,1.59.9h0l0-.78h.88c0,.44,0,.89,0,1.42V50h-.94Z"/><path class="cls-1" d="M179.18,46.47c0,.54,0,1,0,1.41h-.84l0-.84h0a1.93,1.93,0,0,1-1.71,1c-.81,0-1.78-.45-1.78-2.26v-3h.94v2.86c0,1,.3,1.65,1.15,1.65a1.37,1.37,0,0,0,1.24-.85,1.46,1.46,0,0,0,.09-.48V42.71h.94Z"/><path class="cls-1" d="M180.84,42.71h.94v5.17h-.94Zm1-1.45a.58.58,0,0,1-1.16,0,.57.57,0,0,1,.58-.59.56.56,0,0,1,.58.59"/><path class="cls-1" d="M184.38,45.78a2.11,2.11,0,0,0,0,.38,1.44,1.44,0,0,0,1.41,1.1c1,0,1.57-.81,1.57-2s-.54-1.93-1.53-1.93a1.61,1.61,0,0,0-1.49,1.55Zm-.93-1.38c0-.66,0-1.2,0-1.69h.84l0,.89h0a2,2,0,0,1,1.83-1,2.35,2.35,0,0,1,2.2,2.63c0,1.86-1.14,2.78-2.36,2.78a1.82,1.82,0,0,1-1.59-.81h0V50h-.93Z"/><path class="cls-1" d="M189.64,44.11c0-.53,0-1,0-1.4h.83l0,.83h0a1.79,1.79,0,0,1,1.63-.95,1.53,1.53,0,0,1,1.46,1h0a2,2,0,0,1,.58-.67,1.73,1.73,0,0,1,1.14-.37c.69,0,1.7.45,1.7,2.25v3h-.92V45c0-1-.36-1.6-1.12-1.6a1.22,1.22,0,0,0-1.11.86,1.65,1.65,0,0,0-.08.47v3.19h-.92v-3.1c0-.82-.36-1.42-1.07-1.42a1.29,1.29,0,0,0-1.17.94,1.39,1.39,0,0,0-.07.46v3.12h-.92Z"/><path class="cls-1" d="M201.94,44.8a1.34,1.34,0,0,0-1.31-1.53,1.56,1.56,0,0,0-1.44,1.53Zm-2.76.67A1.65,1.65,0,0,0,201,47.26a3.45,3.45,0,0,0,1.44-.26l.16.67a4.19,4.19,0,0,1-1.72.32,2.41,2.41,0,0,1-2.55-2.61,2.51,2.51,0,0,1,2.43-2.79A2.2,2.2,0,0,1,202.85,45a3.52,3.52,0,0,1,0,.44Z"/><path class="cls-1" d="M204.12,44.11c0-.53,0-1-.05-1.4h.84l.05.86h0a1.9,1.9,0,0,1,1.71-1c.72,0,1.83.43,1.83,2.2v3.09h-.94v-3c0-.83-.31-1.53-1.2-1.53a1.33,1.33,0,0,0-1.26,1,1.35,1.35,0,0,0-.06.43v3.11h-.94Z"/><path class="cls-1" d="M211.24,41.23v1.48h1.35v.72h-1.35v2.79c0,.64.19,1,.71,1a2.26,2.26,0,0,0,.55-.06l0,.7a2.2,2.2,0,0,1-.84.13,1.32,1.32,0,0,1-1-.39,1.91,1.91,0,0,1-.36-1.35V43.43h-.81v-.72h.81V41.47Z"/><path class="cls-1" d="M217.09,40.68v3h3.48v-3h.94v7.2h-.94V44.51h-3.48v3.37h-.93v-7.2Z"/><path class="cls-1" d="M223.78,45.31c0,1.13.65,2,1.57,2s1.57-.85,1.57-2c0-.88-.44-2-1.55-2s-1.59,1-1.59,2m4.1-.06A2.53,2.53,0,0,1,225.3,48a2.45,2.45,0,0,1-2.47-2.66,2.53,2.53,0,0,1,2.56-2.75,2.45,2.45,0,0,1,2.49,2.66"/><path class="cls-1" d="M233.5,46.47c0,.54,0,1,0,1.41h-.83l-.05-.84h0a1.93,1.93,0,0,1-1.71,1c-.81,0-1.78-.45-1.78-2.26v-3h.94v2.86c0,1,.3,1.65,1.15,1.65a1.35,1.35,0,0,0,1.24-.85,1.24,1.24,0,0,0,.09-.48V42.71h.94Z"/><path class="cls-1" d="M235,46.92a2.49,2.49,0,0,0,1.24.38c.68,0,1-.35,1-.77s-.26-.7-1-1c-.93-.34-1.37-.85-1.37-1.47a1.6,1.6,0,0,1,1.79-1.52,2.6,2.6,0,0,1,1.27.32l-.24.69a2,2,0,0,0-1.05-.3c-.56,0-.87.32-.87.7s.31.62,1,.88c.9.34,1.36.79,1.36,1.56s-.7,1.55-1.93,1.55a3,3,0,0,1-1.46-.35Z"/><path class="cls-1" d="M242.79,44.8a1.34,1.34,0,0,0-1.31-1.53A1.56,1.56,0,0,0,240,44.8Zm-2.76.67a1.65,1.65,0,0,0,1.77,1.79,3.45,3.45,0,0,0,1.44-.26l.16.67a4.24,4.24,0,0,1-1.73.32,2.4,2.4,0,0,1-2.54-2.61,2.51,2.51,0,0,1,2.43-2.79A2.19,2.19,0,0,1,243.69,45a3.94,3.94,0,0,1,0,.44Z"/></g></g></svg>