<?xml version="1.0" encoding="utf-8"?>
<!-- Generator: Adobe Illustrator 26.3.1, SVG Export Plug-In . SVG Version: 6.00 Build 0)  -->
<svg version="1.1" id="Layer_1" xmlns="http://www.w3.org/2000/svg" xmlns:xlink="http://www.w3.org/1999/xlink" x="0px" y="0px"
	 viewBox="0 0 300 100" style="enable-background:new 0 0 300 100;" xml:space="preserve">
<style type="text/css">
	.st0{fill:#FFFFFF;}
</style>
<g id="Layer_2_00000165224085531167989760000011125235747336223416_">
	<g id="Layer_1-2">
		<path class="st0" d="M158.9,30V7.6c-0.1-0.5,0-1,0.1-1.5c0.1-0.4,0.6-0.9,0.9-0.9c1.4-0.1,2.9-0.1,4.4,0c0.7,0,1,0.4,1,1.1
			s0,1.3,0,1.9c0,13.9,0,27.8,0,41.7c0,4.6,1.1,5.7,5.8,5.7c7.7,0,15.5,0,23.2,0c1.3,0,2.5-0.1,3.8-0.3c2.2-0.2,3.8-1.9,3.9-4.1
			c0.2-3.2,0.1-6.4,0.1-9.6c0-4.7-3.5-7.6-8.4-7.7c-2.8-0.1-5.7,0-8.6,0c-1.6,0-3.3,0-4.9,0c-1,0-1.5-0.4-1.5-1.5
			c-0.1-0.9-0.1-1.9,0-2.8c0.1-0.9,0.4-1.7,0.9-2.4c5.7-6.9,11.4-13.8,17.1-20.6c0.9-1.1,1.2-1.1,2.4-0.3c0.8,0.6,1.6,1.3,2.3,2
			c1,1,1.1,1.4,0.1,2.6c-3,3.7-6.1,7.3-9.1,10.9c-1.3,1.5-2.6,3.1-3.9,4.7c-0.2,0.3-0.5,0.8-0.4,1c0.3,0.3,0.7,0.5,1.1,0.5
			c2.3,0,4.6,0,6.8,0c3.2-0.1,6.3,1,8.8,3.1c2.9,2.4,3.9,5.7,4.1,9.3c0.2,2.8,0.1,5.6,0,8.4c-0.1,4.1,1.5,6.2,5.6,6.7
			c3.1,0.3,6.2,0.4,9.3,0.2c2.2-0.1,3.1-1.2,3.5-3.3c0.1-0.8,0.1-1.5,0.1-2.3c0-6.5,0-12.9,0-19.4c0-0.5,0-1,0-1.5
			c-0.1-0.6,0.4-1.1,0.9-1.2c0.1,0,0.2,0,0.3,0c1.3,0,2.7,0,4,0c0.5-0.1,1.1,0.3,1.2,0.8c0,0.1,0,0.3,0,0.4c0,0.4,0,0.8,0,1.1
			c0,7.1,0,14.2,0,21.3c-0.1,1.8-0.3,3.5-0.8,5.2c-0.5,2.2-2.2,3.8-4.4,4.3c-1.2,0.3-2.5,0.5-3.7,0.5c-2.9,0.1-5.8,0-8.8,0
			c-3.2,0-6.1-0.7-7.9-3.7c-0.4-0.7-1-0.6-1.4,0c-2.1,3.1-5.2,3.6-8.5,3.7c-10.3,0.1-20.7,0.1-31,0c-2,0.1-4.1-0.5-5.7-1.8
			c-1.9-1.7-2.4-4-2.6-6.3c0-2.2,0-4.4,0-6.5C158.9,41.2,158.9,35.6,158.9,30z"/>
		<path class="st0" d="M92.7,34V7.8c0-0.4,0-0.9,0-1.3C92.7,5.5,93,5,94,5c1.3,0,2.5,0,3.8,0c0.9,0,1.3,0.4,1.3,1.2
			c0,0.6,0,1.1,0,1.7c0,13.3,0,26.6,0,39.9c0,4.5,1.2,6.9,6.8,7.6c2,0.1,4.1,0.1,6.1,0c1.4-0.1,2.6-0.7,3.5-1.7
			c0.4-0.5,0.6-0.5,0.9,0.1c0.7,1.5,1.6,3,2.4,4.5c0.4,0.6,0.4,1.1-0.3,1.4c-1.2,0.6-2.4,1.1-3.7,1.3c-3.5,0.2-7,0.2-10.4,0.2
			c-1.4-0.1-2.7-0.6-3.8-1.5c-0.8-0.6-1.2-0.4-1.3,0.6c-0.1,1.3-0.2,2.6-0.4,4c-0.8,6.4-5.6,11.6-11.9,13c-4.8,1.2-9.7,1.1-14.4-0.3
			c-6.4-1.9-11-7.7-11.3-14.4c-0.5-6.3,0.9-12.6,4-18l0.6-1c0.3-0.6,0.9-0.8,1.5-0.6c0,0,0.1,0,0.1,0.1c1.2,0.6,2.5,1.3,3.7,2
			c0.9,0.5,0.6,1.2,0.2,2c-1,2.2-2.1,4.3-2.9,6.6c-1,2.8-1.2,5.7-0.6,8.6c0.6,4.1,3.5,7.6,7.5,8.8c3.9,1.4,8.1,1.2,11.8-0.6
			c3-1.4,5.1-4.2,5.5-7.5c0.2-1.1,0.3-2.3,0.2-3.4C92.7,51.1,92.7,42.5,92.7,34z"/>
		<path class="st0" d="M118.6,39.1c0-3.7,0-7.3,0-11c0-1.7,0.1-1.8,1.8-1.8c6.8,0,13.7-0.1,20.5,0c5.8,0.1,10.5,4.8,10.5,10.6
			c0.2,7.3,0.1,14.7,0,22c0,1.4-0.1,1.5-1.5,1.5c-7.2,0-14.3,0.1-21.5,0c-5.1-0.1-9.8-5-9.9-10.2C118.5,46.4,118.6,42.8,118.6,39.1
			L118.6,39.1z M144.9,44.7L144.9,44.7c0-2.2-0.1-4.4,0-6.6c0.2-2.7-1.8-5.1-4.5-5.3c-0.2,0-0.4,0-0.6,0c-4.3,0-8.6,0-12.9,0
			c-1.5,0-1.8,0.3-1.8,1.7c0,4.8-0.1,9.6,0,14.4c0,2.6,2.1,4.8,4.7,4.8c0.1,0,0.1,0,0.2,0c4.4,0.1,8.9,0,13.3,0
			c1.5,0,1.6-0.2,1.7-1.6C144.9,49.6,144.9,47.1,144.9,44.7z"/>
		<path class="st0" d="M186.2,87.8c0-1.7-0.1-3.4,0-5.1c0.2-3.2,2.1-5,5.2-5c2,0,4.1-0.3,5.8,1.2c0.4,0.2,0.9,0.1,1.3-0.1
			c2.2-1.6,4.6-1.2,7-0.9c2,0.2,3.5,1.8,3.7,3.8c0.2,1.4,0.3,2.8,0.3,4.1c0,2.5,0,5.1,0,7.6c0,1.1-0.3,1.3-1.4,1.3
			c-1,0-1.1-0.7-1.1-1.4c0-2.7,0-5.4,0-8.2c0-0.6,0-1.1-0.1-1.7c-0.3-1.9-1.9-3.3-3.8-3.4c-1.8,0-3.5,1.2-3.9,3
			c-0.2,0.9-0.3,1.7-0.3,2.6c0,2.5,0,4.9,0,7.4c0,0.8,0.2,1.7-1.1,1.7c-1,0-1.1-0.2-1.1-1.7c0-2.4,0.1-4.8,0-7.2
			c0-1.1-0.2-2.3-0.6-3.3c-0.6-1.5-2.1-2.6-3.7-2.5c-1.6,0-3.1,1-3.7,2.5c-0.2,0.8-0.4,1.6-0.4,2.4c0,2.7,0,5.4,0,8.2
			c0,0.5-0.2,1-0.6,1.4c-0.8,0.5-1.6-0.1-1.6-1.1C186.2,91.4,186.2,89.6,186.2,87.8L186.2,87.8z"/>
		<path class="st0" d="M150.1,82.7c0-3.4,0-6.8,0-10.2c0-0.7-0.1-1.4,0.9-1.6s1.6,0.2,1.6,1.5c0,3.5,0,7.1,0,10.6
			c0.1,0.8,0.2,1.7,0.4,2.5c0.6-0.5,1.2-1,1.7-1.5c1.3-1.5,2.6-3.1,3.9-4.6c0.3-0.5,0.8-0.8,1.3-1.1c0.7-0.1,1.3-0.1,2,0
			c-0.2,0.5-0.5,1-0.8,1.5c-0.8,1.1-1.8,2.1-2.7,3.2c-1.1,1.3-1.1,1.4-0.2,2.8c1.5,2.5,3.1,5.1,4.6,7.6c0.6,1.1,0.5,1.2-0.7,1.3
			c-0.9,0.1-1.8-0.4-2.1-1.2c-1.1-1.9-2.2-3.8-3.4-5.7c-0.7-1.2-1-1.1-2-0.2c-1.6,1.3-2.4,3.4-2.1,5.4c0.1,0.6,0.2,1.4-0.8,1.7
			s-1.6-0.1-1.6-1.4C150,89.6,150,86.1,150.1,82.7L150.1,82.7z"/>
		<path class="st0" d="M180,87.9c0,1.7,0,3.4,0,5.1c0,0.5-0.2,1-0.6,1.4c-0.5,0.3-1.2,0.2-1.5-0.4c0,0,0-0.1-0.1-0.1
			c-0.4-1-1-0.4-1.5,0c-1.6,1.1-3.6,1.4-5.5,0.9c-2.4-0.4-4-2.5-3.9-4.9c0-2.5,1.9-4.5,4.3-4.7c1.4-0.1,2.9,0,4.4-0.1
			c1.5-0.1,1.9-0.4,1.9-1.9c0.2-1.7-1.1-3.3-2.8-3.5c-0.1,0-0.1,0-0.2,0c-1.5-0.3-3.1,0-4.4,0.7c-0.7,0.4-1.3,0.4-1.7-0.4
			c-0.4-0.8,0.2-1.3,0.9-1.5c2.6-1.2,5.6-1.3,8.3-0.2c1.9,0.7,2.4,2.5,2.4,4.4C180.1,84.4,180,86.1,180,87.9z M173,92.9
			c3.3,0,5-1.8,4.6-4.7c-0.1-0.7-0.4-1.2-1.1-1.2c-1.5,0-3,0-4.5,0.2c-1.5,0.1-2.6,1.5-2.5,3c0,0,0,0,0,0c0.2,1.4,1.4,2.5,2.8,2.6
			C172.5,92.8,172.9,92.8,173,92.9L173,92.9z"/>
		<path class="st0" d="M144,87.5c0,1.8,0,3.7,0,5.5c0,0.5-0.2,1-0.6,1.4c-0.5,0.3-1.2,0.2-1.5-0.3c0-0.1-0.1-0.1-0.1-0.2
			c-0.4-0.8-0.9-0.5-1.4-0.1c-1.6,1.3-3.6,1.3-5.4,1c-2.3-0.3-4-2.1-3.8-5.2c0-2.3,1.9-4.3,4.2-4.3c1.4-0.1,2.8-0.1,4.2-0.1
			c2,0,2.6-0.8,2.1-2.7c-0.2-1.5-1.5-2.6-3.1-2.6c-1.5-0.2-3.1,0-4.4,0.7c-0.6,0.3-1.2,0.4-1.6-0.3c-0.4-0.7,0.1-1.3,0.8-1.6
			c2.7-1.3,5.7-1.4,8.5-0.2c1.4,0.6,2.2,2,2.1,3.5C144,83.7,143.9,85.6,144,87.5L144,87.5z M137.2,93c3-0.1,5-2.1,4.5-4.7
			c-0.1-0.5-0.5-1.2-0.9-1.2c-1.9-0.4-3.9-0.2-5.8,0.4c-1,0.4-1.6,1.4-1.6,2.4c-0.1,1.1,0.5,2.1,1.5,2.5
			C135.7,92.6,136.4,92.8,137.2,93z"/>
		<path class="st0" d="M221.6,77.6c3.9,0,6.1,1.9,6.8,5.9c0.3,2.1,0.3,4.2-0.1,6.2c-0.7,3.3-3,5.2-6.6,5.3c-3.6,0-5.9-1.8-6.6-5.2
			c-0.5-2.2-0.5-4.5,0-6.8C215.8,79.4,218,77.6,221.6,77.6z M217.2,86.1c0.1,1,0.2,2,0.3,3c0.3,2.3,2.5,3.9,4.8,3.5
			c1.8-0.3,3.2-1.6,3.5-3.3c0.6-2.2,0.5-4.6-0.2-6.7c-0.6-1.7-2.3-2.9-4.1-2.8c-1.9,0.1-3.4,1.4-3.8,3.2
			C217.5,84,217.3,85,217.2,86.1z"/>
		<path class="st0" d="M120.7,84c0-2.8,0-5.7,0-8.5c0-2-0.3-2.3-2.3-2.3c-1.2,0-2.4,0-3.6,0c-0.8,0-1.3-0.3-1.3-1.2s0.5-1.2,1.3-1.2
			h14c0.7,0,1.4,0.1,1.4,1.1c0,1-0.5,1.3-1.4,1.3c-1.2,0-2.4,0-3.6,0c-1.6,0-1.9,0.2-1.9,1.9c0,1.8,0,3.7,0,5.5c0,4.1,0,8.2,0,12.3
			c0,0.7,0.1,1.4-0.9,1.6c-1,0.2-1.6-0.2-1.7-1.4C120.7,90.1,120.8,87,120.7,84L120.7,84z"/>
		<path class="st0" d="M233.8,81.7c0-3.1,0-6.2,0-9.3c0-0.6-0.1-1.3,0.7-1.5c1-0.3,1.6,0.1,1.6,1.3c0,5.3,0,10.6,0,15.9
			c0,0.7,0,1.4,0.1,2.1c-0.1,1.1,0.7,2,1.7,2.2c1,0.2,1.2,0.8,1,1.7c-0.2,0.8-0.9,0.8-1.5,0.7c-2.4-0.2-3.4-1.2-3.5-3.6
			C233.8,88,233.9,84.8,233.8,81.7L233.8,81.7z"/>
		<path class="st0" d="M228.8,15.2v2.5c0.1,0.6-0.3,1.1-0.9,1.2c-0.1,0-0.2,0-0.3,0h-4.2c-0.6,0.1-1.2-0.4-1.3-1c0-0.1,0-0.2,0-0.3
			c0-1.6,0-3.3,0-4.9c0-0.6,0.4-1.1,1-1.2c0.1,0,0.1,0,0.2,0c1.4,0,2.8,0,4.2,0c0.9,0,1.3,0.4,1.3,1.2L228.8,15.2L228.8,15.2z"/>
		<path class="st0" d="M232.3,15c0-4-0.4-3.5,3.5-3.5c3.1,0,3.2-0.4,3.2,3.2c0,0.9,0,1.9,0,2.8c0.1,0.7-0.4,1.2-1.1,1.3
			c-0.1,0-0.2,0-0.2,0c-1.3,0-2.7,0-4,0c-0.9,0-1.4-0.4-1.4-1.4C232.3,16.5,232.3,15.9,232.3,15z"/>
	</g>
</g>
</svg>
